%TF.GenerationSoftware,KiCad,Pcbnew,10.0.3*%
%TF.CreationDate,2026-07-20T21:28:30-04:00*%
%TF.ProjectId,LoRa Board V3,4c6f5261-2042-46f6-9172-642056332e6b,rev?*%
%TF.SameCoordinates,Original*%
%TF.FileFunction,Copper,L4,Inr*%
%TF.FilePolarity,Positive*%
%FSLAX46Y46*%
G04 Gerber Fmt 4.6, Leading zero omitted, Abs format (unit mm)*
G04 Created by KiCad (PCBNEW 10.0.3) date 2026-07-20 21:28:30*
%MOMM*%
%LPD*%
G01*
G04 APERTURE LIST*
%TA.AperFunction,ComponentPad*%
%ADD10C,2.600000*%
%TD*%
%TA.AperFunction,ViaPad*%
%ADD11C,0.400000*%
%TD*%
%TA.AperFunction,ViaPad*%
%ADD12C,0.550000*%
%TD*%
%TA.AperFunction,Conductor*%
%ADD13C,0.127000*%
%TD*%
G04 APERTURE END LIST*
D10*
%TO.N,N/C*%
%TO.C,H4*%
X101060000Y-128650000D03*
%TD*%
%TO.N,N/C*%
%TO.C,H2*%
X101060000Y-106150000D03*
%TD*%
%TO.N,N/C*%
%TO.C,H3*%
X84310000Y-128650000D03*
%TD*%
%TO.N,N/C*%
%TO.C,H1*%
X84310000Y-106150000D03*
%TD*%
D11*
%TO.N,GND*%
X86660000Y-121200000D03*
%TO.N,LoRa_RX*%
X87840000Y-121240000D03*
%TO.N,LoRa_TX*%
X87290000Y-121250000D03*
X93310000Y-125860000D03*
%TO.N,LoRa_RX*%
X94420000Y-125890000D03*
D12*
%TO.N,VBUS*%
X99110000Y-117530000D03*
D11*
%TO.N,GND*%
X91040000Y-106550000D03*
X93800000Y-105520000D03*
X93530000Y-109340000D03*
X91790000Y-111040000D03*
X94100000Y-116640000D03*
X96630000Y-104150000D03*
X86930000Y-120430000D03*
X98410000Y-118330000D03*
X97890000Y-129630000D03*
X100460000Y-112660000D03*
X95260000Y-109040000D03*
X91020000Y-108150000D03*
X91050000Y-105720000D03*
X96220000Y-110580000D03*
X96180000Y-109010000D03*
X88460000Y-121050000D03*
X95300000Y-115840000D03*
X82940000Y-114990000D03*
X95260000Y-111350000D03*
X99530000Y-121720000D03*
X91160000Y-110280000D03*
X82660000Y-117800000D03*
X93800000Y-104140000D03*
X85440000Y-122260000D03*
X94070000Y-119490000D03*
X88160000Y-104220000D03*
X91040000Y-107360000D03*
X84360000Y-113780000D03*
X86650000Y-109420000D03*
X102220000Y-111170000D03*
X87500000Y-123150000D03*
X96380000Y-108120000D03*
X92370000Y-127660000D03*
X98510000Y-126870000D03*
X91080000Y-113110000D03*
X102920000Y-109530000D03*
X86540000Y-116130000D03*
X91360000Y-122830000D03*
X94400000Y-109040000D03*
X82960000Y-111040000D03*
X93760000Y-114860000D03*
X84990000Y-109380000D03*
X92270000Y-122180000D03*
X90430000Y-116750000D03*
X93770000Y-106320000D03*
X89080000Y-122760000D03*
X89730000Y-122750000D03*
X102090000Y-125670000D03*
X86680000Y-111200000D03*
X84140000Y-120080000D03*
X91050000Y-104940000D03*
X96585000Y-121060000D03*
X87350000Y-119540000D03*
X88160000Y-104910000D03*
X87880000Y-112810000D03*
X90450000Y-115890000D03*
X88160000Y-105640000D03*
X95280000Y-109860000D03*
X87300000Y-113570000D03*
X91400000Y-127640000D03*
X82640000Y-109440000D03*
X90430000Y-117740000D03*
X96630000Y-104930000D03*
X82740000Y-121830000D03*
X89180000Y-113530000D03*
X86830000Y-117900000D03*
X93470000Y-110200000D03*
X96580000Y-106460000D03*
X86200000Y-126680000D03*
X86240000Y-111860000D03*
X103000000Y-118990000D03*
X88160000Y-107100000D03*
X86220000Y-120440000D03*
X93680000Y-107840000D03*
X93800000Y-104770000D03*
X91050000Y-104190000D03*
X82480000Y-123010000D03*
X88170000Y-107750000D03*
X97380000Y-125190000D03*
X88130000Y-108450000D03*
X89720000Y-112690000D03*
X88690000Y-120390000D03*
X93660000Y-108600000D03*
X97800000Y-112660000D03*
X82320000Y-126030000D03*
X92820000Y-122410000D03*
X88120000Y-113720000D03*
X90250000Y-109060000D03*
X96510000Y-107410000D03*
X95660000Y-115320000D03*
X84350000Y-117720000D03*
X88890000Y-126440000D03*
X88170000Y-106370000D03*
X83870000Y-119040000D03*
X97910000Y-111195000D03*
X82650000Y-113830000D03*
X88690000Y-109080000D03*
X95280000Y-110600000D03*
X95300000Y-113320000D03*
X84420000Y-121910000D03*
X94540000Y-116180000D03*
X97560000Y-119270000D03*
X86190000Y-119620000D03*
X85870000Y-109410000D03*
X93740000Y-107130000D03*
X92580000Y-111140000D03*
X102990000Y-121620000D03*
X90480000Y-121210000D03*
X88530000Y-122780000D03*
X87740000Y-120440000D03*
X87310000Y-116760000D03*
X93300000Y-110980000D03*
X84780000Y-111100000D03*
X96560000Y-105760000D03*
X95360000Y-114390000D03*
X99280000Y-115920000D03*
X95890000Y-121690000D03*
X95300000Y-112310000D03*
X91500000Y-109530000D03*
X93440000Y-122390000D03*
X97970000Y-122450000D03*
X90600000Y-120380000D03*
X82670000Y-120850000D03*
X89570000Y-109080000D03*
X89610000Y-120440000D03*
X91020000Y-108960000D03*
X97740000Y-116570000D03*
%TO.N,+3V3*%
X102900000Y-112740000D03*
X87205000Y-125715000D03*
X83700000Y-121830000D03*
X94540000Y-117450000D03*
X87950000Y-124820000D03*
X88170000Y-125715000D03*
X94150000Y-122360000D03*
%TO.N,L_RST*%
X94540000Y-114910000D03*
%TO.N,L_RXEN*%
X90550000Y-113190000D03*
%TO.N,L_BUSY*%
X89605000Y-113225000D03*
%TO.N,L_MISO*%
X89550000Y-114120000D03*
%TO.N,L_MOSI*%
X84550000Y-115770000D03*
%TO.N,L_CS*%
X85990000Y-116180000D03*
%TO.N,L_SCK*%
X85980000Y-117880000D03*
%TO.N,L_DI01*%
X89000000Y-121070000D03*
%TO.N,IND_2*%
X84160000Y-126067500D03*
%TO.N,IND_1*%
X83020000Y-126030000D03*
D12*
%TO.N,VSS*%
X91400000Y-126395000D03*
X102990000Y-119920000D03*
D11*
%TO.N,Net-(U28-GPIO0)*%
X102010000Y-109595000D03*
X89740000Y-121300000D03*
D12*
%TO.N,+BATT*%
X92400000Y-126395000D03*
X99510000Y-122390000D03*
D11*
%TO.N,OUT_VDD_SPI*%
X87750000Y-111950000D03*
X86050000Y-113930000D03*
%TO.N,OUT_SPI_HD*%
X87740000Y-111149900D03*
X86586500Y-114360000D03*
%TO.N,OUT_SPI_Q*%
X82680000Y-113230000D03*
X83803000Y-111149900D03*
%TO.N,OUT_SPI_D*%
X88510000Y-114130000D03*
X87740000Y-109549700D03*
%TO.N,D+*%
X82900000Y-115830000D03*
X97525000Y-118365000D03*
X98600000Y-110420000D03*
%TO.N,D-*%
X97722550Y-108624800D03*
X95655000Y-118025000D03*
X82880000Y-116840000D03*
%TD*%
%TO.N,LoRa_RX*%
D13*
X94420000Y-125890000D02*
X93895000Y-125890000D01*
X93895000Y-125890000D02*
X90164500Y-122159500D01*
X90164500Y-122159500D02*
X88620000Y-122159500D01*
X88620000Y-122159500D02*
X88620000Y-122020000D01*
X88620000Y-122020000D02*
X87840000Y-121240000D01*
%TO.N,LoRa_TX*%
X93310000Y-125860000D02*
X93310000Y-125815933D01*
X93310000Y-125815933D02*
X89880567Y-122386500D01*
X89880567Y-122386500D02*
X88426500Y-122386500D01*
X88426500Y-122386500D02*
X87290000Y-121250000D01*
%TO.N,Net-(U28-GPIO0)*%
X97434026Y-118777000D02*
X97437026Y-118780000D01*
X97888500Y-118121500D02*
X101536400Y-114473600D01*
X90230000Y-121690000D02*
X90690000Y-121690000D01*
X89840000Y-121300000D02*
X90230000Y-121690000D01*
X97437026Y-118780000D02*
X97624067Y-118780000D01*
X89740000Y-121300000D02*
X89840000Y-121300000D01*
X90690000Y-121690000D02*
X91080000Y-121300000D01*
X97624067Y-118780000D02*
X97888500Y-118515567D01*
X91200000Y-121300000D02*
X93723000Y-118777000D01*
X101536400Y-114473600D02*
X101536400Y-110068600D01*
X93723000Y-118777000D02*
X97434026Y-118777000D01*
X97888500Y-118515567D02*
X97888500Y-118121500D01*
X101536400Y-110068600D02*
X102010000Y-109595000D01*
X91080000Y-121300000D02*
X91200000Y-121300000D01*
%TO.N,OUT_SPI_HD*%
X87740000Y-111149900D02*
X86586500Y-112303400D01*
X86586500Y-112303400D02*
X86586500Y-114360000D01*
%TO.N,OUT_SPI_D*%
X88510000Y-110319700D02*
X87740000Y-109549700D01*
X88510000Y-114130000D02*
X88510000Y-110319700D01*
%TO.N,D+*%
X82516500Y-116990567D02*
X82516500Y-116213500D01*
X98600000Y-110420000D02*
X98600000Y-110590393D01*
X97525000Y-117925000D02*
X97525000Y-118365000D01*
X98600000Y-110590393D02*
X98840000Y-110830393D01*
X98840000Y-110830393D02*
X98840000Y-116610000D01*
X82516500Y-116213500D02*
X82900000Y-115830000D01*
X97525000Y-118365000D02*
X97340000Y-118550000D01*
X98840000Y-116610000D02*
X97525000Y-117925000D01*
X97340000Y-118550000D02*
X84075933Y-118550000D01*
X84075933Y-118550000D02*
X82516500Y-116990567D01*
%TO.N,D-*%
X95655000Y-118025000D02*
X95357000Y-118323000D01*
X96909600Y-116770400D02*
X95655000Y-118025000D01*
X82880000Y-117033041D02*
X82880000Y-116840000D01*
X96909600Y-109437750D02*
X96909600Y-116770400D01*
X84169959Y-118323000D02*
X82880000Y-117033041D01*
X95357000Y-118323000D02*
X84169959Y-118323000D01*
X97722550Y-108624800D02*
X96909600Y-109437750D01*
%TD*%
%TA.AperFunction,Conductor*%
%TO.N,GND*%
G36*
X102863056Y-103900801D02*
G01*
X103009851Y-103915258D01*
X103021860Y-103917647D01*
X103160072Y-103959573D01*
X103171382Y-103964258D01*
X103298748Y-104032337D01*
X103308936Y-104039144D01*
X103420573Y-104130763D01*
X103429236Y-104139426D01*
X103520855Y-104251063D01*
X103527662Y-104261251D01*
X103595739Y-104388613D01*
X103600428Y-104399932D01*
X103642351Y-104538135D01*
X103644741Y-104550152D01*
X103659199Y-104696943D01*
X103659500Y-104703069D01*
X103659500Y-130196930D01*
X103659199Y-130203056D01*
X103644741Y-130349847D01*
X103642351Y-130361864D01*
X103600428Y-130500067D01*
X103595739Y-130511386D01*
X103527662Y-130638748D01*
X103520855Y-130648936D01*
X103429236Y-130760573D01*
X103420573Y-130769236D01*
X103308936Y-130860855D01*
X103298748Y-130867662D01*
X103171386Y-130935739D01*
X103160067Y-130940428D01*
X103021864Y-130982351D01*
X103009847Y-130984741D01*
X102863056Y-130999199D01*
X102856930Y-130999500D01*
X82863070Y-130999500D01*
X82856944Y-130999199D01*
X82710152Y-130984741D01*
X82698135Y-130982351D01*
X82559932Y-130940428D01*
X82548613Y-130935739D01*
X82421251Y-130867662D01*
X82411063Y-130860855D01*
X82299426Y-130769236D01*
X82290763Y-130760573D01*
X82199144Y-130648936D01*
X82192337Y-130638748D01*
X82124260Y-130511386D01*
X82119573Y-130500072D01*
X82077647Y-130361860D01*
X82075258Y-130349847D01*
X82060801Y-130203056D01*
X82060500Y-130196930D01*
X82060500Y-128537655D01*
X82882500Y-128537655D01*
X82882500Y-128762344D01*
X82882501Y-128762360D01*
X82917649Y-128984271D01*
X82917649Y-128984272D01*
X82987084Y-129197971D01*
X82987085Y-129197973D01*
X83089093Y-129398173D01*
X83221164Y-129579954D01*
X83221167Y-129579957D01*
X83221170Y-129579961D01*
X83380038Y-129738829D01*
X83380041Y-129738831D01*
X83380046Y-129738836D01*
X83561827Y-129870907D01*
X83762030Y-129972916D01*
X83975726Y-130042350D01*
X84069259Y-130057164D01*
X84197639Y-130077498D01*
X84197645Y-130077498D01*
X84197653Y-130077500D01*
X84197655Y-130077500D01*
X84422345Y-130077500D01*
X84422347Y-130077500D01*
X84644274Y-130042350D01*
X84857970Y-129972916D01*
X85058173Y-129870907D01*
X85239954Y-129738836D01*
X85398836Y-129579954D01*
X85530907Y-129398173D01*
X85632916Y-129197970D01*
X85702350Y-128984274D01*
X85737500Y-128762347D01*
X85737500Y-128537655D01*
X99632500Y-128537655D01*
X99632500Y-128762344D01*
X99632501Y-128762360D01*
X99667649Y-128984271D01*
X99667649Y-128984272D01*
X99737084Y-129197971D01*
X99737085Y-129197973D01*
X99839093Y-129398173D01*
X99971164Y-129579954D01*
X99971167Y-129579957D01*
X99971170Y-129579961D01*
X100130038Y-129738829D01*
X100130041Y-129738831D01*
X100130046Y-129738836D01*
X100311827Y-129870907D01*
X100512030Y-129972916D01*
X100725726Y-130042350D01*
X100819259Y-130057164D01*
X100947639Y-130077498D01*
X100947645Y-130077498D01*
X100947653Y-130077500D01*
X100947655Y-130077500D01*
X101172345Y-130077500D01*
X101172347Y-130077500D01*
X101394274Y-130042350D01*
X101607970Y-129972916D01*
X101808173Y-129870907D01*
X101989954Y-129738836D01*
X102148836Y-129579954D01*
X102280907Y-129398173D01*
X102382916Y-129197970D01*
X102452350Y-128984274D01*
X102487500Y-128762347D01*
X102487500Y-128537653D01*
X102452350Y-128315726D01*
X102382916Y-128102030D01*
X102280907Y-127901827D01*
X102148836Y-127720046D01*
X102148831Y-127720041D01*
X102148829Y-127720038D01*
X101989961Y-127561170D01*
X101989957Y-127561167D01*
X101989954Y-127561164D01*
X101808173Y-127429093D01*
X101607973Y-127327085D01*
X101607971Y-127327084D01*
X101394272Y-127257649D01*
X101172360Y-127222501D01*
X101172348Y-127222500D01*
X101172347Y-127222500D01*
X100947653Y-127222500D01*
X100947651Y-127222500D01*
X100947639Y-127222501D01*
X100725728Y-127257649D01*
X100725727Y-127257649D01*
X100512028Y-127327084D01*
X100512026Y-127327085D01*
X100311826Y-127429093D01*
X100130038Y-127561170D01*
X99971170Y-127720038D01*
X99839093Y-127901826D01*
X99737085Y-128102026D01*
X99737084Y-128102028D01*
X99667649Y-128315727D01*
X99667649Y-128315728D01*
X99632501Y-128537639D01*
X99632500Y-128537655D01*
X85737500Y-128537655D01*
X85737500Y-128537653D01*
X85702350Y-128315726D01*
X85632916Y-128102030D01*
X85530907Y-127901827D01*
X85398836Y-127720046D01*
X85398831Y-127720041D01*
X85398829Y-127720038D01*
X85239961Y-127561170D01*
X85239957Y-127561167D01*
X85239954Y-127561164D01*
X85058173Y-127429093D01*
X84857973Y-127327085D01*
X84857971Y-127327084D01*
X84644272Y-127257649D01*
X84422360Y-127222501D01*
X84422348Y-127222500D01*
X84422347Y-127222500D01*
X84197653Y-127222500D01*
X84197651Y-127222500D01*
X84197639Y-127222501D01*
X83975728Y-127257649D01*
X83975727Y-127257649D01*
X83762028Y-127327084D01*
X83762026Y-127327085D01*
X83561826Y-127429093D01*
X83380038Y-127561170D01*
X83221170Y-127720038D01*
X83089093Y-127901826D01*
X82987085Y-128102026D01*
X82987084Y-128102028D01*
X82917649Y-128315727D01*
X82917649Y-128315728D01*
X82882501Y-128537639D01*
X82882500Y-128537655D01*
X82060500Y-128537655D01*
X82060500Y-125986878D01*
X82692500Y-125986878D01*
X82692500Y-126073121D01*
X82714818Y-126156407D01*
X82714818Y-126156409D01*
X82714819Y-126156410D01*
X82757935Y-126231090D01*
X82818910Y-126292065D01*
X82893590Y-126335181D01*
X82919057Y-126342005D01*
X82976878Y-126357499D01*
X82976884Y-126357500D01*
X83063116Y-126357500D01*
X83063121Y-126357499D01*
X83087865Y-126350868D01*
X83146410Y-126335181D01*
X83221090Y-126292065D01*
X83282065Y-126231090D01*
X83325181Y-126156410D01*
X83342684Y-126091090D01*
X83347499Y-126073121D01*
X83347500Y-126073115D01*
X83347500Y-126024378D01*
X83832500Y-126024378D01*
X83832500Y-126110621D01*
X83854818Y-126193907D01*
X83854818Y-126193909D01*
X83867627Y-126216095D01*
X83897935Y-126268590D01*
X83958910Y-126329565D01*
X84033590Y-126372681D01*
X84059076Y-126379510D01*
X84116878Y-126394999D01*
X84116884Y-126395000D01*
X84203116Y-126395000D01*
X84203121Y-126394999D01*
X84227865Y-126388368D01*
X84286410Y-126372681D01*
X84339543Y-126342005D01*
X90997500Y-126342005D01*
X90997500Y-126447994D01*
X91024929Y-126550356D01*
X91024929Y-126550358D01*
X91077921Y-126642142D01*
X91077924Y-126642146D01*
X91152853Y-126717075D01*
X91152857Y-126717078D01*
X91152859Y-126717080D01*
X91244641Y-126770070D01*
X91289775Y-126782163D01*
X91347005Y-126797499D01*
X91347007Y-126797499D01*
X91347010Y-126797500D01*
X91347012Y-126797500D01*
X91452988Y-126797500D01*
X91452990Y-126797500D01*
X91555359Y-126770070D01*
X91647141Y-126717080D01*
X91722080Y-126642141D01*
X91775070Y-126550359D01*
X91802500Y-126447990D01*
X91802500Y-126342010D01*
X91802499Y-126342005D01*
X91997500Y-126342005D01*
X91997500Y-126447994D01*
X92024929Y-126550356D01*
X92024929Y-126550358D01*
X92077921Y-126642142D01*
X92077924Y-126642146D01*
X92152853Y-126717075D01*
X92152857Y-126717078D01*
X92152859Y-126717080D01*
X92244641Y-126770070D01*
X92289775Y-126782163D01*
X92347005Y-126797499D01*
X92347007Y-126797499D01*
X92347010Y-126797500D01*
X92347012Y-126797500D01*
X92452988Y-126797500D01*
X92452990Y-126797500D01*
X92555359Y-126770070D01*
X92647141Y-126717080D01*
X92722080Y-126642141D01*
X92775070Y-126550359D01*
X92802500Y-126447990D01*
X92802500Y-126342010D01*
X92799165Y-126329565D01*
X92782827Y-126268590D01*
X92775070Y-126239641D01*
X92722080Y-126147859D01*
X92722078Y-126147857D01*
X92722075Y-126147853D01*
X92647146Y-126072924D01*
X92647142Y-126072921D01*
X92647141Y-126072920D01*
X92555359Y-126019930D01*
X92555358Y-126019929D01*
X92555357Y-126019929D01*
X92452994Y-125992500D01*
X92452990Y-125992500D01*
X92347010Y-125992500D01*
X92347005Y-125992500D01*
X92244643Y-126019929D01*
X92244641Y-126019929D01*
X92152857Y-126072921D01*
X92152853Y-126072924D01*
X92077924Y-126147853D01*
X92077921Y-126147857D01*
X92024929Y-126239641D01*
X92024929Y-126239643D01*
X91997500Y-126342005D01*
X91802499Y-126342005D01*
X91799165Y-126329565D01*
X91782827Y-126268590D01*
X91775070Y-126239641D01*
X91722080Y-126147859D01*
X91722078Y-126147857D01*
X91722075Y-126147853D01*
X91647146Y-126072924D01*
X91647142Y-126072921D01*
X91647141Y-126072920D01*
X91555359Y-126019930D01*
X91555358Y-126019929D01*
X91555357Y-126019929D01*
X91452994Y-125992500D01*
X91452990Y-125992500D01*
X91347010Y-125992500D01*
X91347005Y-125992500D01*
X91244643Y-126019929D01*
X91244641Y-126019929D01*
X91152857Y-126072921D01*
X91152853Y-126072924D01*
X91077924Y-126147853D01*
X91077921Y-126147857D01*
X91024929Y-126239641D01*
X91024929Y-126239643D01*
X90997500Y-126342005D01*
X84339543Y-126342005D01*
X84361090Y-126329565D01*
X84422065Y-126268590D01*
X84465181Y-126193910D01*
X84487500Y-126110616D01*
X84487500Y-126024384D01*
X84487499Y-126024378D01*
X84474731Y-125976731D01*
X84465181Y-125941090D01*
X84422065Y-125866410D01*
X84361090Y-125805435D01*
X84286410Y-125762319D01*
X84286409Y-125762318D01*
X84286408Y-125762318D01*
X84203121Y-125740000D01*
X84203116Y-125740000D01*
X84116884Y-125740000D01*
X84116878Y-125740000D01*
X84033592Y-125762318D01*
X84033590Y-125762318D01*
X83986417Y-125789554D01*
X83958910Y-125805435D01*
X83958909Y-125805436D01*
X83958905Y-125805439D01*
X83897939Y-125866405D01*
X83897936Y-125866409D01*
X83854818Y-125941090D01*
X83854818Y-125941092D01*
X83832500Y-126024378D01*
X83347500Y-126024378D01*
X83347500Y-125986884D01*
X83347499Y-125986878D01*
X83333094Y-125933121D01*
X83325181Y-125903590D01*
X83282065Y-125828910D01*
X83221090Y-125767935D01*
X83146410Y-125724819D01*
X83146409Y-125724818D01*
X83146408Y-125724818D01*
X83063121Y-125702500D01*
X83063116Y-125702500D01*
X82976884Y-125702500D01*
X82976878Y-125702500D01*
X82893592Y-125724818D01*
X82893590Y-125724818D01*
X82841095Y-125755126D01*
X82818910Y-125767935D01*
X82818909Y-125767936D01*
X82818905Y-125767939D01*
X82757939Y-125828905D01*
X82757936Y-125828909D01*
X82714818Y-125903590D01*
X82714818Y-125903592D01*
X82692500Y-125986878D01*
X82060500Y-125986878D01*
X82060500Y-125671878D01*
X86877500Y-125671878D01*
X86877500Y-125758121D01*
X86899818Y-125841407D01*
X86899818Y-125841409D01*
X86899819Y-125841410D01*
X86942935Y-125916090D01*
X87003910Y-125977065D01*
X87078590Y-126020181D01*
X87094253Y-126024378D01*
X87161878Y-126042499D01*
X87161884Y-126042500D01*
X87248116Y-126042500D01*
X87248121Y-126042499D01*
X87272865Y-126035868D01*
X87331410Y-126020181D01*
X87406090Y-125977065D01*
X87467065Y-125916090D01*
X87510181Y-125841410D01*
X87532500Y-125758116D01*
X87532500Y-125671884D01*
X87532499Y-125671878D01*
X87842500Y-125671878D01*
X87842500Y-125758121D01*
X87864818Y-125841407D01*
X87864818Y-125841409D01*
X87864819Y-125841410D01*
X87907935Y-125916090D01*
X87968910Y-125977065D01*
X88043590Y-126020181D01*
X88059253Y-126024378D01*
X88126878Y-126042499D01*
X88126884Y-126042500D01*
X88213116Y-126042500D01*
X88213121Y-126042499D01*
X88237865Y-126035868D01*
X88296410Y-126020181D01*
X88371090Y-125977065D01*
X88432065Y-125916090D01*
X88475181Y-125841410D01*
X88497500Y-125758116D01*
X88497500Y-125671884D01*
X88497499Y-125671878D01*
X88485639Y-125627619D01*
X88475181Y-125588590D01*
X88432065Y-125513910D01*
X88371090Y-125452935D01*
X88296410Y-125409819D01*
X88296409Y-125409818D01*
X88296408Y-125409818D01*
X88213121Y-125387500D01*
X88213116Y-125387500D01*
X88126884Y-125387500D01*
X88126878Y-125387500D01*
X88043592Y-125409818D01*
X88043590Y-125409818D01*
X87991095Y-125440126D01*
X87968910Y-125452935D01*
X87968909Y-125452936D01*
X87968905Y-125452939D01*
X87907939Y-125513905D01*
X87907936Y-125513909D01*
X87864818Y-125588590D01*
X87864818Y-125588592D01*
X87842500Y-125671878D01*
X87532499Y-125671878D01*
X87520639Y-125627619D01*
X87510181Y-125588590D01*
X87467065Y-125513910D01*
X87406090Y-125452935D01*
X87331410Y-125409819D01*
X87331409Y-125409818D01*
X87331408Y-125409818D01*
X87248121Y-125387500D01*
X87248116Y-125387500D01*
X87161884Y-125387500D01*
X87161878Y-125387500D01*
X87078592Y-125409818D01*
X87078590Y-125409818D01*
X87026095Y-125440126D01*
X87003910Y-125452935D01*
X87003909Y-125452936D01*
X87003905Y-125452939D01*
X86942939Y-125513905D01*
X86942936Y-125513909D01*
X86899818Y-125588590D01*
X86899818Y-125588592D01*
X86877500Y-125671878D01*
X82060500Y-125671878D01*
X82060500Y-124776878D01*
X87622500Y-124776878D01*
X87622500Y-124863121D01*
X87644818Y-124946407D01*
X87644818Y-124946409D01*
X87644819Y-124946410D01*
X87687935Y-125021090D01*
X87748910Y-125082065D01*
X87823590Y-125125181D01*
X87849076Y-125132010D01*
X87906878Y-125147499D01*
X87906884Y-125147500D01*
X87993116Y-125147500D01*
X87993121Y-125147499D01*
X88017865Y-125140868D01*
X88076410Y-125125181D01*
X88151090Y-125082065D01*
X88212065Y-125021090D01*
X88255181Y-124946410D01*
X88277500Y-124863116D01*
X88277500Y-124776884D01*
X88277499Y-124776878D01*
X88265639Y-124732619D01*
X88255181Y-124693590D01*
X88212065Y-124618910D01*
X88151090Y-124557935D01*
X88076410Y-124514819D01*
X88076409Y-124514818D01*
X88076408Y-124514818D01*
X87993121Y-124492500D01*
X87993116Y-124492500D01*
X87906884Y-124492500D01*
X87906878Y-124492500D01*
X87823592Y-124514818D01*
X87823590Y-124514818D01*
X87771095Y-124545126D01*
X87748910Y-124557935D01*
X87748909Y-124557936D01*
X87748905Y-124557939D01*
X87687939Y-124618905D01*
X87687936Y-124618909D01*
X87644818Y-124693590D01*
X87644818Y-124693592D01*
X87622500Y-124776878D01*
X82060500Y-124776878D01*
X82060500Y-121786878D01*
X83372500Y-121786878D01*
X83372500Y-121873121D01*
X83394818Y-121956407D01*
X83394818Y-121956409D01*
X83394819Y-121956410D01*
X83437935Y-122031090D01*
X83498910Y-122092065D01*
X83573590Y-122135181D01*
X83599076Y-122142010D01*
X83656878Y-122157499D01*
X83656884Y-122157500D01*
X83743116Y-122157500D01*
X83743121Y-122157499D01*
X83767865Y-122150868D01*
X83826410Y-122135181D01*
X83901090Y-122092065D01*
X83962065Y-122031090D01*
X84005181Y-121956410D01*
X84025066Y-121882200D01*
X84027499Y-121873121D01*
X84027500Y-121873115D01*
X84027500Y-121786884D01*
X84027499Y-121786878D01*
X84015639Y-121742619D01*
X84005181Y-121703590D01*
X83962065Y-121628910D01*
X83901090Y-121567935D01*
X83826410Y-121524819D01*
X83826409Y-121524818D01*
X83826408Y-121524818D01*
X83743121Y-121502500D01*
X83743116Y-121502500D01*
X83656884Y-121502500D01*
X83656878Y-121502500D01*
X83573592Y-121524818D01*
X83573590Y-121524818D01*
X83521095Y-121555126D01*
X83498910Y-121567935D01*
X83498909Y-121567936D01*
X83498905Y-121567939D01*
X83437939Y-121628905D01*
X83437936Y-121628909D01*
X83394818Y-121703590D01*
X83394818Y-121703592D01*
X83372500Y-121786878D01*
X82060500Y-121786878D01*
X82060500Y-116175508D01*
X82325500Y-116175508D01*
X82325500Y-116952575D01*
X82325500Y-117028559D01*
X82354578Y-117098760D01*
X83967740Y-118711922D01*
X84037941Y-118741000D01*
X84113925Y-118741000D01*
X93337997Y-118741000D01*
X93382191Y-118759306D01*
X93400497Y-118803500D01*
X93382191Y-118847694D01*
X91139191Y-121090694D01*
X91094997Y-121109000D01*
X91042008Y-121109000D01*
X90971808Y-121138077D01*
X90971805Y-121138079D01*
X90629191Y-121480694D01*
X90584997Y-121499000D01*
X90335003Y-121499000D01*
X90290809Y-121480694D01*
X90079525Y-121269410D01*
X90063349Y-121241392D01*
X90045182Y-121173593D01*
X90045181Y-121173590D01*
X90029543Y-121146504D01*
X90002065Y-121098910D01*
X89941090Y-121037935D01*
X89866410Y-120994819D01*
X89866409Y-120994818D01*
X89866408Y-120994818D01*
X89783121Y-120972500D01*
X89783116Y-120972500D01*
X89696884Y-120972500D01*
X89696878Y-120972500D01*
X89613592Y-120994818D01*
X89613590Y-120994818D01*
X89561095Y-121025126D01*
X89538910Y-121037935D01*
X89538909Y-121037936D01*
X89538905Y-121037939D01*
X89477939Y-121098905D01*
X89477934Y-121098911D01*
X89445018Y-121155923D01*
X89445016Y-121155926D01*
X89434819Y-121173590D01*
X89412500Y-121256884D01*
X89412500Y-121256941D01*
X89412500Y-121343121D01*
X89434818Y-121426407D01*
X89434818Y-121426409D01*
X89434819Y-121426410D01*
X89477935Y-121501090D01*
X89538910Y-121562065D01*
X89613590Y-121605181D01*
X89639076Y-121612010D01*
X89696878Y-121627499D01*
X89696884Y-121627500D01*
X89783116Y-121627500D01*
X89838381Y-121612691D01*
X89885807Y-121618934D01*
X89898752Y-121628867D01*
X90121809Y-121851924D01*
X90124968Y-121854035D01*
X90151543Y-121893809D01*
X90142208Y-121940725D01*
X90102434Y-121967300D01*
X90090243Y-121968500D01*
X88847166Y-121968500D01*
X88802972Y-121950194D01*
X88789423Y-121929917D01*
X88781922Y-121911808D01*
X88781922Y-121911807D01*
X88728193Y-121858078D01*
X88185806Y-121315691D01*
X88167500Y-121271497D01*
X88167500Y-121196884D01*
X88167499Y-121196878D01*
X88151743Y-121138079D01*
X88145181Y-121113590D01*
X88102065Y-121038910D01*
X88090033Y-121026878D01*
X88672500Y-121026878D01*
X88672500Y-121113121D01*
X88694818Y-121196407D01*
X88694818Y-121196409D01*
X88700866Y-121206884D01*
X88737935Y-121271090D01*
X88798910Y-121332065D01*
X88873590Y-121375181D01*
X88878177Y-121376410D01*
X88956878Y-121397499D01*
X88956884Y-121397500D01*
X89043116Y-121397500D01*
X89043121Y-121397499D01*
X89067865Y-121390868D01*
X89126410Y-121375181D01*
X89201090Y-121332065D01*
X89262065Y-121271090D01*
X89305181Y-121196410D01*
X89327500Y-121113116D01*
X89327500Y-121026884D01*
X89327499Y-121026878D01*
X89314384Y-120977935D01*
X89305181Y-120943590D01*
X89262065Y-120868910D01*
X89201090Y-120807935D01*
X89126410Y-120764819D01*
X89126409Y-120764818D01*
X89126408Y-120764818D01*
X89043121Y-120742500D01*
X89043116Y-120742500D01*
X88956884Y-120742500D01*
X88956878Y-120742500D01*
X88873592Y-120764818D01*
X88873590Y-120764818D01*
X88821095Y-120795126D01*
X88798910Y-120807935D01*
X88798909Y-120807936D01*
X88798905Y-120807939D01*
X88737939Y-120868905D01*
X88737936Y-120868909D01*
X88694818Y-120943590D01*
X88694818Y-120943592D01*
X88672500Y-121026878D01*
X88090033Y-121026878D01*
X88041090Y-120977935D01*
X87966410Y-120934819D01*
X87966409Y-120934818D01*
X87966408Y-120934818D01*
X87883121Y-120912500D01*
X87883116Y-120912500D01*
X87796884Y-120912500D01*
X87796878Y-120912500D01*
X87713592Y-120934818D01*
X87713590Y-120934818D01*
X87661095Y-120965126D01*
X87638910Y-120977935D01*
X87638909Y-120977936D01*
X87638905Y-120977939D01*
X87604192Y-121012651D01*
X87559997Y-121030956D01*
X87515805Y-121012650D01*
X87491094Y-120987939D01*
X87491090Y-120987935D01*
X87416410Y-120944819D01*
X87416409Y-120944818D01*
X87416408Y-120944818D01*
X87333121Y-120922500D01*
X87333116Y-120922500D01*
X87246884Y-120922500D01*
X87246878Y-120922500D01*
X87163592Y-120944818D01*
X87163590Y-120944818D01*
X87111095Y-120975126D01*
X87088910Y-120987935D01*
X87088909Y-120987936D01*
X87088905Y-120987939D01*
X87027939Y-121048905D01*
X87027936Y-121048909D01*
X86984818Y-121123590D01*
X86984818Y-121123592D01*
X86962500Y-121206878D01*
X86962500Y-121293121D01*
X86984818Y-121376407D01*
X86984818Y-121376409D01*
X86984819Y-121376410D01*
X87027935Y-121451090D01*
X87088910Y-121512065D01*
X87163590Y-121555181D01*
X87189076Y-121562010D01*
X87246878Y-121577499D01*
X87246884Y-121577500D01*
X87321497Y-121577500D01*
X87365691Y-121595806D01*
X88318307Y-122548422D01*
X88388508Y-122577500D01*
X88464492Y-122577500D01*
X89775564Y-122577500D01*
X89819758Y-122595806D01*
X92969312Y-125745360D01*
X92987618Y-125789554D01*
X92985488Y-125805730D01*
X92982501Y-125816876D01*
X92982500Y-125816885D01*
X92982500Y-125903121D01*
X93004818Y-125986407D01*
X93004818Y-125986409D01*
X93006704Y-125989675D01*
X93047935Y-126061090D01*
X93108910Y-126122065D01*
X93183590Y-126165181D01*
X93209076Y-126172010D01*
X93266878Y-126187499D01*
X93266884Y-126187500D01*
X93353116Y-126187500D01*
X93353121Y-126187499D01*
X93377865Y-126180868D01*
X93436410Y-126165181D01*
X93511090Y-126122065D01*
X93572065Y-126061090D01*
X93613296Y-125989673D01*
X93651246Y-125960555D01*
X93698672Y-125966798D01*
X93711616Y-125976731D01*
X93786807Y-126051922D01*
X93857008Y-126081000D01*
X93932992Y-126081000D01*
X94121957Y-126081000D01*
X94166151Y-126099306D01*
X94218910Y-126152065D01*
X94293590Y-126195181D01*
X94319076Y-126202010D01*
X94376878Y-126217499D01*
X94376884Y-126217500D01*
X94463116Y-126217500D01*
X94463121Y-126217499D01*
X94487865Y-126210868D01*
X94546410Y-126195181D01*
X94621090Y-126152065D01*
X94682065Y-126091090D01*
X94725181Y-126016410D01*
X94745363Y-125941092D01*
X94747499Y-125933121D01*
X94747500Y-125933115D01*
X94747500Y-125846884D01*
X94747499Y-125846878D01*
X94726346Y-125767939D01*
X94725181Y-125763590D01*
X94682065Y-125688910D01*
X94621090Y-125627935D01*
X94546410Y-125584819D01*
X94546409Y-125584818D01*
X94546408Y-125584818D01*
X94463121Y-125562500D01*
X94463116Y-125562500D01*
X94376884Y-125562500D01*
X94376878Y-125562500D01*
X94293592Y-125584818D01*
X94293590Y-125584818D01*
X94241095Y-125615126D01*
X94218910Y-125627935D01*
X94218909Y-125627936D01*
X94218905Y-125627939D01*
X94166151Y-125680694D01*
X94121957Y-125699000D01*
X94000003Y-125699000D01*
X93955809Y-125680694D01*
X90591993Y-122316878D01*
X93822500Y-122316878D01*
X93822500Y-122403121D01*
X93844818Y-122486407D01*
X93844818Y-122486409D01*
X93844819Y-122486410D01*
X93887935Y-122561090D01*
X93948910Y-122622065D01*
X94023590Y-122665181D01*
X94049076Y-122672010D01*
X94106878Y-122687499D01*
X94106884Y-122687500D01*
X94193116Y-122687500D01*
X94193121Y-122687499D01*
X94217865Y-122680868D01*
X94276410Y-122665181D01*
X94351090Y-122622065D01*
X94412065Y-122561090D01*
X94455181Y-122486410D01*
X94477500Y-122403116D01*
X94477500Y-122337005D01*
X99107500Y-122337005D01*
X99107500Y-122442994D01*
X99134929Y-122545356D01*
X99134929Y-122545358D01*
X99187921Y-122637142D01*
X99187924Y-122637146D01*
X99262853Y-122712075D01*
X99262857Y-122712078D01*
X99262859Y-122712080D01*
X99354641Y-122765070D01*
X99399775Y-122777163D01*
X99457005Y-122792499D01*
X99457007Y-122792499D01*
X99457010Y-122792500D01*
X99457012Y-122792500D01*
X99562988Y-122792500D01*
X99562990Y-122792500D01*
X99665359Y-122765070D01*
X99757141Y-122712080D01*
X99832080Y-122637141D01*
X99885070Y-122545359D01*
X99912500Y-122442990D01*
X99912500Y-122337010D01*
X99885070Y-122234641D01*
X99832080Y-122142859D01*
X99832078Y-122142857D01*
X99832075Y-122142853D01*
X99757146Y-122067924D01*
X99757142Y-122067921D01*
X99757141Y-122067920D01*
X99665359Y-122014930D01*
X99665358Y-122014929D01*
X99665357Y-122014929D01*
X99562994Y-121987500D01*
X99562990Y-121987500D01*
X99457010Y-121987500D01*
X99457005Y-121987500D01*
X99354643Y-122014929D01*
X99354641Y-122014929D01*
X99262857Y-122067921D01*
X99262853Y-122067924D01*
X99187924Y-122142853D01*
X99187921Y-122142857D01*
X99134929Y-122234641D01*
X99134929Y-122234643D01*
X99107500Y-122337005D01*
X94477500Y-122337005D01*
X94477500Y-122316884D01*
X94477499Y-122316878D01*
X94455463Y-122234643D01*
X94455181Y-122233590D01*
X94412065Y-122158910D01*
X94351090Y-122097935D01*
X94276410Y-122054819D01*
X94276409Y-122054818D01*
X94276408Y-122054818D01*
X94193121Y-122032500D01*
X94193116Y-122032500D01*
X94106884Y-122032500D01*
X94106878Y-122032500D01*
X94023592Y-122054818D01*
X94023590Y-122054818D01*
X93971095Y-122085126D01*
X93948910Y-122097935D01*
X93948909Y-122097936D01*
X93948905Y-122097939D01*
X93887939Y-122158905D01*
X93887936Y-122158909D01*
X93844818Y-122233590D01*
X93844818Y-122233592D01*
X93822500Y-122316878D01*
X90591993Y-122316878D01*
X90272690Y-121997575D01*
X90269532Y-121995465D01*
X90242957Y-121955691D01*
X90252292Y-121908775D01*
X90292066Y-121882200D01*
X90304257Y-121881000D01*
X90727990Y-121881000D01*
X90727992Y-121881000D01*
X90798193Y-121851922D01*
X91140809Y-121509306D01*
X91185003Y-121491000D01*
X91237990Y-121491000D01*
X91237992Y-121491000D01*
X91308193Y-121461922D01*
X92076132Y-120693983D01*
X97234500Y-120693983D01*
X97234500Y-120806016D01*
X97234501Y-120806024D01*
X97263495Y-120914233D01*
X97263496Y-120914236D01*
X97291506Y-120962750D01*
X97310020Y-120994818D01*
X97319516Y-121011264D01*
X97319519Y-121011268D01*
X97398731Y-121090480D01*
X97398735Y-121090483D01*
X97398737Y-121090485D01*
X97481172Y-121138079D01*
X97495763Y-121146503D01*
X97495766Y-121146504D01*
X97530919Y-121155923D01*
X97603982Y-121175500D01*
X97603983Y-121175500D01*
X97716017Y-121175500D01*
X97716018Y-121175500D01*
X97824237Y-121146503D01*
X97921263Y-121090485D01*
X98000485Y-121011263D01*
X98056503Y-120914237D01*
X98085500Y-120806018D01*
X98085500Y-120693982D01*
X98056503Y-120585763D01*
X98000485Y-120488737D01*
X98000483Y-120488735D01*
X98000480Y-120488731D01*
X97921268Y-120409519D01*
X97921264Y-120409516D01*
X97921263Y-120409515D01*
X97872750Y-120381506D01*
X97824236Y-120353496D01*
X97824233Y-120353495D01*
X97716024Y-120324501D01*
X97716019Y-120324500D01*
X97716018Y-120324500D01*
X97603982Y-120324500D01*
X97603981Y-120324500D01*
X97603975Y-120324501D01*
X97495766Y-120353495D01*
X97495763Y-120353496D01*
X97398735Y-120409516D01*
X97398731Y-120409519D01*
X97319519Y-120488731D01*
X97319516Y-120488735D01*
X97263496Y-120585763D01*
X97263495Y-120585766D01*
X97234501Y-120693975D01*
X97234500Y-120693983D01*
X92076132Y-120693983D01*
X92903110Y-119867005D01*
X102587500Y-119867005D01*
X102587500Y-119972994D01*
X102614929Y-120075356D01*
X102614929Y-120075358D01*
X102667921Y-120167142D01*
X102667924Y-120167146D01*
X102742853Y-120242075D01*
X102742857Y-120242078D01*
X102742859Y-120242080D01*
X102834641Y-120295070D01*
X102879775Y-120307163D01*
X102937005Y-120322499D01*
X102937007Y-120322499D01*
X102937010Y-120322500D01*
X102937012Y-120322500D01*
X103042988Y-120322500D01*
X103042990Y-120322500D01*
X103145359Y-120295070D01*
X103237141Y-120242080D01*
X103312080Y-120167141D01*
X103365070Y-120075359D01*
X103392500Y-119972990D01*
X103392500Y-119867010D01*
X103365070Y-119764641D01*
X103312080Y-119672859D01*
X103312078Y-119672857D01*
X103312075Y-119672853D01*
X103237146Y-119597924D01*
X103237142Y-119597921D01*
X103237141Y-119597920D01*
X103145359Y-119544930D01*
X103145358Y-119544929D01*
X103145357Y-119544929D01*
X103042994Y-119517500D01*
X103042990Y-119517500D01*
X102937010Y-119517500D01*
X102937005Y-119517500D01*
X102834643Y-119544929D01*
X102834641Y-119544929D01*
X102742857Y-119597921D01*
X102742853Y-119597924D01*
X102667924Y-119672853D01*
X102667921Y-119672857D01*
X102614929Y-119764641D01*
X102614929Y-119764643D01*
X102587500Y-119867005D01*
X92903110Y-119867005D01*
X93783809Y-118986306D01*
X93828003Y-118968000D01*
X97379360Y-118968000D01*
X97392823Y-118970677D01*
X97392998Y-118969799D01*
X97399033Y-118970999D01*
X97399034Y-118971000D01*
X97399035Y-118971000D01*
X97662057Y-118971000D01*
X97662059Y-118971000D01*
X97732260Y-118941922D01*
X98050422Y-118623760D01*
X98079500Y-118553559D01*
X98079500Y-118477575D01*
X98079500Y-118226503D01*
X98097806Y-118182309D01*
X98357000Y-117923115D01*
X98628762Y-117651352D01*
X98672955Y-117633047D01*
X98717149Y-117651353D01*
X98733325Y-117679369D01*
X98734929Y-117685358D01*
X98754825Y-117719818D01*
X98779718Y-117762935D01*
X98787921Y-117777142D01*
X98787924Y-117777146D01*
X98862853Y-117852075D01*
X98862857Y-117852078D01*
X98862859Y-117852080D01*
X98954641Y-117905070D01*
X98999775Y-117917163D01*
X99057005Y-117932499D01*
X99057007Y-117932499D01*
X99057010Y-117932500D01*
X99057012Y-117932500D01*
X99162988Y-117932500D01*
X99162990Y-117932500D01*
X99265359Y-117905070D01*
X99357141Y-117852080D01*
X99432080Y-117777141D01*
X99485070Y-117685359D01*
X99512500Y-117582990D01*
X99512500Y-117477010D01*
X99485070Y-117374641D01*
X99432080Y-117282859D01*
X99432078Y-117282857D01*
X99432075Y-117282853D01*
X99357146Y-117207924D01*
X99357142Y-117207921D01*
X99357141Y-117207920D01*
X99311250Y-117181425D01*
X99265358Y-117154929D01*
X99259369Y-117153325D01*
X99221420Y-117124204D01*
X99215177Y-117076777D01*
X99231351Y-117048763D01*
X101698322Y-114581793D01*
X101727400Y-114511592D01*
X101727400Y-114435608D01*
X101727400Y-112696878D01*
X102572500Y-112696878D01*
X102572500Y-112783121D01*
X102594818Y-112866407D01*
X102594818Y-112866409D01*
X102594819Y-112866410D01*
X102637935Y-112941090D01*
X102698910Y-113002065D01*
X102773590Y-113045181D01*
X102799076Y-113052010D01*
X102856878Y-113067499D01*
X102856884Y-113067500D01*
X102943116Y-113067500D01*
X102943121Y-113067499D01*
X102967865Y-113060868D01*
X103026410Y-113045181D01*
X103101090Y-113002065D01*
X103162065Y-112941090D01*
X103205181Y-112866410D01*
X103227500Y-112783116D01*
X103227500Y-112696884D01*
X103227499Y-112696878D01*
X103215639Y-112652619D01*
X103205181Y-112613590D01*
X103162065Y-112538910D01*
X103101090Y-112477935D01*
X103026410Y-112434819D01*
X103026409Y-112434818D01*
X103026408Y-112434818D01*
X102943121Y-112412500D01*
X102943116Y-112412500D01*
X102856884Y-112412500D01*
X102856878Y-112412500D01*
X102773592Y-112434818D01*
X102773590Y-112434818D01*
X102721095Y-112465126D01*
X102698910Y-112477935D01*
X102698909Y-112477936D01*
X102698905Y-112477939D01*
X102637939Y-112538905D01*
X102637936Y-112538909D01*
X102594818Y-112613590D01*
X102594818Y-112613592D01*
X102572500Y-112696878D01*
X101727400Y-112696878D01*
X101727400Y-110173602D01*
X101745705Y-110129409D01*
X101934308Y-109940805D01*
X101978502Y-109922500D01*
X102053116Y-109922500D01*
X102053121Y-109922499D01*
X102077865Y-109915868D01*
X102136410Y-109900181D01*
X102211090Y-109857065D01*
X102272065Y-109796090D01*
X102315181Y-109721410D01*
X102337500Y-109638116D01*
X102337500Y-109551884D01*
X102337499Y-109551878D01*
X102323211Y-109498558D01*
X102315181Y-109468590D01*
X102272065Y-109393910D01*
X102211090Y-109332935D01*
X102136410Y-109289819D01*
X102136409Y-109289818D01*
X102136408Y-109289818D01*
X102053121Y-109267500D01*
X102053116Y-109267500D01*
X101966884Y-109267500D01*
X101966878Y-109267500D01*
X101883592Y-109289818D01*
X101883590Y-109289818D01*
X101831095Y-109320126D01*
X101808910Y-109332935D01*
X101808909Y-109332936D01*
X101808905Y-109332939D01*
X101747939Y-109393905D01*
X101747936Y-109393909D01*
X101704818Y-109468590D01*
X101704818Y-109468592D01*
X101682500Y-109551878D01*
X101682500Y-109626496D01*
X101664194Y-109670690D01*
X101428207Y-109906678D01*
X101374479Y-109960405D01*
X101374477Y-109960408D01*
X101345400Y-110030608D01*
X101345400Y-114368597D01*
X101327094Y-114412791D01*
X99137694Y-116602191D01*
X99093500Y-116620497D01*
X99049306Y-116602191D01*
X99031000Y-116557997D01*
X99031000Y-110792403D01*
X99031000Y-110792401D01*
X99001922Y-110722200D01*
X98948193Y-110668471D01*
X98910158Y-110630436D01*
X98891852Y-110586242D01*
X98900227Y-110554990D01*
X98905181Y-110546410D01*
X98927500Y-110463116D01*
X98927500Y-110376884D01*
X98927499Y-110376878D01*
X98915639Y-110332619D01*
X98905181Y-110293590D01*
X98862065Y-110218910D01*
X98801090Y-110157935D01*
X98726410Y-110114819D01*
X98726409Y-110114818D01*
X98726408Y-110114818D01*
X98643121Y-110092500D01*
X98643116Y-110092500D01*
X98556884Y-110092500D01*
X98556878Y-110092500D01*
X98473592Y-110114818D01*
X98473590Y-110114818D01*
X98421095Y-110145126D01*
X98398910Y-110157935D01*
X98398909Y-110157936D01*
X98398905Y-110157939D01*
X98337939Y-110218905D01*
X98337936Y-110218909D01*
X98294818Y-110293590D01*
X98294818Y-110293592D01*
X98272500Y-110376878D01*
X98272500Y-110463121D01*
X98294818Y-110546407D01*
X98294818Y-110546409D01*
X98307627Y-110568595D01*
X98337935Y-110621090D01*
X98398910Y-110682065D01*
X98445368Y-110708887D01*
X98458312Y-110718820D01*
X98630694Y-110891202D01*
X98649000Y-110935396D01*
X98649000Y-116504997D01*
X98630694Y-116549191D01*
X97363079Y-117816805D01*
X97363077Y-117816808D01*
X97334000Y-117887008D01*
X97334000Y-118066957D01*
X97315694Y-118111151D01*
X97262939Y-118163905D01*
X97262936Y-118163909D01*
X97262935Y-118163910D01*
X97250126Y-118186095D01*
X97219818Y-118238590D01*
X97219818Y-118238592D01*
X97199966Y-118312677D01*
X97170845Y-118350627D01*
X97139596Y-118359000D01*
X95935043Y-118359000D01*
X95890849Y-118340694D01*
X95872543Y-118296500D01*
X95890849Y-118252306D01*
X95917065Y-118226090D01*
X95960181Y-118151410D01*
X95975868Y-118092865D01*
X95982499Y-118068121D01*
X95982500Y-118068115D01*
X95982500Y-117993502D01*
X96000806Y-117949308D01*
X96473109Y-117477005D01*
X97071522Y-116878593D01*
X97100600Y-116808392D01*
X97100600Y-116732408D01*
X97100600Y-114913983D01*
X97234500Y-114913983D01*
X97234500Y-115026016D01*
X97234501Y-115026024D01*
X97263495Y-115134233D01*
X97263496Y-115134236D01*
X97319516Y-115231264D01*
X97319519Y-115231268D01*
X97398731Y-115310480D01*
X97398735Y-115310483D01*
X97398737Y-115310485D01*
X97495763Y-115366503D01*
X97495766Y-115366504D01*
X97561988Y-115384247D01*
X97603982Y-115395500D01*
X97603983Y-115395500D01*
X97716017Y-115395500D01*
X97716018Y-115395500D01*
X97824237Y-115366503D01*
X97921263Y-115310485D01*
X98000485Y-115231263D01*
X98056503Y-115134237D01*
X98085500Y-115026018D01*
X98085500Y-114913982D01*
X98056503Y-114805763D01*
X98000485Y-114708737D01*
X98000483Y-114708735D01*
X98000480Y-114708731D01*
X97921268Y-114629519D01*
X97921264Y-114629516D01*
X97921263Y-114629515D01*
X97838608Y-114581794D01*
X97824236Y-114573496D01*
X97824233Y-114573495D01*
X97716024Y-114544501D01*
X97716019Y-114544500D01*
X97716018Y-114544500D01*
X97603982Y-114544500D01*
X97603981Y-114544500D01*
X97603975Y-114544501D01*
X97495766Y-114573495D01*
X97495763Y-114573496D01*
X97398735Y-114629516D01*
X97398731Y-114629519D01*
X97319519Y-114708731D01*
X97319516Y-114708735D01*
X97263496Y-114805763D01*
X97263495Y-114805766D01*
X97234501Y-114913975D01*
X97234500Y-114913983D01*
X97100600Y-114913983D01*
X97100600Y-109542752D01*
X97118905Y-109498559D01*
X97646858Y-108970605D01*
X97691052Y-108952300D01*
X97765666Y-108952300D01*
X97765671Y-108952299D01*
X97790415Y-108945668D01*
X97848960Y-108929981D01*
X97923640Y-108886865D01*
X97984615Y-108825890D01*
X98027731Y-108751210D01*
X98050050Y-108667916D01*
X98050050Y-108581684D01*
X98050049Y-108581678D01*
X98038189Y-108537419D01*
X98027731Y-108498390D01*
X97984615Y-108423710D01*
X97923640Y-108362735D01*
X97848960Y-108319619D01*
X97848959Y-108319618D01*
X97848958Y-108319618D01*
X97765671Y-108297300D01*
X97765666Y-108297300D01*
X97679434Y-108297300D01*
X97679428Y-108297300D01*
X97596142Y-108319618D01*
X97596140Y-108319618D01*
X97543645Y-108349926D01*
X97521460Y-108362735D01*
X97521459Y-108362736D01*
X97521455Y-108362739D01*
X97460489Y-108423705D01*
X97460486Y-108423709D01*
X97417368Y-108498390D01*
X97417368Y-108498392D01*
X97395050Y-108581678D01*
X97395050Y-108656296D01*
X97376744Y-108700490D01*
X96801407Y-109275828D01*
X96747679Y-109329555D01*
X96747677Y-109329558D01*
X96718600Y-109399758D01*
X96718600Y-116665396D01*
X96700294Y-116709590D01*
X95730690Y-117679194D01*
X95686496Y-117697500D01*
X95611878Y-117697500D01*
X95528592Y-117719818D01*
X95528590Y-117719818D01*
X95476095Y-117750126D01*
X95453910Y-117762935D01*
X95453909Y-117762936D01*
X95453905Y-117762939D01*
X95392939Y-117823905D01*
X95392936Y-117823909D01*
X95349818Y-117898590D01*
X95349818Y-117898592D01*
X95327500Y-117981878D01*
X95327500Y-118056495D01*
X95309196Y-118100687D01*
X95296192Y-118113692D01*
X95251998Y-118132000D01*
X86320925Y-118132000D01*
X86276731Y-118113694D01*
X86258425Y-118069500D01*
X86266798Y-118038250D01*
X86281199Y-118013307D01*
X86285181Y-118006410D01*
X86307500Y-117923116D01*
X86307500Y-117836884D01*
X86307499Y-117836878D01*
X86291588Y-117777500D01*
X86285181Y-117753590D01*
X86242065Y-117678910D01*
X86181090Y-117617935D01*
X86106410Y-117574819D01*
X86106409Y-117574818D01*
X86106408Y-117574818D01*
X86023121Y-117552500D01*
X86023116Y-117552500D01*
X85936884Y-117552500D01*
X85936878Y-117552500D01*
X85853592Y-117574818D01*
X85853590Y-117574818D01*
X85801095Y-117605126D01*
X85778910Y-117617935D01*
X85778909Y-117617936D01*
X85778905Y-117617939D01*
X85717939Y-117678905D01*
X85717936Y-117678909D01*
X85717935Y-117678910D01*
X85705126Y-117701095D01*
X85674818Y-117753590D01*
X85674818Y-117753592D01*
X85652500Y-117836878D01*
X85652500Y-117923121D01*
X85674818Y-118006407D01*
X85674818Y-118006409D01*
X85693202Y-118038250D01*
X85699445Y-118085677D01*
X85670325Y-118123627D01*
X85639075Y-118132000D01*
X84274962Y-118132000D01*
X84230768Y-118113694D01*
X83523952Y-117406878D01*
X94212500Y-117406878D01*
X94212500Y-117493121D01*
X94234818Y-117576407D01*
X94234818Y-117576409D01*
X94238618Y-117582990D01*
X94277935Y-117651090D01*
X94338910Y-117712065D01*
X94413590Y-117755181D01*
X94439076Y-117762010D01*
X94496878Y-117777499D01*
X94496884Y-117777500D01*
X94583116Y-117777500D01*
X94583121Y-117777499D01*
X94607865Y-117770868D01*
X94666410Y-117755181D01*
X94741090Y-117712065D01*
X94802065Y-117651090D01*
X94845181Y-117576410D01*
X94867500Y-117493116D01*
X94867500Y-117406884D01*
X94867499Y-117406878D01*
X94855639Y-117362619D01*
X94845181Y-117323590D01*
X94802065Y-117248910D01*
X94741090Y-117187935D01*
X94666410Y-117144819D01*
X94666409Y-117144818D01*
X94666408Y-117144818D01*
X94583121Y-117122500D01*
X94583116Y-117122500D01*
X94496884Y-117122500D01*
X94496878Y-117122500D01*
X94413592Y-117144818D01*
X94413590Y-117144818D01*
X94361095Y-117175126D01*
X94338910Y-117187935D01*
X94338909Y-117187936D01*
X94338905Y-117187939D01*
X94277939Y-117248905D01*
X94277936Y-117248909D01*
X94234818Y-117323590D01*
X94234818Y-117323592D01*
X94212500Y-117406878D01*
X83523952Y-117406878D01*
X83181868Y-117064794D01*
X83163562Y-117020600D01*
X83171936Y-116989350D01*
X83185181Y-116966410D01*
X83207500Y-116883116D01*
X83207500Y-116796884D01*
X83207499Y-116796878D01*
X83186414Y-116718193D01*
X83185181Y-116713590D01*
X83142065Y-116638910D01*
X83081090Y-116577935D01*
X83006410Y-116534819D01*
X83006409Y-116534818D01*
X83006408Y-116534818D01*
X82923121Y-116512500D01*
X82923116Y-116512500D01*
X82836884Y-116512500D01*
X82836876Y-116512501D01*
X82786176Y-116526086D01*
X82738750Y-116519842D01*
X82709630Y-116481892D01*
X82707500Y-116465716D01*
X82707500Y-116318502D01*
X82725805Y-116274309D01*
X82824308Y-116175805D01*
X82868502Y-116157500D01*
X82943116Y-116157500D01*
X82943121Y-116157499D01*
X82967865Y-116150868D01*
X83020077Y-116136878D01*
X85662500Y-116136878D01*
X85662500Y-116223121D01*
X85684818Y-116306407D01*
X85684818Y-116306409D01*
X85684819Y-116306410D01*
X85727935Y-116381090D01*
X85788910Y-116442065D01*
X85863590Y-116485181D01*
X85889076Y-116492010D01*
X85946878Y-116507499D01*
X85946884Y-116507500D01*
X86033116Y-116507500D01*
X86033121Y-116507499D01*
X86057865Y-116500868D01*
X86116410Y-116485181D01*
X86191090Y-116442065D01*
X86252065Y-116381090D01*
X86295181Y-116306410D01*
X86317500Y-116223116D01*
X86317500Y-116136884D01*
X86317499Y-116136878D01*
X86300966Y-116075181D01*
X86295181Y-116053590D01*
X86252065Y-115978910D01*
X86191090Y-115917935D01*
X86116410Y-115874819D01*
X86116409Y-115874818D01*
X86116408Y-115874818D01*
X86033121Y-115852500D01*
X86033116Y-115852500D01*
X85946884Y-115852500D01*
X85946878Y-115852500D01*
X85863592Y-115874818D01*
X85863590Y-115874818D01*
X85811095Y-115905126D01*
X85788910Y-115917935D01*
X85788909Y-115917936D01*
X85788905Y-115917939D01*
X85727939Y-115978905D01*
X85727936Y-115978909D01*
X85684818Y-116053590D01*
X85684818Y-116053592D01*
X85662500Y-116136878D01*
X83020077Y-116136878D01*
X83026410Y-116135181D01*
X83101090Y-116092065D01*
X83162065Y-116031090D01*
X83205181Y-115956410D01*
X83227500Y-115873116D01*
X83227500Y-115786884D01*
X83227499Y-115786878D01*
X83214660Y-115738964D01*
X83211421Y-115726878D01*
X84222500Y-115726878D01*
X84222500Y-115813121D01*
X84244818Y-115896407D01*
X84244818Y-115896409D01*
X84244819Y-115896410D01*
X84287935Y-115971090D01*
X84348910Y-116032065D01*
X84423590Y-116075181D01*
X84449076Y-116082010D01*
X84506878Y-116097499D01*
X84506884Y-116097500D01*
X84593116Y-116097500D01*
X84593121Y-116097499D01*
X84617865Y-116090868D01*
X84676410Y-116075181D01*
X84751090Y-116032065D01*
X84812065Y-115971090D01*
X84855181Y-115896410D01*
X84877500Y-115813116D01*
X84877500Y-115726884D01*
X84877499Y-115726878D01*
X84865639Y-115682619D01*
X84855181Y-115643590D01*
X84812065Y-115568910D01*
X84751090Y-115507935D01*
X84676410Y-115464819D01*
X84676409Y-115464818D01*
X84676408Y-115464818D01*
X84593121Y-115442500D01*
X84593116Y-115442500D01*
X84506884Y-115442500D01*
X84506878Y-115442500D01*
X84423592Y-115464818D01*
X84423590Y-115464818D01*
X84371095Y-115495126D01*
X84348910Y-115507935D01*
X84348909Y-115507936D01*
X84348905Y-115507939D01*
X84287939Y-115568905D01*
X84287936Y-115568909D01*
X84244818Y-115643590D01*
X84244818Y-115643592D01*
X84222500Y-115726878D01*
X83211421Y-115726878D01*
X83210736Y-115724324D01*
X83205181Y-115703590D01*
X83162065Y-115628910D01*
X83101090Y-115567935D01*
X83026410Y-115524819D01*
X83026409Y-115524818D01*
X83026408Y-115524818D01*
X82943121Y-115502500D01*
X82943116Y-115502500D01*
X82856884Y-115502500D01*
X82856878Y-115502500D01*
X82773592Y-115524818D01*
X82773590Y-115524818D01*
X82721095Y-115555126D01*
X82698910Y-115567935D01*
X82698909Y-115567936D01*
X82698905Y-115567939D01*
X82637939Y-115628905D01*
X82637936Y-115628909D01*
X82637935Y-115628910D01*
X82625126Y-115651095D01*
X82594818Y-115703590D01*
X82594818Y-115703592D01*
X82572500Y-115786878D01*
X82572500Y-115861496D01*
X82554194Y-115905690D01*
X82408307Y-116051578D01*
X82354579Y-116105305D01*
X82354577Y-116105308D01*
X82332959Y-116157500D01*
X82325500Y-116175508D01*
X82060500Y-116175508D01*
X82060500Y-114866878D01*
X94212500Y-114866878D01*
X94212500Y-114953121D01*
X94234818Y-115036407D01*
X94234818Y-115036409D01*
X94234819Y-115036410D01*
X94277935Y-115111090D01*
X94338910Y-115172065D01*
X94413590Y-115215181D01*
X94439076Y-115222010D01*
X94496878Y-115237499D01*
X94496884Y-115237500D01*
X94583116Y-115237500D01*
X94583121Y-115237499D01*
X94607865Y-115230868D01*
X94666410Y-115215181D01*
X94741090Y-115172065D01*
X94802065Y-115111090D01*
X94845181Y-115036410D01*
X94867500Y-114953116D01*
X94867500Y-114866884D01*
X94867499Y-114866878D01*
X94851122Y-114805763D01*
X94845181Y-114783590D01*
X94802065Y-114708910D01*
X94741090Y-114647935D01*
X94666410Y-114604819D01*
X94666409Y-114604818D01*
X94666408Y-114604818D01*
X94583121Y-114582500D01*
X94583116Y-114582500D01*
X94496884Y-114582500D01*
X94496878Y-114582500D01*
X94413592Y-114604818D01*
X94413590Y-114604818D01*
X94370813Y-114629516D01*
X94338910Y-114647935D01*
X94338909Y-114647936D01*
X94338905Y-114647939D01*
X94277939Y-114708905D01*
X94277936Y-114708909D01*
X94234818Y-114783590D01*
X94234818Y-114783592D01*
X94212500Y-114866878D01*
X82060500Y-114866878D01*
X82060500Y-113886878D01*
X85722500Y-113886878D01*
X85722500Y-113973121D01*
X85744818Y-114056407D01*
X85744818Y-114056409D01*
X85757627Y-114078595D01*
X85787935Y-114131090D01*
X85848910Y-114192065D01*
X85923590Y-114235181D01*
X85949076Y-114242010D01*
X86006878Y-114257499D01*
X86006884Y-114257500D01*
X86093116Y-114257500D01*
X86093121Y-114257499D01*
X86144082Y-114243843D01*
X86176410Y-114235181D01*
X86176422Y-114235174D01*
X86176833Y-114235004D01*
X86177070Y-114235003D01*
X86180366Y-114234121D01*
X86180602Y-114235003D01*
X86224669Y-114234995D01*
X86258501Y-114268812D01*
X86261134Y-114308916D01*
X86259000Y-114316878D01*
X86259000Y-114403121D01*
X86281318Y-114486407D01*
X86281318Y-114486409D01*
X86281319Y-114486410D01*
X86324435Y-114561090D01*
X86385410Y-114622065D01*
X86460090Y-114665181D01*
X86485576Y-114672010D01*
X86543378Y-114687499D01*
X86543384Y-114687500D01*
X86629616Y-114687500D01*
X86629621Y-114687499D01*
X86654365Y-114680868D01*
X86712910Y-114665181D01*
X86787590Y-114622065D01*
X86848565Y-114561090D01*
X86891681Y-114486410D01*
X86914000Y-114403116D01*
X86914000Y-114316884D01*
X86913999Y-114316878D01*
X86898088Y-114257500D01*
X86891681Y-114233590D01*
X86848565Y-114158910D01*
X86795806Y-114106151D01*
X86777500Y-114061957D01*
X86777500Y-112408402D01*
X86795805Y-112364209D01*
X87319558Y-111840455D01*
X87363752Y-111822150D01*
X87407946Y-111840456D01*
X87426252Y-111884650D01*
X87424123Y-111900825D01*
X87422500Y-111906881D01*
X87422500Y-111993121D01*
X87444818Y-112076407D01*
X87444818Y-112076409D01*
X87444819Y-112076410D01*
X87487935Y-112151090D01*
X87548910Y-112212065D01*
X87623590Y-112255181D01*
X87649076Y-112262010D01*
X87706878Y-112277499D01*
X87706884Y-112277500D01*
X87793116Y-112277500D01*
X87793121Y-112277499D01*
X87817865Y-112270868D01*
X87876410Y-112255181D01*
X87951090Y-112212065D01*
X88012065Y-112151090D01*
X88055181Y-112076410D01*
X88077500Y-111993116D01*
X88077500Y-111906884D01*
X88077499Y-111906878D01*
X88059700Y-111840456D01*
X88055181Y-111823590D01*
X88012065Y-111748910D01*
X87951090Y-111687935D01*
X87876410Y-111644819D01*
X87876409Y-111644818D01*
X87876408Y-111644818D01*
X87793121Y-111622500D01*
X87793116Y-111622500D01*
X87706884Y-111622500D01*
X87706876Y-111622501D01*
X87700822Y-111624123D01*
X87653396Y-111617877D01*
X87624278Y-111579925D01*
X87630524Y-111532499D01*
X87640452Y-111519561D01*
X87664309Y-111495704D01*
X87708502Y-111477400D01*
X87783116Y-111477400D01*
X87783121Y-111477399D01*
X87807865Y-111470768D01*
X87866410Y-111455081D01*
X87941090Y-111411965D01*
X88002065Y-111350990D01*
X88045181Y-111276310D01*
X88067500Y-111193016D01*
X88067500Y-111106784D01*
X88067499Y-111106778D01*
X88055639Y-111062519D01*
X88045181Y-111023490D01*
X88002065Y-110948810D01*
X87941090Y-110887835D01*
X87866410Y-110844719D01*
X87866409Y-110844718D01*
X87866408Y-110844718D01*
X87783121Y-110822400D01*
X87783116Y-110822400D01*
X87696884Y-110822400D01*
X87696878Y-110822400D01*
X87613592Y-110844718D01*
X87613590Y-110844718D01*
X87561095Y-110875026D01*
X87538910Y-110887835D01*
X87538909Y-110887836D01*
X87538905Y-110887839D01*
X87477939Y-110948805D01*
X87477936Y-110948809D01*
X87434818Y-111023490D01*
X87434818Y-111023492D01*
X87412500Y-111106778D01*
X87412500Y-111181396D01*
X87394194Y-111225590D01*
X86478307Y-112141478D01*
X86424579Y-112195205D01*
X86424577Y-112195208D01*
X86395500Y-112265408D01*
X86395500Y-113661457D01*
X86377194Y-113705651D01*
X86333000Y-113723957D01*
X86288806Y-113705651D01*
X86251094Y-113667939D01*
X86251090Y-113667935D01*
X86176410Y-113624819D01*
X86176409Y-113624818D01*
X86176408Y-113624818D01*
X86093121Y-113602500D01*
X86093116Y-113602500D01*
X86006884Y-113602500D01*
X86006878Y-113602500D01*
X85923592Y-113624818D01*
X85923590Y-113624818D01*
X85871095Y-113655126D01*
X85848910Y-113667935D01*
X85848909Y-113667936D01*
X85848905Y-113667939D01*
X85787939Y-113728905D01*
X85787936Y-113728909D01*
X85744818Y-113803590D01*
X85744818Y-113803592D01*
X85722500Y-113886878D01*
X82060500Y-113886878D01*
X82060500Y-113186878D01*
X82352500Y-113186878D01*
X82352500Y-113273121D01*
X82374818Y-113356407D01*
X82374818Y-113356409D01*
X82374819Y-113356410D01*
X82417935Y-113431090D01*
X82478910Y-113492065D01*
X82553590Y-113535181D01*
X82579076Y-113542010D01*
X82636878Y-113557499D01*
X82636884Y-113557500D01*
X82723116Y-113557500D01*
X82723121Y-113557499D01*
X82747865Y-113550868D01*
X82806410Y-113535181D01*
X82881090Y-113492065D01*
X82942065Y-113431090D01*
X82985181Y-113356410D01*
X83007500Y-113273116D01*
X83007500Y-113186884D01*
X83007499Y-113186878D01*
X82995639Y-113142619D01*
X82985181Y-113103590D01*
X82942065Y-113028910D01*
X82881090Y-112967935D01*
X82806410Y-112924819D01*
X82806409Y-112924818D01*
X82806408Y-112924818D01*
X82723121Y-112902500D01*
X82723116Y-112902500D01*
X82636884Y-112902500D01*
X82636878Y-112902500D01*
X82553592Y-112924818D01*
X82553590Y-112924818D01*
X82501095Y-112955126D01*
X82478910Y-112967935D01*
X82478909Y-112967936D01*
X82478905Y-112967939D01*
X82417939Y-113028905D01*
X82417936Y-113028909D01*
X82374818Y-113103590D01*
X82374818Y-113103592D01*
X82352500Y-113186878D01*
X82060500Y-113186878D01*
X82060500Y-111106778D01*
X83475500Y-111106778D01*
X83475500Y-111193021D01*
X83497818Y-111276307D01*
X83497818Y-111276309D01*
X83497819Y-111276310D01*
X83540935Y-111350990D01*
X83601910Y-111411965D01*
X83676590Y-111455081D01*
X83702076Y-111461910D01*
X83759878Y-111477399D01*
X83759884Y-111477400D01*
X83846116Y-111477400D01*
X83846121Y-111477399D01*
X83870865Y-111470768D01*
X83929410Y-111455081D01*
X84004090Y-111411965D01*
X84065065Y-111350990D01*
X84108181Y-111276310D01*
X84130500Y-111193016D01*
X84130500Y-111106784D01*
X84130499Y-111106778D01*
X84118639Y-111062519D01*
X84108181Y-111023490D01*
X84065065Y-110948810D01*
X84004090Y-110887835D01*
X83929410Y-110844719D01*
X83929409Y-110844718D01*
X83929408Y-110844718D01*
X83846121Y-110822400D01*
X83846116Y-110822400D01*
X83759884Y-110822400D01*
X83759878Y-110822400D01*
X83676592Y-110844718D01*
X83676590Y-110844718D01*
X83624095Y-110875026D01*
X83601910Y-110887835D01*
X83601909Y-110887836D01*
X83601905Y-110887839D01*
X83540939Y-110948805D01*
X83540936Y-110948809D01*
X83497818Y-111023490D01*
X83497818Y-111023492D01*
X83475500Y-111106778D01*
X82060500Y-111106778D01*
X82060500Y-109506578D01*
X87412500Y-109506578D01*
X87412500Y-109592821D01*
X87434818Y-109676107D01*
X87434818Y-109676109D01*
X87434819Y-109676110D01*
X87477935Y-109750790D01*
X87538910Y-109811765D01*
X87613590Y-109854881D01*
X87621741Y-109857065D01*
X87696878Y-109877199D01*
X87696884Y-109877200D01*
X87771497Y-109877200D01*
X87815691Y-109895506D01*
X88300694Y-110380508D01*
X88319000Y-110424702D01*
X88319000Y-113831957D01*
X88300694Y-113876151D01*
X88247939Y-113928905D01*
X88247936Y-113928909D01*
X88204818Y-114003590D01*
X88204818Y-114003592D01*
X88182500Y-114086878D01*
X88182500Y-114173121D01*
X88204818Y-114256407D01*
X88204818Y-114256409D01*
X88205448Y-114257500D01*
X88247935Y-114331090D01*
X88308910Y-114392065D01*
X88383590Y-114435181D01*
X88385184Y-114435608D01*
X88466878Y-114457499D01*
X88466884Y-114457500D01*
X88553116Y-114457500D01*
X88553121Y-114457499D01*
X88577865Y-114450868D01*
X88636410Y-114435181D01*
X88711090Y-114392065D01*
X88772065Y-114331090D01*
X88815181Y-114256410D01*
X88837500Y-114173116D01*
X88837500Y-114086884D01*
X88837498Y-114086878D01*
X88834819Y-114076878D01*
X89222500Y-114076878D01*
X89222500Y-114163121D01*
X89244818Y-114246407D01*
X89244818Y-114246409D01*
X89250592Y-114256409D01*
X89287935Y-114321090D01*
X89348910Y-114382065D01*
X89423590Y-114425181D01*
X89449076Y-114432010D01*
X89506878Y-114447499D01*
X89506884Y-114447500D01*
X89593116Y-114447500D01*
X89593121Y-114447499D01*
X89617865Y-114440868D01*
X89676410Y-114425181D01*
X89751090Y-114382065D01*
X89812065Y-114321090D01*
X89855181Y-114246410D01*
X89874819Y-114173121D01*
X89877499Y-114163121D01*
X89877500Y-114163115D01*
X89877500Y-114076884D01*
X89877499Y-114076878D01*
X89857861Y-114003592D01*
X89855181Y-113993590D01*
X89812065Y-113918910D01*
X89751090Y-113857935D01*
X89676410Y-113814819D01*
X89676409Y-113814818D01*
X89676408Y-113814818D01*
X89593121Y-113792500D01*
X89593116Y-113792500D01*
X89506884Y-113792500D01*
X89506878Y-113792500D01*
X89423592Y-113814818D01*
X89423590Y-113814818D01*
X89371095Y-113845126D01*
X89348910Y-113857935D01*
X89348909Y-113857936D01*
X89348905Y-113857939D01*
X89287939Y-113918905D01*
X89287936Y-113918909D01*
X89287935Y-113918910D01*
X89282162Y-113928909D01*
X89244818Y-113993590D01*
X89244818Y-113993592D01*
X89222500Y-114076878D01*
X88834819Y-114076878D01*
X88828839Y-114054562D01*
X88815181Y-114003590D01*
X88772065Y-113928910D01*
X88719306Y-113876151D01*
X88701000Y-113831957D01*
X88701000Y-113181878D01*
X89277500Y-113181878D01*
X89277500Y-113268121D01*
X89299818Y-113351407D01*
X89299818Y-113351409D01*
X89312627Y-113373595D01*
X89342935Y-113426090D01*
X89403910Y-113487065D01*
X89478590Y-113530181D01*
X89497250Y-113535181D01*
X89561878Y-113552499D01*
X89561884Y-113552500D01*
X89648116Y-113552500D01*
X89648121Y-113552499D01*
X89672865Y-113545868D01*
X89731410Y-113530181D01*
X89806090Y-113487065D01*
X89867065Y-113426090D01*
X89910181Y-113351410D01*
X89931160Y-113273116D01*
X89932499Y-113268121D01*
X89932500Y-113268115D01*
X89932500Y-113181884D01*
X89932499Y-113181878D01*
X89926359Y-113158964D01*
X89923120Y-113146878D01*
X90222500Y-113146878D01*
X90222500Y-113233121D01*
X90244818Y-113316407D01*
X90244818Y-113316409D01*
X90244819Y-113316410D01*
X90287935Y-113391090D01*
X90348910Y-113452065D01*
X90423590Y-113495181D01*
X90449076Y-113502010D01*
X90506878Y-113517499D01*
X90506884Y-113517500D01*
X90593116Y-113517500D01*
X90593121Y-113517499D01*
X90617865Y-113510868D01*
X90676410Y-113495181D01*
X90751090Y-113452065D01*
X90812065Y-113391090D01*
X90855181Y-113316410D01*
X90877500Y-113233116D01*
X90877500Y-113146884D01*
X90877499Y-113146878D01*
X90864559Y-113098590D01*
X90855181Y-113063590D01*
X90812065Y-112988910D01*
X90751090Y-112927935D01*
X90676410Y-112884819D01*
X90676409Y-112884818D01*
X90676408Y-112884818D01*
X90593121Y-112862500D01*
X90593116Y-112862500D01*
X90506884Y-112862500D01*
X90506878Y-112862500D01*
X90423592Y-112884818D01*
X90423590Y-112884818D01*
X90392965Y-112902500D01*
X90348910Y-112927935D01*
X90348909Y-112927936D01*
X90348905Y-112927939D01*
X90287939Y-112988905D01*
X90287936Y-112988909D01*
X90244818Y-113063590D01*
X90244818Y-113063592D01*
X90222500Y-113146878D01*
X89923120Y-113146878D01*
X89911521Y-113103592D01*
X89910181Y-113098590D01*
X89867065Y-113023910D01*
X89806090Y-112962935D01*
X89731410Y-112919819D01*
X89731409Y-112919818D01*
X89731408Y-112919818D01*
X89648121Y-112897500D01*
X89648116Y-112897500D01*
X89561884Y-112897500D01*
X89561878Y-112897500D01*
X89478592Y-112919818D01*
X89478590Y-112919818D01*
X89441747Y-112941090D01*
X89403910Y-112962935D01*
X89403909Y-112962936D01*
X89403905Y-112962939D01*
X89342939Y-113023905D01*
X89342936Y-113023909D01*
X89342935Y-113023910D01*
X89330654Y-113045181D01*
X89299818Y-113098590D01*
X89299818Y-113098592D01*
X89277500Y-113181878D01*
X88701000Y-113181878D01*
X88701000Y-110281710D01*
X88701000Y-110281708D01*
X88671922Y-110211507D01*
X88618193Y-110157778D01*
X88618192Y-110157777D01*
X88614630Y-110154215D01*
X88614623Y-110154209D01*
X88085806Y-109625391D01*
X88067500Y-109581197D01*
X88067500Y-109506584D01*
X88067499Y-109506578D01*
X88055639Y-109462319D01*
X88045181Y-109423290D01*
X88002065Y-109348610D01*
X87941090Y-109287635D01*
X87866410Y-109244519D01*
X87866409Y-109244518D01*
X87866408Y-109244518D01*
X87783121Y-109222200D01*
X87783116Y-109222200D01*
X87696884Y-109222200D01*
X87696878Y-109222200D01*
X87613592Y-109244518D01*
X87613590Y-109244518D01*
X87573785Y-109267500D01*
X87538910Y-109287635D01*
X87538909Y-109287636D01*
X87538905Y-109287639D01*
X87477939Y-109348605D01*
X87477936Y-109348609D01*
X87434818Y-109423290D01*
X87434818Y-109423292D01*
X87412500Y-109506578D01*
X82060500Y-109506578D01*
X82060500Y-106037655D01*
X82882500Y-106037655D01*
X82882500Y-106262344D01*
X82882501Y-106262360D01*
X82917649Y-106484271D01*
X82917649Y-106484272D01*
X82987084Y-106697971D01*
X82987085Y-106697973D01*
X83089093Y-106898173D01*
X83221164Y-107079954D01*
X83221167Y-107079957D01*
X83221170Y-107079961D01*
X83380038Y-107238829D01*
X83380041Y-107238831D01*
X83380046Y-107238836D01*
X83561827Y-107370907D01*
X83762030Y-107472916D01*
X83975726Y-107542350D01*
X84069259Y-107557164D01*
X84197639Y-107577498D01*
X84197645Y-107577498D01*
X84197653Y-107577500D01*
X84197655Y-107577500D01*
X84422345Y-107577500D01*
X84422347Y-107577500D01*
X84644274Y-107542350D01*
X84857970Y-107472916D01*
X85058173Y-107370907D01*
X85239954Y-107238836D01*
X85398836Y-107079954D01*
X85530907Y-106898173D01*
X85632916Y-106697970D01*
X85702350Y-106484274D01*
X85737500Y-106262347D01*
X85737500Y-106037655D01*
X99632500Y-106037655D01*
X99632500Y-106262344D01*
X99632501Y-106262360D01*
X99667649Y-106484271D01*
X99667649Y-106484272D01*
X99737084Y-106697971D01*
X99737085Y-106697973D01*
X99839093Y-106898173D01*
X99971164Y-107079954D01*
X99971167Y-107079957D01*
X99971170Y-107079961D01*
X100130038Y-107238829D01*
X100130041Y-107238831D01*
X100130046Y-107238836D01*
X100311827Y-107370907D01*
X100512030Y-107472916D01*
X100725726Y-107542350D01*
X100819259Y-107557164D01*
X100947639Y-107577498D01*
X100947645Y-107577498D01*
X100947653Y-107577500D01*
X100947655Y-107577500D01*
X101172345Y-107577500D01*
X101172347Y-107577500D01*
X101394274Y-107542350D01*
X101607970Y-107472916D01*
X101808173Y-107370907D01*
X101989954Y-107238836D01*
X102148836Y-107079954D01*
X102280907Y-106898173D01*
X102382916Y-106697970D01*
X102452350Y-106484274D01*
X102487500Y-106262347D01*
X102487500Y-106037653D01*
X102452350Y-105815726D01*
X102382916Y-105602030D01*
X102280907Y-105401827D01*
X102148836Y-105220046D01*
X102148831Y-105220041D01*
X102148829Y-105220038D01*
X101989961Y-105061170D01*
X101989957Y-105061167D01*
X101989954Y-105061164D01*
X101808173Y-104929093D01*
X101607973Y-104827085D01*
X101607971Y-104827084D01*
X101394272Y-104757649D01*
X101172360Y-104722501D01*
X101172348Y-104722500D01*
X101172347Y-104722500D01*
X100947653Y-104722500D01*
X100947651Y-104722500D01*
X100947639Y-104722501D01*
X100725728Y-104757649D01*
X100725727Y-104757649D01*
X100512028Y-104827084D01*
X100512026Y-104827085D01*
X100311826Y-104929093D01*
X100130038Y-105061170D01*
X99971170Y-105220038D01*
X99839093Y-105401826D01*
X99737085Y-105602026D01*
X99737084Y-105602028D01*
X99667649Y-105815727D01*
X99667649Y-105815728D01*
X99632501Y-106037639D01*
X99632500Y-106037655D01*
X85737500Y-106037655D01*
X85737500Y-106037653D01*
X85702350Y-105815726D01*
X85632916Y-105602030D01*
X85530907Y-105401827D01*
X85398836Y-105220046D01*
X85398831Y-105220041D01*
X85398829Y-105220038D01*
X85239961Y-105061170D01*
X85239957Y-105061167D01*
X85239954Y-105061164D01*
X85058173Y-104929093D01*
X84857973Y-104827085D01*
X84857971Y-104827084D01*
X84644272Y-104757649D01*
X84422360Y-104722501D01*
X84422348Y-104722500D01*
X84422347Y-104722500D01*
X84197653Y-104722500D01*
X84197651Y-104722500D01*
X84197639Y-104722501D01*
X83975728Y-104757649D01*
X83975727Y-104757649D01*
X83762028Y-104827084D01*
X83762026Y-104827085D01*
X83561826Y-104929093D01*
X83380038Y-105061170D01*
X83221170Y-105220038D01*
X83089093Y-105401826D01*
X82987085Y-105602026D01*
X82987084Y-105602028D01*
X82917649Y-105815727D01*
X82917649Y-105815728D01*
X82882501Y-106037639D01*
X82882500Y-106037655D01*
X82060500Y-106037655D01*
X82060500Y-104703069D01*
X82060801Y-104696943D01*
X82069805Y-104605519D01*
X82075259Y-104550146D01*
X82077646Y-104538141D01*
X82119574Y-104399923D01*
X82124256Y-104388620D01*
X82192339Y-104261246D01*
X82199140Y-104251068D01*
X82290764Y-104139424D01*
X82299426Y-104130763D01*
X82411068Y-104039140D01*
X82421246Y-104032339D01*
X82548620Y-103964256D01*
X82559923Y-103959574D01*
X82698141Y-103917646D01*
X82710146Y-103915259D01*
X82856944Y-103900801D01*
X82863070Y-103900500D01*
X82899882Y-103900500D01*
X102820118Y-103900500D01*
X102856930Y-103900500D01*
X102863056Y-103900801D01*
G37*
%TD.AperFunction*%
%TD*%
M02*
