%TF.GenerationSoftware,KiCad,Pcbnew,10.0.3*%
%TF.CreationDate,2026-07-20T21:28:31-04:00*%
%TF.ProjectId,LoRa Board V3,4c6f5261-2042-46f6-9172-642056332e6b,rev?*%
%TF.SameCoordinates,Original*%
%TF.FileFunction,Legend,Bot*%
%TF.FilePolarity,Positive*%
%FSLAX46Y46*%
G04 Gerber Fmt 4.6, Leading zero omitted, Abs format (unit mm)*
G04 Created by KiCad (PCBNEW 10.0.3) date 2026-07-20 21:28:31*
%MOMM*%
%LPD*%
G01*
G04 APERTURE LIST*
%ADD10C,0.120000*%
%ADD11C,0.127000*%
%ADD12C,0.152400*%
%ADD13C,0.200000*%
G04 APERTURE END LIST*
%TO.C,C100*%
D10*
X94492164Y-122980000D02*
X94707836Y-122980000D01*
X94492164Y-123700000D02*
X94707836Y-123700000D01*
%TO.C,U28*%
D11*
X85250000Y-115025000D02*
X85250000Y-115495000D01*
X85250000Y-115025000D02*
X85720000Y-115025000D01*
X85250000Y-122025000D02*
X85250000Y-121555000D01*
X85250000Y-122025000D02*
X85720000Y-122025000D01*
X92250000Y-115025000D02*
X91780000Y-115025000D01*
X92250000Y-115025000D02*
X92250000Y-115495000D01*
X92250000Y-122025000D02*
X91780000Y-122025000D01*
X92250000Y-122025000D02*
X92250000Y-121555000D01*
%TO.C,R75*%
D10*
X83256359Y-115450000D02*
X83563641Y-115450000D01*
X83256359Y-116210000D02*
X83563641Y-116210000D01*
%TO.C,C96*%
X85677836Y-113570000D02*
X85462164Y-113570000D01*
X85677836Y-114290000D02*
X85462164Y-114290000D01*
%TO.C,C105*%
X87790000Y-126052164D02*
X87790000Y-126267836D01*
X88510000Y-126052164D02*
X88510000Y-126267836D01*
%TO.C,C98*%
X94492164Y-122000000D02*
X94707836Y-122000000D01*
X94492164Y-122720000D02*
X94707836Y-122720000D01*
%TO.C,J6*%
X89790000Y-126610000D02*
X90840000Y-126610000D01*
X89790000Y-127760000D02*
X89790000Y-126610000D01*
X90840000Y-126610000D02*
X90840000Y-125620000D01*
X90960000Y-129730000D02*
X94840000Y-129730000D01*
X96010000Y-126610000D02*
X94960000Y-126610000D01*
X96010000Y-127760000D02*
X96010000Y-126610000D01*
%TO.C,U22*%
D12*
X83599800Y-108578150D02*
X87943200Y-108578150D01*
X83599800Y-109064560D02*
X83599800Y-108578150D01*
X83599800Y-112921550D02*
X83599800Y-112435140D01*
X87943200Y-108578150D02*
X87943200Y-109064560D01*
X87943200Y-112435140D02*
X87943200Y-112921550D01*
X87943200Y-112921550D02*
X83599800Y-112921550D01*
%TO.C,R76*%
D10*
X83236359Y-116460000D02*
X83543641Y-116460000D01*
X83236359Y-117220000D02*
X83543641Y-117220000D01*
%TO.C,J2*%
D13*
X98520000Y-113390000D02*
X99730000Y-113390000D01*
X98520000Y-122330000D02*
X99730000Y-122330000D01*
X102450000Y-113390000D02*
X103940000Y-113390000D01*
X103940000Y-113390000D02*
X103940000Y-122330000D01*
X103940000Y-122330000D02*
X102450000Y-122330000D01*
X95530000Y-114080000D02*
G75*
G02*
X95330000Y-114080000I-100000J0D01*
G01*
X95330000Y-114080000D02*
G75*
G02*
X95530000Y-114080000I100000J0D01*
G01*
%TO.C,C89*%
D10*
X83257836Y-120490000D02*
X83042164Y-120490000D01*
X83257836Y-121210000D02*
X83042164Y-121210000D01*
%TO.C,C101*%
X93902164Y-117750000D02*
X94117836Y-117750000D01*
X93902164Y-118470000D02*
X94117836Y-118470000D01*
%TO.C,CR2*%
D12*
X98084500Y-107939000D02*
X99735500Y-107939000D01*
X98084500Y-109943060D02*
X98084500Y-109236940D01*
X99735500Y-111241000D02*
X98084500Y-111241000D01*
X99740000Y-109370000D02*
X99735500Y-109943060D01*
%TO.C,C95*%
D10*
X86847836Y-123430000D02*
X86632164Y-123430000D01*
X86847836Y-124150000D02*
X86632164Y-124150000D01*
%TO.C,C97*%
X89292164Y-111590000D02*
X89507836Y-111590000D01*
X89292164Y-112310000D02*
X89507836Y-112310000D01*
%TO.C,C103*%
X91402164Y-124300000D02*
X91617836Y-124300000D01*
X91402164Y-125020000D02*
X91617836Y-125020000D01*
%TO.C,R5*%
X94733641Y-119110000D02*
X94426359Y-119110000D01*
X94733641Y-119870000D02*
X94426359Y-119870000D01*
%TO.C,C90*%
X100972164Y-125390000D02*
X101187836Y-125390000D01*
X100972164Y-126110000D02*
X101187836Y-126110000D01*
%TO.C,C92*%
X96960000Y-128362164D02*
X96960000Y-128577836D01*
X97680000Y-128362164D02*
X97680000Y-128577836D01*
%TO.C,C99*%
X83327836Y-121470000D02*
X83112164Y-121470000D01*
X83327836Y-122190000D02*
X83112164Y-122190000D01*
%TO.C,C106*%
X88760000Y-125337836D02*
X88760000Y-125122164D01*
X89480000Y-125337836D02*
X89480000Y-125122164D01*
%TO.C,C91*%
X83247836Y-117440000D02*
X83032164Y-117440000D01*
X83247836Y-118160000D02*
X83032164Y-118160000D01*
%TO.C,R73*%
X89783641Y-123400000D02*
X89476359Y-123400000D01*
X89783641Y-124160000D02*
X89476359Y-124160000D01*
%TO.C,C104*%
X86820000Y-126062164D02*
X86820000Y-126277836D01*
X87540000Y-126062164D02*
X87540000Y-126277836D01*
%TO.C,R1*%
X94456359Y-116260000D02*
X94763641Y-116260000D01*
X94456359Y-117020000D02*
X94763641Y-117020000D01*
%TO.C,C102*%
X94502164Y-121080000D02*
X94717836Y-121080000D01*
X94502164Y-121800000D02*
X94717836Y-121800000D01*
%TO.C,R74*%
X94426359Y-120080000D02*
X94733641Y-120080000D01*
X94426359Y-120840000D02*
X94733641Y-120840000D01*
%TD*%
M02*
