M48
; DRILL file KiCad 10.0.3 date 2026-07-20T21:28:33
; FORMAT={-:-/ absolute / metric / decimal}
; #@! TF.CreationDate,2026-07-20T21:28:33-04:00
; #@! TF.GenerationSoftware,Kicad,Pcbnew,10.0.3
; #@! TF.FileFunction,Plated,1,6,PTH
FMAT,2
METRIC
; #@! TA.AperFunction,Plated,PTH,ViaDrill
T1C0.300
; #@! TA.AperFunction,Plated,PTH,ViaDrill
T2C0.400
; #@! TA.AperFunction,Plated,PTH,ComponentDrill
T3C2.200
%
G90
G05
T1
X82.32Y-126.03
X82.48Y-123.01
X82.64Y-109.44
X82.65Y-113.83
X82.66Y-117.8
X82.67Y-120.85
X82.68Y-113.23
X82.74Y-121.83
X82.88Y-116.84
X82.9Y-115.83
X82.94Y-114.99
X82.96Y-111.04
X83.02Y-126.03
X83.7Y-121.83
X83.803Y-111.15
X83.87Y-119.04
X84.14Y-120.08
X84.16Y-126.067
X84.35Y-117.72
X84.36Y-113.78
X84.42Y-121.91
X84.55Y-115.77
X84.78Y-111.1
X84.99Y-109.38
X85.44Y-122.26
X85.87Y-109.41
X85.98Y-117.88
X85.99Y-116.18
X86.05Y-113.93
X86.19Y-119.62
X86.2Y-126.68
X86.22Y-120.44
X86.24Y-111.86
X86.54Y-116.13
X86.587Y-114.36
X86.65Y-109.42
X86.66Y-121.2
X86.68Y-111.2
X86.83Y-117.9
X86.93Y-120.43
X87.205Y-125.715
X87.29Y-121.25
X87.3Y-113.57
X87.31Y-116.76
X87.35Y-119.54
X87.5Y-123.15
X87.74Y-109.55
X87.74Y-111.15
X87.74Y-120.44
X87.75Y-111.95
X87.84Y-121.24
X87.88Y-112.81
X87.95Y-124.82
X88.12Y-113.72
X88.13Y-108.45
X88.16Y-104.22
X88.16Y-104.91
X88.16Y-105.64
X88.16Y-107.1
X88.17Y-106.37
X88.17Y-107.75
X88.17Y-125.715
X88.46Y-121.05
X88.51Y-114.13
X88.53Y-122.78
X88.69Y-109.08
X88.69Y-120.39
X88.89Y-126.44
X89.0Y-121.07
X89.08Y-122.76
X89.18Y-113.53
X89.55Y-114.12
X89.57Y-109.08
X89.605Y-113.225
X89.61Y-120.44
X89.72Y-112.69
X89.73Y-122.75
X89.74Y-121.3
X90.25Y-109.06
X90.43Y-116.75
X90.43Y-117.74
X90.45Y-115.89
X90.48Y-121.21
X90.55Y-113.19
X90.6Y-120.38
X91.02Y-108.15
X91.02Y-108.96
X91.04Y-106.55
X91.04Y-107.36
X91.05Y-104.19
X91.05Y-104.94
X91.05Y-105.72
X91.08Y-113.11
X91.16Y-110.28
X91.36Y-122.83
X91.4Y-127.64
X91.5Y-109.53
X91.79Y-111.04
X92.27Y-122.18
X92.37Y-127.66
X92.58Y-111.14
X92.82Y-122.41
X93.3Y-110.98
X93.31Y-125.86
X93.44Y-122.39
X93.47Y-110.2
X93.53Y-109.34
X93.66Y-108.6
X93.68Y-107.84
X93.74Y-107.13
X93.76Y-114.86
X93.77Y-106.32
X93.8Y-104.14
X93.8Y-104.77
X93.8Y-105.52
X94.07Y-119.49
X94.1Y-116.64
X94.15Y-122.36
X94.4Y-109.04
X94.42Y-125.89
X94.54Y-114.91
X94.54Y-116.18
X94.54Y-117.45
X95.26Y-109.04
X95.26Y-111.35
X95.28Y-109.86
X95.28Y-110.6
X95.3Y-112.31
X95.3Y-113.32
X95.3Y-115.84
X95.36Y-114.39
X95.655Y-118.025
X95.66Y-115.32
X95.89Y-121.69
X96.18Y-109.01
X96.22Y-110.58
X96.38Y-108.12
X96.51Y-107.41
X96.56Y-105.76
X96.58Y-106.46
X96.585Y-121.06
X96.63Y-104.15
X96.63Y-104.93
X97.38Y-125.19
X97.525Y-118.365
X97.56Y-119.27
X97.723Y-108.625
X97.74Y-116.57
X97.8Y-112.66
X97.89Y-129.63
X97.91Y-111.195
X97.97Y-122.45
X98.41Y-118.33
X98.51Y-126.87
X98.6Y-110.42
X99.28Y-115.92
X99.53Y-121.72
X100.46Y-112.66
X102.01Y-109.595
X102.09Y-125.67
X102.22Y-111.17
X102.9Y-112.74
X102.92Y-109.53
X102.99Y-121.62
X103.0Y-118.99
T2
X91.4Y-126.395
X92.4Y-126.395
X99.11Y-117.53
X99.51Y-122.39
X102.99Y-119.92
T3
X84.31Y-106.15
X84.31Y-128.65
X101.06Y-106.15
X101.06Y-128.65
M30
