%TF.GenerationSoftware,KiCad,Pcbnew,10.0.3*%
%TF.CreationDate,2026-07-20T21:28:31-04:00*%
%TF.ProjectId,LoRa Board V3,4c6f5261-2042-46f6-9172-642056332e6b,rev?*%
%TF.SameCoordinates,Original*%
%TF.FileFunction,Soldermask,Bot*%
%TF.FilePolarity,Negative*%
%FSLAX46Y46*%
G04 Gerber Fmt 4.6, Leading zero omitted, Abs format (unit mm)*
G04 Created by KiCad (PCBNEW 10.0.3) date 2026-07-20 21:28:31*
%MOMM*%
%LPD*%
G01*
G04 APERTURE LIST*
G04 Aperture macros list*
%AMRoundRect*
0 Rectangle with rounded corners*
0 $1 Rounding radius*
0 $2 $3 $4 $5 $6 $7 $8 $9 X,Y pos of 4 corners*
0 Add a 4 corners polygon primitive as box body*
4,1,4,$2,$3,$4,$5,$6,$7,$8,$9,$2,$3,0*
0 Add four circle primitives for the rounded corners*
1,1,$1+$1,$2,$3*
1,1,$1+$1,$4,$5*
1,1,$1+$1,$6,$7*
1,1,$1+$1,$8,$9*
0 Add four rect primitives between the rounded corners*
20,1,$1+$1,$2,$3,$4,$5,0*
20,1,$1+$1,$4,$5,$6,$7,0*
20,1,$1+$1,$6,$7,$8,$9,0*
20,1,$1+$1,$8,$9,$2,$3,0*%
G04 Aperture macros list end*
%ADD10C,0.010000*%
%ADD11C,2.600000*%
%ADD12C,3.800000*%
%ADD13RoundRect,0.050000X-0.750000X1.750000X-0.750000X-1.750000X0.750000X-1.750000X0.750000X1.750000X0*%
%ADD14RoundRect,0.140000X-0.140000X-0.170000X0.140000X-0.170000X0.140000X0.170000X-0.140000X0.170000X0*%
%ADD15RoundRect,0.147500X-0.172500X0.147500X-0.172500X-0.147500X0.172500X-0.147500X0.172500X0.147500X0*%
%ADD16RoundRect,0.050000X2.050000X-2.050000X2.050000X2.050000X-2.050000X2.050000X-2.050000X-2.050000X0*%
%ADD17RoundRect,0.135000X-0.135000X-0.185000X0.135000X-0.185000X0.135000X0.185000X-0.135000X0.185000X0*%
%ADD18RoundRect,0.140000X0.140000X0.170000X-0.140000X0.170000X-0.140000X-0.170000X0.140000X-0.170000X0*%
%ADD19RoundRect,0.140000X-0.170000X0.140000X-0.170000X-0.140000X0.170000X-0.140000X0.170000X0.140000X0*%
%ADD20RoundRect,0.150000X-0.150000X-0.625000X0.150000X-0.625000X0.150000X0.625000X-0.150000X0.625000X0*%
%ADD21RoundRect,0.250000X-0.350000X-0.650000X0.350000X-0.650000X0.350000X0.650000X-0.350000X0.650000X0*%
%ADD22RoundRect,0.050000X0.375000X-0.425000X0.375000X0.425000X-0.375000X0.425000X-0.375000X-0.425000X0*%
%ADD23RoundRect,0.050000X-0.500000X0.250000X-0.500000X-0.250000X0.500000X-0.250000X0.500000X0.250000X0*%
%ADD24R,0.762000X0.304800*%
%ADD25R,2.387600X3.098800*%
%ADD26C,0.650000*%
%ADD27RoundRect,0.050000X-0.575000X0.300000X-0.575000X-0.300000X0.575000X-0.300000X0.575000X0.300000X0*%
%ADD28RoundRect,0.050000X-0.575000X0.150000X-0.575000X-0.150000X0.575000X-0.150000X0.575000X0.150000X0*%
%ADD29RoundRect,0.102000X-1.000000X1.090000X-1.000000X-1.090000X1.000000X-1.090000X1.000000X1.090000X0*%
%ADD30R,0.977900X0.850000*%
%ADD31R,0.977900X0.558800*%
%ADD32RoundRect,0.135000X0.135000X0.185000X-0.135000X0.185000X-0.135000X-0.185000X0.135000X-0.185000X0*%
%ADD33RoundRect,0.140000X0.170000X-0.140000X0.170000X0.140000X-0.170000X0.140000X-0.170000X-0.140000X0*%
%ADD34C,1.000000*%
%ADD35RoundRect,0.147500X0.172500X-0.147500X0.172500X0.147500X-0.172500X0.147500X-0.172500X-0.147500X0*%
G04 APERTURE END LIST*
D10*
%TO.C,U28*%
X85700000Y-116085000D02*
X85700000Y-115765000D01*
X84950000Y-115765000D01*
X84950000Y-116085000D01*
X85700000Y-116085000D01*
G36*
X85700000Y-116085000D02*
G01*
X84950000Y-116085000D01*
X84950000Y-115765000D01*
X85700000Y-115765000D01*
X85700000Y-116085000D01*
G37*
X85700000Y-116485000D02*
X85700000Y-116165000D01*
X84950000Y-116165000D01*
X84950000Y-116485000D01*
X85700000Y-116485000D01*
G36*
X85700000Y-116485000D02*
G01*
X84950000Y-116485000D01*
X84950000Y-116165000D01*
X85700000Y-116165000D01*
X85700000Y-116485000D01*
G37*
X85700000Y-116885000D02*
X85700000Y-116565000D01*
X84950000Y-116565000D01*
X84950000Y-116885000D01*
X85700000Y-116885000D01*
G36*
X85700000Y-116885000D02*
G01*
X84950000Y-116885000D01*
X84950000Y-116565000D01*
X85700000Y-116565000D01*
X85700000Y-116885000D01*
G37*
X85700000Y-117285000D02*
X85700000Y-116965000D01*
X84950000Y-116965000D01*
X84950000Y-117285000D01*
X85700000Y-117285000D01*
G36*
X85700000Y-117285000D02*
G01*
X84950000Y-117285000D01*
X84950000Y-116965000D01*
X85700000Y-116965000D01*
X85700000Y-117285000D01*
G37*
X85700000Y-117685000D02*
X85700000Y-117365000D01*
X84950000Y-117365000D01*
X84950000Y-117685000D01*
X85700000Y-117685000D01*
G36*
X85700000Y-117685000D02*
G01*
X84950000Y-117685000D01*
X84950000Y-117365000D01*
X85700000Y-117365000D01*
X85700000Y-117685000D01*
G37*
X85700000Y-118085000D02*
X85700000Y-117765000D01*
X84950000Y-117765000D01*
X84950000Y-118085000D01*
X85700000Y-118085000D01*
G36*
X85700000Y-118085000D02*
G01*
X84950000Y-118085000D01*
X84950000Y-117765000D01*
X85700000Y-117765000D01*
X85700000Y-118085000D01*
G37*
X85700000Y-118485000D02*
X85700000Y-118165000D01*
X84950000Y-118165000D01*
X84950000Y-118485000D01*
X85700000Y-118485000D01*
G36*
X85700000Y-118485000D02*
G01*
X84950000Y-118485000D01*
X84950000Y-118165000D01*
X85700000Y-118165000D01*
X85700000Y-118485000D01*
G37*
X85700000Y-118885000D02*
X85700000Y-118565000D01*
X84950000Y-118565000D01*
X84950000Y-118885000D01*
X85700000Y-118885000D01*
G36*
X85700000Y-118885000D02*
G01*
X84950000Y-118885000D01*
X84950000Y-118565000D01*
X85700000Y-118565000D01*
X85700000Y-118885000D01*
G37*
X85700000Y-119285000D02*
X85700000Y-118965000D01*
X84950000Y-118965000D01*
X84950000Y-119285000D01*
X85700000Y-119285000D01*
G36*
X85700000Y-119285000D02*
G01*
X84950000Y-119285000D01*
X84950000Y-118965000D01*
X85700000Y-118965000D01*
X85700000Y-119285000D01*
G37*
X85700000Y-119685000D02*
X85700000Y-119365000D01*
X84950000Y-119365000D01*
X84950000Y-119685000D01*
X85700000Y-119685000D01*
G36*
X85700000Y-119685000D02*
G01*
X84950000Y-119685000D01*
X84950000Y-119365000D01*
X85700000Y-119365000D01*
X85700000Y-119685000D01*
G37*
X85700000Y-120085000D02*
X85700000Y-119765000D01*
X84950000Y-119765000D01*
X84950000Y-120085000D01*
X85700000Y-120085000D01*
G36*
X85700000Y-120085000D02*
G01*
X84950000Y-120085000D01*
X84950000Y-119765000D01*
X85700000Y-119765000D01*
X85700000Y-120085000D01*
G37*
X85700000Y-120485000D02*
X85700000Y-120165000D01*
X84950000Y-120165000D01*
X84950000Y-120485000D01*
X85700000Y-120485000D01*
G36*
X85700000Y-120485000D02*
G01*
X84950000Y-120485000D01*
X84950000Y-120165000D01*
X85700000Y-120165000D01*
X85700000Y-120485000D01*
G37*
X85700000Y-120885000D02*
X85700000Y-120565000D01*
X84950000Y-120565000D01*
X84950000Y-120885000D01*
X85700000Y-120885000D01*
G36*
X85700000Y-120885000D02*
G01*
X84950000Y-120885000D01*
X84950000Y-120565000D01*
X85700000Y-120565000D01*
X85700000Y-120885000D01*
G37*
X85700000Y-121285000D02*
X85700000Y-120965000D01*
X84950000Y-120965000D01*
X84950000Y-121285000D01*
X85700000Y-121285000D01*
G36*
X85700000Y-121285000D02*
G01*
X84950000Y-121285000D01*
X84950000Y-120965000D01*
X85700000Y-120965000D01*
X85700000Y-121285000D01*
G37*
X86310000Y-115475000D02*
X86310000Y-114725000D01*
X85990000Y-114725000D01*
X85990000Y-115475000D01*
X86310000Y-115475000D01*
G36*
X86310000Y-115475000D02*
G01*
X85990000Y-115475000D01*
X85990000Y-114725000D01*
X86310000Y-114725000D01*
X86310000Y-115475000D01*
G37*
X86310000Y-122325000D02*
X86310000Y-121575000D01*
X85990000Y-121575000D01*
X85990000Y-122325000D01*
X86310000Y-122325000D01*
G36*
X86310000Y-122325000D02*
G01*
X85990000Y-122325000D01*
X85990000Y-121575000D01*
X86310000Y-121575000D01*
X86310000Y-122325000D01*
G37*
X86710000Y-115475000D02*
X86710000Y-114725000D01*
X86390000Y-114725000D01*
X86390000Y-115475000D01*
X86710000Y-115475000D01*
G36*
X86710000Y-115475000D02*
G01*
X86390000Y-115475000D01*
X86390000Y-114725000D01*
X86710000Y-114725000D01*
X86710000Y-115475000D01*
G37*
X86710000Y-122325000D02*
X86710000Y-121575000D01*
X86390000Y-121575000D01*
X86390000Y-122325000D01*
X86710000Y-122325000D01*
G36*
X86710000Y-122325000D02*
G01*
X86390000Y-122325000D01*
X86390000Y-121575000D01*
X86710000Y-121575000D01*
X86710000Y-122325000D01*
G37*
X87110000Y-115475000D02*
X87110000Y-114725000D01*
X86790000Y-114725000D01*
X86790000Y-115475000D01*
X87110000Y-115475000D01*
G36*
X87110000Y-115475000D02*
G01*
X86790000Y-115475000D01*
X86790000Y-114725000D01*
X87110000Y-114725000D01*
X87110000Y-115475000D01*
G37*
X87110000Y-122325000D02*
X87110000Y-121575000D01*
X86790000Y-121575000D01*
X86790000Y-122325000D01*
X87110000Y-122325000D01*
G36*
X87110000Y-122325000D02*
G01*
X86790000Y-122325000D01*
X86790000Y-121575000D01*
X87110000Y-121575000D01*
X87110000Y-122325000D01*
G37*
X87510000Y-115475000D02*
X87510000Y-114725000D01*
X87190000Y-114725000D01*
X87190000Y-115475000D01*
X87510000Y-115475000D01*
G36*
X87510000Y-115475000D02*
G01*
X87190000Y-115475000D01*
X87190000Y-114725000D01*
X87510000Y-114725000D01*
X87510000Y-115475000D01*
G37*
X87510000Y-122325000D02*
X87510000Y-121575000D01*
X87190000Y-121575000D01*
X87190000Y-122325000D01*
X87510000Y-122325000D01*
G36*
X87510000Y-122325000D02*
G01*
X87190000Y-122325000D01*
X87190000Y-121575000D01*
X87510000Y-121575000D01*
X87510000Y-122325000D01*
G37*
X87910000Y-115475000D02*
X87910000Y-114725000D01*
X87590000Y-114725000D01*
X87590000Y-115475000D01*
X87910000Y-115475000D01*
G36*
X87910000Y-115475000D02*
G01*
X87590000Y-115475000D01*
X87590000Y-114725000D01*
X87910000Y-114725000D01*
X87910000Y-115475000D01*
G37*
X87910000Y-122325000D02*
X87910000Y-121575000D01*
X87590000Y-121575000D01*
X87590000Y-122325000D01*
X87910000Y-122325000D01*
G36*
X87910000Y-122325000D02*
G01*
X87590000Y-122325000D01*
X87590000Y-121575000D01*
X87910000Y-121575000D01*
X87910000Y-122325000D01*
G37*
X88310000Y-115475000D02*
X88310000Y-114725000D01*
X87990000Y-114725000D01*
X87990000Y-115475000D01*
X88310000Y-115475000D01*
G36*
X88310000Y-115475000D02*
G01*
X87990000Y-115475000D01*
X87990000Y-114725000D01*
X88310000Y-114725000D01*
X88310000Y-115475000D01*
G37*
X88310000Y-122325000D02*
X88310000Y-121575000D01*
X87990000Y-121575000D01*
X87990000Y-122325000D01*
X88310000Y-122325000D01*
G36*
X88310000Y-122325000D02*
G01*
X87990000Y-122325000D01*
X87990000Y-121575000D01*
X88310000Y-121575000D01*
X88310000Y-122325000D01*
G37*
X88710000Y-115475000D02*
X88710000Y-114725000D01*
X88390000Y-114725000D01*
X88390000Y-115475000D01*
X88710000Y-115475000D01*
G36*
X88710000Y-115475000D02*
G01*
X88390000Y-115475000D01*
X88390000Y-114725000D01*
X88710000Y-114725000D01*
X88710000Y-115475000D01*
G37*
X88710000Y-122325000D02*
X88710000Y-121575000D01*
X88390000Y-121575000D01*
X88390000Y-122325000D01*
X88710000Y-122325000D01*
G36*
X88710000Y-122325000D02*
G01*
X88390000Y-122325000D01*
X88390000Y-121575000D01*
X88710000Y-121575000D01*
X88710000Y-122325000D01*
G37*
X89110000Y-115475000D02*
X89110000Y-114725000D01*
X88790000Y-114725000D01*
X88790000Y-115475000D01*
X89110000Y-115475000D01*
G36*
X89110000Y-115475000D02*
G01*
X88790000Y-115475000D01*
X88790000Y-114725000D01*
X89110000Y-114725000D01*
X89110000Y-115475000D01*
G37*
X89110000Y-122325000D02*
X89110000Y-121575000D01*
X88790000Y-121575000D01*
X88790000Y-122325000D01*
X89110000Y-122325000D01*
G36*
X89110000Y-122325000D02*
G01*
X88790000Y-122325000D01*
X88790000Y-121575000D01*
X89110000Y-121575000D01*
X89110000Y-122325000D01*
G37*
X89510000Y-115475000D02*
X89510000Y-114725000D01*
X89190000Y-114725000D01*
X89190000Y-115475000D01*
X89510000Y-115475000D01*
G36*
X89510000Y-115475000D02*
G01*
X89190000Y-115475000D01*
X89190000Y-114725000D01*
X89510000Y-114725000D01*
X89510000Y-115475000D01*
G37*
X89510000Y-122325000D02*
X89510000Y-121575000D01*
X89190000Y-121575000D01*
X89190000Y-122325000D01*
X89510000Y-122325000D01*
G36*
X89510000Y-122325000D02*
G01*
X89190000Y-122325000D01*
X89190000Y-121575000D01*
X89510000Y-121575000D01*
X89510000Y-122325000D01*
G37*
X89910000Y-115475000D02*
X89910000Y-114725000D01*
X89590000Y-114725000D01*
X89590000Y-115475000D01*
X89910000Y-115475000D01*
G36*
X89910000Y-115475000D02*
G01*
X89590000Y-115475000D01*
X89590000Y-114725000D01*
X89910000Y-114725000D01*
X89910000Y-115475000D01*
G37*
X89910000Y-122325000D02*
X89910000Y-121575000D01*
X89590000Y-121575000D01*
X89590000Y-122325000D01*
X89910000Y-122325000D01*
G36*
X89910000Y-122325000D02*
G01*
X89590000Y-122325000D01*
X89590000Y-121575000D01*
X89910000Y-121575000D01*
X89910000Y-122325000D01*
G37*
X90310000Y-115475000D02*
X90310000Y-114725000D01*
X89990000Y-114725000D01*
X89990000Y-115475000D01*
X90310000Y-115475000D01*
G36*
X90310000Y-115475000D02*
G01*
X89990000Y-115475000D01*
X89990000Y-114725000D01*
X90310000Y-114725000D01*
X90310000Y-115475000D01*
G37*
X90310000Y-122325000D02*
X90310000Y-121575000D01*
X89990000Y-121575000D01*
X89990000Y-122325000D01*
X90310000Y-122325000D01*
G36*
X90310000Y-122325000D02*
G01*
X89990000Y-122325000D01*
X89990000Y-121575000D01*
X90310000Y-121575000D01*
X90310000Y-122325000D01*
G37*
X90710000Y-115475000D02*
X90710000Y-114725000D01*
X90390000Y-114725000D01*
X90390000Y-115475000D01*
X90710000Y-115475000D01*
G36*
X90710000Y-115475000D02*
G01*
X90390000Y-115475000D01*
X90390000Y-114725000D01*
X90710000Y-114725000D01*
X90710000Y-115475000D01*
G37*
X90710000Y-122325000D02*
X90710000Y-121575000D01*
X90390000Y-121575000D01*
X90390000Y-122325000D01*
X90710000Y-122325000D01*
G36*
X90710000Y-122325000D02*
G01*
X90390000Y-122325000D01*
X90390000Y-121575000D01*
X90710000Y-121575000D01*
X90710000Y-122325000D01*
G37*
X91110000Y-115475000D02*
X91110000Y-114725000D01*
X90790000Y-114725000D01*
X90790000Y-115475000D01*
X91110000Y-115475000D01*
G36*
X91110000Y-115475000D02*
G01*
X90790000Y-115475000D01*
X90790000Y-114725000D01*
X91110000Y-114725000D01*
X91110000Y-115475000D01*
G37*
X91110000Y-122325000D02*
X91110000Y-121575000D01*
X90790000Y-121575000D01*
X90790000Y-122325000D01*
X91110000Y-122325000D01*
G36*
X91110000Y-122325000D02*
G01*
X90790000Y-122325000D01*
X90790000Y-121575000D01*
X91110000Y-121575000D01*
X91110000Y-122325000D01*
G37*
X91510000Y-115475000D02*
X91510000Y-114725000D01*
X91190000Y-114725000D01*
X91190000Y-115475000D01*
X91510000Y-115475000D01*
G36*
X91510000Y-115475000D02*
G01*
X91190000Y-115475000D01*
X91190000Y-114725000D01*
X91510000Y-114725000D01*
X91510000Y-115475000D01*
G37*
X91510000Y-122325000D02*
X91510000Y-121575000D01*
X91190000Y-121575000D01*
X91190000Y-122325000D01*
X91510000Y-122325000D01*
G36*
X91510000Y-122325000D02*
G01*
X91190000Y-122325000D01*
X91190000Y-121575000D01*
X91510000Y-121575000D01*
X91510000Y-122325000D01*
G37*
X92550000Y-116085000D02*
X92550000Y-115765000D01*
X91800000Y-115765000D01*
X91800000Y-116085000D01*
X92550000Y-116085000D01*
G36*
X92550000Y-116085000D02*
G01*
X91800000Y-116085000D01*
X91800000Y-115765000D01*
X92550000Y-115765000D01*
X92550000Y-116085000D01*
G37*
X92550000Y-116485000D02*
X92550000Y-116165000D01*
X91800000Y-116165000D01*
X91800000Y-116485000D01*
X92550000Y-116485000D01*
G36*
X92550000Y-116485000D02*
G01*
X91800000Y-116485000D01*
X91800000Y-116165000D01*
X92550000Y-116165000D01*
X92550000Y-116485000D01*
G37*
X92550000Y-116885000D02*
X92550000Y-116565000D01*
X91800000Y-116565000D01*
X91800000Y-116885000D01*
X92550000Y-116885000D01*
G36*
X92550000Y-116885000D02*
G01*
X91800000Y-116885000D01*
X91800000Y-116565000D01*
X92550000Y-116565000D01*
X92550000Y-116885000D01*
G37*
X92550000Y-117285000D02*
X92550000Y-116965000D01*
X91800000Y-116965000D01*
X91800000Y-117285000D01*
X92550000Y-117285000D01*
G36*
X92550000Y-117285000D02*
G01*
X91800000Y-117285000D01*
X91800000Y-116965000D01*
X92550000Y-116965000D01*
X92550000Y-117285000D01*
G37*
X92550000Y-117685000D02*
X92550000Y-117365000D01*
X91800000Y-117365000D01*
X91800000Y-117685000D01*
X92550000Y-117685000D01*
G36*
X92550000Y-117685000D02*
G01*
X91800000Y-117685000D01*
X91800000Y-117365000D01*
X92550000Y-117365000D01*
X92550000Y-117685000D01*
G37*
X92550000Y-118085000D02*
X92550000Y-117765000D01*
X91800000Y-117765000D01*
X91800000Y-118085000D01*
X92550000Y-118085000D01*
G36*
X92550000Y-118085000D02*
G01*
X91800000Y-118085000D01*
X91800000Y-117765000D01*
X92550000Y-117765000D01*
X92550000Y-118085000D01*
G37*
X92550000Y-118485000D02*
X92550000Y-118165000D01*
X91800000Y-118165000D01*
X91800000Y-118485000D01*
X92550000Y-118485000D01*
G36*
X92550000Y-118485000D02*
G01*
X91800000Y-118485000D01*
X91800000Y-118165000D01*
X92550000Y-118165000D01*
X92550000Y-118485000D01*
G37*
X92550000Y-118885000D02*
X92550000Y-118565000D01*
X91800000Y-118565000D01*
X91800000Y-118885000D01*
X92550000Y-118885000D01*
G36*
X92550000Y-118885000D02*
G01*
X91800000Y-118885000D01*
X91800000Y-118565000D01*
X92550000Y-118565000D01*
X92550000Y-118885000D01*
G37*
X92550000Y-119285000D02*
X92550000Y-118965000D01*
X91800000Y-118965000D01*
X91800000Y-119285000D01*
X92550000Y-119285000D01*
G36*
X92550000Y-119285000D02*
G01*
X91800000Y-119285000D01*
X91800000Y-118965000D01*
X92550000Y-118965000D01*
X92550000Y-119285000D01*
G37*
X92550000Y-119685000D02*
X92550000Y-119365000D01*
X91800000Y-119365000D01*
X91800000Y-119685000D01*
X92550000Y-119685000D01*
G36*
X92550000Y-119685000D02*
G01*
X91800000Y-119685000D01*
X91800000Y-119365000D01*
X92550000Y-119365000D01*
X92550000Y-119685000D01*
G37*
X92550000Y-120085000D02*
X92550000Y-119765000D01*
X91800000Y-119765000D01*
X91800000Y-120085000D01*
X92550000Y-120085000D01*
G36*
X92550000Y-120085000D02*
G01*
X91800000Y-120085000D01*
X91800000Y-119765000D01*
X92550000Y-119765000D01*
X92550000Y-120085000D01*
G37*
X92550000Y-120485000D02*
X92550000Y-120165000D01*
X91800000Y-120165000D01*
X91800000Y-120485000D01*
X92550000Y-120485000D01*
G36*
X92550000Y-120485000D02*
G01*
X91800000Y-120485000D01*
X91800000Y-120165000D01*
X92550000Y-120165000D01*
X92550000Y-120485000D01*
G37*
X92550000Y-120885000D02*
X92550000Y-120565000D01*
X91800000Y-120565000D01*
X91800000Y-120885000D01*
X92550000Y-120885000D01*
G36*
X92550000Y-120885000D02*
G01*
X91800000Y-120885000D01*
X91800000Y-120565000D01*
X92550000Y-120565000D01*
X92550000Y-120885000D01*
G37*
X92550000Y-121285000D02*
X92550000Y-120965000D01*
X91800000Y-120965000D01*
X91800000Y-121285000D01*
X92550000Y-121285000D01*
G36*
X92550000Y-121285000D02*
G01*
X91800000Y-121285000D01*
X91800000Y-120965000D01*
X92550000Y-120965000D01*
X92550000Y-121285000D01*
G37*
%TD*%
D11*
%TO.C,H4*%
X101060000Y-128650000D03*
D12*
X101060000Y-128650000D03*
%TD*%
D11*
%TO.C,H2*%
X101060000Y-106150000D03*
D12*
X101060000Y-106150000D03*
%TD*%
D13*
%TO.C,J8*%
X95100000Y-106722500D03*
X89700000Y-106722500D03*
%TD*%
D11*
%TO.C,H3*%
X84310000Y-128650000D03*
D12*
X84310000Y-128650000D03*
%TD*%
D11*
%TO.C,H1*%
X84310000Y-106150000D03*
D12*
X84310000Y-106150000D03*
%TD*%
D14*
%TO.C,C100*%
X94120000Y-123340000D03*
X95080000Y-123340000D03*
%TD*%
D15*
%TO.C,L11*%
X90090000Y-124745000D03*
X90090000Y-125715000D03*
%TD*%
D16*
%TO.C,U28*%
X88750000Y-118525000D03*
%TD*%
D17*
%TO.C,R75*%
X82900000Y-115830000D03*
X83920000Y-115830000D03*
%TD*%
D18*
%TO.C,C96*%
X86050000Y-113930000D03*
X85090000Y-113930000D03*
%TD*%
D19*
%TO.C,C105*%
X88150000Y-125680000D03*
X88150000Y-126640000D03*
%TD*%
D14*
%TO.C,C98*%
X94120000Y-122360000D03*
X95080000Y-122360000D03*
%TD*%
D20*
%TO.C,J6*%
X91400000Y-126395000D03*
X92400000Y-126395000D03*
X93400000Y-126395000D03*
X94400000Y-126395000D03*
D21*
X90100000Y-128920000D03*
X95700000Y-128920000D03*
%TD*%
D22*
%TO.C,Y6*%
X97460000Y-126870000D03*
X97460000Y-125520000D03*
X98510000Y-125520000D03*
X98510000Y-126870000D03*
%TD*%
D23*
%TO.C,Y5*%
X82990000Y-118770000D03*
X82990000Y-119870000D03*
%TD*%
D24*
%TO.C,U22*%
X83803000Y-111950000D03*
X83803000Y-111149900D03*
X83803000Y-110349800D03*
X83803000Y-109549700D03*
X87740000Y-109549700D03*
X87740000Y-110349800D03*
X87740000Y-111149900D03*
X87740000Y-111950000D03*
D25*
X85771500Y-110749850D03*
%TD*%
D17*
%TO.C,R76*%
X82880000Y-116840000D03*
X83900000Y-116840000D03*
%TD*%
D26*
%TO.C,J2*%
X97660000Y-114970000D03*
X97660000Y-120750000D03*
D27*
X96585000Y-114660000D03*
X96585000Y-115460000D03*
D28*
X96585000Y-116610000D03*
X96585000Y-117610000D03*
X96585000Y-118110000D03*
X96585000Y-119110000D03*
D27*
X96585000Y-121060000D03*
X96585000Y-120260000D03*
D28*
X96585000Y-119610000D03*
X96585000Y-118610000D03*
X96585000Y-117110000D03*
X96585000Y-116110000D03*
D29*
X97160000Y-112750000D03*
X97160000Y-122970000D03*
X101090000Y-112750000D03*
X101090000Y-122970000D03*
%TD*%
D18*
%TO.C,C89*%
X83630000Y-120850000D03*
X82670000Y-120850000D03*
%TD*%
D14*
%TO.C,C101*%
X93530000Y-118110000D03*
X94490000Y-118110000D03*
%TD*%
D30*
%TO.C,CR2*%
X100110000Y-108750000D03*
D31*
X100097450Y-110555200D03*
X97722550Y-110555200D03*
X97722550Y-108624800D03*
%TD*%
D18*
%TO.C,C95*%
X87220000Y-123790000D03*
X86260000Y-123790000D03*
%TD*%
D14*
%TO.C,C97*%
X88920000Y-111950000D03*
X89880000Y-111950000D03*
%TD*%
%TO.C,C103*%
X91030000Y-124660000D03*
X91990000Y-124660000D03*
%TD*%
D32*
%TO.C,R5*%
X95090000Y-119490000D03*
X94070000Y-119490000D03*
%TD*%
D14*
%TO.C,C90*%
X100600000Y-125750000D03*
X101560000Y-125750000D03*
%TD*%
D19*
%TO.C,C92*%
X97320000Y-127990000D03*
X97320000Y-128950000D03*
%TD*%
D18*
%TO.C,C99*%
X83700000Y-121830000D03*
X82740000Y-121830000D03*
%TD*%
D33*
%TO.C,C106*%
X89120000Y-125710000D03*
X89120000Y-124750000D03*
%TD*%
D18*
%TO.C,C91*%
X83620000Y-117800000D03*
X82660000Y-117800000D03*
%TD*%
D32*
%TO.C,R73*%
X90140000Y-123780000D03*
X89120000Y-123780000D03*
%TD*%
D19*
%TO.C,C104*%
X87180000Y-125690000D03*
X87180000Y-126650000D03*
%TD*%
D17*
%TO.C,R1*%
X94100000Y-116640000D03*
X95120000Y-116640000D03*
%TD*%
D14*
%TO.C,C102*%
X94130000Y-121440000D03*
X95090000Y-121440000D03*
%TD*%
D34*
%TO.C,FID1*%
X92510000Y-112600000D03*
%TD*%
D35*
%TO.C,L10*%
X99650000Y-125760000D03*
X99650000Y-124790000D03*
%TD*%
D17*
%TO.C,R74*%
X94070000Y-120460000D03*
X95090000Y-120460000D03*
%TD*%
M02*
