%TF.GenerationSoftware,KiCad,Pcbnew,10.0.3*%
%TF.CreationDate,2026-07-20T21:28:30-04:00*%
%TF.ProjectId,LoRa Board V3,4c6f5261-2042-46f6-9172-642056332e6b,rev?*%
%TF.SameCoordinates,Original*%
%TF.FileFunction,Copper,L1,Top*%
%TF.FilePolarity,Positive*%
%FSLAX46Y46*%
G04 Gerber Fmt 4.6, Leading zero omitted, Abs format (unit mm)*
G04 Created by KiCad (PCBNEW 10.0.3) date 2026-07-20 21:28:30*
%MOMM*%
%LPD*%
G01*
G04 APERTURE LIST*
G04 Aperture macros list*
%AMRoundRect*
0 Rectangle with rounded corners*
0 $1 Rounding radius*
0 $2 $3 $4 $5 $6 $7 $8 $9 X,Y pos of 4 corners*
0 Add a 4 corners polygon primitive as box body*
4,1,4,$2,$3,$4,$5,$6,$7,$8,$9,$2,$3,0*
0 Add four circle primitives for the rounded corners*
1,1,$1+$1,$2,$3*
1,1,$1+$1,$4,$5*
1,1,$1+$1,$6,$7*
1,1,$1+$1,$8,$9*
0 Add four rect primitives between the rounded corners*
20,1,$1+$1,$2,$3,$4,$5,0*
20,1,$1+$1,$4,$5,$6,$7,0*
20,1,$1+$1,$6,$7,$8,$9,0*
20,1,$1+$1,$8,$9,$2,$3,0*%
G04 Aperture macros list end*
%TA.AperFunction,SMDPad,CuDef*%
%ADD10R,2.500000X2.000000*%
%TD*%
%TA.AperFunction,SMDPad,CuDef*%
%ADD11R,0.609600X1.041400*%
%TD*%
%TA.AperFunction,SMDPad,CuDef*%
%ADD12RoundRect,0.250000X-0.475000X0.250000X-0.475000X-0.250000X0.475000X-0.250000X0.475000X0.250000X0*%
%TD*%
%TA.AperFunction,SMDPad,CuDef*%
%ADD13R,0.750000X0.800000*%
%TD*%
%TA.AperFunction,SMDPad,CuDef*%
%ADD14RoundRect,0.147500X-0.172500X0.147500X-0.172500X-0.147500X0.172500X-0.147500X0.172500X0.147500X0*%
%TD*%
%TA.AperFunction,ComponentPad*%
%ADD15C,2.600000*%
%TD*%
%TA.AperFunction,ConnectorPad*%
%ADD16C,3.800000*%
%TD*%
%TA.AperFunction,SMDPad,CuDef*%
%ADD17RoundRect,0.135000X0.185000X-0.135000X0.185000X0.135000X-0.185000X0.135000X-0.185000X-0.135000X0*%
%TD*%
%TA.AperFunction,SMDPad,CuDef*%
%ADD18RoundRect,0.135000X-0.135000X-0.185000X0.135000X-0.185000X0.135000X0.185000X-0.135000X0.185000X0*%
%TD*%
%TA.AperFunction,SMDPad,CuDef*%
%ADD19RoundRect,0.140000X-0.170000X0.140000X-0.170000X-0.140000X0.170000X-0.140000X0.170000X0.140000X0*%
%TD*%
%TA.AperFunction,SMDPad,CuDef*%
%ADD20RoundRect,0.250000X-0.250000X-0.475000X0.250000X-0.475000X0.250000X0.475000X-0.250000X0.475000X0*%
%TD*%
%TA.AperFunction,SMDPad,CuDef*%
%ADD21R,1.000000X1.400000*%
%TD*%
%TA.AperFunction,SMDPad,CuDef*%
%ADD22C,0.500000*%
%TD*%
%TA.AperFunction,SMDPad,CuDef*%
%ADD23RoundRect,0.250000X0.475000X-0.250000X0.475000X0.250000X-0.475000X0.250000X-0.475000X-0.250000X0*%
%TD*%
%TA.AperFunction,SMDPad,CuDef*%
%ADD24RoundRect,0.135000X0.135000X0.185000X-0.135000X0.185000X-0.135000X-0.185000X0.135000X-0.185000X0*%
%TD*%
%TA.AperFunction,SMDPad,CuDef*%
%ADD25RoundRect,0.147500X0.147500X0.172500X-0.147500X0.172500X-0.147500X-0.172500X0.147500X-0.172500X0*%
%TD*%
%TA.AperFunction,SMDPad,CuDef*%
%ADD26RoundRect,0.005000X-0.320000X-0.095000X0.320000X-0.095000X0.320000X0.095000X-0.320000X0.095000X0*%
%TD*%
%TA.AperFunction,SMDPad,CuDef*%
%ADD27RoundRect,0.005000X-0.495000X-0.095000X0.495000X-0.095000X0.495000X0.095000X-0.495000X0.095000X0*%
%TD*%
%TA.AperFunction,SMDPad,CuDef*%
%ADD28RoundRect,0.006250X-0.118750X-0.268750X0.118750X-0.268750X0.118750X0.268750X-0.118750X0.268750X0*%
%TD*%
%TA.AperFunction,SMDPad,CuDef*%
%ADD29R,0.400000X0.900000*%
%TD*%
%TA.AperFunction,SMDPad,CuDef*%
%ADD30R,0.900000X1.000000*%
%TD*%
%TA.AperFunction,SMDPad,CuDef*%
%ADD31R,1.700000X0.550000*%
%TD*%
%TA.AperFunction,SMDPad,CuDef*%
%ADD32R,1.500000X3.500000*%
%TD*%
%TA.AperFunction,SMDPad,CuDef*%
%ADD33R,1.041400X0.609600*%
%TD*%
%TA.AperFunction,SMDPad,CuDef*%
%ADD34RoundRect,0.140000X-0.140000X-0.170000X0.140000X-0.170000X0.140000X0.170000X-0.140000X0.170000X0*%
%TD*%
%TA.AperFunction,ViaPad*%
%ADD35C,0.400000*%
%TD*%
%TA.AperFunction,ViaPad*%
%ADD36C,0.550000*%
%TD*%
%TA.AperFunction,Conductor*%
%ADD37C,0.300000*%
%TD*%
%TA.AperFunction,Conductor*%
%ADD38C,0.200000*%
%TD*%
%TA.AperFunction,Conductor*%
%ADD39C,0.127000*%
%TD*%
%TA.AperFunction,Conductor*%
%ADD40C,0.090000*%
%TD*%
%TA.AperFunction,Conductor*%
%ADD41C,0.100000*%
%TD*%
G04 APERTURE END LIST*
D10*
%TO.P,L1,1*%
%TO.N,Net-(U3-SW)*%
X92290000Y-124230000D03*
%TO.P,L1,2*%
%TO.N,Net-(U3-VO)*%
X92290000Y-129230000D03*
%TD*%
D11*
%TO.P,CR1,1*%
%TO.N,VSYS*%
X102235199Y-117490000D03*
%TO.P,CR1,2*%
%TO.N,VBUS*%
X99144801Y-117490000D03*
%TD*%
D12*
%TO.P,C16,1*%
%TO.N,GND*%
X96230000Y-115290000D03*
%TO.P,C16,2*%
%TO.N,+3V3*%
X96230000Y-117190000D03*
%TD*%
D13*
%TO.P,U14,1,VCC_1*%
%TO.N,+3V3*%
X94540000Y-117450000D03*
%TO.P,U14,2,GND_2*%
%TO.N,GND*%
X94540000Y-116180000D03*
%TO.P,U14,3,NRST_3*%
%TO.N,L_RST*%
X94540000Y-114910000D03*
%TO.P,U14,4,NC_4*%
%TO.N,unconnected-(U14-NC-Pad4)*%
X94540000Y-113640000D03*
%TO.P,U14,5,NC_5*%
%TO.N,unconnected-(U14-NC-Pad5)*%
X94540000Y-112370000D03*
%TO.P,U14,6,ANT_6*%
%TO.N,Net-(U14-ANT)*%
X92430000Y-110280000D03*
%TO.P,U14,7,GND_7*%
%TO.N,GND*%
X91160000Y-110280000D03*
%TO.P,U14,8,NC_8*%
%TO.N,unconnected-(U14-NC-Pad8)*%
X89890000Y-110280000D03*
%TO.P,U14,9,TXEN_9*%
%TO.N,L_DI02*%
X88620000Y-110280000D03*
%TO.P,U14,10,RXEN_10*%
%TO.N,L_RXEN*%
X87350000Y-110280000D03*
%TO.P,U14,11,BUSY_11*%
%TO.N,L_BUSY*%
X85230000Y-112370000D03*
%TO.P,U14,12,MISO_12*%
%TO.N,L_MISO*%
X85230000Y-113640000D03*
%TO.P,U14,13,MOSI_13*%
%TO.N,L_MOSI*%
X85230000Y-114910000D03*
%TO.P,U14,14,NSS_14*%
%TO.N,L_CS*%
X85230000Y-116180000D03*
%TO.P,U14,15,SCK_15*%
%TO.N,L_SCK*%
X85230000Y-117450000D03*
%TO.P,U14,16,GND_16*%
%TO.N,GND*%
X87350000Y-119540000D03*
%TO.P,U14,17,NC_17*%
%TO.N,unconnected-(U14-NC-Pad17)*%
X88620000Y-119540000D03*
%TO.P,U14,18,DIO3_18*%
%TO.N,unconnected-(U14-DIO3-Pad18)*%
X89890000Y-119540000D03*
%TO.P,U14,19,DIO2_19*%
%TO.N,L_DI02*%
X91160000Y-119540000D03*
%TO.P,U14,20,DIO1_20*%
%TO.N,L_DI01*%
X92430000Y-119540000D03*
%TD*%
D12*
%TO.P,C9,1*%
%TO.N,Net-(U3-EN{slash}SYNC)*%
X100110000Y-123790000D03*
%TO.P,C9,2*%
%TO.N,GND*%
X100110000Y-125690000D03*
%TD*%
D14*
%TO.P,D5,1,K_1*%
%TO.N,GND*%
X84150000Y-123120000D03*
%TO.P,D5,2,A_2*%
%TO.N,Net-(D5-A)*%
X84150000Y-124090000D03*
%TD*%
D15*
%TO.P,H4,1*%
%TO.N,N/C*%
X101060000Y-128650000D03*
D16*
X101060000Y-128650000D03*
%TD*%
D17*
%TO.P,R60,1*%
%TO.N,IND_2*%
X84160000Y-126067500D03*
%TO.P,R60,2*%
%TO.N,Net-(D5-A)*%
X84160000Y-125047500D03*
%TD*%
D18*
%TO.P,R7,1*%
%TO.N,GND*%
X94150000Y-121420000D03*
%TO.P,R7,2*%
%TO.N,Net-(U3-FB)*%
X95170000Y-121420000D03*
%TD*%
D19*
%TO.P,C17,1*%
%TO.N,GND*%
X97740000Y-116570000D03*
%TO.P,C17,2*%
%TO.N,+3V3*%
X97740000Y-117530000D03*
%TD*%
D15*
%TO.P,H2,1*%
%TO.N,N/C*%
X101060000Y-106150000D03*
D16*
X101060000Y-106150000D03*
%TD*%
D20*
%TO.P,C13,1*%
%TO.N,Net-(U3-VO)*%
X96000000Y-127620000D03*
%TO.P,C13,2*%
%TO.N,GND*%
X97900000Y-127620000D03*
%TD*%
D21*
%TO.P,FB1,1*%
%TO.N,Net-(U3-VO)*%
X87450000Y-129500000D03*
%TO.P,FB1,2*%
%TO.N,+3V3*%
X87450000Y-126900000D03*
%TD*%
D22*
%TO.P,FID2,*%
%TO.N,*%
X92510000Y-112600000D03*
%TD*%
D23*
%TO.P,C12,1*%
%TO.N,+3V3*%
X88240000Y-125040000D03*
%TO.P,C12,2*%
%TO.N,GND*%
X88240000Y-123140000D03*
%TD*%
D20*
%TO.P,C11,1*%
%TO.N,Net-(U3-VO)*%
X95990000Y-129630000D03*
%TO.P,C11,2*%
%TO.N,GND*%
X97890000Y-129630000D03*
%TD*%
D14*
%TO.P,D4,1,K_1*%
%TO.N,GND*%
X83020000Y-123150000D03*
%TO.P,D4,2,A_2*%
%TO.N,Net-(D4-A)*%
X83020000Y-124120000D03*
%TD*%
D24*
%TO.P,R3,1*%
%TO.N,+3V3*%
X102900000Y-112740000D03*
%TO.P,R3,2*%
%TO.N,Net-(D6-A)*%
X101880000Y-112740000D03*
%TD*%
D17*
%TO.P,R59,1*%
%TO.N,IND_1*%
X83020000Y-126030000D03*
%TO.P,R59,2*%
%TO.N,Net-(D4-A)*%
X83020000Y-125010000D03*
%TD*%
D24*
%TO.P,R4,1*%
%TO.N,Net-(U3-PG)*%
X96680000Y-126170000D03*
%TO.P,R4,2*%
%TO.N,Net-(U3-VO)*%
X95660000Y-126170000D03*
%TD*%
%TO.P,R6,1*%
%TO.N,Net-(U3-FB)*%
X95140000Y-122390000D03*
%TO.P,R6,2*%
%TO.N,+3V3*%
X94120000Y-122390000D03*
%TD*%
D25*
%TO.P,D6,1,K_1*%
%TO.N,GND*%
X102877500Y-113740000D03*
%TO.P,D6,2,A_2*%
%TO.N,Net-(D6-A)*%
X101907500Y-113740000D03*
%TD*%
D26*
%TO.P,U3,1,EN/SYNC_1*%
%TO.N,Net-(U3-EN{slash}SYNC)*%
X95805000Y-124190000D03*
D27*
%TO.P,U3,2,SW_2*%
%TO.N,Net-(U3-SW)*%
X95980000Y-124690000D03*
D26*
%TO.P,U3,3,VO_3*%
%TO.N,Net-(U3-VO)*%
X95805000Y-125190000D03*
D27*
%TO.P,U3,4,PGND_4*%
%TO.N,GND*%
X97380000Y-125190000D03*
D26*
%TO.P,U3,5,PG_5*%
%TO.N,Net-(U3-PG)*%
X97555000Y-124690000D03*
D27*
%TO.P,U3,6,VIN_6*%
%TO.N,Net-(U3-EN{slash}SYNC)*%
X97380000Y-124190000D03*
D28*
%TO.P,U3,7,PSNS_7*%
%TO.N,GND*%
X97430000Y-123515000D03*
%TO.P,U3,8,NR/SS_8*%
%TO.N,Net-(U3-NR{slash}SS)*%
X96930000Y-123515000D03*
%TO.P,U3,9,FB_9*%
%TO.N,Net-(U3-FB)*%
X96430000Y-123515000D03*
%TO.P,U3,10,S-CONF_10*%
%TO.N,GND*%
X95930000Y-123515000D03*
%TD*%
D29*
%TO.P,FL1,1*%
%TO.N,VSYS*%
X102190000Y-119920000D03*
%TO.P,FL1,2*%
%TO.N,Net-(U3-EN{slash}SYNC)*%
X102190000Y-121620000D03*
%TO.P,FL1,3*%
%TO.N,GND*%
X102990000Y-121620000D03*
%TO.P,FL1,4*%
%TO.N,VSS*%
X102990000Y-119920000D03*
%TD*%
D30*
%TO.P,S3,1*%
%TO.N,Net-(U28-GPIO0)*%
X97910000Y-109595000D03*
%TO.P,S3,2*%
%TO.N,GND*%
X97910000Y-111195000D03*
%TO.P,S3,3*%
X102010000Y-111195000D03*
%TO.P,S3,4*%
%TO.N,Net-(U28-GPIO0)*%
X102010000Y-109595000D03*
D31*
%TO.P,S3,5*%
%TO.N,GND*%
X99960000Y-108970000D03*
%TD*%
D32*
%TO.P,J8,1*%
%TO.N,Net-(U14-ANT)*%
X92400000Y-106722500D03*
%TO.P,J8,G1*%
%TO.N,GND*%
X95100000Y-106722500D03*
%TO.P,J8,G2*%
X89700000Y-106722500D03*
%TD*%
D12*
%TO.P,C8,1*%
%TO.N,Net-(U3-EN{slash}SYNC)*%
X102140000Y-123820000D03*
%TO.P,C8,2*%
%TO.N,GND*%
X102140000Y-125720000D03*
%TD*%
D33*
%TO.P,CR3,1*%
%TO.N,VSYS*%
X99740000Y-119304801D03*
%TO.P,CR3,2*%
%TO.N,+BATT*%
X99740000Y-122395199D03*
%TD*%
D15*
%TO.P,H3,1*%
%TO.N,N/C*%
X84310000Y-128650000D03*
D16*
X84310000Y-128650000D03*
%TD*%
D23*
%TO.P,C15,1*%
%TO.N,+3V3*%
X86220000Y-125040000D03*
%TO.P,C15,2*%
%TO.N,GND*%
X86220000Y-123140000D03*
%TD*%
D19*
%TO.P,C7,1*%
%TO.N,Net-(U3-EN{slash}SYNC)*%
X98630000Y-124090000D03*
%TO.P,C7,2*%
%TO.N,GND*%
X98630000Y-125050000D03*
%TD*%
D34*
%TO.P,C10,1*%
%TO.N,Net-(U3-NR{slash}SS)*%
X97010000Y-122450000D03*
%TO.P,C10,2*%
%TO.N,GND*%
X97970000Y-122450000D03*
%TD*%
D15*
%TO.P,H1,1*%
%TO.N,N/C*%
X84310000Y-106150000D03*
D16*
X84310000Y-106150000D03*
%TD*%
D35*
%TO.N,GND*%
X86660000Y-121200000D03*
%TO.N,LoRa_RX*%
X87840000Y-121240000D03*
%TO.N,LoRa_TX*%
X87290000Y-121250000D03*
X93310000Y-125860000D03*
%TO.N,LoRa_RX*%
X94420000Y-125890000D03*
D36*
%TO.N,VBUS*%
X99110000Y-117530000D03*
D35*
%TO.N,GND*%
X91040000Y-106550000D03*
X93800000Y-105520000D03*
X93530000Y-109340000D03*
X91790000Y-111040000D03*
X94100000Y-116640000D03*
X96630000Y-104150000D03*
X86930000Y-120430000D03*
X98410000Y-118330000D03*
X97890000Y-129630000D03*
X100460000Y-112660000D03*
X95260000Y-109040000D03*
X91020000Y-108150000D03*
X91050000Y-105720000D03*
X96220000Y-110580000D03*
X96180000Y-109010000D03*
X88460000Y-121050000D03*
X95300000Y-115840000D03*
X82940000Y-114990000D03*
X95260000Y-111350000D03*
X99530000Y-121720000D03*
X91160000Y-110280000D03*
X82660000Y-117800000D03*
X93800000Y-104140000D03*
X85440000Y-122260000D03*
X94070000Y-119490000D03*
X88160000Y-104220000D03*
X91040000Y-107360000D03*
X84360000Y-113780000D03*
X86650000Y-109420000D03*
X102220000Y-111170000D03*
X87500000Y-123150000D03*
X96380000Y-108120000D03*
X92370000Y-127660000D03*
X98510000Y-126870000D03*
X91080000Y-113110000D03*
X102920000Y-109530000D03*
X86540000Y-116130000D03*
X91360000Y-122830000D03*
X94400000Y-109040000D03*
X82960000Y-111040000D03*
X93760000Y-114860000D03*
X84990000Y-109380000D03*
X92270000Y-122180000D03*
X90430000Y-116750000D03*
X93770000Y-106320000D03*
X89080000Y-122760000D03*
X89730000Y-122750000D03*
X102090000Y-125670000D03*
X86680000Y-111200000D03*
X84140000Y-120080000D03*
X91050000Y-104940000D03*
X96585000Y-121060000D03*
X87350000Y-119540000D03*
X88160000Y-104910000D03*
X87880000Y-112810000D03*
X90450000Y-115890000D03*
X88160000Y-105640000D03*
X95280000Y-109860000D03*
X87300000Y-113570000D03*
X91400000Y-127640000D03*
X82640000Y-109440000D03*
X90430000Y-117740000D03*
X96630000Y-104930000D03*
X82740000Y-121830000D03*
X89180000Y-113530000D03*
X86830000Y-117900000D03*
X93470000Y-110200000D03*
X96580000Y-106460000D03*
X86200000Y-126680000D03*
X86240000Y-111860000D03*
X103000000Y-118990000D03*
X88160000Y-107100000D03*
X86220000Y-120440000D03*
X93680000Y-107840000D03*
X93800000Y-104770000D03*
X91050000Y-104190000D03*
X82480000Y-123010000D03*
X88170000Y-107750000D03*
X97380000Y-125190000D03*
X88130000Y-108450000D03*
X89720000Y-112690000D03*
X88690000Y-120390000D03*
X93660000Y-108600000D03*
X97800000Y-112660000D03*
X82320000Y-126030000D03*
X92820000Y-122410000D03*
X88120000Y-113720000D03*
X90250000Y-109060000D03*
X96510000Y-107410000D03*
X95660000Y-115320000D03*
X84350000Y-117720000D03*
X88890000Y-126440000D03*
X88170000Y-106370000D03*
X83870000Y-119040000D03*
X97910000Y-111195000D03*
X82650000Y-113830000D03*
X88690000Y-109080000D03*
X95280000Y-110600000D03*
X95300000Y-113320000D03*
X84420000Y-121910000D03*
X94540000Y-116180000D03*
X97560000Y-119270000D03*
X86190000Y-119620000D03*
X85870000Y-109410000D03*
X93740000Y-107130000D03*
X92580000Y-111140000D03*
X102990000Y-121620000D03*
X90480000Y-121210000D03*
X88530000Y-122780000D03*
X87740000Y-120440000D03*
X87310000Y-116760000D03*
X93300000Y-110980000D03*
X84780000Y-111100000D03*
X96560000Y-105760000D03*
X95360000Y-114390000D03*
X99280000Y-115920000D03*
X95890000Y-121690000D03*
X95300000Y-112310000D03*
X91500000Y-109530000D03*
X93440000Y-122390000D03*
X97970000Y-122450000D03*
X90600000Y-120380000D03*
X82670000Y-120850000D03*
X89570000Y-109080000D03*
X89610000Y-120440000D03*
X91020000Y-108960000D03*
X97740000Y-116570000D03*
%TO.N,+3V3*%
X102900000Y-112740000D03*
X87205000Y-125715000D03*
X83700000Y-121830000D03*
X94540000Y-117450000D03*
X87950000Y-124820000D03*
X88170000Y-125715000D03*
X94150000Y-122360000D03*
%TO.N,L_RST*%
X94540000Y-114910000D03*
%TO.N,L_RXEN*%
X90550000Y-113190000D03*
%TO.N,L_BUSY*%
X89605000Y-113225000D03*
%TO.N,L_MISO*%
X89550000Y-114120000D03*
%TO.N,L_MOSI*%
X84550000Y-115770000D03*
%TO.N,L_CS*%
X85990000Y-116180000D03*
%TO.N,L_SCK*%
X85980000Y-117880000D03*
%TO.N,L_DI01*%
X89000000Y-121070000D03*
%TO.N,IND_2*%
X84160000Y-126067500D03*
%TO.N,IND_1*%
X83020000Y-126030000D03*
D36*
%TO.N,VSS*%
X91400000Y-126395000D03*
X102990000Y-119920000D03*
D35*
%TO.N,Net-(U28-GPIO0)*%
X102010000Y-109595000D03*
X89740000Y-121300000D03*
D36*
%TO.N,+BATT*%
X92400000Y-126395000D03*
X99510000Y-122390000D03*
D35*
%TO.N,OUT_VDD_SPI*%
X87750000Y-111950000D03*
X86050000Y-113930000D03*
%TO.N,OUT_SPI_HD*%
X87740000Y-111149900D03*
X86586500Y-114360000D03*
%TO.N,OUT_SPI_Q*%
X82680000Y-113230000D03*
X83803000Y-111149900D03*
%TO.N,OUT_SPI_D*%
X88510000Y-114130000D03*
X87740000Y-109549700D03*
%TO.N,D+*%
X82900000Y-115830000D03*
X97525000Y-118365000D03*
X98600000Y-110420000D03*
%TO.N,D-*%
X97722550Y-108624800D03*
X95655000Y-118025000D03*
X82880000Y-116840000D03*
%TD*%
%TO.N,+3V3*%
D37*
X95970000Y-117450000D02*
X96230000Y-117190000D01*
X96570000Y-117530000D02*
X96230000Y-117190000D01*
X97740000Y-117530000D02*
X96570000Y-117530000D01*
X94540000Y-117450000D02*
X95970000Y-117450000D01*
%TO.N,Net-(U14-ANT)*%
D38*
X92430000Y-110280000D02*
X92430000Y-106752500D01*
X92430000Y-106752500D02*
X92400000Y-106722500D01*
%TO.N,L_DI02*%
D39*
X88820000Y-110280000D02*
X88620000Y-110280000D01*
X91470000Y-119230000D02*
X91470000Y-112930000D01*
X91160000Y-119540000D02*
X91470000Y-119230000D01*
X91470000Y-112930000D02*
X88820000Y-110280000D01*
%TO.N,L_RXEN*%
X87947667Y-110843500D02*
X87890567Y-110786400D01*
X90450000Y-112850000D02*
X88443500Y-110843500D01*
X87856400Y-110786400D02*
X87350000Y-110280000D01*
X88443500Y-110843500D02*
X87947667Y-110843500D01*
X90450000Y-113090000D02*
X90450000Y-112850000D01*
X90550000Y-113190000D02*
X90450000Y-113090000D01*
X87890567Y-110786400D02*
X87856400Y-110786400D01*
%TO.N,L_BUSY*%
X88750000Y-112370000D02*
X85230000Y-112370000D01*
X89605000Y-113225000D02*
X88750000Y-112370000D01*
%TO.N,L_MISO*%
X88210000Y-113180000D02*
X85990000Y-113180000D01*
X89550000Y-114120000D02*
X89150000Y-114120000D01*
X85990000Y-113180000D02*
X85530000Y-113640000D01*
X89150000Y-114120000D02*
X88210000Y-113180000D01*
X85530000Y-113640000D02*
X85230000Y-113640000D01*
%TO.N,L_MOSI*%
D40*
X84550000Y-115770000D02*
X84550000Y-115590000D01*
X84550000Y-115590000D02*
X85230000Y-114910000D01*
%TO.N,L_CS*%
D39*
X85990000Y-116180000D02*
X85230000Y-116180000D01*
%TO.N,L_SCK*%
X85800000Y-117450000D02*
X85230000Y-117450000D01*
X85980000Y-117880000D02*
X85980000Y-117630000D01*
X85980000Y-117630000D02*
X85800000Y-117450000D01*
%TO.N,L_DI01*%
X91150000Y-120820000D02*
X89280000Y-120820000D01*
X92430000Y-119540000D02*
X91150000Y-120820000D01*
X89030000Y-121070000D02*
X89000000Y-121070000D01*
X89280000Y-120820000D02*
X89030000Y-121070000D01*
%TO.N,Net-(U3-EN{slash}SYNC)*%
D38*
X95805000Y-124190000D02*
X97380000Y-124190000D01*
%TO.N,Net-(D5-A)*%
X84150000Y-124090000D02*
X84150000Y-125037500D01*
%TO.N,Net-(U3-FB)*%
D39*
X95170000Y-122360000D02*
X95140000Y-122390000D01*
X96430000Y-123515000D02*
X96430000Y-123240001D01*
X96430000Y-123240001D02*
X95579999Y-122390000D01*
X95170000Y-121420000D02*
X95170000Y-122360000D01*
X95579999Y-122390000D02*
X95140000Y-122390000D01*
%TO.N,Net-(D4-A)*%
D38*
X83020000Y-124120000D02*
X83020000Y-125010000D01*
%TO.N,Net-(D6-A)*%
X101880000Y-112740000D02*
X101880000Y-113712500D01*
X101880000Y-113712500D02*
X101907500Y-113740000D01*
%TO.N,Net-(U3-PG)*%
D41*
X96620000Y-124930000D02*
X96620000Y-126110000D01*
X96620000Y-126110000D02*
X96680000Y-126170000D01*
X96860000Y-124690000D02*
X96620000Y-124930000D01*
X97555000Y-124690000D02*
X96860000Y-124690000D01*
%TO.N,Net-(U3-NR{slash}SS)*%
D39*
X96930000Y-122530000D02*
X97010000Y-122450000D01*
X96930000Y-123515000D02*
X96930000Y-122530000D01*
%TO.N,Net-(U28-GPIO0)*%
X102010000Y-109595000D02*
X97910000Y-109595000D01*
%TO.N,OUT_SPI_Q*%
X82680000Y-113230000D02*
X82680000Y-112272900D01*
X82680000Y-112272900D02*
X83803000Y-111149900D01*
%TD*%
%TA.AperFunction,Conductor*%
%TO.N,+3V3*%
G36*
X88301740Y-124578371D02*
G01*
X88320203Y-124622500D01*
X88320203Y-124622518D01*
X88329791Y-127565918D01*
X88311629Y-127610172D01*
X88267495Y-127628622D01*
X88265933Y-127628607D01*
X86988542Y-127600837D01*
X86944756Y-127581575D01*
X86933451Y-127565179D01*
X86533551Y-126723721D01*
X86527500Y-126696894D01*
X86527500Y-126636884D01*
X86527499Y-126636878D01*
X86508616Y-126566410D01*
X86505181Y-126553590D01*
X86462065Y-126478910D01*
X86401090Y-126417935D01*
X86401089Y-126417934D01*
X86400204Y-126417423D01*
X86399671Y-126416845D01*
X86397838Y-126415439D01*
X86398080Y-126415122D01*
X86375010Y-126390126D01*
X85552284Y-124658974D01*
X85549848Y-124611203D01*
X85581907Y-124575700D01*
X85608510Y-124569649D01*
X88257482Y-124560222D01*
X88301740Y-124578371D01*
G37*
%TD.AperFunction*%
%TD*%
%TA.AperFunction,Conductor*%
%TO.N,VSYS*%
G36*
X102422034Y-117005784D02*
G01*
X102464783Y-117027247D01*
X102480000Y-117068119D01*
X102480000Y-120266926D01*
X102461694Y-120311120D01*
X102417500Y-120329426D01*
X102416928Y-120329423D01*
X99261928Y-120300566D01*
X99217903Y-120281857D01*
X99200000Y-120238069D01*
X99200000Y-119071044D01*
X99218306Y-119026850D01*
X99224732Y-119021246D01*
X101911218Y-116984240D01*
X101953508Y-116971709D01*
X102422034Y-117005784D01*
G37*
%TD.AperFunction*%
%TD*%
%TA.AperFunction,Conductor*%
%TO.N,Net-(U3-VO)*%
G36*
X96057799Y-125126860D02*
G01*
X96081485Y-125132652D01*
X96085919Y-125134719D01*
X96090829Y-125137008D01*
X96122668Y-125170993D01*
X96125749Y-125178912D01*
X96130000Y-125201567D01*
X96130000Y-125870000D01*
X96205136Y-126063771D01*
X96276178Y-126246987D01*
X96279338Y-126258085D01*
X96281434Y-126269288D01*
X96282500Y-126280777D01*
X96282500Y-126380856D01*
X96297728Y-126457419D01*
X96297729Y-126457421D01*
X96355749Y-126544253D01*
X96355751Y-126544255D01*
X96379502Y-126560125D01*
X96393540Y-126572995D01*
X96405034Y-126587331D01*
X96414544Y-126603831D01*
X96503574Y-126833430D01*
X96506768Y-126844707D01*
X96508864Y-126856092D01*
X96509895Y-126867772D01*
X96490440Y-130175154D01*
X96485541Y-130199043D01*
X96481839Y-130207835D01*
X96447855Y-130241443D01*
X96439073Y-130245027D01*
X96415173Y-130249659D01*
X87764206Y-130210336D01*
X87740312Y-130205471D01*
X87731341Y-130201707D01*
X87697808Y-130168065D01*
X87694260Y-130159530D01*
X87689474Y-130135982D01*
X87680464Y-128865519D01*
X87685051Y-128841569D01*
X87689731Y-128830040D01*
X87718726Y-128798140D01*
X87723631Y-128795580D01*
X87741999Y-128789387D01*
X91002065Y-128231357D01*
X91007374Y-128230682D01*
X91008827Y-128230560D01*
X91012711Y-128230236D01*
X91018060Y-128230018D01*
X95420000Y-128240000D01*
X95439506Y-125177282D01*
X95444416Y-125153402D01*
X95448115Y-125144631D01*
X95482148Y-125111030D01*
X95489944Y-125107859D01*
X95516202Y-125103312D01*
X96057799Y-125126860D01*
G37*
%TD.AperFunction*%
%TD*%
%TA.AperFunction,Conductor*%
%TO.N,Net-(U3-SW)*%
G36*
X95240866Y-124429896D02*
G01*
X95258718Y-124432712D01*
X95656068Y-124556332D01*
X95667706Y-124566021D01*
X95681694Y-124571816D01*
X95685394Y-124580749D01*
X95692828Y-124586939D01*
X95700000Y-124616010D01*
X95700000Y-124723125D01*
X95681694Y-124767319D01*
X95655000Y-124783125D01*
X95228396Y-124907550D01*
X95211253Y-124910049D01*
X93534101Y-124919633D01*
X93489803Y-124901580D01*
X93471245Y-124857491D01*
X93471255Y-124855963D01*
X93478784Y-124471968D01*
X93497953Y-124428144D01*
X93541977Y-124410700D01*
X95240866Y-124429896D01*
G37*
%TD.AperFunction*%
%TD*%
%TA.AperFunction,Conductor*%
%TO.N,Net-(U3-EN{slash}SYNC)*%
G36*
X101400000Y-123410000D02*
G01*
X102818416Y-123429837D01*
X102810611Y-124218233D01*
X102791868Y-124262244D01*
X102748230Y-124280114D01*
X97479234Y-124289890D01*
X97458558Y-124281370D01*
X97437443Y-124273968D01*
X97436664Y-124272349D01*
X97435006Y-124271666D01*
X97416714Y-124230857D01*
X97412458Y-124154252D01*
X97428284Y-124109110D01*
X97450945Y-124093042D01*
X99378694Y-123294682D01*
X99402236Y-123289928D01*
X101446312Y-123278009D01*
X101400000Y-123410000D01*
G37*
%TD.AperFunction*%
%TA.AperFunction,Conductor*%
G36*
X102795008Y-123275388D02*
G01*
X102796951Y-123278755D01*
X102800563Y-123280196D01*
X102807746Y-123297460D01*
X102818919Y-123316819D01*
X102819447Y-123324146D01*
X102819456Y-123324866D01*
X102818838Y-123387293D01*
X102788230Y-123270185D01*
X102795008Y-123275388D01*
G37*
%TD.AperFunction*%
%TD*%
%TA.AperFunction,Conductor*%
%TO.N,Net-(U3-EN{slash}SYNC)*%
G36*
X102363267Y-121688912D02*
G01*
X102383258Y-121720729D01*
X102387856Y-121738320D01*
X102818838Y-123387293D01*
X102818838Y-123387295D01*
X102820351Y-123393084D01*
X102820451Y-123400699D01*
X102818661Y-123405185D01*
X102818416Y-123429837D01*
X101400000Y-123410000D01*
X101986554Y-121738319D01*
X102018460Y-121702679D01*
X102040472Y-121696718D01*
X102317739Y-121674237D01*
X102363267Y-121688912D01*
G37*
%TD.AperFunction*%
%TD*%
%TA.AperFunction,Conductor*%
%TO.N,GND*%
G36*
X102858455Y-103900575D02*
G01*
X102861529Y-103900726D01*
X102864588Y-103900952D01*
X102884805Y-103902943D01*
X103006806Y-103914958D01*
X103012853Y-103915855D01*
X103018854Y-103917049D01*
X103024788Y-103918535D01*
X103157135Y-103958682D01*
X103162910Y-103960749D01*
X103168547Y-103963084D01*
X103174091Y-103965706D01*
X103296035Y-104030887D01*
X103301291Y-104034037D01*
X103306379Y-104037436D01*
X103311311Y-104041093D01*
X103418202Y-104128817D01*
X103422746Y-104132936D01*
X103427062Y-104137252D01*
X103431181Y-104141796D01*
X103518905Y-104248687D01*
X103522562Y-104253619D01*
X103525961Y-104258707D01*
X103529111Y-104263962D01*
X103594294Y-104385909D01*
X103596910Y-104391440D01*
X103599252Y-104397093D01*
X103601320Y-104402872D01*
X103641461Y-104535201D01*
X103642952Y-104541158D01*
X103644142Y-104547144D01*
X103645041Y-104553204D01*
X103659047Y-104695409D01*
X103659272Y-104698448D01*
X103659424Y-104701522D01*
X103659500Y-104704609D01*
X103659500Y-130195389D01*
X103659424Y-130198476D01*
X103659272Y-130201550D01*
X103659047Y-130204589D01*
X103645041Y-130346794D01*
X103644142Y-130352854D01*
X103642952Y-130358840D01*
X103641461Y-130364797D01*
X103601320Y-130497126D01*
X103599252Y-130502905D01*
X103596910Y-130508558D01*
X103594289Y-130514099D01*
X103529111Y-130636036D01*
X103525961Y-130641291D01*
X103522562Y-130646379D01*
X103518905Y-130651311D01*
X103431181Y-130758202D01*
X103427062Y-130762746D01*
X103422746Y-130767062D01*
X103418202Y-130771181D01*
X103311311Y-130858905D01*
X103306379Y-130862562D01*
X103301291Y-130865961D01*
X103296036Y-130869111D01*
X103174099Y-130934289D01*
X103168558Y-130936910D01*
X103162905Y-130939252D01*
X103157126Y-130941320D01*
X103024797Y-130981461D01*
X103018840Y-130982952D01*
X103012854Y-130984142D01*
X103006794Y-130985041D01*
X102864589Y-130999047D01*
X102861550Y-130999272D01*
X102858476Y-130999424D01*
X102855389Y-130999500D01*
X82864611Y-130999500D01*
X82861525Y-130999424D01*
X82858450Y-130999272D01*
X82855410Y-130999047D01*
X82713204Y-130985041D01*
X82707144Y-130984142D01*
X82701158Y-130982952D01*
X82695201Y-130981461D01*
X82562868Y-130941318D01*
X82557093Y-130939252D01*
X82551440Y-130936910D01*
X82545909Y-130934294D01*
X82423962Y-130869111D01*
X82418707Y-130865961D01*
X82413619Y-130862562D01*
X82408687Y-130858905D01*
X82301796Y-130771181D01*
X82297252Y-130767062D01*
X82292936Y-130762746D01*
X82288817Y-130758202D01*
X82201093Y-130651311D01*
X82197436Y-130646379D01*
X82194037Y-130641291D01*
X82190887Y-130636035D01*
X82125705Y-130514089D01*
X82123086Y-130508553D01*
X82120746Y-130502903D01*
X82118686Y-130497150D01*
X82078538Y-130364797D01*
X82077050Y-130358854D01*
X82075857Y-130352858D01*
X82074957Y-130346794D01*
X82074231Y-130339423D01*
X82060952Y-130204589D01*
X82060726Y-130201529D01*
X82060575Y-130198455D01*
X82060500Y-130195389D01*
X82060500Y-128517101D01*
X82282500Y-128517101D01*
X82282500Y-128782897D01*
X82316656Y-129042333D01*
X82316656Y-129042339D01*
X82316657Y-129042339D01*
X82317192Y-129046404D01*
X82385971Y-129303095D01*
X82385974Y-129303102D01*
X82385978Y-129303111D01*
X82385980Y-129303117D01*
X82404370Y-129347515D01*
X82440117Y-129433817D01*
X82440116Y-129433817D01*
X82487685Y-129548656D01*
X82487687Y-129548661D01*
X82620576Y-129778832D01*
X82782369Y-129989686D01*
X82782378Y-129989696D01*
X82970307Y-130177625D01*
X82971089Y-130178266D01*
X82971105Y-130178279D01*
X82971132Y-130178301D01*
X82971955Y-130178890D01*
X82999464Y-130200000D01*
X82999465Y-130200000D01*
X83132454Y-130302045D01*
X83181165Y-130339422D01*
X83209836Y-130355975D01*
X83410466Y-130471809D01*
X83410473Y-130471813D01*
X83410472Y-130471813D01*
X83411327Y-130472306D01*
X83411338Y-130472312D01*
X83471278Y-130497140D01*
X83656883Y-130574020D01*
X83656888Y-130574021D01*
X83656893Y-130574023D01*
X83656897Y-130574024D01*
X83656899Y-130574025D01*
X83898450Y-130638748D01*
X83913606Y-130642809D01*
X84177111Y-130677500D01*
X84177117Y-130677500D01*
X84442883Y-130677500D01*
X84442889Y-130677500D01*
X84564558Y-130661481D01*
X84706383Y-130642811D01*
X84706388Y-130642810D01*
X84706389Y-130642809D01*
X84706394Y-130642809D01*
X84706398Y-130642808D01*
X84963100Y-130574025D01*
X84963103Y-130574023D01*
X84963117Y-130574020D01*
X84963124Y-130574017D01*
X84963210Y-130573994D01*
X84963881Y-130573703D01*
X85208664Y-130472311D01*
X85438835Y-130339422D01*
X85649692Y-130177626D01*
X85837626Y-129989692D01*
X85999422Y-129778835D01*
X86132311Y-129548664D01*
X86234020Y-129303117D01*
X86302809Y-129046394D01*
X86336901Y-128787442D01*
X86822500Y-128787442D01*
X86822500Y-130212558D01*
X86825107Y-130225660D01*
X86828467Y-130242551D01*
X86828469Y-130242560D01*
X86828699Y-130243717D01*
X86828697Y-130243723D01*
X86828999Y-130246789D01*
X86829897Y-130249749D01*
X86858074Y-130291919D01*
X86858075Y-130291920D01*
X86858077Y-130291922D01*
X86873230Y-130302046D01*
X86886257Y-130310750D01*
X86886256Y-130310751D01*
X86886260Y-130310752D01*
X86900252Y-130320102D01*
X86937442Y-130327500D01*
X86937443Y-130327500D01*
X87679139Y-130327500D01*
X87697555Y-130330275D01*
X87713876Y-130335307D01*
X87737770Y-130340172D01*
X87737780Y-130340173D01*
X87737779Y-130340173D01*
X87763581Y-130342833D01*
X87763589Y-130342833D01*
X87763604Y-130342835D01*
X95453317Y-130377788D01*
X95497227Y-130396093D01*
X95517610Y-130416476D01*
X95630796Y-130471809D01*
X95704173Y-130482500D01*
X96275826Y-130482499D01*
X96349204Y-130471809D01*
X96462390Y-130416476D01*
X96551476Y-130327390D01*
X96551478Y-130327384D01*
X96553398Y-130324697D01*
X96560313Y-130316577D01*
X96575008Y-130302046D01*
X96603955Y-130259254D01*
X96607657Y-130250462D01*
X96615340Y-130225661D01*
X96620239Y-130201772D01*
X96622938Y-130175933D01*
X96632696Y-128517101D01*
X99032500Y-128517101D01*
X99032500Y-128782897D01*
X99066656Y-129042333D01*
X99066656Y-129042339D01*
X99066657Y-129042339D01*
X99067192Y-129046404D01*
X99135971Y-129303095D01*
X99135974Y-129303102D01*
X99135978Y-129303111D01*
X99135980Y-129303117D01*
X99154370Y-129347515D01*
X99190117Y-129433817D01*
X99190116Y-129433817D01*
X99237685Y-129548656D01*
X99237687Y-129548661D01*
X99370576Y-129778832D01*
X99532369Y-129989686D01*
X99532378Y-129989696D01*
X99720307Y-130177625D01*
X99721089Y-130178266D01*
X99721105Y-130178279D01*
X99721132Y-130178301D01*
X99721955Y-130178890D01*
X99749464Y-130200000D01*
X99749465Y-130200000D01*
X99882454Y-130302045D01*
X99931165Y-130339422D01*
X99959836Y-130355975D01*
X100160466Y-130471809D01*
X100160473Y-130471813D01*
X100160472Y-130471813D01*
X100161327Y-130472306D01*
X100161338Y-130472312D01*
X100221278Y-130497140D01*
X100406883Y-130574020D01*
X100406888Y-130574021D01*
X100406893Y-130574023D01*
X100406897Y-130574024D01*
X100406899Y-130574025D01*
X100648450Y-130638748D01*
X100663606Y-130642809D01*
X100927111Y-130677500D01*
X100927117Y-130677500D01*
X101192883Y-130677500D01*
X101192889Y-130677500D01*
X101314558Y-130661481D01*
X101456383Y-130642811D01*
X101456388Y-130642810D01*
X101456389Y-130642809D01*
X101456394Y-130642809D01*
X101456398Y-130642808D01*
X101713100Y-130574025D01*
X101713103Y-130574023D01*
X101713117Y-130574020D01*
X101713124Y-130574017D01*
X101713210Y-130573994D01*
X101713881Y-130573703D01*
X101958664Y-130472311D01*
X102188835Y-130339422D01*
X102399692Y-130177626D01*
X102587626Y-129989692D01*
X102749422Y-129778835D01*
X102882311Y-129548664D01*
X102984020Y-129303117D01*
X103052809Y-129046394D01*
X103087500Y-128782889D01*
X103087500Y-128517111D01*
X103052809Y-128253606D01*
X103052808Y-128253601D01*
X103052807Y-128253600D01*
X103052807Y-128253595D01*
X102984539Y-127998818D01*
X102984538Y-127998814D01*
X102984025Y-127996899D01*
X102984024Y-127996897D01*
X102984023Y-127996893D01*
X102984021Y-127996888D01*
X102984020Y-127996883D01*
X102882311Y-127751336D01*
X102749422Y-127521165D01*
X102587626Y-127310308D01*
X102587613Y-127310295D01*
X102399700Y-127122381D01*
X102399667Y-127122352D01*
X102399453Y-127122190D01*
X102188829Y-126960574D01*
X101958667Y-126827690D01*
X101958656Y-126827685D01*
X101839163Y-126778189D01*
X101839162Y-126778189D01*
X101713114Y-126725978D01*
X101713105Y-126725974D01*
X101713095Y-126725971D01*
X101456401Y-126657191D01*
X101192897Y-126622500D01*
X101192893Y-126622500D01*
X101192889Y-126622500D01*
X100927111Y-126622500D01*
X100927106Y-126622500D01*
X100927101Y-126622500D01*
X100667666Y-126656656D01*
X100667659Y-126656656D01*
X100663602Y-126657191D01*
X100663601Y-126657191D01*
X100663600Y-126657191D01*
X100663594Y-126657192D01*
X100406923Y-126725966D01*
X100406901Y-126725973D01*
X100404333Y-126726829D01*
X100402230Y-126727906D01*
X100161342Y-126827685D01*
X100161331Y-126827690D01*
X99931169Y-126960574D01*
X99720313Y-127122368D01*
X99720311Y-127122370D01*
X99720295Y-127122385D01*
X99532385Y-127310295D01*
X99532370Y-127310311D01*
X99532368Y-127310313D01*
X99370574Y-127521169D01*
X99237690Y-127751331D01*
X99237688Y-127751335D01*
X99135973Y-127996900D01*
X99135972Y-127996904D01*
X99067192Y-128253593D01*
X99066657Y-128257660D01*
X99066656Y-128257662D01*
X99032500Y-128517101D01*
X96632696Y-128517101D01*
X96642393Y-126868551D01*
X96641882Y-126856121D01*
X96640851Y-126844441D01*
X96640847Y-126844414D01*
X96640845Y-126844390D01*
X96639177Y-126832122D01*
X96639176Y-126832115D01*
X96638362Y-126827692D01*
X96637078Y-126820717D01*
X96634253Y-126808599D01*
X96631059Y-126797322D01*
X96627112Y-126785527D01*
X96627111Y-126785523D01*
X96604052Y-126726057D01*
X96594954Y-126702595D01*
X96596043Y-126654773D01*
X96630630Y-126621728D01*
X96653226Y-126617500D01*
X96840856Y-126617500D01*
X96917423Y-126602270D01*
X97004252Y-126544252D01*
X97062270Y-126457423D01*
X97077500Y-126380856D01*
X97077500Y-125959144D01*
X97072742Y-125935226D01*
X97066355Y-125903115D01*
X97062270Y-125882577D01*
X97062269Y-125882575D01*
X97062267Y-125882572D01*
X97062265Y-125882568D01*
X97004254Y-125795749D01*
X97004251Y-125795746D01*
X96917423Y-125737730D01*
X96860000Y-125726307D01*
X96837470Y-125716974D01*
X96826626Y-125709728D01*
X96801540Y-125675902D01*
X96801266Y-125675000D01*
X96800189Y-125671450D01*
X96797500Y-125653311D01*
X96797500Y-125041842D01*
X96802256Y-125017928D01*
X96811050Y-124996697D01*
X96824593Y-124976429D01*
X96906429Y-124894593D01*
X96926697Y-124881050D01*
X96947928Y-124872256D01*
X96971842Y-124867500D01*
X97091745Y-124867500D01*
X97109887Y-124870191D01*
X97126868Y-124875342D01*
X97143448Y-124883183D01*
X97183299Y-124909811D01*
X97183301Y-124909812D01*
X97221950Y-124917500D01*
X97888050Y-124917500D01*
X97926699Y-124909812D01*
X97970527Y-124880527D01*
X97999812Y-124836699D01*
X98007500Y-124798050D01*
X98007500Y-124581950D01*
X97999812Y-124543301D01*
X97999811Y-124543298D01*
X97985847Y-124522401D01*
X97983294Y-124518581D01*
X97973962Y-124471666D01*
X98000537Y-124431892D01*
X98035144Y-124421358D01*
X98245241Y-124420968D01*
X98280079Y-124431500D01*
X98355627Y-124481980D01*
X98433652Y-124497500D01*
X98826348Y-124497500D01*
X98904373Y-124481980D01*
X98982061Y-124430070D01*
X99016664Y-124419537D01*
X100115328Y-124417499D01*
X100620826Y-124417499D01*
X100622907Y-124417195D01*
X100631805Y-124416540D01*
X101496483Y-124414935D01*
X101524041Y-124421284D01*
X101555796Y-124436809D01*
X101629173Y-124447500D01*
X102650826Y-124447499D01*
X102724204Y-124436809D01*
X102783510Y-124407814D01*
X102795587Y-124403749D01*
X102795543Y-124403602D01*
X102798437Y-124402731D01*
X102798442Y-124402731D01*
X102842080Y-124384861D01*
X102866354Y-124371826D01*
X102899083Y-124332024D01*
X102913771Y-124314164D01*
X102913771Y-124314163D01*
X102913774Y-124314160D01*
X102915754Y-124309509D01*
X102924144Y-124297090D01*
X102923466Y-124296606D01*
X102926472Y-124292395D01*
X102926472Y-124292393D01*
X102926476Y-124292390D01*
X102981809Y-124179204D01*
X102992500Y-124105827D01*
X102992499Y-123534174D01*
X102981809Y-123460796D01*
X102959018Y-123414177D01*
X102953141Y-123394395D01*
X102952849Y-123392031D01*
X102952840Y-123391344D01*
X102951964Y-123384868D01*
X102951922Y-123384528D01*
X102951961Y-123384386D01*
X102951453Y-123376256D01*
X102951950Y-123326178D01*
X102951946Y-123323210D01*
X102951937Y-123322490D01*
X102951604Y-123314622D01*
X102951484Y-123312961D01*
X102951077Y-123307299D01*
X102951076Y-123307295D01*
X102933677Y-123250586D01*
X102928808Y-123242149D01*
X102927461Y-123239689D01*
X102926248Y-123237350D01*
X102922897Y-123229297D01*
X102910426Y-123206853D01*
X102910021Y-123206071D01*
X102909962Y-123205389D01*
X102905033Y-123193099D01*
X102597316Y-122015747D01*
X102519531Y-121718134D01*
X102517500Y-121702330D01*
X102517500Y-121157441D01*
X102512554Y-121132579D01*
X102510102Y-121120252D01*
X102505651Y-121113590D01*
X102504040Y-121111179D01*
X102481924Y-121078079D01*
X102481922Y-121078078D01*
X102481922Y-121078077D01*
X102439748Y-121049898D01*
X102439747Y-121049897D01*
X102434756Y-121048905D01*
X102433710Y-121048697D01*
X102402558Y-121042500D01*
X102402557Y-121042500D01*
X101977440Y-121042500D01*
X101961118Y-121045746D01*
X101961119Y-121045747D01*
X101946287Y-121048697D01*
X101943206Y-121049000D01*
X101940249Y-121049897D01*
X101898077Y-121078076D01*
X101898076Y-121078077D01*
X101869897Y-121120249D01*
X101869000Y-121123207D01*
X101868697Y-121126287D01*
X101862500Y-121157440D01*
X101862500Y-121681031D01*
X101858975Y-121701722D01*
X101772401Y-121948458D01*
X101366770Y-123104505D01*
X101334864Y-123140146D01*
X101308159Y-123146311D01*
X99471629Y-123157020D01*
X99401463Y-123157430D01*
X99388368Y-123158777D01*
X99376014Y-123160049D01*
X99376000Y-123160051D01*
X99352466Y-123164804D01*
X99327993Y-123172266D01*
X97431350Y-123957744D01*
X97407436Y-123962500D01*
X97219533Y-123962500D01*
X97195613Y-123957741D01*
X97187067Y-123954201D01*
X97153244Y-123920375D01*
X97151177Y-123878325D01*
X97151435Y-123877473D01*
X97152443Y-123874149D01*
X97160279Y-123857576D01*
X97171326Y-123841043D01*
X97173284Y-123838659D01*
X97174738Y-123835939D01*
X97174738Y-123835937D01*
X97174739Y-123835937D01*
X97182500Y-123796921D01*
X97182499Y-123233080D01*
X97174739Y-123194063D01*
X97155042Y-123164585D01*
X97153803Y-123162654D01*
X97142306Y-123143988D01*
X97142884Y-123143411D01*
X97130892Y-123125457D01*
X97130285Y-123124472D01*
X97129545Y-123119872D01*
X97121000Y-123091694D01*
X97121000Y-122962028D01*
X97125757Y-122938112D01*
X97130077Y-122927682D01*
X97161107Y-122895096D01*
X97170822Y-122890504D01*
X97185329Y-122885713D01*
X97254373Y-122871980D01*
X97342857Y-122812857D01*
X97401980Y-122724373D01*
X97417500Y-122646348D01*
X97417500Y-122253652D01*
X97401980Y-122175627D01*
X97342857Y-122087143D01*
X97328936Y-122077841D01*
X99091800Y-122077841D01*
X99091800Y-122080464D01*
X99091800Y-122712557D01*
X99094151Y-122724375D01*
X99097997Y-122743709D01*
X99098300Y-122746791D01*
X99099197Y-122749748D01*
X99127374Y-122791918D01*
X99127375Y-122791919D01*
X99127377Y-122791921D01*
X99155557Y-122810749D01*
X99155556Y-122810750D01*
X99155560Y-122810751D01*
X99169552Y-122820101D01*
X99206742Y-122827499D01*
X99206743Y-122827499D01*
X100273257Y-122827499D01*
X100273258Y-122827499D01*
X100310448Y-122820101D01*
X100352622Y-122791921D01*
X100380802Y-122749747D01*
X100388200Y-122712557D01*
X100388200Y-122077841D01*
X100380802Y-122040651D01*
X100380801Y-122040649D01*
X100372361Y-122028018D01*
X100352624Y-121998478D01*
X100352622Y-121998477D01*
X100352622Y-121998476D01*
X100310448Y-121970297D01*
X100310447Y-121970296D01*
X100285408Y-121965316D01*
X100273258Y-121962899D01*
X99206742Y-121962899D01*
X99194592Y-121965316D01*
X99175587Y-121969096D01*
X99172506Y-121969399D01*
X99169549Y-121970296D01*
X99127377Y-121998475D01*
X99127376Y-121998476D01*
X99099197Y-122040648D01*
X99098300Y-122043606D01*
X99098112Y-122045515D01*
X99098170Y-122045785D01*
X99098088Y-122046226D01*
X99091800Y-122077841D01*
X97328936Y-122077841D01*
X97273277Y-122040651D01*
X97273276Y-122040650D01*
X97254382Y-122028025D01*
X97254383Y-122028025D01*
X97254369Y-122028018D01*
X97176348Y-122012500D01*
X96843652Y-122012500D01*
X96843649Y-122012500D01*
X96765630Y-122028018D01*
X96765629Y-122028018D01*
X96765621Y-122028022D01*
X96677143Y-122087143D01*
X96618022Y-122175621D01*
X96618018Y-122175629D01*
X96602500Y-122253650D01*
X96602500Y-122646348D01*
X96618018Y-122724369D01*
X96618021Y-122724375D01*
X96677140Y-122812854D01*
X96677141Y-122812854D01*
X96677143Y-122812857D01*
X96699057Y-122827499D01*
X96699914Y-122828071D01*
X96700916Y-122828742D01*
X96700930Y-122828763D01*
X96718127Y-122845962D01*
X96728465Y-122861432D01*
X96739000Y-122896158D01*
X96739000Y-123083148D01*
X96734243Y-123107065D01*
X96731339Y-123114076D01*
X96729589Y-123113351D01*
X96719201Y-123127286D01*
X96704997Y-123146376D01*
X96704965Y-123146380D01*
X96704946Y-123146407D01*
X96657669Y-123153323D01*
X96656491Y-123153026D01*
X96637047Y-123144389D01*
X96635583Y-123143411D01*
X96600937Y-123120261D01*
X96600936Y-123120260D01*
X96600934Y-123120259D01*
X96599135Y-123119901D01*
X96577550Y-123111184D01*
X96572733Y-123108089D01*
X96571971Y-123107152D01*
X96567832Y-123104939D01*
X96565712Y-123103577D01*
X96564756Y-123102201D01*
X96555305Y-123095191D01*
X95688193Y-122228079D01*
X95688192Y-122228078D01*
X95617991Y-122199000D01*
X95617990Y-122199000D01*
X95605173Y-122199000D01*
X95581254Y-122194241D01*
X95569204Y-122189250D01*
X95538008Y-122160976D01*
X95536150Y-122157500D01*
X95535813Y-122156869D01*
X95529634Y-122139600D01*
X95523645Y-122109493D01*
X95522270Y-122102577D01*
X95522269Y-122102575D01*
X95464253Y-122015748D01*
X95399109Y-121972220D01*
X95387497Y-121962196D01*
X95383213Y-121957463D01*
X95382240Y-121954738D01*
X95381872Y-121954985D01*
X95380070Y-121952289D01*
X95380917Y-121951722D01*
X95374479Y-121943041D01*
X95373781Y-121943415D01*
X95373372Y-121942650D01*
X95373246Y-121941379D01*
X95371808Y-121939440D01*
X95371156Y-121937866D01*
X95372831Y-121937171D01*
X95371635Y-121925039D01*
X95367127Y-121912413D01*
X95369828Y-121906711D01*
X95368678Y-121895045D01*
X95384479Y-121875787D01*
X95387608Y-121869184D01*
X95390846Y-121868027D01*
X95399019Y-121858066D01*
X95402411Y-121856254D01*
X95402410Y-121856253D01*
X95415891Y-121849049D01*
X95419868Y-121843954D01*
X95494252Y-121794252D01*
X95552270Y-121707423D01*
X95567500Y-121630856D01*
X95567500Y-121209144D01*
X95552270Y-121132577D01*
X95552269Y-121132575D01*
X95494252Y-121045747D01*
X95407737Y-120987939D01*
X95407426Y-120987731D01*
X95407420Y-120987728D01*
X95407419Y-120987728D01*
X95330858Y-120972500D01*
X95330856Y-120972500D01*
X95009144Y-120972500D01*
X95009141Y-120972500D01*
X94932579Y-120987728D01*
X94932571Y-120987732D01*
X94845747Y-121045747D01*
X94787731Y-121132572D01*
X94787728Y-121132578D01*
X94787728Y-121132579D01*
X94772500Y-121209140D01*
X94772500Y-121630858D01*
X94787728Y-121707419D01*
X94787728Y-121707420D01*
X94787733Y-121707430D01*
X94845744Y-121794249D01*
X94845747Y-121794252D01*
X94911523Y-121838202D01*
X94928762Y-121855439D01*
X94932505Y-121861041D01*
X94941840Y-121907955D01*
X94915272Y-121947727D01*
X94915267Y-121947729D01*
X94915267Y-121947731D01*
X94915265Y-121947731D01*
X94890352Y-121964384D01*
X94888129Y-121967381D01*
X94815748Y-122015745D01*
X94757731Y-122102572D01*
X94757728Y-122102578D01*
X94757728Y-122102579D01*
X94742500Y-122179140D01*
X94742500Y-122600858D01*
X94757728Y-122677419D01*
X94757728Y-122677420D01*
X94757731Y-122677426D01*
X94769983Y-122695762D01*
X94815747Y-122764252D01*
X94902575Y-122822269D01*
X94902577Y-122822270D01*
X94979144Y-122837500D01*
X95300856Y-122837500D01*
X95377423Y-122822270D01*
X95464252Y-122764252D01*
X95503108Y-122706098D01*
X95520347Y-122688858D01*
X95528262Y-122683569D01*
X95530568Y-122683111D01*
X95575173Y-122674236D01*
X95580224Y-122675240D01*
X95612230Y-122692346D01*
X96150403Y-123230519D01*
X96163950Y-123250793D01*
X96172742Y-123272018D01*
X96177500Y-123295935D01*
X96177500Y-123796918D01*
X96185114Y-123835202D01*
X96185261Y-123835937D01*
X96197959Y-123854941D01*
X96207291Y-123877473D01*
X96209095Y-123886545D01*
X96199760Y-123933461D01*
X96165942Y-123958542D01*
X96161773Y-123959807D01*
X96143626Y-123962500D01*
X95471948Y-123962500D01*
X95433303Y-123970186D01*
X95433299Y-123970188D01*
X95389472Y-123999472D01*
X95360188Y-124043299D01*
X95360186Y-124043303D01*
X95352500Y-124081947D01*
X95352500Y-124240234D01*
X95334194Y-124284428D01*
X95290000Y-124302734D01*
X95280266Y-124301971D01*
X95261530Y-124299016D01*
X95261512Y-124299014D01*
X95261511Y-124299014D01*
X95261504Y-124299013D01*
X95261490Y-124299012D01*
X95242365Y-124297404D01*
X93729294Y-124280307D01*
X93685309Y-124261503D01*
X93667500Y-124217811D01*
X93667500Y-123217442D01*
X93665102Y-123205389D01*
X93660102Y-123180252D01*
X93655384Y-123173191D01*
X93631922Y-123138077D01*
X93589748Y-123109898D01*
X93589745Y-123109896D01*
X93589640Y-123109876D01*
X93589640Y-123109871D01*
X93589594Y-123109867D01*
X93552559Y-123102500D01*
X93552558Y-123102500D01*
X91027442Y-123102500D01*
X91027440Y-123102500D01*
X91008846Y-123106198D01*
X91008847Y-123106199D01*
X90996287Y-123108697D01*
X90993206Y-123109000D01*
X90990249Y-123109897D01*
X90948077Y-123138076D01*
X90948076Y-123138077D01*
X90919897Y-123180249D01*
X90919000Y-123183207D01*
X90918697Y-123186287D01*
X90912500Y-123217440D01*
X90912500Y-125242558D01*
X90918697Y-125273711D01*
X90919000Y-125276791D01*
X90919897Y-125279749D01*
X90948074Y-125321919D01*
X90948075Y-125321919D01*
X90948077Y-125321922D01*
X90970190Y-125336697D01*
X90990252Y-125350102D01*
X91027442Y-125357500D01*
X91027443Y-125357500D01*
X93552557Y-125357500D01*
X93552558Y-125357500D01*
X93589748Y-125350102D01*
X93631922Y-125321922D01*
X93660102Y-125279748D01*
X93667500Y-125242558D01*
X93667500Y-125113516D01*
X93685806Y-125069322D01*
X93729640Y-125051017D01*
X95212010Y-125042547D01*
X95230366Y-125041163D01*
X95247509Y-125038664D01*
X95247513Y-125038663D01*
X95248344Y-125038542D01*
X95294717Y-125050280D01*
X95319207Y-125091371D01*
X95317053Y-125118911D01*
X95314635Y-125126700D01*
X95314628Y-125126728D01*
X95309721Y-125150594D01*
X95309720Y-125150601D01*
X95307009Y-125176429D01*
X95307009Y-125176430D01*
X95302869Y-125826388D01*
X95292338Y-125860712D01*
X95277730Y-125882574D01*
X95277728Y-125882578D01*
X95277728Y-125882579D01*
X95262500Y-125959140D01*
X95262500Y-126380858D01*
X95277728Y-126457419D01*
X95277728Y-126457420D01*
X95277732Y-126457427D01*
X95277735Y-126457432D01*
X95287995Y-126472788D01*
X95298527Y-126507908D01*
X95288739Y-128044956D01*
X95270152Y-128089033D01*
X95226098Y-128107058D01*
X93562518Y-128103285D01*
X93555628Y-128102601D01*
X93555609Y-128102800D01*
X93552561Y-128102500D01*
X93552558Y-128102500D01*
X93215536Y-128102500D01*
X91018360Y-128097518D01*
X91018357Y-128097518D01*
X91018336Y-128097518D01*
X91012891Y-128097623D01*
X91012664Y-128097628D01*
X91012477Y-128097635D01*
X91007312Y-128097845D01*
X91001700Y-128098193D01*
X90996316Y-128098644D01*
X90990659Y-128099239D01*
X90985384Y-128099910D01*
X90979694Y-128100758D01*
X87719652Y-128658784D01*
X87719651Y-128658784D01*
X87699675Y-128663828D01*
X87699647Y-128663836D01*
X87683669Y-128669224D01*
X87663701Y-128672500D01*
X86937440Y-128672500D01*
X86918846Y-128676198D01*
X86918847Y-128676199D01*
X86906287Y-128678697D01*
X86903206Y-128679000D01*
X86900249Y-128679897D01*
X86858077Y-128708076D01*
X86858076Y-128708077D01*
X86829897Y-128750249D01*
X86829000Y-128753207D01*
X86828812Y-128755115D01*
X86828870Y-128755385D01*
X86828788Y-128755826D01*
X86823407Y-128782882D01*
X86822500Y-128787442D01*
X86336901Y-128787442D01*
X86337500Y-128782889D01*
X86337500Y-128517111D01*
X86302809Y-128253606D01*
X86302808Y-128253601D01*
X86302808Y-128253600D01*
X86296631Y-128230547D01*
X86234537Y-127998812D01*
X86234303Y-127997812D01*
X86234098Y-127997095D01*
X86234026Y-127996904D01*
X86234025Y-127996899D01*
X86234022Y-127996893D01*
X86234020Y-127996883D01*
X86233992Y-127996817D01*
X86233674Y-127995976D01*
X86233667Y-127995959D01*
X86233587Y-127995749D01*
X86233184Y-127994865D01*
X86132313Y-127751341D01*
X86132307Y-127751329D01*
X86025011Y-127565486D01*
X85999422Y-127521165D01*
X85837626Y-127310308D01*
X85837613Y-127310295D01*
X85649700Y-127122381D01*
X85649667Y-127122352D01*
X85649453Y-127122190D01*
X85438829Y-126960574D01*
X85208667Y-126827690D01*
X85208656Y-126827685D01*
X85089163Y-126778189D01*
X85089162Y-126778189D01*
X84963114Y-126725978D01*
X84963105Y-126725974D01*
X84963095Y-126725971D01*
X84706401Y-126657191D01*
X84442897Y-126622500D01*
X84442893Y-126622500D01*
X84442889Y-126622500D01*
X84177111Y-126622500D01*
X84177106Y-126622500D01*
X84177101Y-126622500D01*
X83917666Y-126656656D01*
X83917659Y-126656656D01*
X83913602Y-126657191D01*
X83913601Y-126657191D01*
X83913600Y-126657191D01*
X83913594Y-126657192D01*
X83656923Y-126725966D01*
X83656901Y-126725973D01*
X83654333Y-126726829D01*
X83652230Y-126727906D01*
X83411342Y-126827685D01*
X83411331Y-126827690D01*
X83181169Y-126960574D01*
X82970313Y-127122368D01*
X82970311Y-127122370D01*
X82970295Y-127122385D01*
X82782385Y-127310295D01*
X82782370Y-127310311D01*
X82782368Y-127310313D01*
X82620574Y-127521169D01*
X82487690Y-127751331D01*
X82487688Y-127751335D01*
X82385973Y-127996900D01*
X82385972Y-127996904D01*
X82317192Y-128253593D01*
X82316657Y-128257660D01*
X82316656Y-128257662D01*
X82282500Y-128517101D01*
X82060500Y-128517101D01*
X82060500Y-125869140D01*
X82572500Y-125869140D01*
X82572500Y-126190858D01*
X82587728Y-126267419D01*
X82587728Y-126267420D01*
X82587730Y-126267423D01*
X82587730Y-126267424D01*
X82645747Y-126354252D01*
X82732575Y-126412269D01*
X82732577Y-126412270D01*
X82809144Y-126427500D01*
X83230856Y-126427500D01*
X83307423Y-126412270D01*
X83394252Y-126354252D01*
X83452270Y-126267423D01*
X83467500Y-126190856D01*
X83467500Y-125906640D01*
X83712500Y-125906640D01*
X83712500Y-126228358D01*
X83727728Y-126304919D01*
X83727728Y-126304920D01*
X83727730Y-126304923D01*
X83727730Y-126304924D01*
X83785747Y-126391752D01*
X83872575Y-126449769D01*
X83872577Y-126449770D01*
X83949144Y-126465000D01*
X84370856Y-126465000D01*
X84447423Y-126449770D01*
X84534252Y-126391752D01*
X84592270Y-126304923D01*
X84607500Y-126228356D01*
X84607500Y-125906644D01*
X84592270Y-125830077D01*
X84583455Y-125816885D01*
X84569332Y-125795748D01*
X84534252Y-125743247D01*
X84534249Y-125743244D01*
X84447430Y-125685233D01*
X84447420Y-125685228D01*
X84370858Y-125670000D01*
X84370856Y-125670000D01*
X83949144Y-125670000D01*
X83949141Y-125670000D01*
X83872579Y-125685228D01*
X83872571Y-125685232D01*
X83785747Y-125743247D01*
X83727731Y-125830072D01*
X83727728Y-125830078D01*
X83727728Y-125830079D01*
X83712500Y-125906640D01*
X83467500Y-125906640D01*
X83467500Y-125869144D01*
X83452270Y-125792577D01*
X83432903Y-125763592D01*
X83394252Y-125705747D01*
X83394249Y-125705744D01*
X83307430Y-125647733D01*
X83307420Y-125647728D01*
X83230858Y-125632500D01*
X83230856Y-125632500D01*
X82809144Y-125632500D01*
X82809141Y-125632500D01*
X82732579Y-125647728D01*
X82732571Y-125647732D01*
X82645747Y-125705747D01*
X82587731Y-125792572D01*
X82587728Y-125792578D01*
X82587728Y-125792579D01*
X82572500Y-125869140D01*
X82060500Y-125869140D01*
X82060500Y-123945408D01*
X82572500Y-123945408D01*
X82572500Y-124294590D01*
X82588453Y-124374796D01*
X82588453Y-124374797D01*
X82588458Y-124374807D01*
X82649232Y-124465761D01*
X82649235Y-124465764D01*
X82699681Y-124499471D01*
X82721494Y-124514046D01*
X82723994Y-124515716D01*
X82741238Y-124532960D01*
X82746524Y-124540871D01*
X82755856Y-124587787D01*
X82755855Y-124587791D01*
X82755311Y-124590525D01*
X82728737Y-124630295D01*
X82716748Y-124638306D01*
X82645748Y-124685747D01*
X82645745Y-124685749D01*
X82587731Y-124772572D01*
X82587728Y-124772578D01*
X82587728Y-124772579D01*
X82572500Y-124849140D01*
X82572500Y-125170858D01*
X82587728Y-125247419D01*
X82587728Y-125247420D01*
X82587731Y-125247426D01*
X82607157Y-125276498D01*
X82645747Y-125334252D01*
X82732575Y-125392269D01*
X82732577Y-125392270D01*
X82809144Y-125407500D01*
X83230856Y-125407500D01*
X83307423Y-125392270D01*
X83394252Y-125334252D01*
X83452270Y-125247423D01*
X83467500Y-125170856D01*
X83467500Y-124849144D01*
X83452270Y-124772577D01*
X83452269Y-124772575D01*
X83452267Y-124772572D01*
X83452265Y-124772568D01*
X83394254Y-124685749D01*
X83394251Y-124685746D01*
X83316005Y-124633464D01*
X83298762Y-124616222D01*
X83298278Y-124615497D01*
X83293474Y-124608308D01*
X83284142Y-124561394D01*
X83284144Y-124561384D01*
X83284688Y-124558651D01*
X83311261Y-124518885D01*
X83390764Y-124465764D01*
X83451545Y-124374800D01*
X83467500Y-124294588D01*
X83467500Y-123945412D01*
X83461532Y-123915408D01*
X83702500Y-123915408D01*
X83702500Y-124264590D01*
X83718453Y-124344796D01*
X83718453Y-124344797D01*
X83718458Y-124344807D01*
X83779232Y-124435761D01*
X83779235Y-124435764D01*
X83848399Y-124481978D01*
X83870200Y-124496545D01*
X83871757Y-124496854D01*
X83877881Y-124500759D01*
X83878028Y-124500969D01*
X83878996Y-124501486D01*
X83887351Y-124507069D01*
X83887366Y-124507075D01*
X83887939Y-124507382D01*
X83888082Y-124507557D01*
X83889904Y-124508774D01*
X83889534Y-124509326D01*
X83918287Y-124544354D01*
X83919806Y-124549359D01*
X83922500Y-124567510D01*
X83922500Y-124591575D01*
X83917741Y-124615495D01*
X83915651Y-124620540D01*
X83912750Y-124627544D01*
X83884473Y-124658741D01*
X83863322Y-124670046D01*
X83861097Y-124672898D01*
X83785748Y-124723245D01*
X83727731Y-124810072D01*
X83727728Y-124810078D01*
X83727728Y-124810079D01*
X83712500Y-124886640D01*
X83712500Y-125208358D01*
X83727728Y-125284919D01*
X83727728Y-125284920D01*
X83727730Y-125284923D01*
X83727730Y-125284924D01*
X83785747Y-125371752D01*
X83872575Y-125429769D01*
X83872577Y-125429770D01*
X83949144Y-125445000D01*
X84370856Y-125445000D01*
X84447423Y-125429770D01*
X84534252Y-125371752D01*
X84592270Y-125284923D01*
X84607500Y-125208356D01*
X84607500Y-124886644D01*
X84592270Y-124810077D01*
X84584234Y-124798051D01*
X84584233Y-124798050D01*
X84584233Y-124798049D01*
X84584231Y-124798047D01*
X84576605Y-124786633D01*
X84567214Y-124772579D01*
X84554916Y-124754173D01*
X85367500Y-124754173D01*
X85367500Y-125325825D01*
X85367500Y-125325830D01*
X85367501Y-125325834D01*
X85378188Y-125399193D01*
X85378191Y-125399205D01*
X85433522Y-125512388D01*
X85433524Y-125512390D01*
X85522610Y-125601476D01*
X85635796Y-125656809D01*
X85709173Y-125667500D01*
X85845385Y-125667499D01*
X85889579Y-125685805D01*
X85901834Y-125703172D01*
X86255333Y-126446993D01*
X86255344Y-126447011D01*
X86277637Y-126479985D01*
X86277640Y-126479989D01*
X86277642Y-126479991D01*
X86300712Y-126504987D01*
X86300712Y-126504986D01*
X86301009Y-126505308D01*
X86301009Y-126505309D01*
X86301012Y-126505312D01*
X86302577Y-126507008D01*
X86302586Y-126507018D01*
X86304370Y-126508952D01*
X86304390Y-126508972D01*
X86315727Y-126521255D01*
X86318039Y-126522268D01*
X86350220Y-126554449D01*
X86360153Y-126567394D01*
X86377596Y-126597608D01*
X86383839Y-126612679D01*
X86391734Y-126642141D01*
X86392870Y-126646378D01*
X86395000Y-126662556D01*
X86395000Y-126696894D01*
X86398247Y-126726049D01*
X86398248Y-126726057D01*
X86404296Y-126752870D01*
X86413878Y-126780596D01*
X86813766Y-127622030D01*
X86813775Y-127622046D01*
X86813778Y-127622053D01*
X86824367Y-127640392D01*
X86829524Y-127647872D01*
X86829898Y-127649748D01*
X86829898Y-127649749D01*
X86858077Y-127691922D01*
X86886257Y-127710750D01*
X86900252Y-127720102D01*
X86937442Y-127727500D01*
X86937443Y-127727500D01*
X86952623Y-127727500D01*
X86966146Y-127728980D01*
X86985662Y-127733306D01*
X88263053Y-127761076D01*
X88264661Y-127761101D01*
X88266223Y-127761116D01*
X88318600Y-127750870D01*
X88362734Y-127732420D01*
X88387551Y-127718764D01*
X88434208Y-127660479D01*
X88452370Y-127616225D01*
X88462290Y-127565486D01*
X88458303Y-126342005D01*
X90997500Y-126342005D01*
X90997500Y-126345845D01*
X90997500Y-126447999D01*
X91020487Y-126533781D01*
X91024929Y-126550356D01*
X91024929Y-126550358D01*
X91024930Y-126550359D01*
X91031088Y-126561026D01*
X91031089Y-126561027D01*
X91066580Y-126622500D01*
X91077921Y-126642142D01*
X91077921Y-126642143D01*
X91077932Y-126642155D01*
X91152842Y-126717065D01*
X91152849Y-126717071D01*
X91152853Y-126717075D01*
X91152857Y-126717078D01*
X91152859Y-126717080D01*
X91244641Y-126770070D01*
X91274945Y-126778190D01*
X91345210Y-126797018D01*
X91346715Y-126797470D01*
X91346917Y-126797500D01*
X91347010Y-126797500D01*
X91347012Y-126797500D01*
X91452988Y-126797500D01*
X91452990Y-126797500D01*
X91453655Y-126797322D01*
X91461388Y-126795249D01*
X91555359Y-126770070D01*
X91647141Y-126717080D01*
X91722080Y-126642141D01*
X91775070Y-126550359D01*
X91802500Y-126447990D01*
X91802500Y-126342010D01*
X91802497Y-126341999D01*
X91997500Y-126341999D01*
X91997500Y-126447999D01*
X92020487Y-126533781D01*
X92024929Y-126550356D01*
X92024929Y-126550358D01*
X92024930Y-126550359D01*
X92031088Y-126561026D01*
X92031089Y-126561027D01*
X92066580Y-126622500D01*
X92077921Y-126642142D01*
X92077921Y-126642143D01*
X92077932Y-126642155D01*
X92152842Y-126717065D01*
X92152849Y-126717071D01*
X92152853Y-126717075D01*
X92152857Y-126717078D01*
X92152859Y-126717080D01*
X92244641Y-126770070D01*
X92274945Y-126778190D01*
X92345210Y-126797018D01*
X92346715Y-126797470D01*
X92346917Y-126797500D01*
X92347010Y-126797500D01*
X92347012Y-126797500D01*
X92452988Y-126797500D01*
X92452990Y-126797500D01*
X92453655Y-126797322D01*
X92461388Y-126795249D01*
X92555359Y-126770070D01*
X92647141Y-126717080D01*
X92722080Y-126642141D01*
X92775070Y-126550359D01*
X92802500Y-126447990D01*
X92802500Y-126342010D01*
X92775070Y-126239641D01*
X92722080Y-126147859D01*
X92722078Y-126147857D01*
X92722077Y-126147856D01*
X92722075Y-126147852D01*
X92647153Y-126072930D01*
X92647148Y-126072926D01*
X92647146Y-126072924D01*
X92647142Y-126072921D01*
X92647141Y-126072920D01*
X92606996Y-126049742D01*
X92566030Y-126026090D01*
X92566024Y-126026087D01*
X92555359Y-126019930D01*
X92555358Y-126019929D01*
X92555357Y-126019929D01*
X92543450Y-126016738D01*
X92543449Y-126016738D01*
X92452999Y-125992500D01*
X92452994Y-125992500D01*
X92452990Y-125992500D01*
X92347010Y-125992500D01*
X92347005Y-125992500D01*
X92346999Y-125992500D01*
X92252592Y-126017799D01*
X92252587Y-126017799D01*
X92252588Y-126017800D01*
X92244639Y-126019929D01*
X92152857Y-126072921D01*
X92152853Y-126072924D01*
X92152844Y-126072932D01*
X92077932Y-126147844D01*
X92077924Y-126147853D01*
X92077921Y-126147857D01*
X92024929Y-126239640D01*
X92024655Y-126240664D01*
X92024654Y-126240668D01*
X91997500Y-126341999D01*
X91802497Y-126341999D01*
X91775070Y-126239641D01*
X91722080Y-126147859D01*
X91722078Y-126147857D01*
X91722077Y-126147856D01*
X91722075Y-126147852D01*
X91647153Y-126072930D01*
X91647148Y-126072926D01*
X91647146Y-126072924D01*
X91647142Y-126072921D01*
X91647141Y-126072920D01*
X91606996Y-126049742D01*
X91566030Y-126026090D01*
X91566024Y-126026087D01*
X91555359Y-126019930D01*
X91555358Y-126019929D01*
X91555357Y-126019929D01*
X91543450Y-126016738D01*
X91543449Y-126016738D01*
X91452999Y-125992500D01*
X91452994Y-125992500D01*
X91452990Y-125992500D01*
X91347010Y-125992500D01*
X91347005Y-125992500D01*
X91346999Y-125992500D01*
X91252592Y-126017799D01*
X91252587Y-126017799D01*
X91252588Y-126017800D01*
X91244639Y-126019929D01*
X91152857Y-126072921D01*
X91152853Y-126072924D01*
X91152844Y-126072932D01*
X91077932Y-126147844D01*
X91077924Y-126147853D01*
X91077921Y-126147857D01*
X91024929Y-126239640D01*
X91024724Y-126240405D01*
X91024702Y-126240488D01*
X90997500Y-126342005D01*
X88458303Y-126342005D01*
X88456831Y-125890135D01*
X88460635Y-125868464D01*
X88462492Y-125863385D01*
X88475181Y-125841410D01*
X88481755Y-125816876D01*
X92982500Y-125816876D01*
X92982500Y-125816878D01*
X92982500Y-125903121D01*
X93004818Y-125986407D01*
X93004818Y-125986409D01*
X93004819Y-125986410D01*
X93010979Y-125997080D01*
X93010981Y-125997084D01*
X93027728Y-126026090D01*
X93047935Y-126061090D01*
X93108910Y-126122065D01*
X93183590Y-126165181D01*
X93209076Y-126172010D01*
X93266878Y-126187499D01*
X93266884Y-126187500D01*
X93266885Y-126187500D01*
X93353116Y-126187500D01*
X93353117Y-126187500D01*
X93377861Y-126180869D01*
X93377860Y-126180869D01*
X93377865Y-126180868D01*
X93436410Y-126165181D01*
X93511090Y-126122065D01*
X93572065Y-126061090D01*
X93615181Y-125986410D01*
X93630868Y-125927865D01*
X93637499Y-125903121D01*
X93637500Y-125903115D01*
X93637500Y-125846878D01*
X94092500Y-125846878D01*
X94092500Y-125933121D01*
X94106779Y-125986409D01*
X94112688Y-126008458D01*
X94112688Y-126008460D01*
X94114818Y-126016409D01*
X94116852Y-126019932D01*
X94116851Y-126019932D01*
X94157932Y-126091086D01*
X94157935Y-126091090D01*
X94218910Y-126152065D01*
X94293590Y-126195181D01*
X94319076Y-126202010D01*
X94376878Y-126217499D01*
X94376884Y-126217500D01*
X94376885Y-126217500D01*
X94463116Y-126217500D01*
X94463117Y-126217500D01*
X94487861Y-126210869D01*
X94487860Y-126210869D01*
X94487865Y-126210868D01*
X94546410Y-126195181D01*
X94621090Y-126152065D01*
X94682065Y-126091090D01*
X94725181Y-126016410D01*
X94740526Y-125959143D01*
X94745684Y-125939897D01*
X94746923Y-125935267D01*
X94746928Y-125935244D01*
X94746930Y-125935243D01*
X94746931Y-125935236D01*
X94747500Y-125933116D01*
X94747500Y-125846884D01*
X94747499Y-125846878D01*
X94735639Y-125802619D01*
X94733798Y-125795747D01*
X94725182Y-125763592D01*
X94725181Y-125763590D01*
X94720995Y-125756339D01*
X94682065Y-125688910D01*
X94621090Y-125627935D01*
X94621085Y-125627932D01*
X94557087Y-125590982D01*
X94557079Y-125590978D01*
X94546410Y-125584819D01*
X94546409Y-125584818D01*
X94546408Y-125584818D01*
X94532115Y-125580988D01*
X94463122Y-125562500D01*
X94463121Y-125562500D01*
X94463116Y-125562500D01*
X94376884Y-125562500D01*
X94376878Y-125562500D01*
X94376877Y-125562500D01*
X94307882Y-125580988D01*
X94307878Y-125580989D01*
X94293592Y-125584818D01*
X94293590Y-125584818D01*
X94244254Y-125613303D01*
X94242853Y-125614111D01*
X94242833Y-125614122D01*
X94218906Y-125627936D01*
X94157939Y-125688903D01*
X94157936Y-125688909D01*
X94157935Y-125688910D01*
X94145126Y-125711095D01*
X94136910Y-125725325D01*
X94114818Y-125763588D01*
X94112783Y-125771183D01*
X94112765Y-125771250D01*
X94092500Y-125846878D01*
X93637500Y-125846878D01*
X93637500Y-125816884D01*
X93637499Y-125816878D01*
X93621753Y-125758116D01*
X93615181Y-125733590D01*
X93572065Y-125658910D01*
X93511090Y-125597935D01*
X93499047Y-125590982D01*
X93447087Y-125560982D01*
X93447079Y-125560978D01*
X93436410Y-125554819D01*
X93436409Y-125554818D01*
X93436408Y-125554818D01*
X93424500Y-125551627D01*
X93353122Y-125532500D01*
X93353121Y-125532500D01*
X93353116Y-125532500D01*
X93266884Y-125532500D01*
X93266878Y-125532500D01*
X93266877Y-125532500D01*
X93197942Y-125550972D01*
X93197939Y-125550973D01*
X93183592Y-125554818D01*
X93183590Y-125554818D01*
X93131630Y-125584818D01*
X93130268Y-125585604D01*
X93130251Y-125585613D01*
X93108906Y-125597936D01*
X93047938Y-125658904D01*
X93047935Y-125658910D01*
X93042977Y-125667498D01*
X93032407Y-125685805D01*
X93004818Y-125733588D01*
X93002699Y-125741500D01*
X93002698Y-125741502D01*
X92982500Y-125816876D01*
X88481755Y-125816876D01*
X88497500Y-125758116D01*
X88497500Y-125733969D01*
X88498375Y-125728797D01*
X88502001Y-125723016D01*
X88506454Y-125706986D01*
X88508304Y-125703914D01*
X88508305Y-125703910D01*
X88509508Y-125701913D01*
X88510832Y-125702710D01*
X88519338Y-125695379D01*
X88523796Y-125688275D01*
X88528953Y-125687093D01*
X88540319Y-125677298D01*
X88539737Y-125675892D01*
X88548516Y-125672256D01*
X88572432Y-125667499D01*
X88750826Y-125667499D01*
X88824204Y-125656809D01*
X88937390Y-125601476D01*
X89026476Y-125512390D01*
X89081809Y-125399204D01*
X89092500Y-125325827D01*
X89092499Y-124754174D01*
X89081809Y-124680796D01*
X89026476Y-124567610D01*
X88937390Y-124478524D01*
X88824204Y-124423191D01*
X88824202Y-124423190D01*
X88824201Y-124423190D01*
X88815749Y-124421958D01*
X88815747Y-124421958D01*
X88765913Y-124414698D01*
X88750827Y-124412500D01*
X88750826Y-124412500D01*
X87729174Y-124412500D01*
X87729169Y-124412500D01*
X87729164Y-124412501D01*
X87664234Y-124421960D01*
X87664226Y-124421962D01*
X87655798Y-124423190D01*
X87655797Y-124423190D01*
X87655796Y-124423191D01*
X87650427Y-124425815D01*
X87643818Y-124427661D01*
X87640625Y-124427274D01*
X87627234Y-124429963D01*
X86838482Y-124432771D01*
X86810809Y-124426420D01*
X86804517Y-124423344D01*
X86804209Y-124423191D01*
X86802195Y-124422716D01*
X86799719Y-124422537D01*
X86745913Y-124414698D01*
X86730827Y-124412500D01*
X86730826Y-124412500D01*
X85709174Y-124412500D01*
X85709169Y-124412500D01*
X85709164Y-124412501D01*
X85645913Y-124421716D01*
X85645911Y-124421716D01*
X85635798Y-124423190D01*
X85635797Y-124423190D01*
X85635796Y-124423191D01*
X85622831Y-124429528D01*
X85622819Y-124429533D01*
X85616667Y-124432541D01*
X85596306Y-124438488D01*
X85579116Y-124440449D01*
X85552537Y-124446495D01*
X85547190Y-124447829D01*
X85547185Y-124447831D01*
X85483570Y-124486896D01*
X85483566Y-124486900D01*
X85451508Y-124522401D01*
X85434879Y-124545336D01*
X85434876Y-124545342D01*
X85427361Y-124576781D01*
X85422724Y-124589699D01*
X85383446Y-124670046D01*
X85378190Y-124680798D01*
X85367500Y-124754173D01*
X84554916Y-124754173D01*
X84534252Y-124723247D01*
X84534249Y-124723244D01*
X84447425Y-124665230D01*
X84447421Y-124665228D01*
X84439994Y-124663751D01*
X84418993Y-124655407D01*
X84418217Y-124654920D01*
X84412645Y-124651197D01*
X84411563Y-124650748D01*
X84408319Y-124648715D01*
X84395630Y-124630870D01*
X84381709Y-124613904D01*
X84380191Y-124608900D01*
X84377500Y-124590757D01*
X84377500Y-124570671D01*
X84382255Y-124546758D01*
X84387249Y-124534703D01*
X84415523Y-124503507D01*
X84419296Y-124501490D01*
X84421535Y-124500292D01*
X84427089Y-124497666D01*
X84429792Y-124496546D01*
X84429800Y-124496545D01*
X84432266Y-124494896D01*
X84437517Y-124491750D01*
X84439604Y-124490634D01*
X84440645Y-124489298D01*
X84520764Y-124435764D01*
X84581545Y-124344800D01*
X84597500Y-124264588D01*
X84597500Y-123915412D01*
X84581545Y-123835200D01*
X84581544Y-123835198D01*
X84581542Y-123835195D01*
X84581540Y-123835191D01*
X84520764Y-123744234D01*
X84429807Y-123683458D01*
X84429797Y-123683453D01*
X84349590Y-123667500D01*
X84349588Y-123667500D01*
X83950412Y-123667500D01*
X83950409Y-123667500D01*
X83870202Y-123683453D01*
X83870190Y-123683459D01*
X83779234Y-123744234D01*
X83718458Y-123835191D01*
X83718453Y-123835201D01*
X83718453Y-123835202D01*
X83702500Y-123915408D01*
X83461532Y-123915408D01*
X83451545Y-123865200D01*
X83451544Y-123865198D01*
X83451542Y-123865195D01*
X83451540Y-123865191D01*
X83390764Y-123774234D01*
X83299807Y-123713458D01*
X83299797Y-123713453D01*
X83219590Y-123697500D01*
X83219588Y-123697500D01*
X82820412Y-123697500D01*
X82820409Y-123697500D01*
X82740202Y-123713453D01*
X82740190Y-123713459D01*
X82649234Y-123774234D01*
X82588458Y-123865191D01*
X82588453Y-123865201D01*
X82588453Y-123865202D01*
X82572500Y-123945408D01*
X82060500Y-123945408D01*
X82060500Y-122179140D01*
X93722500Y-122179140D01*
X93722500Y-122600858D01*
X93737728Y-122677419D01*
X93737728Y-122677420D01*
X93737731Y-122677426D01*
X93749983Y-122695762D01*
X93795747Y-122764252D01*
X93882575Y-122822269D01*
X93882577Y-122822270D01*
X93959144Y-122837500D01*
X94280856Y-122837500D01*
X94357423Y-122822270D01*
X94444252Y-122764252D01*
X94502270Y-122677423D01*
X94517500Y-122600856D01*
X94517500Y-122179144D01*
X94502270Y-122102577D01*
X94495243Y-122092060D01*
X94464142Y-122045515D01*
X94444252Y-122015747D01*
X94444249Y-122015744D01*
X94357430Y-121957733D01*
X94357420Y-121957728D01*
X94280858Y-121942500D01*
X94280856Y-121942500D01*
X93959144Y-121942500D01*
X93959141Y-121942500D01*
X93882579Y-121957728D01*
X93882571Y-121957732D01*
X93795747Y-122015747D01*
X93737731Y-122102572D01*
X93737728Y-122102578D01*
X93737728Y-122102579D01*
X93722500Y-122179140D01*
X82060500Y-122179140D01*
X82060500Y-121786878D01*
X83372500Y-121786878D01*
X83372500Y-121790642D01*
X83372500Y-121873121D01*
X83392688Y-121948458D01*
X83392689Y-121948462D01*
X83394818Y-121956409D01*
X83407627Y-121978595D01*
X83407626Y-121978595D01*
X83437932Y-122031086D01*
X83437935Y-122031090D01*
X83498910Y-122092065D01*
X83573590Y-122135181D01*
X83599076Y-122142010D01*
X83656878Y-122157499D01*
X83656884Y-122157500D01*
X83656885Y-122157500D01*
X83743116Y-122157500D01*
X83743117Y-122157500D01*
X83745453Y-122156874D01*
X83767865Y-122150868D01*
X83826410Y-122135181D01*
X83901090Y-122092065D01*
X83962065Y-122031090D01*
X84005181Y-121956410D01*
X84024347Y-121884883D01*
X84027499Y-121873121D01*
X84027500Y-121873115D01*
X84027500Y-121786885D01*
X84027500Y-121786884D01*
X84027499Y-121786878D01*
X84006208Y-121707423D01*
X84005181Y-121703590D01*
X83962065Y-121628910D01*
X83901090Y-121567935D01*
X83900335Y-121567499D01*
X83837087Y-121530982D01*
X83837079Y-121530978D01*
X83826410Y-121524819D01*
X83826409Y-121524818D01*
X83826408Y-121524818D01*
X83812048Y-121520970D01*
X83743122Y-121502500D01*
X83743121Y-121502500D01*
X83743116Y-121502500D01*
X83656884Y-121502500D01*
X83656878Y-121502500D01*
X83656877Y-121502500D01*
X83587950Y-121520970D01*
X83587947Y-121520971D01*
X83573592Y-121524818D01*
X83573590Y-121524818D01*
X83521095Y-121555126D01*
X83509172Y-121562010D01*
X83498903Y-121567939D01*
X83437939Y-121628903D01*
X83437936Y-121628909D01*
X83437935Y-121628910D01*
X83425126Y-121651095D01*
X83417004Y-121665161D01*
X83394817Y-121703589D01*
X83393464Y-121708642D01*
X83393448Y-121708703D01*
X83372500Y-121786878D01*
X82060500Y-121786878D01*
X82060500Y-121206878D01*
X86962500Y-121206878D01*
X86962500Y-121293121D01*
X86984818Y-121376407D01*
X86984818Y-121376409D01*
X86984819Y-121376410D01*
X86990979Y-121387080D01*
X86990981Y-121387084D01*
X87022164Y-121441094D01*
X87027935Y-121451090D01*
X87088910Y-121512065D01*
X87163590Y-121555181D01*
X87189076Y-121562010D01*
X87246878Y-121577499D01*
X87246884Y-121577500D01*
X87333115Y-121577500D01*
X87333116Y-121577500D01*
X87333121Y-121577499D01*
X87368797Y-121567939D01*
X87416410Y-121555181D01*
X87491090Y-121512065D01*
X87517015Y-121486138D01*
X87537291Y-121472590D01*
X87546082Y-121468949D01*
X87593916Y-121468950D01*
X87593917Y-121468950D01*
X87602709Y-121472592D01*
X87622981Y-121486136D01*
X87637935Y-121501090D01*
X87638910Y-121502065D01*
X87713590Y-121545181D01*
X87739076Y-121552010D01*
X87796878Y-121567499D01*
X87796884Y-121567500D01*
X87796885Y-121567500D01*
X87883116Y-121567500D01*
X87883117Y-121567500D01*
X87903604Y-121562010D01*
X87907865Y-121560868D01*
X87966410Y-121545181D01*
X88041090Y-121502065D01*
X88102065Y-121441090D01*
X88145181Y-121366410D01*
X88164819Y-121293121D01*
X88167499Y-121283121D01*
X88167500Y-121283115D01*
X88167500Y-121196884D01*
X88167499Y-121196878D01*
X88154000Y-121146503D01*
X88149889Y-121131162D01*
X88145182Y-121113593D01*
X88145181Y-121113592D01*
X88145181Y-121113590D01*
X88102065Y-121038910D01*
X88041090Y-120977935D01*
X88036225Y-120975126D01*
X87977087Y-120940982D01*
X87977079Y-120940978D01*
X87966410Y-120934819D01*
X87966409Y-120934818D01*
X87966408Y-120934818D01*
X87952048Y-120930970D01*
X87883122Y-120912500D01*
X87883121Y-120912500D01*
X87883116Y-120912500D01*
X87796884Y-120912500D01*
X87796878Y-120912500D01*
X87796877Y-120912500D01*
X87727950Y-120930970D01*
X87727947Y-120930971D01*
X87713592Y-120934818D01*
X87713590Y-120934818D01*
X87661095Y-120965126D01*
X87659746Y-120965905D01*
X87638908Y-120977936D01*
X87612980Y-121003862D01*
X87592706Y-121017407D01*
X87583916Y-121021048D01*
X87536081Y-121021049D01*
X87536080Y-121021048D01*
X87527290Y-121017407D01*
X87507014Y-121003859D01*
X87491094Y-120987939D01*
X87491090Y-120987935D01*
X87491085Y-120987932D01*
X87427087Y-120950982D01*
X87427079Y-120950978D01*
X87416410Y-120944819D01*
X87416409Y-120944818D01*
X87416408Y-120944818D01*
X87402048Y-120940970D01*
X87333122Y-120922500D01*
X87333121Y-120922500D01*
X87333116Y-120922500D01*
X87246884Y-120922500D01*
X87246878Y-120922500D01*
X87246877Y-120922500D01*
X87177950Y-120940970D01*
X87177947Y-120940971D01*
X87163592Y-120944818D01*
X87163590Y-120944818D01*
X87111095Y-120975126D01*
X87094106Y-120984934D01*
X87088903Y-120987939D01*
X87027947Y-121048896D01*
X87027939Y-121048905D01*
X87027936Y-121048909D01*
X87011801Y-121076853D01*
X86984818Y-121123588D01*
X86982789Y-121131162D01*
X86962500Y-121206878D01*
X82060500Y-121206878D01*
X82060500Y-119127442D01*
X88117500Y-119127442D01*
X88117500Y-119130065D01*
X88117500Y-119952558D01*
X88121565Y-119972993D01*
X88123697Y-119983710D01*
X88124000Y-119986792D01*
X88124897Y-119989749D01*
X88153074Y-120031919D01*
X88153075Y-120031920D01*
X88153077Y-120031922D01*
X88181257Y-120050750D01*
X88181256Y-120050751D01*
X88181260Y-120050752D01*
X88195252Y-120060102D01*
X88232442Y-120067500D01*
X88232443Y-120067500D01*
X89007557Y-120067500D01*
X89007558Y-120067500D01*
X89044748Y-120060102D01*
X89086922Y-120031922D01*
X89115102Y-119989748D01*
X89122500Y-119952558D01*
X89122500Y-119127442D01*
X89387500Y-119127442D01*
X89387500Y-119130065D01*
X89387500Y-119952558D01*
X89391565Y-119972993D01*
X89393697Y-119983710D01*
X89394000Y-119986792D01*
X89394897Y-119989749D01*
X89423074Y-120031919D01*
X89423075Y-120031920D01*
X89423077Y-120031922D01*
X89451257Y-120050750D01*
X89451256Y-120050751D01*
X89451260Y-120050752D01*
X89465252Y-120060102D01*
X89502442Y-120067500D01*
X89502443Y-120067500D01*
X90277557Y-120067500D01*
X90277558Y-120067500D01*
X90314748Y-120060102D01*
X90356922Y-120031922D01*
X90385102Y-119989748D01*
X90392500Y-119952558D01*
X90392500Y-119127442D01*
X90385102Y-119090252D01*
X90385101Y-119090250D01*
X90372268Y-119071044D01*
X90356924Y-119048079D01*
X90356922Y-119048078D01*
X90356922Y-119048077D01*
X90314748Y-119019898D01*
X90277558Y-119012500D01*
X90277557Y-119012500D01*
X89502440Y-119012500D01*
X89483846Y-119016198D01*
X89483847Y-119016199D01*
X89471287Y-119018697D01*
X89468206Y-119019000D01*
X89465249Y-119019897D01*
X89423077Y-119048076D01*
X89423076Y-119048077D01*
X89394897Y-119090249D01*
X89394000Y-119093207D01*
X89393812Y-119095116D01*
X89393870Y-119095386D01*
X89393788Y-119095827D01*
X89387500Y-119127442D01*
X89122500Y-119127442D01*
X89115102Y-119090252D01*
X89115101Y-119090250D01*
X89102268Y-119071044D01*
X89086924Y-119048079D01*
X89086922Y-119048078D01*
X89086922Y-119048077D01*
X89044748Y-119019898D01*
X89007558Y-119012500D01*
X89007557Y-119012500D01*
X88232440Y-119012500D01*
X88213846Y-119016198D01*
X88213847Y-119016199D01*
X88201287Y-119018697D01*
X88198206Y-119019000D01*
X88195249Y-119019897D01*
X88153077Y-119048076D01*
X88153076Y-119048077D01*
X88124897Y-119090249D01*
X88124000Y-119093207D01*
X88123812Y-119095116D01*
X88123870Y-119095386D01*
X88123788Y-119095827D01*
X88117500Y-119127442D01*
X82060500Y-119127442D01*
X82060500Y-116796878D01*
X82552500Y-116796878D01*
X82552500Y-116883121D01*
X82574818Y-116966407D01*
X82574818Y-116966409D01*
X82574819Y-116966410D01*
X82580979Y-116977080D01*
X82580981Y-116977084D01*
X82597842Y-117006288D01*
X82617935Y-117041090D01*
X82678910Y-117102065D01*
X82753590Y-117145181D01*
X82779076Y-117152010D01*
X82836878Y-117167499D01*
X82836884Y-117167500D01*
X82836885Y-117167500D01*
X82923116Y-117167500D01*
X82923117Y-117167500D01*
X82947861Y-117160869D01*
X82947860Y-117160869D01*
X82947865Y-117160868D01*
X83006410Y-117145181D01*
X83081090Y-117102065D01*
X83142065Y-117041090D01*
X83144171Y-117037442D01*
X84727500Y-117037442D01*
X84727500Y-117862558D01*
X84733697Y-117893715D01*
X84734000Y-117896792D01*
X84734897Y-117899749D01*
X84763077Y-117941922D01*
X84787335Y-117958130D01*
X84787336Y-117958131D01*
X84796354Y-117964157D01*
X84805252Y-117970102D01*
X84842442Y-117977500D01*
X84842443Y-117977500D01*
X85606007Y-117977500D01*
X85624141Y-117980189D01*
X85643578Y-117986082D01*
X85679570Y-118014642D01*
X85706021Y-118060455D01*
X85710447Y-118068121D01*
X85717935Y-118081090D01*
X85778910Y-118142065D01*
X85853590Y-118185181D01*
X85879076Y-118192010D01*
X85936878Y-118207499D01*
X85936884Y-118207500D01*
X85936885Y-118207500D01*
X86023116Y-118207500D01*
X86023117Y-118207500D01*
X86047861Y-118200869D01*
X86047860Y-118200869D01*
X86047865Y-118200868D01*
X86106410Y-118185181D01*
X86181090Y-118142065D01*
X86242065Y-118081090D01*
X86285181Y-118006410D01*
X86303057Y-117939699D01*
X86307499Y-117923121D01*
X86307500Y-117923115D01*
X86307500Y-117836883D01*
X86307499Y-117836880D01*
X86307497Y-117836872D01*
X86306456Y-117832988D01*
X86287685Y-117762935D01*
X86285181Y-117753590D01*
X86242065Y-117678910D01*
X86194894Y-117631739D01*
X86183968Y-117617007D01*
X86173801Y-117597986D01*
X86171178Y-117592441D01*
X86171000Y-117592011D01*
X86171000Y-117592008D01*
X86141922Y-117521807D01*
X86088193Y-117468078D01*
X86088192Y-117468077D01*
X86084630Y-117464515D01*
X86083795Y-117463680D01*
X86083768Y-117463654D01*
X85908194Y-117288078D01*
X85878319Y-117275704D01*
X85873092Y-117273539D01*
X85837992Y-117259000D01*
X85837991Y-117259000D01*
X85800774Y-117259000D01*
X85794270Y-117257599D01*
X85791796Y-117255889D01*
X85783509Y-117254240D01*
X85778128Y-117252011D01*
X85774717Y-117250598D01*
X85740899Y-117216776D01*
X85737258Y-117207986D01*
X85732500Y-117184068D01*
X85732500Y-117037442D01*
X85726123Y-117005386D01*
X85725102Y-117000252D01*
X85725101Y-117000250D01*
X85702490Y-116966410D01*
X85696924Y-116958079D01*
X85696922Y-116958078D01*
X85696922Y-116958077D01*
X85654748Y-116929898D01*
X85617558Y-116922500D01*
X85617557Y-116922500D01*
X84842440Y-116922500D01*
X84823846Y-116926198D01*
X84823847Y-116926199D01*
X84811287Y-116928697D01*
X84808206Y-116929000D01*
X84805249Y-116929897D01*
X84763077Y-116958076D01*
X84763076Y-116958077D01*
X84734897Y-117000249D01*
X84734000Y-117003207D01*
X84733812Y-117005116D01*
X84733870Y-117005386D01*
X84733788Y-117005827D01*
X84727500Y-117037442D01*
X83144171Y-117037442D01*
X83185181Y-116966410D01*
X83207500Y-116883116D01*
X83207500Y-116796884D01*
X83207499Y-116796878D01*
X83186258Y-116717610D01*
X83185181Y-116713590D01*
X83142065Y-116638910D01*
X83081090Y-116577935D01*
X83081085Y-116577932D01*
X83017087Y-116540982D01*
X83017079Y-116540978D01*
X83006410Y-116534819D01*
X83006409Y-116534818D01*
X83006408Y-116534818D01*
X82989100Y-116530180D01*
X82923122Y-116512500D01*
X82923121Y-116512500D01*
X82923116Y-116512500D01*
X82836884Y-116512500D01*
X82836878Y-116512500D01*
X82836877Y-116512500D01*
X82767849Y-116530997D01*
X82767846Y-116530998D01*
X82753592Y-116534818D01*
X82753590Y-116534818D01*
X82705643Y-116562501D01*
X82704215Y-116563325D01*
X82704202Y-116563332D01*
X82678904Y-116577938D01*
X82617947Y-116638896D01*
X82617939Y-116638905D01*
X82617936Y-116638909D01*
X82574818Y-116713588D01*
X82573741Y-116717610D01*
X82552500Y-116796878D01*
X82060500Y-116796878D01*
X82060500Y-115786878D01*
X82572500Y-115786878D01*
X82572500Y-115873121D01*
X82594818Y-115956407D01*
X82594818Y-115956409D01*
X82594819Y-115956410D01*
X82600979Y-115967080D01*
X82600981Y-115967084D01*
X82607809Y-115978910D01*
X82637935Y-116031090D01*
X82698910Y-116092065D01*
X82773590Y-116135181D01*
X82779946Y-116136884D01*
X82856878Y-116157499D01*
X82856884Y-116157500D01*
X82856885Y-116157500D01*
X82943116Y-116157500D01*
X82943117Y-116157500D01*
X82967861Y-116150869D01*
X82967860Y-116150869D01*
X82967865Y-116150868D01*
X83026410Y-116135181D01*
X83101090Y-116092065D01*
X83162065Y-116031090D01*
X83205181Y-115956410D01*
X83221267Y-115896377D01*
X83227499Y-115873121D01*
X83227500Y-115873115D01*
X83227500Y-115786884D01*
X83227499Y-115786878D01*
X83214660Y-115738964D01*
X83211420Y-115726876D01*
X84222500Y-115726876D01*
X84222500Y-115726878D01*
X84222500Y-115813121D01*
X84244818Y-115896407D01*
X84244818Y-115896409D01*
X84244819Y-115896410D01*
X84250979Y-115907080D01*
X84250981Y-115907084D01*
X84285622Y-115967084D01*
X84287935Y-115971090D01*
X84348910Y-116032065D01*
X84423590Y-116075181D01*
X84449076Y-116082010D01*
X84506878Y-116097499D01*
X84506884Y-116097500D01*
X84593115Y-116097500D01*
X84593116Y-116097500D01*
X84593121Y-116097499D01*
X84636818Y-116085789D01*
X84661146Y-116084195D01*
X84670585Y-116085437D01*
X84712005Y-116109349D01*
X84714580Y-116112705D01*
X84727500Y-116150757D01*
X84727500Y-116592558D01*
X84733697Y-116623711D01*
X84734000Y-116626791D01*
X84734897Y-116629749D01*
X84763074Y-116671919D01*
X84763075Y-116671920D01*
X84763077Y-116671922D01*
X84791257Y-116690750D01*
X84791256Y-116690751D01*
X84791260Y-116690752D01*
X84805252Y-116700102D01*
X84842442Y-116707500D01*
X84842443Y-116707500D01*
X85617557Y-116707500D01*
X85617558Y-116707500D01*
X85654748Y-116700102D01*
X85696922Y-116671922D01*
X85725102Y-116629748D01*
X85732500Y-116592558D01*
X85732500Y-116530180D01*
X85737258Y-116506262D01*
X85740899Y-116497472D01*
X85774694Y-116463660D01*
X85775370Y-116463379D01*
X85815491Y-116460740D01*
X85818306Y-116461494D01*
X85833372Y-116467734D01*
X85863584Y-116485178D01*
X85863585Y-116485178D01*
X85863588Y-116485180D01*
X85863589Y-116485180D01*
X85863590Y-116485181D01*
X85902619Y-116495639D01*
X85946878Y-116507499D01*
X85946884Y-116507500D01*
X85946885Y-116507500D01*
X86033116Y-116507500D01*
X86033117Y-116507500D01*
X86057861Y-116500869D01*
X86057860Y-116500869D01*
X86057865Y-116500868D01*
X86116410Y-116485181D01*
X86191090Y-116442065D01*
X86252065Y-116381090D01*
X86295181Y-116306410D01*
X86317500Y-116223116D01*
X86317500Y-116136884D01*
X86317499Y-116136878D01*
X86300966Y-116075181D01*
X86295181Y-116053590D01*
X86252065Y-115978910D01*
X86191090Y-115917935D01*
X86191085Y-115917932D01*
X86127087Y-115880982D01*
X86127079Y-115880978D01*
X86116410Y-115874819D01*
X86116409Y-115874818D01*
X86116408Y-115874818D01*
X86104500Y-115871627D01*
X86033122Y-115852500D01*
X86033121Y-115852500D01*
X86033116Y-115852500D01*
X85946884Y-115852500D01*
X85946878Y-115852500D01*
X85946876Y-115852500D01*
X85863607Y-115874813D01*
X85863596Y-115874816D01*
X85863587Y-115874819D01*
X85863582Y-115874822D01*
X85837014Y-115890161D01*
X85813924Y-115897999D01*
X85806484Y-115898978D01*
X85804492Y-115899240D01*
X85758287Y-115886862D01*
X85758276Y-115886853D01*
X85757695Y-115886407D01*
X85735381Y-115853004D01*
X85734629Y-115850197D01*
X85732500Y-115834023D01*
X85732500Y-115767442D01*
X85726835Y-115738964D01*
X85725102Y-115730252D01*
X85722848Y-115726878D01*
X85696922Y-115688077D01*
X85654748Y-115659898D01*
X85617558Y-115652500D01*
X85617557Y-115652500D01*
X84908844Y-115652500D01*
X84892090Y-115650213D01*
X84884532Y-115648110D01*
X84883090Y-115646981D01*
X84881003Y-115646117D01*
X84881137Y-115645792D01*
X84870036Y-115642024D01*
X84867293Y-115640440D01*
X84867290Y-115640438D01*
X84867286Y-115640436D01*
X84865349Y-115639318D01*
X84853396Y-115623741D01*
X84846862Y-115618627D01*
X84846368Y-115614582D01*
X84836229Y-115601368D01*
X84834634Y-115593348D01*
X84833658Y-115585934D01*
X84841491Y-115546537D01*
X84842948Y-115544012D01*
X84852873Y-115531076D01*
X84919360Y-115464590D01*
X84939631Y-115451047D01*
X84960857Y-115442255D01*
X84984771Y-115437500D01*
X85617557Y-115437500D01*
X85617558Y-115437500D01*
X85654748Y-115430102D01*
X85696922Y-115401922D01*
X85725102Y-115359748D01*
X85732500Y-115322558D01*
X85732500Y-114497442D01*
X85725102Y-114460252D01*
X85725101Y-114460250D01*
X85716580Y-114447497D01*
X85696924Y-114418079D01*
X85696922Y-114418078D01*
X85696922Y-114418077D01*
X85654748Y-114389898D01*
X85617558Y-114382500D01*
X85617557Y-114382500D01*
X84842440Y-114382500D01*
X84823846Y-114386198D01*
X84823847Y-114386199D01*
X84811287Y-114388697D01*
X84808206Y-114389000D01*
X84805249Y-114389897D01*
X84763077Y-114418076D01*
X84763076Y-114418077D01*
X84734897Y-114460249D01*
X84734000Y-114463207D01*
X84733697Y-114466287D01*
X84727500Y-114497440D01*
X84727500Y-115130227D01*
X84722742Y-115154146D01*
X84713951Y-115175368D01*
X84700403Y-115195643D01*
X84449771Y-115446274D01*
X84440307Y-115454042D01*
X84429195Y-115461469D01*
X84425546Y-115463597D01*
X84425568Y-115463633D01*
X84424059Y-115464538D01*
X84423164Y-115465064D01*
X84348904Y-115507938D01*
X84348903Y-115507939D01*
X84287947Y-115568896D01*
X84287939Y-115568905D01*
X84287936Y-115568909D01*
X84244818Y-115643588D01*
X84243002Y-115650368D01*
X84243001Y-115650371D01*
X84222500Y-115726876D01*
X83211420Y-115726876D01*
X83210736Y-115724324D01*
X83205181Y-115703590D01*
X83162065Y-115628910D01*
X83101090Y-115567935D01*
X83095842Y-115564905D01*
X83037087Y-115530982D01*
X83037079Y-115530978D01*
X83026410Y-115524819D01*
X83026409Y-115524818D01*
X83026408Y-115524818D01*
X83012048Y-115520970D01*
X82943122Y-115502500D01*
X82943121Y-115502500D01*
X82943116Y-115502500D01*
X82856884Y-115502500D01*
X82856878Y-115502500D01*
X82856877Y-115502500D01*
X82787950Y-115520970D01*
X82787947Y-115520971D01*
X82773592Y-115524818D01*
X82773590Y-115524818D01*
X82721095Y-115555126D01*
X82719746Y-115555905D01*
X82698903Y-115567939D01*
X82637939Y-115628903D01*
X82637936Y-115628909D01*
X82637935Y-115628910D01*
X82626181Y-115649268D01*
X82620044Y-115659898D01*
X82594818Y-115703589D01*
X82593637Y-115707998D01*
X82572500Y-115786878D01*
X82060500Y-115786878D01*
X82060500Y-113186878D01*
X82352500Y-113186878D01*
X82352500Y-113273121D01*
X82374818Y-113356407D01*
X82374818Y-113356409D01*
X82374819Y-113356410D01*
X82380979Y-113367080D01*
X82380981Y-113367084D01*
X82417932Y-113431085D01*
X82417935Y-113431090D01*
X82478910Y-113492065D01*
X82553590Y-113535181D01*
X82573108Y-113540411D01*
X82636878Y-113557499D01*
X82636884Y-113557500D01*
X82636885Y-113557500D01*
X82723116Y-113557500D01*
X82723117Y-113557500D01*
X82747861Y-113550869D01*
X82747860Y-113550869D01*
X82747865Y-113550868D01*
X82806410Y-113535181D01*
X82881090Y-113492065D01*
X82942065Y-113431090D01*
X82985181Y-113356410D01*
X83006947Y-113275181D01*
X83007499Y-113273121D01*
X83007500Y-113273115D01*
X83007500Y-113229130D01*
X83007500Y-113227442D01*
X84727500Y-113227442D01*
X84727500Y-114052558D01*
X84732338Y-114076878D01*
X84732339Y-114076885D01*
X84733697Y-114083708D01*
X84734000Y-114086793D01*
X84734897Y-114089749D01*
X84763074Y-114131919D01*
X84763075Y-114131920D01*
X84763077Y-114131922D01*
X84791257Y-114150750D01*
X84791256Y-114150751D01*
X84791260Y-114150752D01*
X84805252Y-114160102D01*
X84842442Y-114167500D01*
X84842443Y-114167500D01*
X85617557Y-114167500D01*
X85617558Y-114167500D01*
X85654748Y-114160102D01*
X85695800Y-114132671D01*
X85706593Y-114126903D01*
X85718922Y-114121797D01*
X85718932Y-114121793D01*
X85766762Y-114121794D01*
X85775554Y-114125436D01*
X85795829Y-114138984D01*
X85848910Y-114192065D01*
X85923590Y-114235181D01*
X85949076Y-114242010D01*
X86006878Y-114257499D01*
X86006884Y-114257500D01*
X86093115Y-114257500D01*
X86093116Y-114257500D01*
X86093121Y-114257499D01*
X86144082Y-114243843D01*
X86169134Y-114237130D01*
X86185287Y-114235002D01*
X86197736Y-114234999D01*
X86241933Y-114253294D01*
X86260115Y-114293405D01*
X86260457Y-114298615D01*
X86259067Y-114312755D01*
X86259535Y-114312817D01*
X86259000Y-114316877D01*
X86259000Y-114316878D01*
X86259000Y-114403121D01*
X86281318Y-114486407D01*
X86281318Y-114486409D01*
X86281319Y-114486410D01*
X86287479Y-114497080D01*
X86287481Y-114497084D01*
X86324432Y-114561085D01*
X86324435Y-114561090D01*
X86385410Y-114622065D01*
X86460090Y-114665181D01*
X86485576Y-114672010D01*
X86543378Y-114687499D01*
X86543384Y-114687500D01*
X86543385Y-114687500D01*
X86629616Y-114687500D01*
X86629617Y-114687500D01*
X86654361Y-114680869D01*
X86654360Y-114680869D01*
X86654365Y-114680868D01*
X86712910Y-114665181D01*
X86787590Y-114622065D01*
X86848565Y-114561090D01*
X86891681Y-114486410D01*
X86909991Y-114418077D01*
X86913999Y-114403121D01*
X86914000Y-114403115D01*
X86914000Y-114316885D01*
X86914000Y-114316884D01*
X86913999Y-114316878D01*
X86898088Y-114257500D01*
X86895116Y-114246410D01*
X86891682Y-114233593D01*
X86891681Y-114233592D01*
X86891681Y-114233590D01*
X86848565Y-114158910D01*
X86787590Y-114097935D01*
X86787585Y-114097932D01*
X86723587Y-114060982D01*
X86723579Y-114060978D01*
X86712910Y-114054819D01*
X86712909Y-114054818D01*
X86712908Y-114054818D01*
X86645269Y-114036693D01*
X86629622Y-114032500D01*
X86629621Y-114032500D01*
X86629616Y-114032500D01*
X86543384Y-114032500D01*
X86543378Y-114032500D01*
X86543372Y-114032500D01*
X86467359Y-114052869D01*
X86451182Y-114054999D01*
X86438748Y-114054999D01*
X86394554Y-114036693D01*
X86376382Y-113996587D01*
X86376186Y-113993590D01*
X86376034Y-113991271D01*
X86377271Y-113974612D01*
X86377251Y-113974609D01*
X86377288Y-113974382D01*
X86377322Y-113973935D01*
X86377492Y-113973145D01*
X86377499Y-113973121D01*
X86377500Y-113973115D01*
X86377500Y-113886884D01*
X86377499Y-113886878D01*
X86360869Y-113824818D01*
X86357334Y-113811627D01*
X86355182Y-113803593D01*
X86355181Y-113803590D01*
X86338436Y-113774587D01*
X86312065Y-113728910D01*
X86251090Y-113667935D01*
X86251085Y-113667932D01*
X86187087Y-113630982D01*
X86187079Y-113630978D01*
X86176410Y-113624819D01*
X86176409Y-113624818D01*
X86176408Y-113624818D01*
X86164500Y-113621627D01*
X86093122Y-113602500D01*
X86093121Y-113602500D01*
X86093116Y-113602500D01*
X86006884Y-113602500D01*
X86006881Y-113602500D01*
X86006864Y-113602501D01*
X86005602Y-113602659D01*
X85989717Y-113602604D01*
X85981968Y-113601584D01*
X85940541Y-113577668D01*
X85928157Y-113531479D01*
X85928346Y-113530044D01*
X85946117Y-113493996D01*
X86042020Y-113398094D01*
X86062289Y-113384550D01*
X86083520Y-113375756D01*
X86107434Y-113371000D01*
X88092566Y-113371000D01*
X88116483Y-113375757D01*
X88137706Y-113384548D01*
X88157981Y-113398096D01*
X88456865Y-113696980D01*
X88470414Y-113717258D01*
X88474055Y-113726049D01*
X88474054Y-113773885D01*
X88474042Y-113773912D01*
X88473762Y-113774587D01*
X88447286Y-113804764D01*
X88444768Y-113806218D01*
X88429691Y-113812464D01*
X88383591Y-113824817D01*
X88383587Y-113824818D01*
X88340984Y-113849416D01*
X88340892Y-113849469D01*
X88340730Y-113849564D01*
X88308910Y-113867935D01*
X88308909Y-113867936D01*
X88308905Y-113867939D01*
X88307744Y-113869099D01*
X88307740Y-113869102D01*
X88247947Y-113928896D01*
X88247939Y-113928905D01*
X88247936Y-113928909D01*
X88204818Y-114003588D01*
X88202934Y-114010622D01*
X88202933Y-114010625D01*
X88182500Y-114086876D01*
X88182500Y-114173121D01*
X88201914Y-114245572D01*
X88201915Y-114245577D01*
X88204818Y-114256407D01*
X88204818Y-114256409D01*
X88205448Y-114257500D01*
X88208050Y-114262008D01*
X88208053Y-114262014D01*
X88247932Y-114331086D01*
X88247935Y-114331090D01*
X88308910Y-114392065D01*
X88383590Y-114435181D01*
X88409076Y-114442010D01*
X88466878Y-114457499D01*
X88466884Y-114457500D01*
X88466885Y-114457500D01*
X88553116Y-114457500D01*
X88553117Y-114457500D01*
X88577861Y-114450869D01*
X88577860Y-114450869D01*
X88577865Y-114450868D01*
X88636410Y-114435181D01*
X88711090Y-114392065D01*
X88772065Y-114331090D01*
X88815181Y-114256410D01*
X88820919Y-114234995D01*
X88826446Y-114214370D01*
X88837230Y-114192500D01*
X88843023Y-114184950D01*
X88884392Y-114161039D01*
X88885122Y-114160942D01*
X88924592Y-114168779D01*
X88927113Y-114170235D01*
X88940046Y-114180161D01*
X89041807Y-114281922D01*
X89112008Y-114311000D01*
X89187992Y-114311000D01*
X89239526Y-114311000D01*
X89263443Y-114315757D01*
X89284666Y-114324548D01*
X89304941Y-114338096D01*
X89348910Y-114382065D01*
X89423590Y-114425181D01*
X89449076Y-114432010D01*
X89506878Y-114447499D01*
X89506884Y-114447500D01*
X89506885Y-114447500D01*
X89593116Y-114447500D01*
X89593117Y-114447500D01*
X89613604Y-114442010D01*
X89617865Y-114440868D01*
X89676410Y-114425181D01*
X89751090Y-114382065D01*
X89812065Y-114321090D01*
X89855181Y-114246410D01*
X89874819Y-114173121D01*
X89877499Y-114163121D01*
X89877500Y-114163115D01*
X89877500Y-114076884D01*
X89877499Y-114076878D01*
X89862204Y-114019799D01*
X89855181Y-113993590D01*
X89812065Y-113918910D01*
X89751090Y-113857935D01*
X89736591Y-113849564D01*
X89687087Y-113820982D01*
X89687079Y-113820978D01*
X89676410Y-113814819D01*
X89676409Y-113814818D01*
X89676408Y-113814818D01*
X89662048Y-113810970D01*
X89593122Y-113792500D01*
X89593121Y-113792500D01*
X89593116Y-113792500D01*
X89506884Y-113792500D01*
X89506878Y-113792500D01*
X89506877Y-113792500D01*
X89437950Y-113810970D01*
X89437947Y-113810971D01*
X89423592Y-113814818D01*
X89423590Y-113814818D01*
X89371095Y-113845126D01*
X89360433Y-113851281D01*
X89348908Y-113857936D01*
X89306462Y-113900382D01*
X89286185Y-113913930D01*
X89277397Y-113917570D01*
X89229564Y-113917570D01*
X89220773Y-113913929D01*
X89200495Y-113900380D01*
X88318194Y-113018079D01*
X88318193Y-113018078D01*
X88318188Y-113018076D01*
X88280084Y-113002293D01*
X88247992Y-112989000D01*
X88247991Y-112989000D01*
X85952008Y-112989000D01*
X85881809Y-113018076D01*
X85881807Y-113018077D01*
X85881801Y-113018082D01*
X85774882Y-113125001D01*
X85754607Y-113138549D01*
X85747327Y-113141565D01*
X85742559Y-113143540D01*
X85700496Y-113145605D01*
X85696043Y-113144254D01*
X85679465Y-113136413D01*
X85654748Y-113119898D01*
X85626365Y-113114252D01*
X85617558Y-113112500D01*
X84842442Y-113112500D01*
X84833635Y-113114252D01*
X84811287Y-113118697D01*
X84808206Y-113119000D01*
X84805249Y-113119897D01*
X84763077Y-113148076D01*
X84763076Y-113148077D01*
X84734897Y-113190249D01*
X84734001Y-113193205D01*
X84733697Y-113196286D01*
X84732860Y-113200498D01*
X84727500Y-113227442D01*
X83007500Y-113227442D01*
X83007500Y-113186884D01*
X83007499Y-113186878D01*
X82993274Y-113133792D01*
X82985181Y-113103590D01*
X82942065Y-113028910D01*
X82898096Y-112984941D01*
X82884549Y-112964667D01*
X82875756Y-112943440D01*
X82871000Y-112919525D01*
X82871000Y-112390334D01*
X82875757Y-112366418D01*
X82884547Y-112345195D01*
X82898094Y-112324919D01*
X83265571Y-111957442D01*
X84727500Y-111957442D01*
X84727500Y-112782557D01*
X84734898Y-112819748D01*
X84734898Y-112819749D01*
X84763077Y-112861922D01*
X84783144Y-112875330D01*
X84805252Y-112890102D01*
X84842442Y-112897500D01*
X84842443Y-112897500D01*
X85617557Y-112897500D01*
X85617558Y-112897500D01*
X85654748Y-112890102D01*
X85696922Y-112861922D01*
X85725102Y-112819748D01*
X85732500Y-112782558D01*
X85732500Y-112635931D01*
X85737258Y-112612013D01*
X85740899Y-112603223D01*
X85774722Y-112569399D01*
X85783513Y-112565757D01*
X85807431Y-112561000D01*
X88632566Y-112561000D01*
X88656483Y-112565757D01*
X88677706Y-112574548D01*
X88697981Y-112588096D01*
X89250403Y-113140518D01*
X89263950Y-113160792D01*
X89272742Y-113182017D01*
X89277500Y-113205934D01*
X89277500Y-113268121D01*
X89299818Y-113351407D01*
X89299818Y-113351409D01*
X89310110Y-113369235D01*
X89311595Y-113371807D01*
X89311600Y-113371818D01*
X89342933Y-113426088D01*
X89342935Y-113426090D01*
X89403910Y-113487065D01*
X89478590Y-113530181D01*
X89497250Y-113535181D01*
X89561878Y-113552499D01*
X89561884Y-113552500D01*
X89561885Y-113552500D01*
X89648116Y-113552500D01*
X89648117Y-113552500D01*
X89654215Y-113550866D01*
X89672865Y-113545868D01*
X89731410Y-113530181D01*
X89806090Y-113487065D01*
X89867065Y-113426090D01*
X89910181Y-113351410D01*
X89931160Y-113273116D01*
X89932499Y-113268121D01*
X89932500Y-113268115D01*
X89932500Y-113181884D01*
X89932499Y-113181878D01*
X89920639Y-113137619D01*
X89914377Y-113114251D01*
X89910182Y-113098594D01*
X89910181Y-113098590D01*
X89867065Y-113023910D01*
X89806090Y-112962935D01*
X89806085Y-112962932D01*
X89742087Y-112925982D01*
X89742079Y-112925978D01*
X89731410Y-112919819D01*
X89731409Y-112919818D01*
X89731408Y-112919818D01*
X89697788Y-112910809D01*
X89648122Y-112897500D01*
X89648121Y-112897500D01*
X89648116Y-112897500D01*
X89585934Y-112897500D01*
X89562017Y-112892742D01*
X89540792Y-112883950D01*
X89520518Y-112870403D01*
X88858194Y-112208079D01*
X88858193Y-112208078D01*
X88787992Y-112179000D01*
X88787991Y-112179000D01*
X88116635Y-112179000D01*
X88092713Y-112174240D01*
X88087332Y-112172011D01*
X88083921Y-112170598D01*
X88050102Y-112136775D01*
X88049822Y-112136099D01*
X88047192Y-112096017D01*
X88047944Y-112093209D01*
X88053377Y-112081203D01*
X88053074Y-112081066D01*
X88055179Y-112076413D01*
X88055181Y-112076410D01*
X88070868Y-112017865D01*
X88077499Y-111993121D01*
X88077500Y-111993115D01*
X88077500Y-111906884D01*
X88077499Y-111906878D01*
X88060248Y-111842500D01*
X88055181Y-111823590D01*
X88012065Y-111748910D01*
X87951090Y-111687935D01*
X87951085Y-111687932D01*
X87887087Y-111650982D01*
X87887079Y-111650978D01*
X87876410Y-111644819D01*
X87876409Y-111644818D01*
X87876408Y-111644818D01*
X87864500Y-111641627D01*
X87793122Y-111622500D01*
X87793121Y-111622500D01*
X87793116Y-111622500D01*
X87706884Y-111622500D01*
X87706878Y-111622500D01*
X87706877Y-111622500D01*
X87648739Y-111638079D01*
X87631545Y-111642687D01*
X87631541Y-111642688D01*
X87631536Y-111642687D01*
X87631537Y-111642689D01*
X87623588Y-111644818D01*
X87571488Y-111674899D01*
X87571095Y-111675126D01*
X87548910Y-111687935D01*
X87548909Y-111687936D01*
X87548905Y-111687939D01*
X87547795Y-111689048D01*
X87547791Y-111689051D01*
X87487947Y-111748896D01*
X87487939Y-111748905D01*
X87487936Y-111748909D01*
X87444818Y-111823588D01*
X87442689Y-111831536D01*
X87442688Y-111831539D01*
X87422500Y-111906876D01*
X87422500Y-111993122D01*
X87444813Y-112076391D01*
X87444816Y-112076402D01*
X87444819Y-112076410D01*
X87446117Y-112079296D01*
X87445448Y-112079596D01*
X87451545Y-112097575D01*
X87452787Y-112107005D01*
X87440409Y-112153211D01*
X87440399Y-112153223D01*
X87439953Y-112153804D01*
X87406570Y-112176113D01*
X87406042Y-112176254D01*
X87403757Y-112176866D01*
X87387569Y-112179000D01*
X85807431Y-112179000D01*
X85783509Y-112174240D01*
X85778128Y-112172011D01*
X85774717Y-112170598D01*
X85740899Y-112136776D01*
X85740896Y-112136770D01*
X85740896Y-112136768D01*
X85737258Y-112127986D01*
X85732500Y-112104068D01*
X85732500Y-111957442D01*
X85725102Y-111920252D01*
X85716166Y-111906878D01*
X85696922Y-111878077D01*
X85654748Y-111849898D01*
X85617558Y-111842500D01*
X85617557Y-111842500D01*
X84842440Y-111842500D01*
X84823846Y-111846198D01*
X84823847Y-111846199D01*
X84811287Y-111848697D01*
X84808206Y-111849000D01*
X84805249Y-111849897D01*
X84763077Y-111878076D01*
X84763076Y-111878077D01*
X84734897Y-111920249D01*
X84734000Y-111923207D01*
X84733812Y-111925115D01*
X84733870Y-111925385D01*
X84733788Y-111925827D01*
X84727500Y-111957442D01*
X83265571Y-111957442D01*
X83718519Y-111504493D01*
X83738790Y-111490948D01*
X83760020Y-111482155D01*
X83783934Y-111477400D01*
X83846117Y-111477400D01*
X83870861Y-111470769D01*
X83870860Y-111470769D01*
X83870865Y-111470768D01*
X83929410Y-111455081D01*
X84004090Y-111411965D01*
X84065065Y-111350990D01*
X84108181Y-111276310D01*
X84130500Y-111193016D01*
X84130500Y-111106784D01*
X84130499Y-111106778D01*
X84111131Y-111034500D01*
X84108181Y-111023490D01*
X84065065Y-110948810D01*
X84004090Y-110887835D01*
X84004085Y-110887832D01*
X83940087Y-110850882D01*
X83940079Y-110850878D01*
X83929410Y-110844719D01*
X83929409Y-110844718D01*
X83929408Y-110844718D01*
X83917500Y-110841527D01*
X83846122Y-110822400D01*
X83846121Y-110822400D01*
X83846116Y-110822400D01*
X83759884Y-110822400D01*
X83759878Y-110822400D01*
X83759877Y-110822400D01*
X83691513Y-110840719D01*
X83691510Y-110840720D01*
X83676592Y-110844718D01*
X83676590Y-110844718D01*
X83632801Y-110870000D01*
X83601910Y-110887835D01*
X83601909Y-110887836D01*
X83601905Y-110887839D01*
X83600013Y-110889730D01*
X83600009Y-110889733D01*
X83540947Y-110948796D01*
X83540939Y-110948805D01*
X83540936Y-110948809D01*
X83497818Y-111023488D01*
X83495689Y-111031436D01*
X83495688Y-111031439D01*
X83475500Y-111106776D01*
X83475500Y-111168964D01*
X83470742Y-111192883D01*
X83461951Y-111214105D01*
X83448403Y-111234380D01*
X82571807Y-112110977D01*
X82571807Y-112110978D01*
X82518079Y-112164704D01*
X82518078Y-112164705D01*
X82518076Y-112164709D01*
X82489000Y-112234908D01*
X82489000Y-112919525D01*
X82484242Y-112943442D01*
X82484242Y-112943443D01*
X82481172Y-112950856D01*
X82475452Y-112964664D01*
X82461905Y-112984939D01*
X82417936Y-113028908D01*
X82412092Y-113039030D01*
X82412091Y-113039029D01*
X82374818Y-113103587D01*
X82373048Y-113110194D01*
X82373030Y-113110263D01*
X82352500Y-113186878D01*
X82060500Y-113186878D01*
X82060500Y-109867442D01*
X86847500Y-109867442D01*
X86847500Y-109870065D01*
X86847500Y-110692558D01*
X86853697Y-110723711D01*
X86854000Y-110726791D01*
X86854897Y-110729749D01*
X86883076Y-110771921D01*
X86883077Y-110771922D01*
X86910121Y-110789992D01*
X86925252Y-110800102D01*
X86962442Y-110807500D01*
X87455926Y-110807500D01*
X87479836Y-110812255D01*
X87486058Y-110814832D01*
X87519882Y-110848654D01*
X87519885Y-110896489D01*
X87519883Y-110896492D01*
X87517309Y-110902706D01*
X87503762Y-110922981D01*
X87477939Y-110948804D01*
X87477938Y-110948806D01*
X87477936Y-110948809D01*
X87434818Y-111023488D01*
X87432689Y-111031436D01*
X87432688Y-111031439D01*
X87412500Y-111106776D01*
X87412500Y-111106777D01*
X87412500Y-111106778D01*
X87412500Y-111193021D01*
X87434818Y-111276307D01*
X87434818Y-111276309D01*
X87434819Y-111276310D01*
X87440979Y-111286980D01*
X87440981Y-111286984D01*
X87477932Y-111350985D01*
X87477935Y-111350990D01*
X87538910Y-111411965D01*
X87613590Y-111455081D01*
X87639076Y-111461910D01*
X87696878Y-111477399D01*
X87696884Y-111477400D01*
X87696885Y-111477400D01*
X87783116Y-111477400D01*
X87783117Y-111477400D01*
X87807861Y-111470769D01*
X87807860Y-111470769D01*
X87807865Y-111470768D01*
X87866410Y-111455081D01*
X87941090Y-111411965D01*
X88002065Y-111350990D01*
X88045181Y-111276310D01*
X88067500Y-111193016D01*
X88067500Y-111112581D01*
X88069630Y-111096403D01*
X88072968Y-111083952D01*
X88102092Y-111046006D01*
X88102096Y-111046004D01*
X88107530Y-111042868D01*
X88138770Y-111034500D01*
X88326066Y-111034500D01*
X88349983Y-111039257D01*
X88371206Y-111048048D01*
X88391481Y-111061596D01*
X90231903Y-112902018D01*
X90245450Y-112922292D01*
X90254242Y-112943517D01*
X90259000Y-112967434D01*
X90259000Y-113014051D01*
X90256871Y-113030226D01*
X90252757Y-113045581D01*
X90246514Y-113060654D01*
X90244818Y-113063590D01*
X90244818Y-113063591D01*
X90244816Y-113063596D01*
X90244813Y-113063607D01*
X90222500Y-113146876D01*
X90222500Y-113233121D01*
X90242688Y-113308458D01*
X90242688Y-113308459D01*
X90244819Y-113316411D01*
X90251018Y-113327149D01*
X90251019Y-113327149D01*
X90287935Y-113391090D01*
X90348910Y-113452065D01*
X90423590Y-113495181D01*
X90439785Y-113499520D01*
X90439786Y-113499521D01*
X90439787Y-113499521D01*
X90506878Y-113517499D01*
X90506884Y-113517500D01*
X90506885Y-113517500D01*
X90593116Y-113517500D01*
X90593117Y-113517500D01*
X90617861Y-113510869D01*
X90617860Y-113510869D01*
X90617865Y-113510868D01*
X90676410Y-113495181D01*
X90751090Y-113452065D01*
X90812065Y-113391090D01*
X90855181Y-113316410D01*
X90870868Y-113257865D01*
X90877499Y-113233121D01*
X90877500Y-113233115D01*
X90877500Y-113146884D01*
X90877499Y-113146878D01*
X90859716Y-113080515D01*
X90855181Y-113063590D01*
X90812065Y-112988910D01*
X90751090Y-112927935D01*
X90751085Y-112927932D01*
X90687895Y-112891449D01*
X90674920Y-112881486D01*
X90659275Y-112865819D01*
X90641000Y-112821656D01*
X90641000Y-112812010D01*
X90641000Y-112812008D01*
X90611922Y-112741807D01*
X90558193Y-112688078D01*
X88793099Y-110922984D01*
X88779553Y-110902714D01*
X88776975Y-110896490D01*
X88776975Y-110848658D01*
X88810795Y-110814834D01*
X88817025Y-110812254D01*
X88840934Y-110807500D01*
X89007559Y-110807500D01*
X89007560Y-110807499D01*
X89020839Y-110804858D01*
X89045225Y-110804857D01*
X89063478Y-110808487D01*
X89095477Y-110825592D01*
X91251903Y-112982018D01*
X91265450Y-113002292D01*
X91274242Y-113023517D01*
X91279000Y-113047434D01*
X91279000Y-118937568D01*
X91274240Y-118961492D01*
X91270598Y-118970282D01*
X91236784Y-119004097D01*
X91230757Y-119006594D01*
X91227992Y-119007739D01*
X91204069Y-119012500D01*
X90772440Y-119012500D01*
X90753846Y-119016198D01*
X90753847Y-119016199D01*
X90741287Y-119018697D01*
X90738206Y-119019000D01*
X90735249Y-119019897D01*
X90693077Y-119048076D01*
X90693076Y-119048077D01*
X90664897Y-119090249D01*
X90664000Y-119093207D01*
X90663697Y-119096288D01*
X90657500Y-119127440D01*
X90657500Y-119952558D01*
X90661565Y-119972993D01*
X90663697Y-119983710D01*
X90664000Y-119986792D01*
X90664897Y-119989749D01*
X90693074Y-120031919D01*
X90693075Y-120031920D01*
X90693077Y-120031922D01*
X90721257Y-120050750D01*
X90721256Y-120050751D01*
X90721260Y-120050752D01*
X90735252Y-120060102D01*
X90772442Y-120067500D01*
X90772443Y-120067500D01*
X91469066Y-120067500D01*
X91492976Y-120072255D01*
X91499198Y-120074832D01*
X91533022Y-120108654D01*
X91533025Y-120156489D01*
X91533023Y-120156494D01*
X91530448Y-120162710D01*
X91516900Y-120182984D01*
X91097981Y-120601903D01*
X91077707Y-120615450D01*
X91056481Y-120624242D01*
X91032566Y-120629000D01*
X89242008Y-120629000D01*
X89171809Y-120658076D01*
X89171807Y-120658077D01*
X89112335Y-120717549D01*
X89092059Y-120731096D01*
X89074841Y-120738228D01*
X89047330Y-120741800D01*
X89047330Y-120742500D01*
X88956877Y-120742500D01*
X88887950Y-120760970D01*
X88887947Y-120760971D01*
X88873592Y-120764818D01*
X88873590Y-120764818D01*
X88821095Y-120795126D01*
X88819746Y-120795905D01*
X88798903Y-120807939D01*
X88737947Y-120868896D01*
X88737939Y-120868905D01*
X88737936Y-120868909D01*
X88694818Y-120943588D01*
X88692689Y-120951536D01*
X88692688Y-120951539D01*
X88672500Y-121026876D01*
X88672500Y-121113121D01*
X88690204Y-121179191D01*
X88694818Y-121196407D01*
X88694818Y-121196409D01*
X88700866Y-121206884D01*
X88702695Y-121210052D01*
X88702699Y-121210061D01*
X88737932Y-121271085D01*
X88737935Y-121271090D01*
X88798910Y-121332065D01*
X88873590Y-121375181D01*
X88873592Y-121375181D01*
X88873593Y-121375182D01*
X88876393Y-121375932D01*
X88878177Y-121376410D01*
X88956878Y-121397499D01*
X88956884Y-121397500D01*
X88956885Y-121397500D01*
X89043116Y-121397500D01*
X89043117Y-121397500D01*
X89067861Y-121390869D01*
X89067860Y-121390869D01*
X89067865Y-121390868D01*
X89126410Y-121375181D01*
X89201090Y-121332065D01*
X89262065Y-121271090D01*
X89262065Y-121271089D01*
X89262067Y-121271088D01*
X89262067Y-121271087D01*
X89292093Y-121219078D01*
X89300908Y-121212312D01*
X89306040Y-121202453D01*
X89308175Y-121200740D01*
X89312261Y-121197605D01*
X89324265Y-121194388D01*
X89330042Y-121189956D01*
X89346041Y-121188555D01*
X89358467Y-121185226D01*
X89399892Y-121209146D01*
X89412806Y-121247191D01*
X89412806Y-121250683D01*
X89412559Y-121256093D01*
X89412569Y-121256123D01*
X89412557Y-121256145D01*
X89412548Y-121256353D01*
X89412501Y-121256878D01*
X89412500Y-121256884D01*
X89412500Y-121343121D01*
X89434818Y-121426407D01*
X89434818Y-121426409D01*
X89434819Y-121426410D01*
X89440979Y-121437080D01*
X89440981Y-121437084D01*
X89469303Y-121486139D01*
X89477935Y-121501090D01*
X89538910Y-121562065D01*
X89613590Y-121605181D01*
X89639076Y-121612010D01*
X89696878Y-121627499D01*
X89696884Y-121627500D01*
X89696885Y-121627500D01*
X89783116Y-121627500D01*
X89783117Y-121627500D01*
X89807861Y-121620869D01*
X89807860Y-121620869D01*
X89807865Y-121620868D01*
X89866410Y-121605181D01*
X89941090Y-121562065D01*
X90002065Y-121501090D01*
X90045181Y-121426410D01*
X90067500Y-121343116D01*
X90067500Y-121256884D01*
X90067499Y-121256878D01*
X90051421Y-121196878D01*
X90045181Y-121173590D01*
X90010427Y-121113394D01*
X90009370Y-121111179D01*
X90009221Y-121108357D01*
X90003812Y-121092417D01*
X90002571Y-121082984D01*
X90007016Y-121066393D01*
X90006860Y-121063410D01*
X90008221Y-121061897D01*
X90014949Y-121036789D01*
X90015397Y-121036205D01*
X90048825Y-121013877D01*
X90051635Y-121013125D01*
X90067792Y-121011000D01*
X91187990Y-121011000D01*
X91187992Y-121011000D01*
X91258193Y-120981922D01*
X91546132Y-120693983D01*
X97234500Y-120693983D01*
X97234500Y-120806016D01*
X97234501Y-120806024D01*
X97251350Y-120868905D01*
X97263496Y-120914235D01*
X97263499Y-120914242D01*
X97273537Y-120931627D01*
X97285031Y-120951536D01*
X97291505Y-120962748D01*
X97291506Y-120962751D01*
X97319334Y-121010950D01*
X97319516Y-121011264D01*
X97319516Y-121011265D01*
X97319527Y-121011277D01*
X97398720Y-121090470D01*
X97398727Y-121090476D01*
X97398731Y-121090480D01*
X97398735Y-121090483D01*
X97398737Y-121090485D01*
X97495763Y-121146503D01*
X97495766Y-121146504D01*
X97536588Y-121157442D01*
X97566302Y-121165403D01*
X97603977Y-121175499D01*
X97603980Y-121175499D01*
X97603982Y-121175500D01*
X97603983Y-121175500D01*
X97716017Y-121175500D01*
X97716018Y-121175500D01*
X97824237Y-121146503D01*
X97921263Y-121090485D01*
X98000485Y-121011263D01*
X98056503Y-120914237D01*
X98085500Y-120806018D01*
X98085500Y-120693982D01*
X98056503Y-120585763D01*
X98000485Y-120488737D01*
X98000483Y-120488735D01*
X98000482Y-120488734D01*
X98000480Y-120488730D01*
X97921275Y-120409525D01*
X97921262Y-120409514D01*
X97872751Y-120381506D01*
X97872748Y-120381505D01*
X97824242Y-120353499D01*
X97824235Y-120353495D01*
X97824208Y-120353487D01*
X97716034Y-120324503D01*
X97716025Y-120324501D01*
X97716024Y-120324501D01*
X97716019Y-120324500D01*
X97716018Y-120324500D01*
X97603979Y-120324500D01*
X97603969Y-120324502D01*
X97495790Y-120353488D01*
X97495763Y-120353495D01*
X97495756Y-120353499D01*
X97398735Y-120409516D01*
X97398731Y-120409519D01*
X97398722Y-120409527D01*
X97319527Y-120488722D01*
X97319519Y-120488731D01*
X97319516Y-120488735D01*
X97263499Y-120585756D01*
X97263496Y-120585763D01*
X97263495Y-120585766D01*
X97234501Y-120693975D01*
X97234500Y-120693983D01*
X91546132Y-120693983D01*
X92145521Y-120094593D01*
X92165789Y-120081050D01*
X92187020Y-120072256D01*
X92210934Y-120067500D01*
X92817557Y-120067500D01*
X92817558Y-120067500D01*
X92854748Y-120060102D01*
X92896922Y-120031922D01*
X92925102Y-119989748D01*
X92932500Y-119952558D01*
X92932500Y-119127442D01*
X92925102Y-119090252D01*
X92925101Y-119090250D01*
X92912267Y-119071043D01*
X99067500Y-119071043D01*
X99067500Y-120238069D01*
X99077354Y-120288212D01*
X99095259Y-120332004D01*
X99102727Y-120345906D01*
X99106800Y-120353488D01*
X99108380Y-120356428D01*
X99108380Y-120356429D01*
X99160867Y-120399521D01*
X99166081Y-120403802D01*
X99210106Y-120422511D01*
X99260716Y-120433060D01*
X99260713Y-120433060D01*
X99345516Y-120433835D01*
X101872240Y-120456945D01*
X101906387Y-120467474D01*
X101926256Y-120480749D01*
X101926256Y-120480750D01*
X101926258Y-120480751D01*
X101926257Y-120480751D01*
X101926260Y-120480752D01*
X101940252Y-120490102D01*
X101977442Y-120497500D01*
X101977443Y-120497500D01*
X102402557Y-120497500D01*
X102402558Y-120497500D01*
X102439748Y-120490102D01*
X102481922Y-120461922D01*
X102485955Y-120455885D01*
X102497711Y-120442760D01*
X102505083Y-120436563D01*
X102512400Y-120433534D01*
X102537261Y-120419959D01*
X102563319Y-120387623D01*
X102567960Y-120383723D01*
X102585417Y-120378204D01*
X102601489Y-120369428D01*
X102607549Y-120371207D01*
X102613571Y-120369304D01*
X102629817Y-120377745D01*
X102647387Y-120382904D01*
X102651511Y-120389017D01*
X102656018Y-120391359D01*
X102658598Y-120399521D01*
X102667980Y-120413427D01*
X102669898Y-120419750D01*
X102698074Y-120461919D01*
X102698075Y-120461920D01*
X102698077Y-120461922D01*
X102726256Y-120480749D01*
X102726257Y-120480750D01*
X102726256Y-120480751D01*
X102726260Y-120480752D01*
X102740252Y-120490102D01*
X102777442Y-120497500D01*
X102777443Y-120497500D01*
X103202557Y-120497500D01*
X103202558Y-120497500D01*
X103239748Y-120490102D01*
X103281922Y-120461922D01*
X103310102Y-120419748D01*
X103317500Y-120382558D01*
X103317500Y-120182729D01*
X103319629Y-120166555D01*
X103323743Y-120151199D01*
X103329988Y-120136123D01*
X103365067Y-120075364D01*
X103365066Y-120075364D01*
X103365070Y-120075359D01*
X103392500Y-119972990D01*
X103392500Y-119867010D01*
X103365070Y-119764641D01*
X103354595Y-119746497D01*
X103329986Y-119703871D01*
X103323744Y-119688802D01*
X103319628Y-119673441D01*
X103317500Y-119657271D01*
X103317500Y-119457442D01*
X103310102Y-119420253D01*
X103310102Y-119420251D01*
X103310101Y-119420250D01*
X103282958Y-119379627D01*
X103281924Y-119378079D01*
X103281922Y-119378078D01*
X103281922Y-119378077D01*
X103239748Y-119349898D01*
X103202558Y-119342500D01*
X103202557Y-119342500D01*
X102777440Y-119342500D01*
X102758846Y-119346198D01*
X102758847Y-119346199D01*
X102755109Y-119346942D01*
X102755107Y-119346942D01*
X102740251Y-119349898D01*
X102740250Y-119349898D01*
X102706948Y-119372149D01*
X102703982Y-119373702D01*
X102683235Y-119375563D01*
X102662807Y-119379627D01*
X102659864Y-119377660D01*
X102656338Y-119377977D01*
X102640351Y-119364622D01*
X102623033Y-119353051D01*
X102621856Y-119349173D01*
X102619626Y-119347310D01*
X102618926Y-119339513D01*
X102612500Y-119318328D01*
X102612500Y-118147931D01*
X102629007Y-118108079D01*
X102628501Y-118107741D01*
X102630201Y-118105195D01*
X102630806Y-118103737D01*
X102630810Y-118103733D01*
X102631917Y-118102624D01*
X102631921Y-118102622D01*
X102660101Y-118060448D01*
X102667499Y-118023258D01*
X102667499Y-116956742D01*
X102660101Y-116919552D01*
X102649825Y-116904173D01*
X102631921Y-116877377D01*
X102589747Y-116849198D01*
X102552557Y-116841800D01*
X102552556Y-116841800D01*
X101993946Y-116841800D01*
X101963119Y-116839558D01*
X101942390Y-116841800D01*
X101917841Y-116841800D01*
X101917839Y-116841800D01*
X101899245Y-116845498D01*
X101899246Y-116845499D01*
X101895075Y-116846328D01*
X101895072Y-116846329D01*
X101880650Y-116849198D01*
X101880649Y-116849198D01*
X101853387Y-116867412D01*
X101850008Y-116869122D01*
X101850007Y-116869122D01*
X101831167Y-116878656D01*
X101831157Y-116878662D01*
X99211235Y-118865196D01*
X99185669Y-118876692D01*
X99175592Y-118878697D01*
X99172509Y-118879000D01*
X99169549Y-118879898D01*
X99127377Y-118908077D01*
X99127376Y-118908078D01*
X99099197Y-118950250D01*
X99098299Y-118953211D01*
X99097996Y-118956291D01*
X99093542Y-118978676D01*
X99089987Y-118990394D01*
X99077587Y-119020332D01*
X99077586Y-119020335D01*
X99067500Y-119071043D01*
X92912267Y-119071043D01*
X92896922Y-119048077D01*
X92879354Y-119036339D01*
X92854748Y-119019898D01*
X92817558Y-119012500D01*
X92817557Y-119012500D01*
X92042440Y-119012500D01*
X92023846Y-119016198D01*
X92023847Y-119016199D01*
X92011287Y-119018697D01*
X92008206Y-119019000D01*
X92005249Y-119019897D01*
X91963077Y-119048076D01*
X91963076Y-119048077D01*
X91934897Y-119090249D01*
X91934000Y-119093207D01*
X91933697Y-119096287D01*
X91927500Y-119127440D01*
X91927500Y-119734065D01*
X91922742Y-119757984D01*
X91913951Y-119779206D01*
X91900403Y-119799481D01*
X91777984Y-119921900D01*
X91757710Y-119935447D01*
X91751493Y-119938023D01*
X91703658Y-119938024D01*
X91669834Y-119904203D01*
X91667254Y-119897975D01*
X91662500Y-119874065D01*
X91662500Y-119127442D01*
X91662032Y-119123643D01*
X91662105Y-119123633D01*
X91661801Y-119121876D01*
X91661301Y-119116799D01*
X91661000Y-119110673D01*
X91661000Y-117037442D01*
X94037500Y-117037442D01*
X94037500Y-117862558D01*
X94043697Y-117893715D01*
X94044000Y-117896792D01*
X94044897Y-117899749D01*
X94073077Y-117941922D01*
X94097335Y-117958130D01*
X94097336Y-117958131D01*
X94106354Y-117964157D01*
X94115252Y-117970102D01*
X94152442Y-117977500D01*
X94152443Y-117977500D01*
X94927557Y-117977500D01*
X94927558Y-117977500D01*
X94964748Y-117970102D01*
X95006922Y-117941922D01*
X95035102Y-117899748D01*
X95042500Y-117862558D01*
X95042500Y-117802431D01*
X95047258Y-117778513D01*
X95050632Y-117770369D01*
X95050899Y-117769722D01*
X95084722Y-117735899D01*
X95093513Y-117732257D01*
X95117431Y-117727500D01*
X95327914Y-117727500D01*
X95351834Y-117732259D01*
X95360589Y-117735886D01*
X95360590Y-117735886D01*
X95360591Y-117735886D01*
X95360592Y-117735887D01*
X95360623Y-117735900D01*
X95393994Y-117769255D01*
X95394433Y-117769694D01*
X95394713Y-117770369D01*
X95397356Y-117810484D01*
X95396604Y-117813292D01*
X95394737Y-117817798D01*
X95394738Y-117818204D01*
X95394450Y-117818491D01*
X95390359Y-117828371D01*
X95385447Y-117836880D01*
X95385445Y-117836884D01*
X95349819Y-117898586D01*
X95349516Y-117899719D01*
X95349514Y-117899725D01*
X95327500Y-117981876D01*
X95327500Y-117981878D01*
X95327500Y-118068121D01*
X95349818Y-118151407D01*
X95349818Y-118151409D01*
X95349819Y-118151410D01*
X95355979Y-118162080D01*
X95355981Y-118162084D01*
X95382202Y-118207500D01*
X95392935Y-118226090D01*
X95453910Y-118287065D01*
X95528590Y-118330181D01*
X95554076Y-118337010D01*
X95611878Y-118352499D01*
X95611884Y-118352500D01*
X95611885Y-118352500D01*
X95698116Y-118352500D01*
X95698117Y-118352500D01*
X95722861Y-118345869D01*
X95722860Y-118345869D01*
X95722865Y-118345868D01*
X95781410Y-118330181D01*
X95856090Y-118287065D01*
X95917065Y-118226090D01*
X95960181Y-118151410D01*
X95975868Y-118092865D01*
X95982499Y-118068121D01*
X95982500Y-118068115D01*
X95982500Y-117981884D01*
X95982499Y-117981878D01*
X95964270Y-117913850D01*
X95962751Y-117908184D01*
X95961156Y-117883851D01*
X95962398Y-117874412D01*
X95986314Y-117832990D01*
X95989683Y-117830405D01*
X96027719Y-117817499D01*
X96740826Y-117817499D01*
X96802754Y-117808477D01*
X96807214Y-117807990D01*
X96811749Y-117807662D01*
X96816244Y-117807500D01*
X97294317Y-117807500D01*
X97318234Y-117812257D01*
X97333282Y-117818491D01*
X97335424Y-117819378D01*
X97363473Y-117842398D01*
X97377142Y-117862856D01*
X97377145Y-117862859D01*
X97470440Y-117925196D01*
X97479911Y-117932969D01*
X97484800Y-117937858D01*
X97503106Y-117982052D01*
X97484800Y-118026246D01*
X97484791Y-118026255D01*
X97482328Y-118028717D01*
X97454321Y-118044884D01*
X97423218Y-118053218D01*
X97406541Y-118057688D01*
X97406535Y-118057688D01*
X97406536Y-118057689D01*
X97398588Y-118059818D01*
X97361978Y-118080955D01*
X97361849Y-118081030D01*
X97361747Y-118081090D01*
X97323910Y-118102935D01*
X97323909Y-118102936D01*
X97323905Y-118102939D01*
X97322730Y-118104113D01*
X97322726Y-118104116D01*
X97262947Y-118163896D01*
X97262939Y-118163905D01*
X97262936Y-118163909D01*
X97219818Y-118238588D01*
X97217689Y-118246536D01*
X97217688Y-118246539D01*
X97197500Y-118321876D01*
X97197500Y-118321878D01*
X97197500Y-118408121D01*
X97219818Y-118491407D01*
X97219818Y-118491409D01*
X97219819Y-118491410D01*
X97225979Y-118502080D01*
X97225981Y-118502084D01*
X97262932Y-118566085D01*
X97262935Y-118566090D01*
X97323910Y-118627065D01*
X97398590Y-118670181D01*
X97424076Y-118677010D01*
X97481878Y-118692499D01*
X97481884Y-118692500D01*
X97481885Y-118692500D01*
X97568116Y-118692500D01*
X97568117Y-118692500D01*
X97592861Y-118685869D01*
X97592860Y-118685869D01*
X97592865Y-118685868D01*
X97651410Y-118670181D01*
X97726090Y-118627065D01*
X97787065Y-118566090D01*
X97830181Y-118491410D01*
X97852500Y-118408116D01*
X97852500Y-118321884D01*
X97852499Y-118321878D01*
X97840639Y-118277619D01*
X97830181Y-118238590D01*
X97787065Y-118163910D01*
X97726090Y-118102935D01*
X97708652Y-118092867D01*
X97665781Y-118068115D01*
X97665781Y-118068114D01*
X97665776Y-118068113D01*
X97660367Y-118064990D01*
X97653580Y-118060455D01*
X97648369Y-118056457D01*
X97639522Y-118049669D01*
X97615601Y-118008246D01*
X97627976Y-117962040D01*
X97661437Y-117939699D01*
X97661744Y-117939617D01*
X97677872Y-117937500D01*
X97936348Y-117937500D01*
X98014373Y-117921980D01*
X98102857Y-117862857D01*
X98161980Y-117774373D01*
X98177500Y-117696348D01*
X98177500Y-117477010D01*
X98707500Y-117477010D01*
X98707500Y-117479381D01*
X98707500Y-117582994D01*
X98709312Y-117589755D01*
X98710905Y-117597765D01*
X98711966Y-117605821D01*
X98712501Y-117613975D01*
X98712501Y-118023259D01*
X98715334Y-118037499D01*
X98718698Y-118054409D01*
X98719001Y-118057492D01*
X98719898Y-118060449D01*
X98748075Y-118102619D01*
X98748076Y-118102620D01*
X98748078Y-118102622D01*
X98776258Y-118121450D01*
X98776257Y-118121451D01*
X98776261Y-118121452D01*
X98790253Y-118130802D01*
X98827443Y-118138200D01*
X98827444Y-118138200D01*
X99462158Y-118138200D01*
X99462159Y-118138200D01*
X99499349Y-118130802D01*
X99541523Y-118102622D01*
X99569703Y-118060448D01*
X99577101Y-118023258D01*
X99577101Y-116956742D01*
X99569703Y-116919552D01*
X99559427Y-116904173D01*
X99541523Y-116877377D01*
X99499349Y-116849198D01*
X99462159Y-116841800D01*
X99462158Y-116841800D01*
X98827441Y-116841800D01*
X98808847Y-116845498D01*
X98808848Y-116845499D01*
X98796288Y-116847997D01*
X98793207Y-116848300D01*
X98790250Y-116849197D01*
X98748078Y-116877376D01*
X98748077Y-116877377D01*
X98719898Y-116919549D01*
X98719001Y-116922507D01*
X98718698Y-116925587D01*
X98712501Y-116956740D01*
X98712501Y-117446017D01*
X98711966Y-117454180D01*
X98710904Y-117462242D01*
X98710051Y-117466529D01*
X98710116Y-117466873D01*
X98709761Y-117468569D01*
X98707500Y-117477010D01*
X98177500Y-117477010D01*
X98177500Y-117363652D01*
X98161980Y-117285627D01*
X98102857Y-117197143D01*
X98038579Y-117154194D01*
X98038578Y-117154193D01*
X98014382Y-117138025D01*
X98014383Y-117138025D01*
X98014369Y-117138018D01*
X97936348Y-117122500D01*
X97543652Y-117122500D01*
X97543649Y-117122500D01*
X97465630Y-117138018D01*
X97465629Y-117138018D01*
X97465621Y-117138022D01*
X97377143Y-117197142D01*
X97377141Y-117197144D01*
X97365619Y-117214388D01*
X97348380Y-117231627D01*
X97332910Y-117241965D01*
X97298184Y-117252500D01*
X97157431Y-117252500D01*
X97133509Y-117247740D01*
X97128128Y-117245511D01*
X97124717Y-117244098D01*
X97090901Y-117210282D01*
X97089950Y-117207986D01*
X97087257Y-117201486D01*
X97082499Y-117177572D01*
X97082499Y-116904174D01*
X97078781Y-116878656D01*
X97072462Y-116835280D01*
X97072286Y-116832860D01*
X97071810Y-116830800D01*
X97071809Y-116830797D01*
X97071809Y-116830796D01*
X97016476Y-116717610D01*
X96927390Y-116628524D01*
X96814204Y-116573191D01*
X96814202Y-116573190D01*
X96814201Y-116573190D01*
X96805749Y-116571958D01*
X96805747Y-116571958D01*
X96755913Y-116564698D01*
X96740827Y-116562500D01*
X96740826Y-116562500D01*
X95719174Y-116562500D01*
X95719169Y-116562500D01*
X95719164Y-116562501D01*
X95655916Y-116571715D01*
X95655911Y-116571716D01*
X95645798Y-116573190D01*
X95645797Y-116573190D01*
X95645796Y-116573191D01*
X95632823Y-116579532D01*
X95632817Y-116579535D01*
X95532673Y-116628492D01*
X95532606Y-116628525D01*
X95532605Y-116628526D01*
X95443526Y-116717606D01*
X95388189Y-116830800D01*
X95380567Y-116883121D01*
X95377501Y-116904172D01*
X95377500Y-116904180D01*
X95377500Y-117097568D01*
X95372740Y-117121492D01*
X95369098Y-117130282D01*
X95335284Y-117164097D01*
X95329257Y-117166594D01*
X95326492Y-117167739D01*
X95302569Y-117172500D01*
X95117431Y-117172500D01*
X95093509Y-117167740D01*
X95088128Y-117165511D01*
X95084717Y-117164098D01*
X95050899Y-117130276D01*
X95047258Y-117121486D01*
X95042500Y-117097568D01*
X95042500Y-117037442D01*
X95036123Y-117005386D01*
X95035102Y-117000252D01*
X95035101Y-117000250D01*
X95012490Y-116966410D01*
X95006924Y-116958079D01*
X95006922Y-116958078D01*
X95006922Y-116958077D01*
X94964748Y-116929898D01*
X94927558Y-116922500D01*
X94927557Y-116922500D01*
X94152440Y-116922500D01*
X94133846Y-116926198D01*
X94133847Y-116926199D01*
X94121287Y-116928697D01*
X94118206Y-116929000D01*
X94115249Y-116929897D01*
X94073077Y-116958076D01*
X94073076Y-116958077D01*
X94044897Y-117000249D01*
X94044000Y-117003207D01*
X94043697Y-117006288D01*
X94037500Y-117037442D01*
X91661000Y-117037442D01*
X91661000Y-114497442D01*
X94037500Y-114497442D01*
X94037500Y-114500065D01*
X94037500Y-115322558D01*
X94043697Y-115353711D01*
X94044000Y-115356791D01*
X94044897Y-115359748D01*
X94073074Y-115401919D01*
X94073075Y-115401920D01*
X94073077Y-115401922D01*
X94101257Y-115420750D01*
X94101256Y-115420751D01*
X94101260Y-115420752D01*
X94115252Y-115430102D01*
X94152442Y-115437500D01*
X94152443Y-115437500D01*
X94927557Y-115437500D01*
X94927558Y-115437500D01*
X94964748Y-115430102D01*
X95006922Y-115401922D01*
X95035102Y-115359748D01*
X95042500Y-115322558D01*
X95042500Y-114913983D01*
X97234500Y-114913983D01*
X97234500Y-115026016D01*
X97234501Y-115026024D01*
X97263495Y-115134233D01*
X97263496Y-115134236D01*
X97319516Y-115231264D01*
X97319519Y-115231268D01*
X97319523Y-115231272D01*
X97319527Y-115231277D01*
X97398720Y-115310470D01*
X97398726Y-115310475D01*
X97398731Y-115310480D01*
X97398735Y-115310483D01*
X97398737Y-115310485D01*
X97398739Y-115310486D01*
X97484061Y-115359748D01*
X97484062Y-115359748D01*
X97495759Y-115366501D01*
X97495763Y-115366503D01*
X97495766Y-115366504D01*
X97561988Y-115384247D01*
X97603982Y-115395500D01*
X97603983Y-115395500D01*
X97716017Y-115395500D01*
X97716018Y-115395500D01*
X97824237Y-115366503D01*
X97921263Y-115310485D01*
X98000485Y-115231263D01*
X98056503Y-115134237D01*
X98085500Y-115026018D01*
X98085500Y-114913982D01*
X98056503Y-114805763D01*
X98000485Y-114708737D01*
X98000483Y-114708735D01*
X98000482Y-114708734D01*
X98000480Y-114708730D01*
X97921275Y-114629525D01*
X97921262Y-114629514D01*
X97872751Y-114601506D01*
X97872748Y-114601505D01*
X97824242Y-114573499D01*
X97824235Y-114573495D01*
X97824208Y-114573487D01*
X97716034Y-114544503D01*
X97716025Y-114544501D01*
X97716024Y-114544501D01*
X97716019Y-114544500D01*
X97716018Y-114544500D01*
X97603979Y-114544500D01*
X97603969Y-114544502D01*
X97495790Y-114573488D01*
X97495763Y-114573495D01*
X97495756Y-114573499D01*
X97398735Y-114629516D01*
X97398731Y-114629519D01*
X97398722Y-114629527D01*
X97319527Y-114708722D01*
X97319519Y-114708731D01*
X97319516Y-114708735D01*
X97263499Y-114805756D01*
X97263496Y-114805763D01*
X97263495Y-114805766D01*
X97234501Y-114913975D01*
X97234500Y-114913983D01*
X95042500Y-114913983D01*
X95042500Y-114497442D01*
X95035102Y-114460252D01*
X95035101Y-114460250D01*
X95026580Y-114447497D01*
X95006924Y-114418079D01*
X95006922Y-114418078D01*
X95006922Y-114418077D01*
X94964748Y-114389898D01*
X94927558Y-114382500D01*
X94927557Y-114382500D01*
X94152440Y-114382500D01*
X94133846Y-114386198D01*
X94133847Y-114386199D01*
X94121287Y-114388697D01*
X94118206Y-114389000D01*
X94115249Y-114389897D01*
X94073077Y-114418076D01*
X94073076Y-114418077D01*
X94044897Y-114460249D01*
X94044000Y-114463207D01*
X94043812Y-114465115D01*
X94043870Y-114465385D01*
X94043788Y-114465827D01*
X94037500Y-114497442D01*
X91661000Y-114497442D01*
X91661000Y-113227442D01*
X94037500Y-113227442D01*
X94037500Y-114052558D01*
X94042338Y-114076878D01*
X94042339Y-114076885D01*
X94043697Y-114083708D01*
X94044000Y-114086793D01*
X94044897Y-114089749D01*
X94073074Y-114131919D01*
X94073075Y-114131920D01*
X94073077Y-114131922D01*
X94101257Y-114150750D01*
X94101256Y-114150751D01*
X94101260Y-114150752D01*
X94115252Y-114160102D01*
X94152442Y-114167500D01*
X94152443Y-114167500D01*
X94927557Y-114167500D01*
X94927558Y-114167500D01*
X94964748Y-114160102D01*
X95006922Y-114131922D01*
X95035102Y-114089748D01*
X95042500Y-114052558D01*
X95042500Y-113227442D01*
X95035102Y-113190252D01*
X95035101Y-113190250D01*
X95032815Y-113186828D01*
X95006924Y-113148079D01*
X95006922Y-113148078D01*
X95006922Y-113148077D01*
X94978742Y-113129248D01*
X94964747Y-113119897D01*
X94936365Y-113114252D01*
X94927558Y-113112500D01*
X94152442Y-113112500D01*
X94143635Y-113114252D01*
X94121287Y-113118697D01*
X94118206Y-113119000D01*
X94115249Y-113119897D01*
X94073077Y-113148076D01*
X94073076Y-113148077D01*
X94044897Y-113190249D01*
X94044001Y-113193205D01*
X94043697Y-113196286D01*
X94042860Y-113200498D01*
X94037500Y-113227442D01*
X91661000Y-113227442D01*
X91661000Y-112892010D01*
X91661000Y-112892008D01*
X91631922Y-112821807D01*
X91578193Y-112768078D01*
X91331051Y-112520936D01*
X91909500Y-112520936D01*
X91909500Y-112679062D01*
X91950413Y-112831755D01*
X91950420Y-112831777D01*
X91950443Y-112831845D01*
X91950886Y-112832586D01*
X92029480Y-112968716D01*
X92141284Y-113080520D01*
X92166013Y-113094797D01*
X92258297Y-113148078D01*
X92258298Y-113148078D01*
X92278214Y-113159576D01*
X92278216Y-113159577D01*
X92278219Y-113159578D01*
X92361445Y-113181878D01*
X92380128Y-113186884D01*
X92430938Y-113200499D01*
X92430941Y-113200499D01*
X92430943Y-113200500D01*
X92430944Y-113200500D01*
X92589056Y-113200500D01*
X92589057Y-113200500D01*
X92589065Y-113200498D01*
X92616282Y-113193205D01*
X92725273Y-113164001D01*
X92725274Y-113164001D01*
X92728102Y-113163241D01*
X92728116Y-113163239D01*
X92728117Y-113163244D01*
X92728136Y-113163232D01*
X92741784Y-113159577D01*
X92878716Y-113080520D01*
X92990520Y-112968716D01*
X93069577Y-112831784D01*
X93110500Y-112679057D01*
X93110500Y-112520943D01*
X93092181Y-112452575D01*
X93072173Y-112377902D01*
X93069585Y-112368243D01*
X93069581Y-112368232D01*
X93069578Y-112368219D01*
X93069577Y-112368216D01*
X93049655Y-112333709D01*
X93049654Y-112333707D01*
X93049654Y-112333706D01*
X92990522Y-112231288D01*
X92990520Y-112231284D01*
X92935349Y-112176113D01*
X92878721Y-112119484D01*
X92878712Y-112119477D01*
X92782465Y-112063908D01*
X92782465Y-112063909D01*
X92741784Y-112040422D01*
X92741785Y-112040422D01*
X92717480Y-112033910D01*
X92645939Y-112014741D01*
X92645937Y-112014740D01*
X92589069Y-111999502D01*
X92589063Y-111999501D01*
X92589058Y-111999500D01*
X92589057Y-111999500D01*
X92430940Y-111999500D01*
X92430930Y-111999502D01*
X92278243Y-112040413D01*
X92278216Y-112040421D01*
X92278204Y-112040427D01*
X92200571Y-112085250D01*
X92141281Y-112119481D01*
X92141277Y-112119484D01*
X92029492Y-112231270D01*
X92029484Y-112231279D01*
X92029481Y-112231283D01*
X91950425Y-112368209D01*
X91950421Y-112368216D01*
X91950413Y-112368243D01*
X91909500Y-112520936D01*
X91331051Y-112520936D01*
X90767557Y-111957442D01*
X94037500Y-111957442D01*
X94037500Y-112782557D01*
X94044898Y-112819748D01*
X94044898Y-112819749D01*
X94073077Y-112861922D01*
X94093144Y-112875330D01*
X94115252Y-112890102D01*
X94152442Y-112897500D01*
X94152443Y-112897500D01*
X94927557Y-112897500D01*
X94927558Y-112897500D01*
X94964748Y-112890102D01*
X95006922Y-112861922D01*
X95035102Y-112819748D01*
X95042500Y-112782558D01*
X95042500Y-112529140D01*
X101482500Y-112529140D01*
X101482500Y-112950858D01*
X101497728Y-113027419D01*
X101497728Y-113027420D01*
X101497733Y-113027430D01*
X101555744Y-113114249D01*
X101555746Y-113114251D01*
X101555747Y-113114252D01*
X101580534Y-113130814D01*
X101614388Y-113153434D01*
X101625993Y-113163451D01*
X101630281Y-113168187D01*
X101631260Y-113170929D01*
X101631632Y-113170681D01*
X101633431Y-113173374D01*
X101632587Y-113173937D01*
X101639021Y-113182612D01*
X101639719Y-113182239D01*
X101641165Y-113184945D01*
X101641167Y-113184949D01*
X101641169Y-113184952D01*
X101641964Y-113186142D01*
X101642172Y-113186828D01*
X101642615Y-113187656D01*
X101642450Y-113187744D01*
X101652500Y-113220868D01*
X101652500Y-113262749D01*
X101647742Y-113286668D01*
X101640622Y-113303856D01*
X101617604Y-113331903D01*
X101561742Y-113369229D01*
X101561738Y-113369232D01*
X101500954Y-113460201D01*
X101500953Y-113460202D01*
X101485000Y-113540410D01*
X101485000Y-113939590D01*
X101500953Y-114019796D01*
X101500953Y-114019797D01*
X101500957Y-114019805D01*
X101561734Y-114110764D01*
X101652691Y-114171540D01*
X101652695Y-114171542D01*
X101652698Y-114171544D01*
X101652700Y-114171545D01*
X101732912Y-114187500D01*
X102082088Y-114187500D01*
X102162300Y-114171545D01*
X102253264Y-114110764D01*
X102314045Y-114019800D01*
X102330000Y-113939588D01*
X102330000Y-113540412D01*
X102328959Y-113535181D01*
X102314045Y-113460201D01*
X102314044Y-113460198D01*
X102314042Y-113460195D01*
X102314040Y-113460191D01*
X102253266Y-113369237D01*
X102253262Y-113369234D01*
X102234070Y-113356410D01*
X102162301Y-113308455D01*
X102159677Y-113307368D01*
X102150220Y-113302468D01*
X102149548Y-113302044D01*
X102142645Y-113297431D01*
X102141486Y-113296951D01*
X102138138Y-113294836D01*
X102125550Y-113277005D01*
X102111708Y-113260136D01*
X102110188Y-113255123D01*
X102107500Y-113236991D01*
X102107500Y-113224737D01*
X102112257Y-113200821D01*
X102112390Y-113200500D01*
X102119377Y-113183630D01*
X102142394Y-113155583D01*
X102204252Y-113114252D01*
X102262270Y-113027423D01*
X102277500Y-112950856D01*
X102277500Y-112529144D01*
X102277499Y-112529140D01*
X102502500Y-112529140D01*
X102502500Y-112950858D01*
X102517728Y-113027419D01*
X102517728Y-113027420D01*
X102517731Y-113027426D01*
X102518722Y-113028909D01*
X102575747Y-113114252D01*
X102662575Y-113172269D01*
X102662577Y-113172270D01*
X102739144Y-113187500D01*
X103060856Y-113187500D01*
X103137423Y-113172270D01*
X103224252Y-113114252D01*
X103282270Y-113027423D01*
X103297500Y-112950856D01*
X103297500Y-112529144D01*
X103282270Y-112452577D01*
X103282269Y-112452575D01*
X103224252Y-112365747D01*
X103137427Y-112307732D01*
X103137426Y-112307731D01*
X103137420Y-112307728D01*
X103137419Y-112307728D01*
X103060858Y-112292500D01*
X103060856Y-112292500D01*
X102739144Y-112292500D01*
X102739141Y-112292500D01*
X102662579Y-112307728D01*
X102662571Y-112307732D01*
X102575747Y-112365747D01*
X102517731Y-112452572D01*
X102517730Y-112452574D01*
X102517730Y-112452575D01*
X102517729Y-112452577D01*
X102517728Y-112452579D01*
X102502500Y-112529140D01*
X102277499Y-112529140D01*
X102262270Y-112452577D01*
X102262269Y-112452575D01*
X102204252Y-112365747D01*
X102117427Y-112307732D01*
X102117426Y-112307731D01*
X102117420Y-112307728D01*
X102117419Y-112307728D01*
X102040858Y-112292500D01*
X102040856Y-112292500D01*
X101719144Y-112292500D01*
X101719141Y-112292500D01*
X101642579Y-112307728D01*
X101642571Y-112307732D01*
X101555747Y-112365747D01*
X101497731Y-112452572D01*
X101497730Y-112452574D01*
X101497730Y-112452575D01*
X101497729Y-112452577D01*
X101497728Y-112452579D01*
X101482500Y-112529140D01*
X95042500Y-112529140D01*
X95042500Y-111957442D01*
X95035102Y-111920252D01*
X95026166Y-111906878D01*
X95006922Y-111878077D01*
X94964748Y-111849898D01*
X94927558Y-111842500D01*
X94927557Y-111842500D01*
X94152440Y-111842500D01*
X94133846Y-111846198D01*
X94133847Y-111846199D01*
X94121287Y-111848697D01*
X94118206Y-111849000D01*
X94115249Y-111849897D01*
X94073077Y-111878076D01*
X94073076Y-111878077D01*
X94044897Y-111920249D01*
X94044097Y-111922887D01*
X94043870Y-111925385D01*
X94043788Y-111925827D01*
X94037500Y-111957442D01*
X90767557Y-111957442D01*
X89733099Y-110922984D01*
X89719553Y-110902714D01*
X89716975Y-110896490D01*
X89716975Y-110848658D01*
X89750795Y-110814834D01*
X89757025Y-110812254D01*
X89780934Y-110807500D01*
X90277557Y-110807500D01*
X90277558Y-110807500D01*
X90314748Y-110800102D01*
X90356922Y-110771922D01*
X90385102Y-110729748D01*
X90392500Y-110692558D01*
X90392500Y-109867442D01*
X90385102Y-109830252D01*
X90385101Y-109830250D01*
X90361147Y-109794400D01*
X90356924Y-109788079D01*
X90356922Y-109788078D01*
X90356922Y-109788077D01*
X90314748Y-109759898D01*
X90277558Y-109752500D01*
X90277557Y-109752500D01*
X89502440Y-109752500D01*
X89483846Y-109756198D01*
X89483847Y-109756199D01*
X89471287Y-109758697D01*
X89468206Y-109759000D01*
X89465249Y-109759897D01*
X89423077Y-109788076D01*
X89423076Y-109788077D01*
X89394897Y-109830249D01*
X89394000Y-109833207D01*
X89393697Y-109836287D01*
X89387500Y-109867440D01*
X89387500Y-110414065D01*
X89382742Y-110437982D01*
X89380167Y-110444201D01*
X89346341Y-110478024D01*
X89298506Y-110478023D01*
X89292286Y-110475446D01*
X89272015Y-110461900D01*
X89149596Y-110339481D01*
X89136049Y-110319207D01*
X89127256Y-110297980D01*
X89122500Y-110274065D01*
X89122500Y-109867442D01*
X89116446Y-109837007D01*
X89115102Y-109830252D01*
X89115101Y-109830250D01*
X89091147Y-109794400D01*
X89086924Y-109788079D01*
X89086922Y-109788078D01*
X89086922Y-109788077D01*
X89044748Y-109759898D01*
X89007558Y-109752500D01*
X89007557Y-109752500D01*
X88232440Y-109752500D01*
X88213846Y-109756198D01*
X88213847Y-109756199D01*
X88201287Y-109758697D01*
X88198206Y-109759000D01*
X88195249Y-109759897D01*
X88153077Y-109788076D01*
X88153076Y-109788077D01*
X88124897Y-109830249D01*
X88124000Y-109833207D01*
X88123697Y-109836287D01*
X88117500Y-109867440D01*
X88117500Y-110577568D01*
X88112743Y-110601485D01*
X88109827Y-110608525D01*
X88076002Y-110642350D01*
X88028168Y-110642350D01*
X88019956Y-110638949D01*
X87999685Y-110625403D01*
X87998759Y-110624477D01*
X87990588Y-110621093D01*
X87957605Y-110607431D01*
X87946796Y-110601653D01*
X87936754Y-110594942D01*
X87927287Y-110587172D01*
X87879596Y-110539481D01*
X87866049Y-110519207D01*
X87857256Y-110497980D01*
X87852500Y-110474065D01*
X87852500Y-109911427D01*
X87857255Y-109887516D01*
X87864026Y-109871169D01*
X87890516Y-109840962D01*
X87941090Y-109811765D01*
X88002065Y-109750790D01*
X88045181Y-109676110D01*
X88060868Y-109617565D01*
X88067499Y-109592821D01*
X88067500Y-109592815D01*
X88067500Y-109506585D01*
X88067500Y-109506584D01*
X88067499Y-109506578D01*
X88055639Y-109462319D01*
X88045181Y-109423290D01*
X88002065Y-109348610D01*
X87941090Y-109287635D01*
X87941085Y-109287632D01*
X87877087Y-109250682D01*
X87877079Y-109250678D01*
X87866410Y-109244519D01*
X87866409Y-109244518D01*
X87866408Y-109244518D01*
X87852048Y-109240670D01*
X87783122Y-109222200D01*
X87783121Y-109222200D01*
X87783116Y-109222200D01*
X87696884Y-109222200D01*
X87696878Y-109222200D01*
X87696877Y-109222200D01*
X87627950Y-109240670D01*
X87627947Y-109240671D01*
X87613592Y-109244518D01*
X87613590Y-109244518D01*
X87561095Y-109274826D01*
X87559746Y-109275605D01*
X87538903Y-109287639D01*
X87477947Y-109348596D01*
X87477939Y-109348605D01*
X87477936Y-109348609D01*
X87434818Y-109423288D01*
X87432689Y-109431236D01*
X87432688Y-109431239D01*
X87412500Y-109506576D01*
X87412500Y-109592822D01*
X87430988Y-109661815D01*
X87432583Y-109686151D01*
X87431341Y-109695584D01*
X87407429Y-109737005D01*
X87407423Y-109737009D01*
X87407423Y-109737010D01*
X87407422Y-109737010D01*
X87404074Y-109739580D01*
X87366021Y-109752500D01*
X86962440Y-109752500D01*
X86943846Y-109756198D01*
X86943847Y-109756199D01*
X86931287Y-109758697D01*
X86928206Y-109759000D01*
X86925249Y-109759897D01*
X86883077Y-109788076D01*
X86883076Y-109788077D01*
X86854897Y-109830249D01*
X86854000Y-109833207D01*
X86853812Y-109835115D01*
X86853870Y-109835385D01*
X86853788Y-109835827D01*
X86847500Y-109867442D01*
X82060500Y-109867442D01*
X82060500Y-106017101D01*
X82282500Y-106017101D01*
X82282500Y-106282897D01*
X82316656Y-106542333D01*
X82316656Y-106542339D01*
X82316657Y-106542339D01*
X82317192Y-106546404D01*
X82385971Y-106803095D01*
X82385974Y-106803102D01*
X82385978Y-106803111D01*
X82385980Y-106803117D01*
X82404370Y-106847515D01*
X82440117Y-106933817D01*
X82440116Y-106933817D01*
X82487685Y-107048656D01*
X82487686Y-107048658D01*
X82487689Y-107048664D01*
X82620578Y-107278835D01*
X82782374Y-107489692D01*
X82970308Y-107677626D01*
X83181165Y-107839422D01*
X83411336Y-107972311D01*
X83656883Y-108074020D01*
X83656888Y-108074021D01*
X83656893Y-108074023D01*
X83656897Y-108074024D01*
X83656899Y-108074025D01*
X83913602Y-108142808D01*
X83913606Y-108142809D01*
X83913608Y-108142809D01*
X83913611Y-108142810D01*
X83913616Y-108142811D01*
X84089276Y-108165936D01*
X84177111Y-108177500D01*
X84177117Y-108177500D01*
X84442883Y-108177500D01*
X84442889Y-108177500D01*
X84564558Y-108161481D01*
X84706383Y-108142811D01*
X84706388Y-108142810D01*
X84706389Y-108142809D01*
X84706394Y-108142809D01*
X84706398Y-108142808D01*
X84963100Y-108074025D01*
X84963103Y-108074023D01*
X84963117Y-108074020D01*
X84963124Y-108074017D01*
X84963210Y-108073994D01*
X84963881Y-108073703D01*
X85208664Y-107972311D01*
X85438835Y-107839422D01*
X85649692Y-107677626D01*
X85837626Y-107489692D01*
X85999422Y-107278835D01*
X86132311Y-107048664D01*
X86234020Y-106803117D01*
X86302809Y-106546394D01*
X86337500Y-106282889D01*
X86337500Y-106017111D01*
X86302809Y-105753606D01*
X86302808Y-105753601D01*
X86302807Y-105753600D01*
X86302807Y-105753595D01*
X86234539Y-105498818D01*
X86234538Y-105498814D01*
X86234023Y-105496893D01*
X86234021Y-105496888D01*
X86234020Y-105496883D01*
X86132311Y-105251336D01*
X85999422Y-105021165D01*
X85990155Y-105009088D01*
X85979288Y-104994925D01*
X85979287Y-104994924D01*
X85979281Y-104994916D01*
X85978043Y-104993303D01*
X85978040Y-104993300D01*
X85952444Y-104959942D01*
X91522500Y-104959942D01*
X91522500Y-108485058D01*
X91526328Y-108504302D01*
X91528697Y-108516210D01*
X91529000Y-108519292D01*
X91529897Y-108522248D01*
X91558074Y-108564419D01*
X91558077Y-108564422D01*
X91583903Y-108581678D01*
X91600252Y-108592602D01*
X91637442Y-108600000D01*
X92127569Y-108600000D01*
X92151489Y-108604759D01*
X92160278Y-108608400D01*
X92194098Y-108642217D01*
X92195511Y-108645628D01*
X92197740Y-108651009D01*
X92202500Y-108674931D01*
X92202500Y-109677568D01*
X92197740Y-109701492D01*
X92194098Y-109710282D01*
X92160284Y-109744097D01*
X92154257Y-109746594D01*
X92151492Y-109747739D01*
X92127569Y-109752500D01*
X92042440Y-109752500D01*
X92023846Y-109756198D01*
X92023847Y-109756199D01*
X92011287Y-109758697D01*
X92008206Y-109759000D01*
X92005249Y-109759897D01*
X91963077Y-109788076D01*
X91963076Y-109788077D01*
X91934897Y-109830249D01*
X91934000Y-109833207D01*
X91933697Y-109836287D01*
X91927500Y-109867440D01*
X91927500Y-110692558D01*
X91933697Y-110723711D01*
X91934000Y-110726791D01*
X91934897Y-110729749D01*
X91963076Y-110771921D01*
X91963077Y-110771922D01*
X91990121Y-110789992D01*
X92005252Y-110800102D01*
X92042442Y-110807500D01*
X92042443Y-110807500D01*
X92817557Y-110807500D01*
X92817558Y-110807500D01*
X92854748Y-110800102D01*
X92896922Y-110771922D01*
X92925102Y-110729748D01*
X92932500Y-110692558D01*
X92932500Y-109867442D01*
X92925102Y-109830252D01*
X92925101Y-109830250D01*
X92901147Y-109794400D01*
X92896924Y-109788079D01*
X92896922Y-109788078D01*
X92896922Y-109788077D01*
X92854748Y-109759898D01*
X92817558Y-109752500D01*
X92817557Y-109752500D01*
X92732431Y-109752500D01*
X92708509Y-109747740D01*
X92703128Y-109745511D01*
X92699717Y-109744098D01*
X92692625Y-109737005D01*
X92665899Y-109710276D01*
X92665896Y-109710270D01*
X92665896Y-109710268D01*
X92662258Y-109701486D01*
X92657500Y-109677568D01*
X92657500Y-109082442D01*
X97332500Y-109082442D01*
X97332500Y-110107558D01*
X97338697Y-110138710D01*
X97339000Y-110141792D01*
X97339897Y-110144749D01*
X97368074Y-110186919D01*
X97368075Y-110186920D01*
X97368077Y-110186922D01*
X97396257Y-110205750D01*
X97396256Y-110205751D01*
X97396260Y-110205752D01*
X97410252Y-110215102D01*
X97447442Y-110222500D01*
X98219985Y-110222500D01*
X98243905Y-110227259D01*
X98252694Y-110230900D01*
X98286511Y-110264710D01*
X98288130Y-110268617D01*
X98290763Y-110308724D01*
X98272500Y-110376877D01*
X98272500Y-110376878D01*
X98272500Y-110463121D01*
X98294818Y-110546407D01*
X98294818Y-110546409D01*
X98294819Y-110546410D01*
X98300979Y-110557080D01*
X98300981Y-110557084D01*
X98337932Y-110621085D01*
X98337935Y-110621090D01*
X98398910Y-110682065D01*
X98473590Y-110725181D01*
X98490634Y-110729748D01*
X98556878Y-110747499D01*
X98556884Y-110747500D01*
X98556885Y-110747500D01*
X98643116Y-110747500D01*
X98643117Y-110747500D01*
X98667861Y-110740869D01*
X98667860Y-110740869D01*
X98667865Y-110740868D01*
X98726410Y-110725181D01*
X98801090Y-110682065D01*
X98862065Y-110621090D01*
X98905181Y-110546410D01*
X98927500Y-110463116D01*
X98927500Y-110376884D01*
X98927499Y-110376878D01*
X98907214Y-110301177D01*
X98905181Y-110293590D01*
X98862065Y-110218910D01*
X98801090Y-110157935D01*
X98801085Y-110157932D01*
X98737087Y-110120982D01*
X98737079Y-110120978D01*
X98726410Y-110114819D01*
X98726409Y-110114818D01*
X98726408Y-110114818D01*
X98699315Y-110107558D01*
X98643122Y-110092500D01*
X98643121Y-110092500D01*
X98643116Y-110092500D01*
X98566994Y-110092500D01*
X98550794Y-110090364D01*
X98536936Y-110086645D01*
X98498997Y-110057510D01*
X98498996Y-110057508D01*
X98495860Y-110052071D01*
X98487500Y-110020844D01*
X98487500Y-109860931D01*
X98492258Y-109837013D01*
X98492261Y-109837007D01*
X98495899Y-109828222D01*
X98529723Y-109794399D01*
X98538513Y-109790758D01*
X98562431Y-109786000D01*
X101357569Y-109786000D01*
X101381489Y-109790759D01*
X101390278Y-109794400D01*
X101424098Y-109828217D01*
X101424941Y-109830251D01*
X101427740Y-109837009D01*
X101432500Y-109860931D01*
X101432500Y-110107558D01*
X101438697Y-110138710D01*
X101439000Y-110141792D01*
X101439897Y-110144749D01*
X101468074Y-110186919D01*
X101468075Y-110186920D01*
X101468077Y-110186922D01*
X101496257Y-110205750D01*
X101496256Y-110205751D01*
X101496260Y-110205752D01*
X101510252Y-110215102D01*
X101547442Y-110222500D01*
X101547443Y-110222500D01*
X102472557Y-110222500D01*
X102472558Y-110222500D01*
X102509748Y-110215102D01*
X102551922Y-110186922D01*
X102580102Y-110144748D01*
X102587500Y-110107558D01*
X102587500Y-109082442D01*
X102580102Y-109045252D01*
X102580101Y-109045250D01*
X102580099Y-109045247D01*
X102551924Y-109003079D01*
X102551922Y-109003078D01*
X102551922Y-109003077D01*
X102509748Y-108974898D01*
X102472558Y-108967500D01*
X102472557Y-108967500D01*
X101547440Y-108967500D01*
X101528846Y-108971198D01*
X101528847Y-108971199D01*
X101516287Y-108973697D01*
X101513206Y-108974000D01*
X101510249Y-108974897D01*
X101468077Y-109003076D01*
X101468076Y-109003077D01*
X101439897Y-109045249D01*
X101439000Y-109048207D01*
X101438697Y-109051287D01*
X101432500Y-109082440D01*
X101432500Y-109329068D01*
X101427740Y-109352992D01*
X101424098Y-109361782D01*
X101390284Y-109395597D01*
X101384257Y-109398094D01*
X101381492Y-109399239D01*
X101357569Y-109404000D01*
X98562431Y-109404000D01*
X98538509Y-109399240D01*
X98533128Y-109397011D01*
X98529717Y-109395598D01*
X98495899Y-109361776D01*
X98492258Y-109352986D01*
X98487500Y-109329068D01*
X98487500Y-109082442D01*
X98487500Y-109082440D01*
X98480102Y-109045252D01*
X98480101Y-109045250D01*
X98480099Y-109045247D01*
X98451924Y-109003079D01*
X98451922Y-109003078D01*
X98451922Y-109003077D01*
X98409748Y-108974898D01*
X98372558Y-108967500D01*
X98372557Y-108967500D01*
X98006324Y-108967500D01*
X97982408Y-108962742D01*
X97976186Y-108960165D01*
X97942365Y-108926341D01*
X97942365Y-108878509D01*
X97944945Y-108872283D01*
X97958487Y-108852017D01*
X97984615Y-108825890D01*
X98027731Y-108751210D01*
X98043418Y-108692665D01*
X98050049Y-108667921D01*
X98050050Y-108667915D01*
X98050050Y-108581685D01*
X98050049Y-108581678D01*
X98050047Y-108581672D01*
X98034124Y-108522248D01*
X98029315Y-108504302D01*
X98027731Y-108498390D01*
X97984615Y-108423710D01*
X97923640Y-108362735D01*
X97923635Y-108362732D01*
X97859637Y-108325782D01*
X97859629Y-108325778D01*
X97848960Y-108319619D01*
X97848959Y-108319618D01*
X97848958Y-108319618D01*
X97834598Y-108315770D01*
X97765672Y-108297300D01*
X97765671Y-108297300D01*
X97765666Y-108297300D01*
X97679434Y-108297300D01*
X97679428Y-108297300D01*
X97679427Y-108297300D01*
X97610500Y-108315770D01*
X97610497Y-108315771D01*
X97596142Y-108319618D01*
X97596140Y-108319618D01*
X97543645Y-108349926D01*
X97542296Y-108350705D01*
X97521453Y-108362739D01*
X97460497Y-108423696D01*
X97460489Y-108423705D01*
X97460486Y-108423709D01*
X97417368Y-108498388D01*
X97415784Y-108504302D01*
X97415783Y-108504306D01*
X97395050Y-108581676D01*
X97395050Y-108581678D01*
X97395050Y-108667921D01*
X97417368Y-108751207D01*
X97417368Y-108751209D01*
X97417369Y-108751210D01*
X97423529Y-108761880D01*
X97423531Y-108761884D01*
X97460482Y-108825885D01*
X97460485Y-108825890D01*
X97460488Y-108825893D01*
X97460489Y-108825894D01*
X97486610Y-108852015D01*
X97500156Y-108872286D01*
X97502733Y-108878506D01*
X97502734Y-108926341D01*
X97468911Y-108960166D01*
X97468908Y-108960167D01*
X97468907Y-108960168D01*
X97460372Y-108963703D01*
X97448652Y-108967259D01*
X97440115Y-108968957D01*
X97428847Y-108971199D01*
X97416287Y-108973697D01*
X97413206Y-108974000D01*
X97410249Y-108974897D01*
X97368077Y-109003076D01*
X97368076Y-109003077D01*
X97339897Y-109045249D01*
X97339000Y-109048207D01*
X97338812Y-109050116D01*
X97338870Y-109050386D01*
X97338788Y-109050827D01*
X97332500Y-109082442D01*
X92657500Y-109082442D01*
X92657500Y-108674931D01*
X92662258Y-108651013D01*
X92662261Y-108651007D01*
X92665899Y-108642222D01*
X92699722Y-108608399D01*
X92708513Y-108604757D01*
X92732431Y-108600000D01*
X93162557Y-108600000D01*
X93162558Y-108600000D01*
X93199748Y-108592602D01*
X93241922Y-108564422D01*
X93270102Y-108522248D01*
X93277500Y-108485058D01*
X93277500Y-106017101D01*
X99032500Y-106017101D01*
X99032500Y-106282897D01*
X99066656Y-106542333D01*
X99066656Y-106542339D01*
X99066657Y-106542339D01*
X99067192Y-106546404D01*
X99135971Y-106803095D01*
X99135974Y-106803102D01*
X99135978Y-106803111D01*
X99135980Y-106803117D01*
X99154370Y-106847515D01*
X99190117Y-106933817D01*
X99190116Y-106933817D01*
X99237685Y-107048656D01*
X99237686Y-107048658D01*
X99237689Y-107048664D01*
X99370578Y-107278835D01*
X99532374Y-107489692D01*
X99720308Y-107677626D01*
X99931165Y-107839422D01*
X100161336Y-107972311D01*
X100406883Y-108074020D01*
X100406888Y-108074021D01*
X100406893Y-108074023D01*
X100406897Y-108074024D01*
X100406899Y-108074025D01*
X100663602Y-108142808D01*
X100663606Y-108142809D01*
X100663608Y-108142809D01*
X100663611Y-108142810D01*
X100663616Y-108142811D01*
X100839276Y-108165936D01*
X100927111Y-108177500D01*
X100927117Y-108177500D01*
X101192883Y-108177500D01*
X101192889Y-108177500D01*
X101314558Y-108161481D01*
X101456383Y-108142811D01*
X101456388Y-108142810D01*
X101456389Y-108142809D01*
X101456394Y-108142809D01*
X101456398Y-108142808D01*
X101713100Y-108074025D01*
X101713103Y-108074023D01*
X101713117Y-108074020D01*
X101713124Y-108074017D01*
X101713210Y-108073994D01*
X101713881Y-108073703D01*
X101958664Y-107972311D01*
X102188835Y-107839422D01*
X102399692Y-107677626D01*
X102587626Y-107489692D01*
X102749422Y-107278835D01*
X102882311Y-107048664D01*
X102984020Y-106803117D01*
X103052809Y-106546394D01*
X103087500Y-106282889D01*
X103087500Y-106017111D01*
X103052809Y-105753606D01*
X103052808Y-105753601D01*
X103052807Y-105753600D01*
X103052807Y-105753595D01*
X102984539Y-105498818D01*
X102984538Y-105498814D01*
X102984023Y-105496893D01*
X102984021Y-105496888D01*
X102984020Y-105496883D01*
X102882311Y-105251336D01*
X102749422Y-105021165D01*
X102587626Y-104810308D01*
X102587613Y-104810295D01*
X102399700Y-104622381D01*
X102399667Y-104622352D01*
X102399453Y-104622190D01*
X102188829Y-104460574D01*
X101958667Y-104327690D01*
X101958656Y-104327685D01*
X101843817Y-104280116D01*
X101843817Y-104280117D01*
X101757515Y-104244370D01*
X101713117Y-104225980D01*
X101713114Y-104225979D01*
X101713102Y-104225974D01*
X101713095Y-104225971D01*
X101456401Y-104157191D01*
X101192897Y-104122500D01*
X101192893Y-104122500D01*
X101192889Y-104122500D01*
X100927111Y-104122500D01*
X100927106Y-104122500D01*
X100927101Y-104122500D01*
X100667666Y-104156656D01*
X100667659Y-104156656D01*
X100663602Y-104157191D01*
X100663601Y-104157191D01*
X100663600Y-104157191D01*
X100663594Y-104157192D01*
X100406923Y-104225966D01*
X100406901Y-104225973D01*
X100404333Y-104226829D01*
X100402230Y-104227906D01*
X100161342Y-104327685D01*
X100161331Y-104327690D01*
X99931169Y-104460574D01*
X99720313Y-104622368D01*
X99720311Y-104622370D01*
X99720295Y-104622385D01*
X99532385Y-104810295D01*
X99532370Y-104810311D01*
X99532368Y-104810313D01*
X99370574Y-105021169D01*
X99237690Y-105251331D01*
X99237688Y-105251335D01*
X99135973Y-105496900D01*
X99135972Y-105496904D01*
X99067192Y-105753594D01*
X99066657Y-105757660D01*
X99066656Y-105757663D01*
X99032500Y-106017101D01*
X93277500Y-106017101D01*
X93277500Y-104959942D01*
X93270102Y-104922752D01*
X93270101Y-104922750D01*
X93270099Y-104922747D01*
X93241924Y-104880579D01*
X93241922Y-104880578D01*
X93241922Y-104880577D01*
X93199748Y-104852398D01*
X93162558Y-104845000D01*
X93162557Y-104845000D01*
X91637440Y-104845000D01*
X91618846Y-104848698D01*
X91618847Y-104848699D01*
X91606287Y-104851197D01*
X91603206Y-104851500D01*
X91600249Y-104852397D01*
X91558077Y-104880576D01*
X91558076Y-104880577D01*
X91529897Y-104922749D01*
X91529000Y-104925707D01*
X91528697Y-104928788D01*
X91522500Y-104959942D01*
X85952444Y-104959942D01*
X85952442Y-104959940D01*
X85837626Y-104810308D01*
X85837613Y-104810295D01*
X85649700Y-104622381D01*
X85649667Y-104622352D01*
X85649453Y-104622190D01*
X85438829Y-104460574D01*
X85208667Y-104327690D01*
X85208656Y-104327685D01*
X85093817Y-104280116D01*
X85093817Y-104280117D01*
X85007515Y-104244370D01*
X84963117Y-104225980D01*
X84963114Y-104225979D01*
X84963102Y-104225974D01*
X84963095Y-104225971D01*
X84706401Y-104157191D01*
X84442897Y-104122500D01*
X84442893Y-104122500D01*
X84442889Y-104122500D01*
X84177111Y-104122500D01*
X84177106Y-104122500D01*
X84177101Y-104122500D01*
X83917666Y-104156656D01*
X83917659Y-104156656D01*
X83913602Y-104157191D01*
X83913601Y-104157191D01*
X83913600Y-104157191D01*
X83913594Y-104157192D01*
X83656923Y-104225966D01*
X83656901Y-104225973D01*
X83654333Y-104226829D01*
X83652230Y-104227906D01*
X83411342Y-104327685D01*
X83411331Y-104327690D01*
X83181169Y-104460574D01*
X82970313Y-104622368D01*
X82970311Y-104622370D01*
X82970295Y-104622385D01*
X82782385Y-104810295D01*
X82782370Y-104810311D01*
X82782368Y-104810313D01*
X82620574Y-105021169D01*
X82487690Y-105251331D01*
X82487688Y-105251335D01*
X82385973Y-105496900D01*
X82385972Y-105496904D01*
X82317192Y-105753594D01*
X82316657Y-105757660D01*
X82316656Y-105757663D01*
X82282500Y-106017101D01*
X82060500Y-106017101D01*
X82060500Y-104704609D01*
X82060575Y-104701543D01*
X82060726Y-104698469D01*
X82060952Y-104695409D01*
X82068146Y-104622369D01*
X82069805Y-104605519D01*
X82074958Y-104553196D01*
X82075857Y-104547140D01*
X82077046Y-104541159D01*
X82078534Y-104535212D01*
X82118687Y-104402844D01*
X82120746Y-104397093D01*
X82123090Y-104391433D01*
X82125694Y-104385928D01*
X82190895Y-104263945D01*
X82194035Y-104258706D01*
X82197441Y-104253609D01*
X82201077Y-104248707D01*
X82288815Y-104141798D01*
X82292932Y-104137257D01*
X82297256Y-104132933D01*
X82301797Y-104128817D01*
X82408707Y-104041077D01*
X82413609Y-104037441D01*
X82418706Y-104034035D01*
X82423945Y-104030895D01*
X82545928Y-103965694D01*
X82551433Y-103963090D01*
X82557102Y-103960742D01*
X82562844Y-103958687D01*
X82695212Y-103918534D01*
X82701159Y-103917046D01*
X82707140Y-103915857D01*
X82713195Y-103914958D01*
X82855413Y-103900951D01*
X82858471Y-103900726D01*
X82861546Y-103900575D01*
X82864611Y-103900500D01*
X102855389Y-103900500D01*
X102858455Y-103900575D01*
G37*
%TD.AperFunction*%
%TD*%
M02*
