%TF.GenerationSoftware,KiCad,Pcbnew,10.0.3*%
%TF.CreationDate,2026-07-20T21:28:31-04:00*%
%TF.ProjectId,LoRa Board V3,4c6f5261-2042-46f6-9172-642056332e6b,rev?*%
%TF.SameCoordinates,Original*%
%TF.FileFunction,Legend,Top*%
%TF.FilePolarity,Positive*%
%FSLAX46Y46*%
G04 Gerber Fmt 4.6, Leading zero omitted, Abs format (unit mm)*
G04 Created by KiCad (PCBNEW 10.0.3) date 2026-07-20 21:28:31*
%MOMM*%
%LPD*%
G01*
G04 APERTURE LIST*
%ADD10C,0.200000*%
%ADD11C,0.127000*%
%ADD12C,0.152400*%
%ADD13C,0.120000*%
%ADD14C,0.100000*%
G04 APERTURE END LIST*
D10*
X82726816Y-121127219D02*
X83298244Y-121127219D01*
X83012530Y-122127219D02*
X83012530Y-121127219D01*
X84541101Y-122177219D02*
X84207768Y-121701028D01*
X83969673Y-122177219D02*
X83969673Y-121177219D01*
X83969673Y-121177219D02*
X84350625Y-121177219D01*
X84350625Y-121177219D02*
X84445863Y-121224838D01*
X84445863Y-121224838D02*
X84493482Y-121272457D01*
X84493482Y-121272457D02*
X84541101Y-121367695D01*
X84541101Y-121367695D02*
X84541101Y-121510552D01*
X84541101Y-121510552D02*
X84493482Y-121605790D01*
X84493482Y-121605790D02*
X84445863Y-121653409D01*
X84445863Y-121653409D02*
X84350625Y-121701028D01*
X84350625Y-121701028D02*
X83969673Y-121701028D01*
X98349673Y-113337219D02*
X98349673Y-112337219D01*
X98349673Y-112337219D02*
X98730625Y-112337219D01*
X98730625Y-112337219D02*
X98825863Y-112384838D01*
X98825863Y-112384838D02*
X98873482Y-112432457D01*
X98873482Y-112432457D02*
X98921101Y-112527695D01*
X98921101Y-112527695D02*
X98921101Y-112670552D01*
X98921101Y-112670552D02*
X98873482Y-112765790D01*
X98873482Y-112765790D02*
X98825863Y-112813409D01*
X98825863Y-112813409D02*
X98730625Y-112861028D01*
X98730625Y-112861028D02*
X98349673Y-112861028D01*
X99254435Y-112337219D02*
X99492530Y-113337219D01*
X99492530Y-113337219D02*
X99683006Y-112622933D01*
X99683006Y-112622933D02*
X99873482Y-113337219D01*
X99873482Y-113337219D02*
X100111578Y-112337219D01*
X101063958Y-113337219D02*
X100730625Y-112861028D01*
X100492530Y-113337219D02*
X100492530Y-112337219D01*
X100492530Y-112337219D02*
X100873482Y-112337219D01*
X100873482Y-112337219D02*
X100968720Y-112384838D01*
X100968720Y-112384838D02*
X101016339Y-112432457D01*
X101016339Y-112432457D02*
X101063958Y-112527695D01*
X101063958Y-112527695D02*
X101063958Y-112670552D01*
X101063958Y-112670552D02*
X101016339Y-112765790D01*
X101016339Y-112765790D02*
X100968720Y-112813409D01*
X100968720Y-112813409D02*
X100873482Y-112861028D01*
X100873482Y-112861028D02*
X100492530Y-112861028D01*
X83637219Y-116804136D02*
X83637219Y-117280326D01*
X83637219Y-117280326D02*
X82637219Y-117280326D01*
X83637219Y-116327945D02*
X83589600Y-116423183D01*
X83589600Y-116423183D02*
X83541980Y-116470802D01*
X83541980Y-116470802D02*
X83446742Y-116518421D01*
X83446742Y-116518421D02*
X83161028Y-116518421D01*
X83161028Y-116518421D02*
X83065790Y-116470802D01*
X83065790Y-116470802D02*
X83018171Y-116423183D01*
X83018171Y-116423183D02*
X82970552Y-116327945D01*
X82970552Y-116327945D02*
X82970552Y-116185088D01*
X82970552Y-116185088D02*
X83018171Y-116089850D01*
X83018171Y-116089850D02*
X83065790Y-116042231D01*
X83065790Y-116042231D02*
X83161028Y-115994612D01*
X83161028Y-115994612D02*
X83446742Y-115994612D01*
X83446742Y-115994612D02*
X83541980Y-116042231D01*
X83541980Y-116042231D02*
X83589600Y-116089850D01*
X83589600Y-116089850D02*
X83637219Y-116185088D01*
X83637219Y-116185088D02*
X83637219Y-116327945D01*
X83637219Y-114994612D02*
X83161028Y-115327945D01*
X83637219Y-115566040D02*
X82637219Y-115566040D01*
X82637219Y-115566040D02*
X82637219Y-115185088D01*
X82637219Y-115185088D02*
X82684838Y-115089850D01*
X82684838Y-115089850D02*
X82732457Y-115042231D01*
X82732457Y-115042231D02*
X82827695Y-114994612D01*
X82827695Y-114994612D02*
X82970552Y-114994612D01*
X82970552Y-114994612D02*
X83065790Y-115042231D01*
X83065790Y-115042231D02*
X83113409Y-115089850D01*
X83113409Y-115089850D02*
X83161028Y-115185088D01*
X83161028Y-115185088D02*
X83161028Y-115566040D01*
X83637219Y-114137469D02*
X83113409Y-114137469D01*
X83113409Y-114137469D02*
X83018171Y-114185088D01*
X83018171Y-114185088D02*
X82970552Y-114280326D01*
X82970552Y-114280326D02*
X82970552Y-114470802D01*
X82970552Y-114470802D02*
X83018171Y-114566040D01*
X83589600Y-114137469D02*
X83637219Y-114232707D01*
X83637219Y-114232707D02*
X83637219Y-114470802D01*
X83637219Y-114470802D02*
X83589600Y-114566040D01*
X83589600Y-114566040D02*
X83494361Y-114613659D01*
X83494361Y-114613659D02*
X83399123Y-114613659D01*
X83399123Y-114613659D02*
X83303885Y-114566040D01*
X83303885Y-114566040D02*
X83256266Y-114470802D01*
X83256266Y-114470802D02*
X83256266Y-114232707D01*
X83256266Y-114232707D02*
X83208647Y-114137469D01*
X82637219Y-113042230D02*
X83637219Y-112708897D01*
X83637219Y-112708897D02*
X82637219Y-112375564D01*
X82637219Y-112137468D02*
X82637219Y-111518421D01*
X82637219Y-111518421D02*
X83018171Y-111851754D01*
X83018171Y-111851754D02*
X83018171Y-111708897D01*
X83018171Y-111708897D02*
X83065790Y-111613659D01*
X83065790Y-111613659D02*
X83113409Y-111566040D01*
X83113409Y-111566040D02*
X83208647Y-111518421D01*
X83208647Y-111518421D02*
X83446742Y-111518421D01*
X83446742Y-111518421D02*
X83541980Y-111566040D01*
X83541980Y-111566040D02*
X83589600Y-111613659D01*
X83589600Y-111613659D02*
X83637219Y-111708897D01*
X83637219Y-111708897D02*
X83637219Y-111994611D01*
X83637219Y-111994611D02*
X83589600Y-112089849D01*
X83589600Y-112089849D02*
X83541980Y-112137468D01*
%TO.C,L1*%
D11*
X89640000Y-123880000D02*
X89640000Y-129580000D01*
X94940000Y-123880000D02*
X94940000Y-129580000D01*
%TO.C,CR1*%
D12*
X99166000Y-118569500D02*
X102214000Y-118569500D01*
X102214000Y-116410500D02*
X99166000Y-116410500D01*
%TO.C,C16*%
D13*
X95495000Y-115978748D02*
X95495000Y-116501252D01*
X96965000Y-115978748D02*
X96965000Y-116501252D01*
%TO.C,U14*%
X84780000Y-109800000D02*
X84790000Y-120010000D01*
X84790000Y-120010000D02*
X95000000Y-120010000D01*
X94980000Y-109800000D02*
X84780000Y-109800000D01*
X95000000Y-120010000D02*
X94980000Y-109800000D01*
%TO.C,C9*%
X99375000Y-124478748D02*
X99375000Y-125001252D01*
X100845000Y-124478748D02*
X100845000Y-125001252D01*
%TO.C,D5*%
D14*
X84200000Y-122515000D02*
G75*
G02*
X84100000Y-122515000I-50000J0D01*
G01*
X84100000Y-122515000D02*
G75*
G02*
X84200000Y-122515000I50000J0D01*
G01*
%TO.C,R60*%
D13*
X83780000Y-125711141D02*
X83780000Y-125403859D01*
X84540000Y-125711141D02*
X84540000Y-125403859D01*
%TO.C,R7*%
X94506359Y-121040000D02*
X94813641Y-121040000D01*
X94506359Y-121800000D02*
X94813641Y-121800000D01*
%TO.C,C17*%
X97380000Y-116942164D02*
X97380000Y-117157836D01*
X98100000Y-116942164D02*
X98100000Y-117157836D01*
%TO.C,C13*%
X96688748Y-126885000D02*
X97211252Y-126885000D01*
X96688748Y-128355000D02*
X97211252Y-128355000D01*
%TO.C,FB1*%
D10*
X86750000Y-128500000D02*
X86750000Y-127900000D01*
X88150000Y-127900000D02*
X88150000Y-128500000D01*
%TO.C,C12*%
D13*
X87505000Y-124351252D02*
X87505000Y-123828748D01*
X88975000Y-124351252D02*
X88975000Y-123828748D01*
%TO.C,C11*%
X96678748Y-128895000D02*
X97201252Y-128895000D01*
X96678748Y-130365000D02*
X97201252Y-130365000D01*
%TO.C,D4*%
D14*
X83070000Y-122545000D02*
G75*
G02*
X82970000Y-122545000I-50000J0D01*
G01*
X82970000Y-122545000D02*
G75*
G02*
X83070000Y-122545000I50000J0D01*
G01*
%TO.C,R3*%
D13*
X102543641Y-112360000D02*
X102236359Y-112360000D01*
X102543641Y-113120000D02*
X102236359Y-113120000D01*
%TO.C,R59*%
X82640000Y-125673641D02*
X82640000Y-125366359D01*
X83400000Y-125673641D02*
X83400000Y-125366359D01*
%TO.C,R4*%
X96323641Y-125790000D02*
X96016359Y-125790000D01*
X96323641Y-126550000D02*
X96016359Y-126550000D01*
%TO.C,R6*%
X94783641Y-122010000D02*
X94476359Y-122010000D01*
X94783641Y-122770000D02*
X94476359Y-122770000D01*
%TO.C,D6*%
D14*
X103532500Y-113740000D02*
G75*
G02*
X103432500Y-113740000I-50000J0D01*
G01*
X103432500Y-113740000D02*
G75*
G02*
X103532500Y-113740000I50000J0D01*
G01*
%TO.C,U3*%
D10*
X94980000Y-124190000D02*
G75*
G02*
X94780000Y-124190000I-100000J0D01*
G01*
X94780000Y-124190000D02*
G75*
G02*
X94980000Y-124190000I100000J0D01*
G01*
%TO.C,FL1*%
D11*
X101670000Y-121770000D02*
X101670000Y-119770000D01*
X103510000Y-119770000D02*
X103510000Y-121770000D01*
D10*
X102270000Y-118920000D02*
G75*
G02*
X102070000Y-118920000I-100000J0D01*
G01*
X102070000Y-118920000D02*
G75*
G02*
X102270000Y-118920000I100000J0D01*
G01*
%TO.C,S3*%
X98760000Y-111795000D02*
X101160000Y-111795000D01*
%TO.C,C8*%
D13*
X101405000Y-124508748D02*
X101405000Y-125031252D01*
X102875000Y-124508748D02*
X102875000Y-125031252D01*
%TO.C,CR3*%
D12*
X98660500Y-119326000D02*
X98660500Y-122374000D01*
X100819500Y-122374000D02*
X100819500Y-119326000D01*
%TO.C,C15*%
D13*
X85485000Y-124351252D02*
X85485000Y-123828748D01*
X86955000Y-124351252D02*
X86955000Y-123828748D01*
%TO.C,C7*%
X98270000Y-124462164D02*
X98270000Y-124677836D01*
X98990000Y-124462164D02*
X98990000Y-124677836D01*
%TO.C,C10*%
X97382164Y-122090000D02*
X97597836Y-122090000D01*
X97382164Y-122810000D02*
X97597836Y-122810000D01*
%TD*%
M02*
