%TF.GenerationSoftware,KiCad,Pcbnew,10.0.3*%
%TF.CreationDate,2026-07-20T21:28:31-04:00*%
%TF.ProjectId,LoRa Board V3,4c6f5261-2042-46f6-9172-642056332e6b,rev?*%
%TF.SameCoordinates,Original*%
%TF.FileFunction,Soldermask,Top*%
%TF.FilePolarity,Negative*%
%FSLAX46Y46*%
G04 Gerber Fmt 4.6, Leading zero omitted, Abs format (unit mm)*
G04 Created by KiCad (PCBNEW 10.0.3) date 2026-07-20 21:28:31*
%MOMM*%
%LPD*%
G01*
G04 APERTURE LIST*
G04 Aperture macros list*
%AMRoundRect*
0 Rectangle with rounded corners*
0 $1 Rounding radius*
0 $2 $3 $4 $5 $6 $7 $8 $9 X,Y pos of 4 corners*
0 Add a 4 corners polygon primitive as box body*
4,1,4,$2,$3,$4,$5,$6,$7,$8,$9,$2,$3,0*
0 Add four circle primitives for the rounded corners*
1,1,$1+$1,$2,$3*
1,1,$1+$1,$4,$5*
1,1,$1+$1,$6,$7*
1,1,$1+$1,$8,$9*
0 Add four rect primitives between the rounded corners*
20,1,$1+$1,$2,$3,$4,$5,0*
20,1,$1+$1,$4,$5,$6,$7,0*
20,1,$1+$1,$6,$7,$8,$9,0*
20,1,$1+$1,$8,$9,$2,$3,0*%
G04 Aperture macros list end*
%ADD10RoundRect,0.102000X-1.250000X1.000000X-1.250000X-1.000000X1.250000X-1.000000X1.250000X1.000000X0*%
%ADD11R,0.609600X1.041400*%
%ADD12RoundRect,0.250000X-0.475000X0.250000X-0.475000X-0.250000X0.475000X-0.250000X0.475000X0.250000X0*%
%ADD13R,0.750000X0.800000*%
%ADD14RoundRect,0.147500X-0.172500X0.147500X-0.172500X-0.147500X0.172500X-0.147500X0.172500X0.147500X0*%
%ADD15C,2.600000*%
%ADD16C,3.800000*%
%ADD17RoundRect,0.135000X0.185000X-0.135000X0.185000X0.135000X-0.185000X0.135000X-0.185000X-0.135000X0*%
%ADD18RoundRect,0.135000X-0.135000X-0.185000X0.135000X-0.185000X0.135000X0.185000X-0.135000X0.185000X0*%
%ADD19RoundRect,0.140000X-0.170000X0.140000X-0.170000X-0.140000X0.170000X-0.140000X0.170000X0.140000X0*%
%ADD20RoundRect,0.250000X-0.250000X-0.475000X0.250000X-0.475000X0.250000X0.475000X-0.250000X0.475000X0*%
%ADD21RoundRect,0.102000X0.500000X-0.700000X0.500000X0.700000X-0.500000X0.700000X-0.500000X-0.700000X0*%
%ADD22C,1.000000*%
%ADD23RoundRect,0.250000X0.475000X-0.250000X0.475000X0.250000X-0.475000X0.250000X-0.475000X-0.250000X0*%
%ADD24RoundRect,0.135000X0.135000X0.185000X-0.135000X0.185000X-0.135000X-0.185000X0.135000X-0.185000X0*%
%ADD25RoundRect,0.147500X0.147500X0.172500X-0.147500X0.172500X-0.147500X-0.172500X0.147500X-0.172500X0*%
%ADD26RoundRect,0.010100X-0.416900X-0.191900X0.416900X-0.191900X0.416900X0.191900X-0.416900X0.191900X0*%
%ADD27RoundRect,0.010100X-0.591900X-0.191900X0.591900X-0.191900X0.591900X0.191900X-0.591900X0.191900X0*%
%ADD28RoundRect,0.011350X-0.215650X-0.365650X0.215650X-0.365650X0.215650X0.365650X-0.215650X0.365650X0*%
%ADD29RoundRect,0.102000X-0.200000X0.450000X-0.200000X-0.450000X0.200000X-0.450000X0.200000X0.450000X0*%
%ADD30RoundRect,0.102000X-0.450000X-0.500000X0.450000X-0.500000X0.450000X0.500000X-0.450000X0.500000X0*%
%ADD31RoundRect,0.102000X-0.850000X-0.275000X0.850000X-0.275000X0.850000X0.275000X-0.850000X0.275000X0*%
%ADD32RoundRect,0.050000X-0.750000X1.750000X-0.750000X-1.750000X0.750000X-1.750000X0.750000X1.750000X0*%
%ADD33R,1.041400X0.609600*%
%ADD34RoundRect,0.140000X-0.140000X-0.170000X0.140000X-0.170000X0.140000X0.170000X-0.140000X0.170000X0*%
%ADD35C,0.650000*%
G04 APERTURE END LIST*
D10*
%TO.C,L1*%
X92290000Y-124230000D03*
X92290000Y-129230000D03*
%TD*%
D11*
%TO.C,CR1*%
X102235199Y-117490000D03*
X99144801Y-117490000D03*
%TD*%
D12*
%TO.C,C16*%
X96230000Y-115290000D03*
X96230000Y-117190000D03*
%TD*%
D13*
%TO.C,U14*%
X94540000Y-117450000D03*
X94540000Y-116180000D03*
X94540000Y-114910000D03*
X94540000Y-113640000D03*
X94540000Y-112370000D03*
X92430000Y-110280000D03*
X91160000Y-110280000D03*
X89890000Y-110280000D03*
X88620000Y-110280000D03*
X87350000Y-110280000D03*
X85230000Y-112370000D03*
X85230000Y-113640000D03*
X85230000Y-114910000D03*
X85230000Y-116180000D03*
X85230000Y-117450000D03*
X87350000Y-119540000D03*
X88620000Y-119540000D03*
X89890000Y-119540000D03*
X91160000Y-119540000D03*
X92430000Y-119540000D03*
%TD*%
D12*
%TO.C,C9*%
X100110000Y-123790000D03*
X100110000Y-125690000D03*
%TD*%
D14*
%TO.C,D5*%
X84150000Y-123120000D03*
X84150000Y-124090000D03*
%TD*%
D15*
%TO.C,H4*%
X101060000Y-128650000D03*
D16*
X101060000Y-128650000D03*
%TD*%
D17*
%TO.C,R60*%
X84160000Y-126067500D03*
X84160000Y-125047500D03*
%TD*%
D18*
%TO.C,R7*%
X94150000Y-121420000D03*
X95170000Y-121420000D03*
%TD*%
D19*
%TO.C,C17*%
X97740000Y-116570000D03*
X97740000Y-117530000D03*
%TD*%
D15*
%TO.C,H2*%
X101060000Y-106150000D03*
D16*
X101060000Y-106150000D03*
%TD*%
D20*
%TO.C,C13*%
X96000000Y-127620000D03*
X97900000Y-127620000D03*
%TD*%
D21*
%TO.C,FB1*%
X87450000Y-129500000D03*
X87450000Y-126900000D03*
%TD*%
D22*
%TO.C,FID2*%
X92510000Y-112600000D03*
%TD*%
D23*
%TO.C,C12*%
X88240000Y-125040000D03*
X88240000Y-123140000D03*
%TD*%
D20*
%TO.C,C11*%
X95990000Y-129630000D03*
X97890000Y-129630000D03*
%TD*%
D14*
%TO.C,D4*%
X83020000Y-123150000D03*
X83020000Y-124120000D03*
%TD*%
D24*
%TO.C,R3*%
X102900000Y-112740000D03*
X101880000Y-112740000D03*
%TD*%
D17*
%TO.C,R59*%
X83020000Y-126030000D03*
X83020000Y-125010000D03*
%TD*%
D24*
%TO.C,R4*%
X96680000Y-126170000D03*
X95660000Y-126170000D03*
%TD*%
%TO.C,R6*%
X95140000Y-122390000D03*
X94120000Y-122390000D03*
%TD*%
D25*
%TO.C,D6*%
X102877500Y-113740000D03*
X101907500Y-113740000D03*
%TD*%
D26*
%TO.C,U3*%
X95805000Y-124190000D03*
D27*
X95980000Y-124690000D03*
D26*
X95805000Y-125190000D03*
D27*
X97380000Y-125190000D03*
D26*
X97555000Y-124690000D03*
D27*
X97380000Y-124190000D03*
D28*
X97430000Y-123515000D03*
X96930000Y-123515000D03*
X96430000Y-123515000D03*
X95930000Y-123515000D03*
%TD*%
D29*
%TO.C,FL1*%
X102190000Y-119920000D03*
X102190000Y-121620000D03*
X102990000Y-121620000D03*
X102990000Y-119920000D03*
%TD*%
D30*
%TO.C,S3*%
X97910000Y-109595000D03*
X97910000Y-111195000D03*
X102010000Y-111195000D03*
X102010000Y-109595000D03*
D31*
X99960000Y-108970000D03*
%TD*%
D32*
%TO.C,J8*%
X92400000Y-106722500D03*
X95100000Y-106722500D03*
X89700000Y-106722500D03*
%TD*%
D12*
%TO.C,C8*%
X102140000Y-123820000D03*
X102140000Y-125720000D03*
%TD*%
D33*
%TO.C,CR3*%
X99740000Y-119304801D03*
X99740000Y-122395199D03*
%TD*%
D15*
%TO.C,H3*%
X84310000Y-128650000D03*
D16*
X84310000Y-128650000D03*
%TD*%
D23*
%TO.C,C15*%
X86220000Y-125040000D03*
X86220000Y-123140000D03*
%TD*%
D19*
%TO.C,C7*%
X98630000Y-124090000D03*
X98630000Y-125050000D03*
%TD*%
D34*
%TO.C,C10*%
X97010000Y-122450000D03*
X97970000Y-122450000D03*
%TD*%
D15*
%TO.C,H1*%
X84310000Y-106150000D03*
D16*
X84310000Y-106150000D03*
%TD*%
D35*
%TO.C,J2*%
X97660000Y-114970000D03*
X97660000Y-120750000D03*
%TD*%
M02*
