M48
; DRILL file KiCad 10.0.3 date 2026-06-18T05:37:40
; FORMAT={-:-/ absolute / metric / decimal}
; #@! TF.CreationDate,2026-06-18T05:37:40-04:00
; #@! TF.GenerationSoftware,Kicad,Pcbnew,10.0.3
; #@! TF.FileFunction,Plated,1,6,PTH
FMAT,2
METRIC
; #@! TA.AperFunction,Plated,PTH,ViaDrill
T1C0.300
; #@! TA.AperFunction,Plated,PTH,ViaDrill
T2C0.400
; #@! TA.AperFunction,Plated,PTH,ComponentDrill
T3C1.000
; #@! TA.AperFunction,Plated,PTH,ComponentDrill
T4C2.200
%
G90
G05
T1
X73.22Y-154.67
X73.42Y-145.01
X73.42Y-147.1
X73.44Y-146.3
X73.47Y-111.86
X73.47Y-145.71
X73.495Y-115.24
X73.59Y-140.51
X73.62Y-137.22
X73.954Y-141.803
X74.01Y-111.83
X74.19Y-127.05
X74.3Y-160.3
X74.3Y-161.08
X74.378Y-146.82
X74.612Y-117.475
X74.66Y-137.38
X74.67Y-136.72
X74.846Y-115.24
X74.87Y-116.7
X74.94Y-125.13
X74.945Y-113.255
X74.97Y-124.38
X75.06Y-104.63
X75.11Y-143.31
X75.239Y-144.24
X75.27Y-114.36
X75.29Y-118.21
X75.4Y-110.48
X75.451Y-113.008
X75.46Y-113.7
X75.8Y-145.39
X75.876Y-114.986
X75.91Y-127.69
X75.93Y-126.95
X76.03Y-109.19
X76.1Y-125.51
X76.42Y-105.43
X76.58Y-117.712
X76.6Y-128.47
X76.62Y-108.35
X76.74Y-112.34
X76.99Y-109.19
X77.01Y-113.29
X77.02Y-125.72
X77.11Y-111.54
X77.12Y-108.35
X77.14Y-106.26
X77.294Y-112.555
X77.32Y-116.16
X77.41Y-161.07
X77.442Y-111.049
X77.59Y-98.62
X77.593Y-109.322
X77.7Y-140.72
X77.71Y-113.756
X77.72Y-98.01
X77.74Y-114.58
X77.78Y-162.34
X77.78Y-167.99
X77.79Y-167.27
X77.93Y-130.21
X78.007Y-111.074
X78.06Y-146.015
X78.07Y-100.84
X78.15Y-123.32
X78.25Y-117.66
X78.253Y-146.764
X78.265Y-143.59
X78.368Y-147.787
X78.43Y-144.23
X78.48Y-140.73
X78.52Y-143.1
X78.576Y-99.316
X78.58Y-123.96
X78.66Y-149.02
X78.738Y-101.442
X78.82Y-146.73
X78.935Y-152.16
X78.935Y-152.99
X79.1Y-149.8
X79.158Y-148.974
X79.16Y-104.4
X79.218Y-99.035
X79.265Y-108.56
X79.265Y-109.06
X79.29Y-129.4
X79.4Y-110.86
X79.41Y-111.38
X79.43Y-111.94
X79.49Y-113.894
X79.535Y-109.981
X79.535Y-112.44
X79.535Y-109.481
X79.89Y-98.98
X80.14Y-139.86
X80.17Y-109.74
X80.52Y-112.07
X80.66Y-158.11
X80.68Y-158.65
X80.73Y-128.17
X80.73Y-129.01
X80.73Y-130.06
X80.75Y-127.42
X80.765Y-156.215
X80.78Y-157.46
X80.81Y-139.66
X80.86Y-144.925
X80.972Y-100.26
X81.0Y-149.91
X81.06Y-115.99
X81.15Y-102.517
X81.22Y-160.0
X81.23Y-117.82
X81.24Y-158.39
X81.24Y-160.58
X81.29Y-157.81
X81.47Y-97.54
X81.48Y-101.4
X81.54Y-136.24
X81.64Y-155.83
X81.66Y-105.21
X81.72Y-165.45
X81.8Y-128.45
X81.8Y-129.42
X81.81Y-127.64
X81.85Y-97.96
X82.06Y-107.65
X82.11Y-150.07
X82.11Y-151.03
X82.134Y-101.728
X82.17Y-116.0
X82.21Y-146.04
X82.26Y-123.64
X82.39Y-136.22
X82.48Y-154.38
X82.562Y-147.275
X82.62Y-138.02
X82.89Y-160.17
X82.93Y-117.68
X83.04Y-107.63
X83.16Y-103.66
X83.21Y-143.82
X83.22Y-123.64
X83.24Y-98.22
X83.25Y-102.61
X83.338Y-140.303
X83.36Y-139.28
X83.46Y-146.872
X83.51Y-129.57
X83.59Y-117.74
X83.6Y-112.97
X83.64Y-110.24
X83.67Y-150.07
X83.76Y-105.978
X83.76Y-160.245
X83.77Y-159.15
X84.06Y-107.65
X84.2Y-138.11
X84.21Y-100.09
X84.28Y-100.69
X84.47Y-118.06
X84.56Y-157.77
X84.67Y-101.72
X84.73Y-165.65
X84.77Y-166.37
X84.88Y-107.77
X84.892Y-160.072
X84.9Y-103.4
X84.92Y-144.49
X84.96Y-162.023
X84.96Y-164.6
X84.99Y-102.57
X85.06Y-146.49
X85.1Y-96.95
X85.16Y-105.555
X85.22Y-143.08
X85.23Y-136.95
X85.29Y-147.39
X85.348Y-98.504
X85.41Y-99.92
X85.51Y-105.983
X85.77Y-145.46
X85.97Y-115.17
X85.99Y-142.896
X86.11Y-164.67
X86.128Y-144.59
X86.3Y-137.88
X86.32Y-105.11
X86.36Y-105.85
X86.42Y-124.56
X86.582Y-150.224
X86.69Y-142.24
X86.72Y-142.89
X86.84Y-144.55
X86.855Y-102.39
X86.87Y-117.605
X86.87Y-145.28
X86.91Y-103.0
X87.01Y-107.88
X87.02Y-144.03
X87.022Y-143.38
X87.2Y-157.78
X87.26Y-106.04
X87.34Y-118.07
X87.35Y-126.02
X87.37Y-165.11
X87.46Y-105.38
X87.6Y-113.41
X87.61Y-115.91
X87.63Y-114.63
X87.635Y-109.322
X87.635Y-111.7
X87.635Y-115.21
X87.65Y-112.28
X87.66Y-114.12
X87.728Y-111.209
X87.73Y-146.65
X87.885Y-112.997
X87.96Y-159.66
X88.01Y-101.14
X88.05Y-141.47
X88.05Y-157.82
X88.103Y-110.18
X88.23Y-98.63
X88.32Y-134.17
X88.69Y-100.27
X88.744Y-96.821
X88.917Y-110.53
X89.07Y-157.9
X89.07Y-158.83
X89.08Y-159.76
X89.09Y-129.88
X89.15Y-101.77
X89.451Y-115.431
X89.51Y-116.22
X89.6Y-114.68
X89.67Y-113.83
X89.74Y-105.77
X89.76Y-123.0
X89.81Y-112.86
X89.85Y-117.74
X89.85Y-138.32
X89.91Y-96.98
X89.94Y-133.25
X89.95Y-147.34
X90.0Y-109.94
X90.01Y-110.93
X90.01Y-157.91
X90.01Y-159.79
X90.025Y-126.87
X90.025Y-127.87
X90.04Y-111.74
X90.05Y-158.74
X90.07Y-114.508
X90.12Y-115.35
X90.14Y-140.58
X90.27Y-105.11
X90.293Y-137.705
X90.31Y-125.59
X90.346Y-117.801
X90.35Y-123.29
X90.36Y-144.5
X90.58Y-109.93
X90.6Y-146.39
X90.63Y-113.83
X90.68Y-158.28
X90.7Y-159.38
X90.84Y-132.57
X90.84Y-133.25
X90.93Y-108.55
X91.19Y-127.87
X91.24Y-126.22
X91.24Y-126.87
X91.26Y-143.73
X91.32Y-117.83
X91.47Y-132.76
X91.66Y-138.55
X91.67Y-139.06
X91.7Y-123.88
X91.71Y-112.82
X91.77Y-139.57
X91.79Y-102.25
X91.89Y-133.382
X92.04Y-107.27
X92.05Y-106.56
X92.08Y-126.83
X92.16Y-164.8
X92.19Y-164.16
X92.21Y-157.22
X92.22Y-160.96
X92.22Y-161.66
X92.27Y-156.6
X92.28Y-102.82
X92.4Y-132.8
X92.55Y-123.83
X92.855Y-107.075
X92.87Y-134.98
X92.87Y-146.46
X92.87Y-148.22
X92.882Y-147.56
X92.95Y-154.99
X93.02Y-126.57
X93.1Y-132.73
X93.105Y-142.965
X93.11Y-123.522
X93.28Y-105.23
X93.31Y-141.864
X93.4Y-107.48
X93.71Y-127.84
X93.75Y-110.96
X93.82Y-165.88
X93.83Y-165.17
X93.9Y-110.1
X94.11Y-159.45
X94.13Y-162.94
X94.27Y-155.93
T2
X75.849Y-117.632
T3
X79.57Y-136.73
X88.07Y-136.73
T4
X75.22Y-99.14
X75.22Y-121.64
X75.22Y-130.5
X75.22Y-153.0
X91.97Y-99.14
X91.97Y-121.64
X91.97Y-130.5
X91.97Y-153.0
M30
