%TF.GenerationSoftware,KiCad,Pcbnew,10.0.3*%
%TF.CreationDate,2026-06-18T05:37:39-04:00*%
%TF.ProjectId,TinkerRocket Full V8,54696e6b-6572-4526-9f63-6b6574204675,rev?*%
%TF.SameCoordinates,Original*%
%TF.FileFunction,Soldermask,Bot*%
%TF.FilePolarity,Negative*%
%FSLAX46Y46*%
G04 Gerber Fmt 4.6, Leading zero omitted, Abs format (unit mm)*
G04 Created by KiCad (PCBNEW 10.0.3) date 2026-06-18 05:37:39*
%MOMM*%
%LPD*%
G01*
G04 APERTURE LIST*
G04 Aperture macros list*
%AMRoundRect*
0 Rectangle with rounded corners*
0 $1 Rounding radius*
0 $2 $3 $4 $5 $6 $7 $8 $9 X,Y pos of 4 corners*
0 Add a 4 corners polygon primitive as box body*
4,1,4,$2,$3,$4,$5,$6,$7,$8,$9,$2,$3,0*
0 Add four circle primitives for the rounded corners*
1,1,$1+$1,$2,$3*
1,1,$1+$1,$4,$5*
1,1,$1+$1,$6,$7*
1,1,$1+$1,$8,$9*
0 Add four rect primitives between the rounded corners*
20,1,$1+$1,$2,$3,$4,$5,0*
20,1,$1+$1,$4,$5,$6,$7,0*
20,1,$1+$1,$6,$7,$8,$9,0*
20,1,$1+$1,$8,$9,$2,$3,0*%
G04 Aperture macros list end*
%ADD10C,0.000000*%
%ADD11C,0.010000*%
%ADD12C,2.600000*%
%ADD13C,3.800000*%
%ADD14C,0.650000*%
%ADD15RoundRect,0.135000X-0.135000X-0.185000X0.135000X-0.185000X0.135000X0.185000X-0.135000X0.185000X0*%
%ADD16RoundRect,0.200000X0.275000X-0.200000X0.275000X0.200000X-0.275000X0.200000X-0.275000X-0.200000X0*%
%ADD17R,0.850000X0.280000*%
%ADD18R,0.280000X0.850000*%
%ADD19RoundRect,0.140000X-0.170000X0.140000X-0.170000X-0.140000X0.170000X-0.140000X0.170000X0.140000X0*%
%ADD20RoundRect,0.050000X0.500000X1.500000X-0.500000X1.500000X-0.500000X-1.500000X0.500000X-1.500000X0*%
%ADD21RoundRect,0.135000X-0.185000X0.135000X-0.185000X-0.135000X0.185000X-0.135000X0.185000X0.135000X0*%
%ADD22RoundRect,0.135000X0.135000X0.185000X-0.135000X0.185000X-0.135000X-0.185000X0.135000X-0.185000X0*%
%ADD23R,0.762000X0.355600*%
%ADD24RoundRect,0.250000X0.650000X-0.325000X0.650000X0.325000X-0.650000X0.325000X-0.650000X-0.325000X0*%
%ADD25R,0.508000X0.355600*%
%ADD26R,0.381000X0.660400*%
%ADD27R,2.500000X2.500000*%
%ADD28R,0.355600X0.508000*%
%ADD29RoundRect,0.050000X-0.315000X-0.250000X0.315000X-0.250000X0.315000X0.250000X-0.315000X0.250000X0*%
%ADD30RoundRect,0.150000X0.150000X0.625000X-0.150000X0.625000X-0.150000X-0.625000X0.150000X-0.625000X0*%
%ADD31RoundRect,0.250000X0.350000X0.650000X-0.350000X0.650000X-0.350000X-0.650000X0.350000X-0.650000X0*%
%ADD32RoundRect,0.102000X0.500000X2.750000X-0.500000X2.750000X-0.500000X-2.750000X0.500000X-2.750000X0*%
%ADD33RoundRect,0.102000X0.800000X1.500000X-0.800000X1.500000X-0.800000X-1.500000X0.800000X-1.500000X0*%
%ADD34C,2.000000*%
%ADD35R,0.355600X0.762000*%
%ADD36RoundRect,0.250000X0.325000X0.650000X-0.325000X0.650000X-0.325000X-0.650000X0.325000X-0.650000X0*%
%ADD37R,1.000000X0.599999*%
%ADD38RoundRect,0.102000X-0.800000X-2.000000X0.800000X-2.000000X0.800000X2.000000X-0.800000X2.000000X0*%
%ADD39RoundRect,0.102000X0.500000X0.485000X-0.500000X0.485000X-0.500000X-0.485000X0.500000X-0.485000X0*%
%ADD40R,2.499995X2.560396*%
%ADD41RoundRect,0.225000X-0.250000X0.225000X-0.250000X-0.225000X0.250000X-0.225000X0.250000X0.225000X0*%
%ADD42R,1.549400X0.660400*%
%ADD43R,1.905000X1.295400*%
%ADD44RoundRect,0.250000X-0.250000X-0.475000X0.250000X-0.475000X0.250000X0.475000X-0.250000X0.475000X0*%
%ADD45RoundRect,0.135000X0.185000X-0.135000X0.185000X0.135000X-0.185000X0.135000X-0.185000X-0.135000X0*%
%ADD46C,1.041400*%
%ADD47R,0.990600X2.743200*%
%ADD48RoundRect,0.140000X-0.140000X-0.170000X0.140000X-0.170000X0.140000X0.170000X-0.140000X0.170000X0*%
%ADD49RoundRect,0.150000X-0.625000X0.150000X-0.625000X-0.150000X0.625000X-0.150000X0.625000X0.150000X0*%
%ADD50RoundRect,0.250000X-0.650000X0.350000X-0.650000X-0.350000X0.650000X-0.350000X0.650000X0.350000X0*%
%ADD51RoundRect,0.045000X-0.435000X-0.135000X0.435000X-0.135000X0.435000X0.135000X-0.435000X0.135000X0*%
%ADD52RoundRect,0.045000X-0.135000X-0.435000X0.135000X-0.435000X0.135000X0.435000X-0.135000X0.435000X0*%
%ADD53RoundRect,0.050000X-0.840000X-0.840000X0.840000X-0.840000X0.840000X0.840000X-0.840000X0.840000X0*%
%ADD54RoundRect,0.225000X-0.225000X-0.250000X0.225000X-0.250000X0.225000X0.250000X-0.225000X0.250000X0*%
G04 APERTURE END LIST*
D10*
%TO.C,U8*%
G36*
X90649407Y-143174598D02*
G01*
X89660216Y-143174598D01*
X89660216Y-142755404D01*
X90649407Y-142755404D01*
X90649407Y-143174598D01*
G37*
G36*
X90649407Y-143674597D02*
G01*
X89660216Y-143674597D01*
X89660216Y-143255406D01*
X90649407Y-143255406D01*
X90649407Y-143674597D01*
G37*
G36*
X90649407Y-144174596D02*
G01*
X89660216Y-144174596D01*
X89660216Y-143755405D01*
X90649407Y-143755405D01*
X90649407Y-144174596D01*
G37*
G36*
X90649407Y-144674598D02*
G01*
X89660216Y-144674598D01*
X89660216Y-144255404D01*
X90649407Y-144255404D01*
X90649407Y-144674598D01*
G37*
G36*
X91036111Y-144628501D02*
G01*
X90716311Y-144628501D01*
X90716311Y-142801501D01*
X91036111Y-142801501D01*
X91036111Y-144628501D01*
G37*
G36*
X91089218Y-142734597D02*
G01*
X90670026Y-142734597D01*
X90670026Y-141745406D01*
X91089218Y-141745406D01*
X91089218Y-142734597D01*
G37*
G36*
X91089218Y-145684596D02*
G01*
X90670026Y-145684596D01*
X90670026Y-144695405D01*
X91089218Y-144695405D01*
X91089218Y-145684596D01*
G37*
G36*
X91823511Y-144628501D02*
G01*
X91436111Y-144628501D01*
X91436111Y-142801501D01*
X91823511Y-142801501D01*
X91823511Y-144628501D01*
G37*
G36*
X91589344Y-142734597D02*
G01*
X91170152Y-142734597D01*
X91170152Y-141745406D01*
X91589344Y-141745406D01*
X91589344Y-142734597D01*
G37*
G36*
X91589344Y-145684596D02*
G01*
X91170152Y-145684596D01*
X91170152Y-144695405D01*
X91589344Y-144695405D01*
X91589344Y-145684596D01*
G37*
G36*
X92089470Y-142734597D02*
G01*
X91670278Y-142734597D01*
X91670278Y-141745406D01*
X92089470Y-141745406D01*
X92089470Y-142734597D01*
G37*
G36*
X92089470Y-145684596D02*
G01*
X91670278Y-145684596D01*
X91670278Y-144695405D01*
X92089470Y-144695405D01*
X92089470Y-145684596D01*
G37*
G36*
X92543311Y-143121301D02*
G01*
X90716311Y-143121301D01*
X90716311Y-142801501D01*
X92543311Y-142801501D01*
X92543311Y-143121301D01*
G37*
G36*
X92543311Y-144628501D02*
G01*
X92223511Y-144628501D01*
X92223511Y-142801501D01*
X92543311Y-142801501D01*
X92543311Y-144628501D01*
G37*
G36*
X92543311Y-143908701D02*
G01*
X90716311Y-143908701D01*
X90716311Y-143521301D01*
X92543311Y-143521301D01*
X92543311Y-143908701D01*
G37*
G36*
X92543311Y-144628501D02*
G01*
X90716311Y-144628501D01*
X90716311Y-144308701D01*
X92543311Y-144308701D01*
X92543311Y-144628501D01*
G37*
G36*
X92589596Y-142734597D02*
G01*
X92170404Y-142734597D01*
X92170404Y-141745406D01*
X92589596Y-141745406D01*
X92589596Y-142734597D01*
G37*
G36*
X92589596Y-145684596D02*
G01*
X92170404Y-145684596D01*
X92170404Y-144695405D01*
X92589596Y-144695405D01*
X92589596Y-145684596D01*
G37*
G36*
X93599406Y-143174598D02*
G01*
X92610215Y-143174598D01*
X92610215Y-142755404D01*
X93599406Y-142755404D01*
X93599406Y-143174598D01*
G37*
G36*
X93599406Y-143674597D02*
G01*
X92610215Y-143674597D01*
X92610215Y-143255406D01*
X93599406Y-143255406D01*
X93599406Y-143674597D01*
G37*
G36*
X93599406Y-144174596D02*
G01*
X92610215Y-144174596D01*
X92610215Y-143755405D01*
X93599406Y-143755405D01*
X93599406Y-144174596D01*
G37*
G36*
X93599406Y-144674598D02*
G01*
X92610215Y-144674598D01*
X92610215Y-144255404D01*
X93599406Y-144255404D01*
X93599406Y-144674598D01*
G37*
D11*
%TO.C,Q4*%
X86205136Y-141175000D02*
X88631644Y-141175000D01*
X88638382Y-138625069D01*
X86204862Y-138615980D01*
X86205136Y-141175000D01*
G36*
X88638382Y-138625069D02*
G01*
X88631644Y-141175000D01*
X86205136Y-141175000D01*
X86204862Y-138615980D01*
X88638382Y-138625069D01*
G37*
%TO.C,Q10*%
X85570000Y-98380000D02*
X86100000Y-98380000D01*
X86100000Y-97930000D01*
X85570000Y-97930000D01*
X85570000Y-98380000D01*
G36*
X86100000Y-98380000D02*
G01*
X85570000Y-98380000D01*
X85570000Y-97930000D01*
X86100000Y-97930000D01*
X86100000Y-98380000D01*
G37*
X85570000Y-99030000D02*
X86100000Y-99030000D01*
X86100000Y-98580000D01*
X85570000Y-98580000D01*
X85570000Y-99030000D01*
G36*
X86100000Y-99030000D02*
G01*
X85570000Y-99030000D01*
X85570000Y-98580000D01*
X86100000Y-98580000D01*
X86100000Y-99030000D01*
G37*
X85570000Y-99680000D02*
X86100000Y-99680000D01*
X86100000Y-99230000D01*
X85570000Y-99230000D01*
X85570000Y-99680000D01*
G36*
X86100000Y-99680000D02*
G01*
X85570000Y-99680000D01*
X85570000Y-99230000D01*
X86100000Y-99230000D01*
X86100000Y-99680000D01*
G37*
X86170000Y-99765000D02*
X87370000Y-99765000D01*
X87370000Y-98415000D01*
X86170000Y-98415000D01*
X86170000Y-99765000D01*
G36*
X87370000Y-99765000D02*
G01*
X86170000Y-99765000D01*
X86170000Y-98415000D01*
X87370000Y-98415000D01*
X87370000Y-99765000D01*
G37*
X86390000Y-98255000D02*
X87150000Y-98255000D01*
X87150000Y-97805000D01*
X86390000Y-97805000D01*
X86390000Y-98255000D01*
G36*
X87150000Y-98255000D02*
G01*
X86390000Y-98255000D01*
X86390000Y-97805000D01*
X87150000Y-97805000D01*
X87150000Y-98255000D01*
G37*
X87440000Y-98380000D02*
X87970000Y-98380000D01*
X87970000Y-97930000D01*
X87440000Y-97930000D01*
X87440000Y-98380000D01*
G36*
X87970000Y-98380000D02*
G01*
X87440000Y-98380000D01*
X87440000Y-97930000D01*
X87970000Y-97930000D01*
X87970000Y-98380000D01*
G37*
X87440000Y-99030000D02*
X87970000Y-99030000D01*
X87970000Y-98580000D01*
X87440000Y-98580000D01*
X87440000Y-99030000D01*
G36*
X87970000Y-99030000D02*
G01*
X87440000Y-99030000D01*
X87440000Y-98580000D01*
X87970000Y-98580000D01*
X87970000Y-99030000D01*
G37*
X87440000Y-99680000D02*
X87970000Y-99680000D01*
X87970000Y-99230000D01*
X87440000Y-99230000D01*
X87440000Y-99680000D01*
G36*
X87970000Y-99680000D02*
G01*
X87440000Y-99680000D01*
X87440000Y-99230000D01*
X87970000Y-99230000D01*
X87970000Y-99680000D01*
G37*
%TO.C,Q3*%
X91895000Y-124645000D02*
X92425000Y-124645000D01*
X92425000Y-124195000D01*
X91895000Y-124195000D01*
X91895000Y-124645000D01*
G36*
X92425000Y-124645000D02*
G01*
X91895000Y-124645000D01*
X91895000Y-124195000D01*
X92425000Y-124195000D01*
X92425000Y-124645000D01*
G37*
X91895000Y-125295000D02*
X92425000Y-125295000D01*
X92425000Y-124845000D01*
X91895000Y-124845000D01*
X91895000Y-125295000D01*
G36*
X92425000Y-125295000D02*
G01*
X91895000Y-125295000D01*
X91895000Y-124845000D01*
X92425000Y-124845000D01*
X92425000Y-125295000D01*
G37*
X91895000Y-125945000D02*
X92425000Y-125945000D01*
X92425000Y-125495000D01*
X91895000Y-125495000D01*
X91895000Y-125945000D01*
G36*
X92425000Y-125945000D02*
G01*
X91895000Y-125945000D01*
X91895000Y-125495000D01*
X92425000Y-125495000D01*
X92425000Y-125945000D01*
G37*
X92495000Y-126030000D02*
X93695000Y-126030000D01*
X93695000Y-124680000D01*
X92495000Y-124680000D01*
X92495000Y-126030000D01*
G36*
X93695000Y-126030000D02*
G01*
X92495000Y-126030000D01*
X92495000Y-124680000D01*
X93695000Y-124680000D01*
X93695000Y-126030000D01*
G37*
X92715000Y-124520000D02*
X93475000Y-124520000D01*
X93475000Y-124070000D01*
X92715000Y-124070000D01*
X92715000Y-124520000D01*
G36*
X93475000Y-124520000D02*
G01*
X92715000Y-124520000D01*
X92715000Y-124070000D01*
X93475000Y-124070000D01*
X93475000Y-124520000D01*
G37*
X93765000Y-124645000D02*
X94295000Y-124645000D01*
X94295000Y-124195000D01*
X93765000Y-124195000D01*
X93765000Y-124645000D01*
G36*
X94295000Y-124645000D02*
G01*
X93765000Y-124645000D01*
X93765000Y-124195000D01*
X94295000Y-124195000D01*
X94295000Y-124645000D01*
G37*
X93765000Y-125295000D02*
X94295000Y-125295000D01*
X94295000Y-124845000D01*
X93765000Y-124845000D01*
X93765000Y-125295000D01*
G36*
X94295000Y-125295000D02*
G01*
X93765000Y-125295000D01*
X93765000Y-124845000D01*
X94295000Y-124845000D01*
X94295000Y-125295000D01*
G37*
X93765000Y-125945000D02*
X94295000Y-125945000D01*
X94295000Y-125495000D01*
X93765000Y-125495000D01*
X93765000Y-125945000D01*
G36*
X94295000Y-125945000D02*
G01*
X93765000Y-125945000D01*
X93765000Y-125495000D01*
X94295000Y-125495000D01*
X94295000Y-125945000D01*
G37*
%TO.C,Q9*%
X73230000Y-108830000D02*
X72700000Y-108830000D01*
X72700000Y-109280000D01*
X73230000Y-109280000D01*
X73230000Y-108830000D01*
G36*
X73230000Y-109280000D02*
G01*
X72700000Y-109280000D01*
X72700000Y-108830000D01*
X73230000Y-108830000D01*
X73230000Y-109280000D01*
G37*
X73230000Y-109480000D02*
X72700000Y-109480000D01*
X72700000Y-109930000D01*
X73230000Y-109930000D01*
X73230000Y-109480000D01*
G36*
X73230000Y-109930000D02*
G01*
X72700000Y-109930000D01*
X72700000Y-109480000D01*
X73230000Y-109480000D01*
X73230000Y-109930000D01*
G37*
X73230000Y-110130000D02*
X72700000Y-110130000D01*
X72700000Y-110580000D01*
X73230000Y-110580000D01*
X73230000Y-110130000D01*
G36*
X73230000Y-110580000D02*
G01*
X72700000Y-110580000D01*
X72700000Y-110130000D01*
X73230000Y-110130000D01*
X73230000Y-110580000D01*
G37*
X74280000Y-110255000D02*
X73520000Y-110255000D01*
X73520000Y-110705000D01*
X74280000Y-110705000D01*
X74280000Y-110255000D01*
G36*
X74280000Y-110705000D02*
G01*
X73520000Y-110705000D01*
X73520000Y-110255000D01*
X74280000Y-110255000D01*
X74280000Y-110705000D01*
G37*
X74500000Y-108745000D02*
X73300000Y-108745000D01*
X73300000Y-110095000D01*
X74500000Y-110095000D01*
X74500000Y-108745000D01*
G36*
X74500000Y-110095000D02*
G01*
X73300000Y-110095000D01*
X73300000Y-108745000D01*
X74500000Y-108745000D01*
X74500000Y-110095000D01*
G37*
X75100000Y-108830000D02*
X74570000Y-108830000D01*
X74570000Y-109280000D01*
X75100000Y-109280000D01*
X75100000Y-108830000D01*
G36*
X75100000Y-109280000D02*
G01*
X74570000Y-109280000D01*
X74570000Y-108830000D01*
X75100000Y-108830000D01*
X75100000Y-109280000D01*
G37*
X75100000Y-109480000D02*
X74570000Y-109480000D01*
X74570000Y-109930000D01*
X75100000Y-109930000D01*
X75100000Y-109480000D01*
G36*
X75100000Y-109930000D02*
G01*
X74570000Y-109930000D01*
X74570000Y-109480000D01*
X75100000Y-109480000D01*
X75100000Y-109930000D01*
G37*
X75100000Y-110130000D02*
X74570000Y-110130000D01*
X74570000Y-110580000D01*
X75100000Y-110580000D01*
X75100000Y-110130000D01*
G36*
X75100000Y-110580000D02*
G01*
X74570000Y-110580000D01*
X74570000Y-110130000D01*
X75100000Y-110130000D01*
X75100000Y-110580000D01*
G37*
%TO.C,U2*%
X91200000Y-137635000D02*
X91200000Y-137335000D01*
X90500000Y-137335000D01*
X90500000Y-137635000D01*
X91200000Y-137635000D01*
G36*
X91200000Y-137635000D02*
G01*
X90500000Y-137635000D01*
X90500000Y-137335000D01*
X91200000Y-137335000D01*
X91200000Y-137635000D01*
G37*
X91200000Y-138135000D02*
X91200000Y-137835000D01*
X90500000Y-137835000D01*
X90500000Y-138135000D01*
X91200000Y-138135000D01*
G36*
X91200000Y-138135000D02*
G01*
X90500000Y-138135000D01*
X90500000Y-137835000D01*
X91200000Y-137835000D01*
X91200000Y-138135000D01*
G37*
X91200000Y-138635000D02*
X91200000Y-138335000D01*
X90500000Y-138335000D01*
X90500000Y-138635000D01*
X91200000Y-138635000D01*
G36*
X91200000Y-138635000D02*
G01*
X90500000Y-138635000D01*
X90500000Y-138335000D01*
X91200000Y-138335000D01*
X91200000Y-138635000D01*
G37*
X91200000Y-139135000D02*
X91200000Y-138835000D01*
X90500000Y-138835000D01*
X90500000Y-139135000D01*
X91200000Y-139135000D01*
G36*
X91200000Y-139135000D02*
G01*
X90500000Y-139135000D01*
X90500000Y-138835000D01*
X91200000Y-138835000D01*
X91200000Y-139135000D01*
G37*
X91900000Y-138135000D02*
X91900000Y-136985000D01*
X91400000Y-136985000D01*
X91400000Y-138135000D01*
X91900000Y-138135000D01*
G36*
X91900000Y-138135000D02*
G01*
X91400000Y-138135000D01*
X91400000Y-136985000D01*
X91900000Y-136985000D01*
X91900000Y-138135000D01*
G37*
X91900000Y-139485000D02*
X91900000Y-138335000D01*
X91400000Y-138335000D01*
X91400000Y-139485000D01*
X91900000Y-139485000D01*
G36*
X91900000Y-139485000D02*
G01*
X91400000Y-139485000D01*
X91400000Y-138335000D01*
X91900000Y-138335000D01*
X91900000Y-139485000D01*
G37*
X92600000Y-138135000D02*
X92600000Y-136985000D01*
X92100000Y-136985000D01*
X92100000Y-138135000D01*
X92600000Y-138135000D01*
G36*
X92600000Y-138135000D02*
G01*
X92100000Y-138135000D01*
X92100000Y-136985000D01*
X92600000Y-136985000D01*
X92600000Y-138135000D01*
G37*
X92600000Y-139485000D02*
X92600000Y-138335000D01*
X92100000Y-138335000D01*
X92100000Y-139485000D01*
X92600000Y-139485000D01*
G36*
X92600000Y-139485000D02*
G01*
X92100000Y-139485000D01*
X92100000Y-138335000D01*
X92600000Y-138335000D01*
X92600000Y-139485000D01*
G37*
X93500000Y-137635000D02*
X93500000Y-137335000D01*
X92800000Y-137335000D01*
X92800000Y-137635000D01*
X93500000Y-137635000D01*
G36*
X93500000Y-137635000D02*
G01*
X92800000Y-137635000D01*
X92800000Y-137335000D01*
X93500000Y-137335000D01*
X93500000Y-137635000D01*
G37*
X93500000Y-138135000D02*
X93500000Y-137835000D01*
X92800000Y-137835000D01*
X92800000Y-138135000D01*
X93500000Y-138135000D01*
G36*
X93500000Y-138135000D02*
G01*
X92800000Y-138135000D01*
X92800000Y-137835000D01*
X93500000Y-137835000D01*
X93500000Y-138135000D01*
G37*
X93500000Y-138635000D02*
X93500000Y-138335000D01*
X92800000Y-138335000D01*
X92800000Y-138635000D01*
X93500000Y-138635000D01*
G36*
X93500000Y-138635000D02*
G01*
X92800000Y-138635000D01*
X92800000Y-138335000D01*
X93500000Y-138335000D01*
X93500000Y-138635000D01*
G37*
X93500000Y-139135000D02*
X93500000Y-138835000D01*
X92800000Y-138835000D01*
X92800000Y-139135000D01*
X93500000Y-139135000D01*
G36*
X93500000Y-139135000D02*
G01*
X92800000Y-139135000D01*
X92800000Y-138835000D01*
X93500000Y-138835000D01*
X93500000Y-139135000D01*
G37*
%TD*%
D12*
%TO.C,H7*%
X75220000Y-121640000D03*
D13*
X75220000Y-121640000D03*
%TD*%
D14*
%TO.C,J1*%
X82140000Y-164680000D03*
X87920000Y-164680000D03*
%TD*%
D12*
%TO.C,H8*%
X91970000Y-121640000D03*
D13*
X91970000Y-121640000D03*
%TD*%
D12*
%TO.C,H2*%
X91970000Y-130500000D03*
D13*
X91970000Y-130500000D03*
%TD*%
D12*
%TO.C,H6*%
X91970000Y-99140000D03*
D13*
X91970000Y-99140000D03*
%TD*%
D12*
%TO.C,H3*%
X75220000Y-153000000D03*
D13*
X75220000Y-153000000D03*
%TD*%
D12*
%TO.C,H1*%
X75220000Y-130500000D03*
D13*
X75220000Y-130500000D03*
%TD*%
D12*
%TO.C,H5*%
X75220000Y-99140000D03*
D13*
X75220000Y-99140000D03*
%TD*%
D12*
%TO.C,H4*%
X91970000Y-153000000D03*
D13*
X91970000Y-153000000D03*
%TD*%
D15*
%TO.C,R93*%
X92800000Y-164180000D03*
X93820000Y-164180000D03*
%TD*%
D16*
%TO.C,R24*%
X88514812Y-144420002D03*
X88514812Y-142770002D03*
%TD*%
D17*
%TO.C,U8*%
X93104812Y-142965000D03*
X93104812Y-143465001D03*
X93104812Y-143965001D03*
X93104812Y-144465002D03*
D18*
X92380000Y-145190002D03*
X91879874Y-145190002D03*
X91379748Y-145190002D03*
X90879622Y-145190002D03*
D17*
X90154810Y-144465002D03*
X90154810Y-143965001D03*
X90154810Y-143465001D03*
X90154810Y-142965000D03*
D18*
X90879622Y-142240000D03*
X91379748Y-142240000D03*
X91879874Y-142240000D03*
X92380000Y-142240000D03*
%TD*%
D19*
%TO.C,C15*%
X89950000Y-146380000D03*
X89950000Y-147340000D03*
%TD*%
%TO.C,C78*%
X84370000Y-140030000D03*
X84370000Y-140990000D03*
%TD*%
D15*
%TO.C,R67*%
X77800000Y-110460000D03*
X78820000Y-110460000D03*
%TD*%
%TO.C,R41*%
X92080000Y-127820000D03*
X93100000Y-127820000D03*
%TD*%
D19*
%TO.C,C77*%
X78540000Y-139080000D03*
X78540000Y-140040000D03*
%TD*%
D20*
%TO.C,L2*%
X80690000Y-113900000D03*
X78690000Y-113900000D03*
%TD*%
D21*
%TO.C,R61*%
X83620000Y-141930000D03*
X83620000Y-142950000D03*
%TD*%
D22*
%TO.C,R64*%
X85800000Y-142270000D03*
X84780000Y-142270000D03*
%TD*%
D23*
%TO.C,Q7*%
X73323800Y-137219999D03*
X73323800Y-136220001D03*
X74670000Y-136720000D03*
%TD*%
D24*
%TO.C,C81*%
X79880000Y-145785000D03*
X79880000Y-142835000D03*
%TD*%
D16*
%TO.C,R69*%
X78460000Y-134955000D03*
X78460000Y-133305000D03*
%TD*%
D21*
%TO.C,R85*%
X74160000Y-145640000D03*
X74160000Y-146660000D03*
%TD*%
%TO.C,R16*%
X94180000Y-136950000D03*
X94180000Y-137970000D03*
%TD*%
D15*
%TO.C,R92*%
X92830000Y-160700000D03*
X93850000Y-160700000D03*
%TD*%
D25*
%TO.C,D11*%
X92529900Y-162940000D03*
X94130100Y-162940000D03*
%TD*%
D26*
%TO.C,U9*%
X75730002Y-140600000D03*
X76380000Y-140600000D03*
X77030002Y-140600000D03*
X77680000Y-140600000D03*
D27*
X76715001Y-142658000D03*
D26*
X77680000Y-144156000D03*
X77030002Y-144156000D03*
X76380000Y-144156000D03*
X75730002Y-144156000D03*
%TD*%
D15*
%TO.C,R73*%
X87670000Y-97060000D03*
X88690000Y-97060000D03*
%TD*%
%TO.C,R86*%
X75730000Y-136700000D03*
X76750000Y-136700000D03*
%TD*%
D28*
%TO.C,D2*%
X74150000Y-149280000D03*
X74150000Y-147679800D03*
%TD*%
D26*
%TO.C,U7*%
X75830002Y-146190000D03*
X76480000Y-146190000D03*
X77130002Y-146190000D03*
X77780000Y-146190000D03*
D27*
X76815001Y-148248000D03*
D26*
X77780000Y-149746000D03*
X77130002Y-149746000D03*
X76480000Y-149746000D03*
X75830002Y-149746000D03*
%TD*%
D21*
%TO.C,R47*%
X84200000Y-138110000D03*
X84200000Y-139130000D03*
%TD*%
D15*
%TO.C,R31*%
X92920000Y-158190000D03*
X93940000Y-158190000D03*
%TD*%
D22*
%TO.C,R29*%
X74860000Y-150340000D03*
X73840000Y-150340000D03*
%TD*%
D23*
%TO.C,Q6*%
X93830000Y-149330002D03*
X93830000Y-150330000D03*
X92483800Y-149830001D03*
%TD*%
D29*
%TO.C,Q4*%
X85390000Y-140870000D03*
X85390000Y-140220000D03*
X85390000Y-139570000D03*
X85390000Y-138920000D03*
%TD*%
D26*
%TO.C,U24*%
X79500002Y-150790000D03*
X80150000Y-150790000D03*
X80800002Y-150790000D03*
X81450000Y-150790000D03*
D27*
X80485001Y-152848000D03*
D26*
X81450000Y-154346000D03*
X80800002Y-154346000D03*
X80150000Y-154346000D03*
X79500002Y-154346000D03*
%TD*%
D22*
%TO.C,R43*%
X94030000Y-147560000D03*
X93010000Y-147560000D03*
%TD*%
D26*
%TO.C,U25*%
X83240002Y-150760000D03*
X83890000Y-150760000D03*
X84540002Y-150760000D03*
X85190000Y-150760000D03*
D27*
X84225001Y-152818000D03*
D26*
X85190000Y-154316000D03*
X84540002Y-154316000D03*
X83890000Y-154316000D03*
X83240002Y-154316000D03*
%TD*%
D30*
%TO.C,J9*%
X82920000Y-100415000D03*
X81920000Y-100415000D03*
X80920000Y-100415000D03*
X79920000Y-100415000D03*
D31*
X84220000Y-97890000D03*
X78620000Y-97890000D03*
%TD*%
D19*
%TO.C,C7*%
X94200000Y-138850000D03*
X94200000Y-139810000D03*
%TD*%
D32*
%TO.C,J2*%
X82650000Y-129270000D03*
X80650000Y-129270000D03*
D33*
X85050000Y-127020000D03*
X78250000Y-127020000D03*
%TD*%
D34*
%TO.C,C13*%
X79570000Y-136730000D03*
X88070000Y-136730000D03*
%TD*%
D22*
%TO.C,R23*%
X94034812Y-146455002D03*
X93014812Y-146455002D03*
%TD*%
D15*
%TO.C,R42*%
X92080000Y-126830000D03*
X93100000Y-126830000D03*
%TD*%
D24*
%TO.C,C82*%
X82240000Y-149190000D03*
X82240000Y-146240000D03*
%TD*%
D16*
%TO.C,R71*%
X75460000Y-134955000D03*
X75460000Y-133305000D03*
%TD*%
D22*
%TO.C,R17*%
X81030000Y-111650000D03*
X80010000Y-111650000D03*
%TD*%
%TO.C,R68*%
X76900000Y-110470000D03*
X75880000Y-110470000D03*
%TD*%
D25*
%TO.C,D9*%
X92509900Y-159440000D03*
X94110100Y-159440000D03*
%TD*%
D22*
%TO.C,R74*%
X86790000Y-97070000D03*
X85770000Y-97070000D03*
%TD*%
D15*
%TO.C,R91*%
X92920000Y-157220000D03*
X93940000Y-157220000D03*
%TD*%
D35*
%TO.C,Q2*%
X74320000Y-143830000D03*
X73320002Y-143830000D03*
X73820001Y-142483800D03*
%TD*%
D23*
%TO.C,Q5*%
X84853800Y-144319999D03*
X84853800Y-143320001D03*
X86200000Y-143820000D03*
%TD*%
D16*
%TO.C,R70*%
X76970000Y-134960000D03*
X76970000Y-133310000D03*
%TD*%
D36*
%TO.C,C88*%
X76365000Y-138930000D03*
X73415000Y-138930000D03*
%TD*%
D37*
%TO.C,U20*%
X82540000Y-138740000D03*
X82540000Y-139690001D03*
X82540000Y-140639999D03*
X79790000Y-140639999D03*
X79790000Y-138740000D03*
%TD*%
D38*
%TO.C,J4*%
X75550000Y-159570000D03*
X75550000Y-168870000D03*
X79050000Y-159570000D03*
X79050000Y-168870000D03*
X82550000Y-159570000D03*
X82550000Y-168870000D03*
X86050000Y-159570000D03*
X86050000Y-168870000D03*
X89550000Y-159570000D03*
X89550000Y-168870000D03*
%TD*%
D15*
%TO.C,R7*%
X90920000Y-136250000D03*
X91940000Y-136250000D03*
%TD*%
%TO.C,R11*%
X90790000Y-140290000D03*
X91810000Y-140290000D03*
%TD*%
D39*
%TO.C,FL2*%
X87175000Y-100840000D03*
X85705000Y-100840000D03*
%TD*%
D15*
%TO.C,R22*%
X91130000Y-146460000D03*
X92150000Y-146460000D03*
%TD*%
D40*
%TO.C,C10*%
X92150000Y-110910000D03*
X92150000Y-116254388D03*
%TD*%
D20*
%TO.C,L9*%
X88800000Y-113400000D03*
X86800000Y-113400000D03*
%TD*%
D41*
%TO.C,C89*%
X88950000Y-99495000D03*
X88950000Y-101045000D03*
%TD*%
D25*
%TO.C,D7*%
X92499900Y-155930000D03*
X94100100Y-155930000D03*
%TD*%
D22*
%TO.C,R66*%
X91350000Y-149810000D03*
X90330000Y-149810000D03*
%TD*%
D42*
%TO.C,J3*%
X73495001Y-117360003D03*
X73495001Y-116360003D03*
X73495001Y-115360002D03*
X73495001Y-114360001D03*
X73495001Y-113360001D03*
D43*
X76020000Y-112060004D03*
X76020000Y-118660000D03*
%TD*%
D44*
%TO.C,C16*%
X86810000Y-116160000D03*
X88710000Y-116160000D03*
%TD*%
D45*
%TO.C,R62*%
X82390000Y-137240000D03*
X82390000Y-136220000D03*
%TD*%
D21*
%TO.C,R12*%
X89760000Y-139020000D03*
X89760000Y-140040000D03*
%TD*%
D46*
%TO.C,J5*%
X79060001Y-105525398D03*
X91059997Y-105525398D03*
D47*
X78060000Y-103400000D03*
X78060000Y-107649999D03*
X80059999Y-103400000D03*
X80059999Y-107649999D03*
X82060000Y-103400000D03*
X82060000Y-107649999D03*
X84059998Y-103400000D03*
X84059998Y-107649999D03*
X86060000Y-103400000D03*
X86060000Y-107649999D03*
X88059998Y-103400000D03*
X88059998Y-107649999D03*
X90059999Y-103400000D03*
X90059999Y-107649999D03*
X92060000Y-103400000D03*
X92060000Y-107649999D03*
%TD*%
D16*
%TO.C,R72*%
X73970000Y-134960000D03*
X73970000Y-133310000D03*
%TD*%
D26*
%TO.C,U26*%
X86930002Y-150810000D03*
X87580000Y-150810000D03*
X88230002Y-150810000D03*
X88880000Y-150810000D03*
D27*
X87915001Y-152868000D03*
D26*
X88880000Y-154366000D03*
X88230002Y-154366000D03*
X87580000Y-154366000D03*
X86930002Y-154366000D03*
%TD*%
D48*
%TO.C,C17*%
X86180000Y-111130000D03*
X87140000Y-111130000D03*
%TD*%
D49*
%TO.C,J6*%
X90025000Y-124870000D03*
X90025000Y-125870000D03*
X90025000Y-126870000D03*
X90025000Y-127870000D03*
D50*
X87500000Y-123570000D03*
X87500000Y-129170000D03*
%TD*%
D15*
%TO.C,R40*%
X73370000Y-141300000D03*
X74390000Y-141300000D03*
%TD*%
D36*
%TO.C,C9*%
X76200000Y-127030000D03*
X73250000Y-127030000D03*
%TD*%
D22*
%TO.C,R39*%
X82530000Y-142280000D03*
X81510000Y-142280000D03*
%TD*%
D51*
%TO.C,U10*%
X82165000Y-114295000D03*
X82165000Y-113795000D03*
X82165000Y-113295000D03*
X82165000Y-112795000D03*
D52*
X82850000Y-112110000D03*
X83350000Y-112110000D03*
X83850000Y-112110000D03*
X84350000Y-112110000D03*
D51*
X85035000Y-112795000D03*
X85035000Y-113295000D03*
X85035000Y-113795000D03*
X85035000Y-114295000D03*
D52*
X84350000Y-114980000D03*
X83850000Y-114980000D03*
X83350000Y-114980000D03*
X82850000Y-114980000D03*
D53*
X83600000Y-113545000D03*
%TD*%
D22*
%TO.C,R8*%
X91920000Y-135250000D03*
X90900000Y-135250000D03*
%TD*%
D24*
%TO.C,C84*%
X86890000Y-149170000D03*
X86890000Y-146220000D03*
%TD*%
D23*
%TO.C,Q1*%
X81723800Y-144319999D03*
X81723800Y-143320001D03*
X83070000Y-143820000D03*
%TD*%
D15*
%TO.C,R78*%
X83360000Y-137180000D03*
X84380000Y-137180000D03*
%TD*%
D24*
%TO.C,C83*%
X84590000Y-149190000D03*
X84590000Y-146240000D03*
%TD*%
D15*
%TO.C,R34*%
X92810000Y-165170000D03*
X93830000Y-165170000D03*
%TD*%
D54*
%TO.C,C24*%
X78645000Y-116410000D03*
X80195000Y-116410000D03*
%TD*%
D15*
%TO.C,R32*%
X92840000Y-161680000D03*
X93860000Y-161680000D03*
%TD*%
M02*
