M48
; DRILL file KiCad 10.0.3 date 2026-06-13T07:37:28
; FORMAT={-:-/ absolute / metric / decimal}
; #@! TF.CreationDate,2026-06-13T07:37:28-04:00
; #@! TF.GenerationSoftware,Kicad,Pcbnew,10.0.3
; #@! TF.FileFunction,Plated,1,4,PTH
FMAT,2
METRIC
; #@! TA.AperFunction,Plated,PTH,ViaDrill
T1C0.300
; #@! TA.AperFunction,Plated,PTH,ViaDrill
T2C0.500
; #@! TA.AperFunction,Plated,PTH,ComponentDrill
T3C0.900
; #@! TA.AperFunction,Plated,PTH,ComponentDrill
T4C0.950
; #@! TA.AperFunction,Plated,PTH,ComponentDrill
T5C1.000
; #@! TA.AperFunction,Plated,PTH,ComponentDrill
T6C1.100
; #@! TA.AperFunction,Plated,PTH,ComponentDrill
T7C1.320
; #@! TA.AperFunction,Plated,PTH,ComponentDrill
T8C2.200
%
G90
G05
T1
X48.19Y-184.4
X48.47Y-146.1
X48.768Y-167.64
X48.94Y-184.43
X48.97Y-183.47
X49.28Y-152.12
X49.52Y-166.97
X49.72Y-184.47
X50.06Y-151.57
X50.07Y-150.7
X50.08Y-149.79
X50.09Y-148.96
X50.45Y-147.06
X50.71Y-173.4
X50.945Y-151.755
X51.04Y-147.17
X51.13Y-186.9
X51.24Y-170.84
X51.241Y-171.652
X51.25Y-170.0
X51.26Y-169.34
X51.42Y-184.88
X51.996Y-185.605
X52.09Y-170.82
X52.11Y-169.38
X52.11Y-171.63
X52.12Y-170.0
X53.415Y-153.435
X53.46Y-185.88
X53.55Y-172.73
X53.7Y-184.45
X54.08Y-183.89
X54.415Y-153.555
X54.655Y-148.465
X54.805Y-147.205
X54.811Y-174.26
X54.86Y-189.63
X54.973Y-173.04
X55.355Y-148.345
X55.51Y-188.1
X55.53Y-179.78
X55.57Y-189.77
X55.64Y-186.86
X55.645Y-149.115
X55.675Y-151.815
X55.755Y-150.495
X55.885Y-151.165
X55.93Y-170.47
X56.01Y-186.09
X56.02Y-171.21
X56.095Y-156.305
X56.1Y-189.18
X56.19Y-185.03
X56.29Y-180.02
X56.31Y-181.27
X56.475Y-156.965
X56.54Y-169.53
X56.57Y-168.28
X56.6Y-176.28
X56.625Y-148.035
X56.66Y-170.44
X56.68Y-173.11
X56.73Y-172.26
X56.76Y-178.03
X57.321Y-169.511
X57.345Y-157.505
X57.71Y-178.79
X57.82Y-172.94
X58.025Y-154.455
X58.525Y-143.105
X58.58Y-170.52
X58.747Y-171.202
X59.125Y-145.935
X59.425Y-155.965
X59.6Y-164.53
X59.865Y-143.115
X60.695Y-156.995
X60.72Y-161.7
X60.735Y-147.195
X60.815Y-143.075
X61.015Y-145.545
X61.61Y-164.38
X61.795Y-143.225
X61.8Y-161.86
X61.855Y-144.615
X61.96Y-180.21
X61.995Y-156.505
X62.25Y-179.03
X62.31Y-190.05
X62.32Y-188.94
X62.46Y-159.75
X62.48Y-159.12
X62.69Y-179.73
X62.72Y-147.6
X62.72Y-150.67
X62.919Y-169.62
X62.92Y-183.13
X63.008Y-162.38
X63.24Y-186.62
X63.26Y-185.62
X63.432Y-159.4
X64.055Y-155.075
X64.12Y-188.91
X64.21Y-151.05
X64.21Y-171.32
X64.27Y-159.07
X64.36Y-168.81
X64.38Y-162.86
X64.43Y-167.27
X64.45Y-148.83
X64.46Y-150.34
X64.52Y-149.42
X64.54Y-156.26
X64.84Y-170.82
X64.898Y-156.99
X65.01Y-149.999
X65.035Y-153.963
X65.09Y-182.67
X65.14Y-150.54
X65.28Y-156.29
X65.515Y-151.575
X65.62Y-156.87
X65.795Y-152.825
X65.82Y-166.91
X65.89Y-153.95
X66.035Y-182.434
X66.5Y-167.61
X66.58Y-170.27
X66.98Y-150.24
X66.98Y-150.83
X67.09Y-169.29
X67.135Y-152.435
X67.67Y-164.94
X68.22Y-148.33
X68.27Y-165.12
X68.31Y-184.16
X68.63Y-184.72
X69.0Y-151.205
X69.05Y-150.44
X69.21Y-132.17
X69.3Y-140.79
X69.36Y-168.21
X69.39Y-179.31
X69.45Y-166.95
X69.47Y-137.94
X69.72Y-167.59
X69.78Y-151.06
X69.86Y-179.96
X70.24Y-147.17
X70.32Y-187.01
X70.33Y-151.038
X70.67Y-148.6
X70.91Y-145.03
X71.03Y-187.03
X71.07Y-155.6
X71.9Y-148.97
X71.99Y-147.3
X72.02Y-146.39
X72.04Y-140.52
X72.28Y-152.57
X72.28Y-153.62
X72.3Y-154.18
X72.36Y-151.28
X72.63Y-149.78
X72.82Y-146.39
X72.83Y-147.28
X73.79Y-164.34
X73.87Y-161.68
X74.52Y-132.53
X74.53Y-146.391
X74.97Y-152.65
X75.0Y-139.97
X75.86Y-148.33
T2
X67.42Y-146.69
X74.15Y-143.96
X74.94Y-151.64
T3
X71.64Y-182.05
X71.64Y-184.59
X71.7Y-175.71
X71.7Y-178.25
X71.71Y-169.59
X71.71Y-172.13
T4
X71.5Y-159.31
X71.5Y-161.81
X71.5Y-164.31
T5
X57.295Y-166.59
X59.835Y-166.59
T6
X70.43Y-133.7
X70.43Y-139.6
X72.93Y-133.7
X72.93Y-139.6
T7
X58.89Y-113.48
X58.89Y-185.7
T8
X50.34Y-191.4
X54.73Y-128.7
X54.74Y-106.21
X71.48Y-106.2
X71.48Y-128.7
X74.9Y-191.0
M30
