%TF.GenerationSoftware,KiCad,Pcbnew,10.0.3*%
%TF.CreationDate,2026-06-13T07:37:26-04:00*%
%TF.ProjectId,TinkerRocekt Base Station V4,54696e6b-6572-4526-9f63-656b74204261,rev?*%
%TF.SameCoordinates,Original*%
%TF.FileFunction,Copper,L2,Inr*%
%TF.FilePolarity,Positive*%
%FSLAX46Y46*%
G04 Gerber Fmt 4.6, Leading zero omitted, Abs format (unit mm)*
G04 Created by KiCad (PCBNEW 10.0.3) date 2026-06-13 07:37:26*
%MOMM*%
%LPD*%
G01*
G04 APERTURE LIST*
G04 Aperture macros list*
%AMRoundRect*
0 Rectangle with rounded corners*
0 $1 Rounding radius*
0 $2 $3 $4 $5 $6 $7 $8 $9 X,Y pos of 4 corners*
0 Add a 4 corners polygon primitive as box body*
4,1,4,$2,$3,$4,$5,$6,$7,$8,$9,$2,$3,0*
0 Add four circle primitives for the rounded corners*
1,1,$1+$1,$2,$3*
1,1,$1+$1,$4,$5*
1,1,$1+$1,$6,$7*
1,1,$1+$1,$8,$9*
0 Add four rect primitives between the rounded corners*
20,1,$1+$1,$2,$3,$4,$5,0*
20,1,$1+$1,$4,$5,$6,$7,0*
20,1,$1+$1,$6,$7,$8,$9,0*
20,1,$1+$1,$8,$9,$2,$3,0*%
G04 Aperture macros list end*
%TA.AperFunction,ComponentPad*%
%ADD10R,1.700000X1.700000*%
%TD*%
%TA.AperFunction,ComponentPad*%
%ADD11C,1.700000*%
%TD*%
%TA.AperFunction,ComponentPad*%
%ADD12R,1.800000X1.800000*%
%TD*%
%TA.AperFunction,ComponentPad*%
%ADD13C,1.800000*%
%TD*%
%TA.AperFunction,ComponentPad*%
%ADD14C,3.800000*%
%TD*%
%TA.AperFunction,ComponentPad*%
%ADD15R,1.650000X1.650000*%
%TD*%
%TA.AperFunction,ComponentPad*%
%ADD16C,1.650000*%
%TD*%
%TA.AperFunction,ComponentPad*%
%ADD17C,1.980000*%
%TD*%
%TA.AperFunction,ComponentPad*%
%ADD18RoundRect,0.250000X0.725000X-0.600000X0.725000X0.600000X-0.725000X0.600000X-0.725000X-0.600000X0*%
%TD*%
%TA.AperFunction,ComponentPad*%
%ADD19O,1.950000X1.700000*%
%TD*%
%TA.AperFunction,ViaPad*%
%ADD20C,0.450000*%
%TD*%
%TA.AperFunction,ViaPad*%
%ADD21C,0.750000*%
%TD*%
G04 APERTURE END LIST*
D10*
%TO.N,Net-(U14-TH)*%
%TO.C,TH1*%
X57295000Y-166590000D03*
D11*
%TO.N,Net-(U14-CSP)*%
X59835000Y-166590000D03*
%TD*%
D12*
%TO.N,Net-(D9-K)*%
%TO.C,D9*%
X71700000Y-175710000D03*
D13*
%TO.N,Net-(D9-A)*%
X71700000Y-178250000D03*
%TD*%
D14*
%TO.N,N/C*%
%TO.C,H6*%
X71480000Y-128700000D03*
%TD*%
D15*
%TO.N,Net-(U4-EN{slash}UVLO)*%
%TO.C,S1*%
X72930000Y-133700000D03*
D16*
%TO.N,VCC*%
X70430000Y-133700000D03*
%TO.N,Net-(U4-EN{slash}UVLO)*%
X72930000Y-139600000D03*
%TO.N,VCC*%
X70430000Y-139600000D03*
%TD*%
D14*
%TO.N,N/C*%
%TO.C,H5*%
X54730000Y-128700000D03*
%TD*%
%TO.N,N/C*%
%TO.C,H3*%
X71480000Y-106200000D03*
%TD*%
%TO.N,N/C*%
%TO.C,H1*%
X54740000Y-106210000D03*
%TD*%
%TO.N,N/C*%
%TO.C,H2*%
X74900000Y-191000000D03*
%TD*%
D12*
%TO.N,GND*%
%TO.C,D6*%
X71640000Y-182050000D03*
D13*
%TO.N,Net-(D6-A)*%
X71640000Y-184590000D03*
%TD*%
D12*
%TO.N,Net-(D7-K)*%
%TO.C,D7*%
X71710000Y-169590000D03*
D13*
%TO.N,Net-(D7-A)*%
X71710000Y-172130000D03*
%TD*%
D14*
%TO.N,N/C*%
%TO.C,H4*%
X50340000Y-191400000D03*
%TD*%
D17*
%TO.N,Net-(U14-CSP)*%
%TO.C,BT2*%
X58890000Y-113480000D03*
%TO.N,Net-(JP1-A)*%
X58890000Y-185700000D03*
%TD*%
D18*
%TO.N,GND*%
%TO.C,J4*%
X71500000Y-164310000D03*
D19*
%TO.N,BatteryMid*%
X71500000Y-161810000D03*
%TO.N,BatteryPos*%
X71500000Y-159310000D03*
%TD*%
D20*
%TO.N,GND*%
X68220000Y-148330000D03*
X72630000Y-149780000D03*
X70910000Y-145030000D03*
X70670000Y-148600000D03*
X71070000Y-155600000D03*
X75000000Y-139970000D03*
X74970000Y-152650000D03*
X72360000Y-151280000D03*
X72300000Y-154180000D03*
X62720000Y-150670000D03*
X65140000Y-150540000D03*
%TO.N,LoRa_TX*%
X72280000Y-153620000D03*
X65010000Y-149998500D03*
%TO.N,LoRa_RX*%
X72280000Y-152570000D03*
X64520000Y-149420000D03*
%TO.N,GND*%
X65890000Y-153950000D03*
%TO.N,VCC*%
X70240000Y-147170000D03*
X71900000Y-148970000D03*
%TO.N,GND*%
X72820000Y-146390000D03*
X72830000Y-147280000D03*
X71990000Y-147300000D03*
X72020000Y-146390000D03*
D21*
%TO.N,V_LORA*%
X74150000Y-143960000D03*
X74940000Y-151640000D03*
%TO.N,VCC*%
X67420000Y-146690000D03*
D20*
%TO.N,Net-(U2-SS)*%
X75860000Y-148330000D03*
X74529567Y-146390821D03*
%TO.N,+3V3*%
X60720000Y-161700000D03*
%TO.N,SDA_SENS*%
X61800000Y-161860000D03*
X63008500Y-162380000D03*
%TO.N,SPI_HD*%
X69000000Y-151205000D03*
%TO.N,VCC*%
X57710000Y-178790000D03*
%TO.N,GND*%
X56010000Y-186090000D03*
%TO.N,D-*%
X62480000Y-159120000D03*
%TO.N,D+*%
X63431678Y-159400000D03*
%TO.N,VCC*%
X56310000Y-181270000D03*
X56190000Y-185030000D03*
%TO.N,GND*%
X65820000Y-166910000D03*
X68270000Y-165120000D03*
X64430000Y-167270000D03*
X50710000Y-173400000D03*
X69210000Y-132170000D03*
X74520000Y-132530000D03*
X72040000Y-140520000D03*
X69300000Y-140790000D03*
X65280000Y-156290000D03*
X65620000Y-156870000D03*
X64270000Y-159070000D03*
X62460000Y-159750000D03*
X59600000Y-164530000D03*
X61610000Y-164380000D03*
X64380000Y-162860000D03*
%TO.N,SDA_SENS*%
X64210000Y-151050000D03*
X64898500Y-156990000D03*
%TO.N,SCL_SENS*%
X64460000Y-150340000D03*
X64540000Y-156260000D03*
%TO.N,GND*%
X64840000Y-170820000D03*
%TO.N,Vcc*%
X62919399Y-169620000D03*
%TO.N,GND*%
X64450000Y-148830000D03*
X48470000Y-146100000D03*
X50060000Y-151570000D03*
X50070000Y-150700000D03*
X50080000Y-149790000D03*
X50090000Y-148960000D03*
%TO.N,Net-(U14-TH)*%
X51995680Y-185604897D03*
%TO.N,Net-(U14-CSP)*%
X48190000Y-184400000D03*
X53460000Y-185880000D03*
X49720000Y-184470000D03*
X48940000Y-184430000D03*
%TO.N,Net-(U12-MID)*%
X67670000Y-164940000D03*
X66500000Y-167610000D03*
%TO.N,Net-(U14-BATT)*%
X53700000Y-184450000D03*
X51130000Y-186900000D03*
%TO.N,Net-(D9-K)*%
X62250000Y-179030000D03*
%TO.N,GND*%
X56730000Y-172260000D03*
X49280000Y-152120000D03*
X56600000Y-176280000D03*
X60815000Y-143075000D03*
X53550000Y-172730000D03*
X66980000Y-150240000D03*
X57345000Y-157505000D03*
X71030000Y-187030000D03*
X58525000Y-143105000D03*
X61995000Y-156505000D03*
X56760000Y-178030000D03*
X56100000Y-189180000D03*
X59865000Y-143115000D03*
X52110000Y-169380000D03*
X59125000Y-145935000D03*
X65515000Y-151575000D03*
X58747000Y-171202226D03*
X55570000Y-189770000D03*
X67135000Y-152435000D03*
X56570000Y-168280000D03*
X52090000Y-170820000D03*
X50945000Y-151755000D03*
X69470000Y-137940000D03*
X57820000Y-172940000D03*
X64120000Y-188910000D03*
X51040000Y-147170000D03*
X68630000Y-184720000D03*
X55355000Y-148345000D03*
X73870000Y-161680000D03*
X63260000Y-185620000D03*
X52120000Y-170000000D03*
X62720000Y-147600000D03*
X55530000Y-179780000D03*
X49520000Y-166970000D03*
X62310000Y-190050000D03*
X51420000Y-184880000D03*
X73790000Y-164340000D03*
X62690000Y-179730000D03*
X61855000Y-144615000D03*
X58025000Y-154455000D03*
X48768000Y-167640000D03*
X60695000Y-156995000D03*
X51240000Y-170840000D03*
X54805000Y-147205000D03*
X55675000Y-151815000D03*
X57320801Y-169510801D03*
X65090000Y-182670000D03*
X54080000Y-183890000D03*
X61795000Y-143225000D03*
X69390000Y-179310000D03*
X51250000Y-170000000D03*
X56095000Y-156305000D03*
X51260000Y-169340000D03*
X67090000Y-169290000D03*
X69050000Y-150440000D03*
X69720000Y-167590000D03*
X52110000Y-171630000D03*
X62920000Y-183130000D03*
X56475000Y-156965000D03*
X53415000Y-153435000D03*
X51241342Y-171651548D03*
X70329580Y-151038448D03*
X48970000Y-183470000D03*
X56020000Y-171210000D03*
X61015000Y-145545000D03*
%TO.N,VBUS*%
X69360000Y-168210000D03*
X64210000Y-171320000D03*
%TO.N,Net-(U3-CHIP_PU)*%
X55645000Y-149115000D03*
X55755000Y-150495000D03*
%TO.N,Net-(U3-GPIO0)*%
X50450000Y-147060000D03*
X55885000Y-151165000D03*
%TO.N,+3V3*%
X54415000Y-153555000D03*
X54655000Y-148465000D03*
X55930000Y-170470000D03*
X60735000Y-147195000D03*
X56625000Y-148035000D03*
X56660000Y-170440000D03*
X56540000Y-169530000D03*
X59425000Y-155965000D03*
X70320000Y-187010000D03*
%TO.N,VDD_SPI*%
X66980000Y-150830000D03*
X64055000Y-155075000D03*
%TO.N,SPI_HD*%
X65035000Y-153963500D03*
%TO.N,SPI_CLK*%
X69780000Y-151060000D03*
X65795000Y-152825000D03*
%TO.N,SCL_SENS*%
X54973000Y-173040000D03*
X55510000Y-188100000D03*
%TO.N,SDA_SENS*%
X54811500Y-174260000D03*
X54860000Y-189630000D03*
%TO.N,VCC*%
X61960000Y-180210000D03*
X69860000Y-179960000D03*
%TO.N,D+*%
X66034539Y-182433961D03*
%TO.N,D-*%
X68310000Y-184160000D03*
X62320000Y-188940000D03*
X63240000Y-186620000D03*
%TO.N,Vcc*%
X69450000Y-166950000D03*
X66580000Y-170270000D03*
X58580000Y-170520000D03*
%TO.N,Net-(U13-GATE2)*%
X56290000Y-180020000D03*
X55640000Y-186860000D03*
%TO.N,Net-(U4-EN{slash}UVLO)*%
X56680000Y-173110000D03*
%TO.N,Net-(D7-K)*%
X64360000Y-168809502D03*
%TD*%
%TA.AperFunction,Conductor*%
%TO.N,GND*%
G36*
X75672223Y-103940659D02*
G01*
X75907406Y-103957479D01*
X75916231Y-103958748D01*
X76144442Y-104008391D01*
X76152993Y-104010903D01*
X76371815Y-104092520D01*
X76379913Y-104096218D01*
X76519614Y-104172500D01*
X76584894Y-104208146D01*
X76592396Y-104212967D01*
X76779360Y-104352926D01*
X76786099Y-104358766D01*
X76951233Y-104523900D01*
X76957073Y-104530639D01*
X77097032Y-104717603D01*
X77101853Y-104725105D01*
X77213778Y-104930079D01*
X77217482Y-104938190D01*
X77299095Y-105157003D01*
X77301608Y-105165560D01*
X77351251Y-105393768D01*
X77352520Y-105402594D01*
X77369341Y-105637776D01*
X77369500Y-105642235D01*
X77369500Y-192137764D01*
X77369341Y-192142223D01*
X77352520Y-192377405D01*
X77351251Y-192386231D01*
X77301608Y-192614439D01*
X77299095Y-192622996D01*
X77217482Y-192841809D01*
X77213778Y-192849920D01*
X77101853Y-193054894D01*
X77097032Y-193062396D01*
X76957073Y-193249360D01*
X76951233Y-193256099D01*
X76786099Y-193421233D01*
X76779360Y-193427073D01*
X76592396Y-193567032D01*
X76584894Y-193571853D01*
X76379920Y-193683778D01*
X76371809Y-193687482D01*
X76152996Y-193769095D01*
X76144439Y-193771608D01*
X75916231Y-193821251D01*
X75907405Y-193822520D01*
X75672223Y-193839341D01*
X75667764Y-193839500D01*
X49402236Y-193839500D01*
X49397777Y-193839341D01*
X49162594Y-193822520D01*
X49153768Y-193821251D01*
X48925560Y-193771608D01*
X48917003Y-193769095D01*
X48698190Y-193687482D01*
X48690079Y-193683778D01*
X48485105Y-193571853D01*
X48477603Y-193567032D01*
X48290639Y-193427073D01*
X48283900Y-193421233D01*
X48118766Y-193256099D01*
X48112926Y-193249360D01*
X47972967Y-193062396D01*
X47968146Y-193054894D01*
X47898652Y-192927626D01*
X47856218Y-192849913D01*
X47852520Y-192841815D01*
X47770903Y-192622993D01*
X47768391Y-192614439D01*
X47718748Y-192386231D01*
X47717479Y-192377405D01*
X47700659Y-192142223D01*
X47700500Y-192137764D01*
X47700500Y-191267106D01*
X48312500Y-191267106D01*
X48312500Y-191532893D01*
X48347191Y-191796397D01*
X48347191Y-191796398D01*
X48415974Y-192053100D01*
X48415978Y-192053111D01*
X48415980Y-192053117D01*
X48451042Y-192137764D01*
X48517686Y-192298658D01*
X48517692Y-192298670D01*
X48650576Y-192528832D01*
X48773800Y-192689422D01*
X48812374Y-192739692D01*
X49000308Y-192927626D01*
X49211165Y-193089422D01*
X49441336Y-193222311D01*
X49686883Y-193324020D01*
X49686893Y-193324022D01*
X49686899Y-193324025D01*
X49943602Y-193392808D01*
X49943606Y-193392809D01*
X50207111Y-193427500D01*
X50207117Y-193427500D01*
X50472883Y-193427500D01*
X50472889Y-193427500D01*
X50736394Y-193392809D01*
X50736398Y-193392808D01*
X50993100Y-193324025D01*
X50993103Y-193324023D01*
X50993117Y-193324020D01*
X51238664Y-193222311D01*
X51468835Y-193089422D01*
X51679692Y-192927626D01*
X51867626Y-192739692D01*
X52029422Y-192528835D01*
X52162311Y-192298664D01*
X52264020Y-192053117D01*
X52305408Y-191898658D01*
X52332808Y-191796398D01*
X52332808Y-191796397D01*
X52332809Y-191796394D01*
X52367500Y-191532889D01*
X52367500Y-191267111D01*
X52332809Y-191003606D01*
X52332808Y-191003601D01*
X52300022Y-190881241D01*
X52296235Y-190867106D01*
X72872500Y-190867106D01*
X72872500Y-191132893D01*
X72907191Y-191396397D01*
X72907191Y-191396398D01*
X72975974Y-191653100D01*
X72975978Y-191653111D01*
X72975980Y-191653117D01*
X73030117Y-191783816D01*
X73077686Y-191898658D01*
X73077692Y-191898670D01*
X73210576Y-192128832D01*
X73210578Y-192128835D01*
X73219145Y-192140000D01*
X73340887Y-192298658D01*
X73372374Y-192339692D01*
X73560308Y-192527626D01*
X73560311Y-192527628D01*
X73560313Y-192527630D01*
X73596549Y-192555435D01*
X73771165Y-192689422D01*
X74001336Y-192822311D01*
X74246883Y-192924020D01*
X74246893Y-192924022D01*
X74246899Y-192924025D01*
X74503602Y-192992808D01*
X74503606Y-192992809D01*
X74767111Y-193027500D01*
X74767117Y-193027500D01*
X75032883Y-193027500D01*
X75032889Y-193027500D01*
X75296394Y-192992809D01*
X75296398Y-192992808D01*
X75553100Y-192924025D01*
X75553103Y-192924023D01*
X75553117Y-192924020D01*
X75798664Y-192822311D01*
X76028835Y-192689422D01*
X76239692Y-192527626D01*
X76427626Y-192339692D01*
X76589422Y-192128835D01*
X76722311Y-191898664D01*
X76824020Y-191653117D01*
X76892809Y-191396394D01*
X76927500Y-191132889D01*
X76927500Y-190867111D01*
X76892809Y-190603606D01*
X76892808Y-190603601D01*
X76824025Y-190346899D01*
X76824022Y-190346893D01*
X76824020Y-190346883D01*
X76722311Y-190101336D01*
X76589422Y-189871165D01*
X76439980Y-189676408D01*
X76427630Y-189660313D01*
X76427621Y-189660303D01*
X76239696Y-189472378D01*
X76239686Y-189472369D01*
X76028832Y-189310576D01*
X75798670Y-189177692D01*
X75798658Y-189177686D01*
X75683816Y-189130117D01*
X75553117Y-189075980D01*
X75553111Y-189075978D01*
X75553100Y-189075974D01*
X75296397Y-189007191D01*
X75032893Y-188972500D01*
X75032889Y-188972500D01*
X74767111Y-188972500D01*
X74767106Y-188972500D01*
X74503602Y-189007191D01*
X74503601Y-189007191D01*
X74246899Y-189075974D01*
X74246884Y-189075979D01*
X74246883Y-189075980D01*
X74246690Y-189076060D01*
X74001341Y-189177686D01*
X74001329Y-189177692D01*
X73771167Y-189310576D01*
X73560313Y-189472369D01*
X73560303Y-189472378D01*
X73372378Y-189660303D01*
X73372369Y-189660313D01*
X73210576Y-189871167D01*
X73077692Y-190101329D01*
X73077686Y-190101341D01*
X72975981Y-190346881D01*
X72975974Y-190346899D01*
X72907191Y-190603601D01*
X72907191Y-190603602D01*
X72872500Y-190867106D01*
X52296235Y-190867106D01*
X52264025Y-190746899D01*
X52264022Y-190746893D01*
X52264020Y-190746883D01*
X52162311Y-190501336D01*
X52029422Y-190271165D01*
X51867626Y-190060308D01*
X51679692Y-189872374D01*
X51679688Y-189872371D01*
X51679686Y-189872369D01*
X51468832Y-189710576D01*
X51335545Y-189633623D01*
X51248891Y-189583593D01*
X54507500Y-189583593D01*
X54507500Y-189676406D01*
X54507501Y-189676414D01*
X54531521Y-189766059D01*
X54531522Y-189766062D01*
X54577929Y-189846439D01*
X54577934Y-189846445D01*
X54643554Y-189912065D01*
X54643560Y-189912070D01*
X54723937Y-189958477D01*
X54723940Y-189958478D01*
X54813592Y-189982500D01*
X54813593Y-189982500D01*
X54906407Y-189982500D01*
X54906408Y-189982500D01*
X54996060Y-189958478D01*
X55076440Y-189912070D01*
X55142070Y-189846440D01*
X55188478Y-189766060D01*
X55212500Y-189676408D01*
X55212500Y-189583592D01*
X55188478Y-189493940D01*
X55188477Y-189493937D01*
X55142070Y-189413560D01*
X55142065Y-189413554D01*
X55076445Y-189347934D01*
X55076439Y-189347929D01*
X54996062Y-189301522D01*
X54996059Y-189301521D01*
X54906414Y-189277501D01*
X54906409Y-189277500D01*
X54906408Y-189277500D01*
X54813592Y-189277500D01*
X54813591Y-189277500D01*
X54813585Y-189277501D01*
X54723940Y-189301521D01*
X54723937Y-189301522D01*
X54643560Y-189347929D01*
X54643554Y-189347934D01*
X54577934Y-189413554D01*
X54577929Y-189413560D01*
X54531522Y-189493937D01*
X54531521Y-189493940D01*
X54507501Y-189583585D01*
X54507500Y-189583593D01*
X51248891Y-189583593D01*
X51238670Y-189577692D01*
X51238658Y-189577686D01*
X51123816Y-189530117D01*
X50993117Y-189475980D01*
X50993111Y-189475978D01*
X50993100Y-189475974D01*
X50736397Y-189407191D01*
X50472893Y-189372500D01*
X50472889Y-189372500D01*
X50207111Y-189372500D01*
X50207106Y-189372500D01*
X49943602Y-189407191D01*
X49943601Y-189407191D01*
X49686899Y-189475974D01*
X49686884Y-189475979D01*
X49686883Y-189475980D01*
X49686881Y-189475981D01*
X49441341Y-189577686D01*
X49441329Y-189577692D01*
X49211167Y-189710576D01*
X49000313Y-189872369D01*
X49000303Y-189872378D01*
X48812378Y-190060303D01*
X48812369Y-190060313D01*
X48650576Y-190271167D01*
X48517692Y-190501329D01*
X48517686Y-190501341D01*
X48415981Y-190746881D01*
X48415974Y-190746899D01*
X48347191Y-191003601D01*
X48347191Y-191003602D01*
X48312500Y-191267106D01*
X47700500Y-191267106D01*
X47700500Y-188967928D01*
X59717500Y-188967928D01*
X59717500Y-189087071D01*
X59717501Y-189087079D01*
X59748335Y-189202155D01*
X59748336Y-189202158D01*
X59778123Y-189253750D01*
X59800494Y-189292498D01*
X59807911Y-189305343D01*
X59807914Y-189305347D01*
X59892152Y-189389585D01*
X59892156Y-189389588D01*
X59892158Y-189389590D01*
X59995341Y-189449163D01*
X59995344Y-189449164D01*
X60065769Y-189468034D01*
X60110427Y-189480000D01*
X60110428Y-189480000D01*
X60229572Y-189480000D01*
X60229573Y-189480000D01*
X60344659Y-189449163D01*
X60447842Y-189389590D01*
X60532090Y-189305342D01*
X60591663Y-189202159D01*
X60622500Y-189087073D01*
X60622500Y-188967927D01*
X60602582Y-188893593D01*
X61967500Y-188893593D01*
X61967500Y-188986406D01*
X61967501Y-188986414D01*
X61991521Y-189076059D01*
X61991522Y-189076062D01*
X62037929Y-189156439D01*
X62037934Y-189156445D01*
X62103554Y-189222065D01*
X62103560Y-189222070D01*
X62183937Y-189268477D01*
X62183940Y-189268478D01*
X62273592Y-189292500D01*
X62273593Y-189292500D01*
X62366407Y-189292500D01*
X62366408Y-189292500D01*
X62456060Y-189268478D01*
X62536440Y-189222070D01*
X62602070Y-189156440D01*
X62648478Y-189076060D01*
X62672500Y-188986408D01*
X62672500Y-188967928D01*
X65497500Y-188967928D01*
X65497500Y-189087071D01*
X65497501Y-189087079D01*
X65528335Y-189202155D01*
X65528336Y-189202158D01*
X65558123Y-189253750D01*
X65580494Y-189292498D01*
X65587911Y-189305343D01*
X65587914Y-189305347D01*
X65672152Y-189389585D01*
X65672156Y-189389588D01*
X65672158Y-189389590D01*
X65775341Y-189449163D01*
X65775344Y-189449164D01*
X65845769Y-189468034D01*
X65890427Y-189480000D01*
X65890428Y-189480000D01*
X66009572Y-189480000D01*
X66009573Y-189480000D01*
X66124659Y-189449163D01*
X66227842Y-189389590D01*
X66312090Y-189305342D01*
X66371663Y-189202159D01*
X66402500Y-189087073D01*
X66402500Y-188967927D01*
X66371663Y-188852841D01*
X66312090Y-188749658D01*
X66312088Y-188749656D01*
X66312085Y-188749652D01*
X66227847Y-188665414D01*
X66227843Y-188665411D01*
X66227842Y-188665410D01*
X66134506Y-188611522D01*
X66124658Y-188605836D01*
X66124655Y-188605835D01*
X66009579Y-188575001D01*
X66009574Y-188575000D01*
X66009573Y-188575000D01*
X65890427Y-188575000D01*
X65890426Y-188575000D01*
X65890420Y-188575001D01*
X65775344Y-188605835D01*
X65775341Y-188605836D01*
X65672156Y-188665411D01*
X65672152Y-188665414D01*
X65587914Y-188749652D01*
X65587911Y-188749656D01*
X65528336Y-188852841D01*
X65528335Y-188852844D01*
X65497501Y-188967920D01*
X65497500Y-188967928D01*
X62672500Y-188967928D01*
X62672500Y-188893592D01*
X62648478Y-188803940D01*
X62648477Y-188803937D01*
X62602070Y-188723560D01*
X62602065Y-188723554D01*
X62536445Y-188657934D01*
X62536439Y-188657929D01*
X62456062Y-188611522D01*
X62456059Y-188611521D01*
X62366414Y-188587501D01*
X62366409Y-188587500D01*
X62366408Y-188587500D01*
X62273592Y-188587500D01*
X62273591Y-188587500D01*
X62273585Y-188587501D01*
X62183940Y-188611521D01*
X62183937Y-188611522D01*
X62103560Y-188657929D01*
X62103554Y-188657934D01*
X62037934Y-188723554D01*
X62037929Y-188723560D01*
X61991522Y-188803937D01*
X61991521Y-188803940D01*
X61967501Y-188893585D01*
X61967500Y-188893593D01*
X60602582Y-188893593D01*
X60591663Y-188852841D01*
X60532090Y-188749658D01*
X60532088Y-188749656D01*
X60532085Y-188749652D01*
X60447847Y-188665414D01*
X60447843Y-188665411D01*
X60447842Y-188665410D01*
X60354506Y-188611522D01*
X60344658Y-188605836D01*
X60344655Y-188605835D01*
X60229579Y-188575001D01*
X60229574Y-188575000D01*
X60229573Y-188575000D01*
X60110427Y-188575000D01*
X60110426Y-188575000D01*
X60110420Y-188575001D01*
X59995344Y-188605835D01*
X59995341Y-188605836D01*
X59892156Y-188665411D01*
X59892152Y-188665414D01*
X59807914Y-188749652D01*
X59807911Y-188749656D01*
X59748336Y-188852841D01*
X59748335Y-188852844D01*
X59717501Y-188967920D01*
X59717500Y-188967928D01*
X47700500Y-188967928D01*
X47700500Y-188053593D01*
X55157500Y-188053593D01*
X55157500Y-188146406D01*
X55157501Y-188146414D01*
X55181521Y-188236059D01*
X55181522Y-188236062D01*
X55227929Y-188316439D01*
X55227934Y-188316445D01*
X55293554Y-188382065D01*
X55293560Y-188382070D01*
X55373937Y-188428477D01*
X55373940Y-188428478D01*
X55463592Y-188452500D01*
X55463593Y-188452500D01*
X55556407Y-188452500D01*
X55556408Y-188452500D01*
X55646060Y-188428478D01*
X55726440Y-188382070D01*
X55792070Y-188316440D01*
X55838478Y-188236060D01*
X55862500Y-188146408D01*
X55862500Y-188053592D01*
X55838478Y-187963940D01*
X55838477Y-187963937D01*
X55792070Y-187883560D01*
X55792065Y-187883554D01*
X55726445Y-187817934D01*
X55726439Y-187817929D01*
X55646062Y-187771522D01*
X55646059Y-187771521D01*
X55556414Y-187747501D01*
X55556409Y-187747500D01*
X55556408Y-187747500D01*
X55463592Y-187747500D01*
X55463591Y-187747500D01*
X55463585Y-187747501D01*
X55373940Y-187771521D01*
X55373937Y-187771522D01*
X55293560Y-187817929D01*
X55293554Y-187817934D01*
X55227934Y-187883554D01*
X55227929Y-187883560D01*
X55181522Y-187963937D01*
X55181521Y-187963940D01*
X55157501Y-188053585D01*
X55157500Y-188053593D01*
X47700500Y-188053593D01*
X47700500Y-186853593D01*
X50777500Y-186853593D01*
X50777500Y-186946406D01*
X50777501Y-186946414D01*
X50801521Y-187036059D01*
X50801522Y-187036062D01*
X50847929Y-187116439D01*
X50847934Y-187116445D01*
X50913554Y-187182065D01*
X50913560Y-187182070D01*
X50993937Y-187228477D01*
X50993940Y-187228478D01*
X51083592Y-187252500D01*
X51083593Y-187252500D01*
X51176407Y-187252500D01*
X51176408Y-187252500D01*
X51266060Y-187228478D01*
X51346440Y-187182070D01*
X51412070Y-187116440D01*
X51458478Y-187036060D01*
X51482500Y-186946408D01*
X51482500Y-186853592D01*
X51471782Y-186813593D01*
X55287500Y-186813593D01*
X55287500Y-186906406D01*
X55287501Y-186906414D01*
X55311521Y-186996059D01*
X55311522Y-186996062D01*
X55357929Y-187076439D01*
X55357934Y-187076445D01*
X55423554Y-187142065D01*
X55423560Y-187142070D01*
X55503937Y-187188477D01*
X55503940Y-187188478D01*
X55593592Y-187212500D01*
X55593593Y-187212500D01*
X55686407Y-187212500D01*
X55686408Y-187212500D01*
X55776060Y-187188478D01*
X55856440Y-187142070D01*
X55922070Y-187076440D01*
X55968478Y-186996060D01*
X55992500Y-186906408D01*
X55992500Y-186813592D01*
X55968478Y-186723940D01*
X55968477Y-186723937D01*
X55922070Y-186643560D01*
X55922065Y-186643554D01*
X55856445Y-186577934D01*
X55856439Y-186577929D01*
X55776062Y-186531522D01*
X55776059Y-186531521D01*
X55686414Y-186507501D01*
X55686409Y-186507500D01*
X55686408Y-186507500D01*
X55593592Y-186507500D01*
X55593591Y-186507500D01*
X55593585Y-186507501D01*
X55503940Y-186531521D01*
X55503937Y-186531522D01*
X55423560Y-186577929D01*
X55423554Y-186577934D01*
X55357934Y-186643554D01*
X55357929Y-186643560D01*
X55311522Y-186723937D01*
X55311521Y-186723940D01*
X55287501Y-186813585D01*
X55287500Y-186813593D01*
X51471782Y-186813593D01*
X51458478Y-186763940D01*
X51458477Y-186763937D01*
X51412070Y-186683560D01*
X51412065Y-186683554D01*
X51346445Y-186617934D01*
X51346439Y-186617929D01*
X51266062Y-186571522D01*
X51266059Y-186571521D01*
X51176414Y-186547501D01*
X51176409Y-186547500D01*
X51176408Y-186547500D01*
X51083592Y-186547500D01*
X51083591Y-186547500D01*
X51083585Y-186547501D01*
X50993940Y-186571521D01*
X50993937Y-186571522D01*
X50913560Y-186617929D01*
X50913554Y-186617934D01*
X50847934Y-186683554D01*
X50847929Y-186683560D01*
X50801522Y-186763937D01*
X50801521Y-186763940D01*
X50777501Y-186853585D01*
X50777500Y-186853593D01*
X47700500Y-186853593D01*
X47700500Y-185558490D01*
X51643180Y-185558490D01*
X51643180Y-185651303D01*
X51643181Y-185651311D01*
X51667201Y-185740956D01*
X51667202Y-185740959D01*
X51713609Y-185821336D01*
X51713614Y-185821342D01*
X51779234Y-185886962D01*
X51779240Y-185886967D01*
X51859617Y-185933374D01*
X51859620Y-185933375D01*
X51949272Y-185957397D01*
X51949273Y-185957397D01*
X52042087Y-185957397D01*
X52042088Y-185957397D01*
X52131740Y-185933375D01*
X52212120Y-185886967D01*
X52265494Y-185833593D01*
X53107500Y-185833593D01*
X53107500Y-185926406D01*
X53107501Y-185926414D01*
X53131521Y-186016059D01*
X53131522Y-186016062D01*
X53177929Y-186096439D01*
X53177934Y-186096445D01*
X53243554Y-186162065D01*
X53243560Y-186162070D01*
X53323937Y-186208477D01*
X53323940Y-186208478D01*
X53413592Y-186232500D01*
X53413593Y-186232500D01*
X53506407Y-186232500D01*
X53506408Y-186232500D01*
X53596060Y-186208478D01*
X53597460Y-186207670D01*
X53613048Y-186198669D01*
X53676440Y-186162070D01*
X53742070Y-186096440D01*
X53788478Y-186016060D01*
X53812500Y-185926408D01*
X53812500Y-185833592D01*
X53788478Y-185743940D01*
X53788477Y-185743937D01*
X53742070Y-185663560D01*
X53742065Y-185663554D01*
X53690562Y-185612051D01*
X57772500Y-185612051D01*
X57772500Y-185787949D01*
X57799337Y-185957397D01*
X57800017Y-185961687D01*
X57854371Y-186128969D01*
X57854372Y-186128971D01*
X57934228Y-186285698D01*
X58037618Y-186428003D01*
X58037621Y-186428006D01*
X58037624Y-186428010D01*
X58161989Y-186552375D01*
X58161992Y-186552377D01*
X58161997Y-186552382D01*
X58304302Y-186655772D01*
X58461029Y-186735628D01*
X58628318Y-186789984D01*
X58802051Y-186817500D01*
X58802053Y-186817500D01*
X58977947Y-186817500D01*
X58977949Y-186817500D01*
X59151682Y-186789984D01*
X59318971Y-186735628D01*
X59475698Y-186655772D01*
X59588808Y-186573593D01*
X62887500Y-186573593D01*
X62887500Y-186666406D01*
X62887501Y-186666414D01*
X62911521Y-186756059D01*
X62911522Y-186756062D01*
X62957929Y-186836439D01*
X62957934Y-186836445D01*
X63023554Y-186902065D01*
X63023560Y-186902070D01*
X63103937Y-186948477D01*
X63103940Y-186948478D01*
X63193592Y-186972500D01*
X63193593Y-186972500D01*
X63286407Y-186972500D01*
X63286408Y-186972500D01*
X63376060Y-186948478D01*
X63379646Y-186946408D01*
X63393048Y-186938669D01*
X63456440Y-186902070D01*
X63522070Y-186836440D01*
X63558669Y-186773048D01*
X63568477Y-186756062D01*
X63568478Y-186756059D01*
X63592500Y-186666408D01*
X63592500Y-186573592D01*
X63568478Y-186483940D01*
X63568477Y-186483937D01*
X63522070Y-186403560D01*
X63522065Y-186403554D01*
X63456445Y-186337934D01*
X63456439Y-186337929D01*
X63376062Y-186291522D01*
X63376059Y-186291521D01*
X63286414Y-186267501D01*
X63286409Y-186267500D01*
X63286408Y-186267500D01*
X63193592Y-186267500D01*
X63193591Y-186267500D01*
X63193585Y-186267501D01*
X63103940Y-186291521D01*
X63103937Y-186291522D01*
X63023560Y-186337929D01*
X63023554Y-186337934D01*
X62957934Y-186403554D01*
X62957929Y-186403560D01*
X62911522Y-186483937D01*
X62911521Y-186483940D01*
X62887501Y-186573585D01*
X62887500Y-186573593D01*
X59588808Y-186573593D01*
X59618003Y-186552382D01*
X59622885Y-186547500D01*
X59645084Y-186525302D01*
X59742375Y-186428010D01*
X59742382Y-186428003D01*
X59845772Y-186285698D01*
X59925628Y-186128971D01*
X59979984Y-185961682D01*
X60007500Y-185787949D01*
X60007500Y-185612051D01*
X60007313Y-185610876D01*
X60006105Y-185603239D01*
X60006104Y-185603238D01*
X60005264Y-185597934D01*
X60004945Y-185595919D01*
X65567500Y-185595919D01*
X65567500Y-185804080D01*
X65567501Y-185804094D01*
X65600064Y-186009685D01*
X65664391Y-186207662D01*
X65664392Y-186207664D01*
X65758897Y-186393141D01*
X65881254Y-186561551D01*
X65881257Y-186561554D01*
X65881260Y-186561558D01*
X66028441Y-186708739D01*
X66028444Y-186708741D01*
X66028449Y-186708746D01*
X66196859Y-186831103D01*
X66382336Y-186925608D01*
X66580314Y-186989935D01*
X66785917Y-187022500D01*
X66785919Y-187022500D01*
X66994081Y-187022500D01*
X66994083Y-187022500D01*
X67199686Y-186989935D01*
X67280758Y-186963593D01*
X69967500Y-186963593D01*
X69967500Y-187056406D01*
X69967501Y-187056414D01*
X69991521Y-187146059D01*
X69991522Y-187146062D01*
X70037929Y-187226439D01*
X70037934Y-187226445D01*
X70103554Y-187292065D01*
X70103560Y-187292070D01*
X70183937Y-187338477D01*
X70183940Y-187338478D01*
X70273592Y-187362500D01*
X70273593Y-187362500D01*
X70366407Y-187362500D01*
X70366408Y-187362500D01*
X70456060Y-187338478D01*
X70536440Y-187292070D01*
X70602070Y-187226440D01*
X70648478Y-187146060D01*
X70672500Y-187056408D01*
X70672500Y-186963592D01*
X70648478Y-186873940D01*
X70648477Y-186873937D01*
X70602070Y-186793560D01*
X70602065Y-186793554D01*
X70536445Y-186727934D01*
X70536439Y-186727929D01*
X70456062Y-186681522D01*
X70456059Y-186681521D01*
X70366414Y-186657501D01*
X70366409Y-186657500D01*
X70366408Y-186657500D01*
X70273592Y-186657500D01*
X70273591Y-186657500D01*
X70273585Y-186657501D01*
X70183940Y-186681521D01*
X70183937Y-186681522D01*
X70103560Y-186727929D01*
X70103554Y-186727934D01*
X70037934Y-186793554D01*
X70037929Y-186793560D01*
X69991522Y-186873937D01*
X69991521Y-186873940D01*
X69967501Y-186963585D01*
X69967500Y-186963593D01*
X67280758Y-186963593D01*
X67397664Y-186925608D01*
X67583141Y-186831103D01*
X67751551Y-186708746D01*
X67898746Y-186561551D01*
X68021103Y-186393141D01*
X68115608Y-186207664D01*
X68179935Y-186009686D01*
X68212500Y-185804083D01*
X68212500Y-185595917D01*
X68179935Y-185390314D01*
X68115608Y-185192336D01*
X68021103Y-185006859D01*
X67898746Y-184838449D01*
X67898741Y-184838444D01*
X67898739Y-184838441D01*
X67751558Y-184691260D01*
X67751554Y-184691257D01*
X67751551Y-184691254D01*
X67583141Y-184568897D01*
X67397664Y-184474392D01*
X67397662Y-184474391D01*
X67199684Y-184410064D01*
X67199685Y-184410064D01*
X66994094Y-184377501D01*
X66994084Y-184377500D01*
X66994083Y-184377500D01*
X66785917Y-184377500D01*
X66785915Y-184377500D01*
X66785905Y-184377501D01*
X66580314Y-184410064D01*
X66382337Y-184474391D01*
X66382329Y-184474395D01*
X66263166Y-184535112D01*
X66196859Y-184568897D01*
X66028449Y-184691254D01*
X66028441Y-184691260D01*
X65881260Y-184838441D01*
X65881254Y-184838448D01*
X65881254Y-184838449D01*
X65775802Y-184983592D01*
X65758896Y-185006861D01*
X65664395Y-185192329D01*
X65664391Y-185192337D01*
X65600064Y-185390314D01*
X65567501Y-185595905D01*
X65567500Y-185595919D01*
X60004945Y-185595919D01*
X59979984Y-185438318D01*
X59925628Y-185271029D01*
X59845772Y-185114302D01*
X59742382Y-184971997D01*
X59742377Y-184971992D01*
X59742375Y-184971989D01*
X59618010Y-184847624D01*
X59618006Y-184847621D01*
X59618003Y-184847618D01*
X59475698Y-184744228D01*
X59318971Y-184664372D01*
X59318969Y-184664371D01*
X59151687Y-184610017D01*
X59151683Y-184610016D01*
X59151682Y-184610016D01*
X59053034Y-184594392D01*
X58977950Y-184582500D01*
X58977949Y-184582500D01*
X58802051Y-184582500D01*
X58802049Y-184582500D01*
X58628312Y-184610017D01*
X58461030Y-184664371D01*
X58461022Y-184664375D01*
X58309400Y-184741630D01*
X58304302Y-184744228D01*
X58174628Y-184838441D01*
X58161989Y-184847624D01*
X58037624Y-184971989D01*
X58037618Y-184971996D01*
X58037618Y-184971997D01*
X57961545Y-185076704D01*
X57934227Y-185114304D01*
X57854375Y-185271022D01*
X57854371Y-185271030D01*
X57800017Y-185438312D01*
X57773896Y-185603239D01*
X57772500Y-185612051D01*
X53690562Y-185612051D01*
X53676445Y-185597934D01*
X53676439Y-185597929D01*
X53596062Y-185551522D01*
X53596059Y-185551521D01*
X53506414Y-185527501D01*
X53506409Y-185527500D01*
X53506408Y-185527500D01*
X53413592Y-185527500D01*
X53413591Y-185527500D01*
X53413585Y-185527501D01*
X53323940Y-185551521D01*
X53323937Y-185551522D01*
X53243560Y-185597929D01*
X53243554Y-185597934D01*
X53177934Y-185663554D01*
X53177929Y-185663560D01*
X53131522Y-185743937D01*
X53131521Y-185743940D01*
X53107501Y-185833585D01*
X53107500Y-185833593D01*
X52265494Y-185833593D01*
X52277750Y-185821337D01*
X52322436Y-185743940D01*
X52324157Y-185740959D01*
X52324158Y-185740956D01*
X52348178Y-185651311D01*
X52348180Y-185651303D01*
X52348180Y-185558490D01*
X52348178Y-185558482D01*
X52324158Y-185468837D01*
X52324157Y-185468834D01*
X52277750Y-185388457D01*
X52277745Y-185388451D01*
X52212125Y-185322831D01*
X52212119Y-185322826D01*
X52131742Y-185276419D01*
X52131739Y-185276418D01*
X52042094Y-185252398D01*
X52042089Y-185252397D01*
X52042088Y-185252397D01*
X51949272Y-185252397D01*
X51949271Y-185252397D01*
X51949265Y-185252398D01*
X51859620Y-185276418D01*
X51859617Y-185276419D01*
X51779240Y-185322826D01*
X51779234Y-185322831D01*
X51713614Y-185388451D01*
X51713609Y-185388457D01*
X51667202Y-185468834D01*
X51667201Y-185468837D01*
X51643181Y-185558482D01*
X51643180Y-185558490D01*
X47700500Y-185558490D01*
X47700500Y-184983593D01*
X55837500Y-184983593D01*
X55837500Y-185076406D01*
X55837501Y-185076414D01*
X55861521Y-185166059D01*
X55861522Y-185166062D01*
X55907929Y-185246439D01*
X55907934Y-185246445D01*
X55973554Y-185312065D01*
X55973560Y-185312070D01*
X56053937Y-185358477D01*
X56053940Y-185358478D01*
X56143592Y-185382500D01*
X56143593Y-185382500D01*
X56236407Y-185382500D01*
X56236408Y-185382500D01*
X56326060Y-185358478D01*
X56406440Y-185312070D01*
X56472070Y-185246440D01*
X56518478Y-185166060D01*
X56542500Y-185076408D01*
X56542500Y-184983592D01*
X56518478Y-184893940D01*
X56518477Y-184893937D01*
X56472070Y-184813560D01*
X56472065Y-184813554D01*
X56406445Y-184747934D01*
X56406439Y-184747929D01*
X56326062Y-184701522D01*
X56326059Y-184701521D01*
X56236414Y-184677501D01*
X56236409Y-184677500D01*
X56236408Y-184677500D01*
X56143592Y-184677500D01*
X56143591Y-184677500D01*
X56143585Y-184677501D01*
X56053940Y-184701521D01*
X56053937Y-184701522D01*
X55973560Y-184747929D01*
X55973554Y-184747934D01*
X55907934Y-184813554D01*
X55907929Y-184813560D01*
X55861522Y-184893937D01*
X55861521Y-184893940D01*
X55837501Y-184983585D01*
X55837500Y-184983593D01*
X47700500Y-184983593D01*
X47700500Y-184353593D01*
X47837500Y-184353593D01*
X47837500Y-184446406D01*
X47837501Y-184446414D01*
X47861521Y-184536059D01*
X47861522Y-184536062D01*
X47907929Y-184616439D01*
X47907934Y-184616445D01*
X47973554Y-184682065D01*
X47973560Y-184682070D01*
X48053937Y-184728477D01*
X48053940Y-184728478D01*
X48143592Y-184752500D01*
X48143593Y-184752500D01*
X48236407Y-184752500D01*
X48236408Y-184752500D01*
X48326060Y-184728478D01*
X48406440Y-184682070D01*
X48472070Y-184616440D01*
X48493731Y-184578923D01*
X48502213Y-184564232D01*
X48540163Y-184535112D01*
X48587589Y-184541356D01*
X48610465Y-184564231D01*
X48657929Y-184646439D01*
X48657934Y-184646445D01*
X48723554Y-184712065D01*
X48723560Y-184712070D01*
X48803937Y-184758477D01*
X48803940Y-184758478D01*
X48893592Y-184782500D01*
X48893593Y-184782500D01*
X48986407Y-184782500D01*
X48986408Y-184782500D01*
X49076060Y-184758478D01*
X49156440Y-184712070D01*
X49222070Y-184646440D01*
X49268478Y-184566060D01*
X49268478Y-184566056D01*
X49269753Y-184563850D01*
X49307704Y-184534730D01*
X49355130Y-184540973D01*
X49384250Y-184578923D01*
X49391522Y-184606060D01*
X49391522Y-184606062D01*
X49437929Y-184686439D01*
X49437934Y-184686445D01*
X49503554Y-184752065D01*
X49503560Y-184752070D01*
X49583937Y-184798477D01*
X49583940Y-184798478D01*
X49673592Y-184822500D01*
X49673593Y-184822500D01*
X49766407Y-184822500D01*
X49766408Y-184822500D01*
X49856060Y-184798478D01*
X49936440Y-184752070D01*
X50002070Y-184686440D01*
X50042487Y-184616436D01*
X50048477Y-184606062D01*
X50048478Y-184606059D01*
X50055749Y-184578923D01*
X50072500Y-184516408D01*
X50072500Y-184423592D01*
X50072499Y-184423587D01*
X50070378Y-184415670D01*
X50070378Y-184415669D01*
X50067142Y-184403593D01*
X53347500Y-184403593D01*
X53347500Y-184496406D01*
X53347501Y-184496414D01*
X53371521Y-184586059D01*
X53371522Y-184586062D01*
X53417929Y-184666439D01*
X53417934Y-184666445D01*
X53483554Y-184732065D01*
X53483560Y-184732070D01*
X53563937Y-184778477D01*
X53563940Y-184778478D01*
X53653592Y-184802500D01*
X53653593Y-184802500D01*
X53746407Y-184802500D01*
X53746408Y-184802500D01*
X53836060Y-184778478D01*
X53916440Y-184732070D01*
X53982070Y-184666440D01*
X54028478Y-184586060D01*
X54052500Y-184496408D01*
X54052500Y-184403592D01*
X54028478Y-184313940D01*
X54028477Y-184313937D01*
X53982070Y-184233560D01*
X53982065Y-184233554D01*
X53916445Y-184167934D01*
X53916441Y-184167931D01*
X53916440Y-184167930D01*
X53896342Y-184156326D01*
X53836062Y-184121522D01*
X53836059Y-184121521D01*
X53806471Y-184113593D01*
X67957500Y-184113593D01*
X67957500Y-184206406D01*
X67957501Y-184206414D01*
X67981521Y-184296059D01*
X67981522Y-184296062D01*
X68027929Y-184376439D01*
X68027934Y-184376445D01*
X68093554Y-184442065D01*
X68093560Y-184442070D01*
X68173937Y-184488477D01*
X68173940Y-184488478D01*
X68263592Y-184512500D01*
X68263593Y-184512500D01*
X68356407Y-184512500D01*
X68356408Y-184512500D01*
X68446060Y-184488478D01*
X68526440Y-184442070D01*
X68592070Y-184376440D01*
X68638478Y-184296060D01*
X68662500Y-184206408D01*
X68662500Y-184113592D01*
X68638478Y-184023940D01*
X68638477Y-184023937D01*
X68592070Y-183943560D01*
X68592065Y-183943554D01*
X68526445Y-183877934D01*
X68526439Y-183877929D01*
X68446062Y-183831522D01*
X68446059Y-183831521D01*
X68356414Y-183807501D01*
X68356409Y-183807500D01*
X68356408Y-183807500D01*
X68263592Y-183807500D01*
X68263591Y-183807500D01*
X68263585Y-183807501D01*
X68173940Y-183831521D01*
X68173937Y-183831522D01*
X68093560Y-183877929D01*
X68093554Y-183877934D01*
X68027934Y-183943554D01*
X68027929Y-183943560D01*
X67981522Y-184023937D01*
X67981521Y-184023940D01*
X67957501Y-184113585D01*
X67957500Y-184113593D01*
X53806471Y-184113593D01*
X53746414Y-184097501D01*
X53746409Y-184097500D01*
X53746408Y-184097500D01*
X53653592Y-184097500D01*
X53653591Y-184097500D01*
X53653585Y-184097501D01*
X53563940Y-184121521D01*
X53563937Y-184121522D01*
X53483560Y-184167929D01*
X53483554Y-184167934D01*
X53417934Y-184233554D01*
X53417929Y-184233560D01*
X53371522Y-184313937D01*
X53371521Y-184313940D01*
X53347501Y-184403585D01*
X53347500Y-184403593D01*
X50067142Y-184403593D01*
X50053744Y-184353593D01*
X50048478Y-184333940D01*
X50048477Y-184333938D01*
X50048477Y-184333937D01*
X50002070Y-184253560D01*
X50002065Y-184253554D01*
X49936445Y-184187934D01*
X49936439Y-184187929D01*
X49856062Y-184141522D01*
X49856059Y-184141521D01*
X49766414Y-184117501D01*
X49766409Y-184117500D01*
X49766408Y-184117500D01*
X49673592Y-184117500D01*
X49673591Y-184117500D01*
X49673585Y-184117501D01*
X49583940Y-184141521D01*
X49583937Y-184141522D01*
X49503560Y-184187929D01*
X49503554Y-184187934D01*
X49437934Y-184253554D01*
X49437929Y-184253560D01*
X49390245Y-184336150D01*
X49352294Y-184365270D01*
X49304868Y-184359025D01*
X49275749Y-184321075D01*
X49268478Y-184293940D01*
X49268477Y-184293937D01*
X49222070Y-184213560D01*
X49222065Y-184213554D01*
X49156445Y-184147934D01*
X49156439Y-184147929D01*
X49076062Y-184101522D01*
X49076059Y-184101521D01*
X48986414Y-184077501D01*
X48986409Y-184077500D01*
X48986408Y-184077500D01*
X48893592Y-184077500D01*
X48893591Y-184077500D01*
X48893585Y-184077501D01*
X48803940Y-184101521D01*
X48803937Y-184101522D01*
X48723560Y-184147929D01*
X48723554Y-184147934D01*
X48657934Y-184213554D01*
X48657929Y-184213560D01*
X48627786Y-184265768D01*
X48589835Y-184294888D01*
X48542409Y-184288643D01*
X48519534Y-184265768D01*
X48472070Y-184183560D01*
X48472065Y-184183554D01*
X48406445Y-184117934D01*
X48406439Y-184117929D01*
X48326062Y-184071522D01*
X48326059Y-184071521D01*
X48236414Y-184047501D01*
X48236409Y-184047500D01*
X48236408Y-184047500D01*
X48143592Y-184047500D01*
X48143591Y-184047500D01*
X48143585Y-184047501D01*
X48053940Y-184071521D01*
X48053937Y-184071522D01*
X47973560Y-184117929D01*
X47973554Y-184117934D01*
X47907934Y-184183554D01*
X47907929Y-184183560D01*
X47861522Y-184263937D01*
X47861521Y-184263940D01*
X47837501Y-184353585D01*
X47837500Y-184353593D01*
X47700500Y-184353593D01*
X47700500Y-182387554D01*
X65682039Y-182387554D01*
X65682039Y-182480367D01*
X65682040Y-182480375D01*
X65706060Y-182570020D01*
X65706061Y-182570023D01*
X65752468Y-182650400D01*
X65752473Y-182650406D01*
X65818093Y-182716026D01*
X65818099Y-182716031D01*
X65898476Y-182762438D01*
X65898479Y-182762439D01*
X65988131Y-182786461D01*
X65988132Y-182786461D01*
X66080946Y-182786461D01*
X66080947Y-182786461D01*
X66170599Y-182762439D01*
X66250979Y-182716031D01*
X66316609Y-182650401D01*
X66363017Y-182570021D01*
X66387039Y-182480369D01*
X66387039Y-182387553D01*
X66370628Y-182326306D01*
X66363018Y-182297904D01*
X66363015Y-182297896D01*
X66316609Y-182217521D01*
X66316604Y-182217515D01*
X66250984Y-182151895D01*
X66250978Y-182151890D01*
X66170601Y-182105483D01*
X66170598Y-182105482D01*
X66080953Y-182081462D01*
X66080948Y-182081461D01*
X66080947Y-182081461D01*
X65988131Y-182081461D01*
X65988130Y-182081461D01*
X65988124Y-182081462D01*
X65898479Y-182105482D01*
X65898476Y-182105483D01*
X65818099Y-182151890D01*
X65818093Y-182151895D01*
X65752473Y-182217515D01*
X65752468Y-182217521D01*
X65706061Y-182297898D01*
X65706060Y-182297901D01*
X65682040Y-182387546D01*
X65682039Y-182387554D01*
X47700500Y-182387554D01*
X47700500Y-181223593D01*
X55957500Y-181223593D01*
X55957500Y-181316406D01*
X55957501Y-181316414D01*
X55981521Y-181406059D01*
X55981522Y-181406062D01*
X56027929Y-181486439D01*
X56027934Y-181486445D01*
X56093554Y-181552065D01*
X56093560Y-181552070D01*
X56173937Y-181598477D01*
X56173940Y-181598478D01*
X56263592Y-181622500D01*
X56263593Y-181622500D01*
X56356407Y-181622500D01*
X56356408Y-181622500D01*
X56446060Y-181598478D01*
X56526440Y-181552070D01*
X56592070Y-181486440D01*
X56638478Y-181406060D01*
X56662500Y-181316408D01*
X56662500Y-181223592D01*
X56638478Y-181133940D01*
X56638475Y-181133934D01*
X56637212Y-181131745D01*
X56620133Y-181102164D01*
X70240000Y-181102164D01*
X70240000Y-181800000D01*
X71264722Y-181800000D01*
X71220667Y-181876306D01*
X71190000Y-181990756D01*
X71190000Y-182109244D01*
X71220667Y-182223694D01*
X71264722Y-182300000D01*
X70240000Y-182300000D01*
X70240000Y-182997835D01*
X70246402Y-183057377D01*
X70296647Y-183192091D01*
X70296649Y-183192094D01*
X70382808Y-183307186D01*
X70382813Y-183307191D01*
X70497905Y-183393350D01*
X70497908Y-183393352D01*
X70632622Y-183443597D01*
X70692164Y-183449999D01*
X70692178Y-183450000D01*
X71469802Y-183450000D01*
X71513996Y-183468306D01*
X71532302Y-183512500D01*
X71513996Y-183556694D01*
X71481995Y-183573799D01*
X71340290Y-183601985D01*
X71340289Y-183601985D01*
X71153295Y-183679441D01*
X71153293Y-183679442D01*
X70985007Y-183791887D01*
X70841887Y-183935007D01*
X70729442Y-184103293D01*
X70729441Y-184103295D01*
X70651985Y-184290289D01*
X70651985Y-184290290D01*
X70612500Y-184488799D01*
X70612500Y-184691200D01*
X70651985Y-184889709D01*
X70651985Y-184889710D01*
X70729441Y-185076704D01*
X70729442Y-185076706D01*
X70806704Y-185192337D01*
X70841888Y-185244993D01*
X70985007Y-185388112D01*
X71153296Y-185500559D01*
X71340289Y-185578014D01*
X71538800Y-185617500D01*
X71741200Y-185617500D01*
X71939711Y-185578014D01*
X72126704Y-185500559D01*
X72294993Y-185388112D01*
X72438112Y-185244993D01*
X72550559Y-185076704D01*
X72628014Y-184889711D01*
X72667500Y-184691200D01*
X72667500Y-184488800D01*
X72628014Y-184290289D01*
X72550559Y-184103296D01*
X72438112Y-183935007D01*
X72294993Y-183791888D01*
X72294992Y-183791887D01*
X72126706Y-183679442D01*
X72126704Y-183679441D01*
X71939709Y-183601985D01*
X71798005Y-183573799D01*
X71758231Y-183547223D01*
X71748899Y-183500307D01*
X71775475Y-183460533D01*
X71810198Y-183450000D01*
X72587822Y-183450000D01*
X72587835Y-183449999D01*
X72647377Y-183443597D01*
X72782091Y-183393352D01*
X72782094Y-183393350D01*
X72897186Y-183307191D01*
X72897191Y-183307186D01*
X72983350Y-183192094D01*
X72983352Y-183192091D01*
X73033597Y-183057377D01*
X73039999Y-182997835D01*
X73040000Y-182997822D01*
X73040000Y-182300000D01*
X72015278Y-182300000D01*
X72059333Y-182223694D01*
X72090000Y-182109244D01*
X72090000Y-181990756D01*
X72059333Y-181876306D01*
X72015278Y-181800000D01*
X73040000Y-181800000D01*
X73040000Y-181102177D01*
X73039999Y-181102164D01*
X73033597Y-181042622D01*
X72983352Y-180907908D01*
X72983350Y-180907905D01*
X72897191Y-180792813D01*
X72897186Y-180792808D01*
X72782094Y-180706649D01*
X72782091Y-180706647D01*
X72647377Y-180656402D01*
X72587835Y-180650000D01*
X71890000Y-180650000D01*
X71890000Y-181674722D01*
X71813694Y-181630667D01*
X71699244Y-181600000D01*
X71580756Y-181600000D01*
X71466306Y-181630667D01*
X71390000Y-181674722D01*
X71390000Y-180650000D01*
X70692164Y-180650000D01*
X70632622Y-180656402D01*
X70497908Y-180706647D01*
X70497905Y-180706649D01*
X70382813Y-180792808D01*
X70382808Y-180792813D01*
X70296649Y-180907905D01*
X70296647Y-180907908D01*
X70246402Y-181042622D01*
X70240000Y-181102164D01*
X56620133Y-181102164D01*
X56592070Y-181053560D01*
X56592065Y-181053554D01*
X56526445Y-180987934D01*
X56526439Y-180987929D01*
X56446062Y-180941522D01*
X56446059Y-180941521D01*
X56356414Y-180917501D01*
X56356409Y-180917500D01*
X56356408Y-180917500D01*
X56263592Y-180917500D01*
X56263591Y-180917500D01*
X56263585Y-180917501D01*
X56173940Y-180941521D01*
X56173937Y-180941522D01*
X56093560Y-180987929D01*
X56093554Y-180987934D01*
X56027934Y-181053554D01*
X56027929Y-181053560D01*
X55981522Y-181133937D01*
X55981521Y-181133940D01*
X55957501Y-181223585D01*
X55957500Y-181223593D01*
X47700500Y-181223593D01*
X47700500Y-179973593D01*
X55937500Y-179973593D01*
X55937500Y-180066406D01*
X55937501Y-180066414D01*
X55961521Y-180156059D01*
X55961522Y-180156062D01*
X56007929Y-180236439D01*
X56007934Y-180236445D01*
X56073554Y-180302065D01*
X56073560Y-180302070D01*
X56153937Y-180348477D01*
X56153940Y-180348478D01*
X56243592Y-180372500D01*
X56243593Y-180372500D01*
X56336407Y-180372500D01*
X56336408Y-180372500D01*
X56426060Y-180348478D01*
X56506440Y-180302070D01*
X56572070Y-180236440D01*
X56614129Y-180163593D01*
X61607500Y-180163593D01*
X61607500Y-180256406D01*
X61607501Y-180256414D01*
X61631521Y-180346059D01*
X61631522Y-180346062D01*
X61677929Y-180426439D01*
X61677934Y-180426445D01*
X61743554Y-180492065D01*
X61743560Y-180492070D01*
X61823937Y-180538477D01*
X61823940Y-180538478D01*
X61913592Y-180562500D01*
X61913593Y-180562500D01*
X62006407Y-180562500D01*
X62006408Y-180562500D01*
X62096060Y-180538478D01*
X62176440Y-180492070D01*
X62242070Y-180426440D01*
X62288478Y-180346060D01*
X62312500Y-180256408D01*
X62312500Y-180163592D01*
X62288478Y-180073940D01*
X62288477Y-180073937D01*
X62242070Y-179993560D01*
X62242065Y-179993554D01*
X62176445Y-179927934D01*
X62176439Y-179927929D01*
X62151609Y-179913593D01*
X69507500Y-179913593D01*
X69507500Y-180006406D01*
X69507501Y-180006414D01*
X69531521Y-180096059D01*
X69531522Y-180096062D01*
X69577929Y-180176439D01*
X69577934Y-180176445D01*
X69643554Y-180242065D01*
X69643560Y-180242070D01*
X69723937Y-180288477D01*
X69723940Y-180288478D01*
X69813592Y-180312500D01*
X69813593Y-180312500D01*
X69906407Y-180312500D01*
X69906408Y-180312500D01*
X69996060Y-180288478D01*
X70076440Y-180242070D01*
X70142070Y-180176440D01*
X70188478Y-180096060D01*
X70212500Y-180006408D01*
X70212500Y-179913592D01*
X70188478Y-179823940D01*
X70188477Y-179823937D01*
X70142070Y-179743560D01*
X70142065Y-179743554D01*
X70076445Y-179677934D01*
X70076439Y-179677929D01*
X69996062Y-179631522D01*
X69996059Y-179631521D01*
X69906414Y-179607501D01*
X69906409Y-179607500D01*
X69906408Y-179607500D01*
X69813592Y-179607500D01*
X69813591Y-179607500D01*
X69813585Y-179607501D01*
X69723940Y-179631521D01*
X69723937Y-179631522D01*
X69643560Y-179677929D01*
X69643554Y-179677934D01*
X69577934Y-179743554D01*
X69577929Y-179743560D01*
X69531522Y-179823937D01*
X69531521Y-179823940D01*
X69507501Y-179913585D01*
X69507500Y-179913593D01*
X62151609Y-179913593D01*
X62096062Y-179881522D01*
X62096059Y-179881521D01*
X62006414Y-179857501D01*
X62006409Y-179857500D01*
X62006408Y-179857500D01*
X61913592Y-179857500D01*
X61913591Y-179857500D01*
X61913585Y-179857501D01*
X61823940Y-179881521D01*
X61823937Y-179881522D01*
X61743560Y-179927929D01*
X61743554Y-179927934D01*
X61677934Y-179993554D01*
X61677929Y-179993560D01*
X61631522Y-180073937D01*
X61631521Y-180073940D01*
X61607501Y-180163585D01*
X61607500Y-180163593D01*
X56614129Y-180163593D01*
X56618478Y-180156060D01*
X56642500Y-180066408D01*
X56642500Y-179973592D01*
X56618478Y-179883940D01*
X56618477Y-179883937D01*
X56572070Y-179803560D01*
X56572065Y-179803554D01*
X56506445Y-179737934D01*
X56506439Y-179737929D01*
X56426062Y-179691522D01*
X56426059Y-179691521D01*
X56336414Y-179667501D01*
X56336409Y-179667500D01*
X56336408Y-179667500D01*
X56243592Y-179667500D01*
X56243591Y-179667500D01*
X56243585Y-179667501D01*
X56153940Y-179691521D01*
X56153937Y-179691522D01*
X56073560Y-179737929D01*
X56073554Y-179737934D01*
X56007934Y-179803554D01*
X56007929Y-179803560D01*
X55961522Y-179883937D01*
X55961521Y-179883940D01*
X55937501Y-179973585D01*
X55937500Y-179973593D01*
X47700500Y-179973593D01*
X47700500Y-177375299D01*
X48987500Y-177375299D01*
X48987500Y-177624700D01*
X49020052Y-177871959D01*
X49020052Y-177871960D01*
X49084598Y-178112846D01*
X49180036Y-178343254D01*
X49180042Y-178343266D01*
X49275111Y-178507929D01*
X49304735Y-178559240D01*
X49456556Y-178757097D01*
X49632903Y-178933444D01*
X49830760Y-179085265D01*
X50046740Y-179209961D01*
X50277149Y-179305400D01*
X50277153Y-179305401D01*
X50277152Y-179305401D01*
X50518040Y-179369947D01*
X50518044Y-179369948D01*
X50765304Y-179402500D01*
X50765310Y-179402500D01*
X51014690Y-179402500D01*
X51014696Y-179402500D01*
X51261956Y-179369948D01*
X51502851Y-179305400D01*
X51733260Y-179209961D01*
X51949240Y-179085265D01*
X52147097Y-178933444D01*
X52323444Y-178757097D01*
X52333806Y-178743593D01*
X57357500Y-178743593D01*
X57357500Y-178836406D01*
X57357501Y-178836414D01*
X57381521Y-178926059D01*
X57381522Y-178926062D01*
X57427929Y-179006439D01*
X57427934Y-179006445D01*
X57493554Y-179072065D01*
X57493560Y-179072070D01*
X57573937Y-179118477D01*
X57573940Y-179118478D01*
X57663592Y-179142500D01*
X57663593Y-179142500D01*
X57756407Y-179142500D01*
X57756408Y-179142500D01*
X57846060Y-179118478D01*
X57926440Y-179072070D01*
X57992070Y-179006440D01*
X58005260Y-178983593D01*
X61897500Y-178983593D01*
X61897500Y-179076406D01*
X61897501Y-179076414D01*
X61921521Y-179166059D01*
X61921522Y-179166062D01*
X61967929Y-179246439D01*
X61967934Y-179246445D01*
X62033554Y-179312065D01*
X62033560Y-179312070D01*
X62113937Y-179358477D01*
X62113940Y-179358478D01*
X62203592Y-179382500D01*
X62203593Y-179382500D01*
X62296407Y-179382500D01*
X62296408Y-179382500D01*
X62386060Y-179358478D01*
X62466440Y-179312070D01*
X62532070Y-179246440D01*
X62578478Y-179166060D01*
X62602500Y-179076408D01*
X62602500Y-178983592D01*
X62578478Y-178893940D01*
X62578477Y-178893937D01*
X62532070Y-178813560D01*
X62532065Y-178813554D01*
X62466445Y-178747934D01*
X62466439Y-178747929D01*
X62386062Y-178701522D01*
X62386059Y-178701521D01*
X62296414Y-178677501D01*
X62296409Y-178677500D01*
X62296408Y-178677500D01*
X62203592Y-178677500D01*
X62203591Y-178677500D01*
X62203585Y-178677501D01*
X62113940Y-178701521D01*
X62113937Y-178701522D01*
X62033560Y-178747929D01*
X62033554Y-178747934D01*
X61967934Y-178813554D01*
X61967929Y-178813560D01*
X61921522Y-178893937D01*
X61921521Y-178893940D01*
X61897501Y-178983585D01*
X61897500Y-178983593D01*
X58005260Y-178983593D01*
X58007531Y-178979659D01*
X58025670Y-178948245D01*
X58034216Y-178933442D01*
X58038478Y-178926060D01*
X58062500Y-178836408D01*
X58062500Y-178743592D01*
X58038478Y-178653940D01*
X58038477Y-178653937D01*
X57992070Y-178573560D01*
X57992065Y-178573554D01*
X57926445Y-178507934D01*
X57926439Y-178507929D01*
X57846062Y-178461522D01*
X57846059Y-178461521D01*
X57756414Y-178437501D01*
X57756409Y-178437500D01*
X57756408Y-178437500D01*
X57663592Y-178437500D01*
X57663591Y-178437500D01*
X57663585Y-178437501D01*
X57573940Y-178461521D01*
X57573937Y-178461522D01*
X57493560Y-178507929D01*
X57493554Y-178507934D01*
X57427934Y-178573554D01*
X57427929Y-178573560D01*
X57381522Y-178653937D01*
X57381521Y-178653940D01*
X57357501Y-178743585D01*
X57357500Y-178743593D01*
X52333806Y-178743593D01*
X52475265Y-178559240D01*
X52599961Y-178343260D01*
X52680510Y-178148799D01*
X70672500Y-178148799D01*
X70672500Y-178351200D01*
X70711985Y-178549709D01*
X70711985Y-178549710D01*
X70789441Y-178736704D01*
X70789442Y-178736706D01*
X70901887Y-178904992D01*
X70901888Y-178904993D01*
X71045007Y-179048112D01*
X71213296Y-179160559D01*
X71400289Y-179238014D01*
X71598800Y-179277500D01*
X71801200Y-179277500D01*
X71999711Y-179238014D01*
X72186704Y-179160559D01*
X72354993Y-179048112D01*
X72498112Y-178904993D01*
X72610559Y-178736704D01*
X72688014Y-178549711D01*
X72727500Y-178351200D01*
X72727500Y-178148800D01*
X72688014Y-177950289D01*
X72610559Y-177763296D01*
X72498112Y-177595007D01*
X72354993Y-177451888D01*
X72240377Y-177375304D01*
X72186706Y-177339442D01*
X72186704Y-177339441D01*
X71999709Y-177261985D01*
X71801200Y-177222500D01*
X71598800Y-177222500D01*
X71400290Y-177261985D01*
X71400289Y-177261985D01*
X71213295Y-177339441D01*
X71213293Y-177339442D01*
X71045007Y-177451887D01*
X70901887Y-177595007D01*
X70789442Y-177763293D01*
X70789441Y-177763295D01*
X70711985Y-177950289D01*
X70711985Y-177950290D01*
X70672500Y-178148799D01*
X52680510Y-178148799D01*
X52695400Y-178112851D01*
X52759948Y-177871956D01*
X52792500Y-177624696D01*
X52792500Y-177375304D01*
X52759948Y-177128044D01*
X52695400Y-176887149D01*
X52599961Y-176656740D01*
X52475265Y-176440760D01*
X52323444Y-176242903D01*
X52147097Y-176066556D01*
X51949240Y-175914735D01*
X51931526Y-175904508D01*
X51733266Y-175790042D01*
X51733254Y-175790036D01*
X51502846Y-175694598D01*
X51502847Y-175694598D01*
X51261959Y-175630052D01*
X51014700Y-175597500D01*
X51014696Y-175597500D01*
X50765304Y-175597500D01*
X50765299Y-175597500D01*
X50518040Y-175630052D01*
X50518039Y-175630052D01*
X50277153Y-175694598D01*
X50046745Y-175790036D01*
X50046733Y-175790042D01*
X49830766Y-175914731D01*
X49830763Y-175914733D01*
X49830760Y-175914735D01*
X49725811Y-175995264D01*
X49632901Y-176066557D01*
X49456557Y-176242901D01*
X49385264Y-176335811D01*
X49304735Y-176440760D01*
X49304733Y-176440763D01*
X49304731Y-176440766D01*
X49180042Y-176656733D01*
X49180036Y-176656745D01*
X49084598Y-176887153D01*
X49020052Y-177128039D01*
X49020052Y-177128040D01*
X48987500Y-177375299D01*
X47700500Y-177375299D01*
X47700500Y-174797442D01*
X70672500Y-174797442D01*
X70672500Y-176622557D01*
X70679898Y-176659748D01*
X70679898Y-176659749D01*
X70708077Y-176701922D01*
X70736257Y-176720750D01*
X70750252Y-176730102D01*
X70787442Y-176737500D01*
X70787443Y-176737500D01*
X72612557Y-176737500D01*
X72612558Y-176737500D01*
X72649748Y-176730102D01*
X72691922Y-176701922D01*
X72720102Y-176659748D01*
X72727500Y-176622558D01*
X72727500Y-174797442D01*
X72720102Y-174760252D01*
X72720101Y-174760250D01*
X72691922Y-174718077D01*
X72649748Y-174689898D01*
X72612558Y-174682500D01*
X70787442Y-174682500D01*
X70768847Y-174686199D01*
X70750251Y-174689898D01*
X70750250Y-174689898D01*
X70708077Y-174718077D01*
X70679898Y-174760250D01*
X70679898Y-174760251D01*
X70672500Y-174797442D01*
X47700500Y-174797442D01*
X47700500Y-174213593D01*
X54459000Y-174213593D01*
X54459000Y-174306406D01*
X54459001Y-174306414D01*
X54483021Y-174396059D01*
X54483022Y-174396062D01*
X54529429Y-174476439D01*
X54529434Y-174476445D01*
X54595054Y-174542065D01*
X54595060Y-174542070D01*
X54675437Y-174588477D01*
X54675440Y-174588478D01*
X54765092Y-174612500D01*
X54765093Y-174612500D01*
X54857907Y-174612500D01*
X54857908Y-174612500D01*
X54947560Y-174588478D01*
X55027940Y-174542070D01*
X55093570Y-174476440D01*
X55139978Y-174396060D01*
X55164000Y-174306408D01*
X55164000Y-174213592D01*
X55139978Y-174123940D01*
X55139977Y-174123937D01*
X55093570Y-174043560D01*
X55093565Y-174043554D01*
X55027945Y-173977934D01*
X55027939Y-173977929D01*
X54947562Y-173931522D01*
X54947559Y-173931521D01*
X54857914Y-173907501D01*
X54857909Y-173907500D01*
X54857908Y-173907500D01*
X54765092Y-173907500D01*
X54765091Y-173907500D01*
X54765085Y-173907501D01*
X54675440Y-173931521D01*
X54675437Y-173931522D01*
X54595060Y-173977929D01*
X54595054Y-173977934D01*
X54529434Y-174043554D01*
X54529429Y-174043560D01*
X54483022Y-174123937D01*
X54483021Y-174123940D01*
X54459001Y-174213585D01*
X54459000Y-174213593D01*
X47700500Y-174213593D01*
X47700500Y-172993593D01*
X54620500Y-172993593D01*
X54620500Y-173086406D01*
X54620501Y-173086414D01*
X54644521Y-173176059D01*
X54644522Y-173176062D01*
X54690929Y-173256439D01*
X54690934Y-173256445D01*
X54756554Y-173322065D01*
X54756560Y-173322070D01*
X54836937Y-173368477D01*
X54836940Y-173368478D01*
X54926592Y-173392500D01*
X54926593Y-173392500D01*
X55019407Y-173392500D01*
X55019408Y-173392500D01*
X55109060Y-173368478D01*
X55189440Y-173322070D01*
X55255070Y-173256440D01*
X55301478Y-173176060D01*
X55325500Y-173086408D01*
X55325500Y-173063593D01*
X56327500Y-173063593D01*
X56327500Y-173156406D01*
X56327501Y-173156414D01*
X56351521Y-173246059D01*
X56351522Y-173246062D01*
X56397929Y-173326439D01*
X56397934Y-173326445D01*
X56463554Y-173392065D01*
X56463560Y-173392070D01*
X56543937Y-173438477D01*
X56543940Y-173438478D01*
X56633592Y-173462500D01*
X56633593Y-173462500D01*
X56726407Y-173462500D01*
X56726408Y-173462500D01*
X56816060Y-173438478D01*
X56896440Y-173392070D01*
X56962070Y-173326440D01*
X57008478Y-173246060D01*
X57032500Y-173156408D01*
X57032500Y-173063592D01*
X57008478Y-172973940D01*
X57008477Y-172973937D01*
X56962070Y-172893560D01*
X56962065Y-172893554D01*
X56896445Y-172827934D01*
X56896439Y-172827929D01*
X56816062Y-172781522D01*
X56816059Y-172781521D01*
X56726414Y-172757501D01*
X56726409Y-172757500D01*
X56726408Y-172757500D01*
X56633592Y-172757500D01*
X56633591Y-172757500D01*
X56633585Y-172757501D01*
X56543940Y-172781521D01*
X56543937Y-172781522D01*
X56463560Y-172827929D01*
X56463554Y-172827934D01*
X56397934Y-172893554D01*
X56397929Y-172893560D01*
X56351522Y-172973937D01*
X56351521Y-172973940D01*
X56327501Y-173063585D01*
X56327500Y-173063593D01*
X55325500Y-173063593D01*
X55325500Y-172993592D01*
X55301478Y-172903940D01*
X55301477Y-172903937D01*
X55255070Y-172823560D01*
X55255065Y-172823554D01*
X55189445Y-172757934D01*
X55189439Y-172757929D01*
X55109062Y-172711522D01*
X55109059Y-172711521D01*
X55019414Y-172687501D01*
X55019409Y-172687500D01*
X55019408Y-172687500D01*
X54926592Y-172687500D01*
X54926591Y-172687500D01*
X54926585Y-172687501D01*
X54836940Y-172711521D01*
X54836937Y-172711522D01*
X54756560Y-172757929D01*
X54756554Y-172757934D01*
X54690934Y-172823554D01*
X54690929Y-172823560D01*
X54644522Y-172903937D01*
X54644521Y-172903940D01*
X54620501Y-172993585D01*
X54620500Y-172993593D01*
X47700500Y-172993593D01*
X47700500Y-172028799D01*
X70682500Y-172028799D01*
X70682500Y-172231200D01*
X70721985Y-172429709D01*
X70721985Y-172429710D01*
X70799441Y-172616704D01*
X70799442Y-172616706D01*
X70911887Y-172784992D01*
X70911888Y-172784993D01*
X71055007Y-172928112D01*
X71223296Y-173040559D01*
X71410289Y-173118014D01*
X71608800Y-173157500D01*
X71811200Y-173157500D01*
X72009711Y-173118014D01*
X72196704Y-173040559D01*
X72364993Y-172928112D01*
X72508112Y-172784993D01*
X72620559Y-172616704D01*
X72698014Y-172429711D01*
X72737500Y-172231200D01*
X72737500Y-172028800D01*
X72698014Y-171830289D01*
X72620559Y-171643296D01*
X72508112Y-171475007D01*
X72364993Y-171331888D01*
X72364992Y-171331887D01*
X72196706Y-171219442D01*
X72196704Y-171219441D01*
X72009709Y-171141985D01*
X71811200Y-171102500D01*
X71608800Y-171102500D01*
X71410290Y-171141985D01*
X71410289Y-171141985D01*
X71223295Y-171219441D01*
X71223293Y-171219442D01*
X71055007Y-171331887D01*
X70911887Y-171475007D01*
X70799442Y-171643293D01*
X70799441Y-171643295D01*
X70721985Y-171830289D01*
X70721985Y-171830290D01*
X70682500Y-172028799D01*
X47700500Y-172028799D01*
X47700500Y-171273593D01*
X63857500Y-171273593D01*
X63857500Y-171366406D01*
X63857501Y-171366414D01*
X63881521Y-171456059D01*
X63881522Y-171456062D01*
X63927929Y-171536439D01*
X63927934Y-171536445D01*
X63993554Y-171602065D01*
X63993560Y-171602070D01*
X64073937Y-171648477D01*
X64073940Y-171648478D01*
X64163592Y-171672500D01*
X64163593Y-171672500D01*
X64256407Y-171672500D01*
X64256408Y-171672500D01*
X64346060Y-171648478D01*
X64355036Y-171643296D01*
X64363048Y-171638669D01*
X64426440Y-171602070D01*
X64492070Y-171536440D01*
X64538478Y-171456060D01*
X64562500Y-171366408D01*
X64562500Y-171273592D01*
X64538478Y-171183940D01*
X64538477Y-171183937D01*
X64492070Y-171103560D01*
X64492065Y-171103554D01*
X64426445Y-171037934D01*
X64426439Y-171037929D01*
X64346062Y-170991522D01*
X64346059Y-170991521D01*
X64256414Y-170967501D01*
X64256409Y-170967500D01*
X64256408Y-170967500D01*
X64163592Y-170967500D01*
X64163591Y-170967500D01*
X64163585Y-170967501D01*
X64073940Y-170991521D01*
X64073937Y-170991522D01*
X63993560Y-171037929D01*
X63993554Y-171037934D01*
X63927934Y-171103554D01*
X63927929Y-171103560D01*
X63881522Y-171183937D01*
X63881521Y-171183940D01*
X63857501Y-171273585D01*
X63857500Y-171273593D01*
X47700500Y-171273593D01*
X47700500Y-170423593D01*
X55577500Y-170423593D01*
X55577500Y-170516406D01*
X55577501Y-170516414D01*
X55601521Y-170606059D01*
X55601522Y-170606062D01*
X55647929Y-170686439D01*
X55647934Y-170686445D01*
X55713554Y-170752065D01*
X55713560Y-170752070D01*
X55793937Y-170798477D01*
X55793940Y-170798478D01*
X55883592Y-170822500D01*
X55883593Y-170822500D01*
X55976407Y-170822500D01*
X55976408Y-170822500D01*
X56066060Y-170798478D01*
X56146440Y-170752070D01*
X56212070Y-170686440D01*
X56229611Y-170656059D01*
X56249534Y-170621552D01*
X56287484Y-170592432D01*
X56334910Y-170598676D01*
X56357786Y-170621551D01*
X56377929Y-170656439D01*
X56377934Y-170656445D01*
X56443554Y-170722065D01*
X56443560Y-170722070D01*
X56523937Y-170768477D01*
X56523940Y-170768478D01*
X56613592Y-170792500D01*
X56613593Y-170792500D01*
X56706407Y-170792500D01*
X56706408Y-170792500D01*
X56796060Y-170768478D01*
X56876440Y-170722070D01*
X56942070Y-170656440D01*
X56988478Y-170576060D01*
X57012500Y-170486408D01*
X57012500Y-170473593D01*
X58227500Y-170473593D01*
X58227500Y-170566406D01*
X58227501Y-170566414D01*
X58251521Y-170656059D01*
X58251522Y-170656062D01*
X58297929Y-170736439D01*
X58297934Y-170736445D01*
X58363554Y-170802065D01*
X58363560Y-170802070D01*
X58443937Y-170848477D01*
X58443940Y-170848478D01*
X58533592Y-170872500D01*
X58533593Y-170872500D01*
X58626407Y-170872500D01*
X58626408Y-170872500D01*
X58716060Y-170848478D01*
X58796440Y-170802070D01*
X58862070Y-170736440D01*
X58908478Y-170656060D01*
X58932500Y-170566408D01*
X58932500Y-170473592D01*
X58908478Y-170383940D01*
X58908477Y-170383937D01*
X58862070Y-170303560D01*
X58862065Y-170303554D01*
X58796445Y-170237934D01*
X58796439Y-170237929D01*
X58771609Y-170223593D01*
X66227500Y-170223593D01*
X66227500Y-170316406D01*
X66227501Y-170316414D01*
X66251521Y-170406059D01*
X66251522Y-170406062D01*
X66297929Y-170486439D01*
X66297934Y-170486445D01*
X66363554Y-170552065D01*
X66363560Y-170552070D01*
X66443937Y-170598477D01*
X66443940Y-170598478D01*
X66533592Y-170622500D01*
X66533593Y-170622500D01*
X66626407Y-170622500D01*
X66626408Y-170622500D01*
X66716060Y-170598478D01*
X66796440Y-170552070D01*
X66862070Y-170486440D01*
X66908478Y-170406060D01*
X66932500Y-170316408D01*
X66932500Y-170223592D01*
X66908478Y-170133940D01*
X66908477Y-170133937D01*
X66862070Y-170053560D01*
X66862065Y-170053554D01*
X66796445Y-169987934D01*
X66796439Y-169987929D01*
X66716062Y-169941522D01*
X66716059Y-169941521D01*
X66626414Y-169917501D01*
X66626409Y-169917500D01*
X66626408Y-169917500D01*
X66533592Y-169917500D01*
X66533591Y-169917500D01*
X66533585Y-169917501D01*
X66443940Y-169941521D01*
X66443937Y-169941522D01*
X66363560Y-169987929D01*
X66363554Y-169987934D01*
X66297934Y-170053554D01*
X66297929Y-170053560D01*
X66251522Y-170133937D01*
X66251521Y-170133940D01*
X66227501Y-170223585D01*
X66227500Y-170223593D01*
X58771609Y-170223593D01*
X58716062Y-170191522D01*
X58716059Y-170191521D01*
X58626414Y-170167501D01*
X58626409Y-170167500D01*
X58626408Y-170167500D01*
X58533592Y-170167500D01*
X58533591Y-170167500D01*
X58533585Y-170167501D01*
X58443940Y-170191521D01*
X58443937Y-170191522D01*
X58363560Y-170237929D01*
X58363554Y-170237934D01*
X58297934Y-170303554D01*
X58297929Y-170303560D01*
X58251522Y-170383937D01*
X58251521Y-170383940D01*
X58227501Y-170473585D01*
X58227500Y-170473593D01*
X57012500Y-170473593D01*
X57012500Y-170393592D01*
X56988478Y-170303940D01*
X56988477Y-170303937D01*
X56942070Y-170223560D01*
X56942065Y-170223554D01*
X56876445Y-170157934D01*
X56876439Y-170157929D01*
X56796062Y-170111522D01*
X56796059Y-170111521D01*
X56706414Y-170087501D01*
X56706409Y-170087500D01*
X56706408Y-170087500D01*
X56613592Y-170087500D01*
X56613591Y-170087500D01*
X56613585Y-170087501D01*
X56523940Y-170111521D01*
X56523937Y-170111522D01*
X56443560Y-170157929D01*
X56443554Y-170157934D01*
X56377934Y-170223554D01*
X56377929Y-170223560D01*
X56340465Y-170288448D01*
X56302514Y-170317568D01*
X56255088Y-170311323D01*
X56232213Y-170288448D01*
X56212070Y-170253560D01*
X56212065Y-170253554D01*
X56146445Y-170187934D01*
X56146439Y-170187929D01*
X56066062Y-170141522D01*
X56066059Y-170141521D01*
X55976414Y-170117501D01*
X55976409Y-170117500D01*
X55976408Y-170117500D01*
X55883592Y-170117500D01*
X55883591Y-170117500D01*
X55883585Y-170117501D01*
X55793940Y-170141521D01*
X55793937Y-170141522D01*
X55713560Y-170187929D01*
X55713554Y-170187934D01*
X55647934Y-170253554D01*
X55647929Y-170253560D01*
X55601522Y-170333937D01*
X55601521Y-170333940D01*
X55577501Y-170423585D01*
X55577500Y-170423593D01*
X47700500Y-170423593D01*
X47700500Y-169483593D01*
X56187500Y-169483593D01*
X56187500Y-169576406D01*
X56187501Y-169576414D01*
X56211521Y-169666059D01*
X56211522Y-169666062D01*
X56257929Y-169746439D01*
X56257934Y-169746445D01*
X56323554Y-169812065D01*
X56323560Y-169812070D01*
X56403937Y-169858477D01*
X56403940Y-169858478D01*
X56493592Y-169882500D01*
X56493593Y-169882500D01*
X56586407Y-169882500D01*
X56586408Y-169882500D01*
X56676060Y-169858478D01*
X56756440Y-169812070D01*
X56822070Y-169746440D01*
X56868478Y-169666060D01*
X56892500Y-169576408D01*
X56892500Y-169573593D01*
X62566899Y-169573593D01*
X62566899Y-169666406D01*
X62566900Y-169666414D01*
X62590920Y-169756059D01*
X62590921Y-169756062D01*
X62637328Y-169836439D01*
X62637333Y-169836445D01*
X62702953Y-169902065D01*
X62702959Y-169902070D01*
X62783336Y-169948477D01*
X62783339Y-169948478D01*
X62872991Y-169972500D01*
X62872992Y-169972500D01*
X62965806Y-169972500D01*
X62965807Y-169972500D01*
X63055459Y-169948478D01*
X63135839Y-169902070D01*
X63201469Y-169836440D01*
X63247877Y-169756060D01*
X63271899Y-169666408D01*
X63271899Y-169573592D01*
X63247877Y-169483940D01*
X63247876Y-169483937D01*
X63201469Y-169403560D01*
X63201464Y-169403554D01*
X63135844Y-169337934D01*
X63135838Y-169337929D01*
X63055461Y-169291522D01*
X63055458Y-169291521D01*
X62965813Y-169267501D01*
X62965808Y-169267500D01*
X62965807Y-169267500D01*
X62872991Y-169267500D01*
X62872990Y-169267500D01*
X62872984Y-169267501D01*
X62783339Y-169291521D01*
X62783336Y-169291522D01*
X62702959Y-169337929D01*
X62702953Y-169337934D01*
X62637333Y-169403554D01*
X62637328Y-169403560D01*
X62590921Y-169483937D01*
X62590920Y-169483940D01*
X62566900Y-169573585D01*
X62566899Y-169573593D01*
X56892500Y-169573593D01*
X56892500Y-169483592D01*
X56868478Y-169393940D01*
X56868477Y-169393937D01*
X56822070Y-169313560D01*
X56822065Y-169313554D01*
X56756445Y-169247934D01*
X56756439Y-169247929D01*
X56676062Y-169201522D01*
X56676059Y-169201521D01*
X56586414Y-169177501D01*
X56586409Y-169177500D01*
X56586408Y-169177500D01*
X56493592Y-169177500D01*
X56493591Y-169177500D01*
X56493585Y-169177501D01*
X56403940Y-169201521D01*
X56403937Y-169201522D01*
X56323560Y-169247929D01*
X56323554Y-169247934D01*
X56257934Y-169313554D01*
X56257929Y-169313560D01*
X56211522Y-169393937D01*
X56211521Y-169393940D01*
X56187501Y-169483585D01*
X56187500Y-169483593D01*
X47700500Y-169483593D01*
X47700500Y-168763095D01*
X64007500Y-168763095D01*
X64007500Y-168855908D01*
X64007501Y-168855916D01*
X64031521Y-168945561D01*
X64031522Y-168945564D01*
X64077929Y-169025941D01*
X64077934Y-169025947D01*
X64143554Y-169091567D01*
X64143560Y-169091572D01*
X64223937Y-169137979D01*
X64223940Y-169137980D01*
X64313592Y-169162002D01*
X64313593Y-169162002D01*
X64406407Y-169162002D01*
X64406408Y-169162002D01*
X64496060Y-169137980D01*
X64576440Y-169091572D01*
X64642070Y-169025942D01*
X64688478Y-168945562D01*
X64712500Y-168855910D01*
X64712500Y-168763094D01*
X64709775Y-168752926D01*
X64693062Y-168690547D01*
X64690721Y-168681813D01*
X64689550Y-168677442D01*
X70682500Y-168677442D01*
X70682500Y-170502557D01*
X70689898Y-170539748D01*
X70689898Y-170539749D01*
X70718077Y-170581922D01*
X70743152Y-170598676D01*
X70760252Y-170610102D01*
X70797442Y-170617500D01*
X70797443Y-170617500D01*
X72622557Y-170617500D01*
X72622558Y-170617500D01*
X72659748Y-170610102D01*
X72701922Y-170581922D01*
X72730102Y-170539748D01*
X72737500Y-170502558D01*
X72737500Y-168677442D01*
X72730102Y-168640252D01*
X72730101Y-168640250D01*
X72701922Y-168598077D01*
X72659748Y-168569898D01*
X72622558Y-168562500D01*
X70797442Y-168562500D01*
X70778847Y-168566199D01*
X70760251Y-168569898D01*
X70760250Y-168569898D01*
X70718077Y-168598077D01*
X70689898Y-168640250D01*
X70689898Y-168640251D01*
X70682500Y-168677442D01*
X64689550Y-168677442D01*
X64688478Y-168673442D01*
X64688477Y-168673440D01*
X64688477Y-168673439D01*
X64642070Y-168593062D01*
X64642065Y-168593056D01*
X64576445Y-168527436D01*
X64576439Y-168527431D01*
X64496062Y-168481024D01*
X64496059Y-168481023D01*
X64406414Y-168457003D01*
X64406409Y-168457002D01*
X64406408Y-168457002D01*
X64313592Y-168457002D01*
X64313591Y-168457002D01*
X64313585Y-168457003D01*
X64223940Y-168481023D01*
X64223937Y-168481024D01*
X64143560Y-168527431D01*
X64143554Y-168527436D01*
X64077934Y-168593056D01*
X64077929Y-168593062D01*
X64031522Y-168673439D01*
X64031521Y-168673442D01*
X64007501Y-168763087D01*
X64007500Y-168763095D01*
X47700500Y-168763095D01*
X47700500Y-168163593D01*
X69007500Y-168163593D01*
X69007500Y-168256406D01*
X69007501Y-168256414D01*
X69031521Y-168346059D01*
X69031522Y-168346062D01*
X69077929Y-168426439D01*
X69077934Y-168426445D01*
X69143554Y-168492065D01*
X69143560Y-168492070D01*
X69223937Y-168538477D01*
X69223940Y-168538478D01*
X69313592Y-168562500D01*
X69313593Y-168562500D01*
X69406407Y-168562500D01*
X69406408Y-168562500D01*
X69496060Y-168538478D01*
X69576440Y-168492070D01*
X69642070Y-168426440D01*
X69688478Y-168346060D01*
X69712500Y-168256408D01*
X69712500Y-168163592D01*
X69688478Y-168073940D01*
X69688477Y-168073937D01*
X69642070Y-167993560D01*
X69642065Y-167993554D01*
X69576445Y-167927934D01*
X69576439Y-167927929D01*
X69496062Y-167881522D01*
X69496059Y-167881521D01*
X69406414Y-167857501D01*
X69406409Y-167857500D01*
X69406408Y-167857500D01*
X69313592Y-167857500D01*
X69313591Y-167857500D01*
X69313585Y-167857501D01*
X69223940Y-167881521D01*
X69223937Y-167881522D01*
X69143560Y-167927929D01*
X69143554Y-167927934D01*
X69077934Y-167993554D01*
X69077929Y-167993560D01*
X69031522Y-168073937D01*
X69031521Y-168073940D01*
X69007501Y-168163585D01*
X69007500Y-168163593D01*
X47700500Y-168163593D01*
X47700500Y-165727442D01*
X56317500Y-165727442D01*
X56317500Y-167452558D01*
X56321753Y-167473937D01*
X56324898Y-167489748D01*
X56324898Y-167489749D01*
X56353077Y-167531922D01*
X56381257Y-167550750D01*
X56395252Y-167560102D01*
X56432442Y-167567500D01*
X56432443Y-167567500D01*
X58157557Y-167567500D01*
X58157558Y-167567500D01*
X58194748Y-167560102D01*
X58236922Y-167531922D01*
X58265102Y-167489748D01*
X58272500Y-167452558D01*
X58272500Y-166493724D01*
X58857500Y-166493724D01*
X58857500Y-166686275D01*
X58895064Y-166875126D01*
X58895066Y-166875134D01*
X58968750Y-167053020D01*
X58968751Y-167053022D01*
X59075725Y-167213119D01*
X59075726Y-167213120D01*
X59211880Y-167349274D01*
X59371980Y-167456250D01*
X59414688Y-167473940D01*
X59549865Y-167529933D01*
X59549869Y-167529934D01*
X59549874Y-167529936D01*
X59738725Y-167567500D01*
X59931275Y-167567500D01*
X59950917Y-167563593D01*
X66147500Y-167563593D01*
X66147500Y-167656406D01*
X66147501Y-167656414D01*
X66171521Y-167746059D01*
X66171522Y-167746062D01*
X66217929Y-167826439D01*
X66217934Y-167826445D01*
X66283554Y-167892065D01*
X66283560Y-167892070D01*
X66363937Y-167938477D01*
X66363940Y-167938478D01*
X66453592Y-167962500D01*
X66453593Y-167962500D01*
X66546407Y-167962500D01*
X66546408Y-167962500D01*
X66636060Y-167938478D01*
X66716440Y-167892070D01*
X66782070Y-167826440D01*
X66828478Y-167746060D01*
X66852500Y-167656408D01*
X66852500Y-167563592D01*
X66828478Y-167473940D01*
X66828477Y-167473937D01*
X66782070Y-167393560D01*
X66782065Y-167393554D01*
X66716445Y-167327934D01*
X66716439Y-167327929D01*
X66636062Y-167281522D01*
X66636059Y-167281521D01*
X66546414Y-167257501D01*
X66546409Y-167257500D01*
X66546408Y-167257500D01*
X66453592Y-167257500D01*
X66453591Y-167257500D01*
X66453585Y-167257501D01*
X66363940Y-167281521D01*
X66363937Y-167281522D01*
X66283560Y-167327929D01*
X66283554Y-167327934D01*
X66217934Y-167393554D01*
X66217929Y-167393560D01*
X66171522Y-167473937D01*
X66171521Y-167473940D01*
X66147501Y-167563585D01*
X66147500Y-167563593D01*
X59950917Y-167563593D01*
X60120126Y-167529936D01*
X60141383Y-167521130D01*
X60188164Y-167501754D01*
X60217146Y-167489749D01*
X60298020Y-167456250D01*
X60458120Y-167349274D01*
X60594274Y-167213120D01*
X60701250Y-167053020D01*
X60763145Y-166903593D01*
X69097500Y-166903593D01*
X69097500Y-166996406D01*
X69097501Y-166996414D01*
X69121521Y-167086059D01*
X69121522Y-167086062D01*
X69167929Y-167166439D01*
X69167934Y-167166445D01*
X69233554Y-167232065D01*
X69233560Y-167232070D01*
X69313937Y-167278477D01*
X69313940Y-167278478D01*
X69403592Y-167302500D01*
X69403593Y-167302500D01*
X69496407Y-167302500D01*
X69496408Y-167302500D01*
X69586060Y-167278478D01*
X69666440Y-167232070D01*
X69732070Y-167166440D01*
X69778478Y-167086060D01*
X69802500Y-166996408D01*
X69802500Y-166903592D01*
X69778478Y-166813940D01*
X69778477Y-166813937D01*
X69732070Y-166733560D01*
X69732065Y-166733554D01*
X69666445Y-166667934D01*
X69666439Y-166667929D01*
X69586062Y-166621522D01*
X69586059Y-166621521D01*
X69496414Y-166597501D01*
X69496409Y-166597500D01*
X69496408Y-166597500D01*
X69403592Y-166597500D01*
X69403591Y-166597500D01*
X69403585Y-166597501D01*
X69313940Y-166621521D01*
X69313937Y-166621522D01*
X69233560Y-166667929D01*
X69233554Y-166667934D01*
X69167934Y-166733554D01*
X69167929Y-166733560D01*
X69121522Y-166813937D01*
X69121521Y-166813940D01*
X69097501Y-166903585D01*
X69097500Y-166903593D01*
X60763145Y-166903593D01*
X60763148Y-166903585D01*
X60774746Y-166875586D01*
X60774747Y-166875584D01*
X60774934Y-166875132D01*
X60774934Y-166875130D01*
X60774936Y-166875126D01*
X60812500Y-166686275D01*
X60812500Y-166493725D01*
X60774936Y-166304874D01*
X60774934Y-166304869D01*
X60774933Y-166304865D01*
X60734105Y-166206299D01*
X60701250Y-166126980D01*
X60594274Y-165966880D01*
X60458120Y-165830726D01*
X60458119Y-165830725D01*
X60298022Y-165723751D01*
X60298020Y-165723750D01*
X60120134Y-165650066D01*
X60120126Y-165650064D01*
X59931275Y-165612500D01*
X59738725Y-165612500D01*
X59549873Y-165650064D01*
X59549865Y-165650066D01*
X59371979Y-165723750D01*
X59371977Y-165723751D01*
X59211880Y-165830725D01*
X59075725Y-165966880D01*
X58968751Y-166126977D01*
X58968750Y-166126979D01*
X58895066Y-166304865D01*
X58895064Y-166304873D01*
X58857500Y-166493724D01*
X58272500Y-166493724D01*
X58272500Y-165727442D01*
X58265102Y-165690252D01*
X58265101Y-165690250D01*
X58236922Y-165648077D01*
X58194748Y-165619898D01*
X58157558Y-165612500D01*
X56432442Y-165612500D01*
X56413847Y-165616199D01*
X56395251Y-165619898D01*
X56395250Y-165619898D01*
X56353077Y-165648077D01*
X56324898Y-165690250D01*
X56324898Y-165690251D01*
X56324898Y-165690252D01*
X56317500Y-165727442D01*
X47700500Y-165727442D01*
X47700500Y-164893593D01*
X67317500Y-164893593D01*
X67317500Y-164986406D01*
X67317501Y-164986414D01*
X67341521Y-165076059D01*
X67341522Y-165076062D01*
X67387929Y-165156439D01*
X67387934Y-165156445D01*
X67453554Y-165222065D01*
X67453560Y-165222070D01*
X67533937Y-165268477D01*
X67533940Y-165268478D01*
X67623592Y-165292500D01*
X67623593Y-165292500D01*
X67716407Y-165292500D01*
X67716408Y-165292500D01*
X67806060Y-165268478D01*
X67886440Y-165222070D01*
X67952070Y-165156440D01*
X67998478Y-165076060D01*
X68022500Y-164986408D01*
X68022500Y-164893592D01*
X67998478Y-164803940D01*
X67998477Y-164803937D01*
X67952070Y-164723560D01*
X67952065Y-164723554D01*
X67886445Y-164657934D01*
X67886439Y-164657929D01*
X67806062Y-164611522D01*
X67806059Y-164611521D01*
X67742468Y-164594482D01*
X67716414Y-164587501D01*
X67716409Y-164587500D01*
X67716408Y-164587500D01*
X67623592Y-164587500D01*
X67623591Y-164587500D01*
X67623585Y-164587501D01*
X67533940Y-164611521D01*
X67533937Y-164611522D01*
X67453560Y-164657929D01*
X67453554Y-164657934D01*
X67387934Y-164723554D01*
X67387929Y-164723560D01*
X67341522Y-164803937D01*
X67341521Y-164803940D01*
X67317501Y-164893585D01*
X67317500Y-164893593D01*
X47700500Y-164893593D01*
X47700500Y-163660013D01*
X70025000Y-163660013D01*
X70025000Y-164060000D01*
X71095854Y-164060000D01*
X71057370Y-164126657D01*
X71025000Y-164247465D01*
X71025000Y-164372535D01*
X71057370Y-164493343D01*
X71095854Y-164560000D01*
X70025001Y-164560000D01*
X70025001Y-164959987D01*
X70035492Y-165062687D01*
X70035493Y-165062694D01*
X70090641Y-165229121D01*
X70182682Y-165378343D01*
X70306656Y-165502317D01*
X70455878Y-165594358D01*
X70622308Y-165649507D01*
X70725018Y-165659999D01*
X71250000Y-165659999D01*
X71250000Y-164714145D01*
X71316657Y-164752630D01*
X71437465Y-164785000D01*
X71562535Y-164785000D01*
X71683343Y-164752630D01*
X71750000Y-164714145D01*
X71750000Y-165659999D01*
X72274976Y-165659999D01*
X72274987Y-165659998D01*
X72377687Y-165649507D01*
X72377694Y-165649506D01*
X72544121Y-165594358D01*
X72693343Y-165502317D01*
X72817317Y-165378343D01*
X72909358Y-165229121D01*
X72964507Y-165062691D01*
X72974999Y-164959986D01*
X72975000Y-164959977D01*
X72975000Y-164560000D01*
X71904146Y-164560000D01*
X71942630Y-164493343D01*
X71975000Y-164372535D01*
X71975000Y-164247465D01*
X71942630Y-164126657D01*
X71904146Y-164060000D01*
X72974999Y-164060000D01*
X72974999Y-163660024D01*
X72974998Y-163660012D01*
X72964507Y-163557312D01*
X72964506Y-163557305D01*
X72909358Y-163390878D01*
X72817317Y-163241656D01*
X72693343Y-163117682D01*
X72544121Y-163025641D01*
X72377691Y-162970492D01*
X72274986Y-162960000D01*
X71750000Y-162960000D01*
X71750000Y-163905854D01*
X71683343Y-163867370D01*
X71562535Y-163835000D01*
X71437465Y-163835000D01*
X71316657Y-163867370D01*
X71250000Y-163905854D01*
X71250000Y-162960000D01*
X70725024Y-162960000D01*
X70725012Y-162960001D01*
X70622312Y-162970492D01*
X70622305Y-162970493D01*
X70455878Y-163025641D01*
X70306656Y-163117682D01*
X70182682Y-163241656D01*
X70090641Y-163390878D01*
X70035492Y-163557308D01*
X70025000Y-163660013D01*
X47700500Y-163660013D01*
X47700500Y-162333593D01*
X62656000Y-162333593D01*
X62656000Y-162426406D01*
X62656001Y-162426414D01*
X62680021Y-162516059D01*
X62680022Y-162516062D01*
X62726429Y-162596439D01*
X62726434Y-162596445D01*
X62792054Y-162662065D01*
X62792060Y-162662070D01*
X62872437Y-162708477D01*
X62872440Y-162708478D01*
X62962092Y-162732500D01*
X62962093Y-162732500D01*
X63054907Y-162732500D01*
X63054908Y-162732500D01*
X63144560Y-162708478D01*
X63224940Y-162662070D01*
X63290570Y-162596440D01*
X63336978Y-162516060D01*
X63361000Y-162426408D01*
X63361000Y-162333592D01*
X63336978Y-162243940D01*
X63336977Y-162243937D01*
X63290570Y-162163560D01*
X63290565Y-162163554D01*
X63224945Y-162097934D01*
X63224939Y-162097929D01*
X63144562Y-162051522D01*
X63144559Y-162051521D01*
X63054914Y-162027501D01*
X63054909Y-162027500D01*
X63054908Y-162027500D01*
X62962092Y-162027500D01*
X62962091Y-162027500D01*
X62962085Y-162027501D01*
X62872440Y-162051521D01*
X62872437Y-162051522D01*
X62792060Y-162097929D01*
X62792054Y-162097934D01*
X62726434Y-162163554D01*
X62726429Y-162163560D01*
X62680022Y-162243937D01*
X62680021Y-162243940D01*
X62656001Y-162333585D01*
X62656000Y-162333593D01*
X47700500Y-162333593D01*
X47700500Y-161653593D01*
X60367500Y-161653593D01*
X60367500Y-161746406D01*
X60367501Y-161746414D01*
X60391521Y-161836059D01*
X60391522Y-161836062D01*
X60437929Y-161916439D01*
X60437934Y-161916445D01*
X60503554Y-161982065D01*
X60503560Y-161982070D01*
X60583937Y-162028477D01*
X60583940Y-162028478D01*
X60673592Y-162052500D01*
X60673593Y-162052500D01*
X60766407Y-162052500D01*
X60766408Y-162052500D01*
X60856060Y-162028478D01*
X60936440Y-161982070D01*
X61002070Y-161916440D01*
X61048478Y-161836060D01*
X61054498Y-161813593D01*
X61447500Y-161813593D01*
X61447500Y-161906406D01*
X61447501Y-161906414D01*
X61471521Y-161996059D01*
X61471522Y-161996062D01*
X61517929Y-162076439D01*
X61517934Y-162076445D01*
X61583554Y-162142065D01*
X61583560Y-162142070D01*
X61663937Y-162188477D01*
X61663940Y-162188478D01*
X61753592Y-162212500D01*
X61753593Y-162212500D01*
X61846407Y-162212500D01*
X61846408Y-162212500D01*
X61936060Y-162188478D01*
X62016440Y-162142070D01*
X62082070Y-162076440D01*
X62128478Y-161996060D01*
X62152500Y-161906408D01*
X62152500Y-161813592D01*
X62128478Y-161723940D01*
X62128477Y-161723938D01*
X62128477Y-161723937D01*
X62122580Y-161713724D01*
X70397500Y-161713724D01*
X70397500Y-161906275D01*
X70435064Y-162095126D01*
X70435066Y-162095134D01*
X70508750Y-162273020D01*
X70508751Y-162273022D01*
X70611241Y-162426408D01*
X70615726Y-162433120D01*
X70751880Y-162569274D01*
X70911980Y-162676250D01*
X70989783Y-162708477D01*
X71089865Y-162749933D01*
X71089869Y-162749934D01*
X71089874Y-162749936D01*
X71278725Y-162787500D01*
X71721275Y-162787500D01*
X71910126Y-162749936D01*
X71910132Y-162749933D01*
X71910134Y-162749933D01*
X71952611Y-162732337D01*
X72088020Y-162676250D01*
X72248120Y-162569274D01*
X72384274Y-162433120D01*
X72491250Y-162273020D01*
X72564936Y-162095126D01*
X72602500Y-161906275D01*
X72602500Y-161713725D01*
X72564936Y-161524874D01*
X72564934Y-161524869D01*
X72564933Y-161524865D01*
X72520638Y-161417929D01*
X72491250Y-161346980D01*
X72384274Y-161186880D01*
X72248120Y-161050726D01*
X72248119Y-161050725D01*
X72088022Y-160943751D01*
X72088020Y-160943750D01*
X71910134Y-160870066D01*
X71910126Y-160870064D01*
X71721275Y-160832500D01*
X71278725Y-160832500D01*
X71089873Y-160870064D01*
X71089865Y-160870066D01*
X70911979Y-160943750D01*
X70911977Y-160943751D01*
X70751880Y-161050725D01*
X70615725Y-161186880D01*
X70508751Y-161346977D01*
X70508750Y-161346979D01*
X70435066Y-161524865D01*
X70435064Y-161524873D01*
X70397500Y-161713724D01*
X62122580Y-161713724D01*
X62082070Y-161643560D01*
X62082065Y-161643554D01*
X62016445Y-161577934D01*
X62016439Y-161577929D01*
X61936062Y-161531522D01*
X61936059Y-161531521D01*
X61846414Y-161507501D01*
X61846409Y-161507500D01*
X61846408Y-161507500D01*
X61753592Y-161507500D01*
X61753591Y-161507500D01*
X61753585Y-161507501D01*
X61663940Y-161531521D01*
X61663937Y-161531522D01*
X61583560Y-161577929D01*
X61583554Y-161577934D01*
X61517934Y-161643554D01*
X61517929Y-161643560D01*
X61471522Y-161723937D01*
X61471521Y-161723940D01*
X61447501Y-161813585D01*
X61447500Y-161813593D01*
X61054498Y-161813593D01*
X61055336Y-161810464D01*
X61059931Y-161793319D01*
X61059931Y-161793318D01*
X61072498Y-161746414D01*
X61072500Y-161746406D01*
X61072500Y-161653593D01*
X61072498Y-161653585D01*
X61048478Y-161563940D01*
X61048477Y-161563937D01*
X61002070Y-161483560D01*
X61002065Y-161483554D01*
X60936445Y-161417934D01*
X60936439Y-161417929D01*
X60856062Y-161371522D01*
X60856059Y-161371521D01*
X60766414Y-161347501D01*
X60766409Y-161347500D01*
X60766408Y-161347500D01*
X60673592Y-161347500D01*
X60673591Y-161347500D01*
X60673585Y-161347501D01*
X60583940Y-161371521D01*
X60583937Y-161371522D01*
X60503560Y-161417929D01*
X60503554Y-161417934D01*
X60437934Y-161483554D01*
X60437929Y-161483560D01*
X60391522Y-161563937D01*
X60391521Y-161563940D01*
X60367501Y-161653585D01*
X60367500Y-161653593D01*
X47700500Y-161653593D01*
X47700500Y-159073593D01*
X62127500Y-159073593D01*
X62127500Y-159166406D01*
X62127501Y-159166414D01*
X62151521Y-159256059D01*
X62151522Y-159256062D01*
X62197929Y-159336439D01*
X62197934Y-159336445D01*
X62263554Y-159402065D01*
X62263560Y-159402070D01*
X62343937Y-159448477D01*
X62343940Y-159448478D01*
X62433592Y-159472500D01*
X62433593Y-159472500D01*
X62526407Y-159472500D01*
X62526408Y-159472500D01*
X62616060Y-159448478D01*
X62619646Y-159446408D01*
X62633048Y-159438669D01*
X62696440Y-159402070D01*
X62744917Y-159353593D01*
X63079178Y-159353593D01*
X63079178Y-159446406D01*
X63079179Y-159446414D01*
X63103199Y-159536059D01*
X63103200Y-159536062D01*
X63149607Y-159616439D01*
X63149612Y-159616445D01*
X63215232Y-159682065D01*
X63215238Y-159682070D01*
X63295615Y-159728477D01*
X63295618Y-159728478D01*
X63385270Y-159752500D01*
X63385271Y-159752500D01*
X63478085Y-159752500D01*
X63478086Y-159752500D01*
X63567738Y-159728478D01*
X63648118Y-159682070D01*
X63713748Y-159616440D01*
X63760156Y-159536060D01*
X63784178Y-159446408D01*
X63784178Y-159353592D01*
X63760156Y-159263940D01*
X63755608Y-159256062D01*
X63747437Y-159241909D01*
X63747435Y-159241906D01*
X63731164Y-159213724D01*
X70397500Y-159213724D01*
X70397500Y-159406275D01*
X70435064Y-159595126D01*
X70435066Y-159595134D01*
X70500250Y-159752500D01*
X70508750Y-159773020D01*
X70615726Y-159933120D01*
X70751880Y-160069274D01*
X70911980Y-160176250D01*
X70991299Y-160209105D01*
X71089865Y-160249933D01*
X71089869Y-160249934D01*
X71089874Y-160249936D01*
X71278725Y-160287500D01*
X71721275Y-160287500D01*
X71910126Y-160249936D01*
X71910132Y-160249933D01*
X71910134Y-160249933D01*
X71952611Y-160232337D01*
X72088020Y-160176250D01*
X72248120Y-160069274D01*
X72384274Y-159933120D01*
X72491250Y-159773020D01*
X72547337Y-159637611D01*
X72564933Y-159595134D01*
X72564933Y-159595132D01*
X72564936Y-159595126D01*
X72602500Y-159406275D01*
X72602500Y-159213725D01*
X72564936Y-159024874D01*
X72564934Y-159024869D01*
X72564933Y-159024865D01*
X72514684Y-158903554D01*
X72491250Y-158846980D01*
X72384274Y-158686880D01*
X72248120Y-158550726D01*
X72248119Y-158550725D01*
X72088022Y-158443751D01*
X72088020Y-158443750D01*
X71910134Y-158370066D01*
X71910126Y-158370064D01*
X71721275Y-158332500D01*
X71278725Y-158332500D01*
X71089873Y-158370064D01*
X71089865Y-158370066D01*
X70911979Y-158443750D01*
X70911977Y-158443751D01*
X70751880Y-158550725D01*
X70615725Y-158686880D01*
X70508751Y-158846977D01*
X70508750Y-158846979D01*
X70435066Y-159024865D01*
X70435064Y-159024873D01*
X70397500Y-159213724D01*
X63731164Y-159213724D01*
X63713748Y-159183560D01*
X63713743Y-159183554D01*
X63648123Y-159117934D01*
X63648117Y-159117929D01*
X63567740Y-159071522D01*
X63567737Y-159071521D01*
X63478092Y-159047501D01*
X63478087Y-159047500D01*
X63478086Y-159047500D01*
X63385270Y-159047500D01*
X63385269Y-159047500D01*
X63385263Y-159047501D01*
X63295618Y-159071521D01*
X63295615Y-159071522D01*
X63215238Y-159117929D01*
X63215232Y-159117934D01*
X63149612Y-159183554D01*
X63149607Y-159183560D01*
X63103200Y-159263937D01*
X63103199Y-159263940D01*
X63079179Y-159353585D01*
X63079178Y-159353593D01*
X62744917Y-159353593D01*
X62762070Y-159336440D01*
X62765824Y-159329937D01*
X62772575Y-159318246D01*
X62772575Y-159318245D01*
X62808477Y-159256062D01*
X62808478Y-159256059D01*
X62832500Y-159166408D01*
X62832500Y-159073592D01*
X62808478Y-158983940D01*
X62808477Y-158983937D01*
X62762070Y-158903560D01*
X62762065Y-158903554D01*
X62696445Y-158837934D01*
X62696439Y-158837929D01*
X62616062Y-158791522D01*
X62616059Y-158791521D01*
X62526414Y-158767501D01*
X62526409Y-158767500D01*
X62526408Y-158767500D01*
X62433592Y-158767500D01*
X62433591Y-158767500D01*
X62433585Y-158767501D01*
X62343940Y-158791521D01*
X62343937Y-158791522D01*
X62263560Y-158837929D01*
X62263554Y-158837934D01*
X62197934Y-158903554D01*
X62197929Y-158903560D01*
X62151522Y-158983937D01*
X62151521Y-158983940D01*
X62127501Y-159073585D01*
X62127500Y-159073593D01*
X47700500Y-159073593D01*
X47700500Y-155918593D01*
X59072500Y-155918593D01*
X59072500Y-156011406D01*
X59072501Y-156011414D01*
X59096521Y-156101059D01*
X59096522Y-156101062D01*
X59142929Y-156181439D01*
X59142934Y-156181445D01*
X59208554Y-156247065D01*
X59208560Y-156247070D01*
X59288937Y-156293477D01*
X59288940Y-156293478D01*
X59378592Y-156317500D01*
X59378593Y-156317500D01*
X59471407Y-156317500D01*
X59471408Y-156317500D01*
X59561060Y-156293478D01*
X59641440Y-156247070D01*
X59674917Y-156213593D01*
X64187500Y-156213593D01*
X64187500Y-156306406D01*
X64187501Y-156306414D01*
X64211521Y-156396059D01*
X64211522Y-156396062D01*
X64257929Y-156476439D01*
X64257934Y-156476445D01*
X64323554Y-156542065D01*
X64323560Y-156542070D01*
X64403937Y-156588477D01*
X64403940Y-156588478D01*
X64493592Y-156612500D01*
X64493593Y-156612500D01*
X64586407Y-156612500D01*
X64586408Y-156612500D01*
X64586416Y-156612498D01*
X64593985Y-156610469D01*
X64622123Y-156602930D01*
X64669549Y-156609173D01*
X64698670Y-156647123D01*
X64692427Y-156694549D01*
X64682494Y-156707494D01*
X64616434Y-156773554D01*
X64616429Y-156773560D01*
X64570022Y-156853937D01*
X64570021Y-156853940D01*
X64546001Y-156943585D01*
X64546000Y-156943593D01*
X64546000Y-157036406D01*
X64546001Y-157036414D01*
X64570021Y-157126059D01*
X64570022Y-157126062D01*
X64616429Y-157206439D01*
X64616434Y-157206445D01*
X64682054Y-157272065D01*
X64682060Y-157272070D01*
X64762437Y-157318477D01*
X64762440Y-157318478D01*
X64852092Y-157342500D01*
X64852093Y-157342500D01*
X64944907Y-157342500D01*
X64944908Y-157342500D01*
X65034560Y-157318478D01*
X65114940Y-157272070D01*
X65180570Y-157206440D01*
X65226978Y-157126060D01*
X65251000Y-157036408D01*
X65251000Y-156943592D01*
X65226978Y-156853940D01*
X65226977Y-156853937D01*
X65180570Y-156773560D01*
X65180565Y-156773554D01*
X65114945Y-156707934D01*
X65114939Y-156707929D01*
X65034562Y-156661522D01*
X65034559Y-156661521D01*
X64944914Y-156637501D01*
X64944909Y-156637500D01*
X64944908Y-156637500D01*
X64852092Y-156637500D01*
X64852090Y-156637500D01*
X64816374Y-156647070D01*
X64768948Y-156640825D01*
X64739828Y-156602874D01*
X64746073Y-156555448D01*
X64756005Y-156542505D01*
X64756445Y-156542065D01*
X64822070Y-156476440D01*
X64868478Y-156396060D01*
X64892500Y-156306408D01*
X64892500Y-156213592D01*
X64868478Y-156123940D01*
X64868477Y-156123937D01*
X64822070Y-156043560D01*
X64822065Y-156043554D01*
X64756445Y-155977934D01*
X64756439Y-155977929D01*
X64676062Y-155931522D01*
X64676059Y-155931521D01*
X64586414Y-155907501D01*
X64586409Y-155907500D01*
X64586408Y-155907500D01*
X64493592Y-155907500D01*
X64493591Y-155907500D01*
X64493585Y-155907501D01*
X64403940Y-155931521D01*
X64403937Y-155931522D01*
X64323560Y-155977929D01*
X64323554Y-155977934D01*
X64257934Y-156043554D01*
X64257929Y-156043560D01*
X64211522Y-156123937D01*
X64211521Y-156123940D01*
X64187501Y-156213585D01*
X64187500Y-156213593D01*
X59674917Y-156213593D01*
X59707070Y-156181440D01*
X59753478Y-156101060D01*
X59777500Y-156011408D01*
X59777500Y-155918592D01*
X59753478Y-155828940D01*
X59753477Y-155828937D01*
X59707070Y-155748560D01*
X59707065Y-155748554D01*
X59641445Y-155682934D01*
X59641439Y-155682929D01*
X59561062Y-155636522D01*
X59561059Y-155636521D01*
X59471414Y-155612501D01*
X59471409Y-155612500D01*
X59471408Y-155612500D01*
X59378592Y-155612500D01*
X59378591Y-155612500D01*
X59378585Y-155612501D01*
X59288940Y-155636521D01*
X59288937Y-155636522D01*
X59208560Y-155682929D01*
X59208554Y-155682934D01*
X59142934Y-155748554D01*
X59142929Y-155748560D01*
X59096522Y-155828937D01*
X59096521Y-155828940D01*
X59072501Y-155918585D01*
X59072500Y-155918593D01*
X47700500Y-155918593D01*
X47700500Y-155028593D01*
X63702500Y-155028593D01*
X63702500Y-155121406D01*
X63702501Y-155121414D01*
X63726521Y-155211059D01*
X63726522Y-155211062D01*
X63772929Y-155291439D01*
X63772934Y-155291445D01*
X63838554Y-155357065D01*
X63838560Y-155357070D01*
X63918937Y-155403477D01*
X63918940Y-155403478D01*
X64008592Y-155427500D01*
X64008593Y-155427500D01*
X64101407Y-155427500D01*
X64101408Y-155427500D01*
X64191060Y-155403478D01*
X64271440Y-155357070D01*
X64337070Y-155291440D01*
X64383478Y-155211060D01*
X64407500Y-155121408D01*
X64407500Y-155028592D01*
X64383478Y-154938940D01*
X64383477Y-154938937D01*
X64337070Y-154858560D01*
X64337065Y-154858554D01*
X64271445Y-154792934D01*
X64271439Y-154792929D01*
X64191062Y-154746522D01*
X64191059Y-154746521D01*
X64101414Y-154722501D01*
X64101409Y-154722500D01*
X64101408Y-154722500D01*
X64008592Y-154722500D01*
X64008591Y-154722500D01*
X64008585Y-154722501D01*
X63918940Y-154746521D01*
X63918937Y-154746522D01*
X63838560Y-154792929D01*
X63838554Y-154792934D01*
X63772934Y-154858554D01*
X63772929Y-154858560D01*
X63726522Y-154938937D01*
X63726521Y-154938940D01*
X63702501Y-155028585D01*
X63702500Y-155028593D01*
X47700500Y-155028593D01*
X47700500Y-153917093D01*
X64682500Y-153917093D01*
X64682500Y-154009906D01*
X64682501Y-154009914D01*
X64706521Y-154099559D01*
X64706522Y-154099562D01*
X64752929Y-154179939D01*
X64752934Y-154179945D01*
X64818554Y-154245565D01*
X64818560Y-154245570D01*
X64898937Y-154291977D01*
X64898940Y-154291978D01*
X64988592Y-154316000D01*
X64988593Y-154316000D01*
X65081407Y-154316000D01*
X65081408Y-154316000D01*
X65171060Y-154291978D01*
X65251440Y-154245570D01*
X65317070Y-154179940D01*
X65363478Y-154099560D01*
X65387500Y-154009908D01*
X65387500Y-153917092D01*
X65363478Y-153827440D01*
X65363477Y-153827437D01*
X65317070Y-153747060D01*
X65317065Y-153747054D01*
X65251445Y-153681434D01*
X65251439Y-153681429D01*
X65171062Y-153635022D01*
X65171059Y-153635021D01*
X65151819Y-153629866D01*
X65081414Y-153611001D01*
X65081409Y-153611000D01*
X65081408Y-153611000D01*
X64988592Y-153611000D01*
X64988591Y-153611000D01*
X64988585Y-153611001D01*
X64898940Y-153635021D01*
X64898937Y-153635022D01*
X64818560Y-153681429D01*
X64818554Y-153681434D01*
X64752934Y-153747054D01*
X64752929Y-153747060D01*
X64706522Y-153827437D01*
X64706521Y-153827440D01*
X64682501Y-153917085D01*
X64682500Y-153917093D01*
X47700500Y-153917093D01*
X47700500Y-153508593D01*
X54062500Y-153508593D01*
X54062500Y-153601406D01*
X54062501Y-153601414D01*
X54086521Y-153691059D01*
X54086522Y-153691062D01*
X54132929Y-153771439D01*
X54132934Y-153771445D01*
X54198554Y-153837065D01*
X54198560Y-153837070D01*
X54278937Y-153883477D01*
X54278940Y-153883478D01*
X54368592Y-153907500D01*
X54368593Y-153907500D01*
X54461407Y-153907500D01*
X54461408Y-153907500D01*
X54551060Y-153883478D01*
X54631440Y-153837070D01*
X54697070Y-153771440D01*
X54743478Y-153691060D01*
X54767500Y-153601408D01*
X54767500Y-153573593D01*
X71927500Y-153573593D01*
X71927500Y-153666406D01*
X71927501Y-153666414D01*
X71951521Y-153756059D01*
X71951522Y-153756062D01*
X71997929Y-153836439D01*
X71997934Y-153836445D01*
X72063554Y-153902065D01*
X72063560Y-153902070D01*
X72143937Y-153948477D01*
X72143940Y-153948478D01*
X72233592Y-153972500D01*
X72233593Y-153972500D01*
X72326407Y-153972500D01*
X72326408Y-153972500D01*
X72416060Y-153948478D01*
X72496440Y-153902070D01*
X72562070Y-153836440D01*
X72608478Y-153756060D01*
X72632500Y-153666408D01*
X72632500Y-153573592D01*
X72608478Y-153483940D01*
X72608477Y-153483937D01*
X72562070Y-153403560D01*
X72562065Y-153403554D01*
X72496445Y-153337934D01*
X72496439Y-153337929D01*
X72416062Y-153291522D01*
X72416059Y-153291521D01*
X72326414Y-153267501D01*
X72326409Y-153267500D01*
X72326408Y-153267500D01*
X72233592Y-153267500D01*
X72233591Y-153267500D01*
X72233585Y-153267501D01*
X72143940Y-153291521D01*
X72143937Y-153291522D01*
X72063560Y-153337929D01*
X72063554Y-153337934D01*
X71997934Y-153403554D01*
X71997929Y-153403560D01*
X71951522Y-153483937D01*
X71951521Y-153483940D01*
X71927501Y-153573585D01*
X71927500Y-153573593D01*
X54767500Y-153573593D01*
X54767500Y-153508592D01*
X54743478Y-153418940D01*
X54743477Y-153418937D01*
X54697070Y-153338560D01*
X54697065Y-153338554D01*
X54631445Y-153272934D01*
X54631439Y-153272929D01*
X54551062Y-153226522D01*
X54551059Y-153226521D01*
X54461414Y-153202501D01*
X54461409Y-153202500D01*
X54461408Y-153202500D01*
X54368592Y-153202500D01*
X54368591Y-153202500D01*
X54368585Y-153202501D01*
X54278940Y-153226521D01*
X54278937Y-153226522D01*
X54198560Y-153272929D01*
X54198554Y-153272934D01*
X54132934Y-153338554D01*
X54132929Y-153338560D01*
X54086522Y-153418937D01*
X54086521Y-153418940D01*
X54062501Y-153508585D01*
X54062500Y-153508593D01*
X47700500Y-153508593D01*
X47700500Y-152778593D01*
X65442500Y-152778593D01*
X65442500Y-152871406D01*
X65442501Y-152871414D01*
X65466521Y-152961059D01*
X65466522Y-152961062D01*
X65512929Y-153041439D01*
X65512934Y-153041445D01*
X65578554Y-153107065D01*
X65578560Y-153107070D01*
X65658937Y-153153477D01*
X65658940Y-153153478D01*
X65748592Y-153177500D01*
X65748593Y-153177500D01*
X65841407Y-153177500D01*
X65841408Y-153177500D01*
X65931060Y-153153478D01*
X66011440Y-153107070D01*
X66077070Y-153041440D01*
X66123478Y-152961060D01*
X66147500Y-152871408D01*
X66147500Y-152778592D01*
X66123478Y-152688940D01*
X66123477Y-152688937D01*
X66077070Y-152608560D01*
X66077065Y-152608554D01*
X66011445Y-152542934D01*
X66011439Y-152542929D01*
X65977949Y-152523593D01*
X71927500Y-152523593D01*
X71927500Y-152616406D01*
X71927501Y-152616414D01*
X71951521Y-152706059D01*
X71951522Y-152706062D01*
X71997929Y-152786439D01*
X71997934Y-152786445D01*
X72063554Y-152852065D01*
X72063560Y-152852070D01*
X72143937Y-152898477D01*
X72143940Y-152898478D01*
X72233592Y-152922500D01*
X72233593Y-152922500D01*
X72326407Y-152922500D01*
X72326408Y-152922500D01*
X72416060Y-152898478D01*
X72496440Y-152852070D01*
X72562070Y-152786440D01*
X72608478Y-152706060D01*
X72632500Y-152616408D01*
X72632500Y-152523592D01*
X72608478Y-152433940D01*
X72608477Y-152433937D01*
X72562070Y-152353560D01*
X72562065Y-152353554D01*
X72496445Y-152287934D01*
X72496439Y-152287929D01*
X72416062Y-152241522D01*
X72416059Y-152241521D01*
X72326414Y-152217501D01*
X72326409Y-152217500D01*
X72326408Y-152217500D01*
X72233592Y-152217500D01*
X72233591Y-152217500D01*
X72233585Y-152217501D01*
X72143940Y-152241521D01*
X72143937Y-152241522D01*
X72063560Y-152287929D01*
X72063554Y-152287934D01*
X71997934Y-152353554D01*
X71997929Y-152353560D01*
X71951522Y-152433937D01*
X71951521Y-152433940D01*
X71927501Y-152523585D01*
X71927500Y-152523593D01*
X65977949Y-152523593D01*
X65931062Y-152496522D01*
X65931059Y-152496521D01*
X65841414Y-152472501D01*
X65841409Y-152472500D01*
X65841408Y-152472500D01*
X65748592Y-152472500D01*
X65748591Y-152472500D01*
X65748585Y-152472501D01*
X65658940Y-152496521D01*
X65658937Y-152496522D01*
X65578560Y-152542929D01*
X65578554Y-152542934D01*
X65512934Y-152608554D01*
X65512929Y-152608560D01*
X65466522Y-152688937D01*
X65466521Y-152688940D01*
X65442501Y-152778585D01*
X65442500Y-152778593D01*
X47700500Y-152778593D01*
X47700500Y-151573846D01*
X74437500Y-151573846D01*
X74437500Y-151706153D01*
X74437501Y-151706161D01*
X74471743Y-151833953D01*
X74471744Y-151833957D01*
X74537901Y-151948543D01*
X74537904Y-151948547D01*
X74631452Y-152042095D01*
X74631456Y-152042098D01*
X74631458Y-152042100D01*
X74746042Y-152108255D01*
X74873845Y-152142500D01*
X74873846Y-152142500D01*
X75006154Y-152142500D01*
X75006155Y-152142500D01*
X75133958Y-152108255D01*
X75248542Y-152042100D01*
X75342100Y-151948542D01*
X75408255Y-151833958D01*
X75442500Y-151706155D01*
X75442500Y-151573845D01*
X75408255Y-151446042D01*
X75342100Y-151331458D01*
X75342098Y-151331456D01*
X75342095Y-151331452D01*
X75248547Y-151237904D01*
X75248543Y-151237901D01*
X75248542Y-151237900D01*
X75191250Y-151204822D01*
X75133957Y-151171744D01*
X75133953Y-151171743D01*
X75006161Y-151137501D01*
X75006156Y-151137500D01*
X75006155Y-151137500D01*
X74873845Y-151137500D01*
X74873844Y-151137500D01*
X74873838Y-151137501D01*
X74746046Y-151171743D01*
X74746042Y-151171744D01*
X74631456Y-151237901D01*
X74631452Y-151237904D01*
X74537904Y-151331452D01*
X74537901Y-151331456D01*
X74471744Y-151446042D01*
X74471743Y-151446046D01*
X74437501Y-151573838D01*
X74437500Y-151573846D01*
X47700500Y-151573846D01*
X47700500Y-150448593D01*
X55402500Y-150448593D01*
X55402500Y-150541406D01*
X55402501Y-150541414D01*
X55426521Y-150631059D01*
X55426522Y-150631062D01*
X55472929Y-150711439D01*
X55472934Y-150711445D01*
X55538554Y-150777065D01*
X55538558Y-150777068D01*
X55538560Y-150777070D01*
X55617550Y-150822675D01*
X55646669Y-150860625D01*
X55640426Y-150908051D01*
X55630494Y-150920994D01*
X55602934Y-150948554D01*
X55602929Y-150948560D01*
X55556522Y-151028937D01*
X55556521Y-151028940D01*
X55532501Y-151118585D01*
X55532500Y-151118593D01*
X55532500Y-151211406D01*
X55532501Y-151211414D01*
X55556521Y-151301059D01*
X55556522Y-151301062D01*
X55602929Y-151381439D01*
X55602934Y-151381445D01*
X55668554Y-151447065D01*
X55668560Y-151447070D01*
X55748937Y-151493477D01*
X55748940Y-151493478D01*
X55838592Y-151517500D01*
X55838593Y-151517500D01*
X55931407Y-151517500D01*
X55931408Y-151517500D01*
X56021060Y-151493478D01*
X56101440Y-151447070D01*
X56167070Y-151381440D01*
X56213478Y-151301060D01*
X56237500Y-151211408D01*
X56237500Y-151118592D01*
X56213478Y-151028940D01*
X56206901Y-151017549D01*
X56198843Y-151003593D01*
X63857500Y-151003593D01*
X63857500Y-151096406D01*
X63857501Y-151096414D01*
X63881521Y-151186059D01*
X63881522Y-151186062D01*
X63927929Y-151266439D01*
X63927934Y-151266445D01*
X63993554Y-151332065D01*
X63993560Y-151332070D01*
X64073937Y-151378477D01*
X64073940Y-151378478D01*
X64163592Y-151402500D01*
X64163593Y-151402500D01*
X64256407Y-151402500D01*
X64256408Y-151402500D01*
X64346060Y-151378478D01*
X64426440Y-151332070D01*
X64492070Y-151266440D01*
X64538478Y-151186060D01*
X64562500Y-151096408D01*
X64562500Y-151003592D01*
X64538478Y-150913940D01*
X64538477Y-150913937D01*
X64492070Y-150833560D01*
X64492065Y-150833554D01*
X64457705Y-150799194D01*
X64451243Y-150783593D01*
X66627500Y-150783593D01*
X66627500Y-150876406D01*
X66627501Y-150876414D01*
X66651521Y-150966059D01*
X66651522Y-150966062D01*
X66697929Y-151046439D01*
X66697934Y-151046445D01*
X66763554Y-151112065D01*
X66763560Y-151112070D01*
X66843937Y-151158477D01*
X66843940Y-151158478D01*
X66933592Y-151182500D01*
X66933593Y-151182500D01*
X67026407Y-151182500D01*
X67026408Y-151182500D01*
X67115631Y-151158593D01*
X68647500Y-151158593D01*
X68647500Y-151251406D01*
X68647501Y-151251414D01*
X68671521Y-151341059D01*
X68671522Y-151341062D01*
X68717929Y-151421439D01*
X68717934Y-151421445D01*
X68783554Y-151487065D01*
X68783560Y-151487070D01*
X68863937Y-151533477D01*
X68863940Y-151533478D01*
X68953592Y-151557500D01*
X68953593Y-151557500D01*
X69046407Y-151557500D01*
X69046408Y-151557500D01*
X69136060Y-151533478D01*
X69136062Y-151533477D01*
X69166986Y-151515623D01*
X69205341Y-151493478D01*
X69216440Y-151487070D01*
X69282070Y-151421440D01*
X69328478Y-151341060D01*
X69339196Y-151301059D01*
X69352498Y-151251417D01*
X69352498Y-151251413D01*
X69352500Y-151251408D01*
X69352500Y-151251401D01*
X69352786Y-151249228D01*
X69353343Y-151248261D01*
X69353561Y-151247451D01*
X69353777Y-151247509D01*
X69376697Y-151207797D01*
X69422900Y-151195408D01*
X69464331Y-151219319D01*
X69468879Y-151226124D01*
X69497929Y-151276439D01*
X69497934Y-151276445D01*
X69563554Y-151342065D01*
X69563560Y-151342070D01*
X69643937Y-151388477D01*
X69643940Y-151388478D01*
X69733592Y-151412500D01*
X69733593Y-151412500D01*
X69826407Y-151412500D01*
X69826408Y-151412500D01*
X69916060Y-151388478D01*
X69996440Y-151342070D01*
X70062070Y-151276440D01*
X70108478Y-151196060D01*
X70132500Y-151106408D01*
X70132500Y-151013592D01*
X70108478Y-150923940D01*
X70108477Y-150923937D01*
X70062070Y-150843560D01*
X70062065Y-150843554D01*
X69996445Y-150777934D01*
X69996439Y-150777929D01*
X69916062Y-150731522D01*
X69916059Y-150731521D01*
X69826414Y-150707501D01*
X69826409Y-150707500D01*
X69826408Y-150707500D01*
X69733592Y-150707500D01*
X69733591Y-150707500D01*
X69733585Y-150707501D01*
X69643940Y-150731521D01*
X69643937Y-150731522D01*
X69563560Y-150777929D01*
X69563554Y-150777934D01*
X69497934Y-150843554D01*
X69497929Y-150843560D01*
X69451522Y-150923937D01*
X69451521Y-150923940D01*
X69427499Y-151013591D01*
X69427211Y-151015782D01*
X69426653Y-151016746D01*
X69426439Y-151017549D01*
X69426224Y-151017491D01*
X69403293Y-151057209D01*
X69357088Y-151069589D01*
X69315661Y-151045671D01*
X69311120Y-151038875D01*
X69282070Y-150988560D01*
X69282065Y-150988554D01*
X69216445Y-150922934D01*
X69216439Y-150922929D01*
X69136062Y-150876522D01*
X69136059Y-150876521D01*
X69046414Y-150852501D01*
X69046409Y-150852500D01*
X69046408Y-150852500D01*
X68953592Y-150852500D01*
X68953591Y-150852500D01*
X68953585Y-150852501D01*
X68863940Y-150876521D01*
X68863937Y-150876522D01*
X68783560Y-150922929D01*
X68783554Y-150922934D01*
X68717934Y-150988554D01*
X68717929Y-150988560D01*
X68671522Y-151068937D01*
X68671521Y-151068940D01*
X68647501Y-151158585D01*
X68647500Y-151158593D01*
X67115631Y-151158593D01*
X67116060Y-151158478D01*
X67196440Y-151112070D01*
X67196445Y-151112065D01*
X67198209Y-151110302D01*
X67262065Y-151046445D01*
X67262070Y-151046440D01*
X67308478Y-150966060D01*
X67332500Y-150876408D01*
X67332500Y-150783592D01*
X67308478Y-150693940D01*
X67308477Y-150693937D01*
X67262070Y-150613560D01*
X67262065Y-150613554D01*
X67196445Y-150547934D01*
X67196439Y-150547929D01*
X67116062Y-150501522D01*
X67116059Y-150501521D01*
X67026414Y-150477501D01*
X67026409Y-150477500D01*
X67026408Y-150477500D01*
X66933592Y-150477500D01*
X66933591Y-150477500D01*
X66933585Y-150477501D01*
X66843940Y-150501521D01*
X66843937Y-150501522D01*
X66763560Y-150547929D01*
X66763554Y-150547934D01*
X66697934Y-150613554D01*
X66697929Y-150613560D01*
X66651522Y-150693937D01*
X66651521Y-150693940D01*
X66627501Y-150783585D01*
X66627500Y-150783593D01*
X64451243Y-150783593D01*
X64439399Y-150755000D01*
X64457705Y-150710806D01*
X64501899Y-150692500D01*
X64506407Y-150692500D01*
X64506408Y-150692500D01*
X64596060Y-150668478D01*
X64676440Y-150622070D01*
X64742070Y-150556440D01*
X64788478Y-150476060D01*
X64799069Y-150436531D01*
X64812499Y-150386413D01*
X64812848Y-150383763D01*
X64813522Y-150382594D01*
X64813561Y-150382451D01*
X64813599Y-150382461D01*
X64836763Y-150342334D01*
X64882967Y-150329950D01*
X64890979Y-150331543D01*
X64931250Y-150342334D01*
X64963587Y-150350999D01*
X64963590Y-150350999D01*
X64963592Y-150351000D01*
X64963593Y-150351000D01*
X65056407Y-150351000D01*
X65056408Y-150351000D01*
X65146060Y-150326978D01*
X65226440Y-150280570D01*
X65292070Y-150214940D01*
X65338478Y-150134560D01*
X65362500Y-150044908D01*
X65362500Y-149952092D01*
X65338478Y-149862440D01*
X65338477Y-149862437D01*
X65292070Y-149782060D01*
X65292065Y-149782054D01*
X65226445Y-149716434D01*
X65226439Y-149716429D01*
X65146062Y-149670022D01*
X65146059Y-149670021D01*
X65056414Y-149646001D01*
X65056409Y-149646000D01*
X65056408Y-149646000D01*
X64963592Y-149646000D01*
X64963591Y-149646000D01*
X64963585Y-149646001D01*
X64911727Y-149659896D01*
X64864301Y-149653652D01*
X64835181Y-149615702D01*
X64841425Y-149568276D01*
X64841424Y-149568276D01*
X64848478Y-149556060D01*
X64872500Y-149466408D01*
X64872500Y-149373592D01*
X64848478Y-149283940D01*
X64848477Y-149283937D01*
X64802070Y-149203560D01*
X64802065Y-149203554D01*
X64736445Y-149137934D01*
X64736439Y-149137929D01*
X64656062Y-149091522D01*
X64656059Y-149091521D01*
X64566414Y-149067501D01*
X64566409Y-149067500D01*
X64566408Y-149067500D01*
X64473592Y-149067500D01*
X64473591Y-149067500D01*
X64473585Y-149067501D01*
X64383940Y-149091521D01*
X64383937Y-149091522D01*
X64303560Y-149137929D01*
X64303554Y-149137934D01*
X64237934Y-149203554D01*
X64237929Y-149203560D01*
X64191522Y-149283937D01*
X64191521Y-149283940D01*
X64167501Y-149373585D01*
X64167500Y-149373593D01*
X64167500Y-149466406D01*
X64167501Y-149466414D01*
X64191521Y-149556059D01*
X64191522Y-149556062D01*
X64237929Y-149636439D01*
X64237934Y-149636445D01*
X64303554Y-149702065D01*
X64303560Y-149702070D01*
X64383937Y-149748477D01*
X64383940Y-149748478D01*
X64473592Y-149772500D01*
X64473593Y-149772500D01*
X64566407Y-149772500D01*
X64566408Y-149772500D01*
X64566416Y-149772498D01*
X64594973Y-149764846D01*
X64618272Y-149758603D01*
X64665697Y-149764846D01*
X64694818Y-149802796D01*
X64688575Y-149850222D01*
X64681523Y-149862436D01*
X64681521Y-149862440D01*
X64657499Y-149952089D01*
X64657150Y-149954746D01*
X64656474Y-149955915D01*
X64656439Y-149956049D01*
X64656403Y-149956039D01*
X64633228Y-149996171D01*
X64587022Y-150008548D01*
X64579009Y-150006953D01*
X64506414Y-149987501D01*
X64506409Y-149987500D01*
X64506408Y-149987500D01*
X64413592Y-149987500D01*
X64413591Y-149987500D01*
X64413585Y-149987501D01*
X64323940Y-150011521D01*
X64323937Y-150011522D01*
X64243560Y-150057929D01*
X64243554Y-150057934D01*
X64177934Y-150123554D01*
X64177929Y-150123560D01*
X64131522Y-150203937D01*
X64131521Y-150203940D01*
X64107501Y-150293585D01*
X64107500Y-150293593D01*
X64107500Y-150386406D01*
X64107501Y-150386414D01*
X64131521Y-150476059D01*
X64131522Y-150476062D01*
X64177929Y-150556439D01*
X64177934Y-150556445D01*
X64212295Y-150590806D01*
X64230601Y-150635000D01*
X64212295Y-150679194D01*
X64168101Y-150697500D01*
X64163592Y-150697500D01*
X64163591Y-150697500D01*
X64163585Y-150697501D01*
X64073940Y-150721521D01*
X64073937Y-150721522D01*
X63993560Y-150767929D01*
X63993554Y-150767934D01*
X63927934Y-150833554D01*
X63927929Y-150833560D01*
X63881522Y-150913937D01*
X63881521Y-150913940D01*
X63857501Y-151003585D01*
X63857500Y-151003593D01*
X56198843Y-151003593D01*
X56167070Y-150948560D01*
X56167065Y-150948554D01*
X56101445Y-150882934D01*
X56101436Y-150882927D01*
X56022450Y-150837324D01*
X55993330Y-150799374D01*
X55999574Y-150751948D01*
X56009507Y-150739003D01*
X56037066Y-150711444D01*
X56037070Y-150711440D01*
X56083478Y-150631060D01*
X56107500Y-150541408D01*
X56107500Y-150448592D01*
X56083478Y-150358940D01*
X56083477Y-150358937D01*
X56037070Y-150278560D01*
X56037065Y-150278554D01*
X55971445Y-150212934D01*
X55971439Y-150212929D01*
X55891062Y-150166522D01*
X55891059Y-150166521D01*
X55801414Y-150142501D01*
X55801409Y-150142500D01*
X55801408Y-150142500D01*
X55708592Y-150142500D01*
X55708591Y-150142500D01*
X55708585Y-150142501D01*
X55618940Y-150166521D01*
X55618937Y-150166522D01*
X55538560Y-150212929D01*
X55538554Y-150212934D01*
X55472934Y-150278554D01*
X55472929Y-150278560D01*
X55426522Y-150358937D01*
X55426521Y-150358940D01*
X55402501Y-150448585D01*
X55402500Y-150448593D01*
X47700500Y-150448593D01*
X47700500Y-149068593D01*
X55292500Y-149068593D01*
X55292500Y-149161406D01*
X55292501Y-149161414D01*
X55316521Y-149251059D01*
X55316522Y-149251062D01*
X55362929Y-149331439D01*
X55362934Y-149331445D01*
X55428554Y-149397065D01*
X55428560Y-149397070D01*
X55508937Y-149443477D01*
X55508940Y-149443478D01*
X55598592Y-149467500D01*
X55598593Y-149467500D01*
X55691407Y-149467500D01*
X55691408Y-149467500D01*
X55781060Y-149443478D01*
X55861440Y-149397070D01*
X55927070Y-149331440D01*
X55973478Y-149251060D01*
X55997500Y-149161408D01*
X55997500Y-149068592D01*
X55973478Y-148978940D01*
X55973475Y-148978934D01*
X55957203Y-148950750D01*
X55957201Y-148950747D01*
X55941523Y-148923593D01*
X71547500Y-148923593D01*
X71547500Y-149016406D01*
X71547501Y-149016414D01*
X71571521Y-149106059D01*
X71571522Y-149106062D01*
X71617929Y-149186439D01*
X71617934Y-149186445D01*
X71683554Y-149252065D01*
X71683560Y-149252070D01*
X71763937Y-149298477D01*
X71763940Y-149298478D01*
X71853592Y-149322500D01*
X71853593Y-149322500D01*
X71946407Y-149322500D01*
X71946408Y-149322500D01*
X72036060Y-149298478D01*
X72116440Y-149252070D01*
X72182070Y-149186440D01*
X72228478Y-149106060D01*
X72252500Y-149016408D01*
X72252500Y-148923592D01*
X72228478Y-148833940D01*
X72228477Y-148833937D01*
X72182070Y-148753560D01*
X72182065Y-148753554D01*
X72116445Y-148687934D01*
X72116439Y-148687929D01*
X72036062Y-148641522D01*
X72036059Y-148641521D01*
X71946414Y-148617501D01*
X71946409Y-148617500D01*
X71946408Y-148617500D01*
X71853592Y-148617500D01*
X71853591Y-148617500D01*
X71853585Y-148617501D01*
X71763940Y-148641521D01*
X71763937Y-148641522D01*
X71683560Y-148687929D01*
X71683554Y-148687934D01*
X71617934Y-148753554D01*
X71617929Y-148753560D01*
X71571522Y-148833937D01*
X71571521Y-148833940D01*
X71547501Y-148923585D01*
X71547500Y-148923593D01*
X55941523Y-148923593D01*
X55927070Y-148898560D01*
X55927065Y-148898554D01*
X55861445Y-148832934D01*
X55861439Y-148832929D01*
X55781062Y-148786522D01*
X55781059Y-148786521D01*
X55691414Y-148762501D01*
X55691409Y-148762500D01*
X55691408Y-148762500D01*
X55598592Y-148762500D01*
X55598591Y-148762500D01*
X55598585Y-148762501D01*
X55508940Y-148786521D01*
X55508937Y-148786522D01*
X55428560Y-148832929D01*
X55428554Y-148832934D01*
X55362934Y-148898554D01*
X55362929Y-148898560D01*
X55316522Y-148978937D01*
X55316521Y-148978940D01*
X55292501Y-149068585D01*
X55292500Y-149068593D01*
X47700500Y-149068593D01*
X47700500Y-148418593D01*
X54302500Y-148418593D01*
X54302500Y-148511406D01*
X54302501Y-148511414D01*
X54326521Y-148601059D01*
X54326522Y-148601062D01*
X54372929Y-148681439D01*
X54372934Y-148681445D01*
X54438554Y-148747065D01*
X54438560Y-148747070D01*
X54518937Y-148793477D01*
X54518940Y-148793478D01*
X54608592Y-148817500D01*
X54608593Y-148817500D01*
X54701407Y-148817500D01*
X54701408Y-148817500D01*
X54791060Y-148793478D01*
X54871440Y-148747070D01*
X54937070Y-148681440D01*
X54983478Y-148601060D01*
X55007500Y-148511408D01*
X55007500Y-148418592D01*
X54983478Y-148328940D01*
X54983477Y-148328937D01*
X54937070Y-148248560D01*
X54937065Y-148248554D01*
X54871445Y-148182934D01*
X54871439Y-148182929D01*
X54791062Y-148136522D01*
X54791059Y-148136521D01*
X54701414Y-148112501D01*
X54701409Y-148112500D01*
X54701408Y-148112500D01*
X54608592Y-148112500D01*
X54608591Y-148112500D01*
X54608585Y-148112501D01*
X54518940Y-148136521D01*
X54518937Y-148136522D01*
X54438560Y-148182929D01*
X54438554Y-148182934D01*
X54372934Y-148248554D01*
X54372929Y-148248560D01*
X54326522Y-148328937D01*
X54326521Y-148328940D01*
X54302501Y-148418585D01*
X54302500Y-148418593D01*
X47700500Y-148418593D01*
X47700500Y-147988593D01*
X56272500Y-147988593D01*
X56272500Y-148081406D01*
X56272501Y-148081414D01*
X56296521Y-148171059D01*
X56296522Y-148171062D01*
X56342929Y-148251439D01*
X56342934Y-148251445D01*
X56408554Y-148317065D01*
X56408560Y-148317070D01*
X56488937Y-148363477D01*
X56488940Y-148363478D01*
X56578592Y-148387500D01*
X56578593Y-148387500D01*
X56671407Y-148387500D01*
X56671408Y-148387500D01*
X56761060Y-148363478D01*
X56841440Y-148317070D01*
X56874917Y-148283593D01*
X75507500Y-148283593D01*
X75507500Y-148376406D01*
X75507501Y-148376414D01*
X75531521Y-148466059D01*
X75531522Y-148466062D01*
X75577929Y-148546439D01*
X75577934Y-148546445D01*
X75643554Y-148612065D01*
X75643560Y-148612070D01*
X75723937Y-148658477D01*
X75723940Y-148658478D01*
X75813592Y-148682500D01*
X75813593Y-148682500D01*
X75906407Y-148682500D01*
X75906408Y-148682500D01*
X75996060Y-148658478D01*
X76076440Y-148612070D01*
X76142070Y-148546440D01*
X76188478Y-148466060D01*
X76212500Y-148376408D01*
X76212500Y-148283592D01*
X76188478Y-148193940D01*
X76188477Y-148193937D01*
X76142070Y-148113560D01*
X76142065Y-148113554D01*
X76076445Y-148047934D01*
X76076439Y-148047929D01*
X75996062Y-148001522D01*
X75996059Y-148001521D01*
X75906414Y-147977501D01*
X75906409Y-147977500D01*
X75906408Y-147977500D01*
X75813592Y-147977500D01*
X75813591Y-147977500D01*
X75813585Y-147977501D01*
X75723940Y-148001521D01*
X75723937Y-148001522D01*
X75643560Y-148047929D01*
X75643554Y-148047934D01*
X75577934Y-148113554D01*
X75577929Y-148113560D01*
X75531522Y-148193937D01*
X75531521Y-148193940D01*
X75507501Y-148283585D01*
X75507500Y-148283593D01*
X56874917Y-148283593D01*
X56907070Y-148251440D01*
X56953478Y-148171060D01*
X56977500Y-148081408D01*
X56977500Y-147988592D01*
X56953478Y-147898940D01*
X56953477Y-147898937D01*
X56907070Y-147818560D01*
X56907065Y-147818554D01*
X56841445Y-147752934D01*
X56841439Y-147752929D01*
X56761062Y-147706522D01*
X56761059Y-147706521D01*
X56671414Y-147682501D01*
X56671409Y-147682500D01*
X56671408Y-147682500D01*
X56578592Y-147682500D01*
X56578591Y-147682500D01*
X56578585Y-147682501D01*
X56488940Y-147706521D01*
X56488937Y-147706522D01*
X56408560Y-147752929D01*
X56408554Y-147752934D01*
X56342934Y-147818554D01*
X56342929Y-147818560D01*
X56296522Y-147898937D01*
X56296521Y-147898940D01*
X56272501Y-147988585D01*
X56272500Y-147988593D01*
X47700500Y-147988593D01*
X47700500Y-147013593D01*
X50097500Y-147013593D01*
X50097500Y-147106406D01*
X50097501Y-147106414D01*
X50121521Y-147196059D01*
X50121522Y-147196062D01*
X50167929Y-147276439D01*
X50167934Y-147276445D01*
X50233554Y-147342065D01*
X50233560Y-147342070D01*
X50313937Y-147388477D01*
X50313940Y-147388478D01*
X50403592Y-147412500D01*
X50403593Y-147412500D01*
X50496407Y-147412500D01*
X50496408Y-147412500D01*
X50586060Y-147388478D01*
X50666440Y-147342070D01*
X50732070Y-147276440D01*
X50778478Y-147196060D01*
X50787716Y-147161579D01*
X50791196Y-147148593D01*
X60382500Y-147148593D01*
X60382500Y-147241406D01*
X60382501Y-147241414D01*
X60406521Y-147331059D01*
X60406522Y-147331062D01*
X60452929Y-147411439D01*
X60452934Y-147411445D01*
X60518554Y-147477065D01*
X60518560Y-147477070D01*
X60598937Y-147523477D01*
X60598940Y-147523478D01*
X60688592Y-147547500D01*
X60688593Y-147547500D01*
X60781407Y-147547500D01*
X60781408Y-147547500D01*
X60871060Y-147523478D01*
X60872758Y-147522498D01*
X60888048Y-147513669D01*
X60951440Y-147477070D01*
X61017070Y-147411440D01*
X61063478Y-147331060D01*
X61087500Y-147241408D01*
X61087500Y-147148592D01*
X61063478Y-147058940D01*
X61063477Y-147058937D01*
X61017070Y-146978560D01*
X61017065Y-146978554D01*
X60951445Y-146912934D01*
X60951439Y-146912929D01*
X60871062Y-146866522D01*
X60871059Y-146866521D01*
X60781414Y-146842501D01*
X60781409Y-146842500D01*
X60781408Y-146842500D01*
X60688592Y-146842500D01*
X60688591Y-146842500D01*
X60688585Y-146842501D01*
X60598940Y-146866521D01*
X60598937Y-146866522D01*
X60518560Y-146912929D01*
X60518554Y-146912934D01*
X60452934Y-146978554D01*
X60452929Y-146978560D01*
X60406522Y-147058937D01*
X60406521Y-147058940D01*
X60382501Y-147148585D01*
X60382500Y-147148593D01*
X50791196Y-147148593D01*
X50796629Y-147128320D01*
X50796629Y-147128319D01*
X50802499Y-147106412D01*
X50802500Y-147106406D01*
X50802500Y-147013593D01*
X50802498Y-147013585D01*
X50778478Y-146923940D01*
X50778477Y-146923937D01*
X50732070Y-146843560D01*
X50732065Y-146843554D01*
X50666445Y-146777934D01*
X50666439Y-146777929D01*
X50586062Y-146731522D01*
X50586059Y-146731521D01*
X50496414Y-146707501D01*
X50496409Y-146707500D01*
X50496408Y-146707500D01*
X50403592Y-146707500D01*
X50403591Y-146707500D01*
X50403585Y-146707501D01*
X50313940Y-146731521D01*
X50313937Y-146731522D01*
X50233560Y-146777929D01*
X50233554Y-146777934D01*
X50167934Y-146843554D01*
X50167929Y-146843560D01*
X50121522Y-146923937D01*
X50121521Y-146923940D01*
X50097501Y-147013585D01*
X50097500Y-147013593D01*
X47700500Y-147013593D01*
X47700500Y-146623846D01*
X66917500Y-146623846D01*
X66917500Y-146756153D01*
X66917501Y-146756161D01*
X66951743Y-146883953D01*
X66951744Y-146883957D01*
X66984822Y-146941250D01*
X67006363Y-146978560D01*
X67017901Y-146998543D01*
X67017904Y-146998547D01*
X67111452Y-147092095D01*
X67111456Y-147092098D01*
X67111458Y-147092100D01*
X67226042Y-147158255D01*
X67353845Y-147192500D01*
X67353846Y-147192500D01*
X67486154Y-147192500D01*
X67486155Y-147192500D01*
X67613958Y-147158255D01*
X67673994Y-147123593D01*
X69887500Y-147123593D01*
X69887500Y-147216406D01*
X69887501Y-147216414D01*
X69911521Y-147306059D01*
X69911522Y-147306062D01*
X69957929Y-147386439D01*
X69957934Y-147386445D01*
X70023554Y-147452065D01*
X70023560Y-147452070D01*
X70103937Y-147498477D01*
X70103940Y-147498478D01*
X70193592Y-147522500D01*
X70193593Y-147522500D01*
X70286407Y-147522500D01*
X70286408Y-147522500D01*
X70376060Y-147498478D01*
X70456440Y-147452070D01*
X70522070Y-147386440D01*
X70568478Y-147306060D01*
X70592500Y-147216408D01*
X70592500Y-147123592D01*
X70568478Y-147033940D01*
X70568477Y-147033937D01*
X70522070Y-146953560D01*
X70522065Y-146953554D01*
X70456445Y-146887934D01*
X70456439Y-146887929D01*
X70376062Y-146841522D01*
X70376059Y-146841521D01*
X70286414Y-146817501D01*
X70286409Y-146817500D01*
X70286408Y-146817500D01*
X70193592Y-146817500D01*
X70193591Y-146817500D01*
X70193585Y-146817501D01*
X70103940Y-146841521D01*
X70103937Y-146841522D01*
X70023560Y-146887929D01*
X70023554Y-146887934D01*
X69957934Y-146953554D01*
X69957929Y-146953560D01*
X69911522Y-147033937D01*
X69911521Y-147033940D01*
X69887501Y-147123585D01*
X69887500Y-147123593D01*
X67673994Y-147123593D01*
X67728542Y-147092100D01*
X67728547Y-147092095D01*
X67745341Y-147075302D01*
X67822095Y-146998547D01*
X67822100Y-146998542D01*
X67888255Y-146883958D01*
X67922500Y-146756155D01*
X67922500Y-146623845D01*
X67888255Y-146496042D01*
X67822100Y-146381458D01*
X67822098Y-146381456D01*
X67822097Y-146381454D01*
X67785057Y-146344414D01*
X74177067Y-146344414D01*
X74177067Y-146437227D01*
X74177068Y-146437235D01*
X74201088Y-146526880D01*
X74201089Y-146526883D01*
X74247496Y-146607260D01*
X74247501Y-146607266D01*
X74313121Y-146672886D01*
X74313127Y-146672891D01*
X74393504Y-146719298D01*
X74393507Y-146719299D01*
X74483159Y-146743321D01*
X74483160Y-146743321D01*
X74575974Y-146743321D01*
X74575975Y-146743321D01*
X74665627Y-146719299D01*
X74746007Y-146672891D01*
X74811637Y-146607261D01*
X74858045Y-146526881D01*
X74882067Y-146437229D01*
X74882067Y-146344413D01*
X74858045Y-146254761D01*
X74858044Y-146254758D01*
X74811637Y-146174381D01*
X74811632Y-146174375D01*
X74746012Y-146108755D01*
X74746006Y-146108750D01*
X74665629Y-146062343D01*
X74665626Y-146062342D01*
X74575981Y-146038322D01*
X74575976Y-146038321D01*
X74575975Y-146038321D01*
X74483159Y-146038321D01*
X74483158Y-146038321D01*
X74483152Y-146038322D01*
X74393507Y-146062342D01*
X74393504Y-146062343D01*
X74313127Y-146108750D01*
X74313121Y-146108755D01*
X74247501Y-146174375D01*
X74247496Y-146174381D01*
X74201089Y-146254758D01*
X74201088Y-146254761D01*
X74177068Y-146344406D01*
X74177067Y-146344414D01*
X67785057Y-146344414D01*
X67728547Y-146287904D01*
X67728543Y-146287901D01*
X67728542Y-146287900D01*
X67671138Y-146254758D01*
X67613957Y-146221744D01*
X67613953Y-146221743D01*
X67486161Y-146187501D01*
X67486156Y-146187500D01*
X67486155Y-146187500D01*
X67353845Y-146187500D01*
X67353844Y-146187500D01*
X67353838Y-146187501D01*
X67226046Y-146221743D01*
X67226042Y-146221744D01*
X67111456Y-146287901D01*
X67111452Y-146287904D01*
X67017904Y-146381452D01*
X67017901Y-146381456D01*
X66951744Y-146496042D01*
X66951743Y-146496046D01*
X66917501Y-146623838D01*
X66917500Y-146623846D01*
X47700500Y-146623846D01*
X47700500Y-143893846D01*
X73647500Y-143893846D01*
X73647500Y-144026153D01*
X73647501Y-144026161D01*
X73681743Y-144153953D01*
X73681744Y-144153957D01*
X73747901Y-144268543D01*
X73747904Y-144268547D01*
X73841452Y-144362095D01*
X73841456Y-144362098D01*
X73841458Y-144362100D01*
X73956042Y-144428255D01*
X74083845Y-144462500D01*
X74083846Y-144462500D01*
X74216154Y-144462500D01*
X74216155Y-144462500D01*
X74343958Y-144428255D01*
X74458542Y-144362100D01*
X74552100Y-144268542D01*
X74618255Y-144153958D01*
X74652500Y-144026155D01*
X74652500Y-143893845D01*
X74618255Y-143766042D01*
X74552100Y-143651458D01*
X74552098Y-143651456D01*
X74552095Y-143651452D01*
X74458547Y-143557904D01*
X74458543Y-143557901D01*
X74458542Y-143557900D01*
X74401250Y-143524822D01*
X74343957Y-143491744D01*
X74343953Y-143491743D01*
X74216161Y-143457501D01*
X74216156Y-143457500D01*
X74216155Y-143457500D01*
X74083845Y-143457500D01*
X74083844Y-143457500D01*
X74083838Y-143457501D01*
X73956046Y-143491743D01*
X73956042Y-143491744D01*
X73841456Y-143557901D01*
X73841452Y-143557904D01*
X73747904Y-143651452D01*
X73747901Y-143651456D01*
X73681744Y-143766042D01*
X73681743Y-143766046D01*
X73647501Y-143893838D01*
X73647500Y-143893846D01*
X47700500Y-143893846D01*
X47700500Y-138765197D01*
X57952500Y-138765197D01*
X57952500Y-138934802D01*
X57979032Y-139102320D01*
X58031440Y-139263614D01*
X58031441Y-139263617D01*
X58058104Y-139315946D01*
X58108439Y-139414733D01*
X58108442Y-139414737D01*
X58208128Y-139551943D01*
X58208135Y-139551951D01*
X58328048Y-139671864D01*
X58328056Y-139671871D01*
X58465267Y-139771561D01*
X58616384Y-139848559D01*
X58777685Y-139900969D01*
X58945199Y-139927500D01*
X58945201Y-139927500D01*
X59114799Y-139927500D01*
X59114801Y-139927500D01*
X59282315Y-139900969D01*
X59443616Y-139848559D01*
X59594733Y-139771561D01*
X59731944Y-139671871D01*
X59851871Y-139551944D01*
X59885116Y-139506186D01*
X69477500Y-139506186D01*
X69477500Y-139693813D01*
X69514103Y-139877832D01*
X69585905Y-140051179D01*
X69690144Y-140207183D01*
X69822816Y-140339855D01*
X69978820Y-140444094D01*
X69978821Y-140444094D01*
X69978822Y-140444095D01*
X70152166Y-140515896D01*
X70336187Y-140552500D01*
X70523813Y-140552500D01*
X70707834Y-140515896D01*
X70881178Y-140444095D01*
X71037184Y-140339855D01*
X71169855Y-140207184D01*
X71274095Y-140051178D01*
X71345896Y-139877834D01*
X71382500Y-139693813D01*
X71382500Y-139506187D01*
X71382500Y-139506186D01*
X71977500Y-139506186D01*
X71977500Y-139693813D01*
X72014103Y-139877832D01*
X72085905Y-140051179D01*
X72190144Y-140207183D01*
X72322816Y-140339855D01*
X72478820Y-140444094D01*
X72478821Y-140444094D01*
X72478822Y-140444095D01*
X72652166Y-140515896D01*
X72836187Y-140552500D01*
X73023813Y-140552500D01*
X73207834Y-140515896D01*
X73381178Y-140444095D01*
X73537184Y-140339855D01*
X73669855Y-140207184D01*
X73774095Y-140051178D01*
X73845896Y-139877834D01*
X73882500Y-139693813D01*
X73882500Y-139506187D01*
X73845896Y-139322166D01*
X73774095Y-139148822D01*
X73743023Y-139102320D01*
X73669855Y-138992816D01*
X73537183Y-138860144D01*
X73381179Y-138755905D01*
X73207832Y-138684103D01*
X73023813Y-138647500D01*
X72836187Y-138647500D01*
X72652167Y-138684103D01*
X72478820Y-138755905D01*
X72322816Y-138860144D01*
X72190144Y-138992816D01*
X72085905Y-139148820D01*
X72014103Y-139322167D01*
X71977500Y-139506186D01*
X71382500Y-139506186D01*
X71345896Y-139322166D01*
X71274095Y-139148822D01*
X71243023Y-139102320D01*
X71169855Y-138992816D01*
X71037183Y-138860144D01*
X70881179Y-138755905D01*
X70707832Y-138684103D01*
X70523813Y-138647500D01*
X70336187Y-138647500D01*
X70152167Y-138684103D01*
X69978820Y-138755905D01*
X69822816Y-138860144D01*
X69690144Y-138992816D01*
X69585905Y-139148820D01*
X69514103Y-139322167D01*
X69477500Y-139506186D01*
X59885116Y-139506186D01*
X59951561Y-139414733D01*
X60028559Y-139263616D01*
X60080969Y-139102315D01*
X60107500Y-138934801D01*
X60107500Y-138765199D01*
X60080969Y-138597685D01*
X60028559Y-138436384D01*
X59951561Y-138285267D01*
X59851871Y-138148056D01*
X59851864Y-138148048D01*
X59731951Y-138028135D01*
X59731943Y-138028128D01*
X59594737Y-137928442D01*
X59594733Y-137928439D01*
X59495946Y-137878104D01*
X59443617Y-137851441D01*
X59443614Y-137851440D01*
X59282320Y-137799032D01*
X59282316Y-137799031D01*
X59282315Y-137799031D01*
X59187198Y-137783966D01*
X59114802Y-137772500D01*
X59114801Y-137772500D01*
X58945199Y-137772500D01*
X58945197Y-137772500D01*
X58777679Y-137799032D01*
X58616385Y-137851440D01*
X58616382Y-137851441D01*
X58511722Y-137904768D01*
X58465267Y-137928439D01*
X58465264Y-137928440D01*
X58465262Y-137928442D01*
X58328056Y-138028128D01*
X58328048Y-138028135D01*
X58208135Y-138148048D01*
X58208128Y-138148056D01*
X58108442Y-138285262D01*
X58031441Y-138436382D01*
X58031440Y-138436385D01*
X57979032Y-138597679D01*
X57952500Y-138765197D01*
X47700500Y-138765197D01*
X47700500Y-134365197D01*
X57952500Y-134365197D01*
X57952500Y-134534802D01*
X57979032Y-134702320D01*
X58031440Y-134863614D01*
X58031441Y-134863617D01*
X58058104Y-134915946D01*
X58108439Y-135014733D01*
X58108442Y-135014737D01*
X58208128Y-135151943D01*
X58208135Y-135151951D01*
X58328048Y-135271864D01*
X58328056Y-135271871D01*
X58465267Y-135371561D01*
X58616384Y-135448559D01*
X58777685Y-135500969D01*
X58945199Y-135527500D01*
X58945201Y-135527500D01*
X59114799Y-135527500D01*
X59114801Y-135527500D01*
X59282315Y-135500969D01*
X59443616Y-135448559D01*
X59594733Y-135371561D01*
X59731944Y-135271871D01*
X59851871Y-135151944D01*
X59951561Y-135014733D01*
X60028559Y-134863616D01*
X60080969Y-134702315D01*
X60107500Y-134534801D01*
X60107500Y-134365199D01*
X60080969Y-134197685D01*
X60028559Y-134036384D01*
X59951561Y-133885267D01*
X59851871Y-133748056D01*
X59851864Y-133748048D01*
X59731951Y-133628135D01*
X59731943Y-133628128D01*
X59701742Y-133606186D01*
X69477500Y-133606186D01*
X69477500Y-133793813D01*
X69514103Y-133977832D01*
X69585905Y-134151179D01*
X69690144Y-134307183D01*
X69822816Y-134439855D01*
X69978820Y-134544094D01*
X69978821Y-134544094D01*
X69978822Y-134544095D01*
X70152166Y-134615896D01*
X70336187Y-134652500D01*
X70523813Y-134652500D01*
X70707834Y-134615896D01*
X70881178Y-134544095D01*
X71037184Y-134439855D01*
X71169855Y-134307184D01*
X71274095Y-134151178D01*
X71345896Y-133977834D01*
X71382500Y-133793813D01*
X71382500Y-133606187D01*
X71345896Y-133422166D01*
X71274095Y-133248822D01*
X71169855Y-133092816D01*
X71037184Y-132960145D01*
X70947598Y-132900286D01*
X70890962Y-132862442D01*
X71977500Y-132862442D01*
X71977500Y-134537558D01*
X71984898Y-134574748D01*
X71984898Y-134574749D01*
X72013077Y-134616922D01*
X72041257Y-134635750D01*
X72055252Y-134645102D01*
X72092442Y-134652500D01*
X72092443Y-134652500D01*
X73767557Y-134652500D01*
X73767558Y-134652500D01*
X73804748Y-134645102D01*
X73846922Y-134616922D01*
X73875102Y-134574748D01*
X73882500Y-134537558D01*
X73882500Y-132862442D01*
X73875102Y-132825252D01*
X73847608Y-132784104D01*
X73846922Y-132783077D01*
X73804748Y-132754898D01*
X73767558Y-132747500D01*
X72092442Y-132747500D01*
X72073847Y-132751199D01*
X72055251Y-132754898D01*
X72055250Y-132754898D01*
X72013077Y-132783077D01*
X71984898Y-132825250D01*
X71984898Y-132825251D01*
X71984898Y-132825252D01*
X71977500Y-132862442D01*
X70890962Y-132862442D01*
X70881179Y-132855905D01*
X70707832Y-132784103D01*
X70523813Y-132747500D01*
X70336187Y-132747500D01*
X70152167Y-132784103D01*
X69978820Y-132855905D01*
X69822816Y-132960144D01*
X69690144Y-133092816D01*
X69585905Y-133248820D01*
X69514103Y-133422167D01*
X69477500Y-133606186D01*
X59701742Y-133606186D01*
X59594737Y-133528442D01*
X59594733Y-133528439D01*
X59495946Y-133478104D01*
X59443617Y-133451441D01*
X59443614Y-133451440D01*
X59282320Y-133399032D01*
X59282316Y-133399031D01*
X59282315Y-133399031D01*
X59187198Y-133383966D01*
X59114802Y-133372500D01*
X59114801Y-133372500D01*
X58945199Y-133372500D01*
X58945197Y-133372500D01*
X58777679Y-133399032D01*
X58616385Y-133451440D01*
X58616382Y-133451441D01*
X58511722Y-133504768D01*
X58465267Y-133528439D01*
X58465264Y-133528440D01*
X58465262Y-133528442D01*
X58328056Y-133628128D01*
X58328048Y-133628135D01*
X58208135Y-133748048D01*
X58208128Y-133748056D01*
X58108442Y-133885262D01*
X58031441Y-134036382D01*
X58031440Y-134036385D01*
X57979032Y-134197679D01*
X57952500Y-134365197D01*
X47700500Y-134365197D01*
X47700500Y-128567106D01*
X52702500Y-128567106D01*
X52702500Y-128832893D01*
X52737191Y-129096397D01*
X52737191Y-129096398D01*
X52805974Y-129353100D01*
X52805978Y-129353111D01*
X52805980Y-129353117D01*
X52860117Y-129483816D01*
X52907686Y-129598658D01*
X52907689Y-129598664D01*
X53040578Y-129828835D01*
X53202374Y-130039692D01*
X53390308Y-130227626D01*
X53601165Y-130389422D01*
X53831336Y-130522311D01*
X54076883Y-130624020D01*
X54076893Y-130624022D01*
X54076899Y-130624025D01*
X54333602Y-130692808D01*
X54333606Y-130692809D01*
X54597111Y-130727500D01*
X54597117Y-130727500D01*
X54862883Y-130727500D01*
X54862889Y-130727500D01*
X55126394Y-130692809D01*
X55126398Y-130692808D01*
X55383100Y-130624025D01*
X55383103Y-130624023D01*
X55383117Y-130624020D01*
X55628664Y-130522311D01*
X55858835Y-130389422D01*
X56069692Y-130227626D01*
X56257626Y-130039692D01*
X56419422Y-129828835D01*
X56552311Y-129598664D01*
X56654020Y-129353117D01*
X56722809Y-129096394D01*
X56757500Y-128832889D01*
X56757500Y-128567111D01*
X56757499Y-128567106D01*
X69452500Y-128567106D01*
X69452500Y-128832893D01*
X69487191Y-129096397D01*
X69487191Y-129096398D01*
X69555974Y-129353100D01*
X69555978Y-129353111D01*
X69555980Y-129353117D01*
X69610117Y-129483816D01*
X69657686Y-129598658D01*
X69657689Y-129598664D01*
X69790578Y-129828835D01*
X69952374Y-130039692D01*
X70140308Y-130227626D01*
X70351165Y-130389422D01*
X70581336Y-130522311D01*
X70826883Y-130624020D01*
X70826893Y-130624022D01*
X70826899Y-130624025D01*
X71083602Y-130692808D01*
X71083606Y-130692809D01*
X71347111Y-130727500D01*
X71347117Y-130727500D01*
X71612883Y-130727500D01*
X71612889Y-130727500D01*
X71876394Y-130692809D01*
X71876398Y-130692808D01*
X72133100Y-130624025D01*
X72133103Y-130624023D01*
X72133117Y-130624020D01*
X72378664Y-130522311D01*
X72608835Y-130389422D01*
X72819692Y-130227626D01*
X73007626Y-130039692D01*
X73169422Y-129828835D01*
X73302311Y-129598664D01*
X73404020Y-129353117D01*
X73472809Y-129096394D01*
X73507500Y-128832889D01*
X73507500Y-128567111D01*
X73472809Y-128303606D01*
X73472808Y-128303601D01*
X73404025Y-128046899D01*
X73404022Y-128046893D01*
X73404020Y-128046883D01*
X73302311Y-127801336D01*
X73169422Y-127571165D01*
X73007626Y-127360308D01*
X72819692Y-127172374D01*
X72819688Y-127172371D01*
X72819686Y-127172369D01*
X72608832Y-127010576D01*
X72378670Y-126877692D01*
X72378658Y-126877686D01*
X72263816Y-126830117D01*
X72133117Y-126775980D01*
X72133111Y-126775978D01*
X72133100Y-126775974D01*
X71876397Y-126707191D01*
X71612893Y-126672500D01*
X71612889Y-126672500D01*
X71347111Y-126672500D01*
X71347106Y-126672500D01*
X71083602Y-126707191D01*
X71083601Y-126707191D01*
X70826899Y-126775974D01*
X70826884Y-126775979D01*
X70826883Y-126775980D01*
X70826881Y-126775981D01*
X70581341Y-126877686D01*
X70581329Y-126877692D01*
X70351167Y-127010576D01*
X70140313Y-127172369D01*
X70140303Y-127172378D01*
X69952378Y-127360303D01*
X69952369Y-127360313D01*
X69790576Y-127571167D01*
X69657692Y-127801329D01*
X69657686Y-127801341D01*
X69555981Y-128046881D01*
X69555974Y-128046899D01*
X69487191Y-128303601D01*
X69487191Y-128303602D01*
X69452500Y-128567106D01*
X56757499Y-128567106D01*
X56722809Y-128303606D01*
X56722808Y-128303601D01*
X56654025Y-128046899D01*
X56654022Y-128046893D01*
X56654020Y-128046883D01*
X56552311Y-127801336D01*
X56419422Y-127571165D01*
X56257626Y-127360308D01*
X56069692Y-127172374D01*
X56069688Y-127172371D01*
X56069686Y-127172369D01*
X55858832Y-127010576D01*
X55628670Y-126877692D01*
X55628658Y-126877686D01*
X55513816Y-126830117D01*
X55383117Y-126775980D01*
X55383111Y-126775978D01*
X55383100Y-126775974D01*
X55126397Y-126707191D01*
X54862893Y-126672500D01*
X54862889Y-126672500D01*
X54597111Y-126672500D01*
X54597106Y-126672500D01*
X54333602Y-126707191D01*
X54333601Y-126707191D01*
X54076899Y-126775974D01*
X54076884Y-126775979D01*
X54076883Y-126775980D01*
X54076881Y-126775981D01*
X53831341Y-126877686D01*
X53831329Y-126877692D01*
X53601167Y-127010576D01*
X53390313Y-127172369D01*
X53390303Y-127172378D01*
X53202378Y-127360303D01*
X53202369Y-127360313D01*
X53040576Y-127571167D01*
X52907692Y-127801329D01*
X52907686Y-127801341D01*
X52805981Y-128046881D01*
X52805974Y-128046899D01*
X52737191Y-128303601D01*
X52737191Y-128303602D01*
X52702500Y-128567106D01*
X47700500Y-128567106D01*
X47700500Y-122175299D01*
X64987500Y-122175299D01*
X64987500Y-122424700D01*
X65020052Y-122671959D01*
X65020052Y-122671960D01*
X65084598Y-122912846D01*
X65180036Y-123143254D01*
X65180039Y-123143260D01*
X65304735Y-123359240D01*
X65456556Y-123557097D01*
X65632903Y-123733444D01*
X65830760Y-123885265D01*
X66046740Y-124009961D01*
X66277149Y-124105400D01*
X66277153Y-124105401D01*
X66277152Y-124105401D01*
X66518040Y-124169947D01*
X66518044Y-124169948D01*
X66765304Y-124202500D01*
X66765310Y-124202500D01*
X67014690Y-124202500D01*
X67014696Y-124202500D01*
X67261956Y-124169948D01*
X67502851Y-124105400D01*
X67733260Y-124009961D01*
X67949240Y-123885265D01*
X68147097Y-123733444D01*
X68323444Y-123557097D01*
X68475265Y-123359240D01*
X68599961Y-123143260D01*
X68695400Y-122912851D01*
X68759948Y-122671956D01*
X68792500Y-122424696D01*
X68792500Y-122175304D01*
X68759948Y-121928044D01*
X68695400Y-121687149D01*
X68599961Y-121456740D01*
X68475265Y-121240760D01*
X68323444Y-121042903D01*
X68147097Y-120866556D01*
X67949240Y-120714735D01*
X67931526Y-120704508D01*
X67733266Y-120590042D01*
X67733254Y-120590036D01*
X67502846Y-120494598D01*
X67502847Y-120494598D01*
X67261959Y-120430052D01*
X67014700Y-120397500D01*
X67014696Y-120397500D01*
X66765304Y-120397500D01*
X66765299Y-120397500D01*
X66518040Y-120430052D01*
X66518039Y-120430052D01*
X66277153Y-120494598D01*
X66046745Y-120590036D01*
X66046733Y-120590042D01*
X65830766Y-120714731D01*
X65830763Y-120714733D01*
X65830760Y-120714735D01*
X65725811Y-120795264D01*
X65632901Y-120866557D01*
X65456557Y-121042901D01*
X65385264Y-121135811D01*
X65304735Y-121240760D01*
X65304733Y-121240763D01*
X65304731Y-121240766D01*
X65180042Y-121456733D01*
X65180036Y-121456745D01*
X65084598Y-121687153D01*
X65020052Y-121928039D01*
X65020052Y-121928040D01*
X64987500Y-122175299D01*
X47700500Y-122175299D01*
X47700500Y-113392049D01*
X57772500Y-113392049D01*
X57772500Y-113567950D01*
X57800017Y-113741687D01*
X57854371Y-113908969D01*
X57854372Y-113908971D01*
X57934228Y-114065698D01*
X58037618Y-114208003D01*
X58037621Y-114208006D01*
X58037624Y-114208010D01*
X58161989Y-114332375D01*
X58161992Y-114332377D01*
X58161997Y-114332382D01*
X58304302Y-114435772D01*
X58461029Y-114515628D01*
X58628318Y-114569984D01*
X58802051Y-114597500D01*
X58802053Y-114597500D01*
X58977947Y-114597500D01*
X58977949Y-114597500D01*
X59151682Y-114569984D01*
X59318971Y-114515628D01*
X59475698Y-114435772D01*
X59618003Y-114332382D01*
X59742382Y-114208003D01*
X59845772Y-114065698D01*
X59925628Y-113908971D01*
X59979984Y-113741682D01*
X60007500Y-113567949D01*
X60007500Y-113392051D01*
X59979984Y-113218318D01*
X59925628Y-113051029D01*
X59845772Y-112894302D01*
X59742382Y-112751997D01*
X59742377Y-112751992D01*
X59742375Y-112751989D01*
X59618010Y-112627624D01*
X59618006Y-112627621D01*
X59618003Y-112627618D01*
X59475698Y-112524228D01*
X59318971Y-112444372D01*
X59318969Y-112444371D01*
X59151687Y-112390017D01*
X59151683Y-112390016D01*
X59151682Y-112390016D01*
X59053034Y-112374392D01*
X58977950Y-112362500D01*
X58977949Y-112362500D01*
X58802051Y-112362500D01*
X58802049Y-112362500D01*
X58628312Y-112390017D01*
X58461030Y-112444371D01*
X58461022Y-112444375D01*
X58309400Y-112521630D01*
X58304302Y-112524228D01*
X58161997Y-112627618D01*
X58161989Y-112627624D01*
X58037624Y-112751989D01*
X57934227Y-112894304D01*
X57854375Y-113051022D01*
X57854371Y-113051030D01*
X57800017Y-113218312D01*
X57772500Y-113392049D01*
X47700500Y-113392049D01*
X47700500Y-106077106D01*
X52712500Y-106077106D01*
X52712500Y-106342893D01*
X52747191Y-106606397D01*
X52747191Y-106606398D01*
X52815974Y-106863100D01*
X52815978Y-106863111D01*
X52815980Y-106863117D01*
X52870117Y-106993816D01*
X52917686Y-107108658D01*
X52917692Y-107108670D01*
X53050576Y-107338832D01*
X53204703Y-107539696D01*
X53212374Y-107549692D01*
X53400308Y-107737626D01*
X53611165Y-107899422D01*
X53611167Y-107899423D01*
X53824008Y-108022307D01*
X53841336Y-108032311D01*
X54086883Y-108134020D01*
X54086893Y-108134022D01*
X54086899Y-108134025D01*
X54343602Y-108202808D01*
X54343606Y-108202809D01*
X54607111Y-108237500D01*
X54607117Y-108237500D01*
X54872883Y-108237500D01*
X54872889Y-108237500D01*
X55136394Y-108202809D01*
X55136398Y-108202808D01*
X55393100Y-108134025D01*
X55393103Y-108134023D01*
X55393117Y-108134020D01*
X55638664Y-108032311D01*
X55868835Y-107899422D01*
X56079692Y-107737626D01*
X56267626Y-107549692D01*
X56429422Y-107338835D01*
X56562311Y-107108664D01*
X56664020Y-106863117D01*
X56666700Y-106853118D01*
X56732808Y-106606398D01*
X56732808Y-106606397D01*
X56732809Y-106606394D01*
X56767500Y-106342889D01*
X56767500Y-106077111D01*
X56766183Y-106067106D01*
X69452500Y-106067106D01*
X69452500Y-106332893D01*
X69487191Y-106596397D01*
X69487191Y-106596398D01*
X69555974Y-106853100D01*
X69555978Y-106853111D01*
X69555980Y-106853117D01*
X69560123Y-106863118D01*
X69657686Y-107098658D01*
X69657692Y-107098670D01*
X69790576Y-107328832D01*
X69790578Y-107328835D01*
X69952374Y-107539692D01*
X70140308Y-107727626D01*
X70351165Y-107889422D01*
X70581336Y-108022311D01*
X70826883Y-108124020D01*
X70826893Y-108124022D01*
X70826899Y-108124025D01*
X71083602Y-108192808D01*
X71083606Y-108192809D01*
X71347111Y-108227500D01*
X71347117Y-108227500D01*
X71612883Y-108227500D01*
X71612889Y-108227500D01*
X71876394Y-108192809D01*
X71876398Y-108192808D01*
X72133100Y-108124025D01*
X72133103Y-108124023D01*
X72133117Y-108124020D01*
X72378664Y-108022311D01*
X72608835Y-107889422D01*
X72819692Y-107727626D01*
X73007626Y-107539692D01*
X73169422Y-107328835D01*
X73302311Y-107098664D01*
X73404020Y-106853117D01*
X73470129Y-106606398D01*
X73472808Y-106596398D01*
X73472808Y-106596397D01*
X73472809Y-106596394D01*
X73507500Y-106332889D01*
X73507500Y-106067111D01*
X73472809Y-105803606D01*
X73428375Y-105637776D01*
X73404025Y-105546899D01*
X73404022Y-105546893D01*
X73404020Y-105546883D01*
X73302311Y-105301336D01*
X73169422Y-105071165D01*
X73015299Y-104870308D01*
X73007630Y-104860313D01*
X73007621Y-104860303D01*
X72819696Y-104672378D01*
X72819686Y-104672369D01*
X72630320Y-104527064D01*
X72608835Y-104510578D01*
X72499908Y-104447689D01*
X72378670Y-104377692D01*
X72378658Y-104377686D01*
X72263816Y-104330117D01*
X72133117Y-104275980D01*
X72133111Y-104275978D01*
X72133100Y-104275974D01*
X71876397Y-104207191D01*
X71612893Y-104172500D01*
X71612889Y-104172500D01*
X71347111Y-104172500D01*
X71347106Y-104172500D01*
X71083602Y-104207191D01*
X71083601Y-104207191D01*
X70826899Y-104275974D01*
X70826884Y-104275979D01*
X70826883Y-104275980D01*
X70788600Y-104291837D01*
X70581341Y-104377686D01*
X70581329Y-104377692D01*
X70351167Y-104510576D01*
X70140313Y-104672369D01*
X70140303Y-104672378D01*
X69952378Y-104860303D01*
X69952369Y-104860313D01*
X69790576Y-105071167D01*
X69657692Y-105301329D01*
X69657686Y-105301341D01*
X69555981Y-105546881D01*
X69555974Y-105546899D01*
X69487191Y-105803601D01*
X69487191Y-105803602D01*
X69452500Y-106067106D01*
X56766183Y-106067106D01*
X56732809Y-105813606D01*
X56732808Y-105813601D01*
X56664025Y-105556899D01*
X56664022Y-105556893D01*
X56664020Y-105556883D01*
X56562311Y-105311336D01*
X56556533Y-105301329D01*
X56429423Y-105081167D01*
X56429422Y-105081165D01*
X56267626Y-104870308D01*
X56079692Y-104682374D01*
X56079688Y-104682371D01*
X56079686Y-104682369D01*
X55960051Y-104590570D01*
X55868835Y-104520578D01*
X55868832Y-104520576D01*
X55638670Y-104387692D01*
X55638658Y-104387686D01*
X55523816Y-104340117D01*
X55393117Y-104285980D01*
X55393111Y-104285978D01*
X55393100Y-104285974D01*
X55136397Y-104217191D01*
X54872893Y-104182500D01*
X54872889Y-104182500D01*
X54607111Y-104182500D01*
X54607106Y-104182500D01*
X54343602Y-104217191D01*
X54343601Y-104217191D01*
X54086899Y-104285974D01*
X54086884Y-104285979D01*
X54086883Y-104285980D01*
X54086881Y-104285981D01*
X53841341Y-104387686D01*
X53841329Y-104387692D01*
X53611167Y-104520576D01*
X53400313Y-104682369D01*
X53400303Y-104682378D01*
X53212378Y-104870303D01*
X53212369Y-104870313D01*
X53050576Y-105081167D01*
X52917692Y-105311329D01*
X52917686Y-105311341D01*
X52815981Y-105556881D01*
X52815974Y-105556899D01*
X52747191Y-105813601D01*
X52747191Y-105813602D01*
X52712500Y-106077106D01*
X47700500Y-106077106D01*
X47700500Y-105642235D01*
X47700659Y-105637776D01*
X47706445Y-105556881D01*
X47717479Y-105402591D01*
X47718748Y-105393768D01*
X47736680Y-105311336D01*
X47768392Y-105165553D01*
X47770901Y-105157009D01*
X47852522Y-104938178D01*
X47856215Y-104930091D01*
X47968148Y-104725101D01*
X47972967Y-104717603D01*
X47990547Y-104694119D01*
X48112931Y-104530632D01*
X48118759Y-104523907D01*
X48283907Y-104358759D01*
X48290632Y-104352931D01*
X48477607Y-104212964D01*
X48485101Y-104208148D01*
X48690091Y-104096215D01*
X48698178Y-104092522D01*
X48917009Y-104010901D01*
X48925553Y-104008392D01*
X49153770Y-103958747D01*
X49162591Y-103957479D01*
X49397777Y-103940659D01*
X49402236Y-103940500D01*
X49447594Y-103940500D01*
X75622406Y-103940500D01*
X75667764Y-103940500D01*
X75672223Y-103940659D01*
G37*
%TD.AperFunction*%
%TD*%
M02*
