%TF.GenerationSoftware,KiCad,Pcbnew,10.0.3*%
%TF.CreationDate,2026-06-13T07:37:27-04:00*%
%TF.ProjectId,TinkerRocekt Base Station V4,54696e6b-6572-4526-9f63-656b74204261,rev?*%
%TF.SameCoordinates,Original*%
%TF.FileFunction,Legend,Top*%
%TF.FilePolarity,Positive*%
%FSLAX46Y46*%
G04 Gerber Fmt 4.6, Leading zero omitted, Abs format (unit mm)*
G04 Created by KiCad (PCBNEW 10.0.3) date 2026-06-13 07:37:27*
%MOMM*%
%LPD*%
G01*
G04 APERTURE LIST*
%ADD10C,0.200000*%
%ADD11C,0.120000*%
%ADD12C,0.127000*%
%ADD13C,0.254000*%
%ADD14C,0.300000*%
%ADD15C,0.100000*%
%ADD16C,0.152400*%
G04 APERTURE END LIST*
D10*
X73907275Y-167783183D02*
X73907275Y-167211755D01*
X74907275Y-167497469D02*
X73907275Y-167497469D01*
X74907275Y-166878421D02*
X74240608Y-166878421D01*
X73907275Y-166878421D02*
X73954894Y-166926040D01*
X73954894Y-166926040D02*
X74002513Y-166878421D01*
X74002513Y-166878421D02*
X73954894Y-166830802D01*
X73954894Y-166830802D02*
X73907275Y-166878421D01*
X73907275Y-166878421D02*
X74002513Y-166878421D01*
X74240608Y-166402231D02*
X74907275Y-166402231D01*
X74335846Y-166402231D02*
X74288227Y-166354612D01*
X74288227Y-166354612D02*
X74240608Y-166259374D01*
X74240608Y-166259374D02*
X74240608Y-166116517D01*
X74240608Y-166116517D02*
X74288227Y-166021279D01*
X74288227Y-166021279D02*
X74383465Y-165973660D01*
X74383465Y-165973660D02*
X74907275Y-165973660D01*
X74907275Y-165497469D02*
X73907275Y-165497469D01*
X74526322Y-165402231D02*
X74907275Y-165116517D01*
X74240608Y-165116517D02*
X74621560Y-165497469D01*
X74859656Y-164306993D02*
X74907275Y-164402231D01*
X74907275Y-164402231D02*
X74907275Y-164592707D01*
X74907275Y-164592707D02*
X74859656Y-164687945D01*
X74859656Y-164687945D02*
X74764417Y-164735564D01*
X74764417Y-164735564D02*
X74383465Y-164735564D01*
X74383465Y-164735564D02*
X74288227Y-164687945D01*
X74288227Y-164687945D02*
X74240608Y-164592707D01*
X74240608Y-164592707D02*
X74240608Y-164402231D01*
X74240608Y-164402231D02*
X74288227Y-164306993D01*
X74288227Y-164306993D02*
X74383465Y-164259374D01*
X74383465Y-164259374D02*
X74478703Y-164259374D01*
X74478703Y-164259374D02*
X74573941Y-164735564D01*
X74907275Y-163830802D02*
X74240608Y-163830802D01*
X74431084Y-163830802D02*
X74335846Y-163783183D01*
X74335846Y-163783183D02*
X74288227Y-163735564D01*
X74288227Y-163735564D02*
X74240608Y-163640326D01*
X74240608Y-163640326D02*
X74240608Y-163545088D01*
X74907275Y-162640326D02*
X74431084Y-162973659D01*
X74907275Y-163211754D02*
X73907275Y-163211754D01*
X73907275Y-163211754D02*
X73907275Y-162830802D01*
X73907275Y-162830802D02*
X73954894Y-162735564D01*
X73954894Y-162735564D02*
X74002513Y-162687945D01*
X74002513Y-162687945D02*
X74097751Y-162640326D01*
X74097751Y-162640326D02*
X74240608Y-162640326D01*
X74240608Y-162640326D02*
X74335846Y-162687945D01*
X74335846Y-162687945D02*
X74383465Y-162735564D01*
X74383465Y-162735564D02*
X74431084Y-162830802D01*
X74431084Y-162830802D02*
X74431084Y-163211754D01*
X74907275Y-162068897D02*
X74859656Y-162164135D01*
X74859656Y-162164135D02*
X74812036Y-162211754D01*
X74812036Y-162211754D02*
X74716798Y-162259373D01*
X74716798Y-162259373D02*
X74431084Y-162259373D01*
X74431084Y-162259373D02*
X74335846Y-162211754D01*
X74335846Y-162211754D02*
X74288227Y-162164135D01*
X74288227Y-162164135D02*
X74240608Y-162068897D01*
X74240608Y-162068897D02*
X74240608Y-161926040D01*
X74240608Y-161926040D02*
X74288227Y-161830802D01*
X74288227Y-161830802D02*
X74335846Y-161783183D01*
X74335846Y-161783183D02*
X74431084Y-161735564D01*
X74431084Y-161735564D02*
X74716798Y-161735564D01*
X74716798Y-161735564D02*
X74812036Y-161783183D01*
X74812036Y-161783183D02*
X74859656Y-161830802D01*
X74859656Y-161830802D02*
X74907275Y-161926040D01*
X74907275Y-161926040D02*
X74907275Y-162068897D01*
X74859656Y-160878421D02*
X74907275Y-160973659D01*
X74907275Y-160973659D02*
X74907275Y-161164135D01*
X74907275Y-161164135D02*
X74859656Y-161259373D01*
X74859656Y-161259373D02*
X74812036Y-161306992D01*
X74812036Y-161306992D02*
X74716798Y-161354611D01*
X74716798Y-161354611D02*
X74431084Y-161354611D01*
X74431084Y-161354611D02*
X74335846Y-161306992D01*
X74335846Y-161306992D02*
X74288227Y-161259373D01*
X74288227Y-161259373D02*
X74240608Y-161164135D01*
X74240608Y-161164135D02*
X74240608Y-160973659D01*
X74240608Y-160973659D02*
X74288227Y-160878421D01*
X74907275Y-160449849D02*
X73907275Y-160449849D01*
X74526322Y-160354611D02*
X74907275Y-160068897D01*
X74240608Y-160068897D02*
X74621560Y-160449849D01*
X74859656Y-159259373D02*
X74907275Y-159354611D01*
X74907275Y-159354611D02*
X74907275Y-159545087D01*
X74907275Y-159545087D02*
X74859656Y-159640325D01*
X74859656Y-159640325D02*
X74764417Y-159687944D01*
X74764417Y-159687944D02*
X74383465Y-159687944D01*
X74383465Y-159687944D02*
X74288227Y-159640325D01*
X74288227Y-159640325D02*
X74240608Y-159545087D01*
X74240608Y-159545087D02*
X74240608Y-159354611D01*
X74240608Y-159354611D02*
X74288227Y-159259373D01*
X74288227Y-159259373D02*
X74383465Y-159211754D01*
X74383465Y-159211754D02*
X74478703Y-159211754D01*
X74478703Y-159211754D02*
X74573941Y-159687944D01*
X74240608Y-158926039D02*
X74240608Y-158545087D01*
X73907275Y-158783182D02*
X74764417Y-158783182D01*
X74764417Y-158783182D02*
X74859656Y-158735563D01*
X74859656Y-158735563D02*
X74907275Y-158640325D01*
X74907275Y-158640325D02*
X74907275Y-158545087D01*
X75993409Y-167306993D02*
X76041028Y-167164136D01*
X76041028Y-167164136D02*
X76088647Y-167116517D01*
X76088647Y-167116517D02*
X76183885Y-167068898D01*
X76183885Y-167068898D02*
X76326742Y-167068898D01*
X76326742Y-167068898D02*
X76421980Y-167116517D01*
X76421980Y-167116517D02*
X76469600Y-167164136D01*
X76469600Y-167164136D02*
X76517219Y-167259374D01*
X76517219Y-167259374D02*
X76517219Y-167640326D01*
X76517219Y-167640326D02*
X75517219Y-167640326D01*
X75517219Y-167640326D02*
X75517219Y-167306993D01*
X75517219Y-167306993D02*
X75564838Y-167211755D01*
X75564838Y-167211755D02*
X75612457Y-167164136D01*
X75612457Y-167164136D02*
X75707695Y-167116517D01*
X75707695Y-167116517D02*
X75802933Y-167116517D01*
X75802933Y-167116517D02*
X75898171Y-167164136D01*
X75898171Y-167164136D02*
X75945790Y-167211755D01*
X75945790Y-167211755D02*
X75993409Y-167306993D01*
X75993409Y-167306993D02*
X75993409Y-167640326D01*
X76517219Y-166211755D02*
X75993409Y-166211755D01*
X75993409Y-166211755D02*
X75898171Y-166259374D01*
X75898171Y-166259374D02*
X75850552Y-166354612D01*
X75850552Y-166354612D02*
X75850552Y-166545088D01*
X75850552Y-166545088D02*
X75898171Y-166640326D01*
X76469600Y-166211755D02*
X76517219Y-166306993D01*
X76517219Y-166306993D02*
X76517219Y-166545088D01*
X76517219Y-166545088D02*
X76469600Y-166640326D01*
X76469600Y-166640326D02*
X76374361Y-166687945D01*
X76374361Y-166687945D02*
X76279123Y-166687945D01*
X76279123Y-166687945D02*
X76183885Y-166640326D01*
X76183885Y-166640326D02*
X76136266Y-166545088D01*
X76136266Y-166545088D02*
X76136266Y-166306993D01*
X76136266Y-166306993D02*
X76088647Y-166211755D01*
X76469600Y-165783183D02*
X76517219Y-165687945D01*
X76517219Y-165687945D02*
X76517219Y-165497469D01*
X76517219Y-165497469D02*
X76469600Y-165402231D01*
X76469600Y-165402231D02*
X76374361Y-165354612D01*
X76374361Y-165354612D02*
X76326742Y-165354612D01*
X76326742Y-165354612D02*
X76231504Y-165402231D01*
X76231504Y-165402231D02*
X76183885Y-165497469D01*
X76183885Y-165497469D02*
X76183885Y-165640326D01*
X76183885Y-165640326D02*
X76136266Y-165735564D01*
X76136266Y-165735564D02*
X76041028Y-165783183D01*
X76041028Y-165783183D02*
X75993409Y-165783183D01*
X75993409Y-165783183D02*
X75898171Y-165735564D01*
X75898171Y-165735564D02*
X75850552Y-165640326D01*
X75850552Y-165640326D02*
X75850552Y-165497469D01*
X75850552Y-165497469D02*
X75898171Y-165402231D01*
X76469600Y-164545088D02*
X76517219Y-164640326D01*
X76517219Y-164640326D02*
X76517219Y-164830802D01*
X76517219Y-164830802D02*
X76469600Y-164926040D01*
X76469600Y-164926040D02*
X76374361Y-164973659D01*
X76374361Y-164973659D02*
X75993409Y-164973659D01*
X75993409Y-164973659D02*
X75898171Y-164926040D01*
X75898171Y-164926040D02*
X75850552Y-164830802D01*
X75850552Y-164830802D02*
X75850552Y-164640326D01*
X75850552Y-164640326D02*
X75898171Y-164545088D01*
X75898171Y-164545088D02*
X75993409Y-164497469D01*
X75993409Y-164497469D02*
X76088647Y-164497469D01*
X76088647Y-164497469D02*
X76183885Y-164973659D01*
X76469600Y-163354611D02*
X76517219Y-163211754D01*
X76517219Y-163211754D02*
X76517219Y-162973659D01*
X76517219Y-162973659D02*
X76469600Y-162878421D01*
X76469600Y-162878421D02*
X76421980Y-162830802D01*
X76421980Y-162830802D02*
X76326742Y-162783183D01*
X76326742Y-162783183D02*
X76231504Y-162783183D01*
X76231504Y-162783183D02*
X76136266Y-162830802D01*
X76136266Y-162830802D02*
X76088647Y-162878421D01*
X76088647Y-162878421D02*
X76041028Y-162973659D01*
X76041028Y-162973659D02*
X75993409Y-163164135D01*
X75993409Y-163164135D02*
X75945790Y-163259373D01*
X75945790Y-163259373D02*
X75898171Y-163306992D01*
X75898171Y-163306992D02*
X75802933Y-163354611D01*
X75802933Y-163354611D02*
X75707695Y-163354611D01*
X75707695Y-163354611D02*
X75612457Y-163306992D01*
X75612457Y-163306992D02*
X75564838Y-163259373D01*
X75564838Y-163259373D02*
X75517219Y-163164135D01*
X75517219Y-163164135D02*
X75517219Y-162926040D01*
X75517219Y-162926040D02*
X75564838Y-162783183D01*
X75850552Y-162497468D02*
X75850552Y-162116516D01*
X75517219Y-162354611D02*
X76374361Y-162354611D01*
X76374361Y-162354611D02*
X76469600Y-162306992D01*
X76469600Y-162306992D02*
X76517219Y-162211754D01*
X76517219Y-162211754D02*
X76517219Y-162116516D01*
X76517219Y-161354611D02*
X75993409Y-161354611D01*
X75993409Y-161354611D02*
X75898171Y-161402230D01*
X75898171Y-161402230D02*
X75850552Y-161497468D01*
X75850552Y-161497468D02*
X75850552Y-161687944D01*
X75850552Y-161687944D02*
X75898171Y-161783182D01*
X76469600Y-161354611D02*
X76517219Y-161449849D01*
X76517219Y-161449849D02*
X76517219Y-161687944D01*
X76517219Y-161687944D02*
X76469600Y-161783182D01*
X76469600Y-161783182D02*
X76374361Y-161830801D01*
X76374361Y-161830801D02*
X76279123Y-161830801D01*
X76279123Y-161830801D02*
X76183885Y-161783182D01*
X76183885Y-161783182D02*
X76136266Y-161687944D01*
X76136266Y-161687944D02*
X76136266Y-161449849D01*
X76136266Y-161449849D02*
X76088647Y-161354611D01*
X75850552Y-161021277D02*
X75850552Y-160640325D01*
X75517219Y-160878420D02*
X76374361Y-160878420D01*
X76374361Y-160878420D02*
X76469600Y-160830801D01*
X76469600Y-160830801D02*
X76517219Y-160735563D01*
X76517219Y-160735563D02*
X76517219Y-160640325D01*
X76517219Y-160306991D02*
X75850552Y-160306991D01*
X75517219Y-160306991D02*
X75564838Y-160354610D01*
X75564838Y-160354610D02*
X75612457Y-160306991D01*
X75612457Y-160306991D02*
X75564838Y-160259372D01*
X75564838Y-160259372D02*
X75517219Y-160306991D01*
X75517219Y-160306991D02*
X75612457Y-160306991D01*
X76517219Y-159687944D02*
X76469600Y-159783182D01*
X76469600Y-159783182D02*
X76421980Y-159830801D01*
X76421980Y-159830801D02*
X76326742Y-159878420D01*
X76326742Y-159878420D02*
X76041028Y-159878420D01*
X76041028Y-159878420D02*
X75945790Y-159830801D01*
X75945790Y-159830801D02*
X75898171Y-159783182D01*
X75898171Y-159783182D02*
X75850552Y-159687944D01*
X75850552Y-159687944D02*
X75850552Y-159545087D01*
X75850552Y-159545087D02*
X75898171Y-159449849D01*
X75898171Y-159449849D02*
X75945790Y-159402230D01*
X75945790Y-159402230D02*
X76041028Y-159354611D01*
X76041028Y-159354611D02*
X76326742Y-159354611D01*
X76326742Y-159354611D02*
X76421980Y-159402230D01*
X76421980Y-159402230D02*
X76469600Y-159449849D01*
X76469600Y-159449849D02*
X76517219Y-159545087D01*
X76517219Y-159545087D02*
X76517219Y-159687944D01*
X75850552Y-158926039D02*
X76517219Y-158926039D01*
X75945790Y-158926039D02*
X75898171Y-158878420D01*
X75898171Y-158878420D02*
X75850552Y-158783182D01*
X75850552Y-158783182D02*
X75850552Y-158640325D01*
X75850552Y-158640325D02*
X75898171Y-158545087D01*
X75898171Y-158545087D02*
X75993409Y-158497468D01*
X75993409Y-158497468D02*
X76517219Y-158497468D01*
X75517219Y-157402229D02*
X76517219Y-157068896D01*
X76517219Y-157068896D02*
X75517219Y-156735563D01*
X75850552Y-155973658D02*
X76517219Y-155973658D01*
X75469600Y-156211753D02*
X76183885Y-156449848D01*
X76183885Y-156449848D02*
X76183885Y-155830801D01*
X74304435Y-182797219D02*
X74923482Y-182797219D01*
X74923482Y-182797219D02*
X74590149Y-183178171D01*
X74590149Y-183178171D02*
X74733006Y-183178171D01*
X74733006Y-183178171D02*
X74828244Y-183225790D01*
X74828244Y-183225790D02*
X74875863Y-183273409D01*
X74875863Y-183273409D02*
X74923482Y-183368647D01*
X74923482Y-183368647D02*
X74923482Y-183606742D01*
X74923482Y-183606742D02*
X74875863Y-183701980D01*
X74875863Y-183701980D02*
X74828244Y-183749600D01*
X74828244Y-183749600D02*
X74733006Y-183797219D01*
X74733006Y-183797219D02*
X74447292Y-183797219D01*
X74447292Y-183797219D02*
X74352054Y-183749600D01*
X74352054Y-183749600D02*
X74304435Y-183701980D01*
X75256816Y-183130552D02*
X75494911Y-183797219D01*
X75494911Y-183797219D02*
X75733006Y-183130552D01*
X76018721Y-182797219D02*
X76637768Y-182797219D01*
X76637768Y-182797219D02*
X76304435Y-183178171D01*
X76304435Y-183178171D02*
X76447292Y-183178171D01*
X76447292Y-183178171D02*
X76542530Y-183225790D01*
X76542530Y-183225790D02*
X76590149Y-183273409D01*
X76590149Y-183273409D02*
X76637768Y-183368647D01*
X76637768Y-183368647D02*
X76637768Y-183606742D01*
X76637768Y-183606742D02*
X76590149Y-183701980D01*
X76590149Y-183701980D02*
X76542530Y-183749600D01*
X76542530Y-183749600D02*
X76447292Y-183797219D01*
X76447292Y-183797219D02*
X76161578Y-183797219D01*
X76161578Y-183797219D02*
X76066340Y-183749600D01*
X76066340Y-183749600D02*
X76018721Y-183701980D01*
X74469673Y-170773409D02*
X74803006Y-170773409D01*
X74945863Y-171297219D02*
X74469673Y-171297219D01*
X74469673Y-171297219D02*
X74469673Y-170297219D01*
X74469673Y-170297219D02*
X74945863Y-170297219D01*
X75279197Y-171297219D02*
X75803006Y-170630552D01*
X75279197Y-170630552D02*
X75803006Y-171297219D01*
X76041102Y-170630552D02*
X76422054Y-170630552D01*
X76183959Y-170297219D02*
X76183959Y-171154361D01*
X76183959Y-171154361D02*
X76231578Y-171249600D01*
X76231578Y-171249600D02*
X76326816Y-171297219D01*
X76326816Y-171297219D02*
X76422054Y-171297219D01*
X74549673Y-177497219D02*
X74549673Y-176497219D01*
X75025863Y-176830552D02*
X75025863Y-177497219D01*
X75025863Y-176925790D02*
X75073482Y-176878171D01*
X75073482Y-176878171D02*
X75168720Y-176830552D01*
X75168720Y-176830552D02*
X75311577Y-176830552D01*
X75311577Y-176830552D02*
X75406815Y-176878171D01*
X75406815Y-176878171D02*
X75454434Y-176973409D01*
X75454434Y-176973409D02*
X75454434Y-177497219D01*
X75787768Y-176830552D02*
X76168720Y-176830552D01*
X75930625Y-176497219D02*
X75930625Y-177354361D01*
X75930625Y-177354361D02*
X75978244Y-177449600D01*
X75978244Y-177449600D02*
X76073482Y-177497219D01*
X76073482Y-177497219D02*
X76168720Y-177497219D01*
%TO.C,R12*%
D11*
X74760000Y-147373641D02*
X74760000Y-147066359D01*
X75520000Y-147373641D02*
X75520000Y-147066359D01*
%TO.C,R11*%
X74760000Y-145473641D02*
X74760000Y-145166359D01*
X75520000Y-145473641D02*
X75520000Y-145166359D01*
%TO.C,R10*%
X69276359Y-147970000D02*
X69583641Y-147970000D01*
X69276359Y-148730000D02*
X69583641Y-148730000D01*
%TO.C,R9*%
X70056359Y-149920000D02*
X70363641Y-149920000D01*
X70056359Y-150680000D02*
X70363641Y-150680000D01*
%TO.C,D2*%
D12*
X72830000Y-143565000D02*
X70070000Y-143565000D01*
X72830000Y-141615000D02*
X70070000Y-141615000D01*
D10*
X74155000Y-142590000D02*
G75*
G02*
X73955000Y-142590000I-100000J0D01*
G01*
X73955000Y-142590000D02*
G75*
G02*
X74155000Y-142590000I100000J0D01*
G01*
%TO.C,C41*%
D11*
X74255000Y-142171252D02*
X74255000Y-141648748D01*
X75725000Y-142171252D02*
X75725000Y-141648748D01*
%TO.C,C40*%
X77355000Y-145108748D02*
X77355000Y-145631252D01*
X75885000Y-145108748D02*
X75885000Y-145631252D01*
%TO.C,C39*%
X65035000Y-148111252D02*
X65035000Y-147588748D01*
X66505000Y-148111252D02*
X66505000Y-147588748D01*
%TO.C,C38*%
X70300000Y-145199420D02*
X70300000Y-145480580D01*
X69280000Y-145199420D02*
X69280000Y-145480580D01*
%TO.C,C37*%
X76462164Y-147220000D02*
X76677836Y-147220000D01*
X76462164Y-147940000D02*
X76677836Y-147940000D01*
%TO.C,C36*%
X70367836Y-149680000D02*
X70152164Y-149680000D01*
X70367836Y-148960000D02*
X70152164Y-148960000D01*
%TO.C,C35*%
X72010000Y-150252164D02*
X72010000Y-150467836D01*
X71290000Y-150252164D02*
X71290000Y-150467836D01*
%TO.C,C34*%
X62445000Y-144591252D02*
X62445000Y-144068748D01*
X63915000Y-144591252D02*
X63915000Y-144068748D01*
%TO.C,U2*%
D13*
X70720354Y-145520000D02*
G75*
G02*
X70649646Y-145520000I-35354J0D01*
G01*
X70649646Y-145520000D02*
G75*
G02*
X70720354Y-145520000I35354J0D01*
G01*
%TO.C,L1*%
D14*
X64690000Y-146500000D02*
G75*
G02*
X64490000Y-146500000I-100000J0D01*
G01*
X64490000Y-146500000D02*
G75*
G02*
X64690000Y-146500000I100000J0D01*
G01*
%TO.C,J6*%
D11*
X74800000Y-149010000D02*
X73650000Y-149010000D01*
X73650000Y-149010000D02*
X73650000Y-150060000D01*
X73650000Y-150060000D02*
X72660000Y-150060000D01*
X76770000Y-150180000D02*
X76770000Y-154060000D01*
X74800000Y-155230000D02*
X73650000Y-155230000D01*
X73650000Y-155230000D02*
X73650000Y-154180000D01*
%TO.C,TH1*%
X55915000Y-167970000D02*
X55915000Y-166590000D01*
X57295000Y-167970000D02*
X55915000Y-167970000D01*
X58565000Y-165210000D02*
X61215000Y-165210000D01*
X58565000Y-167970000D02*
X58565000Y-165210000D01*
X58565000Y-167970000D02*
X61215000Y-167970000D01*
X61215000Y-167970000D02*
X61215000Y-165210000D01*
%TO.C,D8*%
D15*
X62945000Y-170600000D02*
G75*
G02*
X62845000Y-170600000I-50000J0D01*
G01*
X62845000Y-170600000D02*
G75*
G02*
X62945000Y-170600000I50000J0D01*
G01*
%TO.C,R45*%
D11*
X68122936Y-163115000D02*
X68577064Y-163115000D01*
X68122936Y-164585000D02*
X68577064Y-164585000D01*
%TO.C,C32*%
X52872164Y-184780000D02*
X53087836Y-184780000D01*
X52872164Y-185500000D02*
X53087836Y-185500000D01*
%TO.C,D9*%
X70620000Y-175420000D02*
X70464000Y-175420000D01*
X72936000Y-175420000D02*
X72780000Y-175420000D01*
X70620000Y-178020961D02*
G75*
G02*
X70620000Y-175939039I1080000J1040961D01*
G01*
X70620000Y-178651437D02*
G75*
G02*
X70464484Y-175420000I1080000J1671437D01*
G01*
X72780000Y-175939039D02*
G75*
G02*
X72780000Y-178020961I-1080000J-1040961D01*
G01*
X72935516Y-175420000D02*
G75*
G02*
X72780000Y-178651437I-1235516J-1560000D01*
G01*
%TO.C,C48*%
X59868748Y-171805000D02*
X60391252Y-171805000D01*
X59868748Y-173275000D02*
X60391252Y-173275000D01*
%TO.C,C59*%
X48033000Y-169933252D02*
X48033000Y-169410748D01*
X49503000Y-169933252D02*
X49503000Y-169410748D01*
%TO.C,R15*%
X63690000Y-186053641D02*
X63690000Y-185746359D01*
X64450000Y-186053641D02*
X64450000Y-185746359D01*
%TO.C,U3*%
D12*
X56575000Y-148320000D02*
X56575000Y-148790000D01*
X56575000Y-148320000D02*
X57045000Y-148320000D01*
X56575000Y-155320000D02*
X56575000Y-154850000D01*
X56575000Y-155320000D02*
X57045000Y-155320000D01*
X63575000Y-148320000D02*
X63105000Y-148320000D01*
X63575000Y-148320000D02*
X63575000Y-148790000D01*
X63575000Y-155320000D02*
X63105000Y-155320000D01*
X63575000Y-155320000D02*
X63575000Y-154850000D01*
%TO.C,R41*%
D11*
X71203641Y-179580000D02*
X70896359Y-179580000D01*
X71203641Y-180340000D02*
X70896359Y-180340000D01*
%TO.C,C16*%
X54552836Y-149685000D02*
X54337164Y-149685000D01*
X54552836Y-150405000D02*
X54337164Y-150405000D01*
%TO.C,R46*%
X52545000Y-164111359D02*
X52545000Y-164418641D01*
X53305000Y-164111359D02*
X53305000Y-164418641D01*
%TO.C,R36*%
X68056359Y-167820000D02*
X68363641Y-167820000D01*
X68056359Y-168580000D02*
X68363641Y-168580000D01*
%TO.C,CR1*%
D16*
X65649000Y-181304500D02*
X65649000Y-182955500D01*
X66946940Y-182955500D02*
X67653060Y-182955500D01*
X67520000Y-181300000D02*
X66946940Y-181304500D01*
X68951000Y-182955500D02*
X68951000Y-181304500D01*
%TO.C,R47*%
D11*
X68352936Y-161145000D02*
X68807064Y-161145000D01*
X68352936Y-162615000D02*
X68807064Y-162615000D01*
%TO.C,C15*%
X56005000Y-145902836D02*
X56005000Y-145687164D01*
X56725000Y-145902836D02*
X56725000Y-145687164D01*
%TO.C,C11*%
X56985000Y-146842836D02*
X56985000Y-146627164D01*
X57705000Y-146842836D02*
X57705000Y-146627164D01*
%TO.C,R38*%
X71403641Y-173460000D02*
X71096359Y-173460000D01*
X71403641Y-174220000D02*
X71096359Y-174220000D01*
%TO.C,D1*%
D15*
X55435000Y-144695000D02*
G75*
G02*
X55335000Y-144695000I-50000J0D01*
G01*
X55335000Y-144695000D02*
G75*
G02*
X55435000Y-144695000I50000J0D01*
G01*
%TO.C,U13*%
D16*
X52694800Y-184543900D02*
X56936600Y-184543900D01*
X56936600Y-179286100D02*
X52694800Y-179286100D01*
%TO.C,R6*%
D11*
X61076359Y-162960000D02*
X61383641Y-162960000D01*
X61076359Y-162200000D02*
X61383641Y-162200000D01*
%TO.C,C8*%
X52705000Y-149447164D02*
X52705000Y-149662836D01*
X53425000Y-149447164D02*
X53425000Y-149662836D01*
%TO.C,R14*%
X61760000Y-185656359D02*
X61760000Y-185963641D01*
X62520000Y-185656359D02*
X62520000Y-185963641D01*
%TO.C,C3*%
X56935000Y-144542836D02*
X56935000Y-144327164D01*
X57655000Y-144542836D02*
X57655000Y-144327164D01*
%TO.C,C51*%
X67957836Y-170700000D02*
X67742164Y-170700000D01*
X67957836Y-171420000D02*
X67742164Y-171420000D01*
%TO.C,R8*%
X52590000Y-175463641D02*
X52590000Y-175156359D01*
X53350000Y-175463641D02*
X53350000Y-175156359D01*
%TO.C,C23*%
X53887836Y-173500000D02*
X53672164Y-173500000D01*
X53887836Y-174220000D02*
X53672164Y-174220000D01*
%TO.C,R54*%
X70706359Y-185880000D02*
X71013641Y-185880000D01*
X70706359Y-186640000D02*
X71013641Y-186640000D01*
%TO.C,R39*%
X60043641Y-170220000D02*
X59736359Y-170220000D01*
X60043641Y-170980000D02*
X59736359Y-170980000D01*
%TO.C,C2*%
X58015000Y-157947164D02*
X58015000Y-158162836D01*
X58735000Y-157947164D02*
X58735000Y-158162836D01*
%TO.C,R37*%
X68353641Y-168790000D02*
X68046359Y-168790000D01*
X68353641Y-169550000D02*
X68046359Y-169550000D01*
%TO.C,E1*%
D12*
X49410000Y-148417500D02*
X49410000Y-150377500D01*
X47810000Y-148417500D02*
X47810000Y-150377500D01*
D10*
X48710000Y-146597500D02*
G75*
G02*
X48510000Y-146597500I-100000J0D01*
G01*
X48510000Y-146597500D02*
G75*
G02*
X48710000Y-146597500I100000J0D01*
G01*
%TO.C,R43*%
D11*
X67996359Y-169750000D02*
X68303641Y-169750000D01*
X67996359Y-170510000D02*
X68303641Y-170510000D01*
%TO.C,R5*%
X61276359Y-163950000D02*
X61583641Y-163950000D01*
X61276359Y-163190000D02*
X61583641Y-163190000D01*
%TO.C,C21*%
X74220000Y-135657836D02*
X74220000Y-135442164D01*
X74940000Y-135657836D02*
X74940000Y-135442164D01*
%TO.C,U1*%
D16*
X67208450Y-151906800D02*
X67208450Y-156250200D01*
X67208450Y-156250200D02*
X67694860Y-156250200D01*
X67694860Y-151906800D02*
X67208450Y-151906800D01*
X71065440Y-156250200D02*
X71551850Y-156250200D01*
X71551850Y-151906800D02*
X71065440Y-151906800D01*
X71551850Y-156250200D02*
X71551850Y-151906800D01*
%TO.C,JP1*%
D11*
X59960000Y-181110000D02*
X61960000Y-181110000D01*
X59960000Y-183910000D02*
X59960000Y-181110000D01*
X61960000Y-181110000D02*
X61960000Y-183910000D01*
X61960000Y-183910000D02*
X59960000Y-183910000D01*
%TO.C,U9*%
D12*
X50210000Y-168500000D02*
X50600000Y-168500000D01*
X50210000Y-168560000D02*
X50210000Y-168500000D01*
X50210000Y-172500000D02*
X50210000Y-172440000D01*
X50600000Y-172500000D02*
X50210000Y-172500000D01*
X52820000Y-168500000D02*
X53210000Y-168500000D01*
X53210000Y-168500000D02*
X53210000Y-168560000D01*
X53210000Y-172440000D02*
X53210000Y-172500000D01*
X53210000Y-172500000D02*
X52820000Y-172500000D01*
D10*
X54010000Y-172000000D02*
G75*
G02*
X53810000Y-172000000I-100000J0D01*
G01*
X53810000Y-172000000D02*
G75*
G02*
X54010000Y-172000000I100000J0D01*
G01*
%TO.C,R48*%
D11*
X68066359Y-165890000D02*
X68373641Y-165890000D01*
X68066359Y-166650000D02*
X68373641Y-166650000D01*
%TO.C,C20*%
X58470000Y-177797836D02*
X58470000Y-177582164D01*
X59190000Y-177797836D02*
X59190000Y-177582164D01*
%TO.C,R56*%
X54993641Y-184780000D02*
X54686359Y-184780000D01*
X54993641Y-185540000D02*
X54686359Y-185540000D01*
%TO.C,C14*%
X61095000Y-146832836D02*
X61095000Y-146617164D01*
X61815000Y-146832836D02*
X61815000Y-146617164D01*
%TO.C,C6*%
X60715000Y-144217164D02*
X60715000Y-144432836D01*
X61435000Y-144217164D02*
X61435000Y-144432836D01*
%TO.C,C10*%
X65047164Y-155215000D02*
X65262836Y-155215000D01*
X65047164Y-155935000D02*
X65262836Y-155935000D01*
%TO.C,R55*%
X56110000Y-185936359D02*
X56110000Y-186243641D01*
X56870000Y-185936359D02*
X56870000Y-186243641D01*
%TO.C,R4*%
X62075000Y-158228641D02*
X62075000Y-157921359D01*
X62835000Y-158228641D02*
X62835000Y-157921359D01*
%TO.C,C58*%
X53945000Y-170658748D02*
X53945000Y-171181252D01*
X55415000Y-170658748D02*
X55415000Y-171181252D01*
%TO.C,R53*%
X60573641Y-175630000D02*
X60266359Y-175630000D01*
X60573641Y-176390000D02*
X60266359Y-176390000D01*
%TO.C,S1*%
D12*
X42040000Y-132250000D02*
X52540000Y-132250000D01*
X42040000Y-141050000D02*
X42040000Y-132250000D01*
X52540000Y-132250000D02*
X52540000Y-134400000D01*
X52540000Y-134400000D02*
X55240000Y-134400000D01*
X52540000Y-138900000D02*
X52540000Y-134400000D01*
X52540000Y-138900000D02*
X52540000Y-141050000D01*
X52540000Y-141050000D02*
X42040000Y-141050000D01*
X55240000Y-133850000D02*
X57240000Y-133850000D01*
X55240000Y-134400000D02*
X55240000Y-133850000D01*
X55240000Y-138900000D02*
X52540000Y-138900000D01*
X55240000Y-138900000D02*
X55240000Y-134400000D01*
X55240000Y-139450000D02*
X55240000Y-138900000D01*
X57240000Y-132950000D02*
X57240000Y-133850000D01*
X57240000Y-133850000D02*
X57240000Y-139450000D01*
X57240000Y-139450000D02*
X55240000Y-139450000D01*
X57240000Y-139450000D02*
X57240000Y-140350000D01*
X57240000Y-140350000D02*
X68240000Y-140350000D01*
X68240000Y-132950000D02*
X57240000Y-132950000D01*
X68240000Y-140350000D02*
X68240000Y-132950000D01*
D10*
X74860000Y-133697000D02*
G75*
G02*
X74660000Y-133697000I-100000J0D01*
G01*
X74660000Y-133697000D02*
G75*
G02*
X74860000Y-133697000I100000J0D01*
G01*
%TO.C,C22*%
D11*
X56800000Y-174607836D02*
X56800000Y-174392164D01*
X57520000Y-174607836D02*
X57520000Y-174392164D01*
%TO.C,R2*%
X59415000Y-146858641D02*
X59415000Y-146551359D01*
X60175000Y-146858641D02*
X60175000Y-146551359D01*
%TO.C,U4*%
D12*
X53600000Y-175710000D02*
X53600000Y-177310000D01*
X56720000Y-177310000D02*
X56720000Y-175710000D01*
%TO.C,R1*%
D11*
X54618641Y-148715000D02*
X54311359Y-148715000D01*
X54618641Y-149475000D02*
X54311359Y-149475000D01*
%TO.C,S3*%
D10*
X51850000Y-145320000D02*
X51850000Y-142920000D01*
%TO.C,C9*%
D11*
X65047164Y-154235000D02*
X65262836Y-154235000D01*
X65047164Y-154955000D02*
X65262836Y-154955000D01*
%TO.C,C24*%
X50065000Y-153062836D02*
X50065000Y-152847164D01*
X50785000Y-153062836D02*
X50785000Y-152847164D01*
%TO.C,R57*%
X50230000Y-186766359D02*
X50230000Y-187073641D01*
X50990000Y-186766359D02*
X50990000Y-187073641D01*
%TO.C,C18*%
X54317164Y-152645000D02*
X54532836Y-152645000D01*
X54317164Y-153365000D02*
X54532836Y-153365000D01*
%TO.C,C28*%
X59480000Y-177797836D02*
X59480000Y-177582164D01*
X60200000Y-177797836D02*
X60200000Y-177582164D01*
%TO.C,C1*%
X67920000Y-150557836D02*
X67920000Y-150342164D01*
X68640000Y-150557836D02*
X68640000Y-150342164D01*
%TO.C,C52*%
X66097836Y-170690000D02*
X65882164Y-170690000D01*
X66097836Y-171410000D02*
X65882164Y-171410000D01*
%TO.C,C30*%
X55750000Y-187872164D02*
X55750000Y-188087836D01*
X56470000Y-187872164D02*
X56470000Y-188087836D01*
%TO.C,C12*%
X58922836Y-156295000D02*
X58707164Y-156295000D01*
X58922836Y-157015000D02*
X58707164Y-157015000D01*
%TO.C,C33*%
X50220000Y-184117836D02*
X50220000Y-183902164D01*
X50940000Y-184117836D02*
X50940000Y-183902164D01*
%TO.C,J2*%
D10*
X58590000Y-189887500D02*
X58590000Y-191097500D01*
X58590000Y-193817500D02*
X58590000Y-195307500D01*
X58590000Y-195307500D02*
X67530000Y-195307500D01*
X67530000Y-189887500D02*
X67530000Y-191097500D01*
X67530000Y-195307500D02*
X67530000Y-193817500D01*
X59380000Y-186797500D02*
G75*
G02*
X59180000Y-186797500I-100000J0D01*
G01*
X59180000Y-186797500D02*
G75*
G02*
X59380000Y-186797500I100000J0D01*
G01*
%TO.C,D6*%
D11*
X70560000Y-181760000D02*
X70404000Y-181760000D01*
X72876000Y-181760000D02*
X72720000Y-181760000D01*
X70560000Y-184360961D02*
G75*
G02*
X70560000Y-182279039I1080000J1040961D01*
G01*
X70560000Y-184991437D02*
G75*
G02*
X70404484Y-181760000I1080000J1671437D01*
G01*
X72720000Y-182279039D02*
G75*
G02*
X72720000Y-184360961I-1080000J-1040961D01*
G01*
X72875516Y-181760000D02*
G75*
G02*
X72720000Y-184991437I-1235516J-1560000D01*
G01*
%TO.C,C54*%
X64568748Y-163385000D02*
X65091252Y-163385000D01*
X64568748Y-164855000D02*
X65091252Y-164855000D01*
%TO.C,C29*%
X52037836Y-173090000D02*
X51822164Y-173090000D01*
X52037836Y-173810000D02*
X51822164Y-173810000D01*
%TO.C,C17*%
X54337164Y-151645000D02*
X54552836Y-151645000D01*
X54337164Y-152365000D02*
X54552836Y-152365000D01*
%TO.C,C4*%
X61115000Y-157967164D02*
X61115000Y-158182836D01*
X61835000Y-157967164D02*
X61835000Y-158182836D01*
%TO.C,R3*%
X63065000Y-158238641D02*
X63065000Y-157931359D01*
X63825000Y-158238641D02*
X63825000Y-157931359D01*
%TO.C,U5*%
D12*
X61675000Y-179600000D02*
X63275000Y-179600000D01*
X63275000Y-176480000D02*
X61675000Y-176480000D01*
%TO.C,R18*%
D11*
X48080000Y-187684564D02*
X48080000Y-186230436D01*
X49900000Y-187684564D02*
X49900000Y-186230436D01*
%TO.C,C25*%
X53302164Y-147750000D02*
X53517836Y-147750000D01*
X53302164Y-148470000D02*
X53517836Y-148470000D01*
%TO.C,U11*%
D16*
X49110000Y-154420900D02*
X49110000Y-162777500D01*
X49110000Y-162777500D02*
X49831360Y-162777500D01*
X49831360Y-154420900D02*
X49110000Y-154420900D01*
X54738640Y-162777500D02*
X55460000Y-162777500D01*
X55460000Y-154420900D02*
X54738640Y-154420900D01*
X55460000Y-162777500D02*
X55460000Y-154420900D01*
X50481600Y-164276100D02*
G75*
G02*
X50278400Y-164276100I-101600J0D01*
G01*
X50278400Y-164276100D02*
G75*
G02*
X50481600Y-164276100I101600J0D01*
G01*
%TO.C,D7*%
D11*
X70630000Y-169300000D02*
X70474000Y-169300000D01*
X72946000Y-169300000D02*
X72790000Y-169300000D01*
X70630000Y-171900961D02*
G75*
G02*
X70630000Y-169819039I1080000J1040961D01*
G01*
X70630000Y-172531437D02*
G75*
G02*
X70474484Y-169300000I1080000J1671437D01*
G01*
X72790000Y-169819039D02*
G75*
G02*
X72790000Y-171900961I-1080000J-1040961D01*
G01*
X72945516Y-169300000D02*
G75*
G02*
X72790000Y-172531437I-1235516J-1560000D01*
G01*
%TO.C,U14*%
D16*
X51685000Y-189116400D02*
X55037800Y-189116400D01*
X55037800Y-185763600D02*
X51685000Y-185763600D01*
X51158000Y-186240000D02*
G75*
G02*
X50954800Y-186240000I-101600J0D01*
G01*
X50954800Y-186240000D02*
G75*
G02*
X51158000Y-186240000I101600J0D01*
G01*
%TO.C,R7*%
D11*
X74200000Y-137593641D02*
X74200000Y-137286359D01*
X74960000Y-137593641D02*
X74960000Y-137286359D01*
%TO.C,C19*%
X52685000Y-151502836D02*
X52685000Y-151287164D01*
X53405000Y-151502836D02*
X53405000Y-151287164D01*
%TO.C,R49*%
X68363641Y-166830000D02*
X68056359Y-166830000D01*
X68363641Y-167590000D02*
X68056359Y-167590000D01*
%TO.C,C27*%
X64780000Y-177362164D02*
X64780000Y-177577836D01*
X65500000Y-177362164D02*
X65500000Y-177577836D01*
%TO.C,R44*%
X51215000Y-153138641D02*
X51215000Y-152831359D01*
X51975000Y-153138641D02*
X51975000Y-152831359D01*
%TO.C,C53*%
X63098748Y-165405000D02*
X63621252Y-165405000D01*
X63098748Y-166875000D02*
X63621252Y-166875000D01*
%TO.C,R52*%
X65466359Y-178550000D02*
X65773641Y-178550000D01*
X65466359Y-179310000D02*
X65773641Y-179310000D01*
%TO.C,C31*%
X53122164Y-189460000D02*
X53337836Y-189460000D01*
X53122164Y-190180000D02*
X53337836Y-190180000D01*
%TO.C,R40*%
X61656359Y-169230000D02*
X61963641Y-169230000D01*
X61656359Y-169990000D02*
X61963641Y-169990000D01*
%TO.C,C13*%
X56042836Y-146835000D02*
X55827164Y-146835000D01*
X56042836Y-147555000D02*
X55827164Y-147555000D01*
%TO.C,L6*%
D12*
X62545000Y-171850000D02*
X66995000Y-171850000D01*
X62545000Y-172380000D02*
X62545000Y-171850000D01*
X62545000Y-175910000D02*
X62545000Y-175380000D01*
X62545000Y-175910000D02*
X66995000Y-175910000D01*
X66995000Y-171850000D02*
X66995000Y-172380000D01*
X66995000Y-175910000D02*
X66995000Y-175380000D01*
%TD*%
M02*
