%TF.GenerationSoftware,KiCad,Pcbnew,10.0.3*%
%TF.CreationDate,2026-06-13T07:37:27-04:00*%
%TF.ProjectId,TinkerRocekt Base Station V4,54696e6b-6572-4526-9f63-656b74204261,rev?*%
%TF.SameCoordinates,Original*%
%TF.FileFunction,Legend,Bot*%
%TF.FilePolarity,Positive*%
%FSLAX46Y46*%
G04 Gerber Fmt 4.6, Leading zero omitted, Abs format (unit mm)*
G04 Created by KiCad (PCBNEW 10.0.3) date 2026-06-13 07:37:27*
%MOMM*%
%LPD*%
G01*
G04 APERTURE LIST*
%ADD10C,0.500000*%
%ADD11C,0.150000*%
%ADD12C,0.127000*%
%ADD13C,0.120000*%
G04 APERTURE END LIST*
D10*
X53123232Y-190194000D02*
X55408947Y-190194000D01*
X54266089Y-191336857D02*
X54266089Y-189051142D01*
X54683232Y-108934000D02*
X56968947Y-108934000D01*
D11*
X47391009Y-113879285D02*
X47438628Y-114022142D01*
X47438628Y-114022142D02*
X47486247Y-114069761D01*
X47486247Y-114069761D02*
X47581485Y-114117380D01*
X47581485Y-114117380D02*
X47724342Y-114117380D01*
X47724342Y-114117380D02*
X47819580Y-114069761D01*
X47819580Y-114069761D02*
X47867200Y-114022142D01*
X47867200Y-114022142D02*
X47914819Y-113926904D01*
X47914819Y-113926904D02*
X47914819Y-113545952D01*
X47914819Y-113545952D02*
X46914819Y-113545952D01*
X46914819Y-113545952D02*
X46914819Y-113879285D01*
X46914819Y-113879285D02*
X46962438Y-113974523D01*
X46962438Y-113974523D02*
X47010057Y-114022142D01*
X47010057Y-114022142D02*
X47105295Y-114069761D01*
X47105295Y-114069761D02*
X47200533Y-114069761D01*
X47200533Y-114069761D02*
X47295771Y-114022142D01*
X47295771Y-114022142D02*
X47343390Y-113974523D01*
X47343390Y-113974523D02*
X47391009Y-113879285D01*
X47391009Y-113879285D02*
X47391009Y-113545952D01*
X46914819Y-114403095D02*
X46914819Y-114974523D01*
X47914819Y-114688809D02*
X46914819Y-114688809D01*
X47010057Y-115260238D02*
X46962438Y-115307857D01*
X46962438Y-115307857D02*
X46914819Y-115403095D01*
X46914819Y-115403095D02*
X46914819Y-115641190D01*
X46914819Y-115641190D02*
X46962438Y-115736428D01*
X46962438Y-115736428D02*
X47010057Y-115784047D01*
X47010057Y-115784047D02*
X47105295Y-115831666D01*
X47105295Y-115831666D02*
X47200533Y-115831666D01*
X47200533Y-115831666D02*
X47343390Y-115784047D01*
X47343390Y-115784047D02*
X47914819Y-115212619D01*
X47914819Y-115212619D02*
X47914819Y-115831666D01*
%TO.C,BT2*%
D12*
X48565000Y-111065000D02*
X48565000Y-188115000D01*
X48565000Y-188115000D02*
X69215000Y-188115000D01*
X58890000Y-110585000D02*
X58890000Y-109585000D01*
X58890000Y-189595000D02*
X58890000Y-188595000D01*
X59390000Y-189095000D02*
X58390000Y-189095000D01*
X69215000Y-111065000D02*
X48565000Y-111065000D01*
X69215000Y-188115000D02*
X69215000Y-111065000D01*
%TO.C,J4*%
D13*
X69400000Y-164010000D02*
X70000000Y-164310000D01*
X69400000Y-164610000D02*
X69400000Y-164010000D01*
X69890000Y-156700000D02*
X69890000Y-157920000D01*
X69890000Y-157920000D02*
X72090000Y-157920000D01*
X69890000Y-165700000D02*
X69890000Y-166920000D01*
X69890000Y-166920000D02*
X78310000Y-166920000D01*
X70000000Y-164310000D02*
X69400000Y-164610000D01*
X72090000Y-157920000D02*
X72090000Y-156700000D01*
X72090000Y-160640000D02*
X72090000Y-160480000D01*
X72090000Y-163140000D02*
X72090000Y-162980000D01*
X72090000Y-165700000D02*
X69890000Y-165700000D01*
X72090000Y-165700000D02*
X72090000Y-166920000D01*
X73090000Y-158990000D02*
X73090000Y-159310000D01*
X73090000Y-159310000D02*
X73090000Y-159630000D01*
X73090000Y-159630000D02*
X76510000Y-159630000D01*
X73090000Y-161490000D02*
X73090000Y-161810000D01*
X73090000Y-161810000D02*
X73090000Y-162130000D01*
X73090000Y-162130000D02*
X76510000Y-162130000D01*
X73090000Y-163990000D02*
X73090000Y-164310000D01*
X73090000Y-164310000D02*
X73090000Y-164630000D01*
X73090000Y-164630000D02*
X76510000Y-164630000D01*
X73090000Y-165700000D02*
X73090000Y-157920000D01*
X76510000Y-158990000D02*
X73090000Y-158990000D01*
X76510000Y-159630000D02*
X76590000Y-159310000D01*
X76510000Y-161490000D02*
X73090000Y-161490000D01*
X76510000Y-162130000D02*
X76590000Y-161810000D01*
X76510000Y-163990000D02*
X73090000Y-163990000D01*
X76510000Y-164630000D02*
X76590000Y-164310000D01*
X76590000Y-159310000D02*
X76510000Y-158990000D01*
X76590000Y-161810000D02*
X76510000Y-161490000D01*
X76590000Y-164310000D02*
X76510000Y-163990000D01*
X77090000Y-156700000D02*
X77090000Y-157920000D01*
X77090000Y-157920000D02*
X72090000Y-157920000D01*
X77090000Y-165700000D02*
X72090000Y-165700000D01*
X77090000Y-166920000D02*
X77090000Y-165700000D01*
X78310000Y-156700000D02*
X69890000Y-156700000D01*
X78310000Y-166920000D02*
X78310000Y-156700000D01*
%TD*%
M02*
