ISO-10303-21;
HEADER;
/* Generated by software containing ST-Developer
 * from STEP Tools, Inc. (www.steptools.com) 
 */

FILE_DESCRIPTION(
/* description */ (''),
/* implementation_level */ '2;1');

FILE_NAME(
/* name */ 
'Supercap_Prismatic_13.0x7.0mm_L28.5mm_P10.00mm_Horizontal.step',
/* time_stamp */ '2026-08-26T15:48:53-04:00',
/* author */ (''),
/* organization */ (''),
/* preprocessor_version */ 'ST-DEVELOPER v20.1',
/* originating_system */ 'Autodesk Translation Framework v15.8.0.0',
/* authorisation */ '');

FILE_SCHEMA (('AUTOMOTIVE_DESIGN { 1 0 10303 214 3 1 1 }'));
ENDSEC;

DATA;
#10=MECHANICAL_DESIGN_GEOMETRIC_PRESENTATION_REPRESENTATION('',(#15,#16,
#17),#467);
#11=SHAPE_REPRESENTATION_RELATIONSHIP('SRR','None',#474,#12);
#12=ADVANCED_BREP_SHAPE_REPRESENTATION('',(#18,#19,#20),#466);
#13=ELLIPSE('',#282,0.424264068711929,0.3);
#14=ELLIPSE('',#295,0.424264068711929,0.3);
#15=STYLED_ITEM('',(#484),#18);
#16=STYLED_ITEM('',(#485),#19);
#17=STYLED_ITEM('',(#485),#20);
#18=MANIFOLD_SOLID_BREP('Can',#253);
#19=MANIFOLD_SOLID_BREP('Lead1',#254);
#20=MANIFOLD_SOLID_BREP('Lead2',#255);
#21=PLANE('',#272);
#22=PLANE('',#276);
#23=PLANE('',#277);
#24=PLANE('',#278);
#25=PLANE('',#284);
#26=PLANE('',#285);
#27=PLANE('',#286);
#28=PLANE('',#291);
#29=PLANE('',#297);
#30=PLANE('',#298);
#31=PLANE('',#299);
#32=PLANE('',#304);
#33=FACE_OUTER_BOUND('',#51,.T.);
#34=FACE_OUTER_BOUND('',#52,.T.);
#35=FACE_OUTER_BOUND('',#53,.T.);
#36=FACE_OUTER_BOUND('',#54,.T.);
#37=FACE_OUTER_BOUND('',#55,.T.);
#38=FACE_OUTER_BOUND('',#56,.T.);
#39=FACE_OUTER_BOUND('',#57,.T.);
#40=FACE_OUTER_BOUND('',#58,.T.);
#41=FACE_OUTER_BOUND('',#59,.T.);
#42=FACE_OUTER_BOUND('',#60,.T.);
#43=FACE_OUTER_BOUND('',#61,.T.);
#44=FACE_OUTER_BOUND('',#62,.T.);
#45=FACE_OUTER_BOUND('',#63,.T.);
#46=FACE_OUTER_BOUND('',#64,.T.);
#47=FACE_OUTER_BOUND('',#65,.T.);
#48=FACE_OUTER_BOUND('',#66,.T.);
#49=FACE_OUTER_BOUND('',#67,.T.);
#50=FACE_OUTER_BOUND('',#68,.T.);
#51=EDGE_LOOP('',(#165,#166,#167,#168));
#52=EDGE_LOOP('',(#169,#170,#171,#172));
#53=EDGE_LOOP('',(#173,#174,#175,#176));
#54=EDGE_LOOP('',(#177,#178,#179,#180));
#55=EDGE_LOOP('',(#181,#182,#183,#184));
#56=EDGE_LOOP('',(#185,#186,#187,#188));
#57=EDGE_LOOP('',(#189,#190,#191,#192,#193,#194));
#58=EDGE_LOOP('',(#195,#196,#197));
#59=EDGE_LOOP('',(#198));
#60=EDGE_LOOP('',(#199,#200,#201));
#61=EDGE_LOOP('',(#202,#203,#204,#205,#206,#207));
#62=EDGE_LOOP('',(#208));
#63=EDGE_LOOP('',(#209,#210,#211,#212,#213,#214));
#64=EDGE_LOOP('',(#215,#216,#217));
#65=EDGE_LOOP('',(#218));
#66=EDGE_LOOP('',(#219,#220,#221));
#67=EDGE_LOOP('',(#222,#223,#224,#225,#226,#227));
#68=EDGE_LOOP('',(#228));
#69=CIRCLE('',#270,3.5);
#70=CIRCLE('',#271,3.5);
#71=CIRCLE('',#273,3.5);
#72=CIRCLE('',#275,3.5);
#73=CIRCLE('',#280,0.3);
#74=CIRCLE('',#281,0.3);
#75=CIRCLE('',#283,0.3);
#76=CIRCLE('',#287,0.3);
#77=CIRCLE('',#288,0.3);
#78=CIRCLE('',#290,0.3);
#79=CIRCLE('',#293,0.3);
#80=CIRCLE('',#294,0.3);
#81=CIRCLE('',#296,0.3);
#82=CIRCLE('',#300,0.3);
#83=CIRCLE('',#301,0.3);
#84=CIRCLE('',#303,0.3);
#85=LINE('',#397,#99);
#86=LINE('',#401,#100);
#87=LINE('',#405,#101);
#88=LINE('',#408,#102);
#89=LINE('',#411,#103);
#90=LINE('',#413,#104);
#91=LINE('',#416,#105);
#92=LINE('',#417,#106);
#93=LINE('',#424,#107);
#94=LINE('',#431,#108);
#95=LINE('',#440,#109);
#96=LINE('',#446,#110);
#97=LINE('',#453,#111);
#98=LINE('',#462,#112);
#99=VECTOR('',#309,10.);
#100=VECTOR('',#312,10.);
#101=VECTOR('',#317,10.);
#102=VECTOR('',#320,10.);
#103=VECTOR('',#323,10.);
#104=VECTOR('',#324,10.);
#105=VECTOR('',#329,10.);
#106=VECTOR('',#330,10.);
#107=VECTOR('',#339,0.3);
#108=VECTOR('',#348,10.);
#109=VECTOR('',#361,0.3);
#110=VECTOR('',#368,0.3);
#111=VECTOR('',#377,10.);
#112=VECTOR('',#390,0.3);
#113=VERTEX_POINT('',#395);
#114=VERTEX_POINT('',#396);
#115=VERTEX_POINT('',#398);
#116=VERTEX_POINT('',#400);
#117=VERTEX_POINT('',#404);
#118=VERTEX_POINT('',#406);
#119=VERTEX_POINT('',#410);
#120=VERTEX_POINT('',#412);
#121=VERTEX_POINT('',#421);
#122=VERTEX_POINT('',#423);
#123=VERTEX_POINT('',#425);
#124=VERTEX_POINT('',#427);
#125=VERTEX_POINT('',#434);
#126=VERTEX_POINT('',#438);
#127=VERTEX_POINT('',#443);
#128=VERTEX_POINT('',#445);
#129=VERTEX_POINT('',#447);
#130=VERTEX_POINT('',#449);
#131=VERTEX_POINT('',#456);
#132=VERTEX_POINT('',#460);
#133=EDGE_CURVE('',#113,#114,#85,.T.);
#134=EDGE_CURVE('',#115,#113,#69,.T.);
#135=EDGE_CURVE('',#116,#115,#86,.T.);
#136=EDGE_CURVE('',#114,#116,#70,.T.);
#137=EDGE_CURVE('',#117,#116,#87,.T.);
#138=EDGE_CURVE('',#117,#118,#71,.T.);
#139=EDGE_CURVE('',#114,#118,#88,.T.);
#140=EDGE_CURVE('',#118,#119,#89,.T.);
#141=EDGE_CURVE('',#120,#117,#90,.T.);
#142=EDGE_CURVE('',#119,#120,#72,.T.);
#143=EDGE_CURVE('',#119,#113,#91,.T.);
#144=EDGE_CURVE('',#115,#120,#92,.T.);
#145=EDGE_CURVE('',#121,#121,#73,.T.);
#146=EDGE_CURVE('',#121,#122,#93,.T.);
#147=EDGE_CURVE('',#123,#122,#74,.T.);
#148=EDGE_CURVE('',#124,#123,#13,.T.);
#149=EDGE_CURVE('',#122,#124,#75,.T.);
#150=EDGE_CURVE('',#123,#124,#94,.T.);
#151=EDGE_CURVE('',#124,#125,#76,.T.);
#152=EDGE_CURVE('',#125,#123,#77,.T.);
#153=EDGE_CURVE('',#126,#126,#78,.T.);
#154=EDGE_CURVE('',#126,#125,#95,.T.);
#155=EDGE_CURVE('',#127,#127,#79,.T.);
#156=EDGE_CURVE('',#127,#128,#96,.T.);
#157=EDGE_CURVE('',#129,#128,#80,.T.);
#158=EDGE_CURVE('',#130,#129,#14,.T.);
#159=EDGE_CURVE('',#128,#130,#81,.T.);
#160=EDGE_CURVE('',#129,#130,#97,.T.);
#161=EDGE_CURVE('',#130,#131,#82,.T.);
#162=EDGE_CURVE('',#131,#129,#83,.T.);
#163=EDGE_CURVE('',#132,#132,#84,.T.);
#164=EDGE_CURVE('',#132,#131,#98,.T.);
#165=ORIENTED_EDGE('',*,*,#133,.F.);
#166=ORIENTED_EDGE('',*,*,#134,.F.);
#167=ORIENTED_EDGE('',*,*,#135,.F.);
#168=ORIENTED_EDGE('',*,*,#136,.F.);
#169=ORIENTED_EDGE('',*,*,#137,.F.);
#170=ORIENTED_EDGE('',*,*,#138,.T.);
#171=ORIENTED_EDGE('',*,*,#139,.F.);
#172=ORIENTED_EDGE('',*,*,#136,.T.);
#173=ORIENTED_EDGE('',*,*,#140,.F.);
#174=ORIENTED_EDGE('',*,*,#138,.F.);
#175=ORIENTED_EDGE('',*,*,#141,.F.);
#176=ORIENTED_EDGE('',*,*,#142,.F.);
#177=ORIENTED_EDGE('',*,*,#143,.F.);
#178=ORIENTED_EDGE('',*,*,#142,.T.);
#179=ORIENTED_EDGE('',*,*,#144,.F.);
#180=ORIENTED_EDGE('',*,*,#134,.T.);
#181=ORIENTED_EDGE('',*,*,#139,.T.);
#182=ORIENTED_EDGE('',*,*,#140,.T.);
#183=ORIENTED_EDGE('',*,*,#143,.T.);
#184=ORIENTED_EDGE('',*,*,#133,.T.);
#185=ORIENTED_EDGE('',*,*,#137,.T.);
#186=ORIENTED_EDGE('',*,*,#135,.T.);
#187=ORIENTED_EDGE('',*,*,#144,.T.);
#188=ORIENTED_EDGE('',*,*,#141,.T.);
#189=ORIENTED_EDGE('',*,*,#145,.F.);
#190=ORIENTED_EDGE('',*,*,#146,.T.);
#191=ORIENTED_EDGE('',*,*,#147,.F.);
#192=ORIENTED_EDGE('',*,*,#148,.F.);
#193=ORIENTED_EDGE('',*,*,#149,.F.);
#194=ORIENTED_EDGE('',*,*,#146,.F.);
#195=ORIENTED_EDGE('',*,*,#150,.F.);
#196=ORIENTED_EDGE('',*,*,#147,.T.);
#197=ORIENTED_EDGE('',*,*,#149,.T.);
#198=ORIENTED_EDGE('',*,*,#145,.T.);
#199=ORIENTED_EDGE('',*,*,#150,.T.);
#200=ORIENTED_EDGE('',*,*,#151,.T.);
#201=ORIENTED_EDGE('',*,*,#152,.T.);
#202=ORIENTED_EDGE('',*,*,#153,.F.);
#203=ORIENTED_EDGE('',*,*,#154,.T.);
#204=ORIENTED_EDGE('',*,*,#151,.F.);
#205=ORIENTED_EDGE('',*,*,#148,.T.);
#206=ORIENTED_EDGE('',*,*,#152,.F.);
#207=ORIENTED_EDGE('',*,*,#154,.F.);
#208=ORIENTED_EDGE('',*,*,#153,.T.);
#209=ORIENTED_EDGE('',*,*,#155,.F.);
#210=ORIENTED_EDGE('',*,*,#156,.T.);
#211=ORIENTED_EDGE('',*,*,#157,.F.);
#212=ORIENTED_EDGE('',*,*,#158,.F.);
#213=ORIENTED_EDGE('',*,*,#159,.F.);
#214=ORIENTED_EDGE('',*,*,#156,.F.);
#215=ORIENTED_EDGE('',*,*,#160,.F.);
#216=ORIENTED_EDGE('',*,*,#157,.T.);
#217=ORIENTED_EDGE('',*,*,#159,.T.);
#218=ORIENTED_EDGE('',*,*,#155,.T.);
#219=ORIENTED_EDGE('',*,*,#160,.T.);
#220=ORIENTED_EDGE('',*,*,#161,.T.);
#221=ORIENTED_EDGE('',*,*,#162,.T.);
#222=ORIENTED_EDGE('',*,*,#163,.F.);
#223=ORIENTED_EDGE('',*,*,#164,.T.);
#224=ORIENTED_EDGE('',*,*,#161,.F.);
#225=ORIENTED_EDGE('',*,*,#158,.T.);
#226=ORIENTED_EDGE('',*,*,#162,.F.);
#227=ORIENTED_EDGE('',*,*,#164,.F.);
#228=ORIENTED_EDGE('',*,*,#163,.T.);
#229=CYLINDRICAL_SURFACE('',#269,3.5);
#230=CYLINDRICAL_SURFACE('',#274,3.5);
#231=CYLINDRICAL_SURFACE('',#279,0.3);
#232=CYLINDRICAL_SURFACE('',#289,0.3);
#233=CYLINDRICAL_SURFACE('',#292,0.3);
#234=CYLINDRICAL_SURFACE('',#302,0.3);
#235=ADVANCED_FACE('',(#33),#229,.T.);
#236=ADVANCED_FACE('',(#34),#21,.F.);
#237=ADVANCED_FACE('',(#35),#230,.T.);
#238=ADVANCED_FACE('',(#36),#22,.F.);
#239=ADVANCED_FACE('',(#37),#23,.T.);
#240=ADVANCED_FACE('',(#38),#24,.F.);
#241=ADVANCED_FACE('',(#39),#231,.T.);
#242=ADVANCED_FACE('',(#40),#25,.T.);
#243=ADVANCED_FACE('',(#41),#26,.T.);
#244=ADVANCED_FACE('',(#42),#27,.T.);
#245=ADVANCED_FACE('',(#43),#232,.T.);
#246=ADVANCED_FACE('',(#44),#28,.T.);
#247=ADVANCED_FACE('',(#45),#233,.T.);
#248=ADVANCED_FACE('',(#46),#29,.T.);
#249=ADVANCED_FACE('',(#47),#30,.T.);
#250=ADVANCED_FACE('',(#48),#31,.T.);
#251=ADVANCED_FACE('',(#49),#234,.T.);
#252=ADVANCED_FACE('',(#50),#32,.T.);
#253=CLOSED_SHELL('',(#235,#236,#237,#238,#239,#240));
#254=CLOSED_SHELL('',(#241,#242,#243,#244,#245,#246));
#255=CLOSED_SHELL('',(#247,#248,#249,#250,#251,#252));
#256=DERIVED_UNIT_ELEMENT(#258,1.);
#257=DERIVED_UNIT_ELEMENT(#469,-3.);
#258=(
MASS_UNIT()
NAMED_UNIT(*)
SI_UNIT(.KILO.,.GRAM.)
);
#259=DERIVED_UNIT((#256,#257));
#260=MEASURE_REPRESENTATION_ITEM('density measure',
POSITIVE_RATIO_MEASURE(7850.),#259);
#261=PROPERTY_DEFINITION_REPRESENTATION(#266,#263);
#262=PROPERTY_DEFINITION_REPRESENTATION(#267,#264);
#263=REPRESENTATION('material name',(#265),#466);
#264=REPRESENTATION('density',(#260),#466);
#265=DESCRIPTIVE_REPRESENTATION_ITEM('Steel','Steel');
#266=PROPERTY_DEFINITION('material property','material name',#476);
#267=PROPERTY_DEFINITION('material property','density of part',#476);
#268=AXIS2_PLACEMENT_3D('',#393,#305,#306);
#269=AXIS2_PLACEMENT_3D('',#394,#307,#308);
#270=AXIS2_PLACEMENT_3D('',#399,#310,#311);
#271=AXIS2_PLACEMENT_3D('',#402,#313,#314);
#272=AXIS2_PLACEMENT_3D('',#403,#315,#316);
#273=AXIS2_PLACEMENT_3D('',#407,#318,#319);
#274=AXIS2_PLACEMENT_3D('',#409,#321,#322);
#275=AXIS2_PLACEMENT_3D('',#414,#325,#326);
#276=AXIS2_PLACEMENT_3D('',#415,#327,#328);
#277=AXIS2_PLACEMENT_3D('',#418,#331,#332);
#278=AXIS2_PLACEMENT_3D('',#419,#333,#334);
#279=AXIS2_PLACEMENT_3D('',#420,#335,#336);
#280=AXIS2_PLACEMENT_3D('',#422,#337,#338);
#281=AXIS2_PLACEMENT_3D('',#426,#340,#341);
#282=AXIS2_PLACEMENT_3D('',#428,#342,#343);
#283=AXIS2_PLACEMENT_3D('',#429,#344,#345);
#284=AXIS2_PLACEMENT_3D('',#430,#346,#347);
#285=AXIS2_PLACEMENT_3D('',#432,#349,#350);
#286=AXIS2_PLACEMENT_3D('',#433,#351,#352);
#287=AXIS2_PLACEMENT_3D('',#435,#353,#354);
#288=AXIS2_PLACEMENT_3D('',#436,#355,#356);
#289=AXIS2_PLACEMENT_3D('',#437,#357,#358);
#290=AXIS2_PLACEMENT_3D('',#439,#359,#360);
#291=AXIS2_PLACEMENT_3D('',#441,#362,#363);
#292=AXIS2_PLACEMENT_3D('',#442,#364,#365);
#293=AXIS2_PLACEMENT_3D('',#444,#366,#367);
#294=AXIS2_PLACEMENT_3D('',#448,#369,#370);
#295=AXIS2_PLACEMENT_3D('',#450,#371,#372);
#296=AXIS2_PLACEMENT_3D('',#451,#373,#374);
#297=AXIS2_PLACEMENT_3D('',#452,#375,#376);
#298=AXIS2_PLACEMENT_3D('',#454,#378,#379);
#299=AXIS2_PLACEMENT_3D('',#455,#380,#381);
#300=AXIS2_PLACEMENT_3D('',#457,#382,#383);
#301=AXIS2_PLACEMENT_3D('',#458,#384,#385);
#302=AXIS2_PLACEMENT_3D('',#459,#386,#387);
#303=AXIS2_PLACEMENT_3D('',#461,#388,#389);
#304=AXIS2_PLACEMENT_3D('',#463,#391,#392);
#305=DIRECTION('axis',(0.,0.,1.));
#306=DIRECTION('refdir',(1.,0.,0.));
#307=DIRECTION('center_axis',(1.,0.,0.));
#308=DIRECTION('ref_axis',(0.,0.,-1.));
#309=DIRECTION('',(1.,0.,0.));
#310=DIRECTION('center_axis',(-1.,0.,0.));
#311=DIRECTION('ref_axis',(0.,0.,-1.));
#312=DIRECTION('',(-1.,0.,0.));
#313=DIRECTION('center_axis',(1.,0.,0.));
#314=DIRECTION('ref_axis',(0.,0.,-1.));
#315=DIRECTION('center_axis',(-1.,0.,0.));
#316=DIRECTION('ref_axis',(0.,0.,1.));
#317=DIRECTION('',(0.,-1.,0.));
#318=DIRECTION('center_axis',(1.,0.,0.));
#319=DIRECTION('ref_axis',(0.,0.,-1.));
#320=DIRECTION('',(0.,1.,0.));
#321=DIRECTION('center_axis',(1.,0.,0.));
#322=DIRECTION('ref_axis',(0.,0.,-1.));
#323=DIRECTION('',(-1.,0.,0.));
#324=DIRECTION('',(1.,0.,0.));
#325=DIRECTION('center_axis',(-1.,0.,0.));
#326=DIRECTION('ref_axis',(0.,0.,-1.));
#327=DIRECTION('center_axis',(1.,0.,0.));
#328=DIRECTION('ref_axis',(0.,0.,-1.));
#329=DIRECTION('',(0.,-1.,0.));
#330=DIRECTION('',(0.,1.,0.));
#331=DIRECTION('center_axis',(0.,0.,1.));
#332=DIRECTION('ref_axis',(1.,0.,0.));
#333=DIRECTION('center_axis',(0.,0.,1.));
#334=DIRECTION('ref_axis',(1.,0.,0.));
#335=DIRECTION('center_axis',(0.,0.,-1.));
#336=DIRECTION('ref_axis',(1.,0.,0.));
#337=DIRECTION('center_axis',(0.,0.,-1.));
#338=DIRECTION('ref_axis',(1.,0.,0.));
#339=DIRECTION('',(0.,0.,1.));
#340=DIRECTION('center_axis',(0.,0.,1.));
#341=DIRECTION('ref_axis',(1.,0.,0.));
#342=DIRECTION('center_axis',(0.707106781186548,0.,0.707106781186547));
#343=DIRECTION('ref_axis',(0.707106781186547,0.,-0.707106781186548));
#344=DIRECTION('center_axis',(0.,0.,1.));
#345=DIRECTION('ref_axis',(1.,0.,0.));
#346=DIRECTION('center_axis',(0.,0.,1.));
#347=DIRECTION('ref_axis',(-1.,0.,0.));
#348=DIRECTION('',(0.,-1.,0.));
#349=DIRECTION('center_axis',(0.,0.,-1.));
#350=DIRECTION('ref_axis',(1.,0.,0.));
#351=DIRECTION('center_axis',(-1.,0.,0.));
#352=DIRECTION('ref_axis',(0.,0.,1.));
#353=DIRECTION('center_axis',(-1.,0.,0.));
#354=DIRECTION('ref_axis',(0.,0.,-1.));
#355=DIRECTION('center_axis',(-1.,0.,0.));
#356=DIRECTION('ref_axis',(0.,0.,-1.));
#357=DIRECTION('center_axis',(1.,0.,0.));
#358=DIRECTION('ref_axis',(0.,0.,-1.));
#359=DIRECTION('center_axis',(1.,0.,0.));
#360=DIRECTION('ref_axis',(0.,0.,-1.));
#361=DIRECTION('',(-1.,0.,0.));
#362=DIRECTION('center_axis',(1.,0.,0.));
#363=DIRECTION('ref_axis',(0.,0.,-1.));
#364=DIRECTION('center_axis',(0.,0.,-1.));
#365=DIRECTION('ref_axis',(1.,0.,0.));
#366=DIRECTION('center_axis',(0.,0.,-1.));
#367=DIRECTION('ref_axis',(1.,0.,0.));
#368=DIRECTION('',(0.,0.,1.));
#369=DIRECTION('center_axis',(0.,0.,1.));
#370=DIRECTION('ref_axis',(1.,0.,0.));
#371=DIRECTION('center_axis',(0.707106781186548,0.,0.707106781186547));
#372=DIRECTION('ref_axis',(0.707106781186547,0.,-0.707106781186548));
#373=DIRECTION('center_axis',(0.,0.,1.));
#374=DIRECTION('ref_axis',(1.,0.,0.));
#375=DIRECTION('center_axis',(0.,0.,1.));
#376=DIRECTION('ref_axis',(-1.,0.,0.));
#377=DIRECTION('',(0.,-1.,0.));
#378=DIRECTION('center_axis',(0.,0.,-1.));
#379=DIRECTION('ref_axis',(1.,0.,0.));
#380=DIRECTION('center_axis',(-1.,0.,0.));
#381=DIRECTION('ref_axis',(0.,0.,1.));
#382=DIRECTION('center_axis',(-1.,0.,0.));
#383=DIRECTION('ref_axis',(0.,0.,-1.));
#384=DIRECTION('center_axis',(-1.,0.,0.));
#385=DIRECTION('ref_axis',(0.,0.,-1.));
#386=DIRECTION('center_axis',(1.,0.,0.));
#387=DIRECTION('ref_axis',(0.,0.,-1.));
#388=DIRECTION('center_axis',(1.,0.,0.));
#389=DIRECTION('ref_axis',(0.,0.,-1.));
#390=DIRECTION('',(-1.,0.,0.));
#391=DIRECTION('center_axis',(1.,0.,0.));
#392=DIRECTION('ref_axis',(0.,0.,-1.));
#393=CARTESIAN_POINT('',(0.,0.,0.));
#394=CARTESIAN_POINT('Origin',(16.75,-3.,3.5));
#395=CARTESIAN_POINT('',(2.5,-3.,7.));
#396=CARTESIAN_POINT('',(31.,-3.,7.));
#397=CARTESIAN_POINT('',(16.75,-3.,7.));
#398=CARTESIAN_POINT('',(2.5,-3.,0.));
#399=CARTESIAN_POINT('Origin',(2.5,-3.,3.5));
#400=CARTESIAN_POINT('',(31.,-3.,0.));
#401=CARTESIAN_POINT('',(16.75,-3.,0.));
#402=CARTESIAN_POINT('Origin',(31.,-3.,3.5));
#403=CARTESIAN_POINT('Origin',(31.,0.,3.5));
#404=CARTESIAN_POINT('',(31.,3.,0.));
#405=CARTESIAN_POINT('',(31.,0.,0.));
#406=CARTESIAN_POINT('',(31.,3.,7.));
#407=CARTESIAN_POINT('Origin',(31.,3.,3.5));
#408=CARTESIAN_POINT('',(31.,0.,7.));
#409=CARTESIAN_POINT('Origin',(16.75,3.,3.5));
#410=CARTESIAN_POINT('',(2.5,3.,7.));
#411=CARTESIAN_POINT('',(16.75,3.,7.));
#412=CARTESIAN_POINT('',(2.5,3.,0.));
#413=CARTESIAN_POINT('',(16.75,3.,0.));
#414=CARTESIAN_POINT('Origin',(2.5,3.,3.5));
#415=CARTESIAN_POINT('Origin',(2.5,0.,3.5));
#416=CARTESIAN_POINT('',(2.5,0.,7.));
#417=CARTESIAN_POINT('',(2.5,0.,0.));
#418=CARTESIAN_POINT('Origin',(16.75,0.,7.));
#419=CARTESIAN_POINT('Origin',(16.75,0.,0.));
#420=CARTESIAN_POINT('Origin',(0.,5.,0.95));
#421=CARTESIAN_POINT('',(-0.3,5.,-1.6));
#422=CARTESIAN_POINT('Origin',(0.,5.,-1.6));
#423=CARTESIAN_POINT('',(-0.3,5.,3.5));
#424=CARTESIAN_POINT('',(-0.3,5.,0.95));
#425=CARTESIAN_POINT('',(0.,5.3,3.5));
#426=CARTESIAN_POINT('Origin',(0.,5.,3.5));
#427=CARTESIAN_POINT('',(0.,4.7,3.5));
#428=CARTESIAN_POINT('Origin',(0.,5.,3.5));
#429=CARTESIAN_POINT('Origin',(0.,5.,3.5));
#430=CARTESIAN_POINT('Origin',(0.,5.,3.5));
#431=CARTESIAN_POINT('',(0.,5.,3.5));
#432=CARTESIAN_POINT('Origin',(0.,5.,-1.6));
#433=CARTESIAN_POINT('Origin',(0.,5.,3.5));
#434=CARTESIAN_POINT('',(0.,5.,3.8));
#435=CARTESIAN_POINT('Origin',(0.,5.,3.5));
#436=CARTESIAN_POINT('Origin',(0.,5.,3.5));
#437=CARTESIAN_POINT('Origin',(1.25,5.,3.5));
#438=CARTESIAN_POINT('',(2.5,5.,3.8));
#439=CARTESIAN_POINT('Origin',(2.5,5.,3.5));
#440=CARTESIAN_POINT('',(1.25,5.,3.8));
#441=CARTESIAN_POINT('Origin',(2.5,5.,3.5));
#442=CARTESIAN_POINT('Origin',(0.,-5.,0.95));
#443=CARTESIAN_POINT('',(-0.3,-5.,-1.6));
#444=CARTESIAN_POINT('Origin',(0.,-5.,-1.6));
#445=CARTESIAN_POINT('',(-0.3,-5.,3.5));
#446=CARTESIAN_POINT('',(-0.3,-5.,0.95));
#447=CARTESIAN_POINT('',(0.,-4.7,3.5));
#448=CARTESIAN_POINT('Origin',(0.,-5.,3.5));
#449=CARTESIAN_POINT('',(0.,-5.3,3.5));
#450=CARTESIAN_POINT('Origin',(0.,-5.,3.5));
#451=CARTESIAN_POINT('Origin',(0.,-5.,3.5));
#452=CARTESIAN_POINT('Origin',(0.,-5.,3.5));
#453=CARTESIAN_POINT('',(0.,-5.,3.5));
#454=CARTESIAN_POINT('Origin',(0.,-5.,-1.6));
#455=CARTESIAN_POINT('Origin',(0.,-5.,3.5));
#456=CARTESIAN_POINT('',(0.,-5.,3.8));
#457=CARTESIAN_POINT('Origin',(0.,-5.,3.5));
#458=CARTESIAN_POINT('Origin',(0.,-5.,3.5));
#459=CARTESIAN_POINT('Origin',(1.25,-5.,3.5));
#460=CARTESIAN_POINT('',(2.5,-5.,3.8));
#461=CARTESIAN_POINT('Origin',(2.5,-5.,3.5));
#462=CARTESIAN_POINT('',(1.25,-5.,3.8));
#463=CARTESIAN_POINT('Origin',(2.5,-5.,3.5));
#464=UNCERTAINTY_MEASURE_WITH_UNIT(LENGTH_MEASURE(0.01),#468,
'DISTANCE_ACCURACY_VALUE',
'Maximum model space distance between geometric entities at asserted c
onnectivities');
#465=UNCERTAINTY_MEASURE_WITH_UNIT(LENGTH_MEASURE(0.01),#468,
'DISTANCE_ACCURACY_VALUE',
'Maximum model space distance between geometric entities at asserted c
onnectivities');
#466=(
GEOMETRIC_REPRESENTATION_CONTEXT(3)
GLOBAL_UNCERTAINTY_ASSIGNED_CONTEXT((#464))
GLOBAL_UNIT_ASSIGNED_CONTEXT((#468,#470,#471))
REPRESENTATION_CONTEXT('','3D')
);
#467=(
GEOMETRIC_REPRESENTATION_CONTEXT(3)
GLOBAL_UNCERTAINTY_ASSIGNED_CONTEXT((#465))
GLOBAL_UNIT_ASSIGNED_CONTEXT((#468,#470,#471))
REPRESENTATION_CONTEXT('','3D')
);
#468=(
LENGTH_UNIT()
NAMED_UNIT(*)
SI_UNIT(.MILLI.,.METRE.)
);
#469=(
LENGTH_UNIT()
NAMED_UNIT(*)
SI_UNIT($,.METRE.)
);
#470=(
NAMED_UNIT(*)
PLANE_ANGLE_UNIT()
SI_UNIT($,.RADIAN.)
);
#471=(
NAMED_UNIT(*)
SI_UNIT($,.STERADIAN.)
SOLID_ANGLE_UNIT()
);
#472=SHAPE_DEFINITION_REPRESENTATION(#473,#474);
#473=PRODUCT_DEFINITION_SHAPE('',$,#476);
#474=SHAPE_REPRESENTATION('',(#268),#466);
#475=PRODUCT_DEFINITION_CONTEXT('part definition',#480,'design');
#476=PRODUCT_DEFINITION('2026-08-26-15-44-46-288','(Unsaved)',#477,#475);
#477=PRODUCT_DEFINITION_FORMATION('',$,#482);
#478=PRODUCT_RELATED_PRODUCT_CATEGORY('(Unsaved)','(Unsaved)',(#482));
#479=APPLICATION_PROTOCOL_DEFINITION('international standard',
'automotive_design',2009,#480);
#480=APPLICATION_CONTEXT(
'Core Data for Automotive Mechanical Design Process');
#481=PRODUCT_CONTEXT('part definition',#480,'mechanical');
#482=PRODUCT('2026-08-26-15-44-46-288','(Unsaved)',$,(#481));
#483=PRESENTATION_STYLE_ASSIGNMENT((#486));
#484=PRESENTATION_STYLE_ASSIGNMENT((#487));
#485=PRESENTATION_STYLE_ASSIGNMENT((#488));
#486=SURFACE_STYLE_USAGE(.BOTH.,#489);
#487=SURFACE_STYLE_USAGE(.BOTH.,#490);
#488=SURFACE_STYLE_USAGE(.BOTH.,#491);
#489=SURFACE_SIDE_STYLE('',(#492));
#490=SURFACE_SIDE_STYLE('',(#493));
#491=SURFACE_SIDE_STYLE('',(#494));
#492=SURFACE_STYLE_FILL_AREA(#495);
#493=SURFACE_STYLE_FILL_AREA(#496);
#494=SURFACE_STYLE_FILL_AREA(#497);
#495=FILL_AREA_STYLE('Steel - Satin',(#498));
#496=FILL_AREA_STYLE('CapSleeveBlue',(#499));
#497=FILL_AREA_STYLE('LeadSteel',(#500));
#498=FILL_AREA_STYLE_COLOUR('Steel - Satin',#501);
#499=FILL_AREA_STYLE_COLOUR('CapSleeveBlue',#502);
#500=FILL_AREA_STYLE_COLOUR('LeadSteel',#503);
#501=COLOUR_RGB('Steel - Satin',0.627450980392157,0.627450980392157,0.627450980392157);
#502=COLOUR_RGB('CapSleeveBlue',0.188235294117647,0.231372549019608,0.588235294117647);
#503=COLOUR_RGB('LeadSteel',0.627450980392157,0.627450980392157,0.627450980392157);
ENDSEC;
END-ISO-10303-21;
