<svg viewBox="0 0 900 566" xmlns="http://www.w3.org/2000/svg" role="img" aria-label="The LC86G on the same 3 g flight in Normal and Balloon mode. Balloon mode reports the climb rate and altitude of the boost; Normal mode reports a climb rate near zero for the first eighteen seconds, stops all output at 500 metres per second, and never publishes a valid fix again.">
<style>.ax{stroke:var(--rule-strong,#C3CAD5);stroke-width:1}.gl{stroke:var(--rule,#DDE2E9);stroke-width:1}.lbl{font-family:var(--f-mono,monospace);font-size:9px;fill:var(--ink-3,#79808F);paint-order:stroke;stroke:var(--surface,#FFFFFF);stroke-width:3px}.ttl{font-family:var(--f-display,sans-serif);font-size:11px;font-weight:600;fill:var(--ink-2,#4A5261)}.note{font-family:var(--f-mono,monospace);font-size:9.5px;fill:var(--ink-2,#4A5261);paint-order:stroke;stroke:var(--surface,#FFFFFF);stroke-width:3px}.tr{fill:none;stroke-width:1.8;stroke-linejoin:round}</style>
<text class="ttl" x="62" y="20">climb rate through the 3 g boost (m/s)</text>
<line class="gl" x1="62" y1="180.0" x2="882" y2="180.0"/>
<text class="lbl" x="56" y="183.0" text-anchor="end">0</text>
<line class="gl" x1="62" y1="110.6" x2="882" y2="110.6"/>
<text class="lbl" x="56" y="113.6" text-anchor="end">250</text>
<line class="gl" x1="62" y1="41.1" x2="882" y2="41.1"/>
<text class="lbl" x="56" y="44.1" text-anchor="end">500</text>
<line x1="62" y1="41.1" x2="882" y2="41.1" stroke="var(--ink-3,#79808F)" stroke-width="1" stroke-dasharray="3 3"/>
<text class="note" x="68" y="36.1">500 m/s: both modes stop ALL output</text>
<polyline class="tr" stroke="var(--ink-2, #4A5261)" stroke-width="1.2" points="62.0,180.0 64.2,180.0 66.3,180.0 68.5,180.0 70.6,180.0 72.8,180.0 74.9,180.0 77.1,180.0 79.3,180.0 81.4,180.0 83.6,180.0 85.7,180.0 87.9,180.0 90.1,180.0 92.2,180.0 94.4,180.0 96.5,180.0 98.7,180.0 100.8,180.0 103.0,180.0 105.2,180.0 107.3,180.0 109.5,180.0 111.6,180.0 113.8,180.0 115.9,180.0 118.1,180.0 120.3,180.0 122.4,180.0 124.6,180.0 126.7,180.0 128.9,180.0 131.1,180.0 133.2,180.0 135.4,180.0 137.5,180.0 139.7,180.0 141.8,180.0 144.0,180.0 146.2,180.0 148.3,180.0 150.5,179.5 152.6,178.9 154.8,178.4 156.9,177.8 159.1,177.3 161.3,176.7 163.4,176.2 165.6,175.6 167.7,175.1 169.9,174.6 172.1,174.0 174.2,173.5 176.4,172.9 178.5,172.4 180.7,171.8 182.8,171.3 185.0,170.8 187.2,170.2 189.3,169.7 191.5,169.1 193.6,168.6 195.8,168.0 197.9,167.5 200.1,167.0 202.3,166.4 204.4,165.9 206.6,165.3 208.7,164.8 210.9,164.3 213.1,163.7 215.2,163.2 217.4,162.6 219.5,162.1 221.7,161.6 223.8,161.0 226.0,160.5 228.2,160.0 230.3,159.4 232.5,158.9 234.6,158.3 236.8,157.8 238.9,157.3 241.1,156.7 243.3,156.2 245.4,155.7 247.6,155.1 249.7,154.6 251.9,154.1 254.1,153.5 256.2,153.0 258.4,152.5 260.5,152.0 262.7,151.4 264.8,150.9 267.0,150.4 269.2,149.8 271.3,149.3 273.5,148.8 275.6,148.3 277.8,147.7 279.9,147.2 282.1,146.7 284.3,146.2 286.4,145.6 288.6,145.1 290.7,144.6 292.9,144.1 295.1,143.6 297.2,143.0 299.4,142.5 301.5,142.0 303.7,141.5 305.8,141.0 308.0,140.4 310.2,139.9 312.3,139.4 314.5,138.9 316.6,138.4 318.8,137.9 320.9,137.4 323.1,136.9 325.3,136.3 327.4,135.8 329.6,135.3 331.7,134.8 333.9,134.3 336.1,133.8 338.2,133.3 340.4,132.8 342.5,132.3 344.7,131.8 346.8,131.3 349.0,130.8 351.2,130.3 353.3,129.8 355.5,129.3 357.6,128.8 359.8,128.3 361.9,127.8 364.1,127.3 366.3,126.8 368.4,126.3 370.6,125.8 372.7,125.3 374.9,124.8 377.1,124.3 379.2,123.8 381.4,123.4 383.5,122.9 385.7,122.4 387.8,121.9 390.0,121.4 392.2,120.9 394.3,120.4 396.5,120.0 398.6,119.5 400.8,119.0 402.9,118.5 405.1,118.0 407.3,117.6 409.4,117.1 411.6,116.6 413.7,116.1 415.9,115.6 418.1,115.2 420.2,114.7 422.4,114.2 424.5,113.8 426.7,113.3 428.8,112.8 431.0,112.3 433.2,111.9 435.3,111.4 437.5,110.9 439.6,110.5 441.8,110.0 443.9,109.5 446.1,109.1 448.3,108.6 450.4,108.2 452.6,107.7 454.7,107.2 456.9,106.8 459.1,106.3 461.2,105.9 463.4,105.4 465.5,105.0 467.7,104.5 469.8,104.0 472.0,103.6 474.2,103.1 476.3,102.7 478.5,102.2 480.6,101.8 482.8,101.3 484.9,100.9 487.1,100.4 489.3,100.0 491.4,99.6 493.6,99.1 495.7,98.7 497.9,98.2 500.1,97.8 502.2,97.3 504.4,96.9 506.5,96.5 508.7,96.0 510.8,95.6 513.0,95.1 515.2,94.7 517.3,94.3 519.5,93.8 521.6,93.4 523.8,93.0 525.9,92.5 528.1,92.1 530.3,91.7 532.4,91.2 534.6,90.8 536.7,90.4 538.9,89.9 541.1,89.5 543.2,89.1 545.4,88.7 547.5,88.2 549.7,87.8 551.8,87.4 554.0,87.0 556.2,86.5 558.3,86.1 560.5,85.7 562.6,85.3 564.8,84.8 566.9,84.4 569.1,84.0 571.3,83.6 573.4,83.2 575.6,82.7 577.7,82.3 579.9,81.9 582.1,81.5 584.2,81.1 586.4,80.7 588.5,80.3 590.7,79.8 592.8,79.4 595.0,79.0 597.2,78.6 599.3,78.2 601.5,77.8 603.6,77.4 605.8,77.0 607.9,76.5 610.1,76.1 612.3,75.7 614.4,75.3 616.6,74.9 618.7,74.5 620.9,74.1 623.1,73.7 625.2,73.3 627.4,72.9 629.5,72.5 631.7,72.1 633.8,71.7 636.0,71.3 638.2,70.9 640.3,70.5 642.5,70.1 644.6,69.7 646.8,69.3 648.9,68.9 651.1,68.5 653.3,68.1 655.4,67.7 657.6,67.3 659.7,66.9 661.9,66.5 664.1,66.1 666.2,65.7 668.4,65.3 670.5,64.9 672.7,64.5 674.8,64.1 677.0,63.7 679.2,63.3 681.3,62.9 683.5,62.5 685.6,62.1 687.8,61.7 689.9,61.3 692.1,60.9 694.3,60.5 696.4,60.1 698.6,59.7 700.7,59.4 702.9,59.0 705.1,58.6 707.2,58.2 709.4,57.8 711.5,57.4 713.7,57.0 715.8,56.6 718.0,56.2 720.2,55.8 722.3,55.4 724.5,55.0 726.6,54.7 728.8,54.3 730.9,53.9 733.1,53.5 735.3,53.1 737.4,52.7 739.6,52.3 741.7,51.9 743.9,51.5 746.1,51.1 748.2,50.8 750.4,50.4 752.5,50.0 754.7,49.6 756.8,49.2 759.0,48.8 761.2,48.4 763.3,48.0 765.5,47.6 767.6,47.3 769.8,46.9 771.9,46.5 774.1,46.1 776.3,45.7 778.4,45.3 780.6,44.9 782.7,44.5 784.9,44.1 787.1,43.8 789.2,43.4 791.4,43.0 793.5,42.6 795.7,42.2 797.8,41.8 800.0,41.4 802.2,41.0 804.3,40.6 806.5,40.2 808.6,39.9 810.8,39.5 812.9,39.1 815.1,38.7 817.3,38.3 819.4,37.9 821.6,37.5 823.7,37.1 825.9,36.7 828.1,36.4 830.2,36.0 832.4,35.6 834.5,35.2 836.7,34.8 838.8,34.4 841.0,34.0 843.2,33.6 845.3,33.2 847.5,32.8 849.6,32.4 851.8,32.0 853.9,31.6 856.1,31.3 858.3,30.9 860.4,30.5 862.6,30.1 864.7,30.0 866.9,30.0 869.1,30.0 871.2,30.0 873.4,30.0 875.5,30.0 877.7,30.0 879.8,30.0 882.0,30.0"><title>injected</title></polyline>
<polyline class="tr" stroke="var(--mode-normal, #eb6834)" points="62.0,180.0 64.2,180.0 66.3,180.0 68.5,180.0 70.6,180.0 72.8,180.0 74.9,180.0 77.1,180.0 79.3,180.0 81.4,180.0 83.6,180.0 85.7,180.0 87.9,180.0 90.1,180.0 92.2,180.0 94.4,180.0 96.5,180.0 98.7,180.0 100.8,180.0 103.0,180.0 105.2,180.0 107.3,180.0 109.5,180.0 111.6,180.0 113.8,180.0 115.9,180.0 118.1,180.0 120.3,180.0 122.4,180.0 124.6,180.0 126.7,180.0 128.9,180.0 131.1,180.0 133.2,180.0 135.4,180.0 137.5,180.0 139.7,180.0 141.8,180.0 144.0,180.0 146.2,180.0 148.3,180.0 150.5,179.5 152.6,179.0 154.8,178.6 156.9,178.7 159.1,178.8 161.3,178.9 163.4,178.9 165.6,178.9 167.7,178.9 169.9,178.9 172.1,178.9 174.2,178.8 176.4,178.8 178.5,178.8 180.7,178.8 182.8,178.8 185.0,178.8 187.2,178.8 189.3,178.8 191.5,178.8 193.6,178.8 195.8,178.8 197.9,178.8 200.1,178.8 202.3,178.8 204.4,178.8 206.6,178.8 208.7,178.8 210.9,178.8 213.1,178.8 215.2,178.8 217.4,178.8 219.5,178.8 221.7,178.8 223.8,178.8 226.0,178.8 228.2,178.8 230.3,178.8 232.5,178.8 234.6,178.8 236.8,178.8 238.9,178.8 241.1,178.8 243.3,178.8 245.4,178.8 247.6,178.8 249.7,178.8 251.9,178.8 254.1,178.8 256.2,178.8 258.4,178.8 260.5,178.8 262.7,178.8 264.8,178.8 267.0,178.8 269.2,178.8 271.3,178.8 273.5,178.8 275.6,178.8 277.8,178.8 279.9,178.8 282.1,178.8 284.3,178.8 286.4,178.8 288.6,178.8 290.7,178.8 292.9,178.8 295.1,178.8 297.2,179.7 299.4,179.4 301.5,179.3 303.7,179.1 305.8,178.9 308.0,178.7 310.2,178.4 312.3,178.3 314.5,178.1 316.6,178.0 318.8,179.5 320.9,179.7 323.1,179.7 325.3,179.7 327.4,179.7 329.6,179.7 331.7,179.7 333.9,179.6 336.1,179.7 338.2,179.7 340.4,179.7 342.5,179.7 344.7,179.7 346.8,179.7 349.0,179.7 351.2,179.7 353.3,179.7 355.5,179.7 357.6,179.6 359.8,179.6 361.9,179.6 364.1,179.6 366.3,179.6 368.4,179.6 370.6,179.6 372.7,179.6 374.9,179.6 377.1,179.6 379.2,179.5 381.4,179.5 383.5,179.5 385.7,179.5 387.8,179.5 390.0,179.5 392.2,179.5 394.3,179.5 396.5,179.4 398.6,179.4 400.8,179.4 402.9,179.4 405.1,179.4 407.3,179.4 409.4,179.4 411.6,179.4 413.7,179.3 415.9,179.3 418.1,179.3 420.2,179.3 422.4,179.3 424.5,179.3 426.7,179.3 428.8,179.2 431.0,179.2 433.2,179.2 435.3,179.2 437.5,179.2 439.6,179.2 441.8,179.2 443.9,179.1 446.1,179.1 448.3,179.1 450.4,179.1 452.6,179.1 454.7,179.0 456.9,179.0 459.1,179.0 461.2,179.0 463.4,179.0 465.5,178.9 467.7,178.9 469.8,178.9 472.0,178.9 474.2,178.9 476.3,178.8 478.5,178.8 480.6,178.8 482.8,178.8 484.9,178.8 487.1,178.8 489.3,178.7 491.4,178.7 493.6,178.7 495.7,178.6 497.9,178.6 500.1,178.6 502.2,178.6 504.4,178.6 506.5,178.6 508.7,178.5 510.8,178.5 513.0,178.5 515.2,178.4 517.3,178.4 519.5,178.4 521.6,178.4 523.8,178.4 525.9,178.3 528.1,178.3 530.3,178.3 532.4,178.2 534.6,178.2 536.7,178.2 538.9,178.2 541.1,178.1 543.2,178.1 545.4,178.1 547.5,178.1 549.7,178.0 551.8,175.8 554.0,174.6 556.2,173.4 558.3,172.0 560.5,170.4 562.6,168.6 564.8,166.6 566.9,164.4 569.1,163.6 571.3,162.9 573.4,162.1 575.6,161.4 577.7,160.6 579.9,159.9 582.1,159.1 584.2,158.4 586.4,157.7 588.5,157.0 590.7,156.3 592.8,155.6 595.0,155.0 597.2,154.3 599.3,153.7 601.5,153.1 603.6,152.5 605.8,151.9 607.9,151.3 610.1,150.7 612.3,150.2 614.4,149.6 616.6,149.1 618.7,148.6 620.9,148.1 623.1,147.6 625.2,147.2 627.4,146.8 629.5,146.3 631.7,145.9 633.8,145.4 636.0,144.9 638.2,144.4 640.3,149.3 642.5,150.8 644.6,152.8 646.8,152.6 648.9,152.8 651.1,152.7 653.3,152.4 655.4,152.0 657.6,151.4 659.7,150.6 661.9,149.6 664.1,148.3 666.2,146.5 668.4,143.8 670.5,140.9 672.7,137.6 674.8,134.2 677.0,130.2 679.2,126.5 681.3,122.7 683.5,118.9 685.6,115.1 687.8,111.2 689.9,110.6 692.1,110.0 694.3,109.3 696.4,108.6 698.6,107.8 700.7,107.0 702.9,106.3 705.1,105.4 707.2,104.6 709.4,103.8 711.5,102.9 713.7,102.3 715.8,101.7 718.0,101.0 720.2,100.3 722.3,99.6 724.5,98.9 726.6,98.2 728.8,97.4 730.9,96.7 733.1,75.6 735.3,73.0 737.4,71.7 739.6,70.8 741.7,70.0 743.9,69.1 746.1,68.3 748.2,67.4 750.4,66.6 752.5,65.8 754.7,65.0 756.8,64.2 759.0,63.2 761.2,62.1 763.3,59.1 765.5,58.1 767.6,56.4 769.8,55.3 771.9,54.3 774.1,49.7 776.3,46.1 778.4,45.1 780.6,44.7 782.7,44.4 784.9,44.0 787.1,43.6 789.2,43.2 791.4,42.8 793.5,42.4 795.7,42.0 797.8,41.6 800.0,41.2"><title>Normal (as shipped): reported climb rate</title></polyline>
<polyline class="tr" stroke="var(--mode-balloon, #2a78d6)" points="62.0,180.0 64.2,180.0 66.3,180.0 68.5,180.0 70.6,180.0 72.8,180.0 74.9,180.0 77.1,180.0 79.3,180.0 81.4,180.0 83.6,180.0 85.7,180.0 87.9,180.0 90.1,180.0 92.2,180.0 94.4,180.0 96.5,180.0 98.7,180.0 100.8,180.0 103.0,180.0 105.2,180.0 107.3,180.0 109.5,180.0 111.6,180.0 113.8,180.0 115.9,180.0 118.1,180.0 120.3,180.0 122.4,180.0 124.6,180.0 126.7,180.0 128.9,180.0 131.1,180.0 133.2,180.0 135.4,180.0 137.5,180.0 139.7,180.0 141.8,180.0 144.0,180.0 146.2,180.0 148.3,180.0 150.5,179.5 152.6,178.9 154.8,178.4 156.9,178.1 159.1,178.0 161.3,177.9 163.4,177.7 165.6,177.4 167.7,177.1 169.9,176.8 172.1,176.4 174.2,176.1 176.4,175.7 178.5,175.3 180.7,174.8 182.8,174.4 185.0,173.9 187.2,173.4 189.3,172.9 191.5,171.8 193.6,169.0 195.8,168.5 197.9,168.0 200.1,167.5 202.3,167.0 204.4,166.4 206.6,165.9 208.7,165.4 210.9,164.8 213.1,164.3 215.2,163.7 217.4,163.2 219.5,162.7 221.7,162.1 223.8,161.6 226.0,161.0 228.2,160.5 230.3,160.0 232.5,159.4 234.6,158.9 236.8,158.3 238.9,157.8 241.1,157.3 243.3,156.8 245.4,156.2 247.6,155.7 249.7,155.2 251.9,154.6 254.1,154.1 256.2,153.6 258.4,153.0 260.5,152.5 262.7,152.0 264.8,151.4 267.0,150.9 269.2,150.4 271.3,149.8 273.5,149.3 275.6,148.8 277.8,148.3 279.9,147.7 282.1,147.2 284.3,146.7 286.4,146.1 288.6,145.6 290.7,145.1 292.9,144.6 295.1,144.1 297.2,143.6 299.4,143.0 301.5,142.5 303.7,142.0 305.8,141.5 308.0,140.9 310.2,140.4 312.3,139.9 314.5,139.4 316.6,138.9 318.8,138.3 320.9,137.8 323.1,137.2 325.3,136.7 327.4,136.1 329.6,135.6 331.7,135.1 333.9,134.6 336.1,134.1 338.2,133.6 340.4,133.0 342.5,132.5 344.7,132.0 346.8,131.5 349.0,131.0 351.2,130.5 353.3,130.0 355.5,129.5 357.6,129.0 359.8,128.5 361.9,128.0 364.1,127.5 366.3,127.0 368.4,126.5 370.6,125.9 372.7,125.5 374.9,124.9 377.1,124.4 379.2,123.9 381.4,123.5 383.5,123.0 385.7,122.6 387.8,122.1 390.0,121.5 392.2,121.0 394.3,120.5 396.5,120.0 398.6,119.5 400.8,119.1 402.9,118.6 405.1,118.1 407.3,117.7 409.4,117.2 411.6,116.8 413.7,116.3 415.9,115.8 418.1,115.3 420.2,114.8 422.4,114.3 424.5,113.8 426.7,113.4 428.8,112.8 431.0,112.3 433.2,111.9 435.3,111.4 437.5,111.0 439.6,110.5 441.8,110.0 443.9,109.6 446.1,109.1 448.3,108.7 450.4,108.3 452.6,107.8 454.7,107.3 456.9,106.8 459.1,106.4 461.2,105.9 463.4,105.4 465.5,105.0 467.7,104.5 469.8,104.0 472.0,103.6 474.2,103.1 476.3,102.7 478.5,102.2 480.6,101.8 482.8,101.3 484.9,100.9 487.1,100.4 489.3,100.0 491.4,99.5 493.6,99.1 495.7,98.7 497.9,98.2 500.1,97.8 502.2,97.3 504.4,96.9 506.5,96.4 508.7,95.9 510.8,95.5 513.0,95.1 515.2,94.7 517.3,94.2 519.5,93.8 521.6,93.4 523.8,93.0 525.9,92.6 528.1,92.1 530.3,91.7 532.4,91.3 534.6,90.8 536.7,90.4 538.9,90.0 541.1,89.6 543.2,89.1 545.4,88.7 547.5,88.2 549.7,87.8 551.8,87.4 554.0,86.9 556.2,86.5 558.3,86.1 560.5,85.7 562.6,85.2 564.8,84.8 566.9,84.4 569.1,84.0 571.3,83.5 573.4,83.1 575.6,82.7 577.7,82.3 579.9,81.9 582.1,81.5 584.2,81.1 586.4,80.7 588.5,80.3 590.7,79.9 592.8,79.4 595.0,79.0 597.2,78.6 599.3,78.2 601.5,77.8 603.6,77.4 605.8,77.0 607.9,76.6 610.1,76.2 612.3,75.8 614.4,75.3 616.6,74.9 618.7,74.5 620.9,74.1 623.1,73.7 625.2,73.3 627.4,72.9 629.5,72.5 631.7,72.1 633.8,71.7 636.0,71.3 638.2,70.8 640.3,70.4 642.5,70.1 644.6,69.7 646.8,69.3 648.9,68.9 651.1,68.5 653.3,68.1 655.4,67.7 657.6,67.3 659.7,66.9 661.9,66.6 664.1,66.2 666.2,65.8 668.4,65.4 670.5,65.0 672.7,64.6 674.8,64.1 677.0,63.7 679.2,63.3 681.3,62.9 683.5,62.5 685.6,62.2 687.8,61.8 689.9,61.4 692.1,61.0 694.3,60.5 696.4,60.1 698.6,59.7 700.7,59.4 702.9,59.0 705.1,58.6 707.2,58.2 709.4,57.8 711.5,57.4 713.7,57.0 715.8,56.6 718.0,56.2 720.2,55.9 722.3,55.5 724.5,55.0 726.6,54.6 728.8,54.2 730.9,53.8 733.1,53.4 735.3,53.1 737.4,52.7 739.6,52.3 741.7,51.9 743.9,51.5 746.1,51.1 748.2,50.7 750.4,50.3 752.5,50.0 754.7,49.6 756.8,49.2 759.0,48.9 761.2,48.5 763.3,48.1 765.5,47.7 767.6,47.3 769.8,47.0 771.9,46.6 774.1,46.2 776.3,45.8 778.4,45.4 780.6,45.0 782.7,44.6 784.9,44.2 787.1,43.8 789.2,43.4 791.4,43.0 793.5,42.6 795.7,42.2 797.8,41.9 800.0,41.5"><title>Balloon: reported climb rate</title></polyline>
<text class="note" x="83.6" y="60.6">Normal (orange) reads near zero for 18 s</text>
<text class="note" x="83.6" y="73.6">while the vehicle climbs to 320 m/s</text>
<text class="lbl" x="148.3" y="193" text-anchor="middle">180s</text>
<text class="lbl" x="364.1" y="193" text-anchor="middle">190s</text>
<text class="lbl" x="579.9" y="193" text-anchor="middle">200s</text>
<text class="lbl" x="795.7" y="193" text-anchor="middle">210s</text>
<text class="ttl" x="62" y="216">altitude, the whole flight (km)</text>
<line class="gl" x1="62" y1="376.0" x2="882" y2="376.0"/>
<text class="lbl" x="56" y="379.0" text-anchor="end">0</text>
<line class="gl" x1="62" y1="309.3" x2="882" y2="309.3"/>
<text class="lbl" x="56" y="312.3" text-anchor="end">40</text>
<line class="gl" x1="62" y1="242.7" x2="882" y2="242.7"/>
<text class="lbl" x="56" y="245.7" text-anchor="end">80</text>
<line x1="62" y1="242.7" x2="882" y2="242.7" stroke="var(--ink-3,#79808F)" stroke-width="1" stroke-dasharray="3 3"/>
<text class="note" x="882" y="237.7" text-anchor="end">80 km: Balloon stops all output (its own altitude)</text>
<polyline class="tr" stroke="var(--ink-2, #4A5261)" stroke-width="1.2" points="62.0,374.0 62.6,374.0 63.2,374.0 63.8,374.0 64.3,374.0 64.9,374.0 65.5,374.0 66.1,374.0 66.7,374.0 67.3,374.0 67.9,374.0 68.5,374.0 69.0,374.0 69.6,374.0 70.2,374.0 70.8,374.0 71.4,374.0 72.0,374.0 72.6,374.0 73.2,374.0 73.7,374.0 74.3,374.0 74.9,374.0 75.5,374.0 76.1,374.0 76.7,374.0 77.3,374.0 77.9,374.0 78.4,374.0 79.0,374.0 79.6,374.0 80.2,374.0 80.8,374.0 81.4,374.0 82.0,374.0 82.6,374.0 83.1,374.0 83.7,374.0 84.3,374.0 84.9,374.0 85.5,374.0 86.1,374.0 86.7,374.0 87.3,374.0 87.8,374.0 88.4,374.0 89.0,374.0 89.6,374.0 90.2,374.0 90.8,374.0 91.4,374.0 92.0,374.0 92.5,374.0 93.1,374.0 93.7,374.0 94.3,374.0 94.9,374.0 95.5,374.0 96.1,374.0 96.7,374.0 97.2,374.0 97.8,374.0 98.4,374.0 99.0,374.0 99.6,373.9 100.2,373.9 100.8,373.8 101.4,373.8 101.9,373.7 102.5,373.7 103.1,373.6 103.7,373.5 104.3,373.4 104.9,373.3 105.5,373.2 106.1,373.1 106.6,373.0 107.2,372.8 107.8,372.7 108.4,372.5 109.0,372.4 109.6,372.2 110.2,372.0 110.8,371.9 111.3,371.7 111.9,371.5 112.5,371.3 113.1,371.1 113.7,370.9 114.3,370.7 114.9,370.4 115.5,370.2 116.0,370.0 116.6,369.7 117.2,369.5 117.8,369.2 118.4,368.9 119.0,368.7 119.6,368.4 120.2,368.1 120.7,367.8 121.3,367.5 121.9,367.2 122.5,366.9 123.1,366.6 123.7,366.2 124.3,365.9 124.9,365.6 125.4,365.2 126.0,364.9 126.6,364.5 127.2,364.2 127.8,363.8 128.4,363.5 129.0,363.1 129.6,362.7 130.1,362.3 130.7,361.9 131.3,361.5 131.9,361.1 132.5,360.7 133.1,360.3 133.7,359.9 134.2,359.4 134.8,359.0 135.4,358.6 136.0,358.1 136.6,357.7 137.2,357.2 137.8,356.7 138.4,356.3 138.9,355.8 139.5,355.3 140.1,354.8 140.7,354.3 141.3,353.8 141.9,353.3 142.5,352.8 143.1,352.3 143.6,351.8 144.2,351.2 144.8,350.7 145.4,350.1 146.0,349.6 146.6,349.0 147.2,348.5 147.8,347.9 148.3,347.3 148.9,346.7 149.5,346.1 150.1,345.5 150.7,344.9 151.3,344.3 151.9,343.7 152.5,343.1 153.0,342.4 153.6,341.8 154.2,341.1 154.8,340.5 155.4,339.8 156.0,339.2 156.6,338.5 157.2,337.8 157.7,337.1 158.3,336.4 158.9,335.7 159.5,335.0 160.1,334.3 160.7,333.5 161.3,332.8 161.9,332.0 162.4,331.3 163.0,330.5 163.6,329.8 164.2,329.0 164.8,328.2 165.4,327.4 166.0,326.6 166.6,325.8 167.1,325.0 167.7,324.2 168.3,323.3 168.9,322.5 169.5,321.7 170.1,320.9 170.7,320.0 171.3,319.2 171.8,318.4 172.4,317.6 173.0,316.8 173.6,316.0 174.2,315.3 174.8,314.5 175.4,313.7 176.0,312.9 176.5,312.1 177.1,311.4 177.7,310.6 178.3,309.9 178.9,309.1 179.5,308.3 180.1,307.6 180.7,306.9 181.2,306.1 181.8,305.4 182.4,304.7 183.0,303.9 183.6,303.2 184.2,302.5 184.8,301.8 185.4,301.1 185.9,300.4 186.5,299.6 187.1,299.0 187.7,298.3 188.3,297.6 188.9,296.9 189.5,296.2 190.1,295.5 190.6,294.8 191.2,294.2 191.8,293.5 192.4,292.8 193.0,292.2 193.6,291.5 194.2,290.9 194.8,290.2 195.3,289.6 195.9,289.0 196.5,288.3 197.1,287.7 197.7,287.1 198.3,286.5 198.9,285.8 199.4,285.2 200.0,284.6 200.6,284.0 201.2,283.4 201.8,282.8 202.4,282.2 203.0,281.6 203.6,281.0 204.1,280.5 204.7,279.9 205.3,279.3 205.9,278.7 206.5,278.2 207.1,277.6 207.7,277.1 208.3,276.5 208.8,276.0 209.4,275.4 210.0,274.9 210.6,274.3 211.2,273.8 211.8,273.3 212.4,272.7 213.0,272.2 213.5,271.7 214.1,271.2 214.7,270.7 215.3,270.2 215.9,269.7 216.5,269.2 217.1,268.7 217.7,268.2 218.2,267.7 218.8,267.2 219.4,266.8 220.0,266.3 220.6,265.8 221.2,265.3 221.8,264.9 222.4,264.4 222.9,264.0 223.5,263.5 224.1,263.1 224.7,262.6 225.3,262.2 225.9,261.8 226.5,261.3 227.1,260.9 227.6,260.5 228.2,260.1 228.8,259.7 229.4,259.3 230.0,258.9 230.6,258.5 231.2,258.1 231.8,257.7 232.3,257.3 232.9,256.9 233.5,256.5 234.1,256.1 234.7,255.8 235.3,255.4 235.9,255.0 236.5,254.7 237.0,254.3 237.6,254.0 238.2,253.6 238.8,253.3 239.4,252.9 240.0,252.6 240.6,252.2 241.2,251.9 241.7,251.6 242.3,251.3 242.9,251.0 243.5,250.6 244.1,250.3 244.7,250.0 245.3,249.7 245.9,249.4 246.4,249.1 247.0,248.8 247.6,248.6 248.2,248.3 248.8,248.0 249.4,247.7 250.0,247.5 250.6,247.2 251.1,246.9 251.7,246.7 252.3,246.4 252.9,246.2 253.5,245.9 254.1,245.7 254.7,245.5 255.3,245.2 255.8,245.0 256.4,244.8 257.0,244.5 257.6,244.3 258.2,244.1 258.8,243.9 259.4,243.7 260.0,243.5 260.5,243.3 261.1,243.1 261.7,242.9 262.3,242.7 262.9,242.6 263.5,242.4 264.1,242.2 264.7,242.0 265.2,241.9 265.8,241.7 266.4,241.5 267.0,241.4 267.6,241.2 268.2,241.1 268.8,241.0 269.3,240.8 269.9,240.7 270.5,240.6 271.1,240.4 271.7,240.3 272.3,240.2 272.9,240.1 273.5,240.0 274.0,239.9 274.6,239.8 275.2,239.7 275.8,239.6 276.4,239.5 277.0,239.4 277.6,239.3 278.2,239.2 278.7,239.2 279.3,239.1 279.9,239.0 280.5,239.0 281.1,238.9 281.7,238.8 282.3,238.8 282.9,238.8 283.4,238.7 284.0,238.7 284.6,238.6 285.2,238.6 285.8,238.6 286.4,238.6 287.0,238.5 287.6,238.5 288.1,238.5 288.7,238.5 289.3,238.5 289.9,238.5 290.5,238.5 291.1,238.5 291.7,238.5 292.3,238.6 292.8,238.6 293.4,238.6 294.0,238.6 294.6,238.7 295.2,238.7 295.8,238.7 296.4,238.8 297.0,238.8 297.5,238.9 298.1,239.0 298.7,239.0 299.3,239.1 299.9,239.1 300.5,239.2 301.1,239.3 301.7,239.4 302.2,239.5 302.8,239.6 303.4,239.6 304.0,239.7 304.6,239.8 305.2,240.0 305.8,240.1 306.4,240.2 306.9,240.3 307.5,240.4 308.1,240.5 308.7,240.7 309.3,240.8 309.9,240.9 310.5,241.1 311.1,241.2 311.6,241.4 312.2,241.5 312.8,241.7 313.4,241.8 314.0,242.0 314.6,242.2 315.2,242.4 315.8,242.5 316.3,242.7 316.9,242.9 317.5,243.1 318.1,243.3 318.7,243.5 319.3,243.7 319.9,243.9 320.5,244.1 321.0,244.3 321.6,244.5 322.2,244.7 322.8,245.0 323.4,245.2 324.0,245.4 324.6,245.7 325.2,245.9 325.7,246.1 326.3,246.4 326.9,246.7 327.5,246.9 328.1,247.2 328.7,247.4 329.3,247.7 329.9,248.0 330.4,248.2 331.0,248.5 331.6,248.8 332.2,249.1 332.8,249.4 333.4,249.7 334.0,250.0 334.6,250.3 335.1,250.6 335.7,250.9 336.3,251.2 336.9,251.6 337.5,251.9 338.1,252.2 338.7,252.5 339.2,252.9 339.8,253.2 340.4,253.6 341.0,253.9 341.6,254.3 342.2,254.6 342.8,255.0 343.4,255.3 343.9,255.7 344.5,256.1 345.1,256.5 345.7,256.8 346.3,257.2 346.9,257.6 347.5,258.0 348.1,258.4 348.6,258.8 349.2,259.2 349.8,259.6 350.4,260.0 351.0,260.4 351.6,260.9 352.2,261.3 352.8,261.7 353.3,262.1 353.9,262.6 354.5,263.0 355.1,263.5 355.7,263.9 356.3,264.3 356.9,264.8 357.5,265.3 358.0,265.7 358.6,266.2 359.2,266.7 359.8,267.1 360.4,267.6 361.0,268.1 361.6,268.6 362.2,269.1 362.7,269.6 363.3,270.1 363.9,270.6 364.5,271.1 365.1,271.6 365.7,272.1 366.3,272.6 366.9,273.1 367.4,273.6 368.0,274.2 368.6,274.7 369.2,275.2 369.8,275.8 370.4,276.3 371.0,276.9 371.6,277.4 372.1,278.0 372.7,278.5 373.3,279.1 373.9,279.7 374.5,280.2 375.1,280.8 375.7,281.4 376.3,281.9 376.8,282.5 377.4,283.1 378.0,283.7 378.6,284.3 379.2,284.9 379.8,285.5 380.4,286.1 381.0,286.7 381.5,287.3 382.1,287.9 382.7,288.5 383.3,289.1 383.9,289.8 384.5,290.4 385.1,291.0 385.7,291.6 386.2,292.3 386.8,292.9 387.4,293.5 388.0,294.2 388.6,294.8 389.2,295.4 389.8,296.1 390.4,296.7 390.9,297.4 391.5,298.0 392.1,298.7 392.7,299.3 393.3,300.0 393.9,300.6 394.5,301.3 395.1,301.9 395.6,302.6 396.2,303.2 396.8,303.9 397.4,304.5 398.0,305.2 398.6,305.8 399.2,306.5 399.8,307.1 400.3,307.8 400.9,308.4 401.5,309.0 402.1,309.7 402.7,310.3 403.3,310.9 403.9,311.6 404.4,312.2 405.0,312.8 405.6,313.4 406.2,314.0 406.8,314.7 407.4,315.3 408.0,315.9 408.6,316.4 409.1,317.0 409.7,317.6 410.3,318.2 410.9,318.7 411.5,319.3 412.1,319.9 412.7,320.4 413.3,320.9 413.8,321.5 414.4,322.0 415.0,322.5 415.6,323.0 416.2,323.5 416.8,324.0 417.4,324.5 418.0,324.9 418.5,325.4 419.1,325.9 419.7,326.3 420.3,326.7 420.9,327.2 421.5,327.6 422.1,328.0 422.7,328.4 423.2,328.8 423.8,329.2 424.4,329.5 425.0,329.9 425.6,330.3 426.2,330.6 426.8,330.9 427.4,331.3 427.9,331.6 428.5,331.9 429.1,332.2 429.7,332.5 430.3,332.8 430.9,333.1 431.5,333.4 432.1,333.7 432.6,334.0 433.2,334.2 433.8,334.5 434.4,334.7 435.0,335.0 435.6,335.2 436.2,335.5 436.8,335.7 437.3,335.9 437.9,336.2 438.5,336.4 439.1,336.6 439.7,336.8 440.3,337.0 440.9,337.2 441.5,337.4 442.0,337.6 442.6,337.8 443.2,338.0 443.8,338.2 444.4,338.4 445.0,338.6 445.6,338.7 446.2,338.9 446.7,339.1 447.3,339.3 447.9,339.4 448.5,339.6 449.1,339.8 449.7,339.9 450.3,340.1 450.9,340.2 451.4,340.4 452.0,340.5 452.6,340.7 453.2,340.8 453.8,341.0 454.4,341.1 455.0,341.3 455.6,341.4 456.1,341.6 456.7,341.7 457.3,341.8 457.9,342.0 458.5,342.1 459.1,342.2 459.7,342.4 460.3,342.5 460.8,342.6 461.4,342.8 462.0,342.9 462.6,343.0 463.2,343.1 463.8,343.3 464.4,343.4 465.0,343.5 465.5,343.6 466.1,343.8 466.7,343.9 467.3,344.0 467.9,344.1 468.5,344.2 469.1,344.3 469.7,344.5 470.2,344.6 470.8,344.7 471.4,344.8 472.0,344.9 472.6,345.0 473.2,345.1 473.8,345.2 474.3,345.3 474.9,345.5 475.5,345.6 476.1,345.7 476.7,345.8 477.3,345.9 477.9,346.0 478.5,346.1 479.0,346.2 479.6,346.3 480.2,346.4 480.8,346.5 481.4,346.6 482.0,346.7 482.6,346.8 483.2,346.9 483.7,347.0 484.3,347.1 484.9,347.2 485.5,347.3 486.1,347.4 486.7,347.5 487.3,347.6 487.9,347.7 488.4,347.8 489.0,347.9 489.6,347.9 490.2,348.0 490.8,348.1 491.4,348.2 492.0,348.3 492.6,348.4 493.1,348.5 493.7,348.6 494.3,348.7 494.9,348.8 495.5,348.9 496.1,348.9 496.7,349.0 497.3,349.1 497.8,349.2 498.4,349.3 499.0,349.4 499.6,349.5 500.2,349.6 500.8,349.6 501.4,349.7 502.0,349.8 502.5,349.9 503.1,350.0 503.7,350.1 504.3,350.1 504.9,350.2 505.5,350.3 506.1,350.4 506.7,350.5 507.2,350.6 507.8,350.6 508.4,350.7 509.0,350.8 509.6,350.9 510.2,351.0 510.8,351.0 511.4,351.1 511.9,351.2 512.5,351.3 513.1,351.3 513.7,351.4 514.3,351.5 514.9,351.6 515.5,351.7 516.1,351.7 516.6,351.8 517.2,351.9 517.8,352.0 518.4,352.0 519.0,352.1 519.6,352.2 520.2,352.3 520.8,352.3 521.3,352.4 521.9,352.5 522.5,352.6 523.1,352.6 523.7,352.7 524.3,352.8 524.9,352.8 525.5,352.9 526.0,353.0 526.6,353.1 527.2,353.1 527.8,353.2 528.4,353.3 529.0,353.3 529.6,353.4 530.2,353.5 530.7,353.6 531.3,353.6 531.9,353.7 532.5,353.8 533.1,353.8 533.7,353.9 534.3,354.0 534.9,354.0 535.4,354.1 536.0,354.2 536.6,354.2 537.2,354.3 537.8,354.4 538.4,354.4 539.0,354.5 539.6,354.6 540.1,354.6 540.7,354.7 541.3,354.8 541.9,354.8 542.5,354.9 543.1,355.0 543.7,355.0 544.2,355.1 544.8,355.2 545.4,355.2 546.0,355.3 546.6,355.4 547.2,355.4 547.8,355.5 548.4,355.5 548.9,355.6 549.5,355.7 550.1,355.7 550.7,355.8 551.3,355.9 551.9,355.9 552.5,356.0 553.1,356.0 553.6,356.1 554.2,356.2 554.8,356.2 555.4,356.3 556.0,356.3 556.6,356.4 557.2,356.5 557.8,356.5 558.3,356.6 558.9,356.6 559.5,356.7 560.1,356.8 560.7,356.8 561.3,356.9 561.9,356.9 562.5,357.0 563.0,357.1 563.6,357.1 564.2,357.2 564.8,357.2 565.4,357.3 566.0,357.4 566.6,357.4 567.2,357.5 567.7,357.5 568.3,357.6 568.9,357.6 569.5,357.7 570.1,357.8 570.7,357.8 571.3,357.9 571.9,357.9 572.4,358.0 573.0,358.0 573.6,358.1 574.2,358.1 574.8,358.2 575.4,358.3 576.0,358.3 576.6,358.4 577.1,358.4 577.7,358.5 578.3,358.5 578.9,358.6 579.5,358.6 580.1,358.7 580.7,358.7 581.3,358.8 581.8,358.9 582.4,358.9 583.0,359.0 583.6,359.0 584.2,359.1 584.8,359.1 585.4,359.2 586.0,359.2 586.5,359.3 587.1,359.3 587.7,359.4 588.3,359.4 588.9,359.5 589.5,359.6 590.1,359.6 590.7,359.7 591.2,359.7 591.8,359.8 592.4,359.8 593.0,359.9 593.6,359.9 594.2,360.0 594.8,360.0 595.4,360.1 595.9,360.1 596.5,360.2 597.1,360.2 597.7,360.3 598.3,360.3 598.9,360.4 599.5,360.4 600.1,360.5 600.6,360.5 601.2,360.6 601.8,360.6 602.4,360.7 603.0,360.7 603.6,360.8 604.2,360.8 604.8,360.9 605.3,360.9 605.9,361.0 606.5,361.0 607.1,361.1 607.7,361.1 608.3,361.2 608.9,361.2 609.4,361.3 610.0,361.3 610.6,361.4 611.2,361.4 611.8,361.5 612.4,361.5 613.0,361.6 613.6,361.6 614.1,361.7 614.7,361.7 615.3,361.8 615.9,361.8 616.5,361.9 617.1,361.9 617.7,362.0 618.3,362.0 618.8,362.1 619.4,362.1 620.0,362.2 620.6,362.2 621.2,362.2 621.8,362.3 622.4,362.3 623.0,362.4 623.5,362.4 624.1,362.5 624.7,362.5 625.3,362.6 625.9,362.6 626.5,362.7 627.1,362.7 627.7,362.8 628.2,362.8 628.8,362.9 629.4,362.9 630.0,363.0 630.6,363.0 631.2,363.0 631.8,363.1 632.4,363.1 632.9,363.2 633.5,363.2 634.1,363.3 634.7,363.3 635.3,363.4 635.9,363.4 636.5,363.5 637.1,363.5 637.6,363.6 638.2,363.6 638.8,363.6 639.4,363.7 640.0,363.7 640.6,363.8 641.2,363.8 641.8,363.9 642.3,363.9 642.9,364.0 643.5,364.0 644.1,364.0 644.7,364.1 645.3,364.1 645.9,364.2 646.5,364.2 647.0,364.3 647.6,364.3 648.2,364.4 648.8,364.4 649.4,364.4 650.0,364.5 650.6,364.5 651.2,364.6 651.7,364.6 652.3,364.7 652.9,364.7 653.5,364.8 654.1,364.8 654.7,364.8 655.3,364.9 655.9,364.9 656.4,365.0 657.0,365.0 657.6,365.1 658.2,365.1 658.8,365.1 659.4,365.2 660.0,365.2 660.6,365.3 661.1,365.3 661.7,365.4 662.3,365.4 662.9,365.4 663.5,365.5 664.1,365.5 664.7,365.6 665.3,365.6 665.8,365.7 666.4,365.7 667.0,365.7 667.6,365.8 668.2,365.8 668.8,365.9 669.4,365.9 670.0,365.9 670.5,366.0 671.1,366.0 671.7,366.1 672.3,366.1 672.9,366.2 673.5,366.2 674.1,366.2 674.7,366.3 675.2,366.3 675.8,366.4 676.4,366.4 677.0,366.4 677.6,366.5 678.2,366.5 678.8,366.6 679.3,366.6 679.9,366.6 680.5,366.7 681.1,366.7 681.7,366.8 682.3,366.8 682.9,366.9 683.5,366.9 684.0,366.9 684.6,367.0 685.2,367.0 685.8,367.1 686.4,367.1 687.0,367.1 687.6,367.2 688.2,367.2 688.7,367.3 689.3,367.3 689.9,367.3 690.5,367.4 691.1,367.4 691.7,367.5 692.3,367.5 692.9,367.5 693.4,367.6 694.0,367.6 694.6,367.7 695.2,367.7 695.8,367.7 696.4,367.8 697.0,367.8 697.6,367.8 698.1,367.9 698.7,367.9 699.3,368.0 699.9,368.0 700.5,368.0 701.1,368.1 701.7,368.1 702.3,368.2 702.8,368.2 703.4,368.2 704.0,368.3 704.6,368.3 705.2,368.4 705.8,368.4 706.4,368.4 707.0,368.5 707.5,368.5 708.1,368.5 708.7,368.6 709.3,368.6 709.9,368.7 710.5,368.7 711.1,368.7 711.7,368.8 712.2,368.8 712.8,368.9 713.4,368.9 714.0,368.9 714.6,369.0 715.2,369.0 715.8,369.0 716.4,369.1 716.9,369.1 717.5,369.2 718.1,369.2 718.7,369.2 719.3,369.3 719.9,369.3 720.5,369.3 721.1,369.4 721.6,369.4 722.2,369.5 722.8,369.5 723.4,369.5 724.0,369.6 724.6,369.6 725.2,369.6 725.8,369.7 726.3,369.7 726.9,369.8 727.5,369.8 728.1,369.8 728.7,369.9 729.3,369.9 729.9,369.9 730.5,370.0 731.0,370.0 731.6,370.0 732.2,370.1 732.8,370.1 733.4,370.2 734.0,370.2 734.6,370.2 735.2,370.3 735.7,370.3 736.3,370.3 736.9,370.4 737.5,370.4 738.1,370.4 738.7,370.5 739.3,370.5 739.9,370.6 740.4,370.6 741.0,370.6 741.6,370.7 742.2,370.7 742.8,370.7 743.4,370.8 744.0,370.8 744.6,370.8 745.1,370.9 745.7,370.9 746.3,370.9 746.9,371.0 747.5,371.0 748.1,371.1 748.7,371.1 749.2,371.1 749.8,371.2 750.4,371.2 751.0,371.2 751.6,371.3 752.2,371.3 752.8,371.3 753.4,371.4 753.9,371.4 754.5,371.4 755.1,371.5 755.7,371.5 756.3,371.5 756.9,371.6 757.5,371.6 758.1,371.6 758.6,371.7 759.2,371.7 759.8,371.8 760.4,371.8 761.0,371.8 761.6,371.9 762.2,371.9 762.8,371.9 763.3,372.0 763.9,372.0 764.5,372.0 765.1,372.1 765.7,372.1 766.3,372.1 766.9,372.2 767.5,372.2 768.0,372.2 768.6,372.3 769.2,372.3 769.8,372.3 770.4,372.4 771.0,372.4 771.6,372.4 772.2,372.5 772.7,372.5 773.3,372.5 773.9,372.6 774.5,372.6 775.1,372.6 775.7,372.7 776.3,372.7 776.9,372.7 777.4,372.8 778.0,372.8 778.6,372.8 779.2,372.9 779.8,372.9 780.4,372.9 781.0,373.0 781.6,373.0 782.1,373.0 782.7,373.0 783.3,373.0 783.9,373.0 784.5,373.0 785.1,373.0 785.7,373.0 786.3,373.0 786.8,373.1 787.4,373.1 788.0,373.1 788.6,373.1 789.2,373.1 789.8,373.1 790.4,373.1 791.0,373.1 791.5,373.1 792.1,373.1 792.7,373.1 793.3,373.1 793.9,373.1 794.5,373.1 795.1,373.1 795.7,373.1 796.2,373.1 796.8,373.1 797.4,373.2 798.0,373.2 798.6,373.2 799.2,373.2 799.8,373.2 800.4,373.2 800.9,373.2 801.5,373.2 802.1,373.2 802.7,373.2 803.3,373.2 803.9,373.2 804.5,373.2 805.1,373.2 805.6,373.2 806.2,373.2 806.8,373.2 807.4,373.2 808.0,373.2 808.6,373.3 809.2,373.3 809.8,373.3 810.3,373.3 810.9,373.3 811.5,373.3 812.1,373.3 812.7,373.3 813.3,373.3 813.9,373.3 814.4,373.3 815.0,373.3 815.6,373.3 816.2,373.3 816.8,373.3 817.4,373.3 818.0,373.3 818.6,373.3 819.1,373.3 819.7,373.4 820.3,373.4 820.9,373.4 821.5,373.4 822.1,373.4 822.7,373.4 823.3,373.4 823.8,373.4 824.4,373.4 825.0,373.4 825.6,373.4 826.2,373.4 826.8,373.4 827.4,373.4 828.0,373.4 828.5,373.4 829.1,373.4 829.7,373.4 830.3,373.5 830.9,373.5 831.5,373.5 832.1,373.5 832.7,373.5 833.2,373.5 833.8,373.5 834.4,373.5 835.0,373.5 835.6,373.5 836.2,373.5 836.8,373.5 837.4,373.5 837.9,373.5 838.5,373.5 839.1,373.5 839.7,373.5 840.3,373.5 840.9,373.5 841.5,373.6 842.1,373.6 842.6,373.6 843.2,373.6 843.8,373.6 844.4,373.6 845.0,373.6 845.6,373.6 846.2,373.6 846.8,373.6 847.3,373.6 847.9,373.6 848.5,373.6 849.1,373.6 849.7,373.6 850.3,373.6 850.9,373.6 851.5,373.6 852.0,373.6 852.6,373.7 853.2,373.7 853.8,373.7 854.4,373.7 855.0,373.7 855.6,373.7 856.2,373.7 856.7,373.7 857.3,373.7 857.9,373.7 858.5,373.7 859.1,373.7 859.7,373.7 860.3,373.7 860.9,373.7 861.4,373.7 862.0,373.7 862.6,373.7 863.2,373.8 863.8,373.8 864.4,373.8 865.0,373.8 865.6,373.8 866.1,373.8 866.7,373.8 867.3,373.8 867.9,373.8 868.5,373.8 869.1,373.8 869.7,373.8 870.3,373.8 870.8,373.8 871.4,373.8 872.0,373.8 872.6,373.8 873.2,373.8 873.8,373.8 874.4,373.9 875.0,373.9 875.5,373.9 876.1,373.9 876.7,373.9 877.3,373.9 877.9,373.9 878.5,373.9 879.1,373.9 879.7,373.9 880.2,373.9 880.8,373.9 881.4,373.9"><title>injected</title></polyline>
<polyline class="tr" stroke="var(--mode-normal, #eb6834)" points="62.0,374.0 62.4,374.0 62.7,374.0 63.1,374.0 63.4,374.0 63.8,374.0 64.1,374.0 64.5,374.0 64.8,374.0 65.2,374.0 65.5,374.0 65.9,374.0 66.2,374.0 66.6,374.0 66.9,374.0 67.3,374.0 67.6,374.0 68.0,374.0 68.3,374.0 68.7,374.0 69.0,374.0 69.4,374.0 69.8,374.0 70.1,374.0 70.5,374.0 70.8,374.0 71.2,374.0 71.5,374.0 71.9,374.0 72.2,374.0 72.6,374.0 72.9,374.0 73.3,374.0 73.6,374.0 74.0,374.0 74.3,374.0 74.7,374.0 75.0,374.0 75.4,374.0 75.7,374.0 76.1,374.0 76.4,374.0 76.8,374.0 77.2,374.0 77.5,374.0 77.9,374.0 78.2,374.0 78.6,374.0 78.9,374.0 79.3,374.0 79.6,374.0 80.0,374.0 80.3,374.0 80.7,374.0 81.0,374.0 81.4,374.0 81.7,374.0 82.1,374.0 82.4,374.0 82.8,374.0 83.1,374.0 83.5,374.0 83.9,374.0 84.2,374.0 84.6,374.0 84.9,374.0 85.3,374.0 85.6,374.0 86.0,374.0 86.3,374.0 86.7,374.0 87.0,374.0 87.4,374.0 87.7,374.0 88.1,374.0 88.4,374.0 88.8,374.0 89.1,374.0 89.5,374.0 89.8,374.0 90.2,374.0 90.5,374.0 90.9,374.0 91.3,374.0 91.6,374.0 92.0,374.0 92.3,374.0 92.7,374.0 93.0,374.0 93.4,374.0 93.7,374.0 94.1,374.0 94.4,374.0 94.8,374.0 95.1,374.0 95.5,374.0 95.8,374.0 96.2,374.0 96.5,374.0 96.9,374.0 97.2,374.0 97.6,374.0 97.9,374.0 98.3,374.0 98.7,374.0 99.0,374.0 99.4,374.0 99.7,374.0 100.1,374.0 100.4,374.0 100.8,374.0 101.1,374.0 101.5,374.0 101.8,374.0 102.2,374.0 102.5,374.0 102.9,374.0 103.2,374.0 103.6,374.0 103.9,374.0 104.3,374.0 104.6,374.0 105.0,374.0 105.3,374.0 105.7,374.0 106.1,374.0 106.4,374.0 106.8,374.0 107.1,374.0 107.5,374.0 107.8,374.0 108.2,374.0 108.5,374.0 108.9,374.0 109.2,374.0 109.6,373.9 109.9,373.9 110.3,373.9 110.6,373.9 111.0,373.9 111.3,373.9 111.7,373.9 112.0,373.9 112.4,373.9 112.8,373.9 113.1,373.9 113.5,373.9 113.8,373.9 114.2,373.9 114.5,373.9 114.9,373.9 115.2,373.9 115.6,373.9 115.9,373.9 116.3,373.9 116.6,373.9 117.0,373.9 117.3,373.9 117.7,373.9 118.0,373.9 118.4,373.9 118.7,373.9 119.1,373.9 119.4,373.9 119.8,373.8 120.2,373.8 120.5,373.8 120.9,373.7 121.2,373.6 121.6,373.6 121.9,373.5 122.3,373.4 122.6,373.3 123.0,373.3 123.3,373.2 123.7,373.1 124.0,373.1 124.4,373.2 124.7,373.1 125.1,373.0 125.4,372.9 125.8,372.8 126.1,372.6 126.5,372.4 126.8,372.2 127.2,372.1 127.6,371.9 127.9,371.8 128.3,371.6 128.6,371.4 129.0,371.2 129.3,370.7 129.7,370.5 130.0,370.2 130.4,370.0 130.7,369.7 131.1,369.4 131.4,369.1 131.8,368.8 132.1,368.8 132.5,368.8"><title>Normal (as shipped): reported altitude</title></polyline>
<polyline class="tr" stroke="var(--mode-balloon, #2a78d6)" points="62.0,374.1 62.4,374.1 62.7,374.1 63.1,374.1 63.4,374.1 63.8,374.1 64.1,374.1 64.5,374.1 64.8,374.1 65.2,374.1 65.5,374.1 65.9,374.1 66.2,374.1 66.6,374.1 66.9,374.1 67.3,374.1 67.6,374.1 68.0,374.1 68.3,374.1 68.7,374.1 69.0,374.1 69.4,374.1 69.8,374.1 70.1,374.1 70.5,374.1 70.8,374.1 71.2,374.1 71.5,374.1 71.9,374.1 72.2,374.1 72.6,374.1 72.9,374.1 73.3,374.1 73.6,374.1 74.0,374.1 74.3,374.1 74.7,374.1 75.0,374.1 75.4,374.1 75.7,374.1 76.1,374.1 76.4,374.1 76.8,374.1 77.2,374.1 77.5,374.1 77.9,374.1 78.2,374.1 78.6,374.1 78.9,374.1 79.3,374.1 79.6,374.1 80.0,374.1 80.3,374.1 80.7,374.1 81.0,374.1 81.4,374.1 81.7,374.1 82.1,374.1 82.4,374.1 82.8,374.1 83.1,374.1 83.5,374.1 83.9,374.1 84.2,374.1 84.6,374.1 84.9,374.1 85.3,374.1 85.6,374.1 86.0,374.1 86.3,374.1 86.7,374.1 87.0,374.1 87.4,374.1 87.7,374.1 88.1,374.1 88.4,374.1 88.8,374.1 89.1,374.1 89.5,374.1 89.8,374.1 90.2,374.1 90.5,374.1 90.9,374.1 91.3,374.1 91.6,374.1 92.0,374.1 92.3,374.1 92.7,374.1 93.0,374.1 93.4,374.1 93.7,374.1 94.1,374.1 94.4,374.1 94.8,374.1 95.1,374.1 95.5,374.1 95.8,374.1 96.2,374.1 96.5,374.1 96.9,374.1 97.2,374.1 97.6,374.1 97.9,374.1 98.3,374.1 98.7,374.1 99.0,374.0 99.4,374.0 99.7,374.0 100.1,374.0 100.4,374.0 100.8,373.9 101.1,373.9 101.5,373.9 101.8,373.8 102.2,373.8 102.5,373.8 102.9,373.7 103.2,373.7 103.6,373.6 103.9,373.6 104.3,373.5 104.6,373.5 105.0,373.4 105.3,373.3 105.7,373.3 106.1,373.2 106.4,373.1 106.8,373.0 107.1,373.0 107.5,372.9 107.8,372.8 108.2,372.7 108.5,372.6 108.9,372.5 109.2,372.4 109.6,372.3 109.9,372.2 110.3,372.1 110.6,372.0 111.0,371.9 111.3,371.8 111.7,371.7 112.0,371.6 112.4,371.5 112.8,371.3 113.1,371.2 113.5,371.1 113.8,371.0 114.2,370.8 114.5,370.7 114.9,370.6 115.2,370.4 115.6,370.3 115.9,370.1 116.3,370.0 116.6,369.8 117.0,369.7 117.3,369.5 117.7,369.4 118.0,369.2 118.4,369.1 118.7,368.9 119.1,368.7 119.4,368.6 119.8,368.4 120.2,368.2 120.5,368.1 120.9,367.9 121.2,367.7 121.6,367.5 121.9,367.4 122.3,367.2 122.6,367.0 123.0,366.8 123.3,366.6 123.7,366.4 124.0,366.2 124.4,366.1 124.7,365.9 125.1,365.7 125.4,365.5 125.8,365.3 126.1,365.1 126.5,364.9 126.8,364.6 127.2,364.4 127.6,364.2 127.9,364.0 128.3,363.8 128.6,363.6 129.0,363.4 129.3,363.2 129.7,362.9 130.0,362.7 130.4,362.5 130.7,362.3 131.1,362.0 131.4,361.8 131.8,361.6 132.1,361.3 132.5,361.1"><title>Balloon: reported altitude</title></polyline>
<polyline class="tr" stroke="var(--mode-balloon, #2a78d6)" points="228.1,261.6 228.5,261.3 228.8,261.0 229.2,260.8 229.5,260.6 229.9,260.3 230.2,260.1 230.6,259.8 230.9,259.6 231.3,259.3 231.6,259.1 232.0,258.9 232.3,258.6 232.7,258.4 233.0,258.2 233.4,258.0 233.8,257.7 234.1,257.5 234.5,257.3 234.8,257.1 235.2,256.8 235.5,256.6 235.9,256.4 236.2,256.2 236.6,256.0 236.9,255.8 237.3,255.6 237.6,255.4 238.0,255.1 238.3,254.9 238.7,254.7 239.0,254.5 239.4,254.3 239.7,254.1 240.1,253.9 240.4,253.7 240.8,253.5 241.2,253.3 241.5,253.1 241.9,253.0 242.2,252.8 242.6,252.6 242.9,252.4 243.3,252.2 243.6,252.0 244.0,251.8 244.3,251.6 244.7,251.5 245.0,251.3 245.4,251.1 245.7,250.9 246.1,250.8 246.4,250.6 246.8,250.4 247.1,250.2 247.5,250.1 247.9,249.9 248.2,249.7 248.6,249.6 248.9,249.4 249.3,249.3 249.6,249.1 250.0,248.9 250.3,248.8 250.7,248.6 251.0,248.5 251.4,248.3 251.7,248.2 252.1,248.0 252.4,247.9 252.8,247.7 253.1,247.6 253.5,247.4 253.8,247.3 254.2,247.1 254.5,247.0 254.9,246.8 255.3,246.7 255.6,246.6 256.0,246.4 256.3,246.3 256.7,246.2 257.0,246.0 257.4,245.9 257.7,245.8 258.1,245.7 258.4,245.5 258.8,245.4 259.1,245.3 259.5,245.2 259.8,245.0 260.2,244.9 260.5,244.8 260.9,244.7 261.2,244.6 261.6,244.5 261.9,244.4 262.3,244.3 262.7,244.1 263.0,244.0 263.4,243.9 263.7,243.8 264.1,243.7 264.4,243.6 264.8,243.5 265.1,243.4 265.5,243.3 265.8,243.2 266.2,243.2 266.5,243.1 266.9,243.0 267.2,242.9 267.6,242.8 267.9,242.7"><title>Balloon: reported altitude</title></polyline>
<polyline class="tr" stroke="var(--mode-balloon, #2a78d6)" points="309.8,242.6 310.1,242.7 310.5,242.8 310.8,242.9 311.2,243.0 311.5,243.1 311.9,243.2 312.2,243.3 312.6,243.4 312.9,243.5 313.3,243.6 313.6,243.7 314.0,243.8 314.3,243.9 314.7,244.0 315.0,244.1 315.4,244.2 315.8,244.3 316.1,244.4 316.5,244.5 316.8,244.6 317.2,244.8 317.5,244.9 317.9,245.0 318.2,245.1 318.6,245.2 318.9,245.3 319.3,245.5 319.6,245.6 320.0,245.7 320.3,245.8 320.7,246.0 321.0,246.1 321.4,246.2 321.7,246.4 322.1,246.5 322.4,246.6 322.8,246.8 323.2,246.9 323.5,247.1 323.9,247.2 324.2,247.4 324.6,247.5 324.9,247.6 325.3,247.8 325.6,247.9 326.0,248.1 326.3,248.2 326.7,248.4 327.0,248.6 327.4,248.7 327.7,248.9 328.1,249.0 328.4,249.2 328.8,249.4 329.1,249.5 329.5,249.7 329.9,249.9 330.2,250.0 330.6,250.2 330.9,250.4 331.3,250.5 331.6,250.7 332.0,250.9 332.3,251.1 332.7,251.2 333.0,251.4 333.4,251.6 333.7,251.8 334.1,252.0 334.4,252.2 334.8,252.3 335.1,252.5 335.5,252.7 335.8,252.9 336.2,253.1 336.5,253.3 336.9,253.5 337.3,253.7 337.6,253.9 338.0,254.1 338.3,254.3 338.7,254.5 339.0,254.7 339.4,254.9 339.7,255.1 340.1,255.3 340.4,255.5 340.8,255.7 341.1,255.9 341.5,256.1 341.8,256.4 342.2,256.6 342.5,256.8 342.9,257.0 343.2,257.2 343.6,257.5 343.9,257.7 344.3,257.9 344.7,258.1 345.0,258.4 345.4,258.6 345.7,258.8 346.1,259.1 346.4,259.3 346.8,259.5 347.1,259.8 347.5,260.0 347.8,260.2 348.2,260.5 348.5,260.7 348.9,261.0 349.2,261.2 349.6,261.4 349.9,261.7 350.3,261.9 350.6,262.2"><title>Balloon: reported altitude</title></polyline>
<polyline class="tr" stroke="var(--mode-balloon, #2a78d6)" points="421.4,329.9 421.7,330.1 422.1,330.4 422.4,330.6 422.8,330.9 423.1,331.1 423.5,331.3 423.8,331.6 424.2,331.8 424.5,332.0 424.9,332.3 425.2,332.5 425.6,332.7 425.9,332.9 426.3,333.1 426.7,333.3 427.0,333.5 427.4,333.7 427.7,333.9 428.1,334.1 428.4,334.3 428.8,334.5 429.1,334.7 429.5,334.9 429.8,335.1 430.2,335.2 430.5,335.4 430.9,335.6 431.2,335.8 431.6,335.9 431.9,336.1 432.3,336.3 432.6,336.4 433.0,336.6 433.3,336.8 433.7,336.9 434.1,337.1 434.4,337.2 434.8,337.4 435.1,337.5 435.5,337.7 435.8,337.8 436.2,338.0 436.5,338.1 436.9,338.3 437.2,338.4 437.6,338.5 437.9,338.7 438.3,338.8 438.6,338.9 439.0,339.1 439.3,339.2 439.7,339.3 440.0,339.4 440.4,339.6 440.8,339.7 441.1,339.8 441.5,339.9 441.8,340.1 442.2,340.2 442.5,340.3 442.9,340.4 443.2,340.5 443.6,340.6 443.9,340.8 444.3,340.9 444.6,341.0 445.0,341.1 445.3,341.2 445.7,341.3 446.0,341.4 446.4,341.5 446.7,341.6 447.1,341.7 447.4,341.8 447.8,341.9 448.2,342.0 448.5,342.1 448.9,342.2 449.2,342.3 449.6,342.4 449.9,342.5 450.3,342.6 450.6,342.7 451.0,342.8 451.3,342.9 451.7,343.0 452.0,343.1 452.4,343.2 452.7,343.3 453.1,343.4 453.4,343.5 453.8,343.6 454.1,343.7 454.5,343.7 454.8,343.8 455.2,343.9 455.6,344.0 455.9,344.1 456.3,344.2 456.6,344.3 457.0,344.3 457.3,344.4 457.7,344.5 458.0,344.6 458.4,344.7 458.7,344.8 459.1,344.8 459.4,344.9 459.8,345.0 460.1,345.1 460.5,345.2 460.8,345.2 461.2,345.3 461.5,345.4 461.9,345.5 462.2,345.6 462.6,345.6 463.0,345.7 463.3,345.8 463.7,345.9 464.0,345.9 464.4,346.0 464.7,346.1 465.1,346.2 465.4,346.2 465.8,346.3 466.1,346.4 466.5,346.5 466.8,346.5 467.2,346.6 467.5,346.7 467.9,346.7 468.2,346.8 468.6,346.9 468.9,347.0 469.3,347.0 469.7,347.1 470.0,347.2 470.4,347.2 470.7,347.3 471.1,347.4 471.4,347.4 471.8,347.5 472.1,347.6 472.5,347.6 472.8,347.7 473.2,347.8 473.5,347.8 473.9,347.9 474.2,348.0 474.6,348.0 474.9,348.1 475.3,348.2 475.6,348.2 476.0,348.3 476.3,348.4 476.7,348.4 477.1,348.5 477.4,348.6 477.8,348.6 478.1,348.7 478.5,348.7 478.8,348.8 479.2,348.9 479.5,348.9 479.9,349.0 480.2,349.1 480.6,349.1 480.9,349.2 481.3,349.2 481.6,349.3 482.0,349.4 482.3,349.4 482.7,349.5 483.0,349.5 483.4,349.6 483.7,349.7 484.1,349.7 484.5,349.8 484.8,349.8 485.2,349.9 485.5,350.0 485.9,350.0 486.2,350.1 486.6,350.1 486.9,350.2 487.3,350.3 487.6,350.3 488.0,350.4 488.3,350.4 488.7,350.5 489.0,350.6 489.4,350.6 489.7,350.7 490.1,350.8 490.4,350.8 490.8,350.9 491.1,350.9 491.5,351.0 491.9,351.0 492.2,351.1 492.6,351.2 492.9,351.2 493.3,351.3 493.6,351.3 494.0,351.4 494.3,351.4 494.7,351.5 495.0,351.5 495.4,351.6 495.7,351.6 496.1,351.7 496.4,351.8 496.8,351.8 497.1,351.9 497.5,351.9 497.8,352.0 498.2,352.0 498.6,352.1 498.9,352.1 499.3,352.2 499.6,352.2 500.0,352.3 500.3,352.3 500.7,352.4 501.0,352.4 501.4,352.5 501.7,352.6 502.1,352.6 502.4,352.7 502.8,352.7 503.1,352.8 503.5,352.8 503.8,352.9 504.2,352.9 504.5,353.0 504.9,353.0 505.2,353.1 505.6,353.1 506.0,353.2 506.3,353.2 506.7,353.3 507.0,353.3 507.4,353.4 507.7,353.4 508.1,353.5 508.4,353.5 508.8,353.6 509.1,353.6 509.5,353.7 509.8,353.7 510.2,353.8 510.5,353.8 510.9,353.9 511.2,353.9 511.6,354.0 511.9,354.0 512.3,354.0 512.6,354.1 513.0,354.1 513.4,354.2 513.7,354.2 514.1,354.3 514.4,354.3 514.8,354.4 515.1,354.4 515.5,354.5 515.8,354.5 516.2,354.6 516.5,354.6 516.9,354.7 517.2,354.7 517.6,354.8 517.9,354.8 518.3,354.9 518.6,354.9 519.0,355.0 519.3,355.0 519.7,355.1 520.0,355.1 520.4,355.2 520.8,355.2 521.1,355.3 521.5,355.3 521.8,355.3 522.2,355.4 522.5,355.4 522.9,355.5 523.2,355.5 523.6,355.6 523.9,355.6 524.3,355.7 524.6,355.7 525.0,355.8 525.3,355.8 525.7,355.8 526.0,355.9 526.4,355.9 526.7,356.0 527.1,356.0 527.4,356.1 527.8,356.1 528.2,356.2 528.5,356.2 528.9,356.2 529.2,356.3 529.6,356.3 529.9,356.4 530.3,356.4 530.6,356.5 531.0,356.5 531.3,356.5 531.7,356.6 532.0,356.6 532.4,356.7 532.7,356.7 533.1,356.8 533.4,356.8 533.8,356.8 534.1,356.9 534.5,356.9 534.9,357.0 535.2,357.0 535.6,357.0 535.9,357.1 536.3,357.1 536.6,357.2 537.0,357.2 537.3,357.3 537.7,357.3 538.0,357.3 538.4,357.4 538.7,357.4 539.1,357.5 539.4,357.5 539.8,357.5 540.1,357.6 540.5,357.6 540.8,357.7 541.2,357.7 541.5,357.7 541.9,357.8 542.3,357.8 542.6,357.9 543.0,357.9 543.3,357.9 543.7,358.0 544.0,358.0 544.4,358.1 544.7,358.1 545.1,358.1 545.4,358.2 545.8,358.2 546.1,358.3 546.5,358.3 546.8,358.3 547.2,358.4 547.5,358.4 547.9,358.5 548.2,358.5 548.6,358.6 548.9,358.6 549.3,358.7 549.7,358.7 550.0,358.7 550.4,358.8 550.7,358.8 551.1,358.9 551.4,358.9 551.8,358.9 552.1,359.0 552.5,359.0 552.8,359.1 553.2,359.1 553.5,359.1 553.9,359.2 554.2,359.2 554.6,359.2 554.9,359.3 555.3,359.3 555.6,359.4 556.0,359.4 556.3,359.4 556.7,359.5 557.1,359.5 557.4,359.5 557.8,359.6 558.1,359.6 558.5,359.7 558.8,359.7 559.2,359.7 559.5,359.8 559.9,359.8 560.2,359.8 560.6,359.9 560.9,359.9 561.3,359.9 561.6,360.0 562.0,360.0 562.3,360.1 562.7,360.1 563.0,360.1 563.4,360.2 563.8,360.2 564.1,360.2 564.5,360.3 564.8,360.3 565.2,360.3 565.5,360.4 565.9,360.4 566.2,360.5 566.6,360.5 566.9,360.5 567.3,360.6 567.6,360.6 568.0,360.6 568.3,360.7 568.7,360.7 569.0,360.7 569.4,360.8 569.7,360.8 570.1,360.8 570.4,360.9 570.8,360.9 571.2,360.9 571.5,361.0 571.9,361.0 572.2,361.0 572.6,361.1 572.9,361.1 573.3,361.2 573.6,361.2 574.0,361.2 574.3,361.3 574.7,361.3 575.0,361.3 575.4,361.4 575.7,361.4 576.1,361.4 576.4,361.5 576.8,361.5 577.1,361.5 577.5,361.6 577.8,361.6 578.2,361.7 578.6,361.7 578.9,361.7 579.3,361.8 579.6,361.8 580.0,361.8 580.3,361.9 580.7,361.9 581.0,361.9 581.4,362.0 581.7,362.0 582.1,362.1 582.4,362.1 582.8,362.1 583.1,362.2 583.5,362.2 583.8,362.2 584.2,362.3 584.5,362.3 584.9,362.3 585.2,362.4 585.6,362.4 586.0,362.4 586.3,362.5 586.7,362.5 587.0,362.5 587.4,362.6 587.7,362.6 588.1,362.6 588.4,362.7 588.8,362.7 589.1,362.7 589.5,362.7 589.8,362.8 590.2,362.8 590.5,362.8 590.9,362.9 591.2,362.9 591.6,362.9 591.9,363.0 592.3,363.0 592.7,363.0 593.0,363.1 593.4,363.1 593.7,363.1 594.1,363.2 594.4,363.2 594.8,363.2 595.1,363.3 595.5,363.3 595.8,363.3 596.2,363.4 596.5,363.4 596.9,363.4 597.2,363.5 597.6,363.5 597.9,363.5 598.3,363.6 598.6,363.6 599.0,363.6 599.3,363.6 599.7,363.7 600.1,363.7 600.4,363.7 600.8,363.8 601.1,363.8 601.5,363.8 601.8,363.9 602.2,363.9 602.5,363.9 602.9,364.0 603.2,364.0 603.6,364.0 603.9,364.1 604.3,364.1 604.6,364.1 605.0,364.1 605.3,364.2 605.7,364.2 606.0,364.2 606.4,364.3 606.7,364.3 607.1,364.3 607.5,364.4 607.8,364.4 608.2,364.5 608.5,364.5 608.9,364.5 609.2,364.6 609.6,364.6 609.9,364.6 610.3,364.7 610.6,364.7 611.0,364.7 611.3,364.7 611.7,364.8 612.0,364.8 612.4,364.8 612.7,364.9 613.1,364.9 613.4,364.9 613.8,365.0 614.1,365.0 614.5,365.0 614.9,365.1 615.2,365.1 615.6,365.1 615.9,365.1 616.3,365.2 616.6,365.2 617.0,365.2 617.3,365.3 617.7,365.3 618.0,365.3 618.4,365.4 618.7,365.4 619.1,365.4 619.4,365.4 619.8,365.5 620.1,365.5 620.5,365.5 620.8,365.6 621.2,365.6 621.6,365.6 621.9,365.7 622.3,365.7 622.6,365.7 623.0,365.7 623.3,365.8 623.7,365.8 624.0,365.8 624.4,365.9 624.7,365.9 625.1,365.9 625.4,365.9 625.8,366.0 626.1,366.0 626.5,366.0 626.8,366.1 627.2,366.1 627.5,366.1 627.9,366.1 628.2,366.2 628.6,366.2 629.0,366.2 629.3,366.3 629.7,366.3 630.0,366.3 630.4,366.3 630.7,366.4 631.1,366.4 631.4,366.4 631.8,366.5 632.1,366.5 632.5,366.5 632.8,366.5 633.2,366.6 633.5,366.6 633.9,366.6 634.2,366.7 634.6,366.7 634.9,366.7 635.3,366.7 635.6,366.8 636.0,366.8 636.4,366.8 636.7,366.9 637.1,366.9 637.4,366.9 637.8,367.0 638.1,367.0 638.5,367.0 638.8,367.1 639.2,367.1 639.5,367.1 639.9,367.2 640.2,367.2 640.6,367.2 640.9,367.2 641.3,367.3 641.6,367.3 642.0,367.3 642.3,367.4 642.7,367.4 643.0,367.4 643.4,367.4 643.8,367.5 644.1,367.5 644.5,367.5 644.8,367.6 645.2,367.6 645.5,367.6 645.9,367.6 646.2,367.7 646.6,367.7 646.9,367.7 647.3,367.8 647.6,367.8 648.0,367.8 648.3,367.8 648.7,367.9 649.0,367.9 649.4,367.9 649.7,367.9 650.1,368.0 650.4,368.0 650.8,368.0 651.2,368.1 651.5,368.1 651.9,368.1 652.2,368.1 652.6,368.2 652.9,368.2 653.3,368.2 653.6,368.2 654.0,368.3 654.3,368.3 654.7,368.3 655.0,368.4 655.4,368.4 655.7,368.4 656.1,368.4 656.4,368.5 656.8,368.5 657.1,368.5 657.5,368.5 657.9,368.6 658.2,368.6 658.6,368.6 658.9,368.6 659.3,368.7 659.6,368.7 660.0,368.7 660.3,368.8 660.7,368.8 661.0,368.8 661.4,368.8 661.7,368.9 662.1,368.9 662.4,368.9 662.8,368.9 663.1,369.0 663.5,369.0 663.8,369.0 664.2,369.0 664.5,369.1 664.9,369.1 665.3,369.1 665.6,369.1 666.0,369.2 666.3,369.2 666.7,369.2 667.0,369.3 667.4,369.3 667.7,369.3 668.1,369.3 668.4,369.4 668.8,369.4 669.1,369.4 669.5,369.5 669.8,369.5 670.2,369.5 670.5,369.6 670.9,369.6 671.2,369.6 671.6,369.6 671.9,369.7 672.3,369.7 672.7,369.7 673.0,369.7 673.4,369.8 673.7,369.8 674.1,369.8 674.4,369.8 674.8,369.9 675.1,369.9 675.5,369.9 675.8,369.9 676.2,370.0 676.5,370.0 676.9,370.0 677.2,370.1 677.6,370.1 677.9,370.1 678.3,370.1 678.6,370.2 679.0,370.2 679.3,370.2 679.7,370.2 680.1,370.3 680.4,370.3 680.8,370.3 681.1,370.3 681.5,370.4 681.8,370.4 682.2,370.4 682.5,370.4 682.9,370.5 683.2,370.5 683.6,370.5 683.9,370.5 684.3,370.6 684.6,370.6 685.0,370.6 685.3,370.6 685.7,370.7 686.0,370.7 686.4,370.7 686.8,370.7 687.1,370.8 687.5,370.8 687.8,370.8 688.2,370.8 688.5,370.9 688.9,370.9 689.2,370.9 689.6,370.9 689.9,371.0 690.3,371.0 690.6,371.0 691.0,371.0 691.3,371.1 691.7,371.1 692.0,371.1 692.4,371.1 692.7,371.1 693.1,371.2 693.4,371.2 693.8,371.2 694.2,371.2 694.5,371.3 694.9,371.3 695.2,371.3 695.6,371.3 695.9,371.4 696.3,371.4 696.6,371.4 697.0,371.5 697.3,371.5 697.7,371.5 698.0,371.6 698.4,371.6 698.7,371.6 699.1,371.6 699.4,371.7 699.8,371.7 700.1,371.7 700.5,371.7 700.8,371.8 701.2,371.8 701.6,371.8 701.9,371.8 702.3,371.9 702.6,371.9 703.0,371.9 703.3,371.9 703.7,372.0 704.0,372.0 704.4,372.0 704.7,372.0 705.1,372.1 705.4,372.1 705.8,372.1 706.1,372.1 706.5,372.2 706.8,372.2 707.2,372.2 707.5,372.2 707.9,372.2 708.2,372.3 708.6,372.3 709.0,372.3 709.3,372.3 709.7,372.4 710.0,372.4 710.4,372.4 710.7,372.4 711.1,372.5 711.4,372.5 711.8,372.5 712.1,372.5 712.5,372.6 712.8,372.6 713.2,372.6 713.5,372.6 713.9,372.6 714.2,372.7 714.6,372.7 714.9,372.7 715.3,372.7 715.7,372.8 716.0,372.8 716.4,372.8 716.7,372.8 717.1,372.9 717.4,372.9 717.8,372.9 718.1,372.9 718.5,373.0 718.8,373.0 719.2,373.0 719.5,373.0 719.9,373.0 720.2,373.1 720.6,373.1 720.9,373.1 721.3,373.1 721.6,373.2 722.0,373.2 722.3,373.2 722.7,373.2 723.1,373.2 723.4,373.3 723.8,373.3 724.1,373.3 724.5,373.4 724.8,373.4 725.2,373.4 725.5,373.5 725.9,373.5 726.2,373.5 726.6,373.5 726.9,373.5 727.3,373.6 727.6,373.6 728.0,373.6 728.3,373.6 728.7,373.7 729.0,373.7 729.4,373.7 729.7,373.7 730.1,373.8 730.5,373.8 730.8,373.8 731.2,373.8 731.5,373.9 731.9,373.9 732.2,373.9 732.6,373.9 732.9,373.9 733.3,374.0 733.6,374.0 734.0,374.0 734.3,374.0 734.7,374.1 735.0,374.1 735.4,374.1 735.7,374.1 736.1,374.1 736.4,374.2 736.8,374.2 737.1,374.2 737.5,374.2 737.9,374.3 738.2,374.3 738.6,374.3 738.9,374.3 739.3,374.3 739.6,374.4 740.0,374.4 740.3,374.4 740.7,374.4 741.0,374.5 741.4,374.5 741.7,374.5 742.1,374.5 742.4,374.5 742.8,374.6 743.1,374.6 743.5,374.6 743.8,374.6 744.2,374.7 744.6,374.7 744.9,374.7 745.3,374.7 745.6,374.7 746.0,374.8 746.3,374.8 746.7,374.8 747.0,374.8 747.4,374.9 747.7,374.9 748.1,374.9 748.4,374.9 748.8,374.9 749.1,375.0 749.5,375.0 749.8,375.0 750.2,375.0 750.5,375.0 750.9,375.1 751.2,375.1 751.6,375.1 752.0,375.1 752.3,375.2 752.7,375.2 753.0,375.2 753.4,375.3 753.7,375.3 754.1,375.3 754.4,375.3 754.8,375.4 755.1,375.4 755.5,375.4 755.8,375.4 756.2,375.5 756.5,375.5 756.9,375.5 757.2,375.5 757.6,375.5 757.9,375.6 758.3,375.6 758.6,375.6 759.0,375.6 759.4,375.7 759.7,375.7 760.1,375.7 760.4,375.7 760.8,375.7 761.1,375.8 761.5,375.8 761.8,375.8 762.2,375.8 762.5,375.8 762.9,375.9 763.2,375.9 763.6,375.9 763.9,375.9 764.3,376.0 764.6,376.0 765.0,376.0 765.3,376.0 765.7,376.0 766.0,376.1 766.4,376.1 766.8,376.1 767.1,376.1 767.5,376.1 767.8,376.2 768.2,376.2 768.5,376.2 768.9,376.2 769.2,376.3 769.6,376.3 769.9,376.3 770.3,376.3 770.6,376.3 771.0,376.4 771.3,376.4 771.7,376.4 772.0,376.4 772.4,376.4 772.7,376.5 773.1,376.5 773.4,376.5 773.8,376.5 774.2,376.5 774.5,376.6 774.9,376.6 775.2,376.6 775.6,376.6 775.9,376.6 776.3,376.7 776.6,376.7 777.0,376.7 777.3,376.7 777.7,376.7 778.0,376.8 778.4,376.8 778.7,376.8 779.1,376.8 779.4,376.9 779.8,376.9 780.1,376.9 780.5,376.9 780.9,376.9 781.2,377.0 781.6,377.0 782.3,377.0 782.6,377.1 783.0,377.1 783.3,377.1 783.7,377.1 784.0,377.1 784.4,377.1 784.7,377.1 785.1,377.2 785.4,377.2 785.8,377.2 786.1,377.1 786.5,377.1 786.8,377.1 787.2,377.1 787.5,377.1 787.9,377.1 788.3,377.1 788.6,377.2 789.0,377.2 789.3,377.2 789.7,377.2 790.0,377.2 790.4,377.2 790.7,377.2 791.1,377.2 791.4,377.2 791.8,377.2 792.1,377.2 792.5,377.2 792.8,377.2 793.2,377.2 793.5,377.2 793.9,377.2 794.2,377.2 794.6,377.2 794.9,377.2 795.3,377.2 795.7,377.2 796.0,377.3 796.4,377.3 796.7,377.3 797.1,377.3 797.4,377.3 797.8,377.3 798.1,377.3 798.5,377.3 798.8,377.3 799.2,377.3 799.5,377.3 799.9,377.3 800.2,377.3 800.6,377.3 800.9,377.3 801.3,377.3 801.6,377.3 802.0,377.3 802.3,377.3 802.7,377.3 803.1,377.3 803.4,377.3 803.8,377.3 804.1,377.3 804.5,377.3 804.8,377.3 805.2,377.4 805.5,377.4 805.9,377.4 806.2,377.4 806.6,377.4 806.9,377.4 807.3,377.4 807.6,377.4 808.0,377.4 808.3,377.4 808.7,377.4 809.0,377.4 809.4,377.4 809.8,377.4 810.1,377.4 810.5,377.4 810.8,377.4 811.2,377.4 811.5,377.4 811.9,377.4 812.2,377.4 812.6,377.4 812.9,377.4 813.3,377.4 813.6,377.4 814.0,377.4 814.3,377.4 814.7,377.4 815.0,377.4 815.4,377.5 815.7,377.5 816.1,377.5 816.4,377.5 816.8,377.5 817.2,377.5 817.5,377.5 817.9,377.5 818.2,377.5 818.6,377.5 818.9,377.5 819.3,377.5 819.6,377.5 820.0,377.6 820.3,377.6 820.7,377.6 821.0,377.6 821.4,377.6 821.7,377.6 822.1,377.6 822.4,377.6 822.8,377.6 823.1,377.6 823.5,377.6 823.8,377.6 824.2,377.6 824.6,377.6 824.9,377.6 825.3,377.6 825.6,377.6 826.0,377.6 826.3,377.6 826.7,377.6 827.0,377.6 827.4,377.6 827.7,377.6 828.1,377.6 828.4,377.7 828.8,377.7 829.1,377.7 829.5,377.7 829.8,377.7 830.2,377.7 830.5,377.7 830.9,377.7 831.2,377.7 831.6,377.7 832.0,377.7 832.3,377.7 832.7,377.7 833.0,377.7 833.4,377.7 833.7,377.7 834.1,377.7 834.4,377.7 834.8,377.7 835.1,377.7 835.5,377.7 835.8,377.7 836.2,377.7 836.5,377.7 836.9,377.7 837.2,377.7 837.6,377.7 837.9,377.7 838.3,377.8 838.7,377.8 839.0,377.8 839.4,377.8 839.7,377.8 840.1,377.8 840.4,377.8 840.8,377.8 841.1,377.8 841.5,377.8 841.8,377.8 842.2,377.8 842.5,377.8 842.9,377.8 843.2,377.8 843.6,377.8 843.9,377.8 844.3,377.8 844.6,377.8 845.0,377.8 845.3,377.9 845.7,377.9 846.1,377.9 846.4,377.9 846.8,377.9 847.1,377.9 847.5,377.9 847.8,377.9 848.2,377.9 848.5,377.9 848.9,377.9 849.2,377.9 849.6,377.9 849.9,377.9 850.3,377.9 850.6,377.9 851.0,377.9 851.3,377.9 851.7,377.9 852.0,378.0 852.4,378.0 852.7,378.0 853.1,378.0 853.5,378.0 853.8,378.0 854.2,378.0 854.5,378.0 854.9,378.0 855.2,378.0 855.6,378.0 855.9,378.0 856.3,378.0 856.6,378.0 857.0,378.0 857.3,378.0 857.7,378.0 858.0,378.0 858.4,378.0 858.7,378.0 859.1,378.0 859.4,378.0 859.8,378.0 860.1,378.0 860.5,378.0 860.9,378.0 861.2,378.0 861.6,378.1 861.9,378.1 862.3,378.1 862.6,378.1 863.0,378.1 863.3,378.1 863.7,378.1 864.0,378.1 864.4,378.1 864.7,378.1 865.1,378.1 865.4,378.1 865.8,378.1 866.1,378.1 866.5,378.1 866.8,378.1 867.2,378.1 867.6,378.1 867.9,378.1 868.3,378.1 868.6,378.1 869.0,378.1 869.3,378.1 869.7,378.1 870.0,378.1 870.4,378.1 870.7,378.1 871.1,378.1 871.4,378.1 871.8,378.2 872.1,378.2 872.5,378.2 872.8,378.2 873.2,378.2 873.5,378.2 873.9,378.2 874.2,378.2 874.6,378.2 875.0,378.2 875.3,378.2 875.7,378.2 876.0,378.2 876.4,378.3 876.7,378.3 877.1,378.3 877.4,378.3 877.8,378.3 878.1,378.3 878.5,378.3 878.8,378.3 879.2,378.3 879.5,378.3 879.9,378.3 880.2,378.3 880.6,378.3 880.9,378.3 881.3,378.3 881.6,378.3 882.0,378.3"><title>Balloon: reported altitude</title></polyline>
<text class="lbl" x="62.0" y="389" text-anchor="middle">150s</text>
<text class="lbl" x="267.0" y="389" text-anchor="middle">324s</text>
<text class="lbl" x="472.0" y="389" text-anchor="middle">499s</text>
<text class="lbl" x="677.0" y="389" text-anchor="middle">674s</text>
<text class="lbl" x="882.0" y="389" text-anchor="middle">848s</text>
<text class="ttl" x="62" y="408">lock state</text>
<rect x="62.0" y="416.0" width="38.5" height="14" fill="var(--fix, #0E7C66)"><title>Normal (as shipped): FIX 150.0-182.8 s</title></rect>
<rect x="100.5" y="416.0" width="30.1" height="14" fill="var(--wrongfix, #6D3FA8)"><title>Normal (as shipped): WRONG 182.8-208.4 s</title></rect>
<rect x="130.6" y="416.0" width="2.1" height="14" fill="var(--fix, #0E7C66)"><title>Normal (as shipped): FIX 208.4-210.2 s</title></rect>
<rect x="198.9" y="416.0" width="1.0" height="14" fill="var(--blocked, #A2660A)"><title>Normal (as shipped): BLOCKED 266.5-267.2 s</title></rect>
<rect x="199.7" y="416.0" width="2.3" height="14" fill="var(--nolock, #9B3535)"><title>Normal (as shipped): NO_LOCK 267.2-269.2 s</title></rect>
<rect x="202.0" y="416.0" width="2.3" height="14" fill="var(--blocked, #A2660A)"><title>Normal (as shipped): BLOCKED 269.2-271.2 s</title></rect>
<rect x="204.4" y="416.0" width="1.2" height="14" fill="var(--nolock, #9B3535)"><title>Normal (as shipped): NO_LOCK 271.2-272.2 s</title></rect>
<rect x="205.6" y="416.0" width="1.2" height="14" fill="var(--blocked, #A2660A)"><title>Normal (as shipped): BLOCKED 272.2-273.2 s</title></rect>
<rect x="206.7" y="416.0" width="1.2" height="14" fill="var(--nolock, #9B3535)"><title>Normal (as shipped): NO_LOCK 273.2-274.2 s</title></rect>
<rect x="207.9" y="416.0" width="2.3" height="14" fill="var(--blocked, #A2660A)"><title>Normal (as shipped): BLOCKED 274.2-276.2 s</title></rect>
<rect x="210.3" y="416.0" width="1.2" height="14" fill="var(--nolock, #9B3535)"><title>Normal (as shipped): NO_LOCK 276.2-277.2 s</title></rect>
<rect x="211.4" y="416.0" width="1.2" height="14" fill="var(--blocked, #A2660A)"><title>Normal (as shipped): BLOCKED 277.2-278.2 s</title></rect>
<rect x="212.6" y="416.0" width="1.2" height="14" fill="var(--nolock, #9B3535)"><title>Normal (as shipped): NO_LOCK 278.2-279.2 s</title></rect>
<rect x="213.8" y="416.0" width="4.7" height="14" fill="var(--blocked, #A2660A)"><title>Normal (as shipped): BLOCKED 279.2-283.2 s</title></rect>
<rect x="218.5" y="416.0" width="1.2" height="14" fill="var(--nolock, #9B3535)"><title>Normal (as shipped): NO_LOCK 283.2-284.2 s</title></rect>
<rect x="219.7" y="416.0" width="1.2" height="14" fill="var(--blocked, #A2660A)"><title>Normal (as shipped): BLOCKED 284.2-285.2 s</title></rect>
<rect x="220.8" y="416.0" width="1.2" height="14" fill="var(--nolock, #9B3535)"><title>Normal (as shipped): NO_LOCK 285.2-286.2 s</title></rect>
<rect x="222.0" y="416.0" width="1.2" height="14" fill="var(--blocked, #A2660A)"><title>Normal (as shipped): BLOCKED 286.2-287.2 s</title></rect>
<rect x="223.2" y="416.0" width="1.2" height="14" fill="var(--nolock, #9B3535)"><title>Normal (as shipped): NO_LOCK 287.2-288.2 s</title></rect>
<rect x="224.4" y="416.0" width="16.4" height="14" fill="var(--blocked, #A2660A)"><title>Normal (as shipped): BLOCKED 288.2-302.2 s</title></rect>
<rect x="240.8" y="416.0" width="1.2" height="14" fill="var(--nolock, #9B3535)"><title>Normal (as shipped): NO_LOCK 302.2-303.2 s</title></rect>
<rect x="242.0" y="416.0" width="12.9" height="14" fill="var(--blocked, #A2660A)"><title>Normal (as shipped): BLOCKED 303.2-314.2 s</title></rect>
<rect x="254.9" y="416.0" width="1.2" height="14" fill="var(--nolock, #9B3535)"><title>Normal (as shipped): NO_LOCK 314.2-315.2 s</title></rect>
<rect x="256.1" y="416.0" width="12.9" height="14" fill="var(--blocked, #A2660A)"><title>Normal (as shipped): BLOCKED 315.2-326.2 s</title></rect>
<rect x="269.0" y="416.0" width="1.2" height="14" fill="var(--nolock, #9B3535)"><title>Normal (as shipped): NO_LOCK 326.2-327.2 s</title></rect>
<rect x="270.2" y="416.0" width="12.9" height="14" fill="var(--blocked, #A2660A)"><title>Normal (as shipped): BLOCKED 327.2-338.2 s</title></rect>
<rect x="283.1" y="416.0" width="4.7" height="14" fill="var(--nolock, #9B3535)"><title>Normal (as shipped): NO_LOCK 338.2-342.2 s</title></rect>
<rect x="287.8" y="416.0" width="51.7" height="14" fill="var(--blocked, #A2660A)"><title>Normal (as shipped): BLOCKED 342.2-386.2 s</title></rect>
<rect x="339.5" y="416.0" width="372.5" height="14" fill="var(--nolock, #9B3535)"><title>Normal (as shipped): NO_LOCK 386.2-703.3 s</title></rect>
<rect x="712.0" y="416.0" width="29.4" height="14" fill="var(--blocked, #A2660A)"><title>Normal (as shipped): BLOCKED 703.3-728.3 s</title></rect>
<rect x="741.4" y="416.0" width="1.2" height="14" fill="var(--nolock, #9B3535)"><title>Normal (as shipped): NO_LOCK 728.3-729.3 s</title></rect>
<rect x="742.6" y="416.0" width="18.8" height="14" fill="var(--blocked, #A2660A)"><title>Normal (as shipped): BLOCKED 729.3-745.3 s</title></rect>
<rect x="761.3" y="416.0" width="1.2" height="14" fill="var(--nolock, #9B3535)"><title>Normal (as shipped): NO_LOCK 745.3-746.3 s</title></rect>
<rect x="762.5" y="416.0" width="20.0" height="14" fill="var(--blocked, #A2660A)"><title>Normal (as shipped): BLOCKED 746.3-763.3 s</title></rect>
<rect x="782.5" y="416.0" width="1.2" height="14" fill="var(--nolock, #9B3535)"><title>Normal (as shipped): NO_LOCK 763.3-764.3 s</title></rect>
<rect x="783.7" y="416.0" width="98.3" height="14" fill="var(--blocked, #A2660A)"><title>Normal (as shipped): BLOCKED 764.3-848.0 s</title></rect>
<rect x="132.8" y="416.0" width="66.1" height="14" fill="var(--rule-strong, #C3CAD5)"><title>Normal (as shipped): SILENT 210.2-266.5 s</title></rect>
<rect x="8" y="419.0" width="10" height="8" fill="var(--mode-normal, #eb6834)"/>
<text class="lbl" x="22" y="427.0">Normal</text>
<rect x="62.0" y="438.0" width="70.7" height="14" fill="var(--fix, #0E7C66)"><title>Balloon: FIX 150.0-210.2 s</title></rect>
<rect x="228.1" y="438.0" width="40.1" height="14" fill="var(--fix, #0E7C66)"><title>Balloon: FIX 291.4-325.5 s</title></rect>
<rect x="309.8" y="438.0" width="41.2" height="14" fill="var(--fix, #0E7C66)"><title>Balloon: FIX 360.9-396.0 s</title></rect>
<rect x="421.4" y="438.0" width="360.3" height="14" fill="var(--fix, #0E7C66)"><title>Balloon: FIX 455.9-762.6 s</title></rect>
<rect x="781.7" y="438.0" width="1.0" height="14" fill="var(--blocked, #A2660A)"><title>Balloon: BLOCKED 762.6-762.9 s</title></rect>
<rect x="782.0" y="438.0" width="100.0" height="14" fill="var(--fix, #0E7C66)"><title>Balloon: FIX 762.9-848.0 s</title></rect>
<rect x="132.7" y="438.0" width="95.4" height="14" fill="var(--rule-strong, #C3CAD5)"><title>Balloon: SILENT 210.2-291.4 s</title></rect>
<rect x="268.2" y="438.0" width="41.6" height="14" fill="var(--rule-strong, #C3CAD5)"><title>Balloon: SILENT 325.5-360.9 s</title></rect>
<rect x="351.0" y="438.0" width="70.4" height="14" fill="var(--rule-strong, #C3CAD5)"><title>Balloon: SILENT 396.0-455.9 s</title></rect>
<rect x="8" y="441.0" width="10" height="8" fill="var(--mode-balloon, #2a78d6)"/>
<text class="lbl" x="22" y="449.0">Balloon</text>
<line x1="62" y1="491" x2="78" y2="491" stroke="var(--ink-2, #4A5261)" stroke-width="2"/>
<text class="lbl" x="84" y="494">injected trajectory (ground truth)</text>
<line x1="62" y1="505" x2="78" y2="505" stroke="var(--mode-normal, #eb6834)" stroke-width="2"/>
<text class="lbl" x="84" y="508">Normal (as shipped): reported, valid fixes only</text>
<line x1="62" y1="519" x2="78" y2="519" stroke="var(--mode-balloon, #2a78d6)" stroke-width="2"/>
<text class="lbl" x="84" y="522">Balloon: reported, valid fixes only</text>
<rect x="62" y="535" width="16" height="8" fill="var(--fix, #0E7C66)"/>
<text class="lbl" x="84" y="542">FIX</text>
<rect x="212" y="535" width="16" height="8" fill="var(--wrongfix, #6D3FA8)"/>
<text class="lbl" x="234" y="542">WRONG fix</text>
<rect x="362" y="535" width="16" height="8" fill="var(--blocked, #A2660A)"/>
<text class="lbl" x="384" y="542">BLOCKED</text>
<rect x="512" y="535" width="16" height="8" fill="var(--nolock, #9B3535)"/>
<text class="lbl" x="534" y="542">NO_LOCK</text>
<rect x="662" y="535" width="16" height="8" fill="var(--rule-strong, #C3CAD5)"/>
<text class="lbl" x="684" y="542">SILENT, no output</text>
</svg>
