%TF.GenerationSoftware,KiCad,Pcbnew,10.0.3*%
%TF.CreationDate,2026-07-20T20:50:47-04:00*%
%TF.ProjectId,PX1105R_18mm_HighPower_External_Ant,50583131-3035-4525-9f31-386d6d5f4869,rev?*%
%TF.SameCoordinates,Original*%
%TF.FileFunction,Legend,Top*%
%TF.FilePolarity,Positive*%
%FSLAX46Y46*%
G04 Gerber Fmt 4.6, Leading zero omitted, Abs format (unit mm)*
G04 Created by KiCad (PCBNEW 10.0.3) date 2026-07-20 20:50:47*
%MOMM*%
%LPD*%
G01*
G04 APERTURE LIST*
%ADD10C,0.200000*%
%ADD11C,0.120000*%
%ADD12C,0.127000*%
%ADD13C,0.100000*%
%ADD14C,0.152400*%
G04 APERTURE END LIST*
D10*
X47436816Y-30647331D02*
X48008244Y-30647331D01*
X47722530Y-31647331D02*
X47722530Y-30647331D01*
X48341578Y-31647331D02*
X48341578Y-30980664D01*
X48341578Y-30647331D02*
X48293959Y-30694950D01*
X48293959Y-30694950D02*
X48341578Y-30742569D01*
X48341578Y-30742569D02*
X48389197Y-30694950D01*
X48389197Y-30694950D02*
X48341578Y-30647331D01*
X48341578Y-30647331D02*
X48341578Y-30742569D01*
X48817768Y-30980664D02*
X48817768Y-31647331D01*
X48817768Y-31075902D02*
X48865387Y-31028283D01*
X48865387Y-31028283D02*
X48960625Y-30980664D01*
X48960625Y-30980664D02*
X49103482Y-30980664D01*
X49103482Y-30980664D02*
X49198720Y-31028283D01*
X49198720Y-31028283D02*
X49246339Y-31123521D01*
X49246339Y-31123521D02*
X49246339Y-31647331D01*
X49722530Y-31647331D02*
X49722530Y-30647331D01*
X49817768Y-31266378D02*
X50103482Y-31647331D01*
X50103482Y-30980664D02*
X49722530Y-31361616D01*
X50913006Y-31599712D02*
X50817768Y-31647331D01*
X50817768Y-31647331D02*
X50627292Y-31647331D01*
X50627292Y-31647331D02*
X50532054Y-31599712D01*
X50532054Y-31599712D02*
X50484435Y-31504473D01*
X50484435Y-31504473D02*
X50484435Y-31123521D01*
X50484435Y-31123521D02*
X50532054Y-31028283D01*
X50532054Y-31028283D02*
X50627292Y-30980664D01*
X50627292Y-30980664D02*
X50817768Y-30980664D01*
X50817768Y-30980664D02*
X50913006Y-31028283D01*
X50913006Y-31028283D02*
X50960625Y-31123521D01*
X50960625Y-31123521D02*
X50960625Y-31218759D01*
X50960625Y-31218759D02*
X50484435Y-31313997D01*
X51389197Y-31647331D02*
X51389197Y-30980664D01*
X51389197Y-31171140D02*
X51436816Y-31075902D01*
X51436816Y-31075902D02*
X51484435Y-31028283D01*
X51484435Y-31028283D02*
X51579673Y-30980664D01*
X51579673Y-30980664D02*
X51674911Y-30980664D01*
X52579673Y-31647331D02*
X52246340Y-31171140D01*
X52008245Y-31647331D02*
X52008245Y-30647331D01*
X52008245Y-30647331D02*
X52389197Y-30647331D01*
X52389197Y-30647331D02*
X52484435Y-30694950D01*
X52484435Y-30694950D02*
X52532054Y-30742569D01*
X52532054Y-30742569D02*
X52579673Y-30837807D01*
X52579673Y-30837807D02*
X52579673Y-30980664D01*
X52579673Y-30980664D02*
X52532054Y-31075902D01*
X52532054Y-31075902D02*
X52484435Y-31123521D01*
X52484435Y-31123521D02*
X52389197Y-31171140D01*
X52389197Y-31171140D02*
X52008245Y-31171140D01*
X53151102Y-31647331D02*
X53055864Y-31599712D01*
X53055864Y-31599712D02*
X53008245Y-31552092D01*
X53008245Y-31552092D02*
X52960626Y-31456854D01*
X52960626Y-31456854D02*
X52960626Y-31171140D01*
X52960626Y-31171140D02*
X53008245Y-31075902D01*
X53008245Y-31075902D02*
X53055864Y-31028283D01*
X53055864Y-31028283D02*
X53151102Y-30980664D01*
X53151102Y-30980664D02*
X53293959Y-30980664D01*
X53293959Y-30980664D02*
X53389197Y-31028283D01*
X53389197Y-31028283D02*
X53436816Y-31075902D01*
X53436816Y-31075902D02*
X53484435Y-31171140D01*
X53484435Y-31171140D02*
X53484435Y-31456854D01*
X53484435Y-31456854D02*
X53436816Y-31552092D01*
X53436816Y-31552092D02*
X53389197Y-31599712D01*
X53389197Y-31599712D02*
X53293959Y-31647331D01*
X53293959Y-31647331D02*
X53151102Y-31647331D01*
X54341578Y-31599712D02*
X54246340Y-31647331D01*
X54246340Y-31647331D02*
X54055864Y-31647331D01*
X54055864Y-31647331D02*
X53960626Y-31599712D01*
X53960626Y-31599712D02*
X53913007Y-31552092D01*
X53913007Y-31552092D02*
X53865388Y-31456854D01*
X53865388Y-31456854D02*
X53865388Y-31171140D01*
X53865388Y-31171140D02*
X53913007Y-31075902D01*
X53913007Y-31075902D02*
X53960626Y-31028283D01*
X53960626Y-31028283D02*
X54055864Y-30980664D01*
X54055864Y-30980664D02*
X54246340Y-30980664D01*
X54246340Y-30980664D02*
X54341578Y-31028283D01*
X54770150Y-31647331D02*
X54770150Y-30647331D01*
X54865388Y-31266378D02*
X55151102Y-31647331D01*
X55151102Y-30980664D02*
X54770150Y-31361616D01*
X55960626Y-31599712D02*
X55865388Y-31647331D01*
X55865388Y-31647331D02*
X55674912Y-31647331D01*
X55674912Y-31647331D02*
X55579674Y-31599712D01*
X55579674Y-31599712D02*
X55532055Y-31504473D01*
X55532055Y-31504473D02*
X55532055Y-31123521D01*
X55532055Y-31123521D02*
X55579674Y-31028283D01*
X55579674Y-31028283D02*
X55674912Y-30980664D01*
X55674912Y-30980664D02*
X55865388Y-30980664D01*
X55865388Y-30980664D02*
X55960626Y-31028283D01*
X55960626Y-31028283D02*
X56008245Y-31123521D01*
X56008245Y-31123521D02*
X56008245Y-31218759D01*
X56008245Y-31218759D02*
X55532055Y-31313997D01*
X56293960Y-30980664D02*
X56674912Y-30980664D01*
X56436817Y-30647331D02*
X56436817Y-31504473D01*
X56436817Y-31504473D02*
X56484436Y-31599712D01*
X56484436Y-31599712D02*
X56579674Y-31647331D01*
X56579674Y-31647331D02*
X56674912Y-31647331D01*
X48055863Y-33257275D02*
X47579673Y-33257275D01*
X47579673Y-33257275D02*
X47579673Y-32257275D01*
X48532054Y-33257275D02*
X48436816Y-33209656D01*
X48436816Y-33209656D02*
X48389197Y-33162036D01*
X48389197Y-33162036D02*
X48341578Y-33066798D01*
X48341578Y-33066798D02*
X48341578Y-32781084D01*
X48341578Y-32781084D02*
X48389197Y-32685846D01*
X48389197Y-32685846D02*
X48436816Y-32638227D01*
X48436816Y-32638227D02*
X48532054Y-32590608D01*
X48532054Y-32590608D02*
X48674911Y-32590608D01*
X48674911Y-32590608D02*
X48770149Y-32638227D01*
X48770149Y-32638227D02*
X48817768Y-32685846D01*
X48817768Y-32685846D02*
X48865387Y-32781084D01*
X48865387Y-32781084D02*
X48865387Y-33066798D01*
X48865387Y-33066798D02*
X48817768Y-33162036D01*
X48817768Y-33162036D02*
X48770149Y-33209656D01*
X48770149Y-33209656D02*
X48674911Y-33257275D01*
X48674911Y-33257275D02*
X48532054Y-33257275D01*
X49865387Y-33257275D02*
X49532054Y-32781084D01*
X49293959Y-33257275D02*
X49293959Y-32257275D01*
X49293959Y-32257275D02*
X49674911Y-32257275D01*
X49674911Y-32257275D02*
X49770149Y-32304894D01*
X49770149Y-32304894D02*
X49817768Y-32352513D01*
X49817768Y-32352513D02*
X49865387Y-32447751D01*
X49865387Y-32447751D02*
X49865387Y-32590608D01*
X49865387Y-32590608D02*
X49817768Y-32685846D01*
X49817768Y-32685846D02*
X49770149Y-32733465D01*
X49770149Y-32733465D02*
X49674911Y-32781084D01*
X49674911Y-32781084D02*
X49293959Y-32781084D01*
X50722530Y-33257275D02*
X50722530Y-32733465D01*
X50722530Y-32733465D02*
X50674911Y-32638227D01*
X50674911Y-32638227D02*
X50579673Y-32590608D01*
X50579673Y-32590608D02*
X50389197Y-32590608D01*
X50389197Y-32590608D02*
X50293959Y-32638227D01*
X50722530Y-33209656D02*
X50627292Y-33257275D01*
X50627292Y-33257275D02*
X50389197Y-33257275D01*
X50389197Y-33257275D02*
X50293959Y-33209656D01*
X50293959Y-33209656D02*
X50246340Y-33114417D01*
X50246340Y-33114417D02*
X50246340Y-33019179D01*
X50246340Y-33019179D02*
X50293959Y-32923941D01*
X50293959Y-32923941D02*
X50389197Y-32876322D01*
X50389197Y-32876322D02*
X50627292Y-32876322D01*
X50627292Y-32876322D02*
X50722530Y-32828703D01*
X52293959Y-32733465D02*
X52436816Y-32781084D01*
X52436816Y-32781084D02*
X52484435Y-32828703D01*
X52484435Y-32828703D02*
X52532054Y-32923941D01*
X52532054Y-32923941D02*
X52532054Y-33066798D01*
X52532054Y-33066798D02*
X52484435Y-33162036D01*
X52484435Y-33162036D02*
X52436816Y-33209656D01*
X52436816Y-33209656D02*
X52341578Y-33257275D01*
X52341578Y-33257275D02*
X51960626Y-33257275D01*
X51960626Y-33257275D02*
X51960626Y-32257275D01*
X51960626Y-32257275D02*
X52293959Y-32257275D01*
X52293959Y-32257275D02*
X52389197Y-32304894D01*
X52389197Y-32304894D02*
X52436816Y-32352513D01*
X52436816Y-32352513D02*
X52484435Y-32447751D01*
X52484435Y-32447751D02*
X52484435Y-32542989D01*
X52484435Y-32542989D02*
X52436816Y-32638227D01*
X52436816Y-32638227D02*
X52389197Y-32685846D01*
X52389197Y-32685846D02*
X52293959Y-32733465D01*
X52293959Y-32733465D02*
X51960626Y-32733465D01*
X53103483Y-33257275D02*
X53008245Y-33209656D01*
X53008245Y-33209656D02*
X52960626Y-33162036D01*
X52960626Y-33162036D02*
X52913007Y-33066798D01*
X52913007Y-33066798D02*
X52913007Y-32781084D01*
X52913007Y-32781084D02*
X52960626Y-32685846D01*
X52960626Y-32685846D02*
X53008245Y-32638227D01*
X53008245Y-32638227D02*
X53103483Y-32590608D01*
X53103483Y-32590608D02*
X53246340Y-32590608D01*
X53246340Y-32590608D02*
X53341578Y-32638227D01*
X53341578Y-32638227D02*
X53389197Y-32685846D01*
X53389197Y-32685846D02*
X53436816Y-32781084D01*
X53436816Y-32781084D02*
X53436816Y-33066798D01*
X53436816Y-33066798D02*
X53389197Y-33162036D01*
X53389197Y-33162036D02*
X53341578Y-33209656D01*
X53341578Y-33209656D02*
X53246340Y-33257275D01*
X53246340Y-33257275D02*
X53103483Y-33257275D01*
X54293959Y-33257275D02*
X54293959Y-32733465D01*
X54293959Y-32733465D02*
X54246340Y-32638227D01*
X54246340Y-32638227D02*
X54151102Y-32590608D01*
X54151102Y-32590608D02*
X53960626Y-32590608D01*
X53960626Y-32590608D02*
X53865388Y-32638227D01*
X54293959Y-33209656D02*
X54198721Y-33257275D01*
X54198721Y-33257275D02*
X53960626Y-33257275D01*
X53960626Y-33257275D02*
X53865388Y-33209656D01*
X53865388Y-33209656D02*
X53817769Y-33114417D01*
X53817769Y-33114417D02*
X53817769Y-33019179D01*
X53817769Y-33019179D02*
X53865388Y-32923941D01*
X53865388Y-32923941D02*
X53960626Y-32876322D01*
X53960626Y-32876322D02*
X54198721Y-32876322D01*
X54198721Y-32876322D02*
X54293959Y-32828703D01*
X54770150Y-33257275D02*
X54770150Y-32590608D01*
X54770150Y-32781084D02*
X54817769Y-32685846D01*
X54817769Y-32685846D02*
X54865388Y-32638227D01*
X54865388Y-32638227D02*
X54960626Y-32590608D01*
X54960626Y-32590608D02*
X55055864Y-32590608D01*
X55817769Y-33257275D02*
X55817769Y-32257275D01*
X55817769Y-33209656D02*
X55722531Y-33257275D01*
X55722531Y-33257275D02*
X55532055Y-33257275D01*
X55532055Y-33257275D02*
X55436817Y-33209656D01*
X55436817Y-33209656D02*
X55389198Y-33162036D01*
X55389198Y-33162036D02*
X55341579Y-33066798D01*
X55341579Y-33066798D02*
X55341579Y-32781084D01*
X55341579Y-32781084D02*
X55389198Y-32685846D01*
X55389198Y-32685846D02*
X55436817Y-32638227D01*
X55436817Y-32638227D02*
X55532055Y-32590608D01*
X55532055Y-32590608D02*
X55722531Y-32590608D01*
X55722531Y-32590608D02*
X55817769Y-32638227D01*
X47436816Y-33867219D02*
X47770149Y-34867219D01*
X47770149Y-34867219D02*
X48103482Y-33867219D01*
X48389197Y-33962457D02*
X48436816Y-33914838D01*
X48436816Y-33914838D02*
X48532054Y-33867219D01*
X48532054Y-33867219D02*
X48770149Y-33867219D01*
X48770149Y-33867219D02*
X48865387Y-33914838D01*
X48865387Y-33914838D02*
X48913006Y-33962457D01*
X48913006Y-33962457D02*
X48960625Y-34057695D01*
X48960625Y-34057695D02*
X48960625Y-34152933D01*
X48960625Y-34152933D02*
X48913006Y-34295790D01*
X48913006Y-34295790D02*
X48341578Y-34867219D01*
X48341578Y-34867219D02*
X48960625Y-34867219D01*
X60749673Y-38527219D02*
X60749673Y-37527219D01*
X60749673Y-37527219D02*
X61130625Y-37527219D01*
X61130625Y-37527219D02*
X61225863Y-37574838D01*
X61225863Y-37574838D02*
X61273482Y-37622457D01*
X61273482Y-37622457D02*
X61321101Y-37717695D01*
X61321101Y-37717695D02*
X61321101Y-37860552D01*
X61321101Y-37860552D02*
X61273482Y-37955790D01*
X61273482Y-37955790D02*
X61225863Y-38003409D01*
X61225863Y-38003409D02*
X61130625Y-38051028D01*
X61130625Y-38051028D02*
X60749673Y-38051028D01*
X61654435Y-37527219D02*
X61892530Y-38527219D01*
X61892530Y-38527219D02*
X62083006Y-37812933D01*
X62083006Y-37812933D02*
X62273482Y-38527219D01*
X62273482Y-38527219D02*
X62511578Y-37527219D01*
X63463958Y-38527219D02*
X63130625Y-38051028D01*
X62892530Y-38527219D02*
X62892530Y-37527219D01*
X62892530Y-37527219D02*
X63273482Y-37527219D01*
X63273482Y-37527219D02*
X63368720Y-37574838D01*
X63368720Y-37574838D02*
X63416339Y-37622457D01*
X63416339Y-37622457D02*
X63463958Y-37717695D01*
X63463958Y-37717695D02*
X63463958Y-37860552D01*
X63463958Y-37860552D02*
X63416339Y-37955790D01*
X63416339Y-37955790D02*
X63368720Y-38003409D01*
X63368720Y-38003409D02*
X63273482Y-38051028D01*
X63273482Y-38051028D02*
X62892530Y-38051028D01*
X60919673Y-43377219D02*
X60919673Y-42377219D01*
X60919673Y-42377219D02*
X61300625Y-42377219D01*
X61300625Y-42377219D02*
X61395863Y-42424838D01*
X61395863Y-42424838D02*
X61443482Y-42472457D01*
X61443482Y-42472457D02*
X61491101Y-42567695D01*
X61491101Y-42567695D02*
X61491101Y-42710552D01*
X61491101Y-42710552D02*
X61443482Y-42805790D01*
X61443482Y-42805790D02*
X61395863Y-42853409D01*
X61395863Y-42853409D02*
X61300625Y-42901028D01*
X61300625Y-42901028D02*
X60919673Y-42901028D01*
X61919673Y-43377219D02*
X61919673Y-42377219D01*
X61919673Y-42377219D02*
X62300625Y-42377219D01*
X62300625Y-42377219D02*
X62395863Y-42424838D01*
X62395863Y-42424838D02*
X62443482Y-42472457D01*
X62443482Y-42472457D02*
X62491101Y-42567695D01*
X62491101Y-42567695D02*
X62491101Y-42710552D01*
X62491101Y-42710552D02*
X62443482Y-42805790D01*
X62443482Y-42805790D02*
X62395863Y-42853409D01*
X62395863Y-42853409D02*
X62300625Y-42901028D01*
X62300625Y-42901028D02*
X61919673Y-42901028D01*
X62872054Y-43329600D02*
X63014911Y-43377219D01*
X63014911Y-43377219D02*
X63253006Y-43377219D01*
X63253006Y-43377219D02*
X63348244Y-43329600D01*
X63348244Y-43329600D02*
X63395863Y-43281980D01*
X63395863Y-43281980D02*
X63443482Y-43186742D01*
X63443482Y-43186742D02*
X63443482Y-43091504D01*
X63443482Y-43091504D02*
X63395863Y-42996266D01*
X63395863Y-42996266D02*
X63348244Y-42948647D01*
X63348244Y-42948647D02*
X63253006Y-42901028D01*
X63253006Y-42901028D02*
X63062530Y-42853409D01*
X63062530Y-42853409D02*
X62967292Y-42805790D01*
X62967292Y-42805790D02*
X62919673Y-42758171D01*
X62919673Y-42758171D02*
X62872054Y-42662933D01*
X62872054Y-42662933D02*
X62872054Y-42567695D01*
X62872054Y-42567695D02*
X62919673Y-42472457D01*
X62919673Y-42472457D02*
X62967292Y-42424838D01*
X62967292Y-42424838D02*
X63062530Y-42377219D01*
X63062530Y-42377219D02*
X63300625Y-42377219D01*
X63300625Y-42377219D02*
X63443482Y-42424838D01*
%TO.C,FB1*%
X44730000Y-50310000D02*
X44730000Y-49710000D01*
X46130000Y-49710000D02*
X46130000Y-50310000D01*
%TO.C,C17*%
D11*
X46965000Y-48431252D02*
X46965000Y-47908748D01*
X48435000Y-48431252D02*
X48435000Y-47908748D01*
%TO.C,R6*%
X53310000Y-41036359D02*
X53310000Y-41343641D01*
X54070000Y-41036359D02*
X54070000Y-41343641D01*
%TO.C,C13*%
X44328748Y-44105000D02*
X44851252Y-44105000D01*
X44328748Y-45575000D02*
X44851252Y-45575000D01*
%TO.C,C15*%
X46925000Y-51548748D02*
X46925000Y-52071252D01*
X48395000Y-51548748D02*
X48395000Y-52071252D01*
%TO.C,L1*%
D12*
X49460000Y-36300000D02*
X43760000Y-36300000D01*
X49460000Y-41600000D02*
X43760000Y-41600000D01*
%TO.C,R3*%
D11*
X61936359Y-43670000D02*
X62243641Y-43670000D01*
X61936359Y-44430000D02*
X62243641Y-44430000D01*
%TO.C,U3*%
D10*
X52060000Y-41005000D02*
G75*
G02*
X51860000Y-41005000I-100000J0D01*
G01*
X51860000Y-41005000D02*
G75*
G02*
X52060000Y-41005000I100000J0D01*
G01*
%TO.C,FL1*%
D12*
X51250000Y-47180000D02*
X51250000Y-45180000D01*
X53090000Y-45180000D02*
X53090000Y-47180000D01*
D10*
X52690000Y-48030000D02*
G75*
G02*
X52490000Y-48030000I-100000J0D01*
G01*
X52490000Y-48030000D02*
G75*
G02*
X52690000Y-48030000I100000J0D01*
G01*
%TO.C,C10*%
D11*
X54668748Y-46545000D02*
X55191252Y-46545000D01*
X54668748Y-48015000D02*
X55191252Y-48015000D01*
%TO.C,D2*%
D13*
X61025000Y-45020000D02*
G75*
G02*
X60925000Y-45020000I-50000J0D01*
G01*
X60925000Y-45020000D02*
G75*
G02*
X61025000Y-45020000I50000J0D01*
G01*
%TO.C,R4*%
D11*
X49525000Y-43318641D02*
X49525000Y-43011359D01*
X50285000Y-43318641D02*
X50285000Y-43011359D01*
%TO.C,C11*%
X54742164Y-43500000D02*
X54957836Y-43500000D01*
X54742164Y-44220000D02*
X54957836Y-44220000D01*
%TO.C,C12*%
X54382164Y-42260000D02*
X54597836Y-42260000D01*
X54382164Y-42980000D02*
X54597836Y-42980000D01*
%TO.C,R7*%
X61966359Y-39870000D02*
X62273641Y-39870000D01*
X61966359Y-40630000D02*
X62273641Y-40630000D01*
%TO.C,C9*%
X54618748Y-44575000D02*
X55141252Y-44575000D01*
X54618748Y-46045000D02*
X55141252Y-46045000D01*
%TO.C,C16*%
X44738748Y-46075000D02*
X45261252Y-46075000D01*
X44738748Y-47545000D02*
X45261252Y-47545000D01*
%TO.C,R5*%
X54260000Y-41353641D02*
X54260000Y-41046359D01*
X55020000Y-41353641D02*
X55020000Y-41046359D01*
%TO.C,J4*%
D14*
X49377802Y-48923001D02*
X49377802Y-50664760D01*
X50347061Y-48923001D02*
X49377802Y-48923001D01*
X50690444Y-52783801D02*
X55329560Y-52783801D01*
X56642202Y-48923001D02*
X55672943Y-48923001D01*
X56642202Y-50664760D02*
X56642202Y-48923001D01*
%TO.C,C14*%
D11*
X44318748Y-42135000D02*
X44841252Y-42135000D01*
X44318748Y-43605000D02*
X44841252Y-43605000D01*
%TO.C,D3*%
D13*
X61100000Y-39250000D02*
G75*
G02*
X61000000Y-39250000I-50000J0D01*
G01*
X61000000Y-39250000D02*
G75*
G02*
X61100000Y-39250000I50000J0D01*
G01*
%TD*%
M02*
