%TF.GenerationSoftware,KiCad,Pcbnew,10.0.3*%
%TF.CreationDate,2026-07-20T20:50:47-04:00*%
%TF.ProjectId,PX1105R_18mm_HighPower_External_Ant,50583131-3035-4525-9f31-386d6d5f4869,rev?*%
%TF.SameCoordinates,Original*%
%TF.FileFunction,Copper,L4,Bot*%
%TF.FilePolarity,Positive*%
%FSLAX46Y46*%
G04 Gerber Fmt 4.6, Leading zero omitted, Abs format (unit mm)*
G04 Created by KiCad (PCBNEW 10.0.3) date 2026-07-20 20:50:47*
%MOMM*%
%LPD*%
G01*
G04 APERTURE LIST*
G04 Aperture macros list*
%AMRoundRect*
0 Rectangle with rounded corners*
0 $1 Rounding radius*
0 $2 $3 $4 $5 $6 $7 $8 $9 X,Y pos of 4 corners*
0 Add a 4 corners polygon primitive as box body*
4,1,4,$2,$3,$4,$5,$6,$7,$8,$9,$2,$3,0*
0 Add four circle primitives for the rounded corners*
1,1,$1+$1,$2,$3*
1,1,$1+$1,$4,$5*
1,1,$1+$1,$6,$7*
1,1,$1+$1,$8,$9*
0 Add four rect primitives between the rounded corners*
20,1,$1+$1,$2,$3,$4,$5,0*
20,1,$1+$1,$4,$5,$6,$7,0*
20,1,$1+$1,$6,$7,$8,$9,0*
20,1,$1+$1,$8,$9,$2,$3,0*%
G04 Aperture macros list end*
%TA.AperFunction,ComponentPad*%
%ADD10C,3.800000*%
%TD*%
%TA.AperFunction,SMDPad,CuDef*%
%ADD11RoundRect,0.140000X-0.140000X-0.170000X0.140000X-0.170000X0.140000X0.170000X-0.140000X0.170000X0*%
%TD*%
%TA.AperFunction,SMDPad,CuDef*%
%ADD12RoundRect,0.250000X0.250000X0.475000X-0.250000X0.475000X-0.250000X-0.475000X0.250000X-0.475000X0*%
%TD*%
%TA.AperFunction,SMDPad,CuDef*%
%ADD13R,0.600000X1.046300*%
%TD*%
%TA.AperFunction,SMDPad,CuDef*%
%ADD14R,0.588200X2.209800*%
%TD*%
%TA.AperFunction,SMDPad,CuDef*%
%ADD15R,0.608200X2.225501*%
%TD*%
%TA.AperFunction,SMDPad,CuDef*%
%ADD16R,0.700000X1.000000*%
%TD*%
%TA.AperFunction,ViaPad*%
%ADD17C,0.550000*%
%TD*%
%TA.AperFunction,Conductor*%
%ADD18C,0.127000*%
%TD*%
%TA.AperFunction,Conductor*%
%ADD19C,0.200000*%
%TD*%
G04 APERTURE END LIST*
D10*
%TO.P,H2,1*%
%TO.N,N/C*%
X61350000Y-31990000D03*
%TD*%
%TO.P,H3,1*%
%TO.N,N/C*%
X44600000Y-54490000D03*
%TD*%
%TO.P,H4,1*%
%TO.N,N/C*%
X61350000Y-54490000D03*
%TD*%
%TO.P,H1,1*%
%TO.N,N/C*%
X44600000Y-31990000D03*
%TD*%
D11*
%TO.P,C8,1*%
%TO.N,+3V3*%
X54759988Y-46248345D03*
%TO.P,C8,2*%
%TO.N,GND*%
X55719988Y-46248345D03*
%TD*%
D12*
%TO.P,C7,1*%
%TO.N,+3V3*%
X53469988Y-46788345D03*
%TO.P,C7,2*%
%TO.N,GND*%
X51569988Y-46788345D03*
%TD*%
D13*
%TO.P,J9,1,1_1*%
%TO.N,Net-(U1-RF_IN)*%
X52740000Y-32956850D03*
D14*
%TO.P,J9,2,2_2*%
%TO.N,GND*%
X51270000Y-31430000D03*
D15*
%TO.P,J9,3,3_3*%
X54230000Y-31450000D03*
%TD*%
D16*
%TO.P,U1,1,GND_1*%
%TO.N,GND*%
X60210000Y-44880000D03*
%TO.P,U1,2,TXD_2*%
%TO.N,GNSS_TX*%
X59110000Y-44880000D03*
%TO.P,U1,3,RXD_3*%
%TO.N,GNSS_RX*%
X58010000Y-44880000D03*
%TO.P,U1,4,PPS_4*%
%TO.N,Net-(U1-PPS)*%
X56910000Y-44880000D03*
%TO.P,U1,5,TRIG_5*%
%TO.N,unconnected-(U1-TRIG-Pad5)*%
X55810000Y-44880000D03*
%TO.P,U1,6,V_BCKUP_6*%
%TO.N,+3V3*%
X54710000Y-44880000D03*
%TO.P,U1,7,NC_7*%
%TO.N,unconnected-(U1-NC-Pad7)*%
X53610000Y-44880000D03*
%TO.P,U1,8,VCC_8*%
%TO.N,+3V3*%
X52510000Y-44880000D03*
%TO.P,U1,9,RSTN_9*%
%TO.N,unconnected-(U1-RSTN-Pad9)*%
X51410000Y-44880000D03*
%TO.P,U1,10,GND_10*%
%TO.N,GND*%
X51410000Y-35180000D03*
%TO.P,U1,11,RF_IN_11*%
%TO.N,Net-(U1-RF_IN)*%
X52510000Y-35180000D03*
%TO.P,U1,12,GND_12*%
%TO.N,GND*%
X53610000Y-35180000D03*
%TO.P,U1,13,NC_13*%
%TO.N,unconnected-(U1-NC-Pad13)*%
X54710000Y-35180000D03*
%TO.P,U1,14,VCC_RF_14*%
%TO.N,unconnected-(U1-VCC_RF-Pad14)*%
X55810000Y-35180000D03*
%TO.P,U1,15,RXD2_15*%
%TO.N,RXD2*%
X56910000Y-35180000D03*
%TO.P,U1,16,NC_16*%
%TO.N,unconnected-(U1-NC-Pad16)*%
X58010000Y-35180000D03*
%TO.P,U1,17,NC_17*%
%TO.N,unconnected-(U1-NC-Pad17)*%
X59110000Y-35180000D03*
%TO.P,U1,18,Boot_18*%
%TO.N,unconnected-(U1-Boot-Pad18)*%
X60210000Y-35180000D03*
%TD*%
D17*
%TO.N,GND*%
X60670000Y-42560000D03*
X60300000Y-43710000D03*
X56130000Y-43750000D03*
X56900000Y-47060000D03*
X57470000Y-45930000D03*
X60980000Y-45700000D03*
X58780000Y-33090000D03*
X61550000Y-34660000D03*
X61520000Y-37120000D03*
X61550000Y-38400000D03*
X50940000Y-42890000D03*
%TO.N,+3V3*%
X46910000Y-49930000D03*
X48030000Y-49930000D03*
X61620000Y-41080000D03*
X55540000Y-40660000D03*
%TO.N,GND*%
X55530000Y-41530000D03*
X60130000Y-45950000D03*
X52670000Y-41030000D03*
X49010000Y-47810000D03*
X50300000Y-32100000D03*
X48540000Y-36000000D03*
X57630000Y-33170000D03*
X52080000Y-31280000D03*
X55760000Y-39640000D03*
X53800000Y-33290000D03*
X49220000Y-53800000D03*
X52080000Y-30430000D03*
X49560000Y-36000000D03*
X44270000Y-35930000D03*
X46340000Y-52740000D03*
X53450000Y-31420000D03*
X53560000Y-39690000D03*
X46830000Y-43310000D03*
X46410000Y-35960000D03*
X54610000Y-39660000D03*
X50270000Y-33010000D03*
X45320000Y-35940000D03*
X55240000Y-34040000D03*
X51990000Y-32140000D03*
X62510000Y-41150000D03*
X61640000Y-41890000D03*
X50380000Y-33970000D03*
X50210000Y-46130000D03*
X47480000Y-35980000D03*
X54980000Y-51790000D03*
X55300000Y-32010000D03*
X51590000Y-36210000D03*
X50600000Y-36090000D03*
X62390000Y-43240000D03*
X51970000Y-34020000D03*
X51040000Y-39290000D03*
X50330000Y-35030000D03*
X51020000Y-37260000D03*
X51490000Y-39940000D03*
X50300000Y-30340000D03*
X52540000Y-36220000D03*
X55230000Y-30320000D03*
X55520000Y-36250000D03*
X52680000Y-31770000D03*
X59150000Y-43680000D03*
X50230000Y-45180000D03*
X55750000Y-42580000D03*
X53470000Y-36230000D03*
X57160000Y-43610000D03*
X51860000Y-33120000D03*
X54500000Y-36270000D03*
X53540000Y-43600000D03*
X53430000Y-30510000D03*
X55260000Y-33010000D03*
X55210000Y-31070000D03*
X46770000Y-48150000D03*
X46780000Y-45370000D03*
X43230000Y-35920000D03*
X56460000Y-33030000D03*
X53510000Y-32230000D03*
X50300000Y-31170000D03*
X53800000Y-34080000D03*
X52460000Y-39750000D03*
X51050000Y-38350000D03*
%TO.N,Net-(U1-PPS)*%
X61560000Y-43130000D03*
%TO.N,GNSS_RX*%
X58090000Y-43640000D03*
%TO.N,GNSS_TX*%
X59070000Y-45960000D03*
%TO.N,RXD2*%
X57000000Y-33870000D03*
%TD*%
%TO.N,Net-(U1-PPS)*%
D18*
X61580000Y-46230000D02*
X61580000Y-43150000D01*
X57940000Y-47240000D02*
X60570000Y-47240000D01*
X60570000Y-47240000D02*
X61580000Y-46230000D01*
X56910000Y-46210000D02*
X57940000Y-47240000D01*
X61580000Y-43150000D02*
X61560000Y-43130000D01*
X56910000Y-44880000D02*
X56910000Y-46210000D01*
%TO.N,GNSS_RX*%
D19*
X58090000Y-44800000D02*
X58010000Y-44880000D01*
X58090000Y-43640000D02*
X58090000Y-44800000D01*
%TO.N,GNSS_TX*%
X59070000Y-45960000D02*
X59070000Y-44920000D01*
X59070000Y-44920000D02*
X59110000Y-44880000D01*
%TO.N,RXD2*%
X57000000Y-33870000D02*
X57000000Y-35090000D01*
X57000000Y-35090000D02*
X56910000Y-35180000D01*
%TO.N,Net-(U1-RF_IN)*%
X52740000Y-34950000D02*
X52740000Y-32956850D01*
X52510000Y-35180000D02*
X52740000Y-34950000D01*
%TD*%
%TA.AperFunction,Conductor*%
%TO.N,GND*%
G36*
X60303859Y-30045255D02*
G01*
X60310081Y-30047832D01*
X60326988Y-30064739D01*
X60343904Y-30081651D01*
X60343904Y-30081653D01*
X60343905Y-30081654D01*
X60343907Y-30106699D01*
X60343909Y-30129486D01*
X60343357Y-30130819D01*
X60316862Y-30161034D01*
X60180525Y-30239747D01*
X59962077Y-30407366D01*
X59962065Y-30407378D01*
X59767383Y-30602059D01*
X59767368Y-30602075D01*
X59767366Y-30602077D01*
X59599747Y-30820525D01*
X59462074Y-31058982D01*
X59356701Y-31313378D01*
X59356697Y-31313389D01*
X59285441Y-31579322D01*
X59284906Y-31583388D01*
X59284905Y-31583391D01*
X59249500Y-31852316D01*
X59249500Y-32127682D01*
X59284905Y-32396605D01*
X59284905Y-32396611D01*
X59284906Y-32396611D01*
X59285441Y-32400676D01*
X59356697Y-32666609D01*
X59356699Y-32666614D01*
X59356701Y-32666619D01*
X59356703Y-32666626D01*
X59462074Y-32921015D01*
X59462076Y-32921018D01*
X59462077Y-32921021D01*
X59463073Y-32922746D01*
X59463078Y-32922754D01*
X59599749Y-33159476D01*
X59767367Y-33377922D01*
X59767376Y-33377932D01*
X59962073Y-33572629D01*
X59962842Y-33573259D01*
X59962863Y-33573276D01*
X59962891Y-33573299D01*
X59963707Y-33573883D01*
X59967700Y-33576946D01*
X59969118Y-33578035D01*
X59969120Y-33578036D01*
X60180521Y-33740249D01*
X60418979Y-33877923D01*
X60418984Y-33877925D01*
X60673365Y-33983294D01*
X60673427Y-33983314D01*
X60673835Y-33983420D01*
X60823385Y-34023491D01*
X60935499Y-34053533D01*
X60935500Y-34053533D01*
X60936309Y-34053749D01*
X60939334Y-34054560D01*
X61212326Y-34090500D01*
X61212332Y-34090500D01*
X61487668Y-34090500D01*
X61487674Y-34090500D01*
X61760666Y-34054560D01*
X61764492Y-34053535D01*
X61788769Y-34047029D01*
X62026632Y-33983295D01*
X62281021Y-33877923D01*
X62519479Y-33740249D01*
X62737928Y-33572628D01*
X62932628Y-33377928D01*
X63100249Y-33159479D01*
X63237923Y-32921021D01*
X63343295Y-32666632D01*
X63414560Y-32400666D01*
X63450500Y-32127674D01*
X63450500Y-31852326D01*
X63414560Y-31579334D01*
X63343295Y-31313368D01*
X63237923Y-31058979D01*
X63100249Y-30820521D01*
X62932628Y-30602072D01*
X62865317Y-30534761D01*
X62737935Y-30407378D01*
X62737900Y-30407348D01*
X62737688Y-30407187D01*
X62519473Y-30239747D01*
X62387136Y-30163342D01*
X62368805Y-30147267D01*
X62364709Y-30141930D01*
X62352324Y-30095726D01*
X62376237Y-30054298D01*
X62377404Y-30053402D01*
X62415435Y-30040500D01*
X63144731Y-30040500D01*
X63148234Y-30040598D01*
X63151743Y-30040795D01*
X63155235Y-30041089D01*
X63250665Y-30051841D01*
X63257557Y-30053012D01*
X63264372Y-30054567D01*
X63271097Y-30056504D01*
X63356782Y-30086486D01*
X63363241Y-30089162D01*
X63369529Y-30092191D01*
X63375658Y-30095579D01*
X63413212Y-30119176D01*
X63429621Y-30129486D01*
X63452506Y-30143866D01*
X63458207Y-30147911D01*
X63463678Y-30152274D01*
X63468892Y-30156934D01*
X63533064Y-30221106D01*
X63537726Y-30226322D01*
X63542089Y-30231792D01*
X63546137Y-30237499D01*
X63594417Y-30314336D01*
X63597807Y-30320468D01*
X63600833Y-30326751D01*
X63603516Y-30333228D01*
X63633493Y-30418897D01*
X63635433Y-30425632D01*
X63636983Y-30432423D01*
X63638157Y-30439333D01*
X63648910Y-30534762D01*
X63649205Y-30538254D01*
X63649402Y-30541760D01*
X63649500Y-30545266D01*
X63649500Y-56034731D01*
X63649402Y-56038236D01*
X63649205Y-56041743D01*
X63648910Y-56045236D01*
X63638157Y-56140665D01*
X63636983Y-56147575D01*
X63635433Y-56154366D01*
X63633493Y-56161101D01*
X63603516Y-56246770D01*
X63600833Y-56253247D01*
X63597807Y-56259530D01*
X63594417Y-56265662D01*
X63546137Y-56342499D01*
X63542082Y-56348215D01*
X63537735Y-56353666D01*
X63533064Y-56358892D01*
X63468892Y-56423064D01*
X63463667Y-56427733D01*
X63458215Y-56432082D01*
X63452499Y-56436137D01*
X63375662Y-56484417D01*
X63369530Y-56487807D01*
X63363247Y-56490833D01*
X63356770Y-56493516D01*
X63271101Y-56523493D01*
X63264364Y-56525433D01*
X63257572Y-56526983D01*
X63250664Y-56528157D01*
X63164563Y-56537858D01*
X63164562Y-56537858D01*
X63155224Y-56538910D01*
X63151743Y-56539204D01*
X63148247Y-56539401D01*
X63144731Y-56539500D01*
X62217579Y-56539500D01*
X62193663Y-56534742D01*
X62187441Y-56532165D01*
X62153620Y-56498341D01*
X62153620Y-56450509D01*
X62153623Y-56450502D01*
X62187442Y-56416684D01*
X62281021Y-56377923D01*
X62519479Y-56240249D01*
X62737928Y-56072628D01*
X62932628Y-55877928D01*
X63100249Y-55659479D01*
X63237923Y-55421021D01*
X63343295Y-55166632D01*
X63414560Y-54900666D01*
X63450500Y-54627674D01*
X63450500Y-54352326D01*
X63414560Y-54079334D01*
X63343295Y-53813368D01*
X63237923Y-53558979D01*
X63100249Y-53320521D01*
X62932628Y-53102072D01*
X62932615Y-53102059D01*
X62737936Y-52907379D01*
X62737900Y-52907348D01*
X62737688Y-52907187D01*
X62519473Y-52739747D01*
X62282750Y-52603075D01*
X62282387Y-52602864D01*
X62280946Y-52602019D01*
X62280090Y-52601645D01*
X62278980Y-52601231D01*
X62264139Y-52595083D01*
X62150080Y-52547839D01*
X62070934Y-52515055D01*
X62062081Y-52506202D01*
X62028348Y-52497164D01*
X62027729Y-52496979D01*
X62027161Y-52496837D01*
X62026152Y-52496575D01*
X61760672Y-52425440D01*
X61487682Y-52389500D01*
X61487678Y-52389500D01*
X61487674Y-52389500D01*
X61212326Y-52389500D01*
X61212321Y-52389500D01*
X61212316Y-52389500D01*
X60943394Y-52424905D01*
X60943387Y-52424905D01*
X60939330Y-52425440D01*
X60939329Y-52425440D01*
X60939328Y-52425440D01*
X60939322Y-52425441D01*
X60673389Y-52496697D01*
X60673378Y-52496701D01*
X60673373Y-52496702D01*
X60673373Y-52496703D01*
X60672707Y-52496979D01*
X60418982Y-52602074D01*
X60180525Y-52739747D01*
X59962077Y-52907366D01*
X59962075Y-52907368D01*
X59962059Y-52907383D01*
X59767383Y-53102059D01*
X59767368Y-53102075D01*
X59767366Y-53102077D01*
X59599747Y-53320525D01*
X59462074Y-53558982D01*
X59356701Y-53813378D01*
X59356697Y-53813389D01*
X59285441Y-54079322D01*
X59284906Y-54083388D01*
X59284905Y-54083391D01*
X59249500Y-54352316D01*
X59249500Y-54627682D01*
X59284905Y-54896605D01*
X59284905Y-54896611D01*
X59284906Y-54896611D01*
X59285441Y-54900676D01*
X59356697Y-55166609D01*
X59356699Y-55166614D01*
X59356701Y-55166619D01*
X59356703Y-55166626D01*
X59462074Y-55421015D01*
X59462076Y-55421018D01*
X59462077Y-55421021D01*
X59463073Y-55422746D01*
X59463078Y-55422754D01*
X59599748Y-55659475D01*
X59599751Y-55659479D01*
X59767372Y-55877928D01*
X59962072Y-56072628D01*
X60180521Y-56240249D01*
X60418979Y-56377923D01*
X60418982Y-56377924D01*
X60419007Y-56377936D01*
X60419375Y-56378087D01*
X60507283Y-56414500D01*
X60527559Y-56428048D01*
X60532317Y-56432806D01*
X60537073Y-56444290D01*
X60541108Y-56448324D01*
X60541107Y-56454028D01*
X60550623Y-56477000D01*
X60532317Y-56521194D01*
X60488123Y-56539500D01*
X45467579Y-56539500D01*
X45443663Y-56534742D01*
X45437441Y-56532165D01*
X45403620Y-56498341D01*
X45403620Y-56450509D01*
X45403623Y-56450502D01*
X45437442Y-56416684D01*
X45531021Y-56377923D01*
X45769479Y-56240249D01*
X45987928Y-56072628D01*
X46182628Y-55877928D01*
X46350249Y-55659479D01*
X46487923Y-55421021D01*
X46593295Y-55166632D01*
X46664560Y-54900666D01*
X46700500Y-54627674D01*
X46700500Y-54352326D01*
X46664560Y-54079334D01*
X46593295Y-53813368D01*
X46487923Y-53558979D01*
X46350249Y-53320521D01*
X46182628Y-53102072D01*
X46182615Y-53102059D01*
X45987936Y-52907379D01*
X45987900Y-52907348D01*
X45987688Y-52907187D01*
X45769473Y-52739747D01*
X45532750Y-52603075D01*
X45532387Y-52602864D01*
X45530946Y-52602019D01*
X45530090Y-52601645D01*
X45528980Y-52601231D01*
X45514139Y-52595083D01*
X45400080Y-52547839D01*
X45320934Y-52515055D01*
X45312081Y-52506202D01*
X45278348Y-52497164D01*
X45277729Y-52496979D01*
X45277161Y-52496837D01*
X45276152Y-52496575D01*
X45010672Y-52425440D01*
X44737682Y-52389500D01*
X44737678Y-52389500D01*
X44737674Y-52389500D01*
X44462326Y-52389500D01*
X44462321Y-52389500D01*
X44462316Y-52389500D01*
X44193394Y-52424905D01*
X44193387Y-52424905D01*
X44189330Y-52425440D01*
X44189329Y-52425440D01*
X44189328Y-52425440D01*
X44189322Y-52425441D01*
X43923389Y-52496697D01*
X43923378Y-52496701D01*
X43923373Y-52496702D01*
X43923373Y-52496703D01*
X43922707Y-52496979D01*
X43668982Y-52602074D01*
X43430525Y-52739747D01*
X43212077Y-52907366D01*
X43212075Y-52907368D01*
X43212059Y-52907383D01*
X43017383Y-53102059D01*
X43017368Y-53102075D01*
X43017366Y-53102077D01*
X42849746Y-53320526D01*
X42849740Y-53320535D01*
X42773341Y-53452862D01*
X42757267Y-53471193D01*
X42751930Y-53475289D01*
X42705726Y-53487674D01*
X42664297Y-53463760D01*
X42664293Y-53463756D01*
X42663403Y-53462595D01*
X42650500Y-53424563D01*
X42650500Y-49435774D01*
X46344996Y-49435774D01*
X46353825Y-50230477D01*
X46369894Y-50307888D01*
X46369896Y-50307893D01*
X46388195Y-50351385D01*
X46388196Y-50351388D01*
X46388197Y-50351389D01*
X46424385Y-50408627D01*
X46424386Y-50408628D01*
X46424388Y-50408630D01*
X46487289Y-50453260D01*
X46498973Y-50461551D01*
X46543167Y-50479857D01*
X46621809Y-50495500D01*
X51244787Y-50495500D01*
X51244789Y-50495500D01*
X51321665Y-50480579D01*
X51365031Y-50463086D01*
X51367404Y-50461548D01*
X51430739Y-50420493D01*
X51430740Y-50420491D01*
X51430743Y-50420490D01*
X55233334Y-46756534D01*
X55235056Y-46754855D01*
X55236083Y-46753842D01*
X55281983Y-46685322D01*
X55300089Y-46641046D01*
X55315377Y-46562334D01*
X55311171Y-45631260D01*
X55329277Y-45586986D01*
X55373388Y-45568481D01*
X55385858Y-45569680D01*
X55440252Y-45580500D01*
X56179748Y-45580500D01*
X56238231Y-45568867D01*
X56304552Y-45524552D01*
X56304556Y-45524545D01*
X56308883Y-45520219D01*
X56318347Y-45512450D01*
X56326282Y-45507149D01*
X56373195Y-45497817D01*
X56373205Y-45497819D01*
X56375938Y-45498363D01*
X56410100Y-45521192D01*
X56411095Y-45520199D01*
X56415446Y-45524551D01*
X56415447Y-45524552D01*
X56481767Y-45568866D01*
X56481769Y-45568867D01*
X56540252Y-45580500D01*
X56571069Y-45580500D01*
X56594989Y-45585259D01*
X56603778Y-45588900D01*
X56637598Y-45622717D01*
X56637651Y-45622844D01*
X56641240Y-45631509D01*
X56646000Y-45655431D01*
X56646000Y-46262515D01*
X56686189Y-46359540D01*
X56686191Y-46359543D01*
X56686192Y-46359544D01*
X57790456Y-47463809D01*
X57887487Y-47504000D01*
X57887489Y-47504000D01*
X60622513Y-47504000D01*
X60689560Y-47476228D01*
X60715294Y-47465568D01*
X60718922Y-47464372D01*
X60720486Y-47463609D01*
X60723887Y-47459465D01*
X61234449Y-46948903D01*
X61803809Y-46379544D01*
X61844000Y-46282512D01*
X61844000Y-46177487D01*
X61844000Y-43556778D01*
X61848756Y-43532864D01*
X61857550Y-43511633D01*
X61871093Y-43491365D01*
X61940495Y-43421964D01*
X62003095Y-43313536D01*
X62034347Y-43196904D01*
X62035499Y-43192606D01*
X62035500Y-43192600D01*
X62035500Y-43067400D01*
X62035500Y-43067399D01*
X62035499Y-43067393D01*
X62018279Y-43003132D01*
X62003095Y-42946464D01*
X61940495Y-42838036D01*
X61851964Y-42749505D01*
X61743536Y-42686905D01*
X61743535Y-42686904D01*
X61743534Y-42686904D01*
X61743517Y-42686899D01*
X61622611Y-42654500D01*
X61622606Y-42654500D01*
X61622601Y-42654500D01*
X61497399Y-42654500D01*
X61497393Y-42654500D01*
X61497387Y-42654500D01*
X61376466Y-42686903D01*
X61376465Y-42686904D01*
X61268035Y-42749504D01*
X61179504Y-42838035D01*
X61116904Y-42946465D01*
X61116903Y-42946466D01*
X61084500Y-43067387D01*
X61084500Y-43192611D01*
X61116899Y-43313517D01*
X61116904Y-43313533D01*
X61116905Y-43313536D01*
X61179505Y-43421964D01*
X61268036Y-43510495D01*
X61273982Y-43513928D01*
X61292315Y-43530004D01*
X61303083Y-43544036D01*
X61316000Y-43582086D01*
X61316000Y-46082327D01*
X61311242Y-46106246D01*
X61302451Y-46127468D01*
X61288903Y-46147743D01*
X60487744Y-46948903D01*
X60467470Y-46962450D01*
X60446244Y-46971242D01*
X60422329Y-46976000D01*
X58087672Y-46976000D01*
X58063755Y-46971242D01*
X58042530Y-46962450D01*
X58022256Y-46948903D01*
X57201096Y-46127743D01*
X57187549Y-46107469D01*
X57178756Y-46086242D01*
X57174000Y-46062327D01*
X57174000Y-45655431D01*
X57178758Y-45631513D01*
X57178761Y-45631507D01*
X57182399Y-45622722D01*
X57216223Y-45588899D01*
X57225013Y-45585257D01*
X57248931Y-45580500D01*
X57279748Y-45580500D01*
X57338231Y-45568867D01*
X57404552Y-45524552D01*
X57404556Y-45524545D01*
X57408883Y-45520219D01*
X57418347Y-45512450D01*
X57426282Y-45507149D01*
X57473195Y-45497817D01*
X57473205Y-45497819D01*
X57475938Y-45498363D01*
X57510100Y-45521192D01*
X57511095Y-45520199D01*
X57515446Y-45524551D01*
X57515447Y-45524552D01*
X57581767Y-45568866D01*
X57581769Y-45568867D01*
X57640252Y-45580500D01*
X58379748Y-45580500D01*
X58438231Y-45568867D01*
X58504552Y-45524552D01*
X58504556Y-45524545D01*
X58508883Y-45520219D01*
X58518347Y-45512450D01*
X58526282Y-45507149D01*
X58573195Y-45497817D01*
X58573201Y-45497818D01*
X58575935Y-45498362D01*
X58610100Y-45521191D01*
X58611094Y-45520198D01*
X58615447Y-45524551D01*
X58615448Y-45524552D01*
X58673573Y-45563391D01*
X58692953Y-45584068D01*
X58693642Y-45585259D01*
X58696897Y-45590888D01*
X58704089Y-45634373D01*
X58702995Y-45639870D01*
X58691286Y-45665713D01*
X58689506Y-45668033D01*
X58626904Y-45776465D01*
X58626903Y-45776466D01*
X58594500Y-45897387D01*
X58594500Y-46022606D01*
X58625677Y-46138953D01*
X58625677Y-46138954D01*
X58626903Y-46143532D01*
X58626904Y-46143534D01*
X58626905Y-46143536D01*
X58689505Y-46251964D01*
X58778036Y-46340495D01*
X58886464Y-46403095D01*
X58943132Y-46418279D01*
X59007393Y-46435499D01*
X59007399Y-46435500D01*
X59132601Y-46435500D01*
X59132606Y-46435499D01*
X59168533Y-46425871D01*
X59253536Y-46403095D01*
X59361964Y-46340495D01*
X59450495Y-46251964D01*
X59513095Y-46143536D01*
X59535871Y-46058533D01*
X59545499Y-46022606D01*
X59545500Y-46022600D01*
X59545500Y-45897399D01*
X59545499Y-45897393D01*
X59518094Y-45795121D01*
X59513095Y-45776464D01*
X59457998Y-45681033D01*
X59450160Y-45657937D01*
X59448919Y-45648504D01*
X59450450Y-45642792D01*
X59461297Y-45602309D01*
X59463403Y-45599564D01*
X59500795Y-45576312D01*
X59538231Y-45568867D01*
X59604552Y-45524552D01*
X59648867Y-45458231D01*
X59660500Y-45399748D01*
X59660500Y-44360252D01*
X59648867Y-44301769D01*
X59648866Y-44301767D01*
X59648863Y-44301763D01*
X59648862Y-44301760D01*
X59604552Y-44235446D01*
X59538239Y-44191137D01*
X59538233Y-44191134D01*
X59538232Y-44191133D01*
X59538230Y-44191132D01*
X59538226Y-44191131D01*
X59538228Y-44191131D01*
X59479750Y-44179500D01*
X59479748Y-44179500D01*
X58740252Y-44179500D01*
X58740249Y-44179500D01*
X58681771Y-44191131D01*
X58681765Y-44191134D01*
X58615446Y-44235447D01*
X58611107Y-44239787D01*
X58601635Y-44247559D01*
X58593714Y-44252851D01*
X58546797Y-44262180D01*
X58546793Y-44262179D01*
X58544060Y-44261635D01*
X58507356Y-44237113D01*
X58506498Y-44237819D01*
X58504551Y-44235447D01*
X58504547Y-44235444D01*
X58452450Y-44200633D01*
X58449266Y-44198358D01*
X58437955Y-44189729D01*
X58437859Y-44189678D01*
X58433400Y-44186698D01*
X58433401Y-44186698D01*
X58425645Y-44181515D01*
X58425640Y-44181513D01*
X58425047Y-44181196D01*
X58424901Y-44181019D01*
X58423091Y-44179809D01*
X58423458Y-44179259D01*
X58394708Y-44144220D01*
X58393190Y-44139215D01*
X58390500Y-44121075D01*
X58390500Y-44050278D01*
X58395256Y-44026364D01*
X58404050Y-44005133D01*
X58417591Y-43984867D01*
X58470495Y-43931964D01*
X58533095Y-43823536D01*
X58555871Y-43738533D01*
X58565499Y-43702606D01*
X58565500Y-43702600D01*
X58565500Y-43577400D01*
X58565500Y-43577399D01*
X58565499Y-43577393D01*
X58544802Y-43500153D01*
X58533095Y-43456464D01*
X58470495Y-43348036D01*
X58381964Y-43259505D01*
X58273536Y-43196905D01*
X58273535Y-43196904D01*
X58273534Y-43196904D01*
X58273517Y-43196899D01*
X58152611Y-43164500D01*
X58152606Y-43164500D01*
X58152601Y-43164500D01*
X58027399Y-43164500D01*
X58027393Y-43164500D01*
X58027387Y-43164500D01*
X57906466Y-43196903D01*
X57906465Y-43196904D01*
X57798035Y-43259504D01*
X57709504Y-43348035D01*
X57646904Y-43456465D01*
X57646903Y-43456466D01*
X57614500Y-43577387D01*
X57614500Y-43702611D01*
X57646899Y-43823517D01*
X57646904Y-43823534D01*
X57709505Y-43931964D01*
X57762403Y-43984862D01*
X57775950Y-44005136D01*
X57784742Y-44026361D01*
X57789500Y-44050278D01*
X57789500Y-44104568D01*
X57784740Y-44128492D01*
X57781098Y-44137282D01*
X57747284Y-44171097D01*
X57741257Y-44173594D01*
X57738492Y-44174739D01*
X57714569Y-44179500D01*
X57640249Y-44179500D01*
X57581771Y-44191131D01*
X57581765Y-44191134D01*
X57515446Y-44235447D01*
X57511107Y-44239787D01*
X57501635Y-44247559D01*
X57493714Y-44252851D01*
X57446797Y-44262180D01*
X57444063Y-44261636D01*
X57409893Y-44238806D01*
X57408902Y-44239798D01*
X57404552Y-44235448D01*
X57399431Y-44232026D01*
X57338232Y-44191133D01*
X57338230Y-44191132D01*
X57338227Y-44191131D01*
X57338228Y-44191131D01*
X57279750Y-44179500D01*
X57279748Y-44179500D01*
X56540252Y-44179500D01*
X56540249Y-44179500D01*
X56481771Y-44191131D01*
X56481765Y-44191134D01*
X56415446Y-44235447D01*
X56411107Y-44239787D01*
X56401635Y-44247559D01*
X56393714Y-44252851D01*
X56346797Y-44262180D01*
X56344063Y-44261636D01*
X56309893Y-44238806D01*
X56308902Y-44239798D01*
X56304552Y-44235448D01*
X56299431Y-44232026D01*
X56238232Y-44191133D01*
X56238230Y-44191132D01*
X56238227Y-44191131D01*
X56238228Y-44191131D01*
X56179750Y-44179500D01*
X56179748Y-44179500D01*
X55440252Y-44179500D01*
X55440249Y-44179500D01*
X55381771Y-44191131D01*
X55381765Y-44191134D01*
X55315446Y-44235447D01*
X55311107Y-44239787D01*
X55301636Y-44247558D01*
X55297972Y-44250006D01*
X55251055Y-44259337D01*
X55227833Y-44249534D01*
X55157175Y-44200937D01*
X55156410Y-44200633D01*
X55146645Y-44196754D01*
X55138232Y-44191133D01*
X55138230Y-44191132D01*
X55126730Y-44188844D01*
X55121435Y-44186741D01*
X55121433Y-44186739D01*
X55112725Y-44183281D01*
X55103114Y-44181515D01*
X55065156Y-44174540D01*
X55033854Y-44168788D01*
X54219078Y-44180700D01*
X54219072Y-44180701D01*
X54142057Y-44196902D01*
X54142044Y-44196906D01*
X54114799Y-44208427D01*
X54066965Y-44208778D01*
X54055734Y-44202828D01*
X54049444Y-44198625D01*
X54038232Y-44191133D01*
X54038230Y-44191132D01*
X54038226Y-44191131D01*
X54038228Y-44191131D01*
X53979750Y-44179500D01*
X53979748Y-44179500D01*
X53240252Y-44179500D01*
X53240249Y-44179500D01*
X53181771Y-44191131D01*
X53181761Y-44191136D01*
X53181758Y-44191138D01*
X53147478Y-44214043D01*
X53100562Y-44223375D01*
X53089686Y-44220162D01*
X53071946Y-44213116D01*
X52993079Y-44198624D01*
X52969481Y-44198969D01*
X52942390Y-44191887D01*
X52942185Y-44192487D01*
X52940107Y-44191775D01*
X52939989Y-44192012D01*
X52938237Y-44191136D01*
X52938232Y-44191133D01*
X52938230Y-44191132D01*
X52938226Y-44191131D01*
X52938228Y-44191131D01*
X52879750Y-44179500D01*
X52879748Y-44179500D01*
X52140252Y-44179500D01*
X52140249Y-44179500D01*
X52081771Y-44191131D01*
X52081757Y-44191138D01*
X52065264Y-44202158D01*
X52041863Y-44211656D01*
X52036697Y-44212607D01*
X52019080Y-44212865D01*
X51942054Y-44229067D01*
X51937985Y-44230787D01*
X51931259Y-44232026D01*
X51914003Y-44228338D01*
X51896358Y-44228441D01*
X51885216Y-44222527D01*
X51849443Y-44198624D01*
X51838232Y-44191133D01*
X51838230Y-44191132D01*
X51838226Y-44191131D01*
X51838228Y-44191131D01*
X51779750Y-44179500D01*
X51779748Y-44179500D01*
X51040252Y-44179500D01*
X51040249Y-44179500D01*
X50981771Y-44191131D01*
X50981759Y-44191137D01*
X50915446Y-44235446D01*
X50871137Y-44301759D01*
X50871131Y-44301771D01*
X50859500Y-44360248D01*
X50859500Y-44360251D01*
X50859500Y-45399748D01*
X50871132Y-45458230D01*
X50871133Y-45458230D01*
X50871137Y-45458239D01*
X50915446Y-45524552D01*
X50981760Y-45568862D01*
X50981763Y-45568863D01*
X50981767Y-45568866D01*
X50981769Y-45568867D01*
X51040252Y-45580500D01*
X51416068Y-45580500D01*
X51460262Y-45598806D01*
X51478568Y-45642792D01*
X51478571Y-45643889D01*
X51478571Y-45643893D01*
X51478695Y-45681035D01*
X51478995Y-45770992D01*
X51479097Y-45801250D01*
X51494870Y-45879511D01*
X51494872Y-45879518D01*
X51513177Y-45923500D01*
X51549672Y-45981473D01*
X51607634Y-46022599D01*
X51624260Y-46034396D01*
X51668454Y-46052702D01*
X51747096Y-46068345D01*
X51850995Y-46068345D01*
X51871638Y-46071852D01*
X51926872Y-46091179D01*
X51943340Y-46099883D01*
X51980717Y-46127468D01*
X51987605Y-46132551D01*
X52000777Y-46145722D01*
X52033449Y-46189992D01*
X52042152Y-46206460D01*
X52061480Y-46261694D01*
X52064988Y-46282337D01*
X52064988Y-47294351D01*
X52061480Y-47314994D01*
X52042152Y-47370228D01*
X52033448Y-47386699D01*
X52000780Y-47430963D01*
X51987606Y-47444137D01*
X51943342Y-47476805D01*
X51926871Y-47485509D01*
X51871637Y-47504837D01*
X51850994Y-47508345D01*
X51288981Y-47508345D01*
X51268340Y-47504838D01*
X51174937Y-47472155D01*
X51174936Y-47472155D01*
X51161561Y-47467475D01*
X51149143Y-47468776D01*
X51108987Y-47458963D01*
X51061172Y-47457686D01*
X51061171Y-47457686D01*
X51061170Y-47457686D01*
X50982139Y-47471224D01*
X50982137Y-47471224D01*
X50982135Y-47471225D01*
X46517066Y-49182546D01*
X46477774Y-49202685D01*
X46477770Y-49202686D01*
X46477769Y-49202688D01*
X46455466Y-49217340D01*
X46429669Y-49237396D01*
X46429668Y-49237398D01*
X46377582Y-49312558D01*
X46377578Y-49312566D01*
X46359766Y-49356955D01*
X46344996Y-49435774D01*
X42650500Y-49435774D01*
X42650500Y-40597387D01*
X55064500Y-40597387D01*
X55064500Y-40722611D01*
X55096899Y-40843517D01*
X55096904Y-40843533D01*
X55096905Y-40843536D01*
X55159505Y-40951964D01*
X55248036Y-41040495D01*
X55356464Y-41103095D01*
X55413132Y-41118279D01*
X55477393Y-41135499D01*
X55477399Y-41135500D01*
X55602601Y-41135500D01*
X55602606Y-41135499D01*
X55638533Y-41125871D01*
X55723536Y-41103095D01*
X55831964Y-41040495D01*
X55855072Y-41017387D01*
X61144500Y-41017387D01*
X61144500Y-41142611D01*
X61176899Y-41263517D01*
X61176904Y-41263533D01*
X61176905Y-41263536D01*
X61239505Y-41371964D01*
X61328036Y-41460495D01*
X61436464Y-41523095D01*
X61493132Y-41538279D01*
X61557393Y-41555499D01*
X61557399Y-41555500D01*
X61682601Y-41555500D01*
X61682606Y-41555499D01*
X61718533Y-41545871D01*
X61803536Y-41523095D01*
X61911964Y-41460495D01*
X62000495Y-41371964D01*
X62063095Y-41263536D01*
X62085871Y-41178533D01*
X62095499Y-41142606D01*
X62095500Y-41142600D01*
X62095500Y-41017400D01*
X62095500Y-41017399D01*
X62095499Y-41017393D01*
X62077966Y-40951964D01*
X62063095Y-40896464D01*
X62000495Y-40788036D01*
X61911964Y-40699505D01*
X61803536Y-40636905D01*
X61803535Y-40636904D01*
X61803534Y-40636904D01*
X61803517Y-40636899D01*
X61682611Y-40604500D01*
X61682606Y-40604500D01*
X61682601Y-40604500D01*
X61557399Y-40604500D01*
X61557393Y-40604500D01*
X61557387Y-40604500D01*
X61436466Y-40636903D01*
X61436465Y-40636904D01*
X61328035Y-40699504D01*
X61239504Y-40788035D01*
X61176904Y-40896465D01*
X61176903Y-40896466D01*
X61144500Y-41017387D01*
X55855072Y-41017387D01*
X55920495Y-40951964D01*
X55983095Y-40843536D01*
X56005871Y-40758533D01*
X56015499Y-40722606D01*
X56015500Y-40722600D01*
X56015500Y-40597400D01*
X56015500Y-40597399D01*
X56015499Y-40597393D01*
X55998279Y-40533132D01*
X55983095Y-40476464D01*
X55920495Y-40368036D01*
X55831964Y-40279505D01*
X55723536Y-40216905D01*
X55723535Y-40216904D01*
X55723534Y-40216904D01*
X55723517Y-40216899D01*
X55602611Y-40184500D01*
X55602606Y-40184500D01*
X55602601Y-40184500D01*
X55477399Y-40184500D01*
X55477393Y-40184500D01*
X55477387Y-40184500D01*
X55356466Y-40216903D01*
X55356465Y-40216904D01*
X55248035Y-40279504D01*
X55159504Y-40368035D01*
X55096904Y-40476465D01*
X55096903Y-40476466D01*
X55064500Y-40597387D01*
X42650500Y-40597387D01*
X42650500Y-34660248D01*
X51959500Y-34660248D01*
X51959500Y-34660251D01*
X51959500Y-35699748D01*
X51971132Y-35758230D01*
X51971133Y-35758230D01*
X51971137Y-35758239D01*
X52015446Y-35824552D01*
X52081760Y-35868862D01*
X52081763Y-35868863D01*
X52081767Y-35868866D01*
X52081769Y-35868867D01*
X52140252Y-35880500D01*
X52879748Y-35880500D01*
X52938231Y-35868867D01*
X53004552Y-35824552D01*
X53048867Y-35758231D01*
X53060500Y-35699748D01*
X53060500Y-34660252D01*
X53060499Y-34660248D01*
X54159500Y-34660248D01*
X54159500Y-34660251D01*
X54159500Y-35699748D01*
X54171132Y-35758230D01*
X54171133Y-35758230D01*
X54171137Y-35758239D01*
X54215446Y-35824552D01*
X54281760Y-35868862D01*
X54281763Y-35868863D01*
X54281767Y-35868866D01*
X54281769Y-35868867D01*
X54340252Y-35880500D01*
X55079748Y-35880500D01*
X55138231Y-35868867D01*
X55204552Y-35824552D01*
X55204556Y-35824545D01*
X55208883Y-35820219D01*
X55218347Y-35812450D01*
X55226282Y-35807149D01*
X55273195Y-35797817D01*
X55273205Y-35797819D01*
X55275938Y-35798363D01*
X55310100Y-35821192D01*
X55311095Y-35820199D01*
X55315446Y-35824551D01*
X55315447Y-35824552D01*
X55381767Y-35868866D01*
X55381769Y-35868867D01*
X55440252Y-35880500D01*
X56179748Y-35880500D01*
X56238231Y-35868867D01*
X56304552Y-35824552D01*
X56304556Y-35824545D01*
X56308883Y-35820219D01*
X56318347Y-35812450D01*
X56326282Y-35807149D01*
X56373195Y-35797817D01*
X56373205Y-35797819D01*
X56375938Y-35798363D01*
X56410100Y-35821192D01*
X56411095Y-35820199D01*
X56415446Y-35824551D01*
X56415447Y-35824552D01*
X56481767Y-35868866D01*
X56481769Y-35868867D01*
X56540252Y-35880500D01*
X57279748Y-35880500D01*
X57338231Y-35868867D01*
X57404552Y-35824552D01*
X57404556Y-35824545D01*
X57408883Y-35820219D01*
X57418347Y-35812450D01*
X57426282Y-35807149D01*
X57473195Y-35797817D01*
X57473205Y-35797819D01*
X57475938Y-35798363D01*
X57510100Y-35821192D01*
X57511095Y-35820199D01*
X57515446Y-35824551D01*
X57515447Y-35824552D01*
X57581767Y-35868866D01*
X57581769Y-35868867D01*
X57640252Y-35880500D01*
X58379748Y-35880500D01*
X58438231Y-35868867D01*
X58504552Y-35824552D01*
X58504556Y-35824545D01*
X58508883Y-35820219D01*
X58518347Y-35812450D01*
X58526282Y-35807149D01*
X58573195Y-35797817D01*
X58573205Y-35797819D01*
X58575938Y-35798363D01*
X58610100Y-35821192D01*
X58611095Y-35820199D01*
X58615446Y-35824551D01*
X58615447Y-35824552D01*
X58681767Y-35868866D01*
X58681769Y-35868867D01*
X58740252Y-35880500D01*
X59479748Y-35880500D01*
X59538231Y-35868867D01*
X59604552Y-35824552D01*
X59604556Y-35824545D01*
X59608883Y-35820219D01*
X59618347Y-35812450D01*
X59626282Y-35807149D01*
X59673195Y-35797817D01*
X59673205Y-35797819D01*
X59675938Y-35798363D01*
X59710100Y-35821192D01*
X59711095Y-35820199D01*
X59715446Y-35824551D01*
X59715447Y-35824552D01*
X59781767Y-35868866D01*
X59781769Y-35868867D01*
X59840252Y-35880500D01*
X60579748Y-35880500D01*
X60638231Y-35868867D01*
X60704552Y-35824552D01*
X60748867Y-35758231D01*
X60760500Y-35699748D01*
X60760500Y-34660252D01*
X60748867Y-34601769D01*
X60740500Y-34589247D01*
X60704552Y-34535447D01*
X60704551Y-34535446D01*
X60704549Y-34535444D01*
X60638239Y-34491137D01*
X60638233Y-34491134D01*
X60638232Y-34491133D01*
X60638230Y-34491132D01*
X60638226Y-34491131D01*
X60638228Y-34491131D01*
X60579750Y-34479500D01*
X60579748Y-34479500D01*
X59840252Y-34479500D01*
X59840249Y-34479500D01*
X59781771Y-34491131D01*
X59781765Y-34491134D01*
X59715446Y-34535447D01*
X59711107Y-34539787D01*
X59701635Y-34547559D01*
X59693714Y-34552851D01*
X59646797Y-34562180D01*
X59644063Y-34561636D01*
X59609893Y-34538806D01*
X59608902Y-34539798D01*
X59604552Y-34535448D01*
X59604546Y-34535444D01*
X59538232Y-34491133D01*
X59538230Y-34491132D01*
X59538227Y-34491131D01*
X59538228Y-34491131D01*
X59479750Y-34479500D01*
X59479748Y-34479500D01*
X58740252Y-34479500D01*
X58740249Y-34479500D01*
X58681771Y-34491131D01*
X58681765Y-34491134D01*
X58615446Y-34535447D01*
X58611107Y-34539787D01*
X58601635Y-34547559D01*
X58593714Y-34552851D01*
X58546797Y-34562180D01*
X58544063Y-34561636D01*
X58509893Y-34538806D01*
X58508902Y-34539798D01*
X58504552Y-34535448D01*
X58504546Y-34535444D01*
X58438232Y-34491133D01*
X58438230Y-34491132D01*
X58438227Y-34491131D01*
X58438228Y-34491131D01*
X58379750Y-34479500D01*
X58379748Y-34479500D01*
X57640252Y-34479500D01*
X57640249Y-34479500D01*
X57581771Y-34491131D01*
X57581765Y-34491134D01*
X57515446Y-34535447D01*
X57511107Y-34539787D01*
X57501635Y-34547559D01*
X57493714Y-34552851D01*
X57446797Y-34562180D01*
X57444063Y-34561636D01*
X57409896Y-34538804D01*
X57408902Y-34539799D01*
X57404549Y-34535445D01*
X57336275Y-34489826D01*
X57320696Y-34474953D01*
X57318897Y-34472514D01*
X57317097Y-34469499D01*
X57315485Y-34467886D01*
X57312698Y-34464107D01*
X57308000Y-34445134D01*
X57300500Y-34427013D01*
X57300500Y-34280278D01*
X57305256Y-34256364D01*
X57314050Y-34235133D01*
X57327591Y-34214867D01*
X57380495Y-34161964D01*
X57443095Y-34053536D01*
X57461878Y-33983438D01*
X57475499Y-33932606D01*
X57475500Y-33932600D01*
X57475500Y-33807400D01*
X57475500Y-33807399D01*
X57475499Y-33807393D01*
X57456267Y-33735621D01*
X57443095Y-33686464D01*
X57380495Y-33578036D01*
X57291964Y-33489505D01*
X57183536Y-33426905D01*
X57183535Y-33426904D01*
X57183534Y-33426904D01*
X57183517Y-33426899D01*
X57062611Y-33394500D01*
X57062606Y-33394500D01*
X57062601Y-33394500D01*
X56937399Y-33394500D01*
X56937393Y-33394500D01*
X56937387Y-33394500D01*
X56816466Y-33426903D01*
X56816465Y-33426904D01*
X56708035Y-33489504D01*
X56619504Y-33578035D01*
X56556904Y-33686465D01*
X56556903Y-33686466D01*
X56524500Y-33807387D01*
X56524500Y-33932611D01*
X56556899Y-34053517D01*
X56556904Y-34053533D01*
X56556905Y-34053536D01*
X56578245Y-34090500D01*
X56578246Y-34090500D01*
X56619505Y-34161964D01*
X56672403Y-34214862D01*
X56685950Y-34235136D01*
X56694742Y-34256361D01*
X56699500Y-34280278D01*
X56699500Y-34404568D01*
X56694740Y-34428492D01*
X56691098Y-34437282D01*
X56657284Y-34471097D01*
X56651257Y-34473594D01*
X56648492Y-34474739D01*
X56624569Y-34479500D01*
X56540249Y-34479500D01*
X56481771Y-34491131D01*
X56481765Y-34491134D01*
X56415446Y-34535447D01*
X56411107Y-34539787D01*
X56401635Y-34547559D01*
X56393714Y-34552851D01*
X56346797Y-34562180D01*
X56344063Y-34561636D01*
X56309893Y-34538806D01*
X56308902Y-34539798D01*
X56304552Y-34535448D01*
X56304546Y-34535444D01*
X56238232Y-34491133D01*
X56238230Y-34491132D01*
X56238227Y-34491131D01*
X56238228Y-34491131D01*
X56179750Y-34479500D01*
X56179748Y-34479500D01*
X55440252Y-34479500D01*
X55440249Y-34479500D01*
X55381771Y-34491131D01*
X55381765Y-34491134D01*
X55315446Y-34535447D01*
X55311107Y-34539787D01*
X55301635Y-34547559D01*
X55293714Y-34552851D01*
X55246797Y-34562180D01*
X55244063Y-34561636D01*
X55209893Y-34538806D01*
X55208902Y-34539798D01*
X55204552Y-34535448D01*
X55204546Y-34535444D01*
X55138232Y-34491133D01*
X55138230Y-34491132D01*
X55138227Y-34491131D01*
X55138228Y-34491131D01*
X55079750Y-34479500D01*
X55079748Y-34479500D01*
X54340252Y-34479500D01*
X54340249Y-34479500D01*
X54281771Y-34491131D01*
X54281759Y-34491137D01*
X54215446Y-34535446D01*
X54171137Y-34601759D01*
X54171131Y-34601771D01*
X54159500Y-34660248D01*
X53060499Y-34660248D01*
X53048867Y-34601769D01*
X53046476Y-34598191D01*
X53044315Y-34588081D01*
X53044692Y-34586028D01*
X53043062Y-34579011D01*
X53042981Y-34577746D01*
X53040500Y-34561018D01*
X53040500Y-33748052D01*
X53045255Y-33724139D01*
X53050249Y-33712084D01*
X53078523Y-33680887D01*
X53082632Y-33678691D01*
X53099894Y-33672514D01*
X53118231Y-33668867D01*
X53184552Y-33624552D01*
X53228867Y-33558231D01*
X53240500Y-33499748D01*
X53240500Y-32413952D01*
X53228867Y-32355469D01*
X53228866Y-32355467D01*
X53228863Y-32355463D01*
X53228862Y-32355460D01*
X53184552Y-32289146D01*
X53118239Y-32244837D01*
X53118235Y-32244835D01*
X53118232Y-32244833D01*
X53118230Y-32244832D01*
X53118226Y-32244831D01*
X53118228Y-32244831D01*
X53059750Y-32233200D01*
X53059748Y-32233200D01*
X52420252Y-32233200D01*
X52420249Y-32233200D01*
X52361771Y-32244831D01*
X52361759Y-32244837D01*
X52295446Y-32289146D01*
X52251137Y-32355459D01*
X52251131Y-32355471D01*
X52239500Y-32413948D01*
X52239500Y-32413951D01*
X52239500Y-33499748D01*
X52251132Y-33558230D01*
X52251133Y-33558230D01*
X52251137Y-33558239D01*
X52295446Y-33624552D01*
X52361760Y-33668862D01*
X52361764Y-33668864D01*
X52361767Y-33668866D01*
X52361769Y-33668867D01*
X52361770Y-33668867D01*
X52361772Y-33668868D01*
X52376997Y-33671896D01*
X52399527Y-33681227D01*
X52407366Y-33686465D01*
X52410372Y-33688473D01*
X52435456Y-33722291D01*
X52436807Y-33726743D01*
X52439500Y-33744892D01*
X52439500Y-34404568D01*
X52434740Y-34428492D01*
X52431098Y-34437282D01*
X52398483Y-34469898D01*
X52397284Y-34471097D01*
X52391257Y-34473594D01*
X52388492Y-34474739D01*
X52364569Y-34479500D01*
X52140249Y-34479500D01*
X52081771Y-34491131D01*
X52081759Y-34491137D01*
X52015446Y-34535446D01*
X51971137Y-34601759D01*
X51971131Y-34601771D01*
X51959500Y-34660248D01*
X42650500Y-34660248D01*
X42650500Y-33060051D01*
X42655254Y-33036142D01*
X42657831Y-33029920D01*
X42691650Y-32996095D01*
X42739483Y-32996090D01*
X42740834Y-32996649D01*
X42771032Y-33023137D01*
X42849743Y-33159467D01*
X42849748Y-33159475D01*
X43017367Y-33377922D01*
X43017376Y-33377932D01*
X43212073Y-33572629D01*
X43212842Y-33573259D01*
X43212863Y-33573276D01*
X43212891Y-33573299D01*
X43213707Y-33573883D01*
X43217700Y-33576946D01*
X43219118Y-33578035D01*
X43219120Y-33578036D01*
X43430521Y-33740249D01*
X43668979Y-33877923D01*
X43668984Y-33877925D01*
X43923365Y-33983294D01*
X43923427Y-33983314D01*
X43923835Y-33983420D01*
X44073385Y-34023491D01*
X44185499Y-34053533D01*
X44185500Y-34053533D01*
X44186309Y-34053749D01*
X44189334Y-34054560D01*
X44462326Y-34090500D01*
X44462332Y-34090500D01*
X44737668Y-34090500D01*
X44737674Y-34090500D01*
X45010666Y-34054560D01*
X45014492Y-34053535D01*
X45038769Y-34047029D01*
X45276632Y-33983295D01*
X45531021Y-33877923D01*
X45769479Y-33740249D01*
X45987928Y-33572628D01*
X46182628Y-33377928D01*
X46350249Y-33159479D01*
X46487923Y-32921021D01*
X46593295Y-32666632D01*
X46664560Y-32400666D01*
X46700500Y-32127674D01*
X46700500Y-31852326D01*
X46664560Y-31579334D01*
X46593295Y-31313368D01*
X46487923Y-31058979D01*
X46350249Y-30820521D01*
X46182628Y-30602072D01*
X46115317Y-30534761D01*
X45987935Y-30407378D01*
X45987900Y-30407348D01*
X45987688Y-30407187D01*
X45769473Y-30239747D01*
X45637136Y-30163342D01*
X45618805Y-30147267D01*
X45614709Y-30141930D01*
X45602324Y-30095726D01*
X45626237Y-30054298D01*
X45627404Y-30053402D01*
X45665435Y-30040500D01*
X60279949Y-30040500D01*
X60303859Y-30045255D01*
G37*
%TD.AperFunction*%
%TD*%
%TA.AperFunction,Conductor*%
%TO.N,+3V3*%
G36*
X55081317Y-44391924D02*
G01*
X55100267Y-44435846D01*
X55100273Y-44436478D01*
X55109879Y-46563262D01*
X55091773Y-46607538D01*
X55090746Y-46608551D01*
X51288155Y-50272507D01*
X51244789Y-50290000D01*
X46621809Y-50290000D01*
X46577615Y-50271694D01*
X46559313Y-50228194D01*
X46550483Y-49433489D01*
X46568297Y-49389095D01*
X46590611Y-49374435D01*
X51055684Y-47663113D01*
X51103501Y-47664390D01*
X51107064Y-47666123D01*
X51107105Y-47666137D01*
X51107106Y-47666138D01*
X51235289Y-47710991D01*
X51265722Y-47713845D01*
X51265726Y-47713845D01*
X51874250Y-47713845D01*
X51874254Y-47713845D01*
X51904687Y-47710991D01*
X52032870Y-47666138D01*
X52142138Y-47585495D01*
X52222781Y-47476227D01*
X52267634Y-47348044D01*
X52270488Y-47317611D01*
X52270488Y-46259079D01*
X52267634Y-46228646D01*
X52222781Y-46100463D01*
X52142138Y-45991195D01*
X52032870Y-45910552D01*
X51904689Y-45865699D01*
X51904684Y-45865698D01*
X51884687Y-45863823D01*
X51874254Y-45862845D01*
X51747096Y-45862845D01*
X51702902Y-45844539D01*
X51684596Y-45800554D01*
X51684494Y-45770310D01*
X51684070Y-45643207D01*
X51702228Y-45598954D01*
X51746361Y-45580500D01*
X51779748Y-45580500D01*
X51838231Y-45568867D01*
X51904552Y-45524552D01*
X51948867Y-45458231D01*
X51960500Y-45399748D01*
X51960500Y-44480836D01*
X51978806Y-44436642D01*
X52022084Y-44418343D01*
X52996088Y-44404103D01*
X53040543Y-44421760D01*
X53059493Y-44465682D01*
X53059500Y-44466596D01*
X53059500Y-45399748D01*
X53071132Y-45458230D01*
X53071133Y-45458232D01*
X53115447Y-45524552D01*
X53181767Y-45568866D01*
X53181769Y-45568867D01*
X53240252Y-45580500D01*
X53979748Y-45580500D01*
X54038231Y-45568867D01*
X54104552Y-45524552D01*
X54148867Y-45458231D01*
X54160500Y-45399748D01*
X54160500Y-44448672D01*
X54178806Y-44404478D01*
X54222083Y-44386179D01*
X55036862Y-44374267D01*
X55081317Y-44391924D01*
G37*
%TD.AperFunction*%
%TD*%
M02*
