M48
; DRILL file KiCad 10.0.3 date 2026-07-20T20:50:49
; FORMAT={-:-/ absolute / metric / decimal}
; #@! TF.CreationDate,2026-07-20T20:50:49-04:00
; #@! TF.GenerationSoftware,Kicad,Pcbnew,10.0.3
; #@! TF.FileFunction,Plated,1,4,PTH
FMAT,2
METRIC
; #@! TA.AperFunction,Plated,PTH,ViaDrill
T1C0.350
; #@! TA.AperFunction,Plated,PTH,ComponentDrill
T2C2.200
%
G90
G05
T1
X43.23Y-35.92
X44.27Y-35.93
X45.32Y-35.94
X46.34Y-52.74
X46.41Y-35.96
X46.77Y-48.15
X46.78Y-45.37
X46.83Y-43.31
X46.91Y-49.93
X47.48Y-35.98
X48.03Y-49.93
X48.54Y-36.0
X49.01Y-47.81
X49.22Y-53.8
X49.56Y-36.0
X50.21Y-46.13
X50.23Y-45.18
X50.27Y-33.01
X50.3Y-30.34
X50.3Y-31.17
X50.3Y-32.1
X50.33Y-35.03
X50.38Y-33.97
X50.6Y-36.09
X50.94Y-42.89
X51.02Y-37.26
X51.04Y-39.29
X51.05Y-38.35
X51.49Y-39.94
X51.59Y-36.21
X51.86Y-33.12
X51.97Y-34.02
X51.99Y-32.14
X52.08Y-30.43
X52.08Y-31.28
X52.46Y-39.75
X52.54Y-36.22
X52.67Y-41.03
X52.68Y-31.77
X53.43Y-30.51
X53.45Y-31.42
X53.47Y-36.23
X53.51Y-32.23
X53.54Y-43.6
X53.56Y-39.69
X53.8Y-33.29
X53.8Y-34.08
X54.5Y-36.27
X54.61Y-39.66
X54.98Y-51.79
X55.21Y-31.07
X55.23Y-30.32
X55.24Y-34.04
X55.26Y-33.01
X55.3Y-32.01
X55.52Y-36.25
X55.53Y-41.53
X55.54Y-40.66
X55.75Y-42.58
X55.76Y-39.64
X56.13Y-43.75
X56.46Y-33.03
X56.9Y-47.06
X57.0Y-33.87
X57.16Y-43.61
X57.47Y-45.93
X57.63Y-33.17
X58.09Y-43.64
X58.78Y-33.09
X59.07Y-45.96
X59.15Y-43.68
X60.13Y-45.95
X60.3Y-43.71
X60.67Y-42.56
X60.98Y-45.7
X61.52Y-37.12
X61.55Y-34.66
X61.55Y-38.4
X61.56Y-43.13
X61.62Y-41.08
X61.64Y-41.89
X62.39Y-43.24
X62.51Y-41.15
T2
X44.6Y-31.99
X44.6Y-54.49
X61.35Y-31.99
X61.35Y-54.49
M30
