%TF.GenerationSoftware,KiCad,Pcbnew,10.0.3*%
%TF.CreationDate,2026-07-20T20:50:46-04:00*%
%TF.ProjectId,PX1105R_18mm_HighPower_External_Ant,50583131-3035-4525-9f31-386d6d5f4869,rev?*%
%TF.SameCoordinates,Original*%
%TF.FileFunction,Copper,L2,Inr*%
%TF.FilePolarity,Positive*%
%FSLAX46Y46*%
G04 Gerber Fmt 4.6, Leading zero omitted, Abs format (unit mm)*
G04 Created by KiCad (PCBNEW 10.0.3) date 2026-07-20 20:50:46*
%MOMM*%
%LPD*%
G01*
G04 APERTURE LIST*
%TA.AperFunction,ComponentPad*%
%ADD10C,3.800000*%
%TD*%
%TA.AperFunction,ViaPad*%
%ADD11C,0.550000*%
%TD*%
G04 APERTURE END LIST*
D10*
%TO.N,N/C*%
%TO.C,H2*%
X61350000Y-31990000D03*
%TD*%
%TO.N,N/C*%
%TO.C,H3*%
X44600000Y-54490000D03*
%TD*%
%TO.N,N/C*%
%TO.C,H4*%
X61350000Y-54490000D03*
%TD*%
%TO.N,N/C*%
%TO.C,H1*%
X44600000Y-31990000D03*
%TD*%
D11*
%TO.N,GND*%
X60670000Y-42560000D03*
X60300000Y-43710000D03*
X56130000Y-43750000D03*
X56900000Y-47060000D03*
X57470000Y-45930000D03*
X60980000Y-45700000D03*
X58780000Y-33090000D03*
X61550000Y-34660000D03*
X61520000Y-37120000D03*
X61550000Y-38400000D03*
X50940000Y-42890000D03*
%TO.N,+3V3*%
X46910000Y-49930000D03*
X48030000Y-49930000D03*
X61620000Y-41080000D03*
X55540000Y-40660000D03*
%TO.N,GND*%
X55530000Y-41530000D03*
X60130000Y-45950000D03*
X52670000Y-41030000D03*
X49010000Y-47810000D03*
X50300000Y-32100000D03*
X48540000Y-36000000D03*
X57630000Y-33170000D03*
X52080000Y-31280000D03*
X55760000Y-39640000D03*
X53800000Y-33290000D03*
X49220000Y-53800000D03*
X52080000Y-30430000D03*
X49560000Y-36000000D03*
X44270000Y-35930000D03*
X46340000Y-52740000D03*
X53450000Y-31420000D03*
X53560000Y-39690000D03*
X46830000Y-43310000D03*
X46410000Y-35960000D03*
X54610000Y-39660000D03*
X50270000Y-33010000D03*
X45320000Y-35940000D03*
X55240000Y-34040000D03*
X51990000Y-32140000D03*
X62510000Y-41150000D03*
X61640000Y-41890000D03*
X50380000Y-33970000D03*
X50210000Y-46130000D03*
X47480000Y-35980000D03*
X54980000Y-51790000D03*
X55300000Y-32010000D03*
X51590000Y-36210000D03*
X50600000Y-36090000D03*
X62390000Y-43240000D03*
X51970000Y-34020000D03*
X51040000Y-39290000D03*
X50330000Y-35030000D03*
X51020000Y-37260000D03*
X51490000Y-39940000D03*
X50300000Y-30340000D03*
X52540000Y-36220000D03*
X55230000Y-30320000D03*
X55520000Y-36250000D03*
X52680000Y-31770000D03*
X59150000Y-43680000D03*
X50230000Y-45180000D03*
X55750000Y-42580000D03*
X53470000Y-36230000D03*
X57160000Y-43610000D03*
X51860000Y-33120000D03*
X54500000Y-36270000D03*
X53540000Y-43600000D03*
X53430000Y-30510000D03*
X55260000Y-33010000D03*
X55210000Y-31070000D03*
X46770000Y-48150000D03*
X46780000Y-45370000D03*
X43230000Y-35920000D03*
X56460000Y-33030000D03*
X53510000Y-32230000D03*
X50300000Y-31170000D03*
X53800000Y-34080000D03*
X52460000Y-39750000D03*
X51050000Y-38350000D03*
%TO.N,Net-(U1-PPS)*%
X61560000Y-43130000D03*
%TO.N,GNSS_RX*%
X58090000Y-43640000D03*
%TO.N,GNSS_TX*%
X59070000Y-45960000D03*
%TO.N,RXD2*%
X57000000Y-33870000D03*
%TD*%
%TA.AperFunction,Conductor*%
%TO.N,GND*%
G36*
X60336574Y-30058806D02*
G01*
X60354880Y-30103000D01*
X60336574Y-30147194D01*
X60323630Y-30157127D01*
X60180523Y-30239749D01*
X59962077Y-30407367D01*
X59962067Y-30407376D01*
X59767376Y-30602067D01*
X59767367Y-30602077D01*
X59599749Y-30820523D01*
X59462080Y-31058973D01*
X59462074Y-31058984D01*
X59356703Y-31313373D01*
X59285440Y-31579329D01*
X59285440Y-31579330D01*
X59249500Y-31852321D01*
X59249500Y-32127678D01*
X59285440Y-32400669D01*
X59285440Y-32400670D01*
X59356703Y-32666626D01*
X59462074Y-32921015D01*
X59462076Y-32921018D01*
X59462077Y-32921021D01*
X59599751Y-33159479D01*
X59767372Y-33377928D01*
X59962072Y-33572628D01*
X59962075Y-33572630D01*
X59962077Y-33572632D01*
X59969120Y-33578036D01*
X60180521Y-33740249D01*
X60418979Y-33877923D01*
X60673368Y-33983295D01*
X60673372Y-33983296D01*
X60935508Y-34053535D01*
X60939334Y-34054560D01*
X61212326Y-34090500D01*
X61212332Y-34090500D01*
X61487668Y-34090500D01*
X61487674Y-34090500D01*
X61760666Y-34054560D01*
X61764492Y-34053535D01*
X61788769Y-34047029D01*
X62026632Y-33983295D01*
X62281021Y-33877923D01*
X62519479Y-33740249D01*
X62737928Y-33572628D01*
X62932628Y-33377928D01*
X63100249Y-33159479D01*
X63237923Y-32921021D01*
X63343295Y-32666632D01*
X63414560Y-32400666D01*
X63450500Y-32127674D01*
X63450500Y-31852326D01*
X63414560Y-31579334D01*
X63343295Y-31313368D01*
X63237923Y-31058979D01*
X63100249Y-30820521D01*
X62932628Y-30602072D01*
X62737928Y-30407372D01*
X62737924Y-30407369D01*
X62737922Y-30407367D01*
X62519476Y-30239749D01*
X62376370Y-30157127D01*
X62347250Y-30119176D01*
X62353493Y-30071750D01*
X62391444Y-30042630D01*
X62407620Y-30040500D01*
X63084108Y-30040500D01*
X63146491Y-30040500D01*
X63153488Y-30040893D01*
X63254148Y-30052234D01*
X63267794Y-30055348D01*
X63360081Y-30087641D01*
X63372689Y-30093713D01*
X63413212Y-30119176D01*
X63455470Y-30145728D01*
X63466412Y-30154454D01*
X63535545Y-30223587D01*
X63544271Y-30234529D01*
X63596285Y-30317309D01*
X63602358Y-30329918D01*
X63634651Y-30422205D01*
X63637765Y-30435850D01*
X63649107Y-30536510D01*
X63649500Y-30543508D01*
X63649500Y-56036491D01*
X63649107Y-56043488D01*
X63649107Y-56043489D01*
X63637765Y-56144149D01*
X63634651Y-56157794D01*
X63602358Y-56250081D01*
X63596285Y-56262690D01*
X63544271Y-56345470D01*
X63535545Y-56356412D01*
X63466412Y-56425545D01*
X63455470Y-56434271D01*
X63372690Y-56486285D01*
X63360081Y-56492358D01*
X63267794Y-56524651D01*
X63254149Y-56527765D01*
X63164565Y-56537858D01*
X63153487Y-56539107D01*
X63146491Y-56539500D01*
X62205148Y-56539500D01*
X62160954Y-56521194D01*
X62142648Y-56477000D01*
X62160954Y-56432806D01*
X62181230Y-56419258D01*
X62281021Y-56377923D01*
X62519479Y-56240249D01*
X62737928Y-56072628D01*
X62932628Y-55877928D01*
X63100249Y-55659479D01*
X63237923Y-55421021D01*
X63343295Y-55166632D01*
X63414560Y-54900666D01*
X63450500Y-54627674D01*
X63450500Y-54352326D01*
X63414560Y-54079334D01*
X63343295Y-53813368D01*
X63237923Y-53558979D01*
X63100249Y-53320521D01*
X62932628Y-53102072D01*
X62737928Y-52907372D01*
X62737924Y-52907369D01*
X62737922Y-52907367D01*
X62519476Y-52739749D01*
X62281026Y-52602080D01*
X62281021Y-52602077D01*
X62281018Y-52602076D01*
X62281015Y-52602074D01*
X62150080Y-52547839D01*
X62026632Y-52496705D01*
X62026628Y-52496704D01*
X62026626Y-52496703D01*
X62026627Y-52496703D01*
X61760669Y-52425440D01*
X61487678Y-52389500D01*
X61487674Y-52389500D01*
X61212326Y-52389500D01*
X61212321Y-52389500D01*
X60939330Y-52425440D01*
X60939329Y-52425440D01*
X60673373Y-52496703D01*
X60418984Y-52602074D01*
X60418973Y-52602080D01*
X60180523Y-52739749D01*
X59962077Y-52907367D01*
X59962067Y-52907376D01*
X59767376Y-53102067D01*
X59767367Y-53102077D01*
X59599749Y-53320523D01*
X59462080Y-53558973D01*
X59462074Y-53558984D01*
X59356703Y-53813373D01*
X59285440Y-54079329D01*
X59285440Y-54079330D01*
X59249500Y-54352321D01*
X59249500Y-54627678D01*
X59285440Y-54900669D01*
X59285440Y-54900670D01*
X59356703Y-55166626D01*
X59462074Y-55421015D01*
X59462076Y-55421018D01*
X59462077Y-55421021D01*
X59599751Y-55659479D01*
X59767372Y-55877928D01*
X59962072Y-56072628D01*
X60180521Y-56240249D01*
X60418979Y-56377923D01*
X60418984Y-56377925D01*
X60518770Y-56419258D01*
X60552595Y-56453082D01*
X60552594Y-56500918D01*
X60518770Y-56534743D01*
X60494852Y-56539500D01*
X45455148Y-56539500D01*
X45410954Y-56521194D01*
X45392648Y-56477000D01*
X45410954Y-56432806D01*
X45431230Y-56419258D01*
X45531021Y-56377923D01*
X45769479Y-56240249D01*
X45987928Y-56072628D01*
X46182628Y-55877928D01*
X46350249Y-55659479D01*
X46487923Y-55421021D01*
X46593295Y-55166632D01*
X46664560Y-54900666D01*
X46700500Y-54627674D01*
X46700500Y-54352326D01*
X46664560Y-54079334D01*
X46593295Y-53813368D01*
X46487923Y-53558979D01*
X46350249Y-53320521D01*
X46182628Y-53102072D01*
X45987928Y-52907372D01*
X45987924Y-52907369D01*
X45987922Y-52907367D01*
X45769476Y-52739749D01*
X45531026Y-52602080D01*
X45531021Y-52602077D01*
X45531018Y-52602076D01*
X45531015Y-52602074D01*
X45400080Y-52547839D01*
X45276632Y-52496705D01*
X45276628Y-52496704D01*
X45276626Y-52496703D01*
X45276627Y-52496703D01*
X45010669Y-52425440D01*
X44737678Y-52389500D01*
X44737674Y-52389500D01*
X44462326Y-52389500D01*
X44462321Y-52389500D01*
X44189330Y-52425440D01*
X44189329Y-52425440D01*
X43923373Y-52496703D01*
X43668984Y-52602074D01*
X43668973Y-52602080D01*
X43430523Y-52739749D01*
X43212077Y-52907367D01*
X43212067Y-52907376D01*
X43017376Y-53102067D01*
X43017367Y-53102077D01*
X42849749Y-53320523D01*
X42767127Y-53463629D01*
X42729176Y-53492749D01*
X42681750Y-53486506D01*
X42652630Y-53448555D01*
X42650500Y-53432379D01*
X42650500Y-49867393D01*
X46434500Y-49867393D01*
X46434500Y-49992606D01*
X46466904Y-50113533D01*
X46466905Y-50113536D01*
X46529505Y-50221964D01*
X46618036Y-50310495D01*
X46726464Y-50373095D01*
X46783132Y-50388279D01*
X46847393Y-50405499D01*
X46847399Y-50405500D01*
X46972601Y-50405500D01*
X46972606Y-50405499D01*
X47008533Y-50395871D01*
X47093536Y-50373095D01*
X47201964Y-50310495D01*
X47290495Y-50221964D01*
X47353095Y-50113536D01*
X47385500Y-49992601D01*
X47385500Y-49867399D01*
X47385499Y-49867393D01*
X47554500Y-49867393D01*
X47554500Y-49992606D01*
X47586904Y-50113533D01*
X47586905Y-50113536D01*
X47649505Y-50221964D01*
X47738036Y-50310495D01*
X47846464Y-50373095D01*
X47903132Y-50388279D01*
X47967393Y-50405499D01*
X47967399Y-50405500D01*
X48092601Y-50405500D01*
X48092606Y-50405499D01*
X48128533Y-50395871D01*
X48213536Y-50373095D01*
X48321964Y-50310495D01*
X48410495Y-50221964D01*
X48473095Y-50113536D01*
X48505500Y-49992601D01*
X48505500Y-49867399D01*
X48505499Y-49867393D01*
X48488279Y-49803132D01*
X48473095Y-49746464D01*
X48410495Y-49638036D01*
X48321964Y-49549505D01*
X48213536Y-49486905D01*
X48213533Y-49486904D01*
X48092606Y-49454500D01*
X48092601Y-49454500D01*
X47967399Y-49454500D01*
X47967393Y-49454500D01*
X47846466Y-49486904D01*
X47846464Y-49486905D01*
X47738035Y-49549505D01*
X47649505Y-49638035D01*
X47586905Y-49746464D01*
X47586904Y-49746466D01*
X47554500Y-49867393D01*
X47385499Y-49867393D01*
X47368279Y-49803132D01*
X47353095Y-49746464D01*
X47290495Y-49638036D01*
X47201964Y-49549505D01*
X47093536Y-49486905D01*
X47093533Y-49486904D01*
X46972606Y-49454500D01*
X46972601Y-49454500D01*
X46847399Y-49454500D01*
X46847393Y-49454500D01*
X46726466Y-49486904D01*
X46726464Y-49486905D01*
X46618035Y-49549505D01*
X46529505Y-49638035D01*
X46466905Y-49746464D01*
X46466904Y-49746466D01*
X46434500Y-49867393D01*
X42650500Y-49867393D01*
X42650500Y-45897393D01*
X58594500Y-45897393D01*
X58594500Y-46022606D01*
X58626904Y-46143533D01*
X58626905Y-46143536D01*
X58689505Y-46251964D01*
X58778036Y-46340495D01*
X58886464Y-46403095D01*
X58943132Y-46418279D01*
X59007393Y-46435499D01*
X59007399Y-46435500D01*
X59132601Y-46435500D01*
X59132606Y-46435499D01*
X59168533Y-46425871D01*
X59253536Y-46403095D01*
X59361964Y-46340495D01*
X59450495Y-46251964D01*
X59513095Y-46143536D01*
X59545500Y-46022601D01*
X59545500Y-45897399D01*
X59545499Y-45897393D01*
X59528279Y-45833132D01*
X59513095Y-45776464D01*
X59450495Y-45668036D01*
X59361964Y-45579505D01*
X59253536Y-45516905D01*
X59253533Y-45516904D01*
X59132606Y-45484500D01*
X59132601Y-45484500D01*
X59007399Y-45484500D01*
X59007393Y-45484500D01*
X58886466Y-45516904D01*
X58886464Y-45516905D01*
X58778035Y-45579505D01*
X58689505Y-45668035D01*
X58626905Y-45776464D01*
X58626904Y-45776466D01*
X58594500Y-45897393D01*
X42650500Y-45897393D01*
X42650500Y-43577393D01*
X57614500Y-43577393D01*
X57614500Y-43702606D01*
X57646904Y-43823533D01*
X57646905Y-43823536D01*
X57709505Y-43931964D01*
X57798036Y-44020495D01*
X57906464Y-44083095D01*
X57963132Y-44098279D01*
X58027393Y-44115499D01*
X58027399Y-44115500D01*
X58152601Y-44115500D01*
X58152606Y-44115499D01*
X58188533Y-44105871D01*
X58273536Y-44083095D01*
X58381964Y-44020495D01*
X58470495Y-43931964D01*
X58533095Y-43823536D01*
X58565500Y-43702601D01*
X58565500Y-43577399D01*
X58565499Y-43577393D01*
X58547573Y-43510494D01*
X58533095Y-43456464D01*
X58470495Y-43348036D01*
X58381964Y-43259505D01*
X58273536Y-43196905D01*
X58273533Y-43196904D01*
X58152606Y-43164500D01*
X58152601Y-43164500D01*
X58027399Y-43164500D01*
X58027393Y-43164500D01*
X57906466Y-43196904D01*
X57906464Y-43196905D01*
X57798035Y-43259505D01*
X57709505Y-43348035D01*
X57646905Y-43456464D01*
X57646904Y-43456466D01*
X57614500Y-43577393D01*
X42650500Y-43577393D01*
X42650500Y-43067393D01*
X61084500Y-43067393D01*
X61084500Y-43192606D01*
X61116904Y-43313533D01*
X61116905Y-43313536D01*
X61179505Y-43421964D01*
X61268036Y-43510495D01*
X61376464Y-43573095D01*
X61433132Y-43588279D01*
X61497393Y-43605499D01*
X61497399Y-43605500D01*
X61622601Y-43605500D01*
X61622606Y-43605499D01*
X61658533Y-43595871D01*
X61743536Y-43573095D01*
X61851964Y-43510495D01*
X61940495Y-43421964D01*
X62003095Y-43313536D01*
X62035500Y-43192601D01*
X62035500Y-43067399D01*
X62035499Y-43067393D01*
X62018279Y-43003132D01*
X62003095Y-42946464D01*
X61940495Y-42838036D01*
X61851964Y-42749505D01*
X61743536Y-42686905D01*
X61743533Y-42686904D01*
X61622606Y-42654500D01*
X61622601Y-42654500D01*
X61497399Y-42654500D01*
X61497393Y-42654500D01*
X61376466Y-42686904D01*
X61376464Y-42686905D01*
X61268035Y-42749505D01*
X61179505Y-42838035D01*
X61116905Y-42946464D01*
X61116904Y-42946466D01*
X61084500Y-43067393D01*
X42650500Y-43067393D01*
X42650500Y-40597393D01*
X55064500Y-40597393D01*
X55064500Y-40722606D01*
X55096904Y-40843533D01*
X55096905Y-40843536D01*
X55159505Y-40951964D01*
X55248036Y-41040495D01*
X55356464Y-41103095D01*
X55413132Y-41118279D01*
X55477393Y-41135499D01*
X55477399Y-41135500D01*
X55602601Y-41135500D01*
X55602606Y-41135499D01*
X55638533Y-41125871D01*
X55723536Y-41103095D01*
X55831964Y-41040495D01*
X55855066Y-41017393D01*
X61144500Y-41017393D01*
X61144500Y-41142606D01*
X61176904Y-41263533D01*
X61176905Y-41263536D01*
X61239505Y-41371964D01*
X61328036Y-41460495D01*
X61436464Y-41523095D01*
X61493132Y-41538279D01*
X61557393Y-41555499D01*
X61557399Y-41555500D01*
X61682601Y-41555500D01*
X61682606Y-41555499D01*
X61718533Y-41545871D01*
X61803536Y-41523095D01*
X61911964Y-41460495D01*
X62000495Y-41371964D01*
X62063095Y-41263536D01*
X62095500Y-41142601D01*
X62095500Y-41017399D01*
X62095499Y-41017393D01*
X62077966Y-40951964D01*
X62063095Y-40896464D01*
X62000495Y-40788036D01*
X61911964Y-40699505D01*
X61803536Y-40636905D01*
X61803533Y-40636904D01*
X61682606Y-40604500D01*
X61682601Y-40604500D01*
X61557399Y-40604500D01*
X61557393Y-40604500D01*
X61436466Y-40636904D01*
X61436464Y-40636905D01*
X61328035Y-40699505D01*
X61239505Y-40788035D01*
X61176905Y-40896464D01*
X61176904Y-40896466D01*
X61144500Y-41017393D01*
X55855066Y-41017393D01*
X55920495Y-40951964D01*
X55983095Y-40843536D01*
X56015500Y-40722601D01*
X56015500Y-40597399D01*
X56015499Y-40597393D01*
X55998279Y-40533132D01*
X55983095Y-40476464D01*
X55920495Y-40368036D01*
X55831964Y-40279505D01*
X55723536Y-40216905D01*
X55723533Y-40216904D01*
X55602606Y-40184500D01*
X55602601Y-40184500D01*
X55477399Y-40184500D01*
X55477393Y-40184500D01*
X55356466Y-40216904D01*
X55356464Y-40216905D01*
X55248035Y-40279505D01*
X55159505Y-40368035D01*
X55096905Y-40476464D01*
X55096904Y-40476466D01*
X55064500Y-40597393D01*
X42650500Y-40597393D01*
X42650500Y-33047620D01*
X42668806Y-33003426D01*
X42713000Y-32985120D01*
X42757194Y-33003426D01*
X42767126Y-33016369D01*
X42849751Y-33159479D01*
X43017372Y-33377928D01*
X43212072Y-33572628D01*
X43212075Y-33572630D01*
X43212077Y-33572632D01*
X43219120Y-33578036D01*
X43430521Y-33740249D01*
X43668979Y-33877923D01*
X43923368Y-33983295D01*
X43923372Y-33983296D01*
X44185508Y-34053535D01*
X44189334Y-34054560D01*
X44462326Y-34090500D01*
X44462332Y-34090500D01*
X44737668Y-34090500D01*
X44737674Y-34090500D01*
X45010666Y-34054560D01*
X45014492Y-34053535D01*
X45038769Y-34047029D01*
X45276632Y-33983295D01*
X45531021Y-33877923D01*
X45653183Y-33807393D01*
X56524500Y-33807393D01*
X56524500Y-33932606D01*
X56556904Y-34053533D01*
X56556905Y-34053536D01*
X56619505Y-34161964D01*
X56708036Y-34250495D01*
X56816464Y-34313095D01*
X56873132Y-34328279D01*
X56937393Y-34345499D01*
X56937399Y-34345500D01*
X57062601Y-34345500D01*
X57062606Y-34345499D01*
X57098533Y-34335871D01*
X57183536Y-34313095D01*
X57291964Y-34250495D01*
X57380495Y-34161964D01*
X57443095Y-34053536D01*
X57475500Y-33932601D01*
X57475500Y-33807399D01*
X57475499Y-33807393D01*
X57457507Y-33740249D01*
X57443095Y-33686464D01*
X57380495Y-33578036D01*
X57291964Y-33489505D01*
X57183536Y-33426905D01*
X57183533Y-33426904D01*
X57062606Y-33394500D01*
X57062601Y-33394500D01*
X56937399Y-33394500D01*
X56937393Y-33394500D01*
X56816466Y-33426904D01*
X56816464Y-33426905D01*
X56708035Y-33489505D01*
X56619505Y-33578035D01*
X56556905Y-33686464D01*
X56556904Y-33686466D01*
X56524500Y-33807393D01*
X45653183Y-33807393D01*
X45754019Y-33749175D01*
X45754022Y-33749174D01*
X45769467Y-33740256D01*
X45769468Y-33740255D01*
X45769479Y-33740249D01*
X45987928Y-33572628D01*
X46182628Y-33377928D01*
X46350249Y-33159479D01*
X46487923Y-32921021D01*
X46593295Y-32666632D01*
X46664560Y-32400666D01*
X46700500Y-32127674D01*
X46700500Y-31852326D01*
X46664560Y-31579334D01*
X46593295Y-31313368D01*
X46487923Y-31058979D01*
X46350249Y-30820521D01*
X46182628Y-30602072D01*
X45987928Y-30407372D01*
X45987924Y-30407369D01*
X45987922Y-30407367D01*
X45769476Y-30239749D01*
X45626370Y-30157127D01*
X45597250Y-30119176D01*
X45603493Y-30071750D01*
X45641444Y-30042630D01*
X45657620Y-30040500D01*
X60292380Y-30040500D01*
X60336574Y-30058806D01*
G37*
%TD.AperFunction*%
%TD*%
M02*
