M48
; DRILL file KiCad 10.0.3 date 2026-07-20T20:54:43
; FORMAT={-:-/ absolute / metric / decimal}
; #@! TF.CreationDate,2026-07-20T20:54:43-04:00
; #@! TF.GenerationSoftware,Kicad,Pcbnew,10.0.3
; #@! TF.FileFunction,Plated,1,4,PTH
FMAT,2
METRIC
; #@! TA.AperFunction,Plated,PTH,ViaDrill
T1C0.500
; #@! TA.AperFunction,Plated,PTH,ComponentDrill
T2C1.100
; #@! TA.AperFunction,Plated,PTH,ComponentDrill
T3C1.400
%
G90
G05
T1
X74.38Y-72.19
X77.58Y-72.17
X77.93Y-78.89
X80.84Y-72.19
X82.26Y-78.7
X82.29Y-80.2
X83.1Y-83.17
X84.1Y-72.13
X86.56Y-70.66
X88.61Y-74.85
X92.46Y-74.95
X95.82Y-81.53
X95.84Y-84.9
T2
X75.94Y-81.4
X75.94Y-83.94
X78.48Y-81.4
X78.48Y-83.94
X81.02Y-81.4
X81.02Y-83.94
X88.71Y-81.5
X88.71Y-84.04
X91.25Y-81.5
X91.25Y-84.04
X93.79Y-81.5
X93.79Y-84.04
T3
X74.7Y-76.65
X78.66Y-76.65
X82.62Y-76.65
X86.58Y-76.65
X90.54Y-76.65
X94.5Y-76.65
M30
