%TF.GenerationSoftware,KiCad,Pcbnew,10.0.3*%
%TF.CreationDate,2026-07-20T20:54:40-04:00*%
%TF.ProjectId,Cable to Servo Adapter With Capacitor,4361626c-6520-4746-9f20-536572766f20,rev?*%
%TF.SameCoordinates,Original*%
%TF.FileFunction,Legend,Top*%
%TF.FilePolarity,Positive*%
%FSLAX46Y46*%
G04 Gerber Fmt 4.6, Leading zero omitted, Abs format (unit mm)*
G04 Created by KiCad (PCBNEW 10.0.3) date 2026-07-20 20:54:40*
%MOMM*%
%LPD*%
G01*
G04 APERTURE LIST*
%ADD10C,0.150000*%
%ADD11C,0.300000*%
%ADD12C,0.200000*%
%ADD13C,0.120000*%
%ADD14C,0.100000*%
G04 APERTURE END LIST*
D10*
X79190588Y-79199819D02*
X78619160Y-79199819D01*
X78904874Y-79199819D02*
X78904874Y-78199819D01*
X78904874Y-78199819D02*
X78809636Y-78342676D01*
X78809636Y-78342676D02*
X78714398Y-78437914D01*
X78714398Y-78437914D02*
X78619160Y-78485533D01*
X82469160Y-78395057D02*
X82516779Y-78347438D01*
X82516779Y-78347438D02*
X82612017Y-78299819D01*
X82612017Y-78299819D02*
X82850112Y-78299819D01*
X82850112Y-78299819D02*
X82945350Y-78347438D01*
X82945350Y-78347438D02*
X82992969Y-78395057D01*
X82992969Y-78395057D02*
X83040588Y-78490295D01*
X83040588Y-78490295D02*
X83040588Y-78585533D01*
X83040588Y-78585533D02*
X82992969Y-78728390D01*
X82992969Y-78728390D02*
X82421541Y-79299819D01*
X82421541Y-79299819D02*
X83040588Y-79299819D01*
X82839160Y-83535057D02*
X82886779Y-83487438D01*
X82886779Y-83487438D02*
X82982017Y-83439819D01*
X82982017Y-83439819D02*
X83220112Y-83439819D01*
X83220112Y-83439819D02*
X83315350Y-83487438D01*
X83315350Y-83487438D02*
X83362969Y-83535057D01*
X83362969Y-83535057D02*
X83410588Y-83630295D01*
X83410588Y-83630295D02*
X83410588Y-83725533D01*
X83410588Y-83725533D02*
X83362969Y-83868390D01*
X83362969Y-83868390D02*
X82791541Y-84439819D01*
X82791541Y-84439819D02*
X83410588Y-84439819D01*
X83480588Y-81699819D02*
X82909160Y-81699819D01*
X83194874Y-81699819D02*
X83194874Y-80699819D01*
X83194874Y-80699819D02*
X83099636Y-80842676D01*
X83099636Y-80842676D02*
X83004398Y-80937914D01*
X83004398Y-80937914D02*
X82909160Y-80985533D01*
X86775350Y-84043152D02*
X86775350Y-84709819D01*
X86537255Y-83662200D02*
X86299160Y-84376485D01*
X86299160Y-84376485D02*
X86918207Y-84376485D01*
X86281541Y-80849819D02*
X86900588Y-80849819D01*
X86900588Y-80849819D02*
X86567255Y-81230771D01*
X86567255Y-81230771D02*
X86710112Y-81230771D01*
X86710112Y-81230771D02*
X86805350Y-81278390D01*
X86805350Y-81278390D02*
X86852969Y-81326009D01*
X86852969Y-81326009D02*
X86900588Y-81421247D01*
X86900588Y-81421247D02*
X86900588Y-81659342D01*
X86900588Y-81659342D02*
X86852969Y-81754580D01*
X86852969Y-81754580D02*
X86805350Y-81802200D01*
X86805350Y-81802200D02*
X86710112Y-81849819D01*
X86710112Y-81849819D02*
X86424398Y-81849819D01*
X86424398Y-81849819D02*
X86329160Y-81802200D01*
X86329160Y-81802200D02*
X86281541Y-81754580D01*
X86371541Y-78349819D02*
X86990588Y-78349819D01*
X86990588Y-78349819D02*
X86657255Y-78730771D01*
X86657255Y-78730771D02*
X86800112Y-78730771D01*
X86800112Y-78730771D02*
X86895350Y-78778390D01*
X86895350Y-78778390D02*
X86942969Y-78826009D01*
X86942969Y-78826009D02*
X86990588Y-78921247D01*
X86990588Y-78921247D02*
X86990588Y-79159342D01*
X86990588Y-79159342D02*
X86942969Y-79254580D01*
X86942969Y-79254580D02*
X86895350Y-79302200D01*
X86895350Y-79302200D02*
X86800112Y-79349819D01*
X86800112Y-79349819D02*
X86514398Y-79349819D01*
X86514398Y-79349819D02*
X86419160Y-79302200D01*
X86419160Y-79302200D02*
X86371541Y-79254580D01*
X90745350Y-78583152D02*
X90745350Y-79249819D01*
X90507255Y-78202200D02*
X90269160Y-78916485D01*
X90269160Y-78916485D02*
X90888207Y-78916485D01*
D11*
X74214510Y-78819400D02*
X75357368Y-78819400D01*
X74785939Y-79390828D02*
X74785939Y-78247971D01*
X94280225Y-75932257D02*
X94137368Y-75860828D01*
X94137368Y-75860828D02*
X93923082Y-75860828D01*
X93923082Y-75860828D02*
X93708796Y-75932257D01*
X93708796Y-75932257D02*
X93565939Y-76075114D01*
X93565939Y-76075114D02*
X93494510Y-76217971D01*
X93494510Y-76217971D02*
X93423082Y-76503685D01*
X93423082Y-76503685D02*
X93423082Y-76717971D01*
X93423082Y-76717971D02*
X93494510Y-77003685D01*
X93494510Y-77003685D02*
X93565939Y-77146542D01*
X93565939Y-77146542D02*
X93708796Y-77289400D01*
X93708796Y-77289400D02*
X93923082Y-77360828D01*
X93923082Y-77360828D02*
X94065939Y-77360828D01*
X94065939Y-77360828D02*
X94280225Y-77289400D01*
X94280225Y-77289400D02*
X94351653Y-77217971D01*
X94351653Y-77217971D02*
X94351653Y-76717971D01*
X94351653Y-76717971D02*
X94065939Y-76717971D01*
X94950225Y-78322257D02*
X94807368Y-78250828D01*
X94807368Y-78250828D02*
X94593082Y-78250828D01*
X94593082Y-78250828D02*
X94378796Y-78322257D01*
X94378796Y-78322257D02*
X94235939Y-78465114D01*
X94235939Y-78465114D02*
X94164510Y-78607971D01*
X94164510Y-78607971D02*
X94093082Y-78893685D01*
X94093082Y-78893685D02*
X94093082Y-79107971D01*
X94093082Y-79107971D02*
X94164510Y-79393685D01*
X94164510Y-79393685D02*
X94235939Y-79536542D01*
X94235939Y-79536542D02*
X94378796Y-79679400D01*
X94378796Y-79679400D02*
X94593082Y-79750828D01*
X94593082Y-79750828D02*
X94735939Y-79750828D01*
X94735939Y-79750828D02*
X94950225Y-79679400D01*
X94950225Y-79679400D02*
X95021653Y-79607971D01*
X95021653Y-79607971D02*
X95021653Y-79107971D01*
X95021653Y-79107971D02*
X94735939Y-79107971D01*
%TO.C,J2*%
D12*
X74570000Y-85340000D02*
X82390000Y-85340000D01*
X74570000Y-88080000D02*
X74570000Y-85340000D01*
X82390000Y-85340000D02*
X82390000Y-88080000D01*
X82390000Y-88080000D02*
X74570000Y-88080000D01*
X82150000Y-84840000D02*
G75*
G02*
X81950000Y-84840000I-100000J0D01*
G01*
X81950000Y-84840000D02*
G75*
G02*
X82150000Y-84840000I100000J0D01*
G01*
%TO.C,R13*%
D13*
X94173641Y-71540000D02*
X93866359Y-71540000D01*
X94173641Y-70780000D02*
X93866359Y-70780000D01*
%TO.C,J1*%
X72940000Y-73340000D02*
X84600000Y-73340000D01*
X72940000Y-79960000D02*
X72940000Y-73340000D01*
X84600000Y-79960000D02*
X72940000Y-79960000D01*
X84600000Y-79960000D02*
X96260000Y-79960000D01*
X94000000Y-71950000D02*
X95000000Y-71950000D01*
X94500000Y-72950000D02*
X94000000Y-71950000D01*
X95000000Y-71950000D02*
X94500000Y-72950000D01*
X96260000Y-73340000D02*
X84600000Y-73340000D01*
X96260000Y-79960000D02*
X96260000Y-73340000D01*
%TO.C,D1*%
D14*
X90870000Y-71190000D02*
G75*
G02*
X90770000Y-71190000I-50000J0D01*
G01*
X90770000Y-71190000D02*
G75*
G02*
X90870000Y-71190000I50000J0D01*
G01*
%TO.C,C3*%
D13*
X79450000Y-72936252D02*
X79450000Y-71513748D01*
X82170000Y-72936252D02*
X82170000Y-71513748D01*
%TO.C,J3*%
D12*
X87340000Y-85440000D02*
X95160000Y-85440000D01*
X87340000Y-88180000D02*
X87340000Y-85440000D01*
X95160000Y-85440000D02*
X95160000Y-88180000D01*
X95160000Y-88180000D02*
X87340000Y-88180000D01*
X94920000Y-84940000D02*
G75*
G02*
X94720000Y-84940000I-100000J0D01*
G01*
X94720000Y-84940000D02*
G75*
G02*
X94920000Y-84940000I100000J0D01*
G01*
%TO.C,C1*%
D13*
X76220000Y-72936252D02*
X76220000Y-71513748D01*
X78940000Y-72936252D02*
X78940000Y-71513748D01*
%TO.C,C4*%
X82710000Y-72936252D02*
X82710000Y-71513748D01*
X85430000Y-72936252D02*
X85430000Y-71513748D01*
%TO.C,C2*%
X73020000Y-72936252D02*
X73020000Y-71513748D01*
X75740000Y-72936252D02*
X75740000Y-71513748D01*
%TD*%
M02*
