%TF.GenerationSoftware,KiCad,Pcbnew,10.0.3*%
%TF.CreationDate,2026-07-20T20:54:40-04:00*%
%TF.ProjectId,Cable to Servo Adapter With Capacitor,4361626c-6520-4746-9f20-536572766f20,rev?*%
%TF.SameCoordinates,Original*%
%TF.FileFunction,Copper,L3,Inr*%
%TF.FilePolarity,Positive*%
%FSLAX46Y46*%
G04 Gerber Fmt 4.6, Leading zero omitted, Abs format (unit mm)*
G04 Created by KiCad (PCBNEW 10.0.3) date 2026-07-20 20:54:40*
%MOMM*%
%LPD*%
G01*
G04 APERTURE LIST*
G04 Aperture macros list*
%AMRoundRect*
0 Rectangle with rounded corners*
0 $1 Rounding radius*
0 $2 $3 $4 $5 $6 $7 $8 $9 X,Y pos of 4 corners*
0 Add a 4 corners polygon primitive as box body*
4,1,4,$2,$3,$4,$5,$6,$7,$8,$9,$2,$3,0*
0 Add four circle primitives for the rounded corners*
1,1,$1+$1,$2,$3*
1,1,$1+$1,$4,$5*
1,1,$1+$1,$6,$7*
1,1,$1+$1,$8,$9*
0 Add four rect primitives between the rounded corners*
20,1,$1+$1,$2,$3,$4,$5,0*
20,1,$1+$1,$4,$5,$6,$7,0*
20,1,$1+$1,$6,$7,$8,$9,0*
20,1,$1+$1,$8,$9,$2,$3,0*%
G04 Aperture macros list end*
%TA.AperFunction,ComponentPad*%
%ADD10C,1.650000*%
%TD*%
%TA.AperFunction,ComponentPad*%
%ADD11RoundRect,0.250001X0.949999X0.949999X-0.949999X0.949999X-0.949999X-0.949999X0.949999X-0.949999X0*%
%TD*%
%TA.AperFunction,ComponentPad*%
%ADD12C,2.400000*%
%TD*%
%TA.AperFunction,ViaPad*%
%ADD13C,0.800000*%
%TD*%
G04 APERTURE END LIST*
D10*
%TO.N,Servo2*%
%TO.C,J2*%
X81020000Y-83940000D03*
%TO.N,Servo1*%
X81020000Y-81400000D03*
%TO.N,LiPoPos*%
X78480000Y-83940000D03*
X78480000Y-81400000D03*
%TO.N,GND*%
X75940000Y-83940000D03*
X75940000Y-81400000D03*
%TD*%
D11*
%TO.N,GND*%
%TO.C,J1*%
X94500000Y-76650000D03*
D12*
%TO.N,Servo4*%
X90540000Y-76650000D03*
%TO.N,Servo3*%
X86580000Y-76650000D03*
%TO.N,Servo2*%
X82620000Y-76650000D03*
%TO.N,Servo1*%
X78660000Y-76650000D03*
%TO.N,LiPoPos*%
X74700000Y-76650000D03*
%TD*%
D10*
%TO.N,Servo4*%
%TO.C,J3*%
X93790000Y-84040000D03*
%TO.N,Servo3*%
X93790000Y-81500000D03*
%TO.N,LiPoPos*%
X91250000Y-84040000D03*
X91250000Y-81500000D03*
%TO.N,GND*%
X88710000Y-84040000D03*
X88710000Y-81500000D03*
%TD*%
D13*
%TO.N,GND*%
X95840000Y-84900000D03*
X84100000Y-72130000D03*
X77580000Y-72170000D03*
X82290000Y-80200000D03*
X88610000Y-74850000D03*
X74380000Y-72190000D03*
X86560000Y-70660000D03*
X83100000Y-83170000D03*
X82260000Y-78700000D03*
X80840000Y-72190000D03*
X77930000Y-78890000D03*
X92460000Y-74950000D03*
X95820000Y-81530000D03*
%TD*%
%TA.AperFunction,Conductor*%
%TO.N,GND*%
G36*
X96252539Y-70160185D02*
G01*
X96298294Y-70212989D01*
X96309500Y-70264500D01*
X96309500Y-75227591D01*
X96289815Y-75294630D01*
X96237011Y-75340385D01*
X96167853Y-75350329D01*
X96104297Y-75321304D01*
X96079962Y-75292688D01*
X96042319Y-75231660D01*
X96042316Y-75231656D01*
X95918344Y-75107684D01*
X95769123Y-75015643D01*
X95769118Y-75015641D01*
X95602696Y-74960494D01*
X95602689Y-74960493D01*
X95499985Y-74950000D01*
X94750000Y-74950000D01*
X94750000Y-75995879D01*
X94704182Y-75976901D01*
X94568944Y-75950000D01*
X94431056Y-75950000D01*
X94295818Y-75976901D01*
X94250000Y-75995879D01*
X94250000Y-74950000D01*
X93500014Y-74950000D01*
X93397310Y-74960493D01*
X93397303Y-74960494D01*
X93230881Y-75015641D01*
X93230876Y-75015643D01*
X93081655Y-75107684D01*
X92957684Y-75231655D01*
X92865643Y-75380876D01*
X92865641Y-75380881D01*
X92810494Y-75547303D01*
X92810493Y-75547310D01*
X92800000Y-75650014D01*
X92800000Y-76400000D01*
X93845879Y-76400000D01*
X93826901Y-76445818D01*
X93800000Y-76581056D01*
X93800000Y-76718944D01*
X93826901Y-76854182D01*
X93845879Y-76900000D01*
X92800000Y-76900000D01*
X92800000Y-77649985D01*
X92810493Y-77752689D01*
X92810494Y-77752696D01*
X92865641Y-77919118D01*
X92865643Y-77919123D01*
X92957684Y-78068344D01*
X93081655Y-78192315D01*
X93230876Y-78284356D01*
X93230881Y-78284358D01*
X93397303Y-78339505D01*
X93397310Y-78339506D01*
X93500014Y-78349999D01*
X93500027Y-78350000D01*
X94250000Y-78350000D01*
X94250000Y-77304120D01*
X94295818Y-77323099D01*
X94431056Y-77350000D01*
X94568944Y-77350000D01*
X94704182Y-77323099D01*
X94750000Y-77304120D01*
X94750000Y-78350000D01*
X95499973Y-78350000D01*
X95499985Y-78349999D01*
X95602689Y-78339506D01*
X95602696Y-78339505D01*
X95769118Y-78284358D01*
X95769123Y-78284356D01*
X95918344Y-78192315D01*
X96042317Y-78068342D01*
X96079961Y-78007312D01*
X96131909Y-77960587D01*
X96200871Y-77949364D01*
X96264954Y-77977208D01*
X96303810Y-78035276D01*
X96309500Y-78072408D01*
X96309500Y-85405500D01*
X96289815Y-85472539D01*
X96237011Y-85518294D01*
X96185500Y-85529500D01*
X89196486Y-85529500D01*
X89129447Y-85509815D01*
X89083692Y-85457011D01*
X89073748Y-85387853D01*
X89102773Y-85324297D01*
X89158167Y-85287569D01*
X89218627Y-85267924D01*
X89404451Y-85173240D01*
X89453818Y-85137372D01*
X89453818Y-85137371D01*
X88880234Y-84563787D01*
X88922292Y-84552518D01*
X89047708Y-84480110D01*
X89150110Y-84377708D01*
X89222518Y-84252292D01*
X89233787Y-84210234D01*
X89807371Y-84783818D01*
X89807372Y-84783818D01*
X89843240Y-84734451D01*
X89937924Y-84548625D01*
X89993238Y-84378388D01*
X90032675Y-84320713D01*
X90097034Y-84293514D01*
X90165880Y-84305428D01*
X90217356Y-84352673D01*
X90229099Y-84378386D01*
X90253294Y-84452849D01*
X90330152Y-84603688D01*
X90429648Y-84740634D01*
X90429652Y-84740639D01*
X90549360Y-84860347D01*
X90549365Y-84860351D01*
X90668817Y-84947137D01*
X90686315Y-84959850D01*
X90782425Y-85008820D01*
X90837146Y-85036703D01*
X90837148Y-85036703D01*
X90837151Y-85036705D01*
X90923450Y-85064745D01*
X90998152Y-85089018D01*
X91165351Y-85115500D01*
X91165356Y-85115500D01*
X91334649Y-85115500D01*
X91501847Y-85089018D01*
X91662849Y-85036705D01*
X91813685Y-84959850D01*
X91950641Y-84860346D01*
X92070346Y-84740641D01*
X92169850Y-84603685D01*
X92246705Y-84452849D01*
X92299018Y-84291847D01*
X92301257Y-84277708D01*
X92325500Y-84124649D01*
X92325500Y-83955350D01*
X92714500Y-83955350D01*
X92714500Y-84124649D01*
X92740981Y-84291847D01*
X92793296Y-84452853D01*
X92870152Y-84603688D01*
X92969648Y-84740634D01*
X92969652Y-84740639D01*
X93089360Y-84860347D01*
X93089365Y-84860351D01*
X93208817Y-84947137D01*
X93226315Y-84959850D01*
X93322425Y-85008820D01*
X93377146Y-85036703D01*
X93377148Y-85036703D01*
X93377151Y-85036705D01*
X93463450Y-85064745D01*
X93538152Y-85089018D01*
X93705351Y-85115500D01*
X93705356Y-85115500D01*
X93874649Y-85115500D01*
X94041847Y-85089018D01*
X94202849Y-85036705D01*
X94353685Y-84959850D01*
X94490641Y-84860346D01*
X94610346Y-84740641D01*
X94709850Y-84603685D01*
X94786705Y-84452849D01*
X94839018Y-84291847D01*
X94841257Y-84277708D01*
X94865500Y-84124649D01*
X94865500Y-83955350D01*
X94839018Y-83788152D01*
X94806526Y-83688153D01*
X94786705Y-83627151D01*
X94786703Y-83627148D01*
X94786703Y-83627146D01*
X94735751Y-83527149D01*
X94709850Y-83476315D01*
X94637196Y-83376315D01*
X94610351Y-83339365D01*
X94610347Y-83339360D01*
X94490639Y-83219652D01*
X94490634Y-83219648D01*
X94353688Y-83120152D01*
X94353687Y-83120151D01*
X94353685Y-83120150D01*
X94306582Y-83096150D01*
X94202853Y-83043296D01*
X94041847Y-82990981D01*
X93874649Y-82964500D01*
X93874644Y-82964500D01*
X93705356Y-82964500D01*
X93705351Y-82964500D01*
X93538152Y-82990981D01*
X93377146Y-83043296D01*
X93226311Y-83120152D01*
X93089365Y-83219648D01*
X93089360Y-83219652D01*
X92969652Y-83339360D01*
X92969648Y-83339365D01*
X92870152Y-83476311D01*
X92793296Y-83627146D01*
X92740981Y-83788152D01*
X92714500Y-83955350D01*
X92325500Y-83955350D01*
X92299018Y-83788152D01*
X92266526Y-83688153D01*
X92246705Y-83627151D01*
X92246703Y-83627148D01*
X92246703Y-83627146D01*
X92195751Y-83527149D01*
X92169850Y-83476315D01*
X92097196Y-83376315D01*
X92070351Y-83339365D01*
X92070347Y-83339360D01*
X91950639Y-83219652D01*
X91950634Y-83219648D01*
X91813688Y-83120152D01*
X91813687Y-83120151D01*
X91813685Y-83120150D01*
X91766582Y-83096150D01*
X91662853Y-83043296D01*
X91501847Y-82990981D01*
X91334649Y-82964500D01*
X91334644Y-82964500D01*
X91165356Y-82964500D01*
X91165351Y-82964500D01*
X90998152Y-82990981D01*
X90837146Y-83043296D01*
X90686311Y-83120152D01*
X90549365Y-83219648D01*
X90549360Y-83219652D01*
X90429652Y-83339360D01*
X90429648Y-83339365D01*
X90330152Y-83476311D01*
X90253295Y-83627149D01*
X90229099Y-83701614D01*
X90189661Y-83759288D01*
X90125301Y-83786485D01*
X90056455Y-83774569D01*
X90004980Y-83727324D01*
X89993238Y-83701611D01*
X89937924Y-83531374D01*
X89843244Y-83345556D01*
X89843236Y-83345543D01*
X89807372Y-83296180D01*
X89807371Y-83296179D01*
X89233787Y-83869764D01*
X89222518Y-83827708D01*
X89150110Y-83702292D01*
X89047708Y-83599890D01*
X88922292Y-83527482D01*
X88880233Y-83516212D01*
X89453819Y-82942627D01*
X89404451Y-82906759D01*
X89352885Y-82880485D01*
X89302089Y-82832511D01*
X89285294Y-82764690D01*
X89307831Y-82698555D01*
X89352885Y-82659515D01*
X89404451Y-82633240D01*
X89453818Y-82597372D01*
X89453818Y-82597371D01*
X88880234Y-82023787D01*
X88922292Y-82012518D01*
X89047708Y-81940110D01*
X89150110Y-81837708D01*
X89222518Y-81712292D01*
X89233787Y-81670234D01*
X89807371Y-82243818D01*
X89807372Y-82243818D01*
X89843240Y-82194451D01*
X89937924Y-82008625D01*
X89993238Y-81838388D01*
X90032675Y-81780713D01*
X90097034Y-81753514D01*
X90165880Y-81765428D01*
X90217356Y-81812673D01*
X90229099Y-81838386D01*
X90253294Y-81912849D01*
X90330152Y-82063688D01*
X90429648Y-82200634D01*
X90429652Y-82200639D01*
X90549360Y-82320347D01*
X90549365Y-82320351D01*
X90668817Y-82407137D01*
X90686315Y-82419850D01*
X90782425Y-82468820D01*
X90837146Y-82496703D01*
X90837148Y-82496703D01*
X90837151Y-82496705D01*
X90923450Y-82524745D01*
X90998152Y-82549018D01*
X91165351Y-82575500D01*
X91165356Y-82575500D01*
X91334649Y-82575500D01*
X91501847Y-82549018D01*
X91662849Y-82496705D01*
X91813685Y-82419850D01*
X91950641Y-82320346D01*
X92070346Y-82200641D01*
X92169850Y-82063685D01*
X92246705Y-81912849D01*
X92299018Y-81751847D01*
X92301257Y-81737708D01*
X92325500Y-81584649D01*
X92325500Y-81415350D01*
X92714500Y-81415350D01*
X92714500Y-81584649D01*
X92740981Y-81751847D01*
X92793296Y-81912853D01*
X92870152Y-82063688D01*
X92969648Y-82200634D01*
X92969652Y-82200639D01*
X93089360Y-82320347D01*
X93089365Y-82320351D01*
X93208817Y-82407137D01*
X93226315Y-82419850D01*
X93322425Y-82468820D01*
X93377146Y-82496703D01*
X93377148Y-82496703D01*
X93377151Y-82496705D01*
X93463450Y-82524745D01*
X93538152Y-82549018D01*
X93705351Y-82575500D01*
X93705356Y-82575500D01*
X93874649Y-82575500D01*
X94041847Y-82549018D01*
X94202849Y-82496705D01*
X94353685Y-82419850D01*
X94490641Y-82320346D01*
X94610346Y-82200641D01*
X94709850Y-82063685D01*
X94786705Y-81912849D01*
X94839018Y-81751847D01*
X94841257Y-81737708D01*
X94865500Y-81584649D01*
X94865500Y-81415350D01*
X94839018Y-81248152D01*
X94806526Y-81148153D01*
X94786705Y-81087151D01*
X94786703Y-81087148D01*
X94786703Y-81087146D01*
X94735751Y-80987149D01*
X94709850Y-80936315D01*
X94637196Y-80836315D01*
X94610351Y-80799365D01*
X94610347Y-80799360D01*
X94490639Y-80679652D01*
X94490634Y-80679648D01*
X94353688Y-80580152D01*
X94353687Y-80580151D01*
X94353685Y-80580150D01*
X94294913Y-80550204D01*
X94202853Y-80503296D01*
X94041847Y-80450981D01*
X93874649Y-80424500D01*
X93874644Y-80424500D01*
X93705356Y-80424500D01*
X93705351Y-80424500D01*
X93538152Y-80450981D01*
X93377146Y-80503296D01*
X93226311Y-80580152D01*
X93089365Y-80679648D01*
X93089360Y-80679652D01*
X92969652Y-80799360D01*
X92969648Y-80799365D01*
X92870152Y-80936311D01*
X92793296Y-81087146D01*
X92740981Y-81248152D01*
X92714500Y-81415350D01*
X92325500Y-81415350D01*
X92299018Y-81248152D01*
X92266526Y-81148153D01*
X92246705Y-81087151D01*
X92246703Y-81087148D01*
X92246703Y-81087146D01*
X92195751Y-80987149D01*
X92169850Y-80936315D01*
X92097196Y-80836315D01*
X92070351Y-80799365D01*
X92070347Y-80799360D01*
X91950639Y-80679652D01*
X91950634Y-80679648D01*
X91813688Y-80580152D01*
X91813687Y-80580151D01*
X91813685Y-80580150D01*
X91754913Y-80550204D01*
X91662853Y-80503296D01*
X91501847Y-80450981D01*
X91334649Y-80424500D01*
X91334644Y-80424500D01*
X91165356Y-80424500D01*
X91165351Y-80424500D01*
X90998152Y-80450981D01*
X90837146Y-80503296D01*
X90686311Y-80580152D01*
X90549365Y-80679648D01*
X90549360Y-80679652D01*
X90429652Y-80799360D01*
X90429648Y-80799365D01*
X90330152Y-80936311D01*
X90253295Y-81087149D01*
X90229099Y-81161614D01*
X90189661Y-81219288D01*
X90125301Y-81246485D01*
X90056455Y-81234569D01*
X90004980Y-81187324D01*
X89993238Y-81161611D01*
X89937924Y-80991374D01*
X89843244Y-80805556D01*
X89843236Y-80805543D01*
X89807372Y-80756180D01*
X89807371Y-80756179D01*
X89233787Y-81329764D01*
X89222518Y-81287708D01*
X89150110Y-81162292D01*
X89047708Y-81059890D01*
X88922292Y-80987482D01*
X88880233Y-80976212D01*
X89453819Y-80402627D01*
X89404451Y-80366759D01*
X89218627Y-80272075D01*
X89020272Y-80207626D01*
X88814279Y-80175000D01*
X88605721Y-80175000D01*
X88399727Y-80207626D01*
X88201372Y-80272075D01*
X88015552Y-80366757D01*
X87966180Y-80402627D01*
X88539766Y-80976212D01*
X88497708Y-80987482D01*
X88372292Y-81059890D01*
X88269890Y-81162292D01*
X88197482Y-81287708D01*
X88186212Y-81329765D01*
X87612627Y-80756180D01*
X87576757Y-80805552D01*
X87482075Y-80991372D01*
X87417626Y-81189727D01*
X87385000Y-81395720D01*
X87385000Y-81604279D01*
X87417626Y-81810272D01*
X87482075Y-82008627D01*
X87576759Y-82194451D01*
X87612627Y-82243818D01*
X87612627Y-82243819D01*
X88186212Y-81670233D01*
X88197482Y-81712292D01*
X88269890Y-81837708D01*
X88372292Y-81940110D01*
X88497708Y-82012518D01*
X88539765Y-82023787D01*
X87966179Y-82597371D01*
X87966180Y-82597372D01*
X88015543Y-82633236D01*
X88015561Y-82633247D01*
X88067115Y-82659516D01*
X88117910Y-82707490D01*
X88134705Y-82775311D01*
X88112167Y-82841446D01*
X88067115Y-82880484D01*
X88015555Y-82906755D01*
X87966180Y-82942627D01*
X88539766Y-83516212D01*
X88497708Y-83527482D01*
X88372292Y-83599890D01*
X88269890Y-83702292D01*
X88197482Y-83827708D01*
X88186212Y-83869765D01*
X87612627Y-83296180D01*
X87576757Y-83345552D01*
X87482075Y-83531372D01*
X87417626Y-83729727D01*
X87385000Y-83935720D01*
X87385000Y-84144279D01*
X87417626Y-84350272D01*
X87482075Y-84548627D01*
X87576759Y-84734451D01*
X87612627Y-84783818D01*
X87612627Y-84783819D01*
X88186212Y-84210233D01*
X88197482Y-84252292D01*
X88269890Y-84377708D01*
X88372292Y-84480110D01*
X88497708Y-84552518D01*
X88539765Y-84563787D01*
X87966179Y-85137371D01*
X87966180Y-85137372D01*
X88015543Y-85173236D01*
X88015556Y-85173244D01*
X88201372Y-85267924D01*
X88261833Y-85287569D01*
X88319508Y-85327007D01*
X88346706Y-85391366D01*
X88334791Y-85460212D01*
X88287547Y-85511688D01*
X88223514Y-85529500D01*
X73084500Y-85529500D01*
X73017461Y-85509815D01*
X72971706Y-85457011D01*
X72960500Y-85405500D01*
X72960500Y-81295720D01*
X74615000Y-81295720D01*
X74615000Y-81504279D01*
X74647626Y-81710272D01*
X74712075Y-81908627D01*
X74806759Y-82094451D01*
X74842627Y-82143818D01*
X74842627Y-82143819D01*
X75416212Y-81570233D01*
X75427482Y-81612292D01*
X75499890Y-81737708D01*
X75602292Y-81840110D01*
X75727708Y-81912518D01*
X75769765Y-81923787D01*
X75196179Y-82497371D01*
X75196180Y-82497372D01*
X75245543Y-82533236D01*
X75245561Y-82533247D01*
X75297115Y-82559516D01*
X75347910Y-82607490D01*
X75364705Y-82675311D01*
X75342167Y-82741446D01*
X75297115Y-82780484D01*
X75245555Y-82806755D01*
X75196180Y-82842627D01*
X75769766Y-83416212D01*
X75727708Y-83427482D01*
X75602292Y-83499890D01*
X75499890Y-83602292D01*
X75427482Y-83727708D01*
X75416212Y-83769765D01*
X74842627Y-83196180D01*
X74806757Y-83245552D01*
X74712075Y-83431372D01*
X74647626Y-83629727D01*
X74615000Y-83835720D01*
X74615000Y-84044279D01*
X74647626Y-84250272D01*
X74712075Y-84448627D01*
X74806759Y-84634451D01*
X74842627Y-84683818D01*
X74842627Y-84683819D01*
X75416212Y-84110233D01*
X75427482Y-84152292D01*
X75499890Y-84277708D01*
X75602292Y-84380110D01*
X75727708Y-84452518D01*
X75769765Y-84463787D01*
X75196179Y-85037371D01*
X75196180Y-85037372D01*
X75245543Y-85073236D01*
X75245556Y-85073244D01*
X75431372Y-85167924D01*
X75629727Y-85232373D01*
X75835721Y-85265000D01*
X76044279Y-85265000D01*
X76250272Y-85232373D01*
X76448627Y-85167924D01*
X76634451Y-85073240D01*
X76683818Y-85037372D01*
X76683818Y-85037371D01*
X76110234Y-84463787D01*
X76152292Y-84452518D01*
X76277708Y-84380110D01*
X76380110Y-84277708D01*
X76452518Y-84152292D01*
X76463787Y-84110234D01*
X77037371Y-84683818D01*
X77037372Y-84683818D01*
X77073240Y-84634451D01*
X77167924Y-84448625D01*
X77223238Y-84278388D01*
X77262675Y-84220713D01*
X77327034Y-84193514D01*
X77395880Y-84205428D01*
X77447356Y-84252673D01*
X77459099Y-84278386D01*
X77483294Y-84352849D01*
X77560152Y-84503688D01*
X77659648Y-84640634D01*
X77659652Y-84640639D01*
X77779360Y-84760347D01*
X77779365Y-84760351D01*
X77898817Y-84847137D01*
X77916315Y-84859850D01*
X78012425Y-84908820D01*
X78067146Y-84936703D01*
X78067148Y-84936703D01*
X78067151Y-84936705D01*
X78138384Y-84959850D01*
X78228152Y-84989018D01*
X78395351Y-85015500D01*
X78395356Y-85015500D01*
X78564649Y-85015500D01*
X78731847Y-84989018D01*
X78892849Y-84936705D01*
X79043685Y-84859850D01*
X79180641Y-84760346D01*
X79300346Y-84640641D01*
X79399850Y-84503685D01*
X79476705Y-84352849D01*
X79529018Y-84191847D01*
X79541600Y-84112409D01*
X79555500Y-84024649D01*
X79555500Y-83855350D01*
X79944500Y-83855350D01*
X79944500Y-84024649D01*
X79970981Y-84191847D01*
X80023296Y-84352853D01*
X80100152Y-84503688D01*
X80199648Y-84640634D01*
X80199652Y-84640639D01*
X80319360Y-84760347D01*
X80319365Y-84760351D01*
X80438817Y-84847137D01*
X80456315Y-84859850D01*
X80552425Y-84908820D01*
X80607146Y-84936703D01*
X80607148Y-84936703D01*
X80607151Y-84936705D01*
X80678384Y-84959850D01*
X80768152Y-84989018D01*
X80935351Y-85015500D01*
X80935356Y-85015500D01*
X81104649Y-85015500D01*
X81271847Y-84989018D01*
X81432849Y-84936705D01*
X81583685Y-84859850D01*
X81720641Y-84760346D01*
X81840346Y-84640641D01*
X81939850Y-84503685D01*
X82016705Y-84352849D01*
X82069018Y-84191847D01*
X82081600Y-84112409D01*
X82095500Y-84024649D01*
X82095500Y-83855350D01*
X82069018Y-83688152D01*
X82018076Y-83531372D01*
X82016705Y-83527151D01*
X82016703Y-83527148D01*
X82016703Y-83527146D01*
X81965921Y-83427482D01*
X81939850Y-83376315D01*
X81917502Y-83345556D01*
X81840351Y-83239365D01*
X81840347Y-83239360D01*
X81720639Y-83119652D01*
X81720634Y-83119648D01*
X81583688Y-83020152D01*
X81583687Y-83020151D01*
X81583685Y-83020150D01*
X81526438Y-82990981D01*
X81432853Y-82943296D01*
X81271847Y-82890981D01*
X81104649Y-82864500D01*
X81104644Y-82864500D01*
X80935356Y-82864500D01*
X80935351Y-82864500D01*
X80768152Y-82890981D01*
X80607146Y-82943296D01*
X80456311Y-83020152D01*
X80319365Y-83119648D01*
X80319360Y-83119652D01*
X80199652Y-83239360D01*
X80199648Y-83239365D01*
X80100152Y-83376311D01*
X80023296Y-83527146D01*
X79970981Y-83688152D01*
X79944500Y-83855350D01*
X79555500Y-83855350D01*
X79529018Y-83688152D01*
X79478076Y-83531372D01*
X79476705Y-83527151D01*
X79476703Y-83527148D01*
X79476703Y-83527146D01*
X79425921Y-83427482D01*
X79399850Y-83376315D01*
X79377502Y-83345556D01*
X79300351Y-83239365D01*
X79300347Y-83239360D01*
X79180639Y-83119652D01*
X79180634Y-83119648D01*
X79043688Y-83020152D01*
X79043687Y-83020151D01*
X79043685Y-83020150D01*
X78986438Y-82990981D01*
X78892853Y-82943296D01*
X78731847Y-82890981D01*
X78564649Y-82864500D01*
X78564644Y-82864500D01*
X78395356Y-82864500D01*
X78395351Y-82864500D01*
X78228152Y-82890981D01*
X78067146Y-82943296D01*
X77916311Y-83020152D01*
X77779365Y-83119648D01*
X77779360Y-83119652D01*
X77659652Y-83239360D01*
X77659648Y-83239365D01*
X77560152Y-83376311D01*
X77483295Y-83527149D01*
X77459099Y-83601614D01*
X77419661Y-83659288D01*
X77355301Y-83686485D01*
X77286455Y-83674569D01*
X77234980Y-83627324D01*
X77223238Y-83601611D01*
X77167924Y-83431374D01*
X77073244Y-83245556D01*
X77073236Y-83245543D01*
X77037372Y-83196180D01*
X77037371Y-83196179D01*
X76463787Y-83769764D01*
X76452518Y-83727708D01*
X76380110Y-83602292D01*
X76277708Y-83499890D01*
X76152292Y-83427482D01*
X76110233Y-83416212D01*
X76683819Y-82842627D01*
X76634451Y-82806759D01*
X76582885Y-82780485D01*
X76532089Y-82732511D01*
X76515294Y-82664690D01*
X76537831Y-82598555D01*
X76582885Y-82559515D01*
X76634451Y-82533240D01*
X76683818Y-82497372D01*
X76683818Y-82497371D01*
X76110234Y-81923787D01*
X76152292Y-81912518D01*
X76277708Y-81840110D01*
X76380110Y-81737708D01*
X76452518Y-81612292D01*
X76463787Y-81570234D01*
X77037371Y-82143818D01*
X77037372Y-82143818D01*
X77073240Y-82094451D01*
X77167924Y-81908625D01*
X77223238Y-81738388D01*
X77262675Y-81680713D01*
X77327034Y-81653514D01*
X77395880Y-81665428D01*
X77447356Y-81712673D01*
X77459099Y-81738386D01*
X77483294Y-81812849D01*
X77560152Y-81963688D01*
X77659648Y-82100634D01*
X77659652Y-82100639D01*
X77779360Y-82220347D01*
X77779365Y-82220351D01*
X77898817Y-82307137D01*
X77916315Y-82319850D01*
X78012425Y-82368820D01*
X78067146Y-82396703D01*
X78067148Y-82396703D01*
X78067151Y-82396705D01*
X78138384Y-82419850D01*
X78228152Y-82449018D01*
X78395351Y-82475500D01*
X78395356Y-82475500D01*
X78564649Y-82475500D01*
X78731847Y-82449018D01*
X78892849Y-82396705D01*
X79043685Y-82319850D01*
X79180641Y-82220346D01*
X79300346Y-82100641D01*
X79399850Y-81963685D01*
X79476705Y-81812849D01*
X79529018Y-81651847D01*
X79541600Y-81572409D01*
X79555500Y-81484649D01*
X79555500Y-81315350D01*
X79944500Y-81315350D01*
X79944500Y-81484649D01*
X79970981Y-81651847D01*
X80023296Y-81812853D01*
X80100152Y-81963688D01*
X80199648Y-82100634D01*
X80199652Y-82100639D01*
X80319360Y-82220347D01*
X80319365Y-82220351D01*
X80438817Y-82307137D01*
X80456315Y-82319850D01*
X80552425Y-82368820D01*
X80607146Y-82396703D01*
X80607148Y-82396703D01*
X80607151Y-82396705D01*
X80678384Y-82419850D01*
X80768152Y-82449018D01*
X80935351Y-82475500D01*
X80935356Y-82475500D01*
X81104649Y-82475500D01*
X81271847Y-82449018D01*
X81323666Y-82432181D01*
X81361616Y-82419850D01*
X81432849Y-82396705D01*
X81583685Y-82319850D01*
X81720641Y-82220346D01*
X81840346Y-82100641D01*
X81939850Y-81963685D01*
X82016705Y-81812849D01*
X82069018Y-81651847D01*
X82081600Y-81572409D01*
X82095500Y-81484649D01*
X82095500Y-81315350D01*
X82069018Y-81148152D01*
X82018076Y-80991372D01*
X82016705Y-80987151D01*
X82016703Y-80987148D01*
X82016703Y-80987146D01*
X81965921Y-80887482D01*
X81939850Y-80836315D01*
X81917502Y-80805556D01*
X81840351Y-80699365D01*
X81840347Y-80699360D01*
X81720639Y-80579652D01*
X81720634Y-80579648D01*
X81680108Y-80550204D01*
X81583688Y-80480152D01*
X81583687Y-80480151D01*
X81583685Y-80480150D01*
X81526438Y-80450981D01*
X81432853Y-80403296D01*
X81271847Y-80350981D01*
X81104649Y-80324500D01*
X81104644Y-80324500D01*
X80935356Y-80324500D01*
X80935351Y-80324500D01*
X80768152Y-80350981D01*
X80607146Y-80403296D01*
X80456311Y-80480152D01*
X80319365Y-80579648D01*
X80319360Y-80579652D01*
X80199652Y-80699360D01*
X80199648Y-80699365D01*
X80100152Y-80836311D01*
X80023296Y-80987146D01*
X79970981Y-81148152D01*
X79944500Y-81315350D01*
X79555500Y-81315350D01*
X79529018Y-81148152D01*
X79478076Y-80991372D01*
X79476705Y-80987151D01*
X79476703Y-80987148D01*
X79476703Y-80987146D01*
X79425921Y-80887482D01*
X79399850Y-80836315D01*
X79377502Y-80805556D01*
X79300351Y-80699365D01*
X79300347Y-80699360D01*
X79180639Y-80579652D01*
X79180634Y-80579648D01*
X79043688Y-80480152D01*
X79043687Y-80480151D01*
X79043685Y-80480150D01*
X78986438Y-80450981D01*
X78892853Y-80403296D01*
X78731847Y-80350981D01*
X78564649Y-80324500D01*
X78564644Y-80324500D01*
X78395356Y-80324500D01*
X78395351Y-80324500D01*
X78228152Y-80350981D01*
X78067146Y-80403296D01*
X77916311Y-80480152D01*
X77779365Y-80579648D01*
X77779360Y-80579652D01*
X77659652Y-80699360D01*
X77659648Y-80699365D01*
X77560152Y-80836311D01*
X77483295Y-80987149D01*
X77459099Y-81061614D01*
X77419661Y-81119288D01*
X77355301Y-81146485D01*
X77286455Y-81134569D01*
X77234980Y-81087324D01*
X77223238Y-81061611D01*
X77167924Y-80891374D01*
X77073244Y-80705556D01*
X77073236Y-80705543D01*
X77037372Y-80656180D01*
X77037371Y-80656179D01*
X76463787Y-81229764D01*
X76452518Y-81187708D01*
X76380110Y-81062292D01*
X76277708Y-80959890D01*
X76152292Y-80887482D01*
X76110233Y-80876212D01*
X76683819Y-80302627D01*
X76634451Y-80266759D01*
X76448627Y-80172075D01*
X76250272Y-80107626D01*
X76044279Y-80075000D01*
X75835721Y-80075000D01*
X75629727Y-80107626D01*
X75431372Y-80172075D01*
X75245552Y-80266757D01*
X75196180Y-80302627D01*
X75769766Y-80876212D01*
X75727708Y-80887482D01*
X75602292Y-80959890D01*
X75499890Y-81062292D01*
X75427482Y-81187708D01*
X75416212Y-81229765D01*
X74842627Y-80656180D01*
X74806757Y-80705552D01*
X74712075Y-80891372D01*
X74647626Y-81089727D01*
X74615000Y-81295720D01*
X72960500Y-81295720D01*
X72960500Y-76535837D01*
X73249500Y-76535837D01*
X73249500Y-76764162D01*
X73285215Y-76989660D01*
X73355770Y-77206803D01*
X73428733Y-77350000D01*
X73459421Y-77410228D01*
X73593621Y-77594937D01*
X73755063Y-77756379D01*
X73939772Y-77890579D01*
X73995783Y-77919118D01*
X74143196Y-77994229D01*
X74143198Y-77994229D01*
X74143201Y-77994231D01*
X74259592Y-78032049D01*
X74360339Y-78064784D01*
X74585838Y-78100500D01*
X74585843Y-78100500D01*
X74814162Y-78100500D01*
X75039660Y-78064784D01*
X75256799Y-77994231D01*
X75460228Y-77890579D01*
X75644937Y-77756379D01*
X75806379Y-77594937D01*
X75940579Y-77410228D01*
X76044231Y-77206799D01*
X76114784Y-76989660D01*
X76140192Y-76829240D01*
X76150500Y-76764162D01*
X76150500Y-76535837D01*
X77209500Y-76535837D01*
X77209500Y-76764162D01*
X77245215Y-76989660D01*
X77315770Y-77206803D01*
X77388733Y-77350000D01*
X77419421Y-77410228D01*
X77553621Y-77594937D01*
X77715063Y-77756379D01*
X77899772Y-77890579D01*
X77955783Y-77919118D01*
X78103196Y-77994229D01*
X78103198Y-77994229D01*
X78103201Y-77994231D01*
X78219592Y-78032049D01*
X78320339Y-78064784D01*
X78545838Y-78100500D01*
X78545843Y-78100500D01*
X78774162Y-78100500D01*
X78999660Y-78064784D01*
X79216799Y-77994231D01*
X79420228Y-77890579D01*
X79604937Y-77756379D01*
X79766379Y-77594937D01*
X79900579Y-77410228D01*
X80004231Y-77206799D01*
X80074784Y-76989660D01*
X80100192Y-76829240D01*
X80110500Y-76764162D01*
X80110500Y-76535837D01*
X81169500Y-76535837D01*
X81169500Y-76764162D01*
X81205215Y-76989660D01*
X81275770Y-77206803D01*
X81348733Y-77350000D01*
X81379421Y-77410228D01*
X81513621Y-77594937D01*
X81675063Y-77756379D01*
X81859772Y-77890579D01*
X81915783Y-77919118D01*
X82063196Y-77994229D01*
X82063198Y-77994229D01*
X82063201Y-77994231D01*
X82179592Y-78032049D01*
X82280339Y-78064784D01*
X82505838Y-78100500D01*
X82505843Y-78100500D01*
X82734162Y-78100500D01*
X82959660Y-78064784D01*
X83176799Y-77994231D01*
X83380228Y-77890579D01*
X83564937Y-77756379D01*
X83726379Y-77594937D01*
X83860579Y-77410228D01*
X83964231Y-77206799D01*
X84034784Y-76989660D01*
X84060192Y-76829240D01*
X84070500Y-76764162D01*
X84070500Y-76535837D01*
X85129500Y-76535837D01*
X85129500Y-76764162D01*
X85165215Y-76989660D01*
X85235770Y-77206803D01*
X85308733Y-77350000D01*
X85339421Y-77410228D01*
X85473621Y-77594937D01*
X85635063Y-77756379D01*
X85819772Y-77890579D01*
X85875783Y-77919118D01*
X86023196Y-77994229D01*
X86023198Y-77994229D01*
X86023201Y-77994231D01*
X86139592Y-78032049D01*
X86240339Y-78064784D01*
X86465838Y-78100500D01*
X86465843Y-78100500D01*
X86694162Y-78100500D01*
X86919660Y-78064784D01*
X87136799Y-77994231D01*
X87340228Y-77890579D01*
X87524937Y-77756379D01*
X87686379Y-77594937D01*
X87820579Y-77410228D01*
X87924231Y-77206799D01*
X87994784Y-76989660D01*
X88020192Y-76829240D01*
X88030500Y-76764162D01*
X88030500Y-76535837D01*
X89089500Y-76535837D01*
X89089500Y-76764162D01*
X89125215Y-76989660D01*
X89195770Y-77206803D01*
X89268733Y-77350000D01*
X89299421Y-77410228D01*
X89433621Y-77594937D01*
X89595063Y-77756379D01*
X89779772Y-77890579D01*
X89835783Y-77919118D01*
X89983196Y-77994229D01*
X89983198Y-77994229D01*
X89983201Y-77994231D01*
X90099592Y-78032049D01*
X90200339Y-78064784D01*
X90425838Y-78100500D01*
X90425843Y-78100500D01*
X90654162Y-78100500D01*
X90879660Y-78064784D01*
X91096799Y-77994231D01*
X91300228Y-77890579D01*
X91484937Y-77756379D01*
X91646379Y-77594937D01*
X91780579Y-77410228D01*
X91884231Y-77206799D01*
X91954784Y-76989660D01*
X91976242Y-76854182D01*
X91980193Y-76829240D01*
X91980193Y-76829239D01*
X91990500Y-76764163D01*
X91990500Y-76535837D01*
X91954784Y-76310339D01*
X91920159Y-76203776D01*
X91884231Y-76093201D01*
X91884229Y-76093198D01*
X91884229Y-76093196D01*
X91824973Y-75976901D01*
X91780579Y-75889772D01*
X91657049Y-75719749D01*
X91657049Y-75719748D01*
X91646383Y-75705069D01*
X91646379Y-75705063D01*
X91484937Y-75543621D01*
X91300228Y-75409421D01*
X91096803Y-75305770D01*
X90879660Y-75235215D01*
X90654162Y-75199500D01*
X90654157Y-75199500D01*
X90425843Y-75199500D01*
X90425838Y-75199500D01*
X90200339Y-75235215D01*
X89983196Y-75305770D01*
X89779771Y-75409421D01*
X89595061Y-75543622D01*
X89433622Y-75705061D01*
X89299421Y-75889771D01*
X89195770Y-76093196D01*
X89125215Y-76310339D01*
X89089500Y-76535837D01*
X88030500Y-76535837D01*
X87994784Y-76310339D01*
X87960159Y-76203776D01*
X87924231Y-76093201D01*
X87924229Y-76093198D01*
X87924229Y-76093196D01*
X87864973Y-75976901D01*
X87820579Y-75889772D01*
X87686379Y-75705063D01*
X87524937Y-75543621D01*
X87340228Y-75409421D01*
X87136803Y-75305770D01*
X86919660Y-75235215D01*
X86694162Y-75199500D01*
X86694157Y-75199500D01*
X86465843Y-75199500D01*
X86465838Y-75199500D01*
X86240339Y-75235215D01*
X86023196Y-75305770D01*
X85819771Y-75409421D01*
X85635061Y-75543622D01*
X85473622Y-75705061D01*
X85339421Y-75889771D01*
X85235770Y-76093196D01*
X85165215Y-76310339D01*
X85129500Y-76535837D01*
X84070500Y-76535837D01*
X84034784Y-76310339D01*
X84000159Y-76203776D01*
X83964231Y-76093201D01*
X83964229Y-76093198D01*
X83964229Y-76093196D01*
X83904973Y-75976901D01*
X83860579Y-75889772D01*
X83726379Y-75705063D01*
X83564937Y-75543621D01*
X83380228Y-75409421D01*
X83176803Y-75305770D01*
X82959660Y-75235215D01*
X82734162Y-75199500D01*
X82734157Y-75199500D01*
X82505843Y-75199500D01*
X82505838Y-75199500D01*
X82280339Y-75235215D01*
X82063196Y-75305770D01*
X81859771Y-75409421D01*
X81675061Y-75543622D01*
X81513622Y-75705061D01*
X81379421Y-75889771D01*
X81275770Y-76093196D01*
X81205215Y-76310339D01*
X81169500Y-76535837D01*
X80110500Y-76535837D01*
X80074784Y-76310339D01*
X80040159Y-76203776D01*
X80004231Y-76093201D01*
X80004229Y-76093198D01*
X80004229Y-76093196D01*
X79944973Y-75976901D01*
X79900579Y-75889772D01*
X79766379Y-75705063D01*
X79604937Y-75543621D01*
X79420228Y-75409421D01*
X79216803Y-75305770D01*
X78999660Y-75235215D01*
X78774162Y-75199500D01*
X78774157Y-75199500D01*
X78545843Y-75199500D01*
X78545838Y-75199500D01*
X78320339Y-75235215D01*
X78103196Y-75305770D01*
X77899771Y-75409421D01*
X77715061Y-75543622D01*
X77553622Y-75705061D01*
X77419421Y-75889771D01*
X77315770Y-76093196D01*
X77245215Y-76310339D01*
X77209500Y-76535837D01*
X76150500Y-76535837D01*
X76114784Y-76310339D01*
X76080159Y-76203776D01*
X76044231Y-76093201D01*
X76044229Y-76093198D01*
X76044229Y-76093196D01*
X75984973Y-75976901D01*
X75940579Y-75889772D01*
X75806379Y-75705063D01*
X75644937Y-75543621D01*
X75460228Y-75409421D01*
X75256803Y-75305770D01*
X75039660Y-75235215D01*
X74814162Y-75199500D01*
X74814157Y-75199500D01*
X74585843Y-75199500D01*
X74585838Y-75199500D01*
X74360339Y-75235215D01*
X74143196Y-75305770D01*
X73939771Y-75409421D01*
X73755061Y-75543622D01*
X73593622Y-75705061D01*
X73459421Y-75889771D01*
X73355770Y-76093196D01*
X73285215Y-76310339D01*
X73249500Y-76535837D01*
X72960500Y-76535837D01*
X72960500Y-70264500D01*
X72980185Y-70197461D01*
X73032989Y-70151706D01*
X73084500Y-70140500D01*
X96185500Y-70140500D01*
X96252539Y-70160185D01*
G37*
%TD.AperFunction*%
%TD*%
M02*
