M48
; DRILL file KiCad 10.0.3 date 2026-07-08T05:54:14
; FORMAT={-:-/ absolute / metric / decimal}
; #@! TF.CreationDate,2026-07-08T05:54:14-04:00
; #@! TF.GenerationSoftware,Kicad,Pcbnew,10.0.3
; #@! TF.FileFunction,Plated,1,4,PTH
FMAT,2
METRIC
; #@! TA.AperFunction,Plated,PTH,ViaDrill
T1C0.300
; #@! TA.AperFunction,Plated,PTH,ViaDrill
T2C0.350
; #@! TA.AperFunction,Plated,PTH,ComponentDrill
T3C2.200
%
G90
G05
T1
X47.68Y-35.66
X57.89Y-48.89
X59.51Y-47.38
X62.5Y-44.68
X63.3Y-43.88
T2
X43.52Y-45.39
X43.86Y-39.72
X44.19Y-38.48
X44.28Y-46.79
X44.28Y-36.713
X44.29Y-35.28
X44.35Y-48.45
X44.46Y-49.71
X44.84Y-39.73
X44.86Y-40.61
X45.52Y-50.89
X45.6Y-34.4
X46.94Y-50.94
X47.35Y-33.81
X48.28Y-50.94
X49.1Y-33.74
X49.318Y-44.102
X50.09Y-38.55
X50.91Y-33.74
X51.16Y-51.8
X52.72Y-33.61
X52.74Y-50.84
X52.76Y-51.93
X53.476Y-47.496
X53.478Y-44.972
X53.82Y-50.85
X53.86Y-51.99
X54.291Y-47.517
X54.72Y-33.53
X54.95Y-50.83
X55.041Y-47.517
X55.09Y-51.94
X55.82Y-47.53
X56.26Y-33.8
X57.6Y-51.96
X57.64Y-50.73
X57.92Y-33.85
X58.69Y-47.53
X58.79Y-33.03
X59.07Y-50.82
X59.27Y-34.12
X60.53Y-50.74
X60.58Y-34.42
X60.78Y-40.18
X61.17Y-46.12
X61.17Y-47.14
X61.23Y-42.62
X61.24Y-49.51
X61.25Y-48.34
X61.58Y-45.19
X61.78Y-34.47
X61.88Y-40.17
X62.03Y-42.59
X62.61Y-40.56
X62.92Y-34.42
X63.35Y-36.94
T3
X44.6Y-31.99
X44.6Y-54.49
X61.35Y-31.99
X61.35Y-54.49
M30
