%TF.GenerationSoftware,KiCad,Pcbnew,10.0.3*%
%TF.CreationDate,2026-07-08T05:54:12-04:00*%
%TF.ProjectId,SAM10M8_18mm_HV_V2,53414d31-304d-4385-9f31-386d6d5f4856,rev?*%
%TF.SameCoordinates,Original*%
%TF.FileFunction,Soldermask,Top*%
%TF.FilePolarity,Negative*%
%FSLAX46Y46*%
G04 Gerber Fmt 4.6, Leading zero omitted, Abs format (unit mm)*
G04 Created by KiCad (PCBNEW 10.0.3) date 2026-07-08 05:54:12*
%MOMM*%
%LPD*%
G01*
G04 APERTURE LIST*
G04 Aperture macros list*
%AMRoundRect*
0 Rectangle with rounded corners*
0 $1 Rounding radius*
0 $2 $3 $4 $5 $6 $7 $8 $9 X,Y pos of 4 corners*
0 Add a 4 corners polygon primitive as box body*
4,1,4,$2,$3,$4,$5,$6,$7,$8,$9,$2,$3,0*
0 Add four circle primitives for the rounded corners*
1,1,$1+$1,$2,$3*
1,1,$1+$1,$4,$5*
1,1,$1+$1,$6,$7*
1,1,$1+$1,$8,$9*
0 Add four rect primitives between the rounded corners*
20,1,$1+$1,$2,$3,$4,$5,0*
20,1,$1+$1,$4,$5,$6,$7,0*
20,1,$1+$1,$6,$7,$8,$9,0*
20,1,$1+$1,$8,$9,$2,$3,0*%
G04 Aperture macros list end*
%ADD10RoundRect,0.140000X0.170000X-0.140000X0.170000X0.140000X-0.170000X0.140000X-0.170000X-0.140000X0*%
%ADD11RoundRect,0.250000X-0.475000X0.250000X-0.475000X-0.250000X0.475000X-0.250000X0.475000X0.250000X0*%
%ADD12RoundRect,0.250000X0.250000X0.475000X-0.250000X0.475000X-0.250000X-0.475000X0.250000X-0.475000X0*%
%ADD13RoundRect,0.135000X0.185000X-0.135000X0.185000X0.135000X-0.185000X0.135000X-0.185000X-0.135000X0*%
%ADD14RoundRect,0.250000X0.475000X-0.250000X0.475000X0.250000X-0.475000X0.250000X-0.475000X-0.250000X0*%
%ADD15RoundRect,0.135000X-0.135000X-0.185000X0.135000X-0.185000X0.135000X0.185000X-0.135000X0.185000X0*%
%ADD16RoundRect,0.010100X0.416900X0.191900X-0.416900X0.191900X-0.416900X-0.191900X0.416900X-0.191900X0*%
%ADD17RoundRect,0.010100X0.591900X0.191900X-0.591900X0.191900X-0.591900X-0.191900X0.591900X-0.191900X0*%
%ADD18RoundRect,0.011350X0.215650X0.365650X-0.215650X0.365650X-0.215650X-0.365650X0.215650X-0.365650X0*%
%ADD19RoundRect,0.135000X0.135000X0.185000X-0.135000X0.185000X-0.135000X-0.185000X0.135000X-0.185000X0*%
%ADD20C,3.800000*%
%ADD21RoundRect,0.147500X0.172500X-0.147500X0.172500X0.147500X-0.172500X0.147500X-0.172500X-0.147500X0*%
%ADD22RoundRect,0.102000X-0.700000X-0.500000X0.700000X-0.500000X0.700000X0.500000X-0.700000X0.500000X0*%
%ADD23RoundRect,0.135000X-0.185000X0.135000X-0.185000X-0.135000X0.185000X-0.135000X0.185000X0.135000X0*%
%ADD24RoundRect,0.102000X1.250000X-1.000000X1.250000X1.000000X-1.250000X1.000000X-1.250000X-1.000000X0*%
%ADD25RoundRect,0.102000X0.450000X0.200000X-0.450000X0.200000X-0.450000X-0.200000X0.450000X-0.200000X0*%
%ADD26RoundRect,0.140000X-0.140000X-0.170000X0.140000X-0.170000X0.140000X0.170000X-0.140000X0.170000X0*%
%ADD27R,0.660400X1.549400*%
%ADD28R,1.295400X1.905000*%
%ADD29RoundRect,0.147500X0.147500X0.172500X-0.147500X0.172500X-0.147500X-0.172500X0.147500X-0.172500X0*%
%ADD30RoundRect,0.140000X-0.170000X0.140000X-0.170000X-0.140000X0.170000X-0.140000X0.170000X0.140000X0*%
G04 APERTURE END LIST*
D10*
%TO.C,C5*%
X62810000Y-39720000D03*
X62810000Y-38760000D03*
%TD*%
D11*
%TO.C,C12*%
X59260000Y-39290000D03*
X59260000Y-41190000D03*
%TD*%
D12*
%TO.C,C13*%
X51460000Y-40000000D03*
X49560000Y-40000000D03*
%TD*%
D13*
%TO.C,R6*%
X56880000Y-47520000D03*
X56880000Y-46500000D03*
%TD*%
D14*
%TO.C,C9*%
X47100000Y-45340000D03*
X47100000Y-43440000D03*
%TD*%
D15*
%TO.C,R4*%
X50740000Y-38510000D03*
X51760000Y-38510000D03*
%TD*%
D16*
%TO.C,U3*%
X51690000Y-44570000D03*
D17*
X51515000Y-44070000D03*
D16*
X51690000Y-43570000D03*
D17*
X50115000Y-43570000D03*
D16*
X49940000Y-44070000D03*
D17*
X50115000Y-44570000D03*
D18*
X50065000Y-45245000D03*
X50565000Y-45245000D03*
X51065000Y-45245000D03*
X51565000Y-45245000D03*
%TD*%
D19*
%TO.C,R2*%
X62370000Y-43670000D03*
X61350000Y-43670000D03*
%TD*%
D20*
%TO.C,H2*%
X61350000Y-31990000D03*
%TD*%
D19*
%TO.C,R1*%
X44040000Y-40625000D03*
X43020000Y-40625000D03*
%TD*%
D21*
%TO.C,D3*%
X56930000Y-33005000D03*
X56930000Y-32035000D03*
%TD*%
D22*
%TO.C,FB1*%
X59800000Y-35550000D03*
X62400000Y-35550000D03*
%TD*%
D10*
%TO.C,C7*%
X48550000Y-44390000D03*
X48550000Y-43430000D03*
%TD*%
D23*
%TO.C,R5*%
X57850000Y-46510000D03*
X57850000Y-47530000D03*
%TD*%
D11*
%TO.C,C1*%
X61300000Y-39270000D03*
X61300000Y-41170000D03*
%TD*%
D24*
%TO.C,L1*%
X55240000Y-44790000D03*
X55240000Y-39790000D03*
%TD*%
D20*
%TO.C,H3*%
X44600000Y-54490000D03*
%TD*%
D25*
%TO.C,FL1*%
X50952500Y-46660000D03*
X49252500Y-46660000D03*
X49252500Y-47460000D03*
X50952500Y-47460000D03*
%TD*%
D20*
%TO.C,H4*%
X61350000Y-54490000D03*
%TD*%
D26*
%TO.C,C10*%
X53030000Y-46730000D03*
X53990000Y-46730000D03*
%TD*%
D27*
%TO.C,J3*%
X55010003Y-49425001D03*
X54010003Y-49425001D03*
X53010002Y-49425001D03*
X52010001Y-49425001D03*
X51010001Y-49425001D03*
D28*
X49710004Y-51950000D03*
X56310000Y-51950000D03*
%TD*%
D29*
%TO.C,D1*%
X43990000Y-41655000D03*
X43020000Y-41655000D03*
%TD*%
D13*
%TO.C,R3*%
X57950000Y-33030000D03*
X57950000Y-32010000D03*
%TD*%
D20*
%TO.C,H1*%
X44600000Y-31990000D03*
%TD*%
D30*
%TO.C,C6*%
X63250000Y-41250000D03*
X63250000Y-42210000D03*
%TD*%
D12*
%TO.C,C11*%
X51420000Y-41980000D03*
X49520000Y-41980000D03*
%TD*%
D14*
%TO.C,C8*%
X45140000Y-45330000D03*
X45140000Y-43430000D03*
%TD*%
M02*
