%TF.GenerationSoftware,KiCad,Pcbnew,10.0.3*%
%TF.CreationDate,2026-07-08T05:54:12-04:00*%
%TF.ProjectId,SAM10M8_18mm_HV_V2,53414d31-304d-4385-9f31-386d6d5f4856,rev?*%
%TF.SameCoordinates,Original*%
%TF.FileFunction,Copper,L3,Inr*%
%TF.FilePolarity,Positive*%
%FSLAX46Y46*%
G04 Gerber Fmt 4.6, Leading zero omitted, Abs format (unit mm)*
G04 Created by KiCad (PCBNEW 10.0.3) date 2026-07-08 05:54:12*
%MOMM*%
%LPD*%
G01*
G04 APERTURE LIST*
%TA.AperFunction,ComponentPad*%
%ADD10C,3.800000*%
%TD*%
%TA.AperFunction,ViaPad*%
%ADD11C,0.550000*%
%TD*%
%TA.AperFunction,ViaPad*%
%ADD12C,0.600000*%
%TD*%
G04 APERTURE END LIST*
D10*
%TO.N,N/C*%
%TO.C,H2*%
X61350000Y-31990000D03*
%TD*%
%TO.N,N/C*%
%TO.C,H3*%
X44600000Y-54490000D03*
%TD*%
%TO.N,N/C*%
%TO.C,H4*%
X61350000Y-54490000D03*
%TD*%
%TO.N,N/C*%
%TO.C,H1*%
X44600000Y-31990000D03*
%TD*%
D11*
%TO.N,+3V3*%
X61880000Y-40170000D03*
X58690000Y-47530000D03*
X53820000Y-50850000D03*
X58790000Y-33030000D03*
X52740000Y-50840000D03*
X62610000Y-40560000D03*
X54950000Y-50830000D03*
X60780000Y-40180000D03*
%TO.N,GND*%
X51160000Y-51800000D03*
X61170000Y-47140000D03*
X46940000Y-50940000D03*
X54720000Y-33530000D03*
X44280000Y-46790000D03*
X44280276Y-36713043D03*
X59070000Y-50820000D03*
X45520000Y-50890000D03*
X53478173Y-44971827D03*
X60530000Y-50740000D03*
D12*
X47680000Y-35660000D03*
D11*
X60580000Y-34420000D03*
X62920000Y-34420000D03*
X43520000Y-45390000D03*
X50910000Y-33740000D03*
X52720000Y-33610000D03*
X63350000Y-36940000D03*
X48280000Y-50940000D03*
X44190000Y-38480000D03*
X57640000Y-50730000D03*
X44460000Y-49710000D03*
X57920000Y-33850000D03*
X61250000Y-48340000D03*
X61170000Y-46120000D03*
X49100000Y-33740000D03*
X47350000Y-33810000D03*
X53476320Y-47495970D03*
X59270000Y-34120000D03*
X57600000Y-51960000D03*
X55820000Y-47530000D03*
D12*
X63300000Y-43880000D03*
D11*
X53860000Y-51990000D03*
X61580000Y-45190000D03*
X56260000Y-33800000D03*
X61780000Y-34470000D03*
X44840000Y-39730000D03*
X44290000Y-35280000D03*
X62030000Y-42590000D03*
D12*
X62500000Y-44680000D03*
X59510000Y-47380000D03*
D11*
X43860000Y-39720000D03*
X52760000Y-51930000D03*
X44350000Y-48450000D03*
X61240000Y-49510000D03*
D12*
X57890000Y-48890000D03*
D11*
X55090000Y-51940000D03*
X45600000Y-34400000D03*
%TO.N,Net-(U3-PG)*%
X50090000Y-38550000D03*
X49317633Y-44102117D03*
%TO.N,Net-(U1-~{RESET})*%
X61230000Y-42620000D03*
%TO.N,Net-(U1-TIMEPULSE)*%
X44860000Y-40610000D03*
%TO.N,GNSS_RX*%
X55040761Y-47517498D03*
%TO.N,GNSS_TX*%
X54290758Y-47517498D03*
%TD*%
%TA.AperFunction,Conductor*%
%TO.N,+3V3*%
G36*
X60336574Y-30058806D02*
G01*
X60354880Y-30103000D01*
X60336574Y-30147194D01*
X60323630Y-30157127D01*
X60180523Y-30239749D01*
X59962077Y-30407367D01*
X59962067Y-30407376D01*
X59767376Y-30602067D01*
X59767367Y-30602077D01*
X59599749Y-30820523D01*
X59462080Y-31058973D01*
X59462074Y-31058984D01*
X59356703Y-31313373D01*
X59285440Y-31579329D01*
X59285440Y-31579330D01*
X59249500Y-31852321D01*
X59249500Y-32127678D01*
X59285440Y-32400669D01*
X59285440Y-32400670D01*
X59356703Y-32666626D01*
X59462074Y-32921015D01*
X59462076Y-32921018D01*
X59462077Y-32921021D01*
X59599751Y-33159479D01*
X59605449Y-33166905D01*
X59764741Y-33374500D01*
X59767372Y-33377928D01*
X59962072Y-33572628D01*
X60180521Y-33740249D01*
X60399692Y-33866788D01*
X60428812Y-33904738D01*
X60422569Y-33952164D01*
X60399692Y-33975041D01*
X60288035Y-34039505D01*
X60199505Y-34128035D01*
X60136905Y-34236464D01*
X60136904Y-34236466D01*
X60104500Y-34357393D01*
X60104500Y-34482606D01*
X60136904Y-34603533D01*
X60136905Y-34603536D01*
X60199505Y-34711964D01*
X60288036Y-34800495D01*
X60396464Y-34863095D01*
X60453132Y-34878279D01*
X60517393Y-34895499D01*
X60517399Y-34895500D01*
X60642601Y-34895500D01*
X60642606Y-34895499D01*
X60678533Y-34885871D01*
X60763536Y-34863095D01*
X60871964Y-34800495D01*
X60960495Y-34711964D01*
X61023095Y-34603536D01*
X61055500Y-34482601D01*
X61055500Y-34357399D01*
X61055499Y-34357393D01*
X61033555Y-34275500D01*
X61023095Y-34236464D01*
X60979691Y-34161286D01*
X60973449Y-34113862D01*
X61002569Y-34075911D01*
X61041976Y-34068073D01*
X61212326Y-34090500D01*
X61341791Y-34090500D01*
X61385985Y-34108806D01*
X61404291Y-34153000D01*
X61395918Y-34184248D01*
X61377321Y-34216460D01*
X61336904Y-34286464D01*
X61336904Y-34286466D01*
X61304500Y-34407393D01*
X61304500Y-34532606D01*
X61323507Y-34603536D01*
X61336905Y-34653536D01*
X61399505Y-34761964D01*
X61488036Y-34850495D01*
X61596464Y-34913095D01*
X61653132Y-34928279D01*
X61717393Y-34945499D01*
X61717399Y-34945500D01*
X61842601Y-34945500D01*
X61842606Y-34945499D01*
X61878533Y-34935871D01*
X61963536Y-34913095D01*
X62071964Y-34850495D01*
X62160495Y-34761964D01*
X62223095Y-34653536D01*
X62255500Y-34532601D01*
X62255500Y-34407399D01*
X62255498Y-34407391D01*
X62245340Y-34369478D01*
X62242102Y-34357393D01*
X62444500Y-34357393D01*
X62444500Y-34482606D01*
X62476904Y-34603533D01*
X62476905Y-34603536D01*
X62539505Y-34711964D01*
X62628036Y-34800495D01*
X62736464Y-34863095D01*
X62793132Y-34878279D01*
X62857393Y-34895499D01*
X62857399Y-34895500D01*
X62982601Y-34895500D01*
X62982606Y-34895499D01*
X63018533Y-34885871D01*
X63103536Y-34863095D01*
X63211964Y-34800495D01*
X63300495Y-34711964D01*
X63363095Y-34603536D01*
X63395500Y-34482601D01*
X63395500Y-34357399D01*
X63395499Y-34357393D01*
X63373555Y-34275500D01*
X63363095Y-34236464D01*
X63300495Y-34128036D01*
X63211964Y-34039505D01*
X63103536Y-33976905D01*
X63103533Y-33976904D01*
X62982606Y-33944500D01*
X62982601Y-33944500D01*
X62857399Y-33944500D01*
X62857393Y-33944500D01*
X62736466Y-33976904D01*
X62736464Y-33976905D01*
X62628035Y-34039505D01*
X62539505Y-34128035D01*
X62476905Y-34236464D01*
X62476904Y-34236466D01*
X62444500Y-34357393D01*
X62242102Y-34357393D01*
X62230480Y-34314025D01*
X62223095Y-34286464D01*
X62160495Y-34178036D01*
X62071964Y-34089505D01*
X62055669Y-34080097D01*
X62026550Y-34042148D01*
X62032793Y-33994721D01*
X62062999Y-33968230D01*
X62281021Y-33877923D01*
X62519479Y-33740249D01*
X62737928Y-33572628D01*
X62932628Y-33377928D01*
X63100249Y-33159479D01*
X63237923Y-32921021D01*
X63343295Y-32666632D01*
X63414560Y-32400666D01*
X63450500Y-32127674D01*
X63450500Y-31852326D01*
X63414560Y-31579334D01*
X63343295Y-31313368D01*
X63237923Y-31058979D01*
X63100249Y-30820521D01*
X62932628Y-30602072D01*
X62737928Y-30407372D01*
X62737924Y-30407369D01*
X62737922Y-30407367D01*
X62519476Y-30239749D01*
X62376370Y-30157127D01*
X62347250Y-30119176D01*
X62353493Y-30071750D01*
X62391444Y-30042630D01*
X62407620Y-30040500D01*
X63084108Y-30040500D01*
X63146491Y-30040500D01*
X63153488Y-30040893D01*
X63254148Y-30052234D01*
X63267794Y-30055348D01*
X63360081Y-30087641D01*
X63372689Y-30093713D01*
X63413212Y-30119176D01*
X63455470Y-30145728D01*
X63466412Y-30154454D01*
X63535545Y-30223587D01*
X63544271Y-30234529D01*
X63596285Y-30317309D01*
X63602358Y-30329918D01*
X63634651Y-30422205D01*
X63637765Y-30435850D01*
X63649107Y-30536510D01*
X63649500Y-30543508D01*
X63649500Y-36455603D01*
X63631194Y-36499797D01*
X63587000Y-36518103D01*
X63555751Y-36509730D01*
X63533539Y-36496906D01*
X63533533Y-36496904D01*
X63412606Y-36464500D01*
X63412601Y-36464500D01*
X63287399Y-36464500D01*
X63287393Y-36464500D01*
X63166466Y-36496904D01*
X63166464Y-36496905D01*
X63058035Y-36559505D01*
X62969505Y-36648035D01*
X62906905Y-36756464D01*
X62906904Y-36756466D01*
X62874500Y-36877393D01*
X62874500Y-37002606D01*
X62906904Y-37123533D01*
X62906905Y-37123536D01*
X62969505Y-37231964D01*
X63058036Y-37320495D01*
X63166464Y-37383095D01*
X63223132Y-37398279D01*
X63287393Y-37415499D01*
X63287399Y-37415500D01*
X63412601Y-37415500D01*
X63412606Y-37415499D01*
X63448533Y-37405871D01*
X63533536Y-37383095D01*
X63555750Y-37370270D01*
X63603176Y-37364025D01*
X63641126Y-37393146D01*
X63649500Y-37424396D01*
X63649500Y-43395602D01*
X63631194Y-43439796D01*
X63587000Y-43458102D01*
X63555750Y-43449729D01*
X63528880Y-43434216D01*
X63493186Y-43413608D01*
X63493184Y-43413607D01*
X63493182Y-43413606D01*
X63365898Y-43379501D01*
X63365893Y-43379500D01*
X63365892Y-43379500D01*
X63234108Y-43379500D01*
X63234107Y-43379500D01*
X63234101Y-43379501D01*
X63106817Y-43413606D01*
X63106814Y-43413607D01*
X62992684Y-43479501D01*
X62992680Y-43479504D01*
X62899504Y-43572680D01*
X62899501Y-43572684D01*
X62833607Y-43686814D01*
X62833606Y-43686817D01*
X62799501Y-43814101D01*
X62799500Y-43814109D01*
X62799500Y-43945890D01*
X62799501Y-43945898D01*
X62833606Y-44073182D01*
X62833607Y-44073185D01*
X62833608Y-44073186D01*
X62894989Y-44179501D01*
X62899501Y-44187315D01*
X62899504Y-44187319D01*
X62992680Y-44280495D01*
X62992684Y-44280498D01*
X62992686Y-44280500D01*
X63083873Y-44333147D01*
X63106814Y-44346392D01*
X63106817Y-44346393D01*
X63174010Y-44364397D01*
X63234108Y-44380500D01*
X63234109Y-44380500D01*
X63365891Y-44380500D01*
X63365892Y-44380500D01*
X63493186Y-44346392D01*
X63555751Y-44310269D01*
X63603176Y-44304027D01*
X63641127Y-44333147D01*
X63649500Y-44364397D01*
X63649500Y-56036491D01*
X63649107Y-56043488D01*
X63649107Y-56043489D01*
X63637765Y-56144149D01*
X63634651Y-56157794D01*
X63602358Y-56250081D01*
X63596285Y-56262690D01*
X63544271Y-56345470D01*
X63535545Y-56356412D01*
X63466412Y-56425545D01*
X63455470Y-56434271D01*
X63372690Y-56486285D01*
X63360081Y-56492358D01*
X63267794Y-56524651D01*
X63254149Y-56527765D01*
X63164565Y-56537858D01*
X63153487Y-56539107D01*
X63146491Y-56539500D01*
X62205148Y-56539500D01*
X62160954Y-56521194D01*
X62142648Y-56477000D01*
X62160954Y-56432806D01*
X62181230Y-56419258D01*
X62281021Y-56377923D01*
X62519479Y-56240249D01*
X62737928Y-56072628D01*
X62932628Y-55877928D01*
X63100249Y-55659479D01*
X63237923Y-55421021D01*
X63343295Y-55166632D01*
X63414560Y-54900666D01*
X63450500Y-54627674D01*
X63450500Y-54352326D01*
X63414560Y-54079334D01*
X63343295Y-53813368D01*
X63237923Y-53558979D01*
X63100249Y-53320521D01*
X62932628Y-53102072D01*
X62737928Y-52907372D01*
X62737924Y-52907369D01*
X62737922Y-52907367D01*
X62519476Y-52739749D01*
X62281026Y-52602080D01*
X62281021Y-52602077D01*
X62281018Y-52602076D01*
X62281015Y-52602074D01*
X62150080Y-52547839D01*
X62026632Y-52496705D01*
X62026628Y-52496704D01*
X62026626Y-52496703D01*
X62026627Y-52496703D01*
X61760669Y-52425440D01*
X61487678Y-52389500D01*
X61487674Y-52389500D01*
X61212326Y-52389500D01*
X61212321Y-52389500D01*
X60939330Y-52425440D01*
X60939329Y-52425440D01*
X60673373Y-52496703D01*
X60418984Y-52602074D01*
X60418973Y-52602080D01*
X60180523Y-52739749D01*
X59962077Y-52907367D01*
X59962067Y-52907376D01*
X59767376Y-53102067D01*
X59767367Y-53102077D01*
X59599749Y-53320523D01*
X59462080Y-53558973D01*
X59462074Y-53558984D01*
X59356703Y-53813373D01*
X59285440Y-54079329D01*
X59285440Y-54079330D01*
X59249500Y-54352321D01*
X59249500Y-54627678D01*
X59285440Y-54900669D01*
X59285440Y-54900670D01*
X59356703Y-55166626D01*
X59462074Y-55421015D01*
X59462076Y-55421018D01*
X59462077Y-55421021D01*
X59599751Y-55659479D01*
X59767372Y-55877928D01*
X59962072Y-56072628D01*
X60180521Y-56240249D01*
X60418979Y-56377923D01*
X60418984Y-56377925D01*
X60518770Y-56419258D01*
X60552595Y-56453082D01*
X60552594Y-56500918D01*
X60518770Y-56534743D01*
X60494852Y-56539500D01*
X45455148Y-56539500D01*
X45410954Y-56521194D01*
X45392648Y-56477000D01*
X45410954Y-56432806D01*
X45431230Y-56419258D01*
X45531021Y-56377923D01*
X45769479Y-56240249D01*
X45987928Y-56072628D01*
X46182628Y-55877928D01*
X46350249Y-55659479D01*
X46487923Y-55421021D01*
X46593295Y-55166632D01*
X46664560Y-54900666D01*
X46700500Y-54627674D01*
X46700500Y-54352326D01*
X46664560Y-54079334D01*
X46593295Y-53813368D01*
X46487923Y-53558979D01*
X46350249Y-53320521D01*
X46182628Y-53102072D01*
X45987928Y-52907372D01*
X45987924Y-52907369D01*
X45987922Y-52907367D01*
X45769476Y-52739749D01*
X45531026Y-52602080D01*
X45531021Y-52602077D01*
X45531018Y-52602076D01*
X45531015Y-52602074D01*
X45400080Y-52547839D01*
X45276632Y-52496705D01*
X45276628Y-52496704D01*
X45276626Y-52496703D01*
X45276627Y-52496703D01*
X45010669Y-52425440D01*
X44737678Y-52389500D01*
X44737674Y-52389500D01*
X44462326Y-52389500D01*
X44462321Y-52389500D01*
X44189330Y-52425440D01*
X44189329Y-52425440D01*
X43923373Y-52496703D01*
X43668984Y-52602074D01*
X43668973Y-52602080D01*
X43430523Y-52739749D01*
X43212077Y-52907367D01*
X43212067Y-52907376D01*
X43017376Y-53102067D01*
X43017367Y-53102077D01*
X42849749Y-53320523D01*
X42767127Y-53463629D01*
X42729176Y-53492749D01*
X42681750Y-53486506D01*
X42652630Y-53448555D01*
X42650500Y-53432379D01*
X42650500Y-51737393D01*
X50684500Y-51737393D01*
X50684500Y-51862606D01*
X50716904Y-51983533D01*
X50716905Y-51983536D01*
X50779505Y-52091964D01*
X50868036Y-52180495D01*
X50976464Y-52243095D01*
X51033132Y-52258279D01*
X51097393Y-52275499D01*
X51097399Y-52275500D01*
X51222601Y-52275500D01*
X51222606Y-52275499D01*
X51258533Y-52265871D01*
X51343536Y-52243095D01*
X51451964Y-52180495D01*
X51540495Y-52091964D01*
X51603095Y-51983536D01*
X51631535Y-51877399D01*
X51634216Y-51867393D01*
X52284500Y-51867393D01*
X52284500Y-51992606D01*
X52316904Y-52113533D01*
X52316905Y-52113536D01*
X52379505Y-52221964D01*
X52468036Y-52310495D01*
X52576464Y-52373095D01*
X52633132Y-52388279D01*
X52697393Y-52405499D01*
X52697399Y-52405500D01*
X52822601Y-52405500D01*
X52822606Y-52405499D01*
X52858533Y-52395871D01*
X52943536Y-52373095D01*
X53051964Y-52310495D01*
X53140495Y-52221964D01*
X53203095Y-52113536D01*
X53232819Y-52002606D01*
X53235499Y-51992606D01*
X53235500Y-51992600D01*
X53235500Y-51927393D01*
X53384500Y-51927393D01*
X53384500Y-52052606D01*
X53408866Y-52143535D01*
X53416905Y-52173536D01*
X53479505Y-52281964D01*
X53568036Y-52370495D01*
X53676464Y-52433095D01*
X53733132Y-52448279D01*
X53797393Y-52465499D01*
X53797399Y-52465500D01*
X53922601Y-52465500D01*
X53922606Y-52465499D01*
X53958533Y-52455871D01*
X54043536Y-52433095D01*
X54151964Y-52370495D01*
X54240495Y-52281964D01*
X54303095Y-52173536D01*
X54335500Y-52052601D01*
X54335500Y-51927399D01*
X54335498Y-51927391D01*
X54325340Y-51889478D01*
X54322102Y-51877393D01*
X54614500Y-51877393D01*
X54614500Y-52002606D01*
X54644225Y-52113535D01*
X54646905Y-52123536D01*
X54709505Y-52231964D01*
X54798036Y-52320495D01*
X54906464Y-52383095D01*
X54963132Y-52398279D01*
X55027393Y-52415499D01*
X55027399Y-52415500D01*
X55152601Y-52415500D01*
X55152606Y-52415499D01*
X55198900Y-52403094D01*
X55273536Y-52383095D01*
X55381964Y-52320495D01*
X55470495Y-52231964D01*
X55533095Y-52123536D01*
X55565500Y-52002601D01*
X55565500Y-51897393D01*
X57124500Y-51897393D01*
X57124500Y-52022606D01*
X57151546Y-52123536D01*
X57156905Y-52143536D01*
X57219505Y-52251964D01*
X57308036Y-52340495D01*
X57416464Y-52403095D01*
X57473132Y-52418279D01*
X57537393Y-52435499D01*
X57537399Y-52435500D01*
X57662601Y-52435500D01*
X57662606Y-52435499D01*
X57700145Y-52425440D01*
X57783536Y-52403095D01*
X57891964Y-52340495D01*
X57980495Y-52251964D01*
X58043095Y-52143536D01*
X58075500Y-52022601D01*
X58075500Y-51897399D01*
X58075499Y-51897393D01*
X58051134Y-51806466D01*
X58043095Y-51776464D01*
X57980495Y-51668036D01*
X57891964Y-51579505D01*
X57783536Y-51516905D01*
X57783533Y-51516904D01*
X57662606Y-51484500D01*
X57662601Y-51484500D01*
X57537399Y-51484500D01*
X57537393Y-51484500D01*
X57416466Y-51516904D01*
X57416464Y-51516905D01*
X57308035Y-51579505D01*
X57219505Y-51668035D01*
X57156905Y-51776464D01*
X57156904Y-51776466D01*
X57124500Y-51897393D01*
X55565500Y-51897393D01*
X55565500Y-51877399D01*
X55565499Y-51877393D01*
X55546493Y-51806464D01*
X55533095Y-51756464D01*
X55470495Y-51648036D01*
X55381964Y-51559505D01*
X55273536Y-51496905D01*
X55273533Y-51496904D01*
X55152606Y-51464500D01*
X55152601Y-51464500D01*
X55027399Y-51464500D01*
X55027393Y-51464500D01*
X54906466Y-51496904D01*
X54906464Y-51496905D01*
X54798035Y-51559505D01*
X54709505Y-51648035D01*
X54646905Y-51756464D01*
X54646904Y-51756466D01*
X54614500Y-51877393D01*
X54322102Y-51877393D01*
X54310480Y-51834025D01*
X54303095Y-51806464D01*
X54240495Y-51698036D01*
X54151964Y-51609505D01*
X54043536Y-51546905D01*
X54043533Y-51546904D01*
X53922606Y-51514500D01*
X53922601Y-51514500D01*
X53797399Y-51514500D01*
X53797393Y-51514500D01*
X53676466Y-51546904D01*
X53676464Y-51546905D01*
X53568035Y-51609505D01*
X53479505Y-51698035D01*
X53416905Y-51806464D01*
X53416904Y-51806466D01*
X53384500Y-51927393D01*
X53235500Y-51927393D01*
X53235500Y-51867399D01*
X53235499Y-51867393D01*
X53211134Y-51776466D01*
X53203095Y-51746464D01*
X53140495Y-51638036D01*
X53051964Y-51549505D01*
X52943536Y-51486905D01*
X52943533Y-51486904D01*
X52822606Y-51454500D01*
X52822601Y-51454500D01*
X52697399Y-51454500D01*
X52697393Y-51454500D01*
X52576466Y-51486904D01*
X52576464Y-51486905D01*
X52468035Y-51549505D01*
X52379505Y-51638035D01*
X52316905Y-51746464D01*
X52316904Y-51746466D01*
X52284500Y-51867393D01*
X51634216Y-51867393D01*
X51635499Y-51862606D01*
X51635500Y-51862600D01*
X51635500Y-51737399D01*
X51635499Y-51737393D01*
X51611555Y-51648036D01*
X51603095Y-51616464D01*
X51540495Y-51508036D01*
X51451964Y-51419505D01*
X51343536Y-51356905D01*
X51343533Y-51356904D01*
X51222606Y-51324500D01*
X51222601Y-51324500D01*
X51097399Y-51324500D01*
X51097393Y-51324500D01*
X50976466Y-51356904D01*
X50976464Y-51356905D01*
X50868035Y-51419505D01*
X50779505Y-51508035D01*
X50716905Y-51616464D01*
X50716904Y-51616466D01*
X50684500Y-51737393D01*
X42650500Y-51737393D01*
X42650500Y-50827393D01*
X45044500Y-50827393D01*
X45044500Y-50952606D01*
X45076904Y-51073533D01*
X45076905Y-51073536D01*
X45139505Y-51181964D01*
X45228036Y-51270495D01*
X45336464Y-51333095D01*
X45393132Y-51348279D01*
X45457393Y-51365499D01*
X45457399Y-51365500D01*
X45582601Y-51365500D01*
X45582606Y-51365499D01*
X45618533Y-51355871D01*
X45703536Y-51333095D01*
X45811964Y-51270495D01*
X45900495Y-51181964D01*
X45963095Y-51073536D01*
X45995500Y-50952601D01*
X45995500Y-50877393D01*
X46464500Y-50877393D01*
X46464500Y-51002606D01*
X46493804Y-51111964D01*
X46496905Y-51123536D01*
X46559505Y-51231964D01*
X46648036Y-51320495D01*
X46756464Y-51383095D01*
X46813132Y-51398279D01*
X46877393Y-51415499D01*
X46877399Y-51415500D01*
X47002601Y-51415500D01*
X47002606Y-51415499D01*
X47038533Y-51405871D01*
X47123536Y-51383095D01*
X47231964Y-51320495D01*
X47320495Y-51231964D01*
X47383095Y-51123536D01*
X47410312Y-51021964D01*
X47415499Y-51002606D01*
X47415500Y-51002600D01*
X47415500Y-50877399D01*
X47415499Y-50877393D01*
X47804500Y-50877393D01*
X47804500Y-51002606D01*
X47833804Y-51111964D01*
X47836905Y-51123536D01*
X47899505Y-51231964D01*
X47988036Y-51320495D01*
X48096464Y-51383095D01*
X48153132Y-51398279D01*
X48217393Y-51415499D01*
X48217399Y-51415500D01*
X48342601Y-51415500D01*
X48342606Y-51415499D01*
X48378533Y-51405871D01*
X48463536Y-51383095D01*
X48571964Y-51320495D01*
X48660495Y-51231964D01*
X48723095Y-51123536D01*
X48750312Y-51021964D01*
X48755499Y-51002606D01*
X48755500Y-51002600D01*
X48755500Y-50877399D01*
X48755499Y-50877393D01*
X48735459Y-50802606D01*
X48723095Y-50756464D01*
X48671671Y-50667393D01*
X57164500Y-50667393D01*
X57164500Y-50792606D01*
X57188617Y-50882606D01*
X57196905Y-50913536D01*
X57259505Y-51021964D01*
X57348036Y-51110495D01*
X57456464Y-51173095D01*
X57513132Y-51188279D01*
X57577393Y-51205499D01*
X57577399Y-51205500D01*
X57702601Y-51205500D01*
X57702606Y-51205499D01*
X57738533Y-51195871D01*
X57823536Y-51173095D01*
X57931964Y-51110495D01*
X58020495Y-51021964D01*
X58083095Y-50913536D01*
X58112819Y-50802606D01*
X58115499Y-50792606D01*
X58115500Y-50792600D01*
X58115500Y-50757393D01*
X58594500Y-50757393D01*
X58594500Y-50882606D01*
X58626654Y-51002600D01*
X58626905Y-51003536D01*
X58689505Y-51111964D01*
X58778036Y-51200495D01*
X58886464Y-51263095D01*
X58943132Y-51278279D01*
X59007393Y-51295499D01*
X59007399Y-51295500D01*
X59132601Y-51295500D01*
X59132606Y-51295499D01*
X59168533Y-51285871D01*
X59253536Y-51263095D01*
X59361964Y-51200495D01*
X59450495Y-51111964D01*
X59513095Y-51003536D01*
X59545500Y-50882601D01*
X59545500Y-50757399D01*
X59545499Y-50757393D01*
X59527301Y-50689479D01*
X59524062Y-50677393D01*
X60054500Y-50677393D01*
X60054500Y-50802606D01*
X60084225Y-50913535D01*
X60086905Y-50923536D01*
X60149505Y-51031964D01*
X60238036Y-51120495D01*
X60346464Y-51183095D01*
X60403132Y-51198279D01*
X60467393Y-51215499D01*
X60467399Y-51215500D01*
X60592601Y-51215500D01*
X60592606Y-51215499D01*
X60648599Y-51200495D01*
X60713536Y-51183095D01*
X60821964Y-51120495D01*
X60910495Y-51031964D01*
X60973095Y-50923536D01*
X61005500Y-50802601D01*
X61005500Y-50677399D01*
X61005499Y-50677393D01*
X60984234Y-50598035D01*
X60973095Y-50556464D01*
X60910495Y-50448036D01*
X60821964Y-50359505D01*
X60713536Y-50296905D01*
X60713533Y-50296904D01*
X60592606Y-50264500D01*
X60592601Y-50264500D01*
X60467399Y-50264500D01*
X60467393Y-50264500D01*
X60346466Y-50296904D01*
X60346464Y-50296905D01*
X60238035Y-50359505D01*
X60149505Y-50448035D01*
X60086905Y-50556464D01*
X60086904Y-50556466D01*
X60054500Y-50677393D01*
X59524062Y-50677393D01*
X59521008Y-50665996D01*
X59513095Y-50636464D01*
X59450495Y-50528036D01*
X59361964Y-50439505D01*
X59253536Y-50376905D01*
X59253533Y-50376904D01*
X59132606Y-50344500D01*
X59132601Y-50344500D01*
X59007399Y-50344500D01*
X59007393Y-50344500D01*
X58886466Y-50376904D01*
X58886464Y-50376905D01*
X58778035Y-50439505D01*
X58689505Y-50528035D01*
X58626905Y-50636464D01*
X58626904Y-50636466D01*
X58594500Y-50757393D01*
X58115500Y-50757393D01*
X58115500Y-50667399D01*
X58115499Y-50667393D01*
X58085775Y-50556466D01*
X58083095Y-50546464D01*
X58020495Y-50438036D01*
X57931964Y-50349505D01*
X57823536Y-50286905D01*
X57823533Y-50286904D01*
X57702606Y-50254500D01*
X57702601Y-50254500D01*
X57577399Y-50254500D01*
X57577393Y-50254500D01*
X57456466Y-50286904D01*
X57456464Y-50286905D01*
X57348035Y-50349505D01*
X57259505Y-50438035D01*
X57196905Y-50546464D01*
X57196904Y-50546466D01*
X57164500Y-50667393D01*
X48671671Y-50667393D01*
X48660495Y-50648036D01*
X48571964Y-50559505D01*
X48463536Y-50496905D01*
X48463533Y-50496904D01*
X48342606Y-50464500D01*
X48342601Y-50464500D01*
X48217399Y-50464500D01*
X48217393Y-50464500D01*
X48096466Y-50496904D01*
X48096464Y-50496905D01*
X47988035Y-50559505D01*
X47899505Y-50648035D01*
X47836905Y-50756464D01*
X47836904Y-50756466D01*
X47804500Y-50877393D01*
X47415499Y-50877393D01*
X47395459Y-50802606D01*
X47383095Y-50756464D01*
X47320495Y-50648036D01*
X47231964Y-50559505D01*
X47123536Y-50496905D01*
X47123533Y-50496904D01*
X47002606Y-50464500D01*
X47002601Y-50464500D01*
X46877399Y-50464500D01*
X46877393Y-50464500D01*
X46756466Y-50496904D01*
X46756464Y-50496905D01*
X46648035Y-50559505D01*
X46559505Y-50648035D01*
X46496905Y-50756464D01*
X46496904Y-50756466D01*
X46464500Y-50877393D01*
X45995500Y-50877393D01*
X45995500Y-50827399D01*
X45995499Y-50827393D01*
X45976493Y-50756464D01*
X45963095Y-50706464D01*
X45900495Y-50598036D01*
X45811964Y-50509505D01*
X45703536Y-50446905D01*
X45703533Y-50446904D01*
X45582606Y-50414500D01*
X45582601Y-50414500D01*
X45457399Y-50414500D01*
X45457393Y-50414500D01*
X45336466Y-50446904D01*
X45336464Y-50446905D01*
X45228035Y-50509505D01*
X45139505Y-50598035D01*
X45076905Y-50706464D01*
X45076904Y-50706466D01*
X45044500Y-50827393D01*
X42650500Y-50827393D01*
X42650500Y-49647393D01*
X43984500Y-49647393D01*
X43984500Y-49772606D01*
X44016090Y-49890494D01*
X44016905Y-49893536D01*
X44079505Y-50001964D01*
X44168036Y-50090495D01*
X44276464Y-50153095D01*
X44333132Y-50168279D01*
X44397393Y-50185499D01*
X44397399Y-50185500D01*
X44522601Y-50185500D01*
X44522606Y-50185499D01*
X44558533Y-50175871D01*
X44643536Y-50153095D01*
X44751964Y-50090495D01*
X44840495Y-50001964D01*
X44903095Y-49893536D01*
X44935500Y-49772601D01*
X44935500Y-49647399D01*
X44935499Y-49647393D01*
X44915459Y-49572606D01*
X44903095Y-49526464D01*
X44857444Y-49447393D01*
X60764500Y-49447393D01*
X60764500Y-49572606D01*
X60784542Y-49647399D01*
X60796905Y-49693536D01*
X60859505Y-49801964D01*
X60948036Y-49890495D01*
X61056464Y-49953095D01*
X61113132Y-49968279D01*
X61177393Y-49985499D01*
X61177399Y-49985500D01*
X61302601Y-49985500D01*
X61302606Y-49985499D01*
X61338533Y-49975871D01*
X61423536Y-49953095D01*
X61531964Y-49890495D01*
X61620495Y-49801964D01*
X61683095Y-49693536D01*
X61715500Y-49572601D01*
X61715500Y-49447399D01*
X61715499Y-49447393D01*
X61698226Y-49382932D01*
X61683095Y-49326464D01*
X61620495Y-49218036D01*
X61531964Y-49129505D01*
X61423536Y-49066905D01*
X61423533Y-49066904D01*
X61302606Y-49034500D01*
X61302601Y-49034500D01*
X61177399Y-49034500D01*
X61177393Y-49034500D01*
X61056466Y-49066904D01*
X61056464Y-49066905D01*
X60948035Y-49129505D01*
X60859505Y-49218035D01*
X60796905Y-49326464D01*
X60796904Y-49326466D01*
X60764500Y-49447393D01*
X44857444Y-49447393D01*
X44840495Y-49418036D01*
X44751964Y-49329505D01*
X44643536Y-49266905D01*
X44643533Y-49266904D01*
X44522606Y-49234500D01*
X44522601Y-49234500D01*
X44397399Y-49234500D01*
X44397393Y-49234500D01*
X44276466Y-49266904D01*
X44276464Y-49266905D01*
X44168035Y-49329505D01*
X44079505Y-49418035D01*
X44016905Y-49526464D01*
X44016904Y-49526466D01*
X43984500Y-49647393D01*
X42650500Y-49647393D01*
X42650500Y-48387393D01*
X43874500Y-48387393D01*
X43874500Y-48512606D01*
X43906484Y-48631964D01*
X43906905Y-48633536D01*
X43969505Y-48741964D01*
X44058036Y-48830495D01*
X44166464Y-48893095D01*
X44223132Y-48908279D01*
X44287393Y-48925499D01*
X44287399Y-48925500D01*
X44412601Y-48925500D01*
X44412606Y-48925499D01*
X44448533Y-48915871D01*
X44533536Y-48893095D01*
X44641964Y-48830495D01*
X44648350Y-48824109D01*
X57389500Y-48824109D01*
X57389500Y-48955890D01*
X57389501Y-48955898D01*
X57423606Y-49083182D01*
X57423607Y-49083185D01*
X57489501Y-49197315D01*
X57489504Y-49197319D01*
X57582680Y-49290495D01*
X57582684Y-49290498D01*
X57582686Y-49290500D01*
X57696814Y-49356392D01*
X57696817Y-49356393D01*
X57774712Y-49377264D01*
X57824108Y-49390500D01*
X57824109Y-49390500D01*
X57955891Y-49390500D01*
X57955892Y-49390500D01*
X57966145Y-49387752D01*
X57984139Y-49382932D01*
X58083182Y-49356393D01*
X58083180Y-49356393D01*
X58083186Y-49356392D01*
X58197314Y-49290500D01*
X58290500Y-49197314D01*
X58356392Y-49083186D01*
X58390500Y-48955892D01*
X58390500Y-48824108D01*
X58356392Y-48696814D01*
X58290500Y-48582686D01*
X58290498Y-48582684D01*
X58290495Y-48582680D01*
X58197319Y-48489504D01*
X58197315Y-48489501D01*
X58197314Y-48489500D01*
X58140250Y-48456554D01*
X58083185Y-48423607D01*
X58083182Y-48423606D01*
X57955898Y-48389501D01*
X57955893Y-48389500D01*
X57955892Y-48389500D01*
X57824108Y-48389500D01*
X57824107Y-48389500D01*
X57824101Y-48389501D01*
X57696817Y-48423606D01*
X57696814Y-48423607D01*
X57582684Y-48489501D01*
X57582680Y-48489504D01*
X57489504Y-48582680D01*
X57489501Y-48582684D01*
X57423607Y-48696814D01*
X57423606Y-48696817D01*
X57389501Y-48824101D01*
X57389500Y-48824109D01*
X44648350Y-48824109D01*
X44730495Y-48741964D01*
X44793095Y-48633536D01*
X44825500Y-48512601D01*
X44825500Y-48387399D01*
X44825499Y-48387393D01*
X44799262Y-48289479D01*
X44799262Y-48289478D01*
X44796024Y-48277393D01*
X60774500Y-48277393D01*
X60774500Y-48402606D01*
X60803975Y-48512601D01*
X60806905Y-48523536D01*
X60869505Y-48631964D01*
X60958036Y-48720495D01*
X61066464Y-48783095D01*
X61123132Y-48798279D01*
X61187393Y-48815499D01*
X61187399Y-48815500D01*
X61312601Y-48815500D01*
X61312606Y-48815499D01*
X61348533Y-48805871D01*
X61433536Y-48783095D01*
X61541964Y-48720495D01*
X61630495Y-48631964D01*
X61693095Y-48523536D01*
X61719871Y-48423608D01*
X61725499Y-48402606D01*
X61725500Y-48402600D01*
X61725500Y-48277399D01*
X61725499Y-48277393D01*
X61693516Y-48158036D01*
X61693095Y-48156464D01*
X61630495Y-48048036D01*
X61541964Y-47959505D01*
X61433536Y-47896905D01*
X61433533Y-47896904D01*
X61312606Y-47864500D01*
X61312601Y-47864500D01*
X61187399Y-47864500D01*
X61187393Y-47864500D01*
X61066466Y-47896904D01*
X61066464Y-47896905D01*
X60958035Y-47959505D01*
X60869505Y-48048035D01*
X60806905Y-48156464D01*
X60806904Y-48156466D01*
X60774500Y-48277393D01*
X44796024Y-48277393D01*
X44793096Y-48266468D01*
X44793095Y-48266464D01*
X44730495Y-48158036D01*
X44641964Y-48069505D01*
X44533536Y-48006905D01*
X44533533Y-48006904D01*
X44412606Y-47974500D01*
X44412601Y-47974500D01*
X44287399Y-47974500D01*
X44287393Y-47974500D01*
X44166466Y-48006904D01*
X44166464Y-48006905D01*
X44058035Y-48069505D01*
X43969505Y-48158035D01*
X43906905Y-48266464D01*
X43906904Y-48266466D01*
X43874500Y-48387393D01*
X42650500Y-48387393D01*
X42650500Y-47433363D01*
X53000820Y-47433363D01*
X53000820Y-47558576D01*
X53016074Y-47615500D01*
X53033225Y-47679506D01*
X53095825Y-47787934D01*
X53184356Y-47876465D01*
X53292784Y-47939065D01*
X53349452Y-47954249D01*
X53413713Y-47971469D01*
X53413719Y-47971470D01*
X53538921Y-47971470D01*
X53538926Y-47971469D01*
X53579514Y-47960593D01*
X53659856Y-47939065D01*
X53768284Y-47876465D01*
X53828581Y-47816168D01*
X53872775Y-47797862D01*
X53916969Y-47816168D01*
X53998794Y-47897993D01*
X54107222Y-47960593D01*
X54159123Y-47974500D01*
X54228151Y-47992997D01*
X54228157Y-47992998D01*
X54353359Y-47992998D01*
X54353364Y-47992997D01*
X54389291Y-47983369D01*
X54474294Y-47960593D01*
X54582722Y-47897993D01*
X54621564Y-47859149D01*
X54665758Y-47840843D01*
X54709952Y-47859148D01*
X54748797Y-47897993D01*
X54857225Y-47960593D01*
X54909126Y-47974500D01*
X54978154Y-47992997D01*
X54978160Y-47992998D01*
X55103362Y-47992998D01*
X55103367Y-47992997D01*
X55139294Y-47983369D01*
X55224297Y-47960593D01*
X55332725Y-47897993D01*
X55379935Y-47850783D01*
X55424129Y-47832477D01*
X55468323Y-47850782D01*
X55528036Y-47910495D01*
X55636464Y-47973095D01*
X55693132Y-47988279D01*
X55757393Y-48005499D01*
X55757399Y-48005500D01*
X55882601Y-48005500D01*
X55882606Y-48005499D01*
X55929262Y-47992997D01*
X56003536Y-47973095D01*
X56111964Y-47910495D01*
X56200495Y-47821964D01*
X56263095Y-47713536D01*
X56289364Y-47615500D01*
X56295499Y-47592606D01*
X56295500Y-47592600D01*
X56295500Y-47467399D01*
X56295499Y-47467393D01*
X56278279Y-47403132D01*
X56263095Y-47346464D01*
X56244415Y-47314109D01*
X59009500Y-47314109D01*
X59009500Y-47445890D01*
X59009501Y-47445898D01*
X59043606Y-47573182D01*
X59043607Y-47573185D01*
X59054817Y-47592601D01*
X59104991Y-47679505D01*
X59109501Y-47687315D01*
X59109504Y-47687319D01*
X59202680Y-47780495D01*
X59202684Y-47780498D01*
X59202686Y-47780500D01*
X59252850Y-47809462D01*
X59316814Y-47846392D01*
X59316817Y-47846393D01*
X59364420Y-47859148D01*
X59444108Y-47880500D01*
X59444109Y-47880500D01*
X59575891Y-47880500D01*
X59575892Y-47880500D01*
X59703186Y-47846392D01*
X59817314Y-47780500D01*
X59910500Y-47687314D01*
X59976392Y-47573186D01*
X60010500Y-47445892D01*
X60010500Y-47314108D01*
X59996285Y-47261058D01*
X59976393Y-47186817D01*
X59976392Y-47186814D01*
X59966970Y-47170495D01*
X59910500Y-47072686D01*
X59910498Y-47072684D01*
X59910495Y-47072680D01*
X59817319Y-46979504D01*
X59817315Y-46979501D01*
X59817314Y-46979500D01*
X59760250Y-46946554D01*
X59703185Y-46913607D01*
X59703182Y-46913606D01*
X59575898Y-46879501D01*
X59575893Y-46879500D01*
X59575892Y-46879500D01*
X59444108Y-46879500D01*
X59444107Y-46879500D01*
X59444101Y-46879501D01*
X59316817Y-46913606D01*
X59316814Y-46913607D01*
X59202684Y-46979501D01*
X59202680Y-46979504D01*
X59109504Y-47072680D01*
X59109501Y-47072684D01*
X59043607Y-47186814D01*
X59043606Y-47186817D01*
X59009501Y-47314101D01*
X59009500Y-47314109D01*
X56244415Y-47314109D01*
X56200495Y-47238036D01*
X56111964Y-47149505D01*
X56003536Y-47086905D01*
X56003533Y-47086904D01*
X55882606Y-47054500D01*
X55882601Y-47054500D01*
X55757399Y-47054500D01*
X55757393Y-47054500D01*
X55636466Y-47086904D01*
X55636464Y-47086905D01*
X55528037Y-47149504D01*
X55480825Y-47196716D01*
X55436630Y-47215021D01*
X55392437Y-47196715D01*
X55332725Y-47137003D01*
X55245951Y-47086905D01*
X55224297Y-47074403D01*
X55224294Y-47074402D01*
X55103367Y-47041998D01*
X55103362Y-47041998D01*
X54978160Y-47041998D01*
X54978154Y-47041998D01*
X54857227Y-47074402D01*
X54857225Y-47074403D01*
X54748798Y-47137002D01*
X54709953Y-47175847D01*
X54665758Y-47194152D01*
X54621565Y-47175846D01*
X54582722Y-47137003D01*
X54495948Y-47086905D01*
X54474294Y-47074403D01*
X54474291Y-47074402D01*
X54353364Y-47041998D01*
X54353359Y-47041998D01*
X54228157Y-47041998D01*
X54228151Y-47041998D01*
X54107224Y-47074402D01*
X54107222Y-47074403D01*
X53998793Y-47137003D01*
X53938495Y-47197300D01*
X53894301Y-47215605D01*
X53850108Y-47197299D01*
X53768284Y-47115475D01*
X53659856Y-47052875D01*
X53659853Y-47052874D01*
X53538926Y-47020470D01*
X53538921Y-47020470D01*
X53413719Y-47020470D01*
X53413713Y-47020470D01*
X53292786Y-47052874D01*
X53292784Y-47052875D01*
X53184355Y-47115475D01*
X53095825Y-47204005D01*
X53033225Y-47312434D01*
X53033224Y-47312436D01*
X53000820Y-47433363D01*
X42650500Y-47433363D01*
X42650500Y-46727393D01*
X43804500Y-46727393D01*
X43804500Y-46852606D01*
X43832330Y-46956464D01*
X43836905Y-46973536D01*
X43899505Y-47081964D01*
X43988036Y-47170495D01*
X44096464Y-47233095D01*
X44150555Y-47247589D01*
X44217393Y-47265499D01*
X44217399Y-47265500D01*
X44342601Y-47265500D01*
X44342606Y-47265499D01*
X44378533Y-47255871D01*
X44463536Y-47233095D01*
X44571964Y-47170495D01*
X44660495Y-47081964D01*
X44723095Y-46973536D01*
X44755500Y-46852601D01*
X44755500Y-46727399D01*
X44755499Y-46727393D01*
X44733736Y-46646177D01*
X44723095Y-46606464D01*
X44660495Y-46498036D01*
X44571964Y-46409505D01*
X44463536Y-46346905D01*
X44463533Y-46346904D01*
X44342606Y-46314500D01*
X44342601Y-46314500D01*
X44217399Y-46314500D01*
X44217393Y-46314500D01*
X44096466Y-46346904D01*
X44096464Y-46346905D01*
X43988035Y-46409505D01*
X43899505Y-46498035D01*
X43836905Y-46606464D01*
X43836904Y-46606466D01*
X43804500Y-46727393D01*
X42650500Y-46727393D01*
X42650500Y-46057393D01*
X60694500Y-46057393D01*
X60694500Y-46182606D01*
X60726904Y-46303533D01*
X60726905Y-46303536D01*
X60789505Y-46411964D01*
X60878036Y-46500495D01*
X60986464Y-46563095D01*
X61000292Y-46566800D01*
X61010851Y-46569630D01*
X61048801Y-46598751D01*
X61055044Y-46646177D01*
X61025923Y-46684127D01*
X61010851Y-46690370D01*
X60986466Y-46696904D01*
X60986464Y-46696905D01*
X60878035Y-46759505D01*
X60789505Y-46848035D01*
X60726905Y-46956464D01*
X60726904Y-46956466D01*
X60694500Y-47077393D01*
X60694500Y-47202606D01*
X60724379Y-47314109D01*
X60726905Y-47323536D01*
X60789505Y-47431964D01*
X60878036Y-47520495D01*
X60986464Y-47583095D01*
X61043132Y-47598279D01*
X61107393Y-47615499D01*
X61107399Y-47615500D01*
X61232601Y-47615500D01*
X61232606Y-47615499D01*
X61268533Y-47605871D01*
X61353536Y-47583095D01*
X61461964Y-47520495D01*
X61550495Y-47431964D01*
X61613095Y-47323536D01*
X61645500Y-47202601D01*
X61645500Y-47077399D01*
X61645499Y-47077393D01*
X61628279Y-47013132D01*
X61613095Y-46956464D01*
X61550495Y-46848036D01*
X61461964Y-46759505D01*
X61353536Y-46696905D01*
X61353533Y-46696904D01*
X61329148Y-46690370D01*
X61291198Y-46661250D01*
X61284955Y-46613823D01*
X61314075Y-46575873D01*
X61329148Y-46569630D01*
X61332792Y-46568653D01*
X61353536Y-46563095D01*
X61461964Y-46500495D01*
X61550495Y-46411964D01*
X61613095Y-46303536D01*
X61645500Y-46182601D01*
X61645500Y-46057399D01*
X61645499Y-46057393D01*
X61628279Y-45993132D01*
X61613095Y-45936464D01*
X61550495Y-45828036D01*
X61494653Y-45772194D01*
X61476347Y-45728000D01*
X61494653Y-45683806D01*
X61538847Y-45665500D01*
X61642601Y-45665500D01*
X61642606Y-45665499D01*
X61678533Y-45655871D01*
X61763536Y-45633095D01*
X61871964Y-45570495D01*
X61960495Y-45481964D01*
X62023095Y-45373536D01*
X62055500Y-45252601D01*
X62055500Y-45127399D01*
X62048491Y-45101241D01*
X62054734Y-45053815D01*
X62092683Y-45024694D01*
X62140110Y-45030937D01*
X62153055Y-45040870D01*
X62192680Y-45080495D01*
X62192684Y-45080498D01*
X62192686Y-45080500D01*
X62306814Y-45146392D01*
X62306817Y-45146393D01*
X62384712Y-45167264D01*
X62434108Y-45180500D01*
X62434109Y-45180500D01*
X62565891Y-45180500D01*
X62565892Y-45180500D01*
X62693186Y-45146392D01*
X62807314Y-45080500D01*
X62900500Y-44987314D01*
X62966392Y-44873186D01*
X63000500Y-44745892D01*
X63000500Y-44614108D01*
X62966392Y-44486814D01*
X62900500Y-44372686D01*
X62900498Y-44372684D01*
X62900495Y-44372680D01*
X62807319Y-44279504D01*
X62807315Y-44279501D01*
X62807314Y-44279500D01*
X62735978Y-44238314D01*
X62693185Y-44213607D01*
X62693182Y-44213606D01*
X62565898Y-44179501D01*
X62565893Y-44179500D01*
X62565892Y-44179500D01*
X62434108Y-44179500D01*
X62434107Y-44179500D01*
X62434101Y-44179501D01*
X62306817Y-44213606D01*
X62306814Y-44213607D01*
X62192684Y-44279501D01*
X62192680Y-44279504D01*
X62099504Y-44372680D01*
X62099501Y-44372684D01*
X62033607Y-44486814D01*
X62033606Y-44486817D01*
X61999501Y-44614101D01*
X61999500Y-44614109D01*
X61999500Y-44745890D01*
X61999501Y-44745898D01*
X62009094Y-44781701D01*
X62002850Y-44829127D01*
X61964900Y-44858247D01*
X61917474Y-44852003D01*
X61904530Y-44842071D01*
X61871964Y-44809505D01*
X61835223Y-44788293D01*
X61763536Y-44746905D01*
X61763533Y-44746904D01*
X61642606Y-44714500D01*
X61642601Y-44714500D01*
X61517399Y-44714500D01*
X61517393Y-44714500D01*
X61396466Y-44746904D01*
X61396464Y-44746905D01*
X61288035Y-44809505D01*
X61199505Y-44898035D01*
X61136905Y-45006464D01*
X61136904Y-45006466D01*
X61104500Y-45127393D01*
X61104500Y-45252606D01*
X61136904Y-45373533D01*
X61136905Y-45373536D01*
X61199505Y-45481964D01*
X61255347Y-45537806D01*
X61273653Y-45582000D01*
X61255347Y-45626194D01*
X61211153Y-45644500D01*
X61107393Y-45644500D01*
X60986466Y-45676904D01*
X60986464Y-45676905D01*
X60878035Y-45739505D01*
X60789505Y-45828035D01*
X60726905Y-45936464D01*
X60726904Y-45936466D01*
X60694500Y-46057393D01*
X42650500Y-46057393D01*
X42650500Y-45327393D01*
X43044500Y-45327393D01*
X43044500Y-45452606D01*
X43076090Y-45570494D01*
X43076905Y-45573536D01*
X43139505Y-45681964D01*
X43228036Y-45770495D01*
X43336464Y-45833095D01*
X43393132Y-45848279D01*
X43457393Y-45865499D01*
X43457399Y-45865500D01*
X43582601Y-45865500D01*
X43582606Y-45865499D01*
X43618533Y-45855871D01*
X43703536Y-45833095D01*
X43811964Y-45770495D01*
X43900495Y-45681964D01*
X43963095Y-45573536D01*
X43995500Y-45452601D01*
X43995500Y-45327399D01*
X43995499Y-45327393D01*
X43975459Y-45252606D01*
X43963095Y-45206464D01*
X43900495Y-45098036D01*
X43811964Y-45009505D01*
X43811963Y-45009504D01*
X43724929Y-44959256D01*
X43703536Y-44946905D01*
X43703535Y-44946904D01*
X43703534Y-44946904D01*
X43582606Y-44914500D01*
X43582601Y-44914500D01*
X43457399Y-44914500D01*
X43457393Y-44914500D01*
X43336466Y-44946904D01*
X43336464Y-44946905D01*
X43228035Y-45009505D01*
X43139505Y-45098035D01*
X43076905Y-45206464D01*
X43076904Y-45206466D01*
X43044500Y-45327393D01*
X42650500Y-45327393D01*
X42650500Y-44909220D01*
X53002673Y-44909220D01*
X53002673Y-45034433D01*
X53032674Y-45146392D01*
X53035078Y-45155363D01*
X53097678Y-45263791D01*
X53186209Y-45352322D01*
X53294637Y-45414922D01*
X53351305Y-45430106D01*
X53415566Y-45447326D01*
X53415572Y-45447327D01*
X53540774Y-45447327D01*
X53540779Y-45447326D01*
X53576706Y-45437698D01*
X53661709Y-45414922D01*
X53770137Y-45352322D01*
X53858668Y-45263791D01*
X53921268Y-45155363D01*
X53953673Y-45034428D01*
X53953673Y-44909226D01*
X53953672Y-44909220D01*
X53926952Y-44809505D01*
X53921268Y-44788291D01*
X53858668Y-44679863D01*
X53770137Y-44591332D01*
X53661709Y-44528732D01*
X53661706Y-44528731D01*
X53540779Y-44496327D01*
X53540774Y-44496327D01*
X53415572Y-44496327D01*
X53415566Y-44496327D01*
X53294639Y-44528731D01*
X53294637Y-44528732D01*
X53186208Y-44591332D01*
X53097678Y-44679862D01*
X53035078Y-44788291D01*
X53035077Y-44788293D01*
X53002673Y-44909220D01*
X42650500Y-44909220D01*
X42650500Y-44039510D01*
X48842133Y-44039510D01*
X48842133Y-44164723D01*
X48873157Y-44280500D01*
X48874538Y-44285653D01*
X48937138Y-44394081D01*
X49025669Y-44482612D01*
X49134097Y-44545212D01*
X49190765Y-44560396D01*
X49255026Y-44577616D01*
X49255032Y-44577617D01*
X49380234Y-44577617D01*
X49380239Y-44577616D01*
X49416166Y-44567988D01*
X49501169Y-44545212D01*
X49609597Y-44482612D01*
X49698128Y-44394081D01*
X49760728Y-44285653D01*
X49793133Y-44164718D01*
X49793133Y-44039516D01*
X49793132Y-44039510D01*
X49775912Y-43975249D01*
X49760728Y-43918581D01*
X49698128Y-43810153D01*
X49609597Y-43721622D01*
X49501169Y-43659022D01*
X49501166Y-43659021D01*
X49380239Y-43626617D01*
X49380234Y-43626617D01*
X49255032Y-43626617D01*
X49255026Y-43626617D01*
X49134099Y-43659021D01*
X49134097Y-43659022D01*
X49025668Y-43721622D01*
X48937138Y-43810152D01*
X48874538Y-43918581D01*
X48874537Y-43918583D01*
X48842133Y-44039510D01*
X42650500Y-44039510D01*
X42650500Y-42557393D01*
X60754500Y-42557393D01*
X60754500Y-42682606D01*
X60778866Y-42773535D01*
X60786905Y-42803536D01*
X60849505Y-42911964D01*
X60938036Y-43000495D01*
X61046464Y-43063095D01*
X61103132Y-43078279D01*
X61167393Y-43095499D01*
X61167399Y-43095500D01*
X61292601Y-43095500D01*
X61292606Y-43095499D01*
X61328533Y-43085871D01*
X61413536Y-43063095D01*
X61521964Y-43000495D01*
X61600806Y-42921653D01*
X61645000Y-42903347D01*
X61689194Y-42921653D01*
X61738036Y-42970495D01*
X61846464Y-43033095D01*
X61903132Y-43048279D01*
X61967393Y-43065499D01*
X61967399Y-43065500D01*
X62092601Y-43065500D01*
X62092606Y-43065499D01*
X62128533Y-43055871D01*
X62213536Y-43033095D01*
X62321964Y-42970495D01*
X62410495Y-42881964D01*
X62473095Y-42773536D01*
X62505500Y-42652601D01*
X62505500Y-42527399D01*
X62505499Y-42527393D01*
X62481134Y-42436466D01*
X62473095Y-42406464D01*
X62410495Y-42298036D01*
X62321964Y-42209505D01*
X62213536Y-42146905D01*
X62213533Y-42146904D01*
X62092606Y-42114500D01*
X62092601Y-42114500D01*
X61967399Y-42114500D01*
X61967393Y-42114500D01*
X61846466Y-42146904D01*
X61846464Y-42146905D01*
X61738037Y-42209504D01*
X61659193Y-42288347D01*
X61614998Y-42306652D01*
X61570805Y-42288346D01*
X61521964Y-42239505D01*
X61413536Y-42176905D01*
X61413533Y-42176904D01*
X61292606Y-42144500D01*
X61292601Y-42144500D01*
X61167399Y-42144500D01*
X61167393Y-42144500D01*
X61046466Y-42176904D01*
X61046464Y-42176905D01*
X60938035Y-42239505D01*
X60849505Y-42328035D01*
X60786905Y-42436464D01*
X60786904Y-42436466D01*
X60754500Y-42557393D01*
X42650500Y-42557393D01*
X42650500Y-39657393D01*
X43384500Y-39657393D01*
X43384500Y-39782606D01*
X43415466Y-39898167D01*
X43416905Y-39903536D01*
X43479505Y-40011964D01*
X43568036Y-40100495D01*
X43676464Y-40163095D01*
X43720121Y-40174793D01*
X43797393Y-40195499D01*
X43797399Y-40195500D01*
X43922601Y-40195500D01*
X43922606Y-40195499D01*
X43958533Y-40185871D01*
X44043536Y-40163095D01*
X44151964Y-40100495D01*
X44240495Y-40011964D01*
X44292986Y-39921044D01*
X44330936Y-39891924D01*
X44378362Y-39898167D01*
X44401239Y-39921043D01*
X44459505Y-40021964D01*
X44548036Y-40110495D01*
X44567351Y-40121646D01*
X44596472Y-40159595D01*
X44590230Y-40207021D01*
X44570832Y-40226424D01*
X44571284Y-40227014D01*
X44568031Y-40229509D01*
X44479505Y-40318035D01*
X44416905Y-40426464D01*
X44416904Y-40426466D01*
X44384500Y-40547393D01*
X44384500Y-40672606D01*
X44416904Y-40793533D01*
X44416905Y-40793536D01*
X44479505Y-40901964D01*
X44568036Y-40990495D01*
X44676464Y-41053095D01*
X44733132Y-41068279D01*
X44797393Y-41085499D01*
X44797399Y-41085500D01*
X44922601Y-41085500D01*
X44922606Y-41085499D01*
X44958533Y-41075871D01*
X45043536Y-41053095D01*
X45151964Y-40990495D01*
X45240495Y-40901964D01*
X45303095Y-40793536D01*
X45335500Y-40672601D01*
X45335500Y-40547399D01*
X45335499Y-40547393D01*
X45318279Y-40483132D01*
X45303095Y-40426464D01*
X45240495Y-40318036D01*
X45151964Y-40229505D01*
X45147649Y-40227014D01*
X45132648Y-40218353D01*
X45103528Y-40180402D01*
X45109771Y-40132976D01*
X45129167Y-40113585D01*
X45128712Y-40112991D01*
X45131962Y-40110497D01*
X45141965Y-40100494D01*
X45220495Y-40021964D01*
X45283095Y-39913536D01*
X45315500Y-39792601D01*
X45315500Y-39667399D01*
X45315499Y-39667393D01*
X45284533Y-39551832D01*
X45283095Y-39546464D01*
X45220495Y-39438036D01*
X45131964Y-39349505D01*
X45023536Y-39286905D01*
X45023533Y-39286904D01*
X44902606Y-39254500D01*
X44902601Y-39254500D01*
X44777399Y-39254500D01*
X44777393Y-39254500D01*
X44656466Y-39286904D01*
X44656464Y-39286905D01*
X44548035Y-39349505D01*
X44459505Y-39438035D01*
X44407013Y-39528955D01*
X44369062Y-39558075D01*
X44321636Y-39551832D01*
X44298759Y-39528954D01*
X44240495Y-39428036D01*
X44151964Y-39339505D01*
X44043536Y-39276905D01*
X44043533Y-39276904D01*
X43922606Y-39244500D01*
X43922601Y-39244500D01*
X43797399Y-39244500D01*
X43797393Y-39244500D01*
X43676466Y-39276904D01*
X43676464Y-39276905D01*
X43568035Y-39339505D01*
X43479505Y-39428035D01*
X43416905Y-39536464D01*
X43416904Y-39536466D01*
X43384500Y-39657393D01*
X42650500Y-39657393D01*
X42650500Y-38417393D01*
X43714500Y-38417393D01*
X43714500Y-38542606D01*
X43746904Y-38663533D01*
X43746905Y-38663536D01*
X43809505Y-38771964D01*
X43898036Y-38860495D01*
X44006464Y-38923095D01*
X44063132Y-38938279D01*
X44127393Y-38955499D01*
X44127399Y-38955500D01*
X44252601Y-38955500D01*
X44252606Y-38955499D01*
X44288533Y-38945871D01*
X44373536Y-38923095D01*
X44481964Y-38860495D01*
X44570495Y-38771964D01*
X44633095Y-38663536D01*
X44665500Y-38542601D01*
X44665500Y-38487393D01*
X49614500Y-38487393D01*
X49614500Y-38612606D01*
X49646904Y-38733533D01*
X49646905Y-38733536D01*
X49709505Y-38841964D01*
X49798036Y-38930495D01*
X49906464Y-38993095D01*
X49963132Y-39008279D01*
X50027393Y-39025499D01*
X50027399Y-39025500D01*
X50152601Y-39025500D01*
X50152606Y-39025499D01*
X50188533Y-39015871D01*
X50273536Y-38993095D01*
X50381964Y-38930495D01*
X50470495Y-38841964D01*
X50533095Y-38733536D01*
X50565500Y-38612601D01*
X50565500Y-38487399D01*
X50565499Y-38487393D01*
X50546742Y-38417393D01*
X50533095Y-38366464D01*
X50470495Y-38258036D01*
X50381964Y-38169505D01*
X50273536Y-38106905D01*
X50273533Y-38106904D01*
X50152606Y-38074500D01*
X50152601Y-38074500D01*
X50027399Y-38074500D01*
X50027393Y-38074500D01*
X49906466Y-38106904D01*
X49906464Y-38106905D01*
X49798035Y-38169505D01*
X49709505Y-38258035D01*
X49646905Y-38366464D01*
X49646904Y-38366466D01*
X49614500Y-38487393D01*
X44665500Y-38487393D01*
X44665500Y-38417399D01*
X44665499Y-38417393D01*
X44648279Y-38353132D01*
X44633095Y-38296464D01*
X44570495Y-38188036D01*
X44481964Y-38099505D01*
X44373536Y-38036905D01*
X44373533Y-38036904D01*
X44252606Y-38004500D01*
X44252601Y-38004500D01*
X44127399Y-38004500D01*
X44127393Y-38004500D01*
X44006466Y-38036904D01*
X44006464Y-38036905D01*
X43898035Y-38099505D01*
X43809505Y-38188035D01*
X43746905Y-38296464D01*
X43746904Y-38296466D01*
X43714500Y-38417393D01*
X42650500Y-38417393D01*
X42650500Y-36650436D01*
X43804776Y-36650436D01*
X43804776Y-36775649D01*
X43837180Y-36896576D01*
X43837181Y-36896579D01*
X43899781Y-37005007D01*
X43988312Y-37093538D01*
X44096740Y-37156138D01*
X44153408Y-37171322D01*
X44217669Y-37188542D01*
X44217675Y-37188543D01*
X44342877Y-37188543D01*
X44342882Y-37188542D01*
X44378809Y-37178914D01*
X44463812Y-37156138D01*
X44572240Y-37093538D01*
X44660771Y-37005007D01*
X44723371Y-36896579D01*
X44755776Y-36775644D01*
X44755776Y-36650442D01*
X44755775Y-36650436D01*
X44731409Y-36559505D01*
X44723371Y-36529507D01*
X44660771Y-36421079D01*
X44572240Y-36332548D01*
X44463812Y-36269948D01*
X44463809Y-36269947D01*
X44342882Y-36237543D01*
X44342877Y-36237543D01*
X44217675Y-36237543D01*
X44217669Y-36237543D01*
X44096742Y-36269947D01*
X44096740Y-36269948D01*
X43988311Y-36332548D01*
X43899781Y-36421078D01*
X43837181Y-36529507D01*
X43837180Y-36529509D01*
X43804776Y-36650436D01*
X42650500Y-36650436D01*
X42650500Y-35217393D01*
X43814500Y-35217393D01*
X43814500Y-35342606D01*
X43846904Y-35463533D01*
X43846905Y-35463536D01*
X43909505Y-35571964D01*
X43998036Y-35660495D01*
X44106464Y-35723095D01*
X44163132Y-35738279D01*
X44227393Y-35755499D01*
X44227399Y-35755500D01*
X44352601Y-35755500D01*
X44352606Y-35755499D01*
X44388533Y-35745871D01*
X44473536Y-35723095D01*
X44581964Y-35660495D01*
X44648350Y-35594109D01*
X47179500Y-35594109D01*
X47179500Y-35725890D01*
X47179501Y-35725898D01*
X47213606Y-35853182D01*
X47213607Y-35853185D01*
X47279501Y-35967315D01*
X47279504Y-35967319D01*
X47372680Y-36060495D01*
X47372684Y-36060498D01*
X47372686Y-36060500D01*
X47486814Y-36126392D01*
X47486817Y-36126393D01*
X47564712Y-36147264D01*
X47614108Y-36160500D01*
X47614109Y-36160500D01*
X47745891Y-36160500D01*
X47745892Y-36160500D01*
X47873186Y-36126392D01*
X47987314Y-36060500D01*
X48080500Y-35967314D01*
X48146392Y-35853186D01*
X48180500Y-35725892D01*
X48180500Y-35594108D01*
X48146392Y-35466814D01*
X48080500Y-35352686D01*
X48080498Y-35352684D01*
X48080495Y-35352680D01*
X47987319Y-35259504D01*
X47987315Y-35259501D01*
X47987314Y-35259500D01*
X47914383Y-35217393D01*
X47873185Y-35193607D01*
X47873182Y-35193606D01*
X47745898Y-35159501D01*
X47745893Y-35159500D01*
X47745892Y-35159500D01*
X47614108Y-35159500D01*
X47614107Y-35159500D01*
X47614101Y-35159501D01*
X47486817Y-35193606D01*
X47486814Y-35193607D01*
X47372684Y-35259501D01*
X47372680Y-35259504D01*
X47279504Y-35352680D01*
X47279501Y-35352684D01*
X47213607Y-35466814D01*
X47213606Y-35466817D01*
X47179501Y-35594101D01*
X47179500Y-35594109D01*
X44648350Y-35594109D01*
X44670495Y-35571964D01*
X44733095Y-35463536D01*
X44762798Y-35352684D01*
X44765499Y-35342606D01*
X44765500Y-35342600D01*
X44765500Y-35217399D01*
X44765499Y-35217393D01*
X44748279Y-35153132D01*
X44733095Y-35096464D01*
X44670495Y-34988036D01*
X44581964Y-34899505D01*
X44473536Y-34836905D01*
X44473533Y-34836904D01*
X44352606Y-34804500D01*
X44352601Y-34804500D01*
X44227399Y-34804500D01*
X44227393Y-34804500D01*
X44106466Y-34836904D01*
X44106464Y-34836905D01*
X43998035Y-34899505D01*
X43909505Y-34988035D01*
X43846905Y-35096464D01*
X43846904Y-35096466D01*
X43814500Y-35217393D01*
X42650500Y-35217393D01*
X42650500Y-33047620D01*
X42668806Y-33003426D01*
X42713000Y-32985120D01*
X42757194Y-33003426D01*
X42767126Y-33016369D01*
X42849751Y-33159479D01*
X42855449Y-33166905D01*
X43014741Y-33374500D01*
X43017372Y-33377928D01*
X43212072Y-33572628D01*
X43430521Y-33740249D01*
X43668979Y-33877923D01*
X43923368Y-33983295D01*
X43961588Y-33993536D01*
X44183866Y-34053095D01*
X44189334Y-34054560D01*
X44462326Y-34090500D01*
X44462332Y-34090500D01*
X44737668Y-34090500D01*
X44737674Y-34090500D01*
X45010666Y-34054560D01*
X45016134Y-34053095D01*
X45125203Y-34023870D01*
X45148502Y-34017627D01*
X45195928Y-34023870D01*
X45225048Y-34061821D01*
X45218805Y-34109246D01*
X45156906Y-34216460D01*
X45156904Y-34216466D01*
X45124500Y-34337393D01*
X45124500Y-34462606D01*
X45156904Y-34583533D01*
X45156905Y-34583536D01*
X45219505Y-34691964D01*
X45308036Y-34780495D01*
X45416464Y-34843095D01*
X45473132Y-34858279D01*
X45537393Y-34875499D01*
X45537399Y-34875500D01*
X45662601Y-34875500D01*
X45662606Y-34875499D01*
X45708900Y-34863094D01*
X45783536Y-34843095D01*
X45891964Y-34780495D01*
X45980495Y-34691964D01*
X46043095Y-34583536D01*
X46075500Y-34462601D01*
X46075500Y-34337399D01*
X46075499Y-34337393D01*
X46050231Y-34243095D01*
X46043095Y-34216464D01*
X45980495Y-34108036D01*
X45891964Y-34019505D01*
X45783536Y-33956905D01*
X45783533Y-33956904D01*
X45663376Y-33924707D01*
X45625426Y-33895587D01*
X45619183Y-33848160D01*
X45648303Y-33810210D01*
X45757105Y-33747393D01*
X46874500Y-33747393D01*
X46874500Y-33872606D01*
X46904225Y-33983535D01*
X46906905Y-33993536D01*
X46969505Y-34101964D01*
X47058036Y-34190495D01*
X47166464Y-34253095D01*
X47223132Y-34268279D01*
X47287393Y-34285499D01*
X47287399Y-34285500D01*
X47412601Y-34285500D01*
X47412606Y-34285499D01*
X47449925Y-34275499D01*
X47533536Y-34253095D01*
X47641964Y-34190495D01*
X47730495Y-34101964D01*
X47793095Y-33993536D01*
X47819341Y-33895587D01*
X47825499Y-33872606D01*
X47825500Y-33872600D01*
X47825500Y-33747399D01*
X47825499Y-33747393D01*
X47809980Y-33689479D01*
X47809980Y-33689478D01*
X47806742Y-33677393D01*
X48624500Y-33677393D01*
X48624500Y-33802606D01*
X48653975Y-33912601D01*
X48656905Y-33923536D01*
X48719505Y-34031964D01*
X48808036Y-34120495D01*
X48916464Y-34183095D01*
X48973132Y-34198279D01*
X49037393Y-34215499D01*
X49037399Y-34215500D01*
X49162601Y-34215500D01*
X49162606Y-34215499D01*
X49198533Y-34205871D01*
X49283536Y-34183095D01*
X49391964Y-34120495D01*
X49480495Y-34031964D01*
X49543095Y-33923536D01*
X49575500Y-33802601D01*
X49575500Y-33677399D01*
X49575499Y-33677393D01*
X50434500Y-33677393D01*
X50434500Y-33802606D01*
X50463975Y-33912601D01*
X50466905Y-33923536D01*
X50529505Y-34031964D01*
X50618036Y-34120495D01*
X50726464Y-34183095D01*
X50783132Y-34198279D01*
X50847393Y-34215499D01*
X50847399Y-34215500D01*
X50972601Y-34215500D01*
X50972606Y-34215499D01*
X51008533Y-34205871D01*
X51093536Y-34183095D01*
X51201964Y-34120495D01*
X51290495Y-34031964D01*
X51353095Y-33923536D01*
X51385500Y-33802601D01*
X51385500Y-33677399D01*
X51385499Y-33677393D01*
X51353903Y-33559479D01*
X51353516Y-33558035D01*
X51353095Y-33556464D01*
X51347858Y-33547393D01*
X52244500Y-33547393D01*
X52244500Y-33672606D01*
X52276904Y-33793533D01*
X52276905Y-33793536D01*
X52339505Y-33901964D01*
X52428036Y-33990495D01*
X52536464Y-34053095D01*
X52592362Y-34068073D01*
X52657393Y-34085499D01*
X52657399Y-34085500D01*
X52782601Y-34085500D01*
X52782606Y-34085499D01*
X52818533Y-34075871D01*
X52903536Y-34053095D01*
X53011964Y-33990495D01*
X53100495Y-33901964D01*
X53163095Y-33793536D01*
X53189842Y-33693717D01*
X53195499Y-33672606D01*
X53195500Y-33672600D01*
X53195500Y-33547399D01*
X53195499Y-33547393D01*
X53177301Y-33479479D01*
X53174062Y-33467393D01*
X54244500Y-33467393D01*
X54244500Y-33592606D01*
X54271594Y-33693717D01*
X54276905Y-33713536D01*
X54339505Y-33821964D01*
X54428036Y-33910495D01*
X54536464Y-33973095D01*
X54575430Y-33983536D01*
X54657393Y-34005499D01*
X54657399Y-34005500D01*
X54782601Y-34005500D01*
X54782606Y-34005499D01*
X54827254Y-33993535D01*
X54903536Y-33973095D01*
X55011964Y-33910495D01*
X55100495Y-33821964D01*
X55149321Y-33737393D01*
X55784500Y-33737393D01*
X55784500Y-33862606D01*
X55816904Y-33983533D01*
X55816905Y-33983536D01*
X55879505Y-34091964D01*
X55968036Y-34180495D01*
X56076464Y-34243095D01*
X56133132Y-34258279D01*
X56197393Y-34275499D01*
X56197399Y-34275500D01*
X56322601Y-34275500D01*
X56322606Y-34275499D01*
X56358533Y-34265871D01*
X56443536Y-34243095D01*
X56551964Y-34180495D01*
X56640495Y-34091964D01*
X56703095Y-33983536D01*
X56731394Y-33877925D01*
X56735499Y-33862606D01*
X56735500Y-33862600D01*
X56735500Y-33787393D01*
X57444500Y-33787393D01*
X57444500Y-33912606D01*
X57471550Y-34013553D01*
X57476905Y-34033536D01*
X57539505Y-34141964D01*
X57628036Y-34230495D01*
X57736464Y-34293095D01*
X57775430Y-34303536D01*
X57857393Y-34325499D01*
X57857399Y-34325500D01*
X57982601Y-34325500D01*
X57982606Y-34325499D01*
X58018533Y-34315871D01*
X58103536Y-34293095D01*
X58211964Y-34230495D01*
X58300495Y-34141964D01*
X58349321Y-34057393D01*
X58794500Y-34057393D01*
X58794500Y-34182606D01*
X58822072Y-34285499D01*
X58826905Y-34303536D01*
X58889505Y-34411964D01*
X58978036Y-34500495D01*
X59086464Y-34563095D01*
X59143132Y-34578279D01*
X59207393Y-34595499D01*
X59207399Y-34595500D01*
X59332601Y-34595500D01*
X59332606Y-34595499D01*
X59377254Y-34583535D01*
X59453536Y-34563095D01*
X59561964Y-34500495D01*
X59650495Y-34411964D01*
X59713095Y-34303536D01*
X59745500Y-34182601D01*
X59745500Y-34057399D01*
X59745499Y-34057393D01*
X59725644Y-33983296D01*
X59713095Y-33936464D01*
X59650495Y-33828036D01*
X59561964Y-33739505D01*
X59453536Y-33676905D01*
X59453533Y-33676904D01*
X59332606Y-33644500D01*
X59332601Y-33644500D01*
X59207399Y-33644500D01*
X59207393Y-33644500D01*
X59086466Y-33676904D01*
X59086464Y-33676905D01*
X58978035Y-33739505D01*
X58889505Y-33828035D01*
X58826905Y-33936464D01*
X58826904Y-33936466D01*
X58794500Y-34057393D01*
X58349321Y-34057393D01*
X58363095Y-34033536D01*
X58395500Y-33912601D01*
X58395500Y-33787399D01*
X58395499Y-33787393D01*
X58375707Y-33713533D01*
X58363095Y-33666464D01*
X58300495Y-33558036D01*
X58211964Y-33469505D01*
X58103536Y-33406905D01*
X58103533Y-33406904D01*
X57982606Y-33374500D01*
X57982601Y-33374500D01*
X57857399Y-33374500D01*
X57857393Y-33374500D01*
X57736466Y-33406904D01*
X57736464Y-33406905D01*
X57628035Y-33469505D01*
X57539505Y-33558035D01*
X57476905Y-33666464D01*
X57476904Y-33666466D01*
X57444500Y-33787393D01*
X56735500Y-33787393D01*
X56735500Y-33737399D01*
X56735499Y-33737393D01*
X56705775Y-33626466D01*
X56703095Y-33616464D01*
X56640495Y-33508036D01*
X56551964Y-33419505D01*
X56443536Y-33356905D01*
X56443533Y-33356904D01*
X56322606Y-33324500D01*
X56322601Y-33324500D01*
X56197399Y-33324500D01*
X56197393Y-33324500D01*
X56076466Y-33356904D01*
X56076464Y-33356905D01*
X55968035Y-33419505D01*
X55879505Y-33508035D01*
X55816905Y-33616464D01*
X55816904Y-33616466D01*
X55784500Y-33737393D01*
X55149321Y-33737393D01*
X55163095Y-33713536D01*
X55195500Y-33592601D01*
X55195500Y-33467399D01*
X55195499Y-33467393D01*
X55166589Y-33359505D01*
X55163095Y-33346464D01*
X55100495Y-33238036D01*
X55011964Y-33149505D01*
X54903536Y-33086905D01*
X54903533Y-33086904D01*
X54782606Y-33054500D01*
X54782601Y-33054500D01*
X54657399Y-33054500D01*
X54657393Y-33054500D01*
X54536466Y-33086904D01*
X54536464Y-33086905D01*
X54428035Y-33149505D01*
X54339505Y-33238035D01*
X54276905Y-33346464D01*
X54276904Y-33346466D01*
X54244500Y-33467393D01*
X53174062Y-33467393D01*
X53168875Y-33448035D01*
X53163095Y-33426464D01*
X53100495Y-33318036D01*
X53011964Y-33229505D01*
X52903536Y-33166905D01*
X52903533Y-33166904D01*
X52782606Y-33134500D01*
X52782601Y-33134500D01*
X52657399Y-33134500D01*
X52657393Y-33134500D01*
X52536466Y-33166904D01*
X52536464Y-33166905D01*
X52428035Y-33229505D01*
X52339505Y-33318035D01*
X52276905Y-33426464D01*
X52276904Y-33426466D01*
X52244500Y-33547393D01*
X51347858Y-33547393D01*
X51290495Y-33448036D01*
X51201964Y-33359505D01*
X51093536Y-33296905D01*
X51093533Y-33296904D01*
X50972606Y-33264500D01*
X50972601Y-33264500D01*
X50847399Y-33264500D01*
X50847393Y-33264500D01*
X50726466Y-33296904D01*
X50726464Y-33296905D01*
X50618035Y-33359505D01*
X50529505Y-33448035D01*
X50466905Y-33556464D01*
X50466904Y-33556466D01*
X50434500Y-33677393D01*
X49575499Y-33677393D01*
X49547426Y-33572628D01*
X49543095Y-33556464D01*
X49480495Y-33448036D01*
X49391964Y-33359505D01*
X49283536Y-33296905D01*
X49283533Y-33296904D01*
X49162606Y-33264500D01*
X49162601Y-33264500D01*
X49037399Y-33264500D01*
X49037393Y-33264500D01*
X48916466Y-33296904D01*
X48916464Y-33296905D01*
X48808035Y-33359505D01*
X48719505Y-33448035D01*
X48656905Y-33556464D01*
X48656904Y-33556466D01*
X48624500Y-33677393D01*
X47806742Y-33677393D01*
X47793096Y-33626467D01*
X47793095Y-33626466D01*
X47793095Y-33626464D01*
X47730495Y-33518036D01*
X47641964Y-33429505D01*
X47533536Y-33366905D01*
X47533533Y-33366904D01*
X47412606Y-33334500D01*
X47412601Y-33334500D01*
X47287399Y-33334500D01*
X47287393Y-33334500D01*
X47166466Y-33366904D01*
X47166464Y-33366905D01*
X47058035Y-33429505D01*
X46969505Y-33518035D01*
X46906905Y-33626464D01*
X46906904Y-33626466D01*
X46874500Y-33747393D01*
X45757105Y-33747393D01*
X45769479Y-33740249D01*
X45987928Y-33572628D01*
X46182628Y-33377928D01*
X46350249Y-33159479D01*
X46487923Y-32921021D01*
X46593295Y-32666632D01*
X46664560Y-32400666D01*
X46700500Y-32127674D01*
X46700500Y-31852326D01*
X46664560Y-31579334D01*
X46593295Y-31313368D01*
X46487923Y-31058979D01*
X46350249Y-30820521D01*
X46182628Y-30602072D01*
X45987928Y-30407372D01*
X45987924Y-30407369D01*
X45987922Y-30407367D01*
X45769476Y-30239749D01*
X45626370Y-30157127D01*
X45597250Y-30119176D01*
X45603493Y-30071750D01*
X45641444Y-30042630D01*
X45657620Y-30040500D01*
X60292380Y-30040500D01*
X60336574Y-30058806D01*
G37*
%TD.AperFunction*%
%TD*%
M02*
