%TF.GenerationSoftware,KiCad,Pcbnew,10.0.3*%
%TF.CreationDate,2026-07-08T05:54:12-04:00*%
%TF.ProjectId,SAM10M8_18mm_HV_V2,53414d31-304d-4385-9f31-386d6d5f4856,rev?*%
%TF.SameCoordinates,Original*%
%TF.FileFunction,Legend,Top*%
%TF.FilePolarity,Positive*%
%FSLAX46Y46*%
G04 Gerber Fmt 4.6, Leading zero omitted, Abs format (unit mm)*
G04 Created by KiCad (PCBNEW 10.0.3) date 2026-07-08 05:54:12*
%MOMM*%
%LPD*%
G01*
G04 APERTURE LIST*
%ADD10C,0.200000*%
%ADD11C,0.120000*%
%ADD12C,0.100000*%
%ADD13C,0.127000*%
%ADD14C,0.152400*%
G04 APERTURE END LIST*
D10*
X56229673Y-31317219D02*
X56229673Y-30317219D01*
X56229673Y-30317219D02*
X56610625Y-30317219D01*
X56610625Y-30317219D02*
X56705863Y-30364838D01*
X56705863Y-30364838D02*
X56753482Y-30412457D01*
X56753482Y-30412457D02*
X56801101Y-30507695D01*
X56801101Y-30507695D02*
X56801101Y-30650552D01*
X56801101Y-30650552D02*
X56753482Y-30745790D01*
X56753482Y-30745790D02*
X56705863Y-30793409D01*
X56705863Y-30793409D02*
X56610625Y-30841028D01*
X56610625Y-30841028D02*
X56229673Y-30841028D01*
X57134435Y-30317219D02*
X57372530Y-31317219D01*
X57372530Y-31317219D02*
X57563006Y-30602933D01*
X57563006Y-30602933D02*
X57753482Y-31317219D01*
X57753482Y-31317219D02*
X57991578Y-30317219D01*
X58943958Y-31317219D02*
X58610625Y-30841028D01*
X58372530Y-31317219D02*
X58372530Y-30317219D01*
X58372530Y-30317219D02*
X58753482Y-30317219D01*
X58753482Y-30317219D02*
X58848720Y-30364838D01*
X58848720Y-30364838D02*
X58896339Y-30412457D01*
X58896339Y-30412457D02*
X58943958Y-30507695D01*
X58943958Y-30507695D02*
X58943958Y-30650552D01*
X58943958Y-30650552D02*
X58896339Y-30745790D01*
X58896339Y-30745790D02*
X58848720Y-30793409D01*
X58848720Y-30793409D02*
X58753482Y-30841028D01*
X58753482Y-30841028D02*
X58372530Y-30841028D01*
X43977219Y-44910326D02*
X42977219Y-44910326D01*
X42977219Y-44910326D02*
X42977219Y-44529374D01*
X42977219Y-44529374D02*
X43024838Y-44434136D01*
X43024838Y-44434136D02*
X43072457Y-44386517D01*
X43072457Y-44386517D02*
X43167695Y-44338898D01*
X43167695Y-44338898D02*
X43310552Y-44338898D01*
X43310552Y-44338898D02*
X43405790Y-44386517D01*
X43405790Y-44386517D02*
X43453409Y-44434136D01*
X43453409Y-44434136D02*
X43501028Y-44529374D01*
X43501028Y-44529374D02*
X43501028Y-44910326D01*
X43977219Y-43910326D02*
X42977219Y-43910326D01*
X42977219Y-43910326D02*
X42977219Y-43529374D01*
X42977219Y-43529374D02*
X43024838Y-43434136D01*
X43024838Y-43434136D02*
X43072457Y-43386517D01*
X43072457Y-43386517D02*
X43167695Y-43338898D01*
X43167695Y-43338898D02*
X43310552Y-43338898D01*
X43310552Y-43338898D02*
X43405790Y-43386517D01*
X43405790Y-43386517D02*
X43453409Y-43434136D01*
X43453409Y-43434136D02*
X43501028Y-43529374D01*
X43501028Y-43529374D02*
X43501028Y-43910326D01*
X43929600Y-42957945D02*
X43977219Y-42815088D01*
X43977219Y-42815088D02*
X43977219Y-42576993D01*
X43977219Y-42576993D02*
X43929600Y-42481755D01*
X43929600Y-42481755D02*
X43881980Y-42434136D01*
X43881980Y-42434136D02*
X43786742Y-42386517D01*
X43786742Y-42386517D02*
X43691504Y-42386517D01*
X43691504Y-42386517D02*
X43596266Y-42434136D01*
X43596266Y-42434136D02*
X43548647Y-42481755D01*
X43548647Y-42481755D02*
X43501028Y-42576993D01*
X43501028Y-42576993D02*
X43453409Y-42767469D01*
X43453409Y-42767469D02*
X43405790Y-42862707D01*
X43405790Y-42862707D02*
X43358171Y-42910326D01*
X43358171Y-42910326D02*
X43262933Y-42957945D01*
X43262933Y-42957945D02*
X43167695Y-42957945D01*
X43167695Y-42957945D02*
X43072457Y-42910326D01*
X43072457Y-42910326D02*
X43024838Y-42862707D01*
X43024838Y-42862707D02*
X42977219Y-42767469D01*
X42977219Y-42767469D02*
X42977219Y-42529374D01*
X42977219Y-42529374D02*
X43024838Y-42386517D01*
%TO.C,C5*%
D11*
X62450000Y-39347836D02*
X62450000Y-39132164D01*
X63170000Y-39347836D02*
X63170000Y-39132164D01*
%TO.C,C12*%
X58525000Y-39978748D02*
X58525000Y-40501252D01*
X59995000Y-39978748D02*
X59995000Y-40501252D01*
%TO.C,C13*%
X50771252Y-39265000D02*
X50248748Y-39265000D01*
X50771252Y-40735000D02*
X50248748Y-40735000D01*
%TO.C,R6*%
X56500000Y-47163641D02*
X56500000Y-46856359D01*
X57260000Y-47163641D02*
X57260000Y-46856359D01*
%TO.C,C9*%
X46365000Y-44651252D02*
X46365000Y-44128748D01*
X47835000Y-44651252D02*
X47835000Y-44128748D01*
%TO.C,R4*%
X51096359Y-38130000D02*
X51403641Y-38130000D01*
X51096359Y-38890000D02*
X51403641Y-38890000D01*
%TO.C,U3*%
D10*
X52715000Y-44570000D02*
G75*
G02*
X52515000Y-44570000I-100000J0D01*
G01*
X52515000Y-44570000D02*
G75*
G02*
X52715000Y-44570000I100000J0D01*
G01*
%TO.C,R2*%
D11*
X62013641Y-43290000D02*
X61706359Y-43290000D01*
X62013641Y-44050000D02*
X61706359Y-44050000D01*
%TO.C,R1*%
X43683641Y-40245000D02*
X43376359Y-40245000D01*
X43683641Y-41005000D02*
X43376359Y-41005000D01*
%TO.C,D3*%
D12*
X56980000Y-33610000D02*
G75*
G02*
X56880000Y-33610000I-50000J0D01*
G01*
X56880000Y-33610000D02*
G75*
G02*
X56980000Y-33610000I50000J0D01*
G01*
%TO.C,FB1*%
D10*
X60800000Y-34850000D02*
X61400000Y-34850000D01*
X61400000Y-36250000D02*
X60800000Y-36250000D01*
%TO.C,C7*%
D11*
X48190000Y-44017836D02*
X48190000Y-43802164D01*
X48910000Y-44017836D02*
X48910000Y-43802164D01*
%TO.C,R5*%
X57470000Y-46866359D02*
X57470000Y-47173641D01*
X58230000Y-46866359D02*
X58230000Y-47173641D01*
%TO.C,C1*%
X60565000Y-39958748D02*
X60565000Y-40481252D01*
X62035000Y-39958748D02*
X62035000Y-40481252D01*
%TO.C,L1*%
D13*
X52590000Y-45140000D02*
X52590000Y-39440000D01*
X57890000Y-45140000D02*
X57890000Y-39440000D01*
%TO.C,FL1*%
X49102500Y-46140000D02*
X51102500Y-46140000D01*
X51102500Y-47980000D02*
X49102500Y-47980000D01*
D10*
X52052500Y-46640000D02*
G75*
G02*
X51852500Y-46640000I-100000J0D01*
G01*
X51852500Y-46640000D02*
G75*
G02*
X52052500Y-46640000I100000J0D01*
G01*
%TO.C,C10*%
D11*
X53402164Y-46370000D02*
X53617836Y-46370000D01*
X53402164Y-47090000D02*
X53617836Y-47090000D01*
%TO.C,J3*%
D14*
X49377802Y-48923001D02*
X49377802Y-50664760D01*
X50347061Y-48923001D02*
X49377802Y-48923001D01*
X50690444Y-52783801D02*
X55329560Y-52783801D01*
X56642202Y-48923001D02*
X55672943Y-48923001D01*
X56642202Y-50664760D02*
X56642202Y-48923001D01*
%TO.C,D1*%
D12*
X44645000Y-41655000D02*
G75*
G02*
X44545000Y-41655000I-50000J0D01*
G01*
X44545000Y-41655000D02*
G75*
G02*
X44645000Y-41655000I50000J0D01*
G01*
%TO.C,R3*%
D11*
X57570000Y-32673641D02*
X57570000Y-32366359D01*
X58330000Y-32673641D02*
X58330000Y-32366359D01*
%TO.C,C6*%
X62890000Y-41622164D02*
X62890000Y-41837836D01*
X63610000Y-41622164D02*
X63610000Y-41837836D01*
%TO.C,C11*%
X50731252Y-41245000D02*
X50208748Y-41245000D01*
X50731252Y-42715000D02*
X50208748Y-42715000D01*
%TO.C,C8*%
X44405000Y-44641252D02*
X44405000Y-44118748D01*
X45875000Y-44641252D02*
X45875000Y-44118748D01*
%TD*%
M02*
