%TF.GenerationSoftware,KiCad,Pcbnew,10.0.3*%
%TF.CreationDate,2026-07-08T05:54:12-04:00*%
%TF.ProjectId,SAM10M8_18mm_HV_V2,53414d31-304d-4385-9f31-386d6d5f4856,rev?*%
%TF.SameCoordinates,Original*%
%TF.FileFunction,Copper,L1,Top*%
%TF.FilePolarity,Positive*%
%FSLAX46Y46*%
G04 Gerber Fmt 4.6, Leading zero omitted, Abs format (unit mm)*
G04 Created by KiCad (PCBNEW 10.0.3) date 2026-07-08 05:54:12*
%MOMM*%
%LPD*%
G01*
G04 APERTURE LIST*
G04 Aperture macros list*
%AMRoundRect*
0 Rectangle with rounded corners*
0 $1 Rounding radius*
0 $2 $3 $4 $5 $6 $7 $8 $9 X,Y pos of 4 corners*
0 Add a 4 corners polygon primitive as box body*
4,1,4,$2,$3,$4,$5,$6,$7,$8,$9,$2,$3,0*
0 Add four circle primitives for the rounded corners*
1,1,$1+$1,$2,$3*
1,1,$1+$1,$4,$5*
1,1,$1+$1,$6,$7*
1,1,$1+$1,$8,$9*
0 Add four rect primitives between the rounded corners*
20,1,$1+$1,$2,$3,$4,$5,0*
20,1,$1+$1,$4,$5,$6,$7,0*
20,1,$1+$1,$6,$7,$8,$9,0*
20,1,$1+$1,$8,$9,$2,$3,0*%
G04 Aperture macros list end*
%TA.AperFunction,SMDPad,CuDef*%
%ADD10RoundRect,0.140000X0.170000X-0.140000X0.170000X0.140000X-0.170000X0.140000X-0.170000X-0.140000X0*%
%TD*%
%TA.AperFunction,SMDPad,CuDef*%
%ADD11RoundRect,0.250000X-0.475000X0.250000X-0.475000X-0.250000X0.475000X-0.250000X0.475000X0.250000X0*%
%TD*%
%TA.AperFunction,SMDPad,CuDef*%
%ADD12RoundRect,0.250000X0.250000X0.475000X-0.250000X0.475000X-0.250000X-0.475000X0.250000X-0.475000X0*%
%TD*%
%TA.AperFunction,SMDPad,CuDef*%
%ADD13RoundRect,0.135000X0.185000X-0.135000X0.185000X0.135000X-0.185000X0.135000X-0.185000X-0.135000X0*%
%TD*%
%TA.AperFunction,SMDPad,CuDef*%
%ADD14RoundRect,0.250000X0.475000X-0.250000X0.475000X0.250000X-0.475000X0.250000X-0.475000X-0.250000X0*%
%TD*%
%TA.AperFunction,SMDPad,CuDef*%
%ADD15RoundRect,0.135000X-0.135000X-0.185000X0.135000X-0.185000X0.135000X0.185000X-0.135000X0.185000X0*%
%TD*%
%TA.AperFunction,SMDPad,CuDef*%
%ADD16RoundRect,0.005000X0.320000X0.095000X-0.320000X0.095000X-0.320000X-0.095000X0.320000X-0.095000X0*%
%TD*%
%TA.AperFunction,SMDPad,CuDef*%
%ADD17RoundRect,0.005000X0.495000X0.095000X-0.495000X0.095000X-0.495000X-0.095000X0.495000X-0.095000X0*%
%TD*%
%TA.AperFunction,SMDPad,CuDef*%
%ADD18RoundRect,0.006250X0.118750X0.268750X-0.118750X0.268750X-0.118750X-0.268750X0.118750X-0.268750X0*%
%TD*%
%TA.AperFunction,SMDPad,CuDef*%
%ADD19RoundRect,0.135000X0.135000X0.185000X-0.135000X0.185000X-0.135000X-0.185000X0.135000X-0.185000X0*%
%TD*%
%TA.AperFunction,ComponentPad*%
%ADD20C,3.800000*%
%TD*%
%TA.AperFunction,SMDPad,CuDef*%
%ADD21RoundRect,0.147500X0.172500X-0.147500X0.172500X0.147500X-0.172500X0.147500X-0.172500X-0.147500X0*%
%TD*%
%TA.AperFunction,SMDPad,CuDef*%
%ADD22R,1.400000X1.000000*%
%TD*%
%TA.AperFunction,SMDPad,CuDef*%
%ADD23RoundRect,0.135000X-0.185000X0.135000X-0.185000X-0.135000X0.185000X-0.135000X0.185000X0.135000X0*%
%TD*%
%TA.AperFunction,SMDPad,CuDef*%
%ADD24R,2.500000X2.000000*%
%TD*%
%TA.AperFunction,SMDPad,CuDef*%
%ADD25R,0.900000X0.400000*%
%TD*%
%TA.AperFunction,SMDPad,CuDef*%
%ADD26RoundRect,0.140000X-0.140000X-0.170000X0.140000X-0.170000X0.140000X0.170000X-0.140000X0.170000X0*%
%TD*%
%TA.AperFunction,SMDPad,CuDef*%
%ADD27R,0.660400X1.549400*%
%TD*%
%TA.AperFunction,SMDPad,CuDef*%
%ADD28R,1.295400X1.905000*%
%TD*%
%TA.AperFunction,SMDPad,CuDef*%
%ADD29RoundRect,0.147500X0.147500X0.172500X-0.147500X0.172500X-0.147500X-0.172500X0.147500X-0.172500X0*%
%TD*%
%TA.AperFunction,SMDPad,CuDef*%
%ADD30RoundRect,0.140000X-0.170000X0.140000X-0.170000X-0.140000X0.170000X-0.140000X0.170000X0.140000X0*%
%TD*%
%TA.AperFunction,ViaPad*%
%ADD31C,0.550000*%
%TD*%
%TA.AperFunction,ViaPad*%
%ADD32C,0.600000*%
%TD*%
%TA.AperFunction,Conductor*%
%ADD33C,0.200000*%
%TD*%
%TA.AperFunction,Conductor*%
%ADD34C,0.127000*%
%TD*%
%TA.AperFunction,Conductor*%
%ADD35C,0.400000*%
%TD*%
G04 APERTURE END LIST*
D10*
%TO.P,C5,1*%
%TO.N,+3V3*%
X62810000Y-39720000D03*
%TO.P,C5,2*%
%TO.N,GND*%
X62810000Y-38760000D03*
%TD*%
D11*
%TO.P,C12,1*%
%TO.N,+3V3*%
X59260000Y-39290000D03*
%TO.P,C12,2*%
%TO.N,GND*%
X59260000Y-41190000D03*
%TD*%
D12*
%TO.P,C13,1*%
%TO.N,Net-(U3-VO)*%
X51460000Y-40000000D03*
%TO.P,C13,2*%
%TO.N,GND*%
X49560000Y-40000000D03*
%TD*%
D13*
%TO.P,R6,1*%
%TO.N,GND*%
X56880000Y-47520000D03*
%TO.P,R6,2*%
%TO.N,Net-(U3-FB)*%
X56880000Y-46500000D03*
%TD*%
D14*
%TO.P,C9,1*%
%TO.N,Net-(U3-EN{slash}SYNC)*%
X47100000Y-45340000D03*
%TO.P,C9,2*%
%TO.N,GND*%
X47100000Y-43440000D03*
%TD*%
D15*
%TO.P,R4,1*%
%TO.N,Net-(U3-PG)*%
X50740000Y-38510000D03*
%TO.P,R4,2*%
%TO.N,Net-(U3-VO)*%
X51760000Y-38510000D03*
%TD*%
D16*
%TO.P,U3,1,EN/SYNC_1*%
%TO.N,Net-(U3-EN{slash}SYNC)*%
X51690000Y-44570000D03*
D17*
%TO.P,U3,2,SW_2*%
%TO.N,Net-(U3-SW)*%
X51515000Y-44070000D03*
D16*
%TO.P,U3,3,VO_3*%
%TO.N,Net-(U3-VO)*%
X51690000Y-43570000D03*
D17*
%TO.P,U3,4,PGND_4*%
%TO.N,GND*%
X50115000Y-43570000D03*
D16*
%TO.P,U3,5,PG_5*%
%TO.N,Net-(U3-PG)*%
X49940000Y-44070000D03*
D17*
%TO.P,U3,6,VIN_6*%
%TO.N,Net-(U3-EN{slash}SYNC)*%
X50115000Y-44570000D03*
D18*
%TO.P,U3,7,PSNS_7*%
%TO.N,GND*%
X50065000Y-45245000D03*
%TO.P,U3,8,NR/SS_8*%
%TO.N,Net-(U3-NR{slash}SS)*%
X50565000Y-45245000D03*
%TO.P,U3,9,FB_9*%
%TO.N,Net-(U3-FB)*%
X51065000Y-45245000D03*
%TO.P,U3,10,S-CONF_10*%
%TO.N,GND*%
X51565000Y-45245000D03*
%TD*%
D19*
%TO.P,R2,1*%
%TO.N,+3V3*%
X62370000Y-43670000D03*
%TO.P,R2,2*%
%TO.N,Net-(U1-~{RESET})*%
X61350000Y-43670000D03*
%TD*%
D20*
%TO.P,H2,1*%
%TO.N,N/C*%
X61350000Y-31990000D03*
%TD*%
D19*
%TO.P,R1,1*%
%TO.N,Net-(U1-TIMEPULSE)*%
X44040000Y-40625000D03*
%TO.P,R1,2*%
%TO.N,Net-(D1-A)*%
X43020000Y-40625000D03*
%TD*%
D21*
%TO.P,D3,1,K_1*%
%TO.N,GND*%
X56930000Y-33005000D03*
%TO.P,D3,2,A_2*%
%TO.N,Net-(D3-A)*%
X56930000Y-32035000D03*
%TD*%
D22*
%TO.P,FB1,1*%
%TO.N,Net-(U3-VO)*%
X59800000Y-35550000D03*
%TO.P,FB1,2*%
%TO.N,+3V3*%
X62400000Y-35550000D03*
%TD*%
D10*
%TO.P,C7,1*%
%TO.N,Net-(U3-EN{slash}SYNC)*%
X48550000Y-44390000D03*
%TO.P,C7,2*%
%TO.N,GND*%
X48550000Y-43430000D03*
%TD*%
D23*
%TO.P,R5,1*%
%TO.N,Net-(U3-FB)*%
X57850000Y-46510000D03*
%TO.P,R5,2*%
%TO.N,+3V3*%
X57850000Y-47530000D03*
%TD*%
D11*
%TO.P,C1,1*%
%TO.N,+3V3*%
X61300000Y-39270000D03*
%TO.P,C1,2*%
%TO.N,GND*%
X61300000Y-41170000D03*
%TD*%
D24*
%TO.P,L1,1*%
%TO.N,Net-(U3-SW)*%
X55240000Y-44790000D03*
%TO.P,L1,2*%
%TO.N,Net-(U3-VO)*%
X55240000Y-39790000D03*
%TD*%
D20*
%TO.P,H3,1*%
%TO.N,N/C*%
X44600000Y-54490000D03*
%TD*%
D25*
%TO.P,FL1,1*%
%TO.N,VSYS*%
X50952500Y-46660000D03*
%TO.P,FL1,2*%
%TO.N,Net-(U3-EN{slash}SYNC)*%
X49252500Y-46660000D03*
%TO.P,FL1,3*%
%TO.N,GND*%
X49252500Y-47460000D03*
%TO.P,FL1,4*%
%TO.N,VSS*%
X50952500Y-47460000D03*
%TD*%
D20*
%TO.P,H4,1*%
%TO.N,N/C*%
X61350000Y-54490000D03*
%TD*%
D26*
%TO.P,C10,1*%
%TO.N,Net-(U3-NR{slash}SS)*%
X53030000Y-46730000D03*
%TO.P,C10,2*%
%TO.N,GND*%
X53990000Y-46730000D03*
%TD*%
D27*
%TO.P,J3,1,1_1*%
%TO.N,GNSS_RX*%
X55010003Y-49425001D03*
%TO.P,J3,2,2_2*%
%TO.N,GNSS_TX*%
X54010003Y-49425001D03*
%TO.P,J3,3,3_3*%
%TO.N,VSYS*%
X53010002Y-49425001D03*
%TO.P,J3,4,4_4*%
%TO.N,VSS*%
X52010001Y-49425001D03*
%TO.P,J3,5,5_5*%
%TO.N,RXD2*%
X51010001Y-49425001D03*
D28*
%TO.P,J3,6*%
%TO.N,N/C*%
X49710004Y-51950000D03*
%TO.P,J3,7*%
X56310000Y-51950000D03*
%TD*%
D29*
%TO.P,D1,1,K_1*%
%TO.N,GND*%
X43990000Y-41655000D03*
%TO.P,D1,2,A_2*%
%TO.N,Net-(D1-A)*%
X43020000Y-41655000D03*
%TD*%
D13*
%TO.P,R3,1*%
%TO.N,+3V3*%
X57950000Y-33030000D03*
%TO.P,R3,2*%
%TO.N,Net-(D3-A)*%
X57950000Y-32010000D03*
%TD*%
D20*
%TO.P,H1,1*%
%TO.N,N/C*%
X44600000Y-31990000D03*
%TD*%
D30*
%TO.P,C6,1*%
%TO.N,+3V3*%
X63250000Y-41250000D03*
%TO.P,C6,2*%
%TO.N,GND*%
X63250000Y-42210000D03*
%TD*%
D12*
%TO.P,C11,1*%
%TO.N,Net-(U3-VO)*%
X51420000Y-41980000D03*
%TO.P,C11,2*%
%TO.N,GND*%
X49520000Y-41980000D03*
%TD*%
D14*
%TO.P,C8,1*%
%TO.N,Net-(U3-EN{slash}SYNC)*%
X45140000Y-45330000D03*
%TO.P,C8,2*%
%TO.N,GND*%
X45140000Y-43430000D03*
%TD*%
D31*
%TO.N,+3V3*%
X61880000Y-40170000D03*
X58690000Y-47530000D03*
X53820000Y-50850000D03*
X58790000Y-33030000D03*
X52740000Y-50840000D03*
X62610000Y-40560000D03*
X54950000Y-50830000D03*
X60780000Y-40180000D03*
%TO.N,GND*%
X51160000Y-51800000D03*
X61170000Y-47140000D03*
X46940000Y-50940000D03*
X54720000Y-33530000D03*
X44280000Y-46790000D03*
X44280276Y-36713043D03*
X59070000Y-50820000D03*
X45520000Y-50890000D03*
X53478173Y-44971827D03*
X60530000Y-50740000D03*
D32*
X47680000Y-35660000D03*
D31*
X60580000Y-34420000D03*
X62920000Y-34420000D03*
X43520000Y-45390000D03*
X50910000Y-33740000D03*
X52720000Y-33610000D03*
X63350000Y-36940000D03*
X48280000Y-50940000D03*
X44190000Y-38480000D03*
X57640000Y-50730000D03*
X44460000Y-49710000D03*
X57920000Y-33850000D03*
X61250000Y-48340000D03*
X61170000Y-46120000D03*
X49100000Y-33740000D03*
X47350000Y-33810000D03*
X53476320Y-47495970D03*
X59270000Y-34120000D03*
X57600000Y-51960000D03*
X55820000Y-47530000D03*
D32*
X63300000Y-43880000D03*
D31*
X53860000Y-51990000D03*
X61580000Y-45190000D03*
X56260000Y-33800000D03*
X61780000Y-34470000D03*
X44840000Y-39730000D03*
X44290000Y-35280000D03*
X62030000Y-42590000D03*
D32*
X62500000Y-44680000D03*
X59510000Y-47380000D03*
D31*
X43860000Y-39720000D03*
X52760000Y-51930000D03*
X44350000Y-48450000D03*
X61240000Y-49510000D03*
D32*
X57890000Y-48890000D03*
D31*
X55090000Y-51940000D03*
X45600000Y-34400000D03*
%TO.N,Net-(U3-PG)*%
X50090000Y-38550000D03*
X49317633Y-44102117D03*
%TO.N,Net-(U1-~{RESET})*%
X61230000Y-42620000D03*
%TO.N,Net-(U1-TIMEPULSE)*%
X44860000Y-40610000D03*
%TO.N,GNSS_RX*%
X55040761Y-47517498D03*
%TO.N,GNSS_TX*%
X54290758Y-47517498D03*
%TD*%
%TO.N,+3V3*%
D33*
X62610000Y-43430000D02*
X62370000Y-43670000D01*
X62610000Y-40560000D02*
X62610000Y-43430000D01*
D34*
X57850000Y-47530000D02*
X58690000Y-47530000D01*
D33*
X58790000Y-33030000D02*
X57950000Y-33030000D01*
%TO.N,GND*%
D34*
X56880000Y-47520000D02*
X55830000Y-47520000D01*
X55830000Y-47520000D02*
X55820000Y-47530000D01*
%TO.N,Net-(U3-VO)*%
D33*
X51690000Y-43570000D02*
X51690000Y-42200000D01*
X51690000Y-42200000D02*
X51520000Y-42030000D01*
%TO.N,Net-(U3-FB)*%
D34*
X51334342Y-45783500D02*
X51065000Y-45514158D01*
X57850000Y-46510000D02*
X57840000Y-46500000D01*
X53713500Y-46053500D02*
X53440000Y-45780000D01*
X56413500Y-46053500D02*
X53713500Y-46053500D01*
X56753500Y-46500000D02*
X56753500Y-46393500D01*
X51799158Y-45780000D02*
X51795658Y-45783500D01*
X53440000Y-45780000D02*
X51799158Y-45780000D01*
X56753500Y-46393500D02*
X56413500Y-46053500D01*
X51795658Y-45783500D02*
X51334342Y-45783500D01*
X51065000Y-45514158D02*
X51065000Y-45245000D01*
X57840000Y-46500000D02*
X56753500Y-46500000D01*
%TO.N,Net-(U3-EN{slash}SYNC)*%
D33*
X51690000Y-44570000D02*
X50115000Y-44570000D01*
%TO.N,Net-(U3-PG)*%
D34*
X50090000Y-38520000D02*
X50730000Y-38520000D01*
X50730000Y-38520000D02*
X50740000Y-38510000D01*
X49349750Y-44070000D02*
X49317633Y-44102117D01*
X49940000Y-44070000D02*
X49349750Y-44070000D01*
%TO.N,Net-(U3-NR{slash}SS)*%
X50565000Y-45514158D02*
X50565000Y-45245000D01*
X52496500Y-46196500D02*
X51247342Y-46196500D01*
X51247342Y-46196500D02*
X50565000Y-45514158D01*
X53030000Y-46730000D02*
X52496500Y-46196500D01*
%TO.N,Net-(U1-~{RESET})*%
D33*
X61240000Y-42630000D02*
X61240000Y-43560000D01*
X61240000Y-43560000D02*
X61350000Y-43670000D01*
X61230000Y-42620000D02*
X61240000Y-42630000D01*
%TO.N,Net-(U1-TIMEPULSE)*%
X44860000Y-40590000D02*
X44075000Y-40590000D01*
X44075000Y-40590000D02*
X44040000Y-40625000D01*
%TO.N,Net-(D1-A)*%
X43020000Y-40625000D02*
X43020000Y-41655000D01*
%TO.N,Net-(D3-A)*%
X57950000Y-32010000D02*
X56955000Y-32010000D01*
X56955000Y-32010000D02*
X56930000Y-32035000D01*
%TO.N,VSYS*%
D35*
X53010002Y-47984247D02*
X52801320Y-47775565D01*
X52801320Y-47775565D02*
X52801320Y-47732792D01*
X52801320Y-47732792D02*
X51728528Y-46660000D01*
X51728528Y-46660000D02*
X50952500Y-46660000D01*
X53010002Y-49425001D02*
X53010002Y-47984247D01*
%TO.N,VSS*%
X52010001Y-47790001D02*
X51680000Y-47460000D01*
X52010001Y-49425001D02*
X52010001Y-47790001D01*
X51680000Y-47460000D02*
X50952500Y-47460000D01*
%TO.N,GNSS_RX*%
D33*
X55040761Y-47529239D02*
X55010003Y-47559997D01*
X55010003Y-47559997D02*
X55010003Y-49425001D01*
X55040761Y-47517498D02*
X55040761Y-47529239D01*
%TO.N,GNSS_TX*%
X54202502Y-47517498D02*
X54010003Y-47709997D01*
X54290758Y-47517498D02*
X54202502Y-47517498D01*
X54010003Y-47709997D02*
X54010003Y-49425001D01*
X54010003Y-50039997D02*
X54010003Y-49425001D01*
%TD*%
%TA.AperFunction,Conductor*%
%TO.N,+3V3*%
G36*
X63122648Y-35088425D02*
G01*
X63141245Y-35131659D01*
X63159749Y-36047583D01*
X63155486Y-36071566D01*
X62992195Y-36490000D01*
X62064391Y-38867500D01*
X62055524Y-38890221D01*
X62022404Y-38924737D01*
X61997300Y-38930000D01*
X60744224Y-38930000D01*
X60700030Y-38911694D01*
X60681724Y-38867500D01*
X60686644Y-38843194D01*
X61680000Y-36489999D01*
X61680000Y-35142073D01*
X61698306Y-35097879D01*
X61742069Y-35079574D01*
X63078330Y-35070422D01*
X63122648Y-35088425D01*
G37*
%TD.AperFunction*%
%TD*%
%TA.AperFunction,Conductor*%
%TO.N,Net-(U3-SW)*%
G36*
X54038434Y-43918592D02*
G01*
X54082480Y-43937252D01*
X54100431Y-43981591D01*
X54100426Y-43982037D01*
X54092323Y-44516848D01*
X54073350Y-44560760D01*
X54029128Y-44578397D01*
X53758518Y-44575356D01*
X53727971Y-44566987D01*
X53661712Y-44528733D01*
X53661706Y-44528731D01*
X53540779Y-44496327D01*
X53540774Y-44496327D01*
X53415572Y-44496327D01*
X53415566Y-44496327D01*
X53294639Y-44528731D01*
X53294633Y-44528733D01*
X53239105Y-44560792D01*
X53207154Y-44569161D01*
X52328048Y-44559284D01*
X52297019Y-44550634D01*
X52246269Y-44520727D01*
X52217488Y-44482518D01*
X52215500Y-44466881D01*
X52215500Y-44454760D01*
X52203577Y-44394818D01*
X52203576Y-44394816D01*
X52158157Y-44326842D01*
X52090183Y-44281423D01*
X52090181Y-44281422D01*
X52030240Y-44269500D01*
X51836988Y-44269500D01*
X51805257Y-44260846D01*
X51778841Y-44245279D01*
X51750060Y-44207070D01*
X51748354Y-44197365D01*
X51726578Y-43968985D01*
X51740606Y-43923253D01*
X51782864Y-43900835D01*
X51789283Y-43900555D01*
X54038434Y-43918592D01*
G37*
%TD.AperFunction*%
%TD*%
%TA.AperFunction,Conductor*%
%TO.N,+3V3*%
G36*
X63555090Y-39267501D02*
G01*
X63601528Y-39319706D01*
X63613403Y-39371084D01*
X63642238Y-41610515D01*
X63623418Y-41677802D01*
X63571207Y-41724233D01*
X63502183Y-41735066D01*
X63502064Y-41735050D01*
X63459903Y-41729500D01*
X63040105Y-41729500D01*
X63024386Y-41731569D01*
X62990513Y-41736028D01*
X62990511Y-41736029D01*
X62990509Y-41736029D01*
X62881683Y-41786776D01*
X62796776Y-41871683D01*
X62746027Y-41980514D01*
X62739500Y-42030098D01*
X62739500Y-42266146D01*
X62736920Y-42274929D01*
X62738209Y-42283991D01*
X62727232Y-42307924D01*
X62719815Y-42333185D01*
X62712898Y-42339178D01*
X62709082Y-42347500D01*
X62686905Y-42361701D01*
X62667011Y-42378940D01*
X62656392Y-42381241D01*
X62650243Y-42385179D01*
X62615300Y-42390146D01*
X62612203Y-42390141D01*
X62545195Y-42370348D01*
X62499526Y-42317470D01*
X62493598Y-42301655D01*
X62307159Y-41677802D01*
X62230692Y-41421930D01*
X62225500Y-41386424D01*
X62225500Y-40865730D01*
X62222646Y-40835300D01*
X62222646Y-40835298D01*
X62177793Y-40707119D01*
X62177792Y-40707117D01*
X62151209Y-40671098D01*
X62097150Y-40597850D01*
X61987882Y-40517207D01*
X61987880Y-40517206D01*
X61859700Y-40472353D01*
X61829270Y-40469500D01*
X61829266Y-40469500D01*
X60770734Y-40469500D01*
X60770730Y-40469500D01*
X60740300Y-40472353D01*
X60740298Y-40472353D01*
X60612119Y-40517206D01*
X60612117Y-40517207D01*
X60502849Y-40597850D01*
X60487892Y-40618116D01*
X60484491Y-40620697D01*
X60482763Y-40624600D01*
X60456908Y-40641638D01*
X60432243Y-40660364D01*
X60426975Y-40661363D01*
X60424422Y-40663047D01*
X60389547Y-40668470D01*
X60160475Y-40671098D01*
X60093215Y-40652184D01*
X60059281Y-40620737D01*
X60057151Y-40617850D01*
X60002516Y-40577528D01*
X59947882Y-40537207D01*
X59947880Y-40537206D01*
X59819700Y-40492353D01*
X59789270Y-40489500D01*
X59789266Y-40489500D01*
X58748200Y-40489500D01*
X58681161Y-40469815D01*
X58635406Y-40417011D01*
X58624208Y-40366925D01*
X58613530Y-39435919D01*
X58632445Y-39368662D01*
X58684720Y-39322305D01*
X58735907Y-39310511D01*
X63487801Y-39248690D01*
X63555090Y-39267501D01*
G37*
%TD.AperFunction*%
%TD*%
%TA.AperFunction,Conductor*%
%TO.N,Net-(U3-VO)*%
G36*
X59667005Y-35044759D02*
G01*
X59675789Y-35048398D01*
X59675790Y-35048398D01*
X59675794Y-35048400D01*
X59709616Y-35082222D01*
X59712896Y-35090140D01*
X59717624Y-35116011D01*
X59612280Y-38487026D01*
X59606778Y-38510782D01*
X59602630Y-38519974D01*
X59568675Y-38552375D01*
X59560509Y-38555609D01*
X59537496Y-38560000D01*
X58619999Y-38560000D01*
X58562758Y-38638704D01*
X58556565Y-38645978D01*
X58549888Y-38652703D01*
X58542650Y-38658954D01*
X58462850Y-38717849D01*
X58382207Y-38827114D01*
X58346393Y-38929465D01*
X58342759Y-38937832D01*
X58338562Y-38945841D01*
X58333749Y-38953592D01*
X58006160Y-39404027D01*
X57988245Y-39420572D01*
X57971904Y-39430575D01*
X57938921Y-39439768D01*
X52660000Y-39409998D01*
X52299999Y-39949999D01*
X52299999Y-39950005D01*
X52329207Y-42666355D01*
X52324706Y-42690326D01*
X52321018Y-42699506D01*
X52288157Y-42733431D01*
X52279890Y-42737062D01*
X52256724Y-42742307D01*
X51137093Y-42777571D01*
X51113039Y-42773569D01*
X51104141Y-42770207D01*
X51104140Y-42770208D01*
X51069265Y-42737467D01*
X51069082Y-42737062D01*
X51065774Y-42729736D01*
X51060235Y-42703822D01*
X51069943Y-39578222D01*
X51071136Y-39566266D01*
X51073440Y-39554643D01*
X51076901Y-39543131D01*
X51119478Y-39439056D01*
X51318076Y-38953592D01*
X51589587Y-38289896D01*
X51603044Y-38269564D01*
X51614524Y-38257984D01*
X51658248Y-38239490D01*
X56350000Y-38190000D01*
X59043180Y-35071059D01*
X59062408Y-35056070D01*
X59075547Y-35049464D01*
X59081131Y-35046658D01*
X59109201Y-35040000D01*
X59643085Y-35040000D01*
X59667005Y-35044759D01*
G37*
%TD.AperFunction*%
%TD*%
%TA.AperFunction,Conductor*%
%TO.N,Net-(U3-EN{slash}SYNC)*%
G36*
X49021363Y-44478306D02*
G01*
X49025669Y-44482612D01*
X49134097Y-44545212D01*
X49190765Y-44560396D01*
X49255026Y-44577616D01*
X49255032Y-44577617D01*
X49380234Y-44577617D01*
X49380239Y-44577616D01*
X49416166Y-44567988D01*
X49501169Y-44545212D01*
X49609597Y-44482612D01*
X49613903Y-44478306D01*
X49658097Y-44460000D01*
X49862511Y-44460000D01*
X49906705Y-44478306D01*
X49925011Y-44522500D01*
X49925010Y-44522768D01*
X49924168Y-44718817D01*
X49905673Y-44762933D01*
X49873865Y-44779847D01*
X49865584Y-44781494D01*
X49865577Y-44781497D01*
X49797191Y-44827191D01*
X49751496Y-44895578D01*
X49751495Y-44895580D01*
X49739500Y-44955888D01*
X49739500Y-45534108D01*
X49739501Y-45534112D01*
X49751495Y-45594418D01*
X49751497Y-45594422D01*
X49797191Y-45662808D01*
X49865577Y-45708502D01*
X49865580Y-45708504D01*
X49869346Y-45709253D01*
X49909120Y-45735828D01*
X49919653Y-45770820D01*
X49915289Y-46787768D01*
X49896794Y-46831883D01*
X49852790Y-46850000D01*
X47819952Y-46850000D01*
X47800538Y-46846908D01*
X44793427Y-45864191D01*
X44757105Y-45833063D01*
X44750343Y-45804315D01*
X44758046Y-44779847D01*
X44759985Y-44522030D01*
X44778622Y-44477975D01*
X44822483Y-44460000D01*
X48977169Y-44460000D01*
X49021363Y-44478306D01*
G37*
%TD.AperFunction*%
%TD*%
%TA.AperFunction,Conductor*%
%TO.N,GND*%
G36*
X60303859Y-30045255D02*
G01*
X60310081Y-30047832D01*
X60326988Y-30064739D01*
X60343904Y-30081651D01*
X60343904Y-30081653D01*
X60343905Y-30081654D01*
X60343907Y-30106699D01*
X60343909Y-30129486D01*
X60343357Y-30130819D01*
X60316862Y-30161034D01*
X60180525Y-30239747D01*
X59962077Y-30407366D01*
X59962065Y-30407378D01*
X59767383Y-30602059D01*
X59767368Y-30602075D01*
X59767366Y-30602077D01*
X59599747Y-30820525D01*
X59462074Y-31058982D01*
X59356701Y-31313378D01*
X59356697Y-31313389D01*
X59285441Y-31579322D01*
X59284906Y-31583388D01*
X59284905Y-31583391D01*
X59249500Y-31852316D01*
X59249500Y-32127682D01*
X59284905Y-32396605D01*
X59284905Y-32396611D01*
X59284906Y-32396611D01*
X59285441Y-32400676D01*
X59356694Y-32666596D01*
X59356706Y-32666634D01*
X59356707Y-32666638D01*
X59356711Y-32666649D01*
X59379929Y-32722700D01*
X59379929Y-32722701D01*
X59461228Y-32918974D01*
X59461232Y-32918982D01*
X59462073Y-32921014D01*
X59462076Y-32921020D01*
X59462077Y-32921021D01*
X59488854Y-32967400D01*
X59599749Y-33159476D01*
X59641230Y-33213536D01*
X59736194Y-33337298D01*
X59753927Y-33360407D01*
X59767372Y-33377928D01*
X59962072Y-33572628D01*
X60180521Y-33740249D01*
X60418979Y-33877923D01*
X60673368Y-33983295D01*
X60939334Y-34054560D01*
X61212326Y-34090500D01*
X61212332Y-34090500D01*
X61487668Y-34090500D01*
X61487674Y-34090500D01*
X61760666Y-34054560D01*
X62026632Y-33983295D01*
X62281021Y-33877923D01*
X62519479Y-33740249D01*
X62737928Y-33572628D01*
X62932628Y-33377928D01*
X63100249Y-33159479D01*
X63237923Y-32921021D01*
X63343295Y-32666632D01*
X63414560Y-32400666D01*
X63450500Y-32127674D01*
X63450500Y-31852326D01*
X63414560Y-31579334D01*
X63405609Y-31545930D01*
X63378927Y-31446351D01*
X63343295Y-31313368D01*
X63237923Y-31058979D01*
X63100249Y-30820521D01*
X62932628Y-30602072D01*
X62865317Y-30534761D01*
X62737935Y-30407378D01*
X62737900Y-30407348D01*
X62737688Y-30407187D01*
X62519473Y-30239747D01*
X62387136Y-30163342D01*
X62368805Y-30147267D01*
X62364709Y-30141930D01*
X62352324Y-30095726D01*
X62376237Y-30054298D01*
X62377404Y-30053402D01*
X62415435Y-30040500D01*
X63144731Y-30040500D01*
X63148234Y-30040598D01*
X63151743Y-30040795D01*
X63155235Y-30041089D01*
X63250665Y-30051841D01*
X63257557Y-30053012D01*
X63264372Y-30054567D01*
X63271097Y-30056504D01*
X63356782Y-30086486D01*
X63363241Y-30089162D01*
X63369529Y-30092191D01*
X63375658Y-30095579D01*
X63413212Y-30119176D01*
X63429621Y-30129486D01*
X63452506Y-30143866D01*
X63458207Y-30147911D01*
X63463678Y-30152274D01*
X63468892Y-30156934D01*
X63533064Y-30221106D01*
X63537726Y-30226322D01*
X63542089Y-30231792D01*
X63546137Y-30237499D01*
X63594417Y-30314336D01*
X63597807Y-30320468D01*
X63600833Y-30326751D01*
X63603516Y-30333228D01*
X63633493Y-30418897D01*
X63635433Y-30425632D01*
X63636983Y-30432423D01*
X63638157Y-30439333D01*
X63648910Y-30534762D01*
X63649205Y-30538254D01*
X63649402Y-30541760D01*
X63649500Y-30545266D01*
X63649500Y-38998146D01*
X63631194Y-39042340D01*
X63587000Y-39060646D01*
X63570175Y-39058339D01*
X63543128Y-39050778D01*
X63543122Y-39050777D01*
X63543118Y-39050776D01*
X63485128Y-39043207D01*
X62302025Y-39058597D01*
X62257596Y-39040867D01*
X62238717Y-38996915D01*
X62246970Y-38968379D01*
X62245571Y-38967668D01*
X62246960Y-38964933D01*
X62246963Y-38964929D01*
X63346925Y-36146274D01*
X63357815Y-36107530D01*
X63362078Y-36083547D01*
X63365207Y-36043432D01*
X63346703Y-35127508D01*
X63330021Y-35050457D01*
X63325885Y-35040841D01*
X63311425Y-35007224D01*
X63291479Y-34976187D01*
X63291478Y-34976185D01*
X63288967Y-34972278D01*
X63288867Y-34971769D01*
X63288866Y-34971767D01*
X63282940Y-34962899D01*
X63282631Y-34962417D01*
X63273121Y-34947621D01*
X63270822Y-34944762D01*
X63244552Y-34905446D01*
X63178239Y-34861137D01*
X63178235Y-34861135D01*
X63178232Y-34861133D01*
X63178230Y-34861132D01*
X63178226Y-34861131D01*
X63178228Y-34861131D01*
X63119750Y-34849500D01*
X63119748Y-34849500D01*
X61680252Y-34849500D01*
X61680249Y-34849500D01*
X61621771Y-34861131D01*
X61621759Y-34861137D01*
X61555446Y-34905446D01*
X61511137Y-34971759D01*
X61511131Y-34971771D01*
X61499500Y-35030248D01*
X61499199Y-35033308D01*
X61498538Y-35033242D01*
X61494743Y-35052323D01*
X61490143Y-35063427D01*
X61474500Y-35142072D01*
X61474500Y-36435751D01*
X61469580Y-36460057D01*
X60541603Y-38658371D01*
X60521140Y-38684350D01*
X60502849Y-38697850D01*
X60422194Y-38807132D01*
X60422012Y-38807670D01*
X60377353Y-38935299D01*
X60377352Y-38935305D01*
X60377351Y-38935306D01*
X60374500Y-38965729D01*
X60374500Y-39021982D01*
X60365504Y-39043699D01*
X60356766Y-39065597D01*
X60356361Y-39065770D01*
X60356194Y-39066176D01*
X60312813Y-39084477D01*
X60248813Y-39085310D01*
X60204385Y-39067581D01*
X60185505Y-39023628D01*
X60185500Y-39022815D01*
X60185500Y-38985737D01*
X60184533Y-38975430D01*
X60182646Y-38955301D01*
X60137793Y-38827118D01*
X60123032Y-38807118D01*
X60105360Y-38783173D01*
X60105360Y-38783172D01*
X60084887Y-38755434D01*
X60057150Y-38717850D01*
X59997964Y-38674169D01*
X59947883Y-38637207D01*
X59853235Y-38604088D01*
X59817567Y-38572212D01*
X59812502Y-38534942D01*
X59812283Y-38534914D01*
X59812388Y-38534101D01*
X59812373Y-38533986D01*
X59812476Y-38533413D01*
X59812481Y-38533393D01*
X59817680Y-38493445D01*
X59885880Y-36311048D01*
X59905558Y-36267447D01*
X59948350Y-36250500D01*
X60519748Y-36250500D01*
X60578231Y-36238867D01*
X60644552Y-36194552D01*
X60688867Y-36128231D01*
X60700500Y-36069748D01*
X60700500Y-35030252D01*
X60688867Y-34971769D01*
X60688866Y-34971767D01*
X60688863Y-34971763D01*
X60688862Y-34971760D01*
X60644552Y-34905446D01*
X60578239Y-34861137D01*
X60578235Y-34861135D01*
X60578232Y-34861133D01*
X60578230Y-34861132D01*
X60578226Y-34861131D01*
X60578228Y-34861131D01*
X60519750Y-34849500D01*
X60519748Y-34849500D01*
X59737113Y-34849500D01*
X59718967Y-34846808D01*
X59707114Y-34843211D01*
X59707104Y-34843209D01*
X59683184Y-34838450D01*
X59683180Y-34838449D01*
X59683177Y-34838449D01*
X59683168Y-34838447D01*
X59649971Y-34835178D01*
X59643085Y-34834500D01*
X59643082Y-34834500D01*
X59109205Y-34834500D01*
X59109201Y-34834500D01*
X59061774Y-34840048D01*
X59061770Y-34840048D01*
X59061769Y-34840049D01*
X59033696Y-34846708D01*
X58988874Y-34863032D01*
X58988856Y-34863040D01*
X58983040Y-34865962D01*
X58982872Y-34866045D01*
X58970106Y-34872464D01*
X58970100Y-34872468D01*
X58936068Y-34893995D01*
X58936064Y-34893997D01*
X58916840Y-34908983D01*
X58887637Y-34936757D01*
X56273520Y-37964136D01*
X56230781Y-37985622D01*
X56226874Y-37985786D01*
X52069969Y-38029634D01*
X52042896Y-38023781D01*
X51983172Y-37995931D01*
X51983170Y-37995930D01*
X51983168Y-37995930D01*
X51934328Y-37989500D01*
X51934322Y-37989500D01*
X51934316Y-37989500D01*
X51585684Y-37989500D01*
X51585677Y-37989500D01*
X51585670Y-37989500D01*
X51536827Y-37995930D01*
X51429591Y-38045936D01*
X51429591Y-38045937D01*
X51345937Y-38129590D01*
X51311897Y-38202588D01*
X51297480Y-38222252D01*
X51291641Y-38227603D01*
X51246691Y-38243966D01*
X51205220Y-38225719D01*
X51201148Y-38221647D01*
X51188698Y-38203866D01*
X51172675Y-38169505D01*
X51154618Y-38130783D01*
X51154120Y-38129650D01*
X51070407Y-38045936D01*
X50963171Y-37995930D01*
X50914328Y-37989500D01*
X50914322Y-37989500D01*
X50914316Y-37989500D01*
X50565684Y-37989500D01*
X50565677Y-37989500D01*
X50565670Y-37989500D01*
X50516827Y-37995930D01*
X50409597Y-38045934D01*
X50409593Y-38045936D01*
X50363840Y-38091689D01*
X50343561Y-38105237D01*
X50339953Y-38106731D01*
X50330455Y-38110666D01*
X50290381Y-38113297D01*
X50289396Y-38113033D01*
X50287571Y-38112544D01*
X50283028Y-38110663D01*
X50282620Y-38110663D01*
X50282331Y-38110374D01*
X50276521Y-38107968D01*
X50276417Y-38108200D01*
X50273541Y-38106906D01*
X50273533Y-38106904D01*
X50273517Y-38106899D01*
X50152611Y-38074500D01*
X50152606Y-38074500D01*
X50152601Y-38074500D01*
X50027399Y-38074500D01*
X50027393Y-38074500D01*
X50027387Y-38074500D01*
X49906466Y-38106903D01*
X49906465Y-38106904D01*
X49798035Y-38169504D01*
X49709504Y-38258035D01*
X49646904Y-38366465D01*
X49646903Y-38366466D01*
X49614500Y-38487387D01*
X49614500Y-38612606D01*
X49641072Y-38711767D01*
X49641072Y-38711768D01*
X49646903Y-38733532D01*
X49646904Y-38733534D01*
X49646905Y-38733536D01*
X49709505Y-38841964D01*
X49798036Y-38930495D01*
X49906464Y-38993095D01*
X49963132Y-39008279D01*
X50027393Y-39025499D01*
X50027399Y-39025500D01*
X50152601Y-39025500D01*
X50152606Y-39025499D01*
X50188533Y-39015871D01*
X50273536Y-38993095D01*
X50319560Y-38966522D01*
X50342647Y-38958683D01*
X50356715Y-38956831D01*
X50396121Y-38964668D01*
X50398646Y-38966127D01*
X50402526Y-38969105D01*
X50402918Y-38969210D01*
X50403120Y-38969561D01*
X50405037Y-38971032D01*
X50405112Y-38970926D01*
X50409593Y-38974063D01*
X50409594Y-38974063D01*
X50409596Y-38974065D01*
X50516827Y-39024068D01*
X50565684Y-39030500D01*
X50565690Y-39030500D01*
X50914310Y-39030500D01*
X50914311Y-39030500D01*
X50914316Y-39030500D01*
X50914320Y-39030499D01*
X50916353Y-39030366D01*
X50916377Y-39030741D01*
X50938118Y-39032163D01*
X50944620Y-39033905D01*
X50982570Y-39063026D01*
X50988819Y-39110430D01*
X50988507Y-39111596D01*
X50965245Y-39145728D01*
X50887850Y-39202849D01*
X50807194Y-39312132D01*
X50807012Y-39312670D01*
X50762353Y-39440299D01*
X50762352Y-39440305D01*
X50762351Y-39440306D01*
X50759500Y-39470729D01*
X50759500Y-40529269D01*
X50762351Y-40559692D01*
X50762352Y-40559693D01*
X50762353Y-40559699D01*
X50804258Y-40679459D01*
X50804261Y-40679463D01*
X50807207Y-40687882D01*
X50807207Y-40687883D01*
X50847528Y-40742516D01*
X50848504Y-40743838D01*
X50848526Y-40743907D01*
X50848758Y-40744244D01*
X50848981Y-40745298D01*
X50860705Y-40781131D01*
X50859569Y-41146598D01*
X50847356Y-41183518D01*
X50767194Y-41292132D01*
X50767012Y-41292670D01*
X50722353Y-41420299D01*
X50720232Y-41442918D01*
X50719623Y-41449434D01*
X50719618Y-41449486D01*
X50719500Y-41450735D01*
X50719500Y-42509269D01*
X50722351Y-42539692D01*
X50722352Y-42539693D01*
X50722353Y-42539699D01*
X50764258Y-42659459D01*
X50764261Y-42659463D01*
X50767207Y-42667882D01*
X50767207Y-42667883D01*
X50807528Y-42722516D01*
X50840314Y-42766939D01*
X50847851Y-42777151D01*
X50856131Y-42783262D01*
X50877562Y-42812883D01*
X50877694Y-42812833D01*
X50877796Y-42812787D01*
X50877798Y-42812792D01*
X50877882Y-42812760D01*
X50878356Y-42813980D01*
X50878390Y-42814027D01*
X50878475Y-42814288D01*
X50878488Y-42814319D01*
X50881972Y-42822035D01*
X50881973Y-42822037D01*
X50928607Y-42887284D01*
X50928609Y-42887287D01*
X50928610Y-42887288D01*
X50928611Y-42887289D01*
X50963486Y-42920030D01*
X50970201Y-42925214D01*
X50994807Y-42944210D01*
X50994811Y-42944212D01*
X51003322Y-42947190D01*
X51012248Y-42955166D01*
X51031507Y-42962442D01*
X51031507Y-42962443D01*
X51040405Y-42965805D01*
X51079312Y-42976283D01*
X51103366Y-42980285D01*
X51143562Y-42982969D01*
X51325033Y-42977252D01*
X51369781Y-42994157D01*
X51389469Y-43037753D01*
X51389500Y-43039721D01*
X51389500Y-43197870D01*
X51384741Y-43221792D01*
X51379750Y-43233839D01*
X51351470Y-43265038D01*
X51347367Y-43267231D01*
X51330101Y-43273409D01*
X51304754Y-43278451D01*
X51295853Y-43280222D01*
X51292772Y-43280525D01*
X51289817Y-43281421D01*
X51221842Y-43326842D01*
X51176425Y-43394812D01*
X51176421Y-43394820D01*
X51164500Y-43454756D01*
X51164500Y-43685239D01*
X51164801Y-43688295D01*
X51163990Y-43688374D01*
X51163977Y-43706998D01*
X51162121Y-43716330D01*
X51135552Y-43756100D01*
X51131270Y-43758962D01*
X51096540Y-43769500D01*
X50999757Y-43769500D01*
X50939820Y-43781421D01*
X50939812Y-43781425D01*
X50871842Y-43826842D01*
X50826425Y-43894812D01*
X50826421Y-43894820D01*
X50814500Y-43954756D01*
X50814500Y-44185239D01*
X50814801Y-44188295D01*
X50813990Y-44188374D01*
X50813977Y-44206998D01*
X50812121Y-44216330D01*
X50785552Y-44256100D01*
X50781270Y-44258962D01*
X50746540Y-44269500D01*
X50537327Y-44269500D01*
X50513405Y-44264740D01*
X50508024Y-44262511D01*
X50504613Y-44261098D01*
X50470797Y-44227282D01*
X50468825Y-44222522D01*
X50465457Y-44188320D01*
X50465199Y-44188295D01*
X50465326Y-44186997D01*
X50465268Y-44186403D01*
X50465500Y-44185239D01*
X50465500Y-43954760D01*
X50453577Y-43894818D01*
X50426787Y-43854724D01*
X50408157Y-43826842D01*
X50408154Y-43826839D01*
X50340190Y-43781427D01*
X50340186Y-43781425D01*
X50340183Y-43781423D01*
X50340181Y-43781422D01*
X50340177Y-43781421D01*
X50340179Y-43781421D01*
X50280242Y-43769500D01*
X50280240Y-43769500D01*
X49695794Y-43769500D01*
X49671877Y-43764742D01*
X49650652Y-43755950D01*
X49630378Y-43742403D01*
X49609597Y-43721622D01*
X49609595Y-43721621D01*
X49592527Y-43711767D01*
X49501169Y-43659022D01*
X49501168Y-43659021D01*
X49501167Y-43659021D01*
X49501150Y-43659016D01*
X49380244Y-43626617D01*
X49380239Y-43626617D01*
X49380234Y-43626617D01*
X49255032Y-43626617D01*
X49255026Y-43626617D01*
X49255020Y-43626617D01*
X49134099Y-43659020D01*
X49134098Y-43659021D01*
X49025668Y-43721621D01*
X48937142Y-43810147D01*
X48937137Y-43810153D01*
X48896751Y-43880104D01*
X48880670Y-43898440D01*
X48871863Y-43905197D01*
X48828376Y-43917873D01*
X48815264Y-43916727D01*
X48812551Y-43916430D01*
X48788178Y-43913222D01*
X48759901Y-43909500D01*
X48759897Y-43909500D01*
X48340107Y-43909500D01*
X48340106Y-43909500D01*
X48340105Y-43909500D01*
X48339808Y-43909524D01*
X48339047Y-43909638D01*
X48294572Y-43915493D01*
X48291280Y-43915708D01*
X48282344Y-43919410D01*
X48280522Y-43920686D01*
X48181678Y-43966778D01*
X48096778Y-44051679D01*
X48096777Y-44051679D01*
X48046026Y-44160513D01*
X48040808Y-44200157D01*
X48016891Y-44241584D01*
X47978843Y-44254500D01*
X44822482Y-44254500D01*
X44744555Y-44269849D01*
X44700692Y-44287825D01*
X44642844Y-44323720D01*
X44642843Y-44323721D01*
X44642842Y-44323722D01*
X44589361Y-44397910D01*
X44589360Y-44397912D01*
X44589358Y-44397915D01*
X44589357Y-44397916D01*
X44570725Y-44441961D01*
X44570724Y-44441964D01*
X44554490Y-44520487D01*
X44553909Y-44597711D01*
X44548500Y-44610495D01*
X44547722Y-44624358D01*
X44539543Y-44631666D01*
X44535271Y-44641766D01*
X44512053Y-44656233D01*
X44452670Y-44677012D01*
X44452132Y-44677194D01*
X44342850Y-44757850D01*
X44262194Y-44867132D01*
X44262012Y-44867670D01*
X44217353Y-44995299D01*
X44217352Y-44995305D01*
X44217351Y-44995306D01*
X44214500Y-45025729D01*
X44214500Y-45634269D01*
X44217351Y-45664692D01*
X44217352Y-45664693D01*
X44217353Y-45664699D01*
X44259258Y-45784459D01*
X44259261Y-45784463D01*
X44262207Y-45792882D01*
X44262207Y-45792883D01*
X44302528Y-45847516D01*
X44303148Y-45848356D01*
X44322129Y-45874075D01*
X44342850Y-45902150D01*
X44452118Y-45982793D01*
X44580301Y-46027646D01*
X44610734Y-46030500D01*
X44610738Y-46030500D01*
X44661604Y-46030500D01*
X44692235Y-46038521D01*
X44729586Y-46059522D01*
X44729588Y-46059523D01*
X44729592Y-46059525D01*
X47736703Y-47042242D01*
X47768216Y-47049850D01*
X47787630Y-47052942D01*
X47801431Y-47054034D01*
X47819934Y-47055499D01*
X47819950Y-47055499D01*
X47819952Y-47055500D01*
X48751460Y-47055500D01*
X48763652Y-47056700D01*
X48782752Y-47060500D01*
X49722248Y-47060500D01*
X49741347Y-47056700D01*
X49753540Y-47055500D01*
X49852789Y-47055500D01*
X49852790Y-47055500D01*
X49852791Y-47055499D01*
X49852797Y-47055499D01*
X49931023Y-47040026D01*
X49931024Y-47040025D01*
X49931026Y-47040025D01*
X49975030Y-47021908D01*
X50033070Y-46985698D01*
X50086312Y-46911338D01*
X50104807Y-46867223D01*
X50120787Y-46788650D01*
X50125151Y-45771702D01*
X50116431Y-45711587D01*
X50105898Y-45676595D01*
X50086118Y-45631415D01*
X50023286Y-45564959D01*
X49983512Y-45538384D01*
X49983510Y-45538383D01*
X49980802Y-45536936D01*
X49981254Y-45536090D01*
X49949752Y-45504575D01*
X49945000Y-45480670D01*
X49945000Y-45012320D01*
X49963306Y-44968126D01*
X49978156Y-44957137D01*
X49984830Y-44953588D01*
X50002156Y-44944375D01*
X50041950Y-44916747D01*
X50056365Y-44896615D01*
X50060930Y-44893773D01*
X50062988Y-44888806D01*
X50080700Y-44881469D01*
X50096977Y-44871339D01*
X50107182Y-44870500D01*
X50167897Y-44870500D01*
X50191817Y-44875259D01*
X50200606Y-44878900D01*
X50209397Y-44887690D01*
X50212091Y-44888806D01*
X50213206Y-44891499D01*
X50234425Y-44912715D01*
X50236397Y-44917474D01*
X50239958Y-44953588D01*
X50239500Y-44955888D01*
X50239500Y-45534107D01*
X50239546Y-45534487D01*
X50239797Y-45535604D01*
X50251179Y-45592828D01*
X50251495Y-45594418D01*
X50251497Y-45594422D01*
X50297191Y-45662808D01*
X50365580Y-45708504D01*
X50365579Y-45708504D01*
X50369771Y-45709337D01*
X50372464Y-45709873D01*
X50387276Y-45717789D01*
X50396292Y-45722609D01*
X50411026Y-45733536D01*
X50821505Y-46144015D01*
X50835051Y-46164286D01*
X50837628Y-46170506D01*
X50837628Y-46188384D01*
X50837631Y-46218337D01*
X50837628Y-46218339D01*
X50837629Y-46218341D01*
X50803809Y-46252165D01*
X50797594Y-46254740D01*
X50773671Y-46259500D01*
X50482749Y-46259500D01*
X50424271Y-46271131D01*
X50424259Y-46271137D01*
X50357946Y-46315446D01*
X50313637Y-46381759D01*
X50313631Y-46381771D01*
X50302000Y-46440248D01*
X50302000Y-46879750D01*
X50311071Y-46925358D01*
X50313632Y-46938230D01*
X50313633Y-46938232D01*
X50345349Y-46985697D01*
X50357948Y-47004552D01*
X50362285Y-47008889D01*
X50370057Y-47018361D01*
X50375351Y-47026285D01*
X50384680Y-47073202D01*
X50384679Y-47073210D01*
X50384135Y-47075942D01*
X50361308Y-47110102D01*
X50362300Y-47111094D01*
X50357948Y-47115445D01*
X50313634Y-47181765D01*
X50313631Y-47181771D01*
X50302000Y-47240248D01*
X50302000Y-47679750D01*
X50306233Y-47701034D01*
X50313632Y-47738230D01*
X50313633Y-47738230D01*
X50313637Y-47738239D01*
X50357946Y-47804552D01*
X50424260Y-47848862D01*
X50424263Y-47848863D01*
X50424267Y-47848866D01*
X50424269Y-47848867D01*
X50482752Y-47860500D01*
X50899773Y-47860500D01*
X51475788Y-47860500D01*
X51499705Y-47865257D01*
X51520928Y-47874048D01*
X51541203Y-47887596D01*
X51582404Y-47928797D01*
X51595951Y-47949071D01*
X51604743Y-47970296D01*
X51609501Y-47994213D01*
X51609501Y-48410296D01*
X51604743Y-48434214D01*
X51604743Y-48434215D01*
X51597623Y-48451403D01*
X51574605Y-48479450D01*
X51555060Y-48492510D01*
X51532527Y-48501843D01*
X51516598Y-48505011D01*
X51469684Y-48495679D01*
X51418461Y-48461453D01*
X51418432Y-48461434D01*
X51418429Y-48461431D01*
X51359951Y-48449801D01*
X51359949Y-48449801D01*
X50660053Y-48449801D01*
X50660050Y-48449801D01*
X50601572Y-48461432D01*
X50601560Y-48461438D01*
X50535247Y-48505747D01*
X50490938Y-48572060D01*
X50490932Y-48572072D01*
X50479301Y-48630549D01*
X50479301Y-48630552D01*
X50479301Y-50219449D01*
X50490933Y-50277931D01*
X50490934Y-50277931D01*
X50490938Y-50277940D01*
X50535247Y-50344253D01*
X50601561Y-50388563D01*
X50601564Y-50388564D01*
X50601568Y-50388567D01*
X50601570Y-50388568D01*
X50660053Y-50400201D01*
X51359949Y-50400201D01*
X51418432Y-50388568D01*
X51418432Y-50388567D01*
X51418434Y-50388567D01*
X51433515Y-50378489D01*
X51464941Y-50357490D01*
X51487467Y-50348159D01*
X51503402Y-50344990D01*
X51550317Y-50354321D01*
X51601567Y-50388566D01*
X51601570Y-50388568D01*
X51660053Y-50400201D01*
X52344021Y-50400201D01*
X52367931Y-50404956D01*
X52374153Y-50407533D01*
X52407977Y-50441355D01*
X52407980Y-50489190D01*
X52407978Y-50489193D01*
X52405404Y-50495407D01*
X52391856Y-50515683D01*
X52359507Y-50548031D01*
X52359503Y-50548036D01*
X52296904Y-50656465D01*
X52296903Y-50656466D01*
X52264500Y-50777387D01*
X52264500Y-50902607D01*
X52294225Y-51013535D01*
X52294225Y-51013536D01*
X52296903Y-51023532D01*
X52296903Y-51023533D01*
X52353731Y-51121963D01*
X52359505Y-51131964D01*
X52448036Y-51220495D01*
X52556464Y-51283095D01*
X52613132Y-51298279D01*
X52677393Y-51315499D01*
X52677399Y-51315500D01*
X52802600Y-51315500D01*
X52802601Y-51315500D01*
X52802606Y-51315499D01*
X52839925Y-51305499D01*
X52923536Y-51283095D01*
X53031964Y-51220495D01*
X53120495Y-51131964D01*
X53183095Y-51023536D01*
X53212819Y-50912606D01*
X53215499Y-50902606D01*
X53215500Y-50902600D01*
X53215500Y-50777399D01*
X53215499Y-50777393D01*
X53185775Y-50666466D01*
X53185774Y-50666464D01*
X53183096Y-50656467D01*
X53183095Y-50656466D01*
X53183095Y-50656464D01*
X53120495Y-50548036D01*
X53088144Y-50515685D01*
X53074598Y-50495415D01*
X53072020Y-50489191D01*
X53072020Y-50441359D01*
X53105840Y-50407535D01*
X53112070Y-50404955D01*
X53135979Y-50400201D01*
X53359950Y-50400201D01*
X53418433Y-50388568D01*
X53418433Y-50388567D01*
X53418435Y-50388567D01*
X53433516Y-50378489D01*
X53464942Y-50357491D01*
X53480281Y-50352300D01*
X53487469Y-50348159D01*
X53496676Y-50346328D01*
X53499318Y-50346853D01*
X53503981Y-50346557D01*
X53512559Y-50349487D01*
X53543592Y-50355660D01*
X53547425Y-50361397D01*
X53549249Y-50362020D01*
X53553141Y-50369952D01*
X53570168Y-50395434D01*
X53570168Y-50404647D01*
X53570323Y-50404963D01*
X53570168Y-50405416D01*
X53570168Y-50419819D01*
X53570060Y-50420362D01*
X53557083Y-50443721D01*
X53554860Y-50450231D01*
X53552945Y-50451170D01*
X53551500Y-50453773D01*
X53550688Y-50454534D01*
X53539200Y-50463057D01*
X53525607Y-50470905D01*
X53522218Y-50475322D01*
X53439507Y-50558031D01*
X53439503Y-50558036D01*
X53376904Y-50666465D01*
X53376903Y-50666466D01*
X53344500Y-50787387D01*
X53344500Y-50912607D01*
X53374225Y-51023535D01*
X53374225Y-51023536D01*
X53376903Y-51033532D01*
X53376903Y-51033533D01*
X53399397Y-51072494D01*
X53439505Y-51141964D01*
X53528036Y-51230495D01*
X53636464Y-51293095D01*
X53693132Y-51308279D01*
X53757393Y-51325499D01*
X53757399Y-51325500D01*
X53882600Y-51325500D01*
X53882601Y-51325500D01*
X53882606Y-51325499D01*
X53919925Y-51315499D01*
X54003536Y-51293095D01*
X54111964Y-51230495D01*
X54200495Y-51141964D01*
X54263095Y-51033536D01*
X54285871Y-50948533D01*
X54293713Y-50919271D01*
X54295499Y-50912607D01*
X54295499Y-50912606D01*
X54295500Y-50912600D01*
X54295500Y-50787399D01*
X54295499Y-50787393D01*
X54278279Y-50723132D01*
X54263095Y-50666464D01*
X54200495Y-50558036D01*
X54158144Y-50515685D01*
X54144598Y-50495415D01*
X54142020Y-50489191D01*
X54142020Y-50441359D01*
X54175840Y-50407535D01*
X54182070Y-50404955D01*
X54205979Y-50400201D01*
X54359951Y-50400201D01*
X54418434Y-50388568D01*
X54418434Y-50388567D01*
X54418436Y-50388567D01*
X54440757Y-50373651D01*
X54464944Y-50357490D01*
X54481834Y-50349555D01*
X54484611Y-50348728D01*
X54487286Y-50348196D01*
X54487981Y-50347724D01*
X54492667Y-50346330D01*
X54495858Y-50346660D01*
X54510400Y-50343732D01*
X54515402Y-50343724D01*
X54550224Y-50354257D01*
X54599197Y-50386981D01*
X54616219Y-50403897D01*
X54618680Y-50407531D01*
X54620640Y-50410424D01*
X54619407Y-50411258D01*
X54631772Y-50447434D01*
X54631993Y-50447434D01*
X54631993Y-50448079D01*
X54632067Y-50448296D01*
X54632002Y-50450358D01*
X54631993Y-50450405D01*
X54631993Y-50450643D01*
X54631962Y-50451628D01*
X54631763Y-50452067D01*
X54631819Y-50452229D01*
X54631714Y-50453336D01*
X54631212Y-50453288D01*
X54622497Y-50472584D01*
X54613688Y-50493853D01*
X54569501Y-50538040D01*
X54506904Y-50646465D01*
X54506903Y-50646466D01*
X54474500Y-50767387D01*
X54474500Y-50892611D01*
X54506899Y-51013517D01*
X54506904Y-51013533D01*
X54506905Y-51013536D01*
X54569505Y-51121964D01*
X54658036Y-51210495D01*
X54766464Y-51273095D01*
X54823132Y-51288279D01*
X54887393Y-51305499D01*
X54887399Y-51305500D01*
X55012600Y-51305500D01*
X55012601Y-51305500D01*
X55012606Y-51305499D01*
X55058900Y-51293094D01*
X55133536Y-51273095D01*
X55241964Y-51210495D01*
X55330495Y-51121964D01*
X55338957Y-51107306D01*
X55355030Y-51088977D01*
X55360371Y-51084878D01*
X55406573Y-51072494D01*
X55447980Y-51096379D01*
X55448860Y-51097526D01*
X55461800Y-51135604D01*
X55461800Y-52922248D01*
X55473432Y-52980730D01*
X55473433Y-52980730D01*
X55473437Y-52980739D01*
X55517746Y-53047052D01*
X55584060Y-53091362D01*
X55584063Y-53091363D01*
X55584067Y-53091366D01*
X55584069Y-53091367D01*
X55642552Y-53103000D01*
X56977448Y-53103000D01*
X57035931Y-53091367D01*
X57102252Y-53047052D01*
X57146567Y-52980731D01*
X57158200Y-52922248D01*
X57158200Y-50977752D01*
X57146567Y-50919269D01*
X57142110Y-50912599D01*
X57135430Y-50902601D01*
X57135429Y-50902600D01*
X57102252Y-50852947D01*
X57102249Y-50852944D01*
X57035939Y-50808637D01*
X57035933Y-50808634D01*
X57035932Y-50808633D01*
X57035930Y-50808632D01*
X57035926Y-50808631D01*
X57035928Y-50808631D01*
X56977450Y-50797000D01*
X56977448Y-50797000D01*
X55642552Y-50797000D01*
X55642549Y-50797000D01*
X55584071Y-50808631D01*
X55584065Y-50808634D01*
X55533059Y-50842716D01*
X55510526Y-50852049D01*
X55501454Y-50853853D01*
X55454538Y-50844518D01*
X55429453Y-50810687D01*
X55428189Y-50806518D01*
X55425500Y-50788384D01*
X55425500Y-50767400D01*
X55425500Y-50767399D01*
X55425499Y-50767393D01*
X55408279Y-50703132D01*
X55398454Y-50666466D01*
X55393096Y-50646467D01*
X55393095Y-50646466D01*
X55393095Y-50646464D01*
X55330495Y-50538036D01*
X55308144Y-50515685D01*
X55294598Y-50495415D01*
X55292020Y-50489191D01*
X55292020Y-50441359D01*
X55325840Y-50407535D01*
X55332070Y-50404955D01*
X55355979Y-50400201D01*
X55359951Y-50400201D01*
X55418434Y-50388568D01*
X55484755Y-50344253D01*
X55529070Y-50277932D01*
X55540703Y-50219449D01*
X55540703Y-48630553D01*
X55529070Y-48572070D01*
X55529069Y-48572068D01*
X55529066Y-48572064D01*
X55529065Y-48572061D01*
X55484757Y-48505750D01*
X55484754Y-48505747D01*
X55418434Y-48461434D01*
X55373002Y-48452396D01*
X55350473Y-48443063D01*
X55339629Y-48435817D01*
X55314542Y-48401988D01*
X55313988Y-48400162D01*
X55313192Y-48397536D01*
X55310503Y-48379399D01*
X55310503Y-47958296D01*
X55315259Y-47934382D01*
X55323884Y-47913558D01*
X55337428Y-47893289D01*
X55421256Y-47809462D01*
X55483856Y-47701034D01*
X55506632Y-47616031D01*
X55516260Y-47580104D01*
X55516261Y-47580098D01*
X55516261Y-47454897D01*
X55516260Y-47454891D01*
X55487206Y-47346464D01*
X55483856Y-47333962D01*
X55421256Y-47225534D01*
X55332725Y-47137003D01*
X55224297Y-47074403D01*
X55224296Y-47074402D01*
X55224295Y-47074402D01*
X55224278Y-47074397D01*
X55103372Y-47041998D01*
X55103367Y-47041998D01*
X55103362Y-47041998D01*
X54978160Y-47041998D01*
X54978154Y-47041998D01*
X54978148Y-47041998D01*
X54857227Y-47074401D01*
X54857226Y-47074402D01*
X54748801Y-47136999D01*
X54718744Y-47167056D01*
X54698463Y-47180605D01*
X54689671Y-47184246D01*
X54641840Y-47184244D01*
X54641837Y-47184243D01*
X54641836Y-47184243D01*
X54641834Y-47184241D01*
X54633050Y-47180603D01*
X54612774Y-47167055D01*
X54582721Y-47137002D01*
X54546232Y-47115936D01*
X54495948Y-47086905D01*
X54474294Y-47074403D01*
X54474293Y-47074402D01*
X54474292Y-47074402D01*
X54474275Y-47074397D01*
X54353369Y-47041998D01*
X54353364Y-47041998D01*
X54353359Y-47041998D01*
X54228157Y-47041998D01*
X54228151Y-47041998D01*
X54228145Y-47041998D01*
X54107224Y-47074401D01*
X54107223Y-47074402D01*
X53998793Y-47137002D01*
X53910262Y-47225533D01*
X53847662Y-47333963D01*
X53847661Y-47333964D01*
X53817085Y-47448071D01*
X53814458Y-47455812D01*
X53813237Y-47458759D01*
X53809658Y-47467400D01*
X53801709Y-47486591D01*
X53788160Y-47506867D01*
X53769549Y-47525477D01*
X53769547Y-47525479D01*
X53769546Y-47525481D01*
X53769544Y-47525484D01*
X53729981Y-47594007D01*
X53728683Y-47598853D01*
X53728682Y-47598857D01*
X53709503Y-47670428D01*
X53709503Y-48376240D01*
X53704744Y-48400162D01*
X53699753Y-48412209D01*
X53671473Y-48443408D01*
X53667370Y-48445601D01*
X53650104Y-48451779D01*
X53618828Y-48458001D01*
X53607607Y-48460233D01*
X53604527Y-48460536D01*
X53601571Y-48461433D01*
X53555063Y-48492509D01*
X53538120Y-48500460D01*
X53535347Y-48501282D01*
X53532530Y-48501843D01*
X53531787Y-48502339D01*
X53527060Y-48503742D01*
X53523914Y-48503412D01*
X53509280Y-48506324D01*
X53504574Y-48506324D01*
X53479746Y-48498792D01*
X53479484Y-48498765D01*
X53479427Y-48498695D01*
X53469851Y-48495790D01*
X53448613Y-48481599D01*
X53431372Y-48464356D01*
X53421034Y-48448883D01*
X53410502Y-48414162D01*
X53410502Y-47931522D01*
X53410502Y-47931521D01*
X53410501Y-47931515D01*
X53397463Y-47882858D01*
X53397462Y-47882854D01*
X53394148Y-47870483D01*
X53394148Y-47870482D01*
X53383209Y-47829659D01*
X53378764Y-47821959D01*
X53378764Y-47821958D01*
X53330487Y-47738341D01*
X53330485Y-47738339D01*
X53330484Y-47738337D01*
X53330477Y-47738328D01*
X53188941Y-47596793D01*
X53183561Y-47590660D01*
X53178606Y-47584202D01*
X53174072Y-47577415D01*
X53121799Y-47486877D01*
X52990904Y-47355983D01*
X52977358Y-47335713D01*
X52974780Y-47329489D01*
X52974780Y-47281657D01*
X53008600Y-47247833D01*
X53014830Y-47245253D01*
X53038739Y-47240499D01*
X53209892Y-47240499D01*
X53209900Y-47240499D01*
X53259487Y-47233972D01*
X53368316Y-47183224D01*
X53453224Y-47098316D01*
X53503972Y-46989487D01*
X53510500Y-46939901D01*
X53510499Y-46520100D01*
X53503972Y-46470513D01*
X53453796Y-46362912D01*
X53453766Y-46362225D01*
X53368319Y-46276777D01*
X53259485Y-46226026D01*
X53209913Y-46219500D01*
X53209907Y-46219500D01*
X53209901Y-46219500D01*
X52931172Y-46219500D01*
X52907255Y-46214742D01*
X52886030Y-46205950D01*
X52865756Y-46192403D01*
X52832837Y-46159484D01*
X52819291Y-46139214D01*
X52816713Y-46132990D01*
X52816713Y-46085158D01*
X52850533Y-46051334D01*
X52856763Y-46048754D01*
X52880672Y-46044000D01*
X53292329Y-46044000D01*
X53316246Y-46048757D01*
X53337469Y-46057548D01*
X53357744Y-46071096D01*
X53563956Y-46277308D01*
X53563957Y-46277308D01*
X53563959Y-46277310D01*
X53660984Y-46317499D01*
X53660987Y-46317500D01*
X56265829Y-46317500D01*
X56289746Y-46322257D01*
X56310969Y-46331048D01*
X56331244Y-46344596D01*
X56332403Y-46345755D01*
X56345950Y-46366029D01*
X56354742Y-46387254D01*
X56359500Y-46411171D01*
X56359500Y-46674328D01*
X56365930Y-46723171D01*
X56386986Y-46768324D01*
X56392782Y-46792011D01*
X56393459Y-46807510D01*
X56383553Y-46844095D01*
X56380001Y-46849605D01*
X56380000Y-46849608D01*
X56380000Y-46849609D01*
X56380000Y-46850000D01*
X56380000Y-48320000D01*
X57320000Y-48320000D01*
X57320000Y-47957789D01*
X57324754Y-47933880D01*
X57327331Y-47927658D01*
X57361150Y-47893833D01*
X57408983Y-47893828D01*
X57415214Y-47896408D01*
X57435484Y-47909954D01*
X57469650Y-47944120D01*
X57470783Y-47944618D01*
X57576827Y-47994068D01*
X57625684Y-48000500D01*
X57625690Y-48000500D01*
X58074310Y-48000500D01*
X58074316Y-48000500D01*
X58123173Y-47994068D01*
X58230404Y-47944065D01*
X58278022Y-47896445D01*
X58298298Y-47882899D01*
X58307089Y-47879258D01*
X58354918Y-47879257D01*
X58363712Y-47882899D01*
X58383988Y-47896447D01*
X58398036Y-47910495D01*
X58506464Y-47973095D01*
X58563132Y-47988279D01*
X58627393Y-48005499D01*
X58627399Y-48005500D01*
X58752600Y-48005500D01*
X58752601Y-48005500D01*
X58752606Y-48005499D01*
X58802725Y-47992069D01*
X58873536Y-47973095D01*
X58981964Y-47910495D01*
X59070495Y-47821964D01*
X59133095Y-47713536D01*
X59155871Y-47628533D01*
X59165499Y-47592606D01*
X59165500Y-47592600D01*
X59165500Y-47467399D01*
X59165499Y-47467393D01*
X59148279Y-47403132D01*
X59133095Y-47346464D01*
X59070495Y-47238036D01*
X58981964Y-47149505D01*
X58873536Y-47086905D01*
X58873535Y-47086904D01*
X58873534Y-47086904D01*
X58873517Y-47086899D01*
X58752611Y-47054500D01*
X58752606Y-47054500D01*
X58752601Y-47054500D01*
X58627399Y-47054500D01*
X58627393Y-47054500D01*
X58627387Y-47054500D01*
X58506466Y-47086903D01*
X58506465Y-47086904D01*
X58398035Y-47149504D01*
X58383988Y-47163551D01*
X58363712Y-47177098D01*
X58363711Y-47177099D01*
X58354920Y-47180740D01*
X58307084Y-47180739D01*
X58307083Y-47180738D01*
X58307082Y-47180737D01*
X58298296Y-47177098D01*
X58278022Y-47163552D01*
X58230406Y-47115936D01*
X58230404Y-47115935D01*
X58157407Y-47081895D01*
X58137738Y-47067471D01*
X58132388Y-47061631D01*
X58116033Y-47016679D01*
X58134277Y-46975221D01*
X58138355Y-46971144D01*
X58156122Y-46958702D01*
X58230404Y-46924065D01*
X58314065Y-46840404D01*
X58364068Y-46733173D01*
X58370500Y-46684316D01*
X58370500Y-46335684D01*
X58364068Y-46286827D01*
X58314618Y-46180782D01*
X58314119Y-46179649D01*
X58230407Y-46095936D01*
X58123171Y-46045930D01*
X58074328Y-46039500D01*
X58074322Y-46039500D01*
X58074316Y-46039500D01*
X57625684Y-46039500D01*
X57625677Y-46039500D01*
X57625670Y-46039500D01*
X57576827Y-46045930D01*
X57469597Y-46095934D01*
X57469593Y-46095936D01*
X57422982Y-46142547D01*
X57402705Y-46156095D01*
X57393917Y-46159735D01*
X57346084Y-46159735D01*
X57337293Y-46156094D01*
X57317017Y-46142547D01*
X57260406Y-46085936D01*
X57260405Y-46085935D01*
X57153171Y-46035930D01*
X57104328Y-46029500D01*
X57104322Y-46029500D01*
X57104316Y-46029500D01*
X56801171Y-46029500D01*
X56777254Y-46024742D01*
X56756029Y-46015950D01*
X56735755Y-46002403D01*
X56716144Y-45982792D01*
X56692967Y-45959614D01*
X56679422Y-45939343D01*
X56674429Y-45927289D01*
X56672365Y-45885237D01*
X56673717Y-45880779D01*
X56676891Y-45874075D01*
X56676511Y-45873918D01*
X56678867Y-45868231D01*
X56682987Y-45847516D01*
X56690500Y-45809748D01*
X56690500Y-43770252D01*
X56678867Y-43711769D01*
X56661140Y-43685239D01*
X56634552Y-43645447D01*
X56634549Y-43645444D01*
X56568239Y-43601137D01*
X56568235Y-43601135D01*
X56568232Y-43601133D01*
X56568230Y-43601132D01*
X56568226Y-43601131D01*
X56568228Y-43601131D01*
X56509750Y-43589500D01*
X56509748Y-43589500D01*
X53970252Y-43589500D01*
X53970249Y-43589500D01*
X53911771Y-43601131D01*
X53911758Y-43601138D01*
X53845448Y-43645445D01*
X53845443Y-43645451D01*
X53820259Y-43683140D01*
X53780485Y-43709715D01*
X53767792Y-43710914D01*
X52277499Y-43698963D01*
X52233453Y-43680303D01*
X52215500Y-43636465D01*
X52215500Y-43454760D01*
X52203577Y-43394818D01*
X52189570Y-43373855D01*
X52158157Y-43326842D01*
X52090182Y-43281423D01*
X52085668Y-43280525D01*
X52052999Y-43274026D01*
X52030470Y-43264693D01*
X52019626Y-43257447D01*
X51994540Y-43223621D01*
X51993190Y-43219170D01*
X51990500Y-43201030D01*
X51990500Y-43016855D01*
X52008806Y-42972661D01*
X52051031Y-42954386D01*
X52263193Y-42947705D01*
X52302103Y-42942734D01*
X52325269Y-42937489D01*
X52362529Y-42925214D01*
X52370796Y-42921583D01*
X52435764Y-42876408D01*
X52468625Y-42842483D01*
X52511705Y-42776113D01*
X52515393Y-42766933D01*
X52526676Y-42728250D01*
X52531177Y-42704279D01*
X52534695Y-42664145D01*
X52531933Y-42407329D01*
X52521320Y-41420298D01*
X52506375Y-40030502D01*
X52516867Y-39995164D01*
X52750886Y-39644137D01*
X52790631Y-39617521D01*
X52803231Y-39616308D01*
X53727353Y-39621519D01*
X53771443Y-39640074D01*
X53789500Y-39684018D01*
X53789500Y-40809750D01*
X53800709Y-40866107D01*
X53801132Y-40868230D01*
X53801133Y-40868230D01*
X53801137Y-40868239D01*
X53845446Y-40934552D01*
X53911760Y-40978862D01*
X53911763Y-40978863D01*
X53911767Y-40978866D01*
X53911769Y-40978867D01*
X53970252Y-40990500D01*
X56509748Y-40990500D01*
X56568231Y-40978867D01*
X56634552Y-40934552D01*
X56678867Y-40868231D01*
X56690500Y-40809748D01*
X56690500Y-39701084D01*
X56708806Y-39656890D01*
X56753000Y-39638584D01*
X56753188Y-39638584D01*
X57937762Y-39645265D01*
X57963246Y-39641853D01*
X57994078Y-39637726D01*
X57994086Y-39637724D01*
X57994095Y-39637723D01*
X58027078Y-39628530D01*
X58079193Y-39605844D01*
X58095534Y-39595841D01*
X58127668Y-39571540D01*
X58145583Y-39554995D01*
X58172355Y-39524896D01*
X58221454Y-39457383D01*
X58262252Y-39432410D01*
X58308761Y-39443599D01*
X58333735Y-39484397D01*
X58334500Y-39494145D01*
X58334500Y-39594269D01*
X58337351Y-39624692D01*
X58337352Y-39624693D01*
X58337353Y-39624699D01*
X58379530Y-39745235D01*
X58379532Y-39745238D01*
X58382207Y-39752882D01*
X58382207Y-39752883D01*
X58401250Y-39778684D01*
X58402271Y-39780257D01*
X58403628Y-39787581D01*
X58412348Y-39813577D01*
X58418722Y-40369277D01*
X58418723Y-40369291D01*
X58423658Y-40411762D01*
X58423660Y-40411770D01*
X58434856Y-40461847D01*
X58437089Y-40470870D01*
X58437092Y-40470879D01*
X58480094Y-40551576D01*
X58480098Y-40551582D01*
X58480100Y-40551585D01*
X58525855Y-40604389D01*
X58525857Y-40604391D01*
X58543445Y-40622343D01*
X58543447Y-40622344D01*
X58623259Y-40666988D01*
X58623263Y-40666990D01*
X58690302Y-40686675D01*
X58748200Y-40695000D01*
X59766008Y-40695000D01*
X59786651Y-40698507D01*
X59802645Y-40704103D01*
X59841885Y-40717834D01*
X59858353Y-40726538D01*
X59918242Y-40770737D01*
X59923596Y-40775170D01*
X59953533Y-40802913D01*
X59957260Y-40806283D01*
X60037585Y-40850011D01*
X60104845Y-40868925D01*
X60104847Y-40868925D01*
X60104850Y-40868926D01*
X60114337Y-40870178D01*
X60162832Y-40876584D01*
X60391904Y-40873956D01*
X60421122Y-40871530D01*
X60455997Y-40866107D01*
X60465132Y-40862577D01*
X60465263Y-40863265D01*
X60470531Y-40862266D01*
X60473185Y-40861744D01*
X60507586Y-40846175D01*
X60537574Y-40834590D01*
X60540127Y-40832906D01*
X60540126Y-40832905D01*
X60543023Y-40830995D01*
X60543049Y-40830978D01*
X60547171Y-40828261D01*
X60556506Y-40824037D01*
X60575713Y-40809454D01*
X60595839Y-40796192D01*
X60595861Y-40796175D01*
X60595865Y-40796173D01*
X60615902Y-40781131D01*
X60615965Y-40781084D01*
X60623091Y-40771535D01*
X60628687Y-40765025D01*
X60633193Y-40760458D01*
X60642106Y-40751424D01*
X60649466Y-40745047D01*
X60701650Y-40706534D01*
X60718115Y-40697832D01*
X60746553Y-40687882D01*
X60773346Y-40678507D01*
X60793988Y-40675000D01*
X61806008Y-40675000D01*
X61826650Y-40678507D01*
X61881881Y-40697833D01*
X61898352Y-40706538D01*
X61942619Y-40739208D01*
X61955794Y-40752383D01*
X61986165Y-40793536D01*
X61988461Y-40796646D01*
X61997164Y-40813114D01*
X62014714Y-40863265D01*
X62016492Y-40868344D01*
X62020000Y-40888988D01*
X62020000Y-41386434D01*
X62022160Y-41416147D01*
X62022164Y-41416178D01*
X62027354Y-41451669D01*
X62033191Y-41478041D01*
X62033796Y-41480772D01*
X62296702Y-42360497D01*
X62301172Y-42373783D01*
X62304041Y-42381438D01*
X62305523Y-42385390D01*
X62309500Y-42407329D01*
X62309500Y-43074568D01*
X62304740Y-43098492D01*
X62301098Y-43107282D01*
X62267284Y-43141097D01*
X62261257Y-43143594D01*
X62258492Y-43144739D01*
X62234569Y-43149500D01*
X62195670Y-43149500D01*
X62146827Y-43155930D01*
X62039591Y-43205936D01*
X62039591Y-43205937D01*
X61955937Y-43289590D01*
X61921897Y-43362588D01*
X61907480Y-43382252D01*
X61901641Y-43387603D01*
X61856691Y-43403966D01*
X61815220Y-43385719D01*
X61811148Y-43381647D01*
X61798697Y-43363866D01*
X61797874Y-43362101D01*
X61764620Y-43290788D01*
X61764120Y-43289650D01*
X61680407Y-43205936D01*
X61587852Y-43162776D01*
X61572714Y-43152819D01*
X61570337Y-43150704D01*
X61569075Y-43149326D01*
X61568540Y-43149104D01*
X61565012Y-43145964D01*
X61563596Y-43143040D01*
X61557218Y-43136377D01*
X61557213Y-43136382D01*
X61557001Y-43136151D01*
X61553856Y-43132865D01*
X61550615Y-43127779D01*
X61553075Y-43126210D01*
X61540500Y-43093838D01*
X61540500Y-43020278D01*
X61545256Y-42996364D01*
X61554050Y-42975133D01*
X61567591Y-42954867D01*
X61610495Y-42911964D01*
X61673095Y-42803536D01*
X61699691Y-42704279D01*
X61705499Y-42682606D01*
X61705500Y-42682600D01*
X61705500Y-42557400D01*
X61705500Y-42557399D01*
X61705499Y-42557393D01*
X61688279Y-42493132D01*
X61673095Y-42436464D01*
X61610495Y-42328036D01*
X61521964Y-42239505D01*
X61413536Y-42176905D01*
X61413535Y-42176904D01*
X61413534Y-42176904D01*
X61413517Y-42176899D01*
X61292611Y-42144500D01*
X61292606Y-42144500D01*
X61292601Y-42144500D01*
X61167399Y-42144500D01*
X61167393Y-42144500D01*
X61167387Y-42144500D01*
X61046466Y-42176903D01*
X61046465Y-42176904D01*
X60938035Y-42239504D01*
X60849504Y-42328035D01*
X60786904Y-42436465D01*
X60786903Y-42436466D01*
X60754500Y-42557387D01*
X60754500Y-42682611D01*
X60785943Y-42799948D01*
X60785944Y-42799951D01*
X60786905Y-42803536D01*
X60797588Y-42822040D01*
X60818230Y-42857793D01*
X60849505Y-42911964D01*
X60912403Y-42974862D01*
X60925950Y-42995136D01*
X60934742Y-43016361D01*
X60939500Y-43040278D01*
X60939500Y-43261251D01*
X60938018Y-43274777D01*
X60936744Y-43280525D01*
X60935125Y-43287828D01*
X60930751Y-43300711D01*
X60885930Y-43396827D01*
X60879500Y-43445670D01*
X60879500Y-43894328D01*
X60885930Y-43943171D01*
X60935936Y-44050407D01*
X61019649Y-44134119D01*
X61020782Y-44134618D01*
X61126827Y-44184068D01*
X61175684Y-44190500D01*
X61175690Y-44190500D01*
X61524310Y-44190500D01*
X61524316Y-44190500D01*
X61573173Y-44184068D01*
X61680404Y-44134065D01*
X61764065Y-44050404D01*
X61798103Y-43977406D01*
X61812523Y-43957742D01*
X61816303Y-43954280D01*
X61818367Y-43952389D01*
X61863319Y-43936034D01*
X61904780Y-43954280D01*
X61908850Y-43958350D01*
X61921300Y-43976130D01*
X61955937Y-44050408D01*
X62039649Y-44134119D01*
X62040782Y-44134618D01*
X62146827Y-44184068D01*
X62195684Y-44190500D01*
X62195690Y-44190500D01*
X62544310Y-44190500D01*
X62544316Y-44190500D01*
X62593173Y-44184068D01*
X62700404Y-44134065D01*
X62784065Y-44050404D01*
X62834068Y-43943173D01*
X62840500Y-43894316D01*
X62840500Y-43656736D01*
X62842629Y-43640562D01*
X62843727Y-43636465D01*
X62846744Y-43625203D01*
X62852983Y-43610139D01*
X62864900Y-43589500D01*
X62890021Y-43545989D01*
X62910500Y-43469562D01*
X62910500Y-42418975D01*
X62913990Y-42398383D01*
X62915788Y-42393228D01*
X62916991Y-42391079D01*
X62919389Y-42382910D01*
X62919903Y-42381438D01*
X62920175Y-42381132D01*
X62922101Y-42375979D01*
X62924999Y-42369663D01*
X62934069Y-42346192D01*
X62935101Y-42333786D01*
X62936320Y-42325666D01*
X62936670Y-42324058D01*
X62945000Y-42266146D01*
X62945000Y-42053922D01*
X62950854Y-42027512D01*
X62963053Y-42001351D01*
X62975497Y-41983580D01*
X62993579Y-41965498D01*
X63011353Y-41953052D01*
X63037512Y-41940855D01*
X63063924Y-41935000D01*
X63442340Y-41935000D01*
X63450499Y-41935535D01*
X63475351Y-41938807D01*
X63475355Y-41938807D01*
X63475361Y-41938808D01*
X63475366Y-41938807D01*
X63475367Y-41938808D01*
X63479380Y-41938758D01*
X63534045Y-41938081D01*
X63577311Y-41931290D01*
X63623807Y-41942522D01*
X63648744Y-41983343D01*
X63649500Y-41993034D01*
X63649500Y-56034731D01*
X63649402Y-56038236D01*
X63649205Y-56041743D01*
X63648910Y-56045236D01*
X63638157Y-56140665D01*
X63636983Y-56147575D01*
X63635433Y-56154366D01*
X63633493Y-56161101D01*
X63603516Y-56246770D01*
X63600833Y-56253247D01*
X63597807Y-56259530D01*
X63594417Y-56265662D01*
X63546137Y-56342499D01*
X63542082Y-56348215D01*
X63537735Y-56353666D01*
X63533064Y-56358892D01*
X63468892Y-56423064D01*
X63463667Y-56427733D01*
X63458215Y-56432082D01*
X63452499Y-56436137D01*
X63375662Y-56484417D01*
X63369530Y-56487807D01*
X63363247Y-56490833D01*
X63356770Y-56493516D01*
X63271101Y-56523493D01*
X63264364Y-56525433D01*
X63257572Y-56526983D01*
X63250664Y-56528157D01*
X63164563Y-56537858D01*
X63164562Y-56537858D01*
X63155224Y-56538910D01*
X63151743Y-56539204D01*
X63148247Y-56539401D01*
X63144731Y-56539500D01*
X62217579Y-56539500D01*
X62193663Y-56534742D01*
X62187441Y-56532165D01*
X62153620Y-56498341D01*
X62153620Y-56450509D01*
X62153623Y-56450502D01*
X62158802Y-56445324D01*
X62187442Y-56416684D01*
X62281021Y-56377923D01*
X62519479Y-56240249D01*
X62737928Y-56072628D01*
X62932628Y-55877928D01*
X63100249Y-55659479D01*
X63237923Y-55421021D01*
X63343295Y-55166632D01*
X63414560Y-54900666D01*
X63450500Y-54627674D01*
X63450500Y-54352326D01*
X63414560Y-54079334D01*
X63343295Y-53813368D01*
X63237923Y-53558979D01*
X63100249Y-53320521D01*
X62932628Y-53102072D01*
X62877608Y-53047052D01*
X62737936Y-52907379D01*
X62737900Y-52907348D01*
X62737688Y-52907187D01*
X62519473Y-52739747D01*
X62282750Y-52603075D01*
X62282387Y-52602864D01*
X62280946Y-52602019D01*
X62280090Y-52601645D01*
X62278980Y-52601231D01*
X62264139Y-52595083D01*
X62150080Y-52547839D01*
X62070934Y-52515055D01*
X62062081Y-52506202D01*
X62028348Y-52497164D01*
X62027729Y-52496979D01*
X62027161Y-52496837D01*
X62026152Y-52496575D01*
X61760672Y-52425440D01*
X61487682Y-52389500D01*
X61487678Y-52389500D01*
X61487674Y-52389500D01*
X61212326Y-52389500D01*
X61212321Y-52389500D01*
X61212316Y-52389500D01*
X60943394Y-52424905D01*
X60943387Y-52424905D01*
X60939330Y-52425440D01*
X60939329Y-52425440D01*
X60939328Y-52425440D01*
X60939322Y-52425441D01*
X60673389Y-52496697D01*
X60673378Y-52496701D01*
X60673373Y-52496702D01*
X60673373Y-52496703D01*
X60672707Y-52496979D01*
X60418982Y-52602074D01*
X60180525Y-52739747D01*
X59962077Y-52907366D01*
X59962075Y-52907368D01*
X59962059Y-52907383D01*
X59767383Y-53102059D01*
X59767368Y-53102075D01*
X59767366Y-53102077D01*
X59599747Y-53320525D01*
X59462074Y-53558982D01*
X59356701Y-53813378D01*
X59356697Y-53813389D01*
X59285441Y-54079322D01*
X59284906Y-54083388D01*
X59284905Y-54083391D01*
X59249500Y-54352316D01*
X59249500Y-54627682D01*
X59284905Y-54896605D01*
X59284905Y-54896611D01*
X59284906Y-54896611D01*
X59285441Y-54900676D01*
X59356697Y-55166609D01*
X59356699Y-55166614D01*
X59356701Y-55166619D01*
X59356703Y-55166626D01*
X59462074Y-55421015D01*
X59462076Y-55421018D01*
X59462077Y-55421021D01*
X59463073Y-55422746D01*
X59463078Y-55422754D01*
X59599748Y-55659475D01*
X59599751Y-55659479D01*
X59767372Y-55877928D01*
X59962072Y-56072628D01*
X60180521Y-56240249D01*
X60418979Y-56377923D01*
X60418982Y-56377924D01*
X60419007Y-56377936D01*
X60419375Y-56378087D01*
X60507283Y-56414500D01*
X60527559Y-56428048D01*
X60532317Y-56432806D01*
X60537073Y-56444290D01*
X60541108Y-56448324D01*
X60541107Y-56454028D01*
X60550623Y-56477000D01*
X60532317Y-56521194D01*
X60488123Y-56539500D01*
X45467579Y-56539500D01*
X45443663Y-56534742D01*
X45437441Y-56532165D01*
X45403620Y-56498341D01*
X45403620Y-56450509D01*
X45403623Y-56450502D01*
X45437442Y-56416684D01*
X45531021Y-56377923D01*
X45769479Y-56240249D01*
X45987928Y-56072628D01*
X46182628Y-55877928D01*
X46350249Y-55659479D01*
X46487923Y-55421021D01*
X46593295Y-55166632D01*
X46664560Y-54900666D01*
X46700500Y-54627674D01*
X46700500Y-54352326D01*
X46664560Y-54079334D01*
X46593295Y-53813368D01*
X46487923Y-53558979D01*
X46350249Y-53320521D01*
X46182628Y-53102072D01*
X46127608Y-53047052D01*
X45987936Y-52907379D01*
X45987900Y-52907348D01*
X45987688Y-52907187D01*
X45769473Y-52739747D01*
X45532750Y-52603075D01*
X45532387Y-52602864D01*
X45530946Y-52602019D01*
X45530090Y-52601645D01*
X45528980Y-52601231D01*
X45514139Y-52595083D01*
X45400080Y-52547839D01*
X45320934Y-52515055D01*
X45312081Y-52506202D01*
X45278348Y-52497164D01*
X45277729Y-52496979D01*
X45277161Y-52496837D01*
X45276152Y-52496575D01*
X45010672Y-52425440D01*
X44737682Y-52389500D01*
X44737678Y-52389500D01*
X44737674Y-52389500D01*
X44462326Y-52389500D01*
X44462321Y-52389500D01*
X44462316Y-52389500D01*
X44193394Y-52424905D01*
X44193387Y-52424905D01*
X44189330Y-52425440D01*
X44189329Y-52425440D01*
X44189328Y-52425440D01*
X44189322Y-52425441D01*
X43923389Y-52496697D01*
X43923378Y-52496701D01*
X43923373Y-52496702D01*
X43923373Y-52496703D01*
X43922707Y-52496979D01*
X43668982Y-52602074D01*
X43430525Y-52739747D01*
X43212077Y-52907366D01*
X43212075Y-52907368D01*
X43212059Y-52907383D01*
X43017383Y-53102059D01*
X43017368Y-53102075D01*
X43017366Y-53102077D01*
X42849746Y-53320526D01*
X42849740Y-53320535D01*
X42773341Y-53452862D01*
X42757267Y-53471193D01*
X42751930Y-53475289D01*
X42705726Y-53487674D01*
X42664297Y-53463760D01*
X42664293Y-53463756D01*
X42663403Y-53462595D01*
X42650500Y-53424563D01*
X42650500Y-50977748D01*
X48861804Y-50977748D01*
X48861804Y-50977751D01*
X48861804Y-52922248D01*
X48873436Y-52980730D01*
X48873437Y-52980730D01*
X48873441Y-52980739D01*
X48917750Y-53047052D01*
X48984064Y-53091362D01*
X48984067Y-53091363D01*
X48984071Y-53091366D01*
X48984073Y-53091367D01*
X49042556Y-53103000D01*
X50377452Y-53103000D01*
X50435935Y-53091367D01*
X50502256Y-53047052D01*
X50546571Y-52980731D01*
X50558204Y-52922248D01*
X50558204Y-50977752D01*
X50546571Y-50919269D01*
X50542114Y-50912599D01*
X50535434Y-50902601D01*
X50535433Y-50902600D01*
X50502256Y-50852947D01*
X50502253Y-50852944D01*
X50435943Y-50808637D01*
X50435937Y-50808634D01*
X50435936Y-50808633D01*
X50435934Y-50808632D01*
X50435930Y-50808631D01*
X50435932Y-50808631D01*
X50377454Y-50797000D01*
X50377452Y-50797000D01*
X49042556Y-50797000D01*
X49042553Y-50797000D01*
X48984075Y-50808631D01*
X48984063Y-50808637D01*
X48917750Y-50852946D01*
X48873441Y-50919259D01*
X48873435Y-50919271D01*
X48861804Y-50977748D01*
X42650500Y-50977748D01*
X42650500Y-42218884D01*
X42655258Y-42194966D01*
X42658899Y-42186176D01*
X42692695Y-42152363D01*
X42694479Y-42151624D01*
X42732533Y-42148472D01*
X42732776Y-42148528D01*
X42733526Y-42148702D01*
X42746860Y-42153438D01*
X42756248Y-42158027D01*
X42771830Y-42165645D01*
X42839472Y-42175500D01*
X43200528Y-42175500D01*
X43268170Y-42165645D01*
X43372511Y-42114636D01*
X43454636Y-42032511D01*
X43505645Y-41928170D01*
X43515500Y-41860528D01*
X43515500Y-41449472D01*
X43505645Y-41381830D01*
X43454636Y-41277489D01*
X43372511Y-41195364D01*
X43372510Y-41195363D01*
X43370317Y-41194291D01*
X43365240Y-41190356D01*
X43363720Y-41187694D01*
X43356683Y-41182331D01*
X43350384Y-41175199D01*
X43334849Y-41129956D01*
X43335061Y-41126535D01*
X43353246Y-41086222D01*
X43434063Y-41005406D01*
X43434065Y-41005404D01*
X43468103Y-40932406D01*
X43482523Y-40912742D01*
X43486303Y-40909280D01*
X43488367Y-40907389D01*
X43533319Y-40891034D01*
X43574780Y-40909280D01*
X43578850Y-40913350D01*
X43591300Y-40931130D01*
X43608574Y-40968173D01*
X43625936Y-41005406D01*
X43625937Y-41005408D01*
X43709649Y-41089119D01*
X43710782Y-41089618D01*
X43816827Y-41139068D01*
X43865684Y-41145500D01*
X43865690Y-41145500D01*
X44214310Y-41145500D01*
X44214316Y-41145500D01*
X44263173Y-41139068D01*
X44370404Y-41089065D01*
X44454065Y-41005404D01*
X44454066Y-41005401D01*
X44457202Y-41000924D01*
X44458062Y-41001526D01*
X44466492Y-40990007D01*
X44473509Y-40983578D01*
X44474825Y-40983099D01*
X44518449Y-40967217D01*
X44521668Y-40967357D01*
X44563145Y-40985604D01*
X44568036Y-40990495D01*
X44676464Y-41053095D01*
X44733132Y-41068279D01*
X44797393Y-41085499D01*
X44797399Y-41085500D01*
X44922601Y-41085500D01*
X44922606Y-41085499D01*
X44958533Y-41075871D01*
X45043536Y-41053095D01*
X45151964Y-40990495D01*
X45240495Y-40901964D01*
X45303095Y-40793536D01*
X45331405Y-40687883D01*
X45335499Y-40672606D01*
X45335500Y-40672600D01*
X45335500Y-40547399D01*
X45335499Y-40547393D01*
X45312607Y-40461964D01*
X45303095Y-40426464D01*
X45240495Y-40318036D01*
X45151964Y-40229505D01*
X45043536Y-40166905D01*
X45043535Y-40166904D01*
X45043534Y-40166904D01*
X45043517Y-40166899D01*
X44922611Y-40134500D01*
X44922606Y-40134500D01*
X44922601Y-40134500D01*
X44797399Y-40134500D01*
X44797393Y-40134500D01*
X44797387Y-40134500D01*
X44676466Y-40166903D01*
X44676465Y-40166904D01*
X44568037Y-40229503D01*
X44556245Y-40241295D01*
X44535970Y-40254841D01*
X44527180Y-40258482D01*
X44479345Y-40258483D01*
X44479342Y-40258481D01*
X44471381Y-40255183D01*
X44451107Y-40241636D01*
X44370407Y-40160936D01*
X44263171Y-40110930D01*
X44214328Y-40104500D01*
X44214322Y-40104500D01*
X44214316Y-40104500D01*
X43865684Y-40104500D01*
X43865677Y-40104500D01*
X43865670Y-40104500D01*
X43816827Y-40110930D01*
X43709591Y-40160936D01*
X43709591Y-40160937D01*
X43625937Y-40244590D01*
X43591897Y-40317588D01*
X43577480Y-40337252D01*
X43571641Y-40342603D01*
X43526691Y-40358966D01*
X43485220Y-40340719D01*
X43481148Y-40336647D01*
X43468697Y-40318866D01*
X43467874Y-40317101D01*
X43434620Y-40245788D01*
X43434120Y-40244650D01*
X43350407Y-40160936D01*
X43243171Y-40110930D01*
X43194328Y-40104500D01*
X43194322Y-40104500D01*
X43194316Y-40104500D01*
X42845684Y-40104500D01*
X42845677Y-40104500D01*
X42845670Y-40104500D01*
X42796827Y-40110930D01*
X42750679Y-40132450D01*
X42726994Y-40138246D01*
X42717486Y-40138661D01*
X42672547Y-40122310D01*
X42670894Y-40120796D01*
X42652068Y-40088136D01*
X42651958Y-40087639D01*
X42650500Y-40074216D01*
X42650500Y-33060051D01*
X42655254Y-33036142D01*
X42657831Y-33029920D01*
X42691650Y-32996095D01*
X42739483Y-32996090D01*
X42740834Y-32996649D01*
X42771032Y-33023137D01*
X42849743Y-33159467D01*
X42849748Y-33159475D01*
X42891230Y-33213536D01*
X42986194Y-33337298D01*
X43003927Y-33360407D01*
X43017372Y-33377928D01*
X43212072Y-33572628D01*
X43430521Y-33740249D01*
X43668979Y-33877923D01*
X43923368Y-33983295D01*
X44189334Y-34054560D01*
X44462326Y-34090500D01*
X44462332Y-34090500D01*
X44737668Y-34090500D01*
X44737674Y-34090500D01*
X45010666Y-34054560D01*
X45276632Y-33983295D01*
X45531021Y-33877923D01*
X45769479Y-33740249D01*
X45987928Y-33572628D01*
X46182628Y-33377928D01*
X46350249Y-33159479D01*
X46487923Y-32921021D01*
X46593295Y-32666632D01*
X46664560Y-32400666D01*
X46700500Y-32127674D01*
X46700500Y-31854472D01*
X56409500Y-31854472D01*
X56409500Y-32215526D01*
X56418121Y-32274707D01*
X56418122Y-32274710D01*
X56419354Y-32283167D01*
X56419354Y-32283168D01*
X56419355Y-32283170D01*
X56470364Y-32387511D01*
X56552489Y-32469636D01*
X56656830Y-32520645D01*
X56724472Y-32530500D01*
X57135528Y-32530500D01*
X57203170Y-32520645D01*
X57307511Y-32469636D01*
X57389636Y-32387511D01*
X57392818Y-32381001D01*
X57407591Y-32361608D01*
X57414731Y-32355303D01*
X57459970Y-32339774D01*
X57463387Y-32339986D01*
X57503702Y-32358171D01*
X57569593Y-32424063D01*
X57569650Y-32424120D01*
X57570797Y-32424625D01*
X57642103Y-32457875D01*
X57642104Y-32457876D01*
X57642571Y-32458094D01*
X57662250Y-32472518D01*
X57667602Y-32478358D01*
X57672038Y-32490543D01*
X57674419Y-32493142D01*
X57675724Y-32500546D01*
X57684025Y-32520585D01*
X57683465Y-32521934D01*
X57683966Y-32523308D01*
X57665719Y-32564779D01*
X57661647Y-32568851D01*
X57643867Y-32581301D01*
X57569590Y-32615937D01*
X57485937Y-32699591D01*
X57485936Y-32699591D01*
X57435930Y-32806827D01*
X57429500Y-32855670D01*
X57429500Y-33204328D01*
X57435930Y-33253171D01*
X57485936Y-33360407D01*
X57569649Y-33444119D01*
X57570782Y-33444618D01*
X57676827Y-33494068D01*
X57725684Y-33500500D01*
X57725690Y-33500500D01*
X58174310Y-33500500D01*
X58174316Y-33500500D01*
X58223173Y-33494068D01*
X58330404Y-33444065D01*
X58378022Y-33396445D01*
X58398298Y-33382899D01*
X58407089Y-33379258D01*
X58454918Y-33379257D01*
X58463712Y-33382899D01*
X58483988Y-33396447D01*
X58498036Y-33410495D01*
X58606464Y-33473095D01*
X58663132Y-33488279D01*
X58727393Y-33505499D01*
X58727399Y-33505500D01*
X58852600Y-33505500D01*
X58852601Y-33505500D01*
X58852606Y-33505499D01*
X58895265Y-33494068D01*
X58973536Y-33473095D01*
X59081964Y-33410495D01*
X59170495Y-33321964D01*
X59233095Y-33213536D01*
X59265500Y-33092601D01*
X59265500Y-32967399D01*
X59265499Y-32967393D01*
X59248279Y-32903132D01*
X59233095Y-32846464D01*
X59170495Y-32738036D01*
X59081964Y-32649505D01*
X58973536Y-32586905D01*
X58973535Y-32586904D01*
X58973534Y-32586904D01*
X58973517Y-32586899D01*
X58852611Y-32554500D01*
X58852606Y-32554500D01*
X58852601Y-32554500D01*
X58727399Y-32554500D01*
X58727393Y-32554500D01*
X58727387Y-32554500D01*
X58606466Y-32586903D01*
X58606465Y-32586904D01*
X58498035Y-32649504D01*
X58483988Y-32663551D01*
X58463712Y-32677098D01*
X58463711Y-32677099D01*
X58454920Y-32680740D01*
X58407084Y-32680739D01*
X58407083Y-32680738D01*
X58407082Y-32680737D01*
X58398296Y-32677098D01*
X58378022Y-32663552D01*
X58330406Y-32615936D01*
X58268147Y-32586904D01*
X58257407Y-32581895D01*
X58237743Y-32567476D01*
X58232392Y-32561636D01*
X58228140Y-32549954D01*
X58225093Y-32546628D01*
X58225289Y-32542120D01*
X58216033Y-32516685D01*
X58234277Y-32475221D01*
X58238355Y-32471144D01*
X58256122Y-32458702D01*
X58330404Y-32424065D01*
X58414065Y-32340404D01*
X58464068Y-32233173D01*
X58470500Y-32184316D01*
X58470500Y-31835684D01*
X58464068Y-31786827D01*
X58414618Y-31680782D01*
X58414119Y-31679649D01*
X58330407Y-31595936D01*
X58223171Y-31545930D01*
X58174328Y-31539500D01*
X58174322Y-31539500D01*
X58174316Y-31539500D01*
X57725684Y-31539500D01*
X57725677Y-31539500D01*
X57725670Y-31539500D01*
X57676827Y-31545930D01*
X57596495Y-31583391D01*
X57569593Y-31595936D01*
X57569591Y-31595937D01*
X57569589Y-31595939D01*
X57494824Y-31670705D01*
X57484185Y-31679239D01*
X57469271Y-31688730D01*
X57422159Y-31697013D01*
X57416783Y-31695819D01*
X57386149Y-31679002D01*
X57307512Y-31600365D01*
X57307511Y-31600364D01*
X57203170Y-31549355D01*
X57203168Y-31549354D01*
X57203167Y-31549354D01*
X57194717Y-31548123D01*
X57194714Y-31548122D01*
X57135528Y-31539500D01*
X56724472Y-31539500D01*
X56656834Y-31549353D01*
X56656833Y-31549353D01*
X56656832Y-31549354D01*
X56595517Y-31579329D01*
X56552485Y-31600366D01*
X56470366Y-31682485D01*
X56470365Y-31682486D01*
X56470365Y-31682487D01*
X56419357Y-31786827D01*
X56419354Y-31786833D01*
X56419353Y-31786834D01*
X56409500Y-31854472D01*
X46700500Y-31854472D01*
X46700500Y-31852326D01*
X46664560Y-31579334D01*
X46655609Y-31545930D01*
X46628927Y-31446351D01*
X46593295Y-31313368D01*
X46487923Y-31058979D01*
X46350249Y-30820521D01*
X46182628Y-30602072D01*
X46115317Y-30534761D01*
X45987935Y-30407378D01*
X45987900Y-30407348D01*
X45987688Y-30407187D01*
X45769473Y-30239747D01*
X45637136Y-30163342D01*
X45618805Y-30147267D01*
X45614709Y-30141930D01*
X45602324Y-30095726D01*
X45626237Y-30054298D01*
X45627404Y-30053402D01*
X45665435Y-30040500D01*
X60279949Y-30040500D01*
X60303859Y-30045255D01*
G37*
%TD.AperFunction*%
%TA.AperFunction,Conductor*%
G36*
X53521670Y-44703956D02*
G01*
X53574445Y-44718098D01*
X53589511Y-44724339D01*
X53625222Y-44744956D01*
X53633917Y-44748586D01*
X53673666Y-44765181D01*
X53673668Y-44765181D01*
X53673671Y-44765183D01*
X53704218Y-44773552D01*
X53735680Y-44777964D01*
X53776903Y-44802230D01*
X53789500Y-44839858D01*
X53789500Y-45592828D01*
X53784742Y-45616745D01*
X53782167Y-45622964D01*
X53748341Y-45656787D01*
X53700506Y-45656786D01*
X53694286Y-45654209D01*
X53674015Y-45640663D01*
X53589542Y-45556190D01*
X53589540Y-45556189D01*
X53492517Y-45516000D01*
X53492515Y-45516000D01*
X53492513Y-45516000D01*
X51746645Y-45516000D01*
X51746643Y-45516000D01*
X51740610Y-45517201D01*
X51740484Y-45516571D01*
X51728527Y-45518950D01*
X51725200Y-45519249D01*
X51724470Y-45519020D01*
X51719608Y-45519500D01*
X51482013Y-45519500D01*
X51458093Y-45514741D01*
X51437577Y-45506242D01*
X51403755Y-45472419D01*
X51395257Y-45451903D01*
X51390499Y-45427985D01*
X51390499Y-44955888D01*
X51390198Y-44952832D01*
X51390798Y-44952772D01*
X51390796Y-44933000D01*
X51392653Y-44923664D01*
X51419230Y-44883893D01*
X51419235Y-44883890D01*
X51423518Y-44881029D01*
X51458234Y-44870500D01*
X52030240Y-44870500D01*
X52090182Y-44858577D01*
X52158157Y-44813157D01*
X52182519Y-44776696D01*
X52222292Y-44750120D01*
X52251265Y-44751214D01*
X52272865Y-44757236D01*
X52325739Y-44764771D01*
X53125721Y-44773759D01*
X53204836Y-44774648D01*
X53204843Y-44774648D01*
X53204843Y-44774647D01*
X53204845Y-44774648D01*
X53239645Y-44770364D01*
X53259217Y-44767956D01*
X53259218Y-44767955D01*
X53259224Y-44767955D01*
X53291175Y-44759586D01*
X53341855Y-44738760D01*
X53366828Y-44724341D01*
X53381901Y-44718098D01*
X53434675Y-44703957D01*
X53450851Y-44701827D01*
X53505494Y-44701827D01*
X53521670Y-44703956D01*
G37*
%TD.AperFunction*%
%TD*%
M02*
