%TF.GenerationSoftware,KiCad,Pcbnew,10.0.3*%
%TF.CreationDate,2026-07-08T05:54:12-04:00*%
%TF.ProjectId,SAM10M8_18mm_HV_V2,53414d31-304d-4385-9f31-386d6d5f4856,rev?*%
%TF.SameCoordinates,Original*%
%TF.FileFunction,Soldermask,Bot*%
%TF.FilePolarity,Negative*%
%FSLAX46Y46*%
G04 Gerber Fmt 4.6, Leading zero omitted, Abs format (unit mm)*
G04 Created by KiCad (PCBNEW 10.0.3) date 2026-07-08 05:54:12*
%MOMM*%
%LPD*%
G01*
G04 APERTURE LIST*
%ADD10C,0.010000*%
%ADD11C,3.800000*%
G04 APERTURE END LIST*
D10*
%TO.C,U1*%
X47200000Y-39292500D02*
X47200000Y-37692500D01*
X45300000Y-37692500D01*
X45300000Y-39292500D01*
X47200000Y-39292500D01*
G36*
X47200000Y-39292500D02*
G01*
X45300000Y-39292500D01*
X45300000Y-37692500D01*
X47200000Y-37692500D01*
X47200000Y-39292500D01*
G37*
X47200000Y-41192500D02*
X47200000Y-39592500D01*
X45300000Y-39592500D01*
X45300000Y-41192500D01*
X47200000Y-41192500D01*
G36*
X47200000Y-41192500D02*
G01*
X45300000Y-41192500D01*
X45300000Y-39592500D01*
X47200000Y-39592500D01*
X47200000Y-41192500D01*
G37*
X47200000Y-43092500D02*
X47200000Y-41492500D01*
X45300000Y-41492500D01*
X45300000Y-43092500D01*
X47200000Y-43092500D01*
G36*
X47200000Y-43092500D02*
G01*
X45300000Y-43092500D01*
X45300000Y-41492500D01*
X47200000Y-41492500D01*
X47200000Y-43092500D01*
G37*
X47200000Y-44992500D02*
X47200000Y-43392500D01*
X45300000Y-43392500D01*
X45300000Y-44992500D01*
X47200000Y-44992500D01*
G36*
X47200000Y-44992500D02*
G01*
X45300000Y-44992500D01*
X45300000Y-43392500D01*
X47200000Y-43392500D01*
X47200000Y-44992500D01*
G37*
X47200000Y-46892500D02*
X47200000Y-45292500D01*
X45300000Y-45292500D01*
X45300000Y-46892500D01*
X47200000Y-46892500D01*
G36*
X47200000Y-46892500D02*
G01*
X45300000Y-46892500D01*
X45300000Y-45292500D01*
X47200000Y-45292500D01*
X47200000Y-46892500D01*
G37*
X49850000Y-36642500D02*
X49850000Y-34742500D01*
X48250000Y-34742500D01*
X48250000Y-36642500D01*
X49850000Y-36642500D01*
G36*
X49850000Y-36642500D02*
G01*
X48250000Y-36642500D01*
X48250000Y-34742500D01*
X49850000Y-34742500D01*
X49850000Y-36642500D01*
G37*
X49850000Y-49842500D02*
X49850000Y-47942500D01*
X48250000Y-47942500D01*
X48250000Y-49842500D01*
X49850000Y-49842500D01*
G36*
X49850000Y-49842500D02*
G01*
X48250000Y-49842500D01*
X48250000Y-47942500D01*
X49850000Y-47942500D01*
X49850000Y-49842500D01*
G37*
X51750000Y-36642500D02*
X51750000Y-34742500D01*
X50150000Y-34742500D01*
X50150000Y-36642500D01*
X51750000Y-36642500D01*
G36*
X51750000Y-36642500D02*
G01*
X50150000Y-36642500D01*
X50150000Y-34742500D01*
X51750000Y-34742500D01*
X51750000Y-36642500D01*
G37*
X51750000Y-49842500D02*
X51750000Y-47942500D01*
X50150000Y-47942500D01*
X50150000Y-49842500D01*
X51750000Y-49842500D01*
G36*
X51750000Y-49842500D02*
G01*
X50150000Y-49842500D01*
X50150000Y-47942500D01*
X51750000Y-47942500D01*
X51750000Y-49842500D01*
G37*
X53650000Y-36642500D02*
X53650000Y-34742500D01*
X52050000Y-34742500D01*
X52050000Y-36642500D01*
X53650000Y-36642500D01*
G36*
X53650000Y-36642500D02*
G01*
X52050000Y-36642500D01*
X52050000Y-34742500D01*
X53650000Y-34742500D01*
X53650000Y-36642500D01*
G37*
X53650000Y-49842500D02*
X53650000Y-47942500D01*
X52050000Y-47942500D01*
X52050000Y-49842500D01*
X53650000Y-49842500D01*
G36*
X53650000Y-49842500D02*
G01*
X52050000Y-49842500D01*
X52050000Y-47942500D01*
X53650000Y-47942500D01*
X53650000Y-49842500D01*
G37*
X55550000Y-36642500D02*
X55550000Y-34742500D01*
X53950000Y-34742500D01*
X53950000Y-36642500D01*
X55550000Y-36642500D01*
G36*
X55550000Y-36642500D02*
G01*
X53950000Y-36642500D01*
X53950000Y-34742500D01*
X55550000Y-34742500D01*
X55550000Y-36642500D01*
G37*
X55550000Y-49842500D02*
X55550000Y-47942500D01*
X53950000Y-47942500D01*
X53950000Y-49842500D01*
X55550000Y-49842500D01*
G36*
X55550000Y-49842500D02*
G01*
X53950000Y-49842500D01*
X53950000Y-47942500D01*
X55550000Y-47942500D01*
X55550000Y-49842500D01*
G37*
X57450000Y-36642500D02*
X57450000Y-34742500D01*
X55850000Y-34742500D01*
X55850000Y-36642500D01*
X57450000Y-36642500D01*
G36*
X57450000Y-36642500D02*
G01*
X55850000Y-36642500D01*
X55850000Y-34742500D01*
X57450000Y-34742500D01*
X57450000Y-36642500D01*
G37*
X57450000Y-49842500D02*
X57450000Y-47942500D01*
X55850000Y-47942500D01*
X55850000Y-49842500D01*
X57450000Y-49842500D01*
G36*
X57450000Y-49842500D02*
G01*
X55850000Y-49842500D01*
X55850000Y-47942500D01*
X57450000Y-47942500D01*
X57450000Y-49842500D01*
G37*
X60400000Y-39292500D02*
X60400000Y-37692500D01*
X58500000Y-37692500D01*
X58500000Y-39292500D01*
X60400000Y-39292500D01*
G36*
X60400000Y-39292500D02*
G01*
X58500000Y-39292500D01*
X58500000Y-37692500D01*
X60400000Y-37692500D01*
X60400000Y-39292500D01*
G37*
X60400000Y-41192500D02*
X60400000Y-39592500D01*
X58500000Y-39592500D01*
X58500000Y-41192500D01*
X60400000Y-41192500D01*
G36*
X60400000Y-41192500D02*
G01*
X58500000Y-41192500D01*
X58500000Y-39592500D01*
X60400000Y-39592500D01*
X60400000Y-41192500D01*
G37*
X60400000Y-43092500D02*
X60400000Y-41492500D01*
X58500000Y-41492500D01*
X58500000Y-43092500D01*
X60400000Y-43092500D01*
G36*
X60400000Y-43092500D02*
G01*
X58500000Y-43092500D01*
X58500000Y-41492500D01*
X60400000Y-41492500D01*
X60400000Y-43092500D01*
G37*
X60400000Y-44992500D02*
X60400000Y-43392500D01*
X58500000Y-43392500D01*
X58500000Y-44992500D01*
X60400000Y-44992500D01*
G36*
X60400000Y-44992500D02*
G01*
X58500000Y-44992500D01*
X58500000Y-43392500D01*
X60400000Y-43392500D01*
X60400000Y-44992500D01*
G37*
X60400000Y-46892500D02*
X60400000Y-45292500D01*
X58500000Y-45292500D01*
X58500000Y-46892500D01*
X60400000Y-46892500D01*
G36*
X60400000Y-46892500D02*
G01*
X58500000Y-46892500D01*
X58500000Y-45292500D01*
X60400000Y-45292500D01*
X60400000Y-46892500D01*
G37*
%TD*%
D11*
%TO.C,H2*%
X61350000Y-31990000D03*
%TD*%
%TO.C,H3*%
X44600000Y-54490000D03*
%TD*%
%TO.C,H4*%
X61350000Y-54490000D03*
%TD*%
%TO.C,H1*%
X44600000Y-31990000D03*
%TD*%
M02*
